<svg width="428" height="730" viewBox="0 0 428 730" fill="none" xmlns="http://www.w3.org/2000/svg">
<g filter="url(#filter0_dd_367_7498)">
<rect width="420" height="722" transform="translate(4)" fill="white" fill-opacity="0.95"/>
<path d="M31.092 26.216C29.388 26.216 27.954 25.634 26.79 24.47C25.626 23.306 25.044 21.818 25.044 20.006C25.044 18.194 25.626 16.706 26.79 15.542C27.954 14.378 29.388 13.796 31.092 13.796C32.892 13.796 34.362 14.504 35.502 15.92L34.638 16.478C34.254 15.95 33.744 15.53 33.108 15.218C32.484 14.894 31.812 14.732 31.092 14.732C29.676 14.732 28.494 15.224 27.546 16.208C26.598 17.192 26.124 18.458 26.124 20.006C26.124 21.542 26.598 22.808 27.546 23.804C28.506 24.788 29.688 25.28 31.092 25.28C31.812 25.28 32.484 25.124 33.108 24.812C33.744 24.488 34.254 24.062 34.638 23.534L35.502 24.074C34.35 25.502 32.88 26.216 31.092 26.216ZM38.4878 26H37.5518V17.306H38.4878V18.8C39.3398 17.684 40.3178 17.126 41.4218 17.126V18.152C41.3138 18.128 41.1578 18.116 40.9538 18.116C40.5218 18.116 40.0538 18.278 39.5498 18.602C39.0458 18.926 38.6918 19.28 38.4878 19.664V26ZM42.7606 21.644C42.7606 20.372 43.1566 19.298 43.9486 18.422C44.7526 17.534 45.7546 17.09 46.9546 17.09C48.2266 17.09 49.2286 17.534 49.9606 18.422C50.6926 19.298 51.0586 20.39 51.0586 21.698V21.95H43.7866C43.8346 22.934 44.1646 23.756 44.7766 24.416C45.3886 25.076 46.1926 25.406 47.1886 25.406C48.3406 25.406 49.2886 25.004 50.0326 24.2L50.5186 24.812C49.6186 25.748 48.4846 26.216 47.1166 26.216C45.8446 26.216 44.8006 25.79 43.9846 24.938C43.1686 24.086 42.7606 22.988 42.7606 21.644ZM46.9366 17.9C45.9886 17.9 45.2326 18.242 44.6686 18.926C44.1166 19.598 43.8226 20.36 43.7866 21.212H50.1046C50.0926 20.372 49.8106 19.61 49.2586 18.926C48.7186 18.242 47.9446 17.9 46.9366 17.9ZM59.9395 26H59.0035V24.974C58.2475 25.802 57.2635 26.216 56.0515 26.216C55.2475 26.216 54.5395 25.958 53.9275 25.442C53.3155 24.914 53.0095 24.206 53.0095 23.318C53.0095 22.418 53.3095 21.716 53.9095 21.212C54.5215 20.696 55.2355 20.438 56.0515 20.438C57.2755 20.438 58.2595 20.852 59.0035 21.68V19.916C59.0035 19.292 58.7815 18.806 58.3375 18.458C57.8935 18.098 57.3355 17.918 56.6635 17.918C55.5955 17.918 54.6895 18.344 53.9455 19.196L53.4235 18.548C54.3235 17.576 55.4395 17.09 56.7715 17.09C57.7075 17.09 58.4695 17.324 59.0575 17.792C59.6455 18.26 59.9395 18.956 59.9395 19.88V26ZM59.0035 24.29V22.382C58.3795 21.578 57.5035 21.176 56.3755 21.176C55.6675 21.176 55.0915 21.38 54.6475 21.788C54.2155 22.196 53.9995 22.712 53.9995 23.336C53.9995 23.96 54.2155 24.476 54.6475 24.884C55.0915 25.28 55.6675 25.478 56.3755 25.478C57.5155 25.478 58.3915 25.082 59.0035 24.29ZM64.7543 26.216C63.6143 26.216 63.0443 25.586 63.0443 24.326V18.134H61.6043V17.306H63.0443V14.93H63.9983V17.306H65.7623V18.134H63.9983V24.182C63.9983 24.974 64.2983 25.37 64.8983 25.37C65.2943 25.37 65.6183 25.232 65.8703 24.956L66.2303 25.676C65.8463 26.036 65.3543 26.216 64.7543 26.216ZM67.3173 21.644C67.3173 20.372 67.7133 19.298 68.5053 18.422C69.3093 17.534 70.3113 17.09 71.5113 17.09C72.7833 17.09 73.7853 17.534 74.5173 18.422C75.2493 19.298 75.6153 20.39 75.6153 21.698V21.95H68.3433C68.3913 22.934 68.7213 23.756 69.3333 24.416C69.9453 25.076 70.7493 25.406 71.7453 25.406C72.8973 25.406 73.8453 25.004 74.5893 24.2L75.0753 24.812C74.1753 25.748 73.0413 26.216 71.6733 26.216C70.4013 26.216 69.3573 25.79 68.5413 24.938C67.7253 24.086 67.3173 22.988 67.3173 21.644ZM71.4933 17.9C70.5453 17.9 69.7893 18.242 69.2253 18.926C68.6733 19.598 68.3793 20.36 68.3433 21.212H74.6613C74.6493 20.372 74.3673 19.61 73.8153 18.926C73.2753 18.242 72.5013 17.9 71.4933 17.9ZM83.7544 26H82.7284V13.994H90.3424V14.93H83.7544V19.376H90.2164V20.312H83.7544V26ZM92.9162 15.83C92.7242 15.83 92.5562 15.758 92.4122 15.614C92.2682 15.47 92.1962 15.302 92.1962 15.11C92.1962 14.918 92.2682 14.75 92.4122 14.606C92.5562 14.462 92.7242 14.39 92.9162 14.39C93.1202 14.39 93.2882 14.462 93.4202 14.606C93.5642 14.738 93.6362 14.906 93.6362 15.11C93.6362 15.314 93.5642 15.488 93.4202 15.632C93.2882 15.764 93.1202 15.83 92.9162 15.83ZM93.3842 26H92.4482V17.306H93.3842V26ZM97.2338 26H96.2978V13.994H97.2338V26ZM102.037 26.216C100.897 26.216 100.327 25.586 100.327 24.326V18.134H98.8875V17.306H100.327V14.93H101.281V17.306H103.045V18.134H101.281V24.182C101.281 24.974 101.581 25.37 102.181 25.37C102.577 25.37 102.901 25.232 103.153 24.956L103.513 25.676C103.129 26.036 102.637 26.216 102.037 26.216ZM104.6 21.644C104.6 20.372 104.996 19.298 105.788 18.422C106.592 17.534 107.594 17.09 108.794 17.09C110.066 17.09 111.068 17.534 111.8 18.422C112.532 19.298 112.898 20.39 112.898 21.698V21.95H105.626C105.674 22.934 106.004 23.756 106.616 24.416C107.228 25.076 108.032 25.406 109.028 25.406C110.18 25.406 111.128 25.004 111.872 24.2L112.358 24.812C111.458 25.748 110.324 26.216 108.956 26.216C107.684 26.216 106.64 25.79 105.824 24.938C105.008 24.086 104.6 22.988 104.6 21.644ZM108.776 17.9C107.828 17.9 107.072 18.242 106.508 18.926C105.956 19.598 105.662 20.36 105.626 21.212H111.944C111.932 20.372 111.65 19.61 111.098 18.926C110.558 18.242 109.784 17.9 108.776 17.9ZM116.253 26H115.317V17.306H116.253V18.8C117.105 17.684 118.083 17.126 119.187 17.126V18.152C119.079 18.128 118.923 18.116 118.719 18.116C118.287 18.116 117.819 18.278 117.315 18.602C116.811 18.926 116.457 19.28 116.253 19.664V26Z" fill="black"/>
<mask id="mask0_367_7498" style="mask-type:alpha" maskUnits="userSpaceOnUse" x="388" y="12" width="16" height="16">
<rect x="388" y="12" width="16" height="16" fill="#D9D9D9"/>
</mask>
<g mask="url(#mask0_367_7498)">
<path d="M396 20.6999L392.5 24.1999C392.4 24.2999 392.283 24.3499 392.15 24.3499C392.017 24.3499 391.9 24.2999 391.8 24.1999C391.7 24.0999 391.65 23.9832 391.65 23.8499C391.65 23.7166 391.7 23.5999 391.8 23.4999L395.3 19.9999L391.8 16.4999C391.7 16.3999 391.65 16.2832 391.65 16.1499C391.65 16.0166 391.7 15.8999 391.8 15.7999C391.9 15.6999 392.017 15.6499 392.15 15.6499C392.283 15.6499 392.4 15.6999 392.5 15.7999L396 19.2999L399.5 15.7999C399.6 15.6999 399.717 15.6499 399.85 15.6499C399.983 15.6499 400.1 15.6999 400.2 15.7999C400.3 15.8999 400.35 16.0166 400.35 16.1499C400.35 16.2832 400.3 16.3999 400.2 16.4999L396.7 19.9999L400.2 23.4999C400.3 23.5999 400.35 23.7166 400.35 23.8499C400.35 23.9832 400.3 24.0999 400.2 24.1999C400.1 24.2999 399.983 24.3499 399.85 24.3499C399.717 24.3499 399.6 24.2999 399.5 24.1999L396 20.6999Z" fill="#7D8393"/>
</g>
<rect x="24.5" y="44.5" width="379" height="43" rx="5.5" stroke="#C5E1DF"/>
<path d="M47.6445 66.9609C47.5661 67.2249 47.5002 67.4967 47.4482 67.7754L47.4473 67.7842C47.3742 68.2227 47.3502 68.6804 47.374 69.1553C47.3981 69.635 47.4754 70.1012 47.6064 70.5527C47.6749 70.7959 47.7617 71.0273 47.8652 71.2471H42.167C42.0988 71.2471 42.0701 71.2292 42.0439 71.2031C42.0178 71.1769 42 71.1484 42 71.0801V69.7471C42 69.3782 42.0921 69.0513 42.2734 68.7549C42.4501 68.4662 42.7011 68.2403 43.0449 68.0791C43.8849 67.6916 44.7031 67.4019 45.499 67.2061C46.2123 67.0306 46.9321 66.9335 47.6582 66.916C47.6536 66.9309 47.649 66.9459 47.6445 66.9609ZM47.9004 59.7002C48.6577 59.7003 49.2588 59.9453 49.7402 60.4268C50.2217 60.9082 50.4667 61.5093 50.4668 62.2666C50.4668 63.0239 50.2216 63.6249 49.7402 64.1064C49.2588 64.5879 48.6577 64.8339 47.9004 64.834C47.1429 64.834 46.5421 64.588 46.0605 64.1064C45.579 63.6249 45.333 63.0241 45.333 62.2666C45.3331 61.5092 45.5791 60.9082 46.0605 60.4268C46.542 59.9454 47.1431 59.7002 47.9004 59.7002Z" stroke="#3E7880"/>
<path d="M54.5 64.813C55.6034 64.813 56.5436 65.2014 57.3213 65.979C58.0989 66.7567 58.4873 67.6969 58.4873 68.8003C58.4873 69.9037 58.0989 70.8439 57.3213 71.6216C56.5436 72.3992 55.6034 72.7876 54.5 72.7876C53.3966 72.7876 52.4564 72.3992 51.6787 71.6216C50.9011 70.8439 50.5127 69.9037 50.5127 68.8003C50.5127 67.6969 50.9011 66.7567 51.6787 65.979C52.4564 65.2014 53.3966 64.813 54.5 64.813ZM54.0879 68.9604H54.082L54.0908 68.9692L55.8115 70.689L55.8203 70.6978L56.3975 70.1206L56.3887 70.1118L54.9121 68.6343V66.3882H54.0879V68.9604Z" fill="#3E7880" stroke="#3E7880" stroke-width="0.025"/>
<path d="M66.256 70H64.852V61.996H68.368C69.176 61.996 69.812 62.236 70.276 62.716C70.748 63.196 70.984 63.792 70.984 64.504C70.984 65.208 70.748 65.804 70.276 66.292C69.812 66.772 69.176 67.012 68.368 67.012H66.256V70ZM69.16 65.428C69.416 65.196 69.544 64.888 69.544 64.504C69.544 64.12 69.416 63.812 69.16 63.58C68.904 63.348 68.576 63.232 68.176 63.232H66.256V65.776H68.176C68.576 65.776 68.904 65.66 69.16 65.428ZM77.3128 70H76.0528V69.232C75.5088 69.84 74.8248 70.144 74.0008 70.144C72.7608 70.144 72.1408 69.532 72.1408 68.308V64.204H73.4008V67.852C73.4008 68.276 73.5008 68.58 73.7008 68.764C73.9008 68.94 74.1888 69.028 74.5648 69.028C74.8688 69.028 75.1528 68.956 75.4168 68.812C75.6808 68.668 75.8928 68.488 76.0528 68.272V64.204H77.3128V70ZM80.2334 70H78.9734V64.204H80.2334V65.056C80.4574 64.768 80.7374 64.532 81.0734 64.348C81.4094 64.164 81.7574 64.072 82.1174 64.072V65.32C82.0054 65.296 81.8734 65.284 81.7214 65.284C81.4574 65.284 81.1734 65.364 80.8694 65.524C80.5734 65.676 80.3614 65.852 80.2334 66.052V70ZM82.7975 67.096C82.7975 66.216 83.0775 65.492 83.6375 64.924C84.1975 64.348 84.9175 64.06 85.7975 64.06C86.7655 64.06 87.5055 64.404 88.0175 65.092L87.1895 65.86C86.8695 65.404 86.4255 65.176 85.8575 65.176C85.3295 65.176 84.9055 65.356 84.5855 65.716C84.2655 66.068 84.1055 66.528 84.1055 67.096C84.1055 67.664 84.2655 68.128 84.5855 68.488C84.9055 68.848 85.3295 69.028 85.8575 69.028C86.4095 69.028 86.8535 68.8 87.1895 68.344L88.0175 69.112C87.5055 69.8 86.7655 70.144 85.7975 70.144C84.9175 70.144 84.1975 69.86 83.6375 69.292C83.0775 68.716 82.7975 67.984 82.7975 67.096ZM94.3304 70H93.0704V66.352C93.0704 65.928 92.9664 65.628 92.7584 65.452C92.5584 65.268 92.2704 65.176 91.8944 65.176C91.5984 65.176 91.3184 65.252 91.0544 65.404C90.7904 65.556 90.5744 65.74 90.4064 65.956V70H89.1464V61.996H90.4064V64.996C90.6224 64.74 90.9104 64.52 91.2704 64.336C91.6384 64.152 92.0344 64.06 92.4584 64.06C93.7064 64.06 94.3304 64.672 94.3304 65.896V70ZM100.791 70H99.5307V69.376C99.0827 69.888 98.4587 70.144 97.6587 70.144C97.1307 70.144 96.6627 69.976 96.2547 69.64C95.8467 69.296 95.6427 68.824 95.6427 68.224C95.6427 67.608 95.8427 67.14 96.2427 66.82C96.6507 66.5 97.1227 66.34 97.6587 66.34C98.4827 66.34 99.1067 66.588 99.5307 67.084V66.22C99.5307 65.884 99.4067 65.62 99.1587 65.428C98.9107 65.236 98.5827 65.14 98.1747 65.14C97.5267 65.14 96.9547 65.384 96.4587 65.872L95.9427 64.996C96.5987 64.372 97.4107 64.06 98.3787 64.06C99.0907 64.06 99.6707 64.228 100.119 64.564C100.567 64.9 100.791 65.432 100.791 66.16V70ZM99.5307 68.68V67.804C99.2427 67.404 98.7827 67.204 98.1507 67.204C97.7907 67.204 97.4947 67.3 97.2627 67.492C97.0307 67.684 96.9147 67.936 96.9147 68.248C96.9147 68.56 97.0307 68.812 97.2627 69.004C97.4947 69.188 97.7907 69.28 98.1507 69.28C98.7827 69.28 99.2427 69.08 99.5307 68.68ZM101.944 69.244L102.52 68.332C102.736 68.556 103.028 68.748 103.396 68.908C103.764 69.068 104.128 69.148 104.488 69.148C104.856 69.148 105.136 69.088 105.328 68.968C105.528 68.84 105.628 68.664 105.628 68.44C105.628 68.208 105.516 68.036 105.292 67.924C105.068 67.804 104.74 67.696 104.308 67.6C104.044 67.544 103.836 67.496 103.684 67.456C103.54 67.416 103.352 67.352 103.12 67.264C102.888 67.168 102.712 67.064 102.592 66.952C102.472 66.832 102.364 66.676 102.268 66.484C102.172 66.292 102.124 66.072 102.124 65.824C102.124 65.328 102.328 64.912 102.736 64.576C103.144 64.232 103.7 64.06 104.404 64.06C105.292 64.06 106.044 64.332 106.66 64.876L106.132 65.764C105.948 65.556 105.704 65.388 105.4 65.26C105.096 65.132 104.768 65.068 104.416 65.068C104.08 65.068 103.816 65.128 103.624 65.248C103.432 65.36 103.336 65.516 103.336 65.716C103.336 65.916 103.44 66.068 103.648 66.172C103.856 66.276 104.172 66.376 104.596 66.472C104.86 66.528 105.068 66.576 105.22 66.616C105.38 66.656 105.576 66.728 105.808 66.832C106.04 66.928 106.22 67.036 106.348 67.156C106.476 67.276 106.588 67.44 106.684 67.648C106.788 67.848 106.84 68.08 106.84 68.344C106.84 68.872 106.628 69.304 106.204 69.64C105.78 69.976 105.188 70.144 104.428 70.144C103.388 70.144 102.56 69.844 101.944 69.244ZM107.772 67.096C107.772 66.248 108.048 65.532 108.6 64.948C109.16 64.356 109.864 64.06 110.712 64.06C111.568 64.06 112.256 64.356 112.776 64.948C113.304 65.54 113.568 66.296 113.568 67.216V67.516H109.092C109.14 67.972 109.328 68.352 109.656 68.656C109.984 68.96 110.412 69.112 110.94 69.112C111.236 69.112 111.532 69.056 111.828 68.944C112.132 68.832 112.384 68.676 112.584 68.476L113.16 69.304C112.576 69.864 111.792 70.144 110.808 70.144C109.928 70.144 109.2 69.864 108.624 69.304C108.056 68.736 107.772 68 107.772 67.096ZM110.712 65.092C110.216 65.092 109.828 65.248 109.548 65.56C109.268 65.864 109.112 66.22 109.08 66.628H112.344C112.328 66.228 112.18 65.872 111.9 65.56C111.628 65.248 111.232 65.092 110.712 65.092ZM123.282 70H122.022V69.208C121.542 69.832 120.922 70.144 120.162 70.144C119.402 70.144 118.782 69.872 118.302 69.328C117.822 68.784 117.582 68.044 117.582 67.108C117.582 66.18 117.822 65.44 118.302 64.888C118.782 64.336 119.402 64.06 120.162 64.06C120.922 64.06 121.542 64.376 122.022 65.008V61.996H123.282V70ZM122.022 68.26V65.956C121.878 65.732 121.666 65.548 121.386 65.404C121.106 65.252 120.818 65.176 120.522 65.176C120.026 65.176 119.63 65.356 119.334 65.716C119.038 66.076 118.89 66.54 118.89 67.108C118.89 67.676 119.038 68.14 119.334 68.5C119.63 68.852 120.026 69.028 120.522 69.028C120.818 69.028 121.106 68.956 121.386 68.812C121.666 68.668 121.878 68.484 122.022 68.26ZM129.739 70H128.479V69.376C128.031 69.888 127.407 70.144 126.607 70.144C126.079 70.144 125.611 69.976 125.203 69.64C124.795 69.296 124.591 68.824 124.591 68.224C124.591 67.608 124.791 67.14 125.191 66.82C125.599 66.5 126.071 66.34 126.607 66.34C127.431 66.34 128.055 66.588 128.479 67.084V66.22C128.479 65.884 128.355 65.62 128.107 65.428C127.859 65.236 127.531 65.14 127.123 65.14C126.475 65.14 125.903 65.384 125.407 65.872L124.891 64.996C125.547 64.372 126.359 64.06 127.327 64.06C128.039 64.06 128.619 64.228 129.067 64.564C129.515 64.9 129.739 65.432 129.739 66.16V70ZM128.479 68.68V67.804C128.191 67.404 127.731 67.204 127.099 67.204C126.739 67.204 126.443 67.3 126.211 67.492C125.979 67.684 125.863 67.936 125.863 68.248C125.863 68.56 125.979 68.812 126.211 69.004C126.443 69.188 126.739 69.28 127.099 69.28C127.731 69.28 128.191 69.08 128.479 68.68ZM133.136 70.144C132.648 70.144 132.276 70.016 132.02 69.76C131.772 69.504 131.648 69.136 131.648 68.656V65.308H130.688V64.204H131.648V62.62H132.908V64.204H134.084V65.308H132.908V68.344C132.908 68.552 132.956 68.72 133.052 68.848C133.148 68.968 133.284 69.028 133.46 69.028C133.716 69.028 133.904 68.96 134.024 68.824L134.324 69.772C134.06 70.02 133.664 70.144 133.136 70.144ZM134.892 67.096C134.892 66.248 135.168 65.532 135.72 64.948C136.28 64.356 136.984 64.06 137.832 64.06C138.688 64.06 139.376 64.356 139.896 64.948C140.424 65.54 140.688 66.296 140.688 67.216V67.516H136.212C136.26 67.972 136.448 68.352 136.776 68.656C137.104 68.96 137.532 69.112 138.06 69.112C138.356 69.112 138.652 69.056 138.948 68.944C139.252 68.832 139.504 68.676 139.704 68.476L140.28 69.304C139.696 69.864 138.912 70.144 137.928 70.144C137.048 70.144 136.32 69.864 135.744 69.304C135.176 68.736 134.892 68 134.892 67.096ZM137.832 65.092C137.336 65.092 136.948 65.248 136.668 65.56C136.388 65.864 136.232 66.22 136.2 66.628H139.464C139.448 66.228 139.3 65.872 139.02 65.56C138.748 65.248 138.352 65.092 137.832 65.092Z" fill="#346868"/>
<path d="M151.344 63.232C151.184 63.232 151.044 63.172 150.924 63.052C150.804 62.932 150.744 62.788 150.744 62.62C150.744 62.452 150.804 62.312 150.924 62.2C151.044 62.08 151.184 62.02 151.344 62.02C151.512 62.02 151.656 62.08 151.776 62.2C151.896 62.312 151.956 62.452 151.956 62.62C151.956 62.788 151.896 62.932 151.776 63.052C151.656 63.172 151.512 63.232 151.344 63.232ZM151.8 70H150.9V64.204H151.8V70ZM153.115 69.232L153.583 68.584C153.783 68.816 154.055 69.012 154.399 69.172C154.751 69.332 155.115 69.412 155.491 69.412C155.923 69.412 156.259 69.324 156.499 69.148C156.739 68.972 156.859 68.74 156.859 68.452C156.859 68.3 156.819 68.168 156.739 68.056C156.667 67.944 156.551 67.848 156.391 67.768C156.231 67.688 156.079 67.624 155.935 67.576C155.799 67.528 155.611 67.476 155.371 67.42C155.107 67.356 154.903 67.308 154.759 67.276C154.623 67.236 154.443 67.172 154.219 67.084C153.995 66.988 153.827 66.888 153.715 66.784C153.603 66.672 153.499 66.528 153.403 66.352C153.315 66.168 153.271 65.96 153.271 65.728C153.271 65.256 153.463 64.86 153.847 64.54C154.239 64.22 154.767 64.06 155.431 64.06C156.303 64.06 157.019 64.34 157.579 64.9L157.159 65.524C156.751 65.036 156.175 64.792 155.431 64.792C155.039 64.792 154.727 64.872 154.495 65.032C154.263 65.192 154.147 65.404 154.147 65.668C154.147 65.924 154.263 66.116 154.495 66.244C154.735 66.364 155.091 66.48 155.563 66.592C155.827 66.648 156.035 66.7 156.187 66.748C156.339 66.788 156.527 66.856 156.751 66.952C156.975 67.048 157.147 67.156 157.267 67.276C157.395 67.388 157.503 67.54 157.591 67.732C157.687 67.924 157.735 68.144 157.735 68.392C157.735 68.904 157.535 69.324 157.135 69.652C156.735 69.98 156.175 70.144 155.455 70.144C154.471 70.144 153.691 69.84 153.115 69.232ZM163.239 70H162.339V61.996H163.239V65.08C163.743 64.4 164.395 64.06 165.195 64.06C165.955 64.06 166.575 64.34 167.055 64.9C167.535 65.452 167.775 66.188 167.775 67.108C167.775 68.036 167.535 68.776 167.055 69.328C166.583 69.872 165.963 70.144 165.195 70.144C164.387 70.144 163.735 69.808 163.239 69.136V70ZM163.239 65.8V68.428C163.399 68.684 163.639 68.9 163.959 69.076C164.287 69.252 164.623 69.34 164.967 69.34C165.543 69.34 165.999 69.132 166.335 68.716C166.671 68.3 166.839 67.764 166.839 67.108C166.839 66.452 166.671 65.916 166.335 65.5C165.999 65.076 165.543 64.864 164.967 64.864C164.623 64.864 164.287 64.956 163.959 65.14C163.639 65.316 163.399 65.536 163.239 65.8ZM168.93 67.096C168.93 66.248 169.202 65.532 169.746 64.948C170.29 64.356 170.97 64.06 171.786 64.06C172.642 64.06 173.318 64.356 173.814 64.948C174.318 65.532 174.57 66.272 174.57 67.168V67.396H169.878C169.918 67.964 170.126 68.44 170.502 68.824C170.878 69.208 171.366 69.4 171.966 69.4C172.686 69.4 173.282 69.156 173.754 68.668L174.186 69.256C173.594 69.848 172.826 70.144 171.882 70.144C171.018 70.144 170.31 69.864 169.758 69.304C169.206 68.736 168.93 68 168.93 67.096ZM171.774 64.804C171.198 64.804 170.742 65 170.406 65.392C170.078 65.784 169.902 66.232 169.878 66.736H173.682C173.674 66.24 173.506 65.796 173.178 65.404C172.85 65.004 172.382 64.804 171.774 64.804ZM177.515 70.144C177.091 70.144 176.771 70.028 176.555 69.796C176.339 69.564 176.231 69.228 176.231 68.788V64.996H175.271V64.204H176.231V62.62H177.131V64.204H178.307V64.996H177.131V68.596C177.131 68.82 177.179 69 177.275 69.136C177.379 69.272 177.527 69.34 177.719 69.34C177.983 69.34 178.187 69.26 178.331 69.1L178.595 69.772C178.331 70.02 177.971 70.144 177.515 70.144ZM185.519 70H184.619L183.107 65.344L181.595 70H180.695L178.847 64.204H179.783L181.199 68.824L182.723 64.204H183.491L185.015 68.824L186.431 64.204H187.367L185.519 70ZM188.103 67.096C188.103 66.248 188.375 65.532 188.919 64.948C189.463 64.356 190.143 64.06 190.959 64.06C191.815 64.06 192.491 64.356 192.987 64.948C193.491 65.532 193.743 66.272 193.743 67.168V67.396H189.051C189.091 67.964 189.299 68.44 189.675 68.824C190.051 69.208 190.539 69.4 191.139 69.4C191.859 69.4 192.455 69.156 192.927 68.668L193.359 69.256C192.767 69.848 191.999 70.144 191.055 70.144C190.191 70.144 189.483 69.864 188.931 69.304C188.379 68.736 188.103 68 188.103 67.096ZM190.947 64.804C190.371 64.804 189.915 65 189.579 65.392C189.251 65.784 189.075 66.232 189.051 66.736H192.855C192.847 66.24 192.679 65.796 192.351 65.404C192.023 65.004 191.555 64.804 190.947 64.804ZM194.889 67.096C194.889 66.248 195.161 65.532 195.705 64.948C196.249 64.356 196.929 64.06 197.745 64.06C198.601 64.06 199.277 64.356 199.773 64.948C200.277 65.532 200.529 66.272 200.529 67.168V67.396H195.837C195.877 67.964 196.085 68.44 196.461 68.824C196.837 69.208 197.325 69.4 197.925 69.4C198.645 69.4 199.241 69.156 199.713 68.668L200.145 69.256C199.553 69.848 198.785 70.144 197.841 70.144C196.977 70.144 196.269 69.864 195.717 69.304C195.165 68.736 194.889 68 194.889 67.096ZM197.733 64.804C197.157 64.804 196.701 65 196.365 65.392C196.037 65.784 195.861 66.232 195.837 66.736H199.641C199.633 66.24 199.465 65.796 199.137 65.404C198.809 65.004 198.341 64.804 197.733 64.804ZM206.823 70H205.923V66.208C205.923 65.72 205.811 65.376 205.587 65.176C205.363 64.968 205.043 64.864 204.627 64.864C204.291 64.864 203.963 64.952 203.643 65.128C203.331 65.304 203.087 65.516 202.911 65.764V70H202.011V64.204H202.911V65.044C203.135 64.78 203.435 64.552 203.811 64.36C204.187 64.16 204.575 64.06 204.975 64.06C206.207 64.06 206.823 64.684 206.823 65.932V70Z" fill="#7D8393"/>
<path d="M212.504 67.948C212.504 67.46 212.672 67.036 213.008 66.676C213.352 66.316 213.784 66.048 214.304 65.872C213.808 65.712 213.404 65.476 213.092 65.164C212.788 64.852 212.636 64.456 212.636 63.976C212.636 63.624 212.72 63.308 212.888 63.028C213.064 62.748 213.292 62.528 213.572 62.368C213.86 62.208 214.172 62.088 214.508 62.008C214.852 61.92 215.208 61.876 215.576 61.876C215.944 61.876 216.296 61.92 216.632 62.008C216.968 62.088 217.28 62.208 217.568 62.368C217.856 62.528 218.084 62.748 218.252 63.028C218.428 63.308 218.516 63.624 218.516 63.976C218.516 64.88 217.956 65.512 216.836 65.872C217.356 66.048 217.784 66.316 218.12 66.676C218.464 67.036 218.636 67.46 218.636 67.948C218.636 68.636 218.34 69.176 217.748 69.568C217.164 69.952 216.44 70.144 215.576 70.144C214.712 70.144 213.984 69.952 213.392 69.568C212.8 69.176 212.504 68.636 212.504 67.948ZM217.088 64.192C217.088 63.864 216.944 63.604 216.656 63.412C216.376 63.22 216.016 63.124 215.576 63.124C215.128 63.124 214.76 63.22 214.472 63.412C214.192 63.604 214.052 63.864 214.052 64.192C214.052 64.424 214.152 64.628 214.352 64.804C214.552 64.972 214.752 65.092 214.952 65.164C215.152 65.228 215.36 65.28 215.576 65.32C215.792 65.28 216 65.228 216.2 65.164C216.4 65.092 216.596 64.972 216.788 64.804C216.988 64.628 217.088 64.424 217.088 64.192ZM217.22 67.768C217.22 67.408 217.032 67.12 216.656 66.904C216.288 66.68 215.928 66.548 215.576 66.508C215.368 66.532 215.148 66.588 214.916 66.676C214.684 66.756 214.46 66.896 214.244 67.096C214.028 67.288 213.92 67.512 213.92 67.768C213.92 68.104 214.076 68.376 214.388 68.584C214.708 68.792 215.104 68.896 215.576 68.896C216.032 68.896 216.42 68.792 216.74 68.584C217.06 68.376 217.22 68.104 217.22 67.768ZM220.097 70.24H219.161L222.005 61.756H222.941L220.097 70.24ZM223.462 66.016C223.462 64.808 223.77 63.816 224.386 63.04C225.002 62.264 225.87 61.876 226.99 61.876C227.918 61.876 228.686 62.172 229.294 62.764L228.634 63.832C228.186 63.36 227.638 63.124 226.99 63.124C226.35 63.124 225.838 63.38 225.454 63.892C225.07 64.404 224.878 65.028 224.878 65.764C224.878 65.868 224.882 65.944 224.89 65.992C225.09 65.696 225.386 65.436 225.778 65.212C226.17 64.988 226.59 64.876 227.038 64.876C227.798 64.876 228.434 65.104 228.946 65.56C229.458 66.008 229.714 66.64 229.714 67.456C229.714 68.216 229.442 68.856 228.898 69.376C228.354 69.888 227.642 70.144 226.762 70.144C226.194 70.144 225.694 70.036 225.262 69.82C224.83 69.596 224.486 69.292 224.23 68.908C223.974 68.524 223.782 68.092 223.654 67.612C223.526 67.124 223.462 66.592 223.462 66.016ZM228.298 67.504C228.298 67.04 228.142 66.688 227.83 66.448C227.518 66.2 227.126 66.076 226.654 66.076C226.318 66.076 225.994 66.164 225.682 66.34C225.37 66.508 225.11 66.736 224.902 67.024C224.95 67.536 225.118 67.976 225.406 68.344C225.694 68.712 226.122 68.896 226.69 68.896C227.186 68.896 227.578 68.756 227.866 68.476C228.154 68.188 228.298 67.864 228.298 67.504ZM231.137 70.24H230.201L233.045 61.756H233.981L231.137 70.24ZM240.406 70H234.61V68.896C236.282 67.632 237.418 66.696 238.018 66.088C238.626 65.472 238.93 64.892 238.93 64.348C238.93 63.956 238.786 63.656 238.498 63.448C238.218 63.232 237.878 63.124 237.478 63.124C236.598 63.124 235.878 63.444 235.318 64.084L234.502 63.16C234.846 62.744 235.278 62.428 235.798 62.212C236.326 61.988 236.878 61.876 237.454 61.876C238.27 61.876 238.958 62.096 239.518 62.536C240.078 62.976 240.358 63.58 240.358 64.348C240.358 65.036 240.07 65.72 239.494 66.4C238.918 67.08 238.038 67.868 236.854 68.764H240.406V70ZM241.855 67.504C241.727 67.024 241.663 66.524 241.663 66.004C241.663 65.484 241.727 64.984 241.855 64.504C241.983 64.024 242.171 63.588 242.419 63.196C242.667 62.796 243.003 62.476 243.427 62.236C243.851 61.996 244.331 61.876 244.867 61.876C245.403 61.876 245.883 61.996 246.307 62.236C246.731 62.476 247.067 62.796 247.315 63.196C247.563 63.588 247.751 64.024 247.879 64.504C248.007 64.984 248.071 65.484 248.071 66.004C248.071 66.524 248.007 67.024 247.879 67.504C247.751 67.984 247.563 68.424 247.315 68.824C247.067 69.224 246.731 69.544 246.307 69.784C245.883 70.024 245.403 70.144 244.867 70.144C244.331 70.144 243.851 70.024 243.427 69.784C243.003 69.544 242.667 69.224 242.419 68.824C242.171 68.424 241.983 67.984 241.855 67.504ZM246.643 66.004C246.643 65.468 246.587 64.992 246.475 64.576C246.371 64.16 246.179 63.816 245.899 63.544C245.627 63.264 245.283 63.124 244.867 63.124C244.451 63.124 244.103 63.264 243.823 63.544C243.551 63.816 243.359 64.16 243.247 64.576C243.143 64.992 243.091 65.468 243.091 66.004C243.091 66.844 243.235 67.536 243.523 68.08C243.811 68.624 244.259 68.896 244.867 68.896C245.475 68.896 245.923 68.624 246.211 68.08C246.499 67.536 246.643 66.844 246.643 66.004ZM254.985 70H249.189V68.896C250.861 67.632 251.997 66.696 252.597 66.088C253.205 65.472 253.509 64.892 253.509 64.348C253.509 63.956 253.365 63.656 253.077 63.448C252.797 63.232 252.457 63.124 252.057 63.124C251.177 63.124 250.457 63.444 249.897 64.084L249.081 63.16C249.425 62.744 249.857 62.428 250.377 62.212C250.905 61.988 251.457 61.876 252.033 61.876C252.849 61.876 253.537 62.096 254.097 62.536C254.657 62.976 254.937 63.58 254.937 64.348C254.937 65.036 254.649 65.72 254.073 66.4C253.497 67.08 252.617 67.868 251.433 68.764H254.985V70ZM256.038 68.848L256.794 67.924C257.05 68.22 257.378 68.456 257.778 68.632C258.178 68.808 258.59 68.896 259.014 68.896C259.534 68.896 259.942 68.788 260.238 68.572C260.534 68.348 260.682 68.048 260.682 67.672C260.682 66.92 260.09 66.544 258.906 66.544C258.37 66.544 258.062 66.548 257.982 66.556V65.296C258.078 65.304 258.386 65.308 258.906 65.308C259.402 65.308 259.798 65.22 260.094 65.044C260.398 64.868 260.55 64.604 260.55 64.252C260.55 63.892 260.398 63.616 260.094 63.424C259.79 63.224 259.402 63.124 258.93 63.124C258.146 63.124 257.458 63.42 256.866 64.012L256.146 63.136C256.858 62.296 257.83 61.876 259.062 61.876C259.934 61.876 260.634 62.072 261.162 62.464C261.69 62.848 261.954 63.372 261.954 64.036C261.954 64.532 261.778 64.944 261.426 65.272C261.082 65.592 260.678 65.792 260.214 65.872C260.67 65.912 261.094 66.104 261.486 66.448C261.878 66.792 262.074 67.248 262.074 67.816C262.074 68.504 261.798 69.064 261.246 69.496C260.702 69.928 259.974 70.144 259.062 70.144C258.382 70.144 257.778 70.024 257.25 69.784C256.73 69.544 256.326 69.232 256.038 68.848ZM269.011 67.636H266.131V66.556H269.011V67.636ZM272.632 67.636H269.752V66.556H272.632V67.636ZM276.408 68.848L277.164 67.924C277.42 68.22 277.748 68.456 278.148 68.632C278.548 68.808 278.96 68.896 279.384 68.896C279.904 68.896 280.312 68.788 280.608 68.572C280.904 68.348 281.052 68.048 281.052 67.672C281.052 66.92 280.46 66.544 279.276 66.544C278.74 66.544 278.432 66.548 278.352 66.556V65.296C278.448 65.304 278.756 65.308 279.276 65.308C279.772 65.308 280.168 65.22 280.464 65.044C280.768 64.868 280.92 64.604 280.92 64.252C280.92 63.892 280.768 63.616 280.464 63.424C280.16 63.224 279.772 63.124 279.3 63.124C278.516 63.124 277.828 63.42 277.236 64.012L276.516 63.136C277.228 62.296 278.2 61.876 279.432 61.876C280.304 61.876 281.004 62.072 281.532 62.464C282.06 62.848 282.324 63.372 282.324 64.036C282.324 64.532 282.148 64.944 281.796 65.272C281.452 65.592 281.048 65.792 280.584 65.872C281.04 65.912 281.464 66.104 281.856 66.448C282.248 66.792 282.444 67.248 282.444 67.816C282.444 68.504 282.168 69.064 281.616 69.496C281.072 69.928 280.344 70.144 279.432 70.144C278.752 70.144 278.148 70.024 277.62 69.784C277.1 69.544 276.696 69.232 276.408 68.848ZM286.743 70H285.339V63.82L284.031 65.176L283.215 64.324L285.519 61.996H286.743V70ZM288.553 70.24H287.617L290.461 61.756H291.397L288.553 70.24ZM291.93 67.948C291.93 67.46 292.098 67.036 292.434 66.676C292.778 66.316 293.21 66.048 293.73 65.872C293.234 65.712 292.83 65.476 292.518 65.164C292.214 64.852 292.062 64.456 292.062 63.976C292.062 63.624 292.146 63.308 292.314 63.028C292.49 62.748 292.718 62.528 292.998 62.368C293.286 62.208 293.598 62.088 293.934 62.008C294.278 61.92 294.634 61.876 295.002 61.876C295.37 61.876 295.722 61.92 296.058 62.008C296.394 62.088 296.706 62.208 296.994 62.368C297.282 62.528 297.51 62.748 297.678 63.028C297.854 63.308 297.942 63.624 297.942 63.976C297.942 64.88 297.382 65.512 296.262 65.872C296.782 66.048 297.21 66.316 297.546 66.676C297.89 67.036 298.062 67.46 298.062 67.948C298.062 68.636 297.766 69.176 297.174 69.568C296.59 69.952 295.866 70.144 295.002 70.144C294.138 70.144 293.41 69.952 292.818 69.568C292.226 69.176 291.93 68.636 291.93 67.948ZM296.514 64.192C296.514 63.864 296.37 63.604 296.082 63.412C295.802 63.22 295.442 63.124 295.002 63.124C294.554 63.124 294.186 63.22 293.898 63.412C293.618 63.604 293.478 63.864 293.478 64.192C293.478 64.424 293.578 64.628 293.778 64.804C293.978 64.972 294.178 65.092 294.378 65.164C294.578 65.228 294.786 65.28 295.002 65.32C295.218 65.28 295.426 65.228 295.626 65.164C295.826 65.092 296.022 64.972 296.214 64.804C296.414 64.628 296.514 64.424 296.514 64.192ZM296.646 67.768C296.646 67.408 296.458 67.12 296.082 66.904C295.714 66.68 295.354 66.548 295.002 66.508C294.794 66.532 294.574 66.588 294.342 66.676C294.11 66.756 293.886 66.896 293.67 67.096C293.454 67.288 293.346 67.512 293.346 67.768C293.346 68.104 293.502 68.376 293.814 68.584C294.134 68.792 294.53 68.896 295.002 68.896C295.458 68.896 295.846 68.792 296.166 68.584C296.486 68.376 296.646 68.104 296.646 67.768ZM299.523 70.24H298.587L301.431 61.756H302.367L299.523 70.24ZM308.792 70H302.996V68.896C304.668 67.632 305.804 66.696 306.404 66.088C307.012 65.472 307.316 64.892 307.316 64.348C307.316 63.956 307.172 63.656 306.884 63.448C306.604 63.232 306.264 63.124 305.864 63.124C304.984 63.124 304.264 63.444 303.704 64.084L302.888 63.16C303.232 62.744 303.664 62.428 304.184 62.212C304.712 61.988 305.264 61.876 305.84 61.876C306.656 61.876 307.344 62.096 307.904 62.536C308.464 62.976 308.744 63.58 308.744 64.348C308.744 65.036 308.456 65.72 307.88 66.4C307.304 67.08 306.424 67.868 305.24 68.764H308.792V70ZM310.241 67.504C310.113 67.024 310.049 66.524 310.049 66.004C310.049 65.484 310.113 64.984 310.241 64.504C310.369 64.024 310.557 63.588 310.805 63.196C311.053 62.796 311.389 62.476 311.813 62.236C312.237 61.996 312.717 61.876 313.253 61.876C313.789 61.876 314.269 61.996 314.693 62.236C315.117 62.476 315.453 62.796 315.701 63.196C315.949 63.588 316.137 64.024 316.265 64.504C316.393 64.984 316.457 65.484 316.457 66.004C316.457 66.524 316.393 67.024 316.265 67.504C316.137 67.984 315.949 68.424 315.701 68.824C315.453 69.224 315.117 69.544 314.693 69.784C314.269 70.024 313.789 70.144 313.253 70.144C312.717 70.144 312.237 70.024 311.813 69.784C311.389 69.544 311.053 69.224 310.805 68.824C310.557 68.424 310.369 67.984 310.241 67.504ZM315.029 66.004C315.029 65.468 314.973 64.992 314.861 64.576C314.757 64.16 314.565 63.816 314.285 63.544C314.013 63.264 313.669 63.124 313.253 63.124C312.837 63.124 312.489 63.264 312.209 63.544C311.937 63.816 311.745 64.16 311.633 64.576C311.529 64.992 311.477 65.468 311.477 66.004C311.477 66.844 311.621 67.536 311.909 68.08C312.197 68.624 312.645 68.896 313.253 68.896C313.861 68.896 314.309 68.624 314.597 68.08C314.885 67.536 315.029 66.844 315.029 66.004ZM323.372 70H317.576V68.896C319.248 67.632 320.384 66.696 320.984 66.088C321.592 65.472 321.896 64.892 321.896 64.348C321.896 63.956 321.752 63.656 321.464 63.448C321.184 63.232 320.844 63.124 320.444 63.124C319.564 63.124 318.844 63.444 318.284 64.084L317.468 63.16C317.812 62.744 318.244 62.428 318.764 62.212C319.292 61.988 319.844 61.876 320.42 61.876C321.236 61.876 321.924 62.096 322.484 62.536C323.044 62.976 323.324 63.58 323.324 64.348C323.324 65.036 323.036 65.72 322.46 66.4C321.884 67.08 321.004 67.868 319.82 68.764H323.372V70ZM324.424 68.848L325.18 67.924C325.436 68.22 325.764 68.456 326.164 68.632C326.564 68.808 326.976 68.896 327.4 68.896C327.92 68.896 328.328 68.788 328.624 68.572C328.92 68.348 329.068 68.048 329.068 67.672C329.068 66.92 328.476 66.544 327.292 66.544C326.756 66.544 326.448 66.548 326.368 66.556V65.296C326.464 65.304 326.772 65.308 327.292 65.308C327.788 65.308 328.184 65.22 328.48 65.044C328.784 64.868 328.936 64.604 328.936 64.252C328.936 63.892 328.784 63.616 328.48 63.424C328.176 63.224 327.788 63.124 327.316 63.124C326.532 63.124 325.844 63.42 325.252 64.012L324.532 63.136C325.244 62.296 326.216 61.876 327.448 61.876C328.32 61.876 329.02 62.072 329.548 62.464C330.076 62.848 330.34 63.372 330.34 64.036C330.34 64.532 330.164 64.944 329.812 65.272C329.468 65.592 329.064 65.792 328.6 65.872C329.056 65.912 329.48 66.104 329.872 66.448C330.264 66.792 330.46 67.248 330.46 67.816C330.46 68.504 330.184 69.064 329.632 69.496C329.088 69.928 328.36 70.144 327.448 70.144C326.768 70.144 326.164 70.024 325.636 69.784C325.116 69.544 324.712 69.232 324.424 68.848Z" fill="#346868"/>
<rect x="24.5" y="112.5" width="379" height="43" rx="5.5" stroke="#C5E1DF"/>
<path d="M47.6445 134.961C47.5661 135.225 47.5002 135.497 47.4482 135.775L47.4473 135.784C47.3742 136.223 47.3502 136.68 47.374 137.155C47.3981 137.635 47.4754 138.101 47.6064 138.553C47.6749 138.796 47.7617 139.027 47.8652 139.247H42.167C42.0988 139.247 42.0701 139.229 42.0439 139.203C42.0178 139.177 42 139.148 42 139.08V137.747C42 137.378 42.0921 137.051 42.2734 136.755C42.4501 136.466 42.7011 136.24 43.0449 136.079C43.8849 135.692 44.7031 135.402 45.499 135.206C46.2123 135.031 46.9321 134.934 47.6582 134.916C47.6536 134.931 47.649 134.946 47.6445 134.961ZM47.9004 127.7C48.6577 127.7 49.2588 127.945 49.7402 128.427C50.2217 128.908 50.4667 129.509 50.4668 130.267C50.4668 131.024 50.2216 131.625 49.7402 132.106C49.2588 132.588 48.6577 132.834 47.9004 132.834C47.1429 132.834 46.5421 132.588 46.0605 132.106C45.579 131.625 45.333 131.024 45.333 130.267C45.3331 129.509 45.5791 128.908 46.0605 128.427C46.542 127.945 47.1431 127.7 47.9004 127.7Z" stroke="#3E7880"/>
<path d="M54.5 132.813C55.6034 132.813 56.5436 133.201 57.3213 133.979C58.0989 134.757 58.4873 135.697 58.4873 136.8C58.4873 137.904 58.0989 138.844 57.3213 139.622C56.5436 140.399 55.6034 140.788 54.5 140.788C53.3966 140.788 52.4564 140.399 51.6787 139.622C50.9011 138.844 50.5127 137.904 50.5127 136.8C50.5127 135.697 50.9011 134.757 51.6787 133.979C52.4564 133.201 53.3966 132.813 54.5 132.813ZM54.0879 136.96H54.082L54.0908 136.969L55.8115 138.689L55.8203 138.698L56.3975 138.121L56.3887 138.112L54.9121 136.634V134.388H54.0879V136.96Z" fill="#3E7880" stroke="#3E7880" stroke-width="0.025"/>
<path d="M64.336 136.872L65.116 135.792C65.804 136.528 66.648 136.896 67.648 136.896C68.184 136.896 68.584 136.788 68.848 136.572C69.12 136.356 69.256 136.1 69.256 135.804C69.256 135.668 69.22 135.544 69.148 135.432C69.076 135.312 68.996 135.22 68.908 135.156C68.82 135.084 68.676 135.012 68.476 134.94C68.284 134.86 68.128 134.804 68.008 134.772C67.888 134.732 67.696 134.68 67.432 134.616C67.08 134.528 66.808 134.456 66.616 134.4C66.424 134.344 66.176 134.252 65.872 134.124C65.576 133.988 65.348 133.848 65.188 133.704C65.036 133.552 64.896 133.348 64.768 133.092C64.648 132.836 64.588 132.544 64.588 132.216C64.588 131.544 64.856 130.988 65.392 130.548C65.936 130.1 66.64 129.876 67.504 129.876C68.736 129.876 69.736 130.248 70.504 130.992L69.7 132.036C69.092 131.428 68.32 131.124 67.384 131.124C66.968 131.124 66.636 131.216 66.388 131.4C66.148 131.576 66.028 131.816 66.028 132.12C66.028 132.272 66.068 132.404 66.148 132.516C66.236 132.62 66.376 132.716 66.568 132.804C66.768 132.892 66.944 132.96 67.096 133.008C67.248 133.048 67.48 133.108 67.792 133.188C68.144 133.276 68.416 133.352 68.608 133.416C68.808 133.472 69.06 133.568 69.364 133.704C69.668 133.84 69.9 133.988 70.06 134.148C70.22 134.3 70.364 134.508 70.492 134.772C70.62 135.036 70.684 135.336 70.684 135.672C70.684 136.392 70.424 136.984 69.904 137.448C69.384 137.912 68.612 138.144 67.588 138.144C66.212 138.144 65.128 137.72 64.336 136.872ZM73.5292 138.144C73.0412 138.144 72.6692 138.016 72.4132 137.76C72.1652 137.504 72.0412 137.136 72.0412 136.656V133.308H71.0812V132.204H72.0412V130.62H73.3012V132.204H74.4772V133.308H73.3012V136.344C73.3012 136.552 73.3492 136.72 73.4452 136.848C73.5412 136.968 73.6772 137.028 73.8532 137.028C74.1092 137.028 74.2972 136.96 74.4172 136.824L74.7172 137.772C74.4532 138.02 74.0572 138.144 73.5292 138.144ZM78.2613 138.144C77.3653 138.144 76.6453 137.852 76.1013 137.268C75.5573 136.676 75.2853 135.952 75.2853 135.096C75.2853 134.24 75.5573 133.52 76.1013 132.936C76.6453 132.352 77.3653 132.06 78.2613 132.06C79.1653 132.06 79.8893 132.352 80.4333 132.936C80.9773 133.52 81.2493 134.24 81.2493 135.096C81.2493 135.96 80.9773 136.684 80.4333 137.268C79.8893 137.852 79.1653 138.144 78.2613 138.144ZM78.2613 137.028C78.7813 137.028 79.1893 136.844 79.4853 136.476C79.7893 136.1 79.9413 135.64 79.9413 135.096C79.9413 134.56 79.7893 134.108 79.4853 133.74C79.1893 133.364 78.7813 133.176 78.2613 133.176C77.7493 133.176 77.3413 133.364 77.0373 133.74C76.7413 134.108 76.5933 134.56 76.5933 135.096C76.5933 135.64 76.7413 136.1 77.0373 136.476C77.3413 136.844 77.7493 137.028 78.2613 137.028ZM83.8082 138H82.5482V132.204H83.8082V133.056C84.0322 132.768 84.3122 132.532 84.6482 132.348C84.9842 132.164 85.3322 132.072 85.6922 132.072V133.32C85.5802 133.296 85.4482 133.284 85.2962 133.284C85.0322 133.284 84.7482 133.364 84.4442 133.524C84.1482 133.676 83.9362 133.852 83.8082 134.052V138ZM86.3723 135.096C86.3723 134.248 86.6483 133.532 87.2003 132.948C87.7603 132.356 88.4643 132.06 89.3123 132.06C90.1683 132.06 90.8563 132.356 91.3763 132.948C91.9043 133.54 92.1683 134.296 92.1683 135.216V135.516H87.6923C87.7403 135.972 87.9283 136.352 88.2563 136.656C88.5843 136.96 89.0123 137.112 89.5403 137.112C89.8363 137.112 90.1323 137.056 90.4283 136.944C90.7323 136.832 90.9843 136.676 91.1843 136.476L91.7603 137.304C91.1763 137.864 90.3923 138.144 89.4083 138.144C88.5283 138.144 87.8003 137.864 87.2243 137.304C86.6563 136.736 86.3723 136 86.3723 135.096ZM89.3123 133.092C88.8163 133.092 88.4283 133.248 88.1483 133.56C87.8683 133.864 87.7123 134.22 87.6803 134.628H90.9443C90.9283 134.228 90.7803 133.872 90.5003 133.56C90.2283 133.248 89.8323 133.092 89.3123 133.092ZM99.158 138.144C98.262 138.144 97.542 137.852 96.998 137.268C96.454 136.676 96.182 135.952 96.182 135.096C96.182 134.24 96.454 133.52 96.998 132.936C97.542 132.352 98.262 132.06 99.158 132.06C100.062 132.06 100.786 132.352 101.33 132.936C101.874 133.52 102.146 134.24 102.146 135.096C102.146 135.96 101.874 136.684 101.33 137.268C100.786 137.852 100.062 138.144 99.158 138.144ZM99.158 137.028C99.678 137.028 100.086 136.844 100.382 136.476C100.686 136.1 100.838 135.64 100.838 135.096C100.838 134.56 100.686 134.108 100.382 133.74C100.086 133.364 99.678 133.176 99.158 133.176C98.646 133.176 98.238 133.364 97.934 133.74C97.638 134.108 97.49 134.56 97.49 135.096C97.49 135.64 97.638 136.1 97.934 136.476C98.238 136.844 98.646 137.028 99.158 137.028ZM104.705 138H103.445V132.204H104.705V133.056C104.929 132.768 105.209 132.532 105.545 132.348C105.881 132.164 106.229 132.072 106.589 132.072V133.32C106.477 133.296 106.345 133.284 106.193 133.284C105.929 133.284 105.645 133.364 105.341 133.524C105.045 133.676 104.833 133.852 104.705 134.052V138ZM112.969 138H111.709V137.208C111.229 137.832 110.609 138.144 109.849 138.144C109.089 138.144 108.469 137.872 107.989 137.328C107.509 136.784 107.269 136.044 107.269 135.108C107.269 134.18 107.509 133.44 107.989 132.888C108.469 132.336 109.089 132.06 109.849 132.06C110.609 132.06 111.229 132.376 111.709 133.008V129.996H112.969V138ZM111.709 136.26V133.956C111.565 133.732 111.353 133.548 111.073 133.404C110.793 133.252 110.505 133.176 110.209 133.176C109.713 133.176 109.317 133.356 109.021 133.716C108.725 134.076 108.577 134.54 108.577 135.108C108.577 135.676 108.725 136.14 109.021 136.5C109.317 136.852 109.713 137.028 110.209 137.028C110.505 137.028 110.793 136.956 111.073 136.812C111.353 136.668 111.565 136.484 111.709 136.26ZM114.266 135.096C114.266 134.248 114.542 133.532 115.094 132.948C115.654 132.356 116.358 132.06 117.206 132.06C118.062 132.06 118.75 132.356 119.27 132.948C119.798 133.54 120.062 134.296 120.062 135.216V135.516H115.586C115.634 135.972 115.822 136.352 116.15 136.656C116.478 136.96 116.906 137.112 117.434 137.112C117.73 137.112 118.026 137.056 118.322 136.944C118.626 136.832 118.878 136.676 119.078 136.476L119.654 137.304C119.07 137.864 118.286 138.144 117.302 138.144C116.422 138.144 115.694 137.864 115.118 137.304C114.55 136.736 114.266 136 114.266 135.096ZM117.206 133.092C116.71 133.092 116.322 133.248 116.042 133.56C115.762 133.864 115.606 134.22 115.574 134.628H118.838C118.822 134.228 118.674 133.872 118.394 133.56C118.122 133.248 117.726 133.092 117.206 133.092ZM122.589 138H121.329V132.204H122.589V133.056C122.813 132.768 123.093 132.532 123.429 132.348C123.765 132.164 124.113 132.072 124.473 132.072V133.32C124.361 133.296 124.229 133.284 124.077 133.284C123.813 133.284 123.529 133.364 123.225 133.524C122.929 133.676 122.717 133.852 122.589 134.052V138ZM125.154 135.096C125.154 134.248 125.43 133.532 125.982 132.948C126.542 132.356 127.246 132.06 128.094 132.06C128.95 132.06 129.638 132.356 130.158 132.948C130.686 133.54 130.95 134.296 130.95 135.216V135.516H126.474C126.522 135.972 126.71 136.352 127.038 136.656C127.366 136.96 127.794 137.112 128.322 137.112C128.618 137.112 128.914 137.056 129.21 136.944C129.514 136.832 129.766 136.676 129.966 136.476L130.542 137.304C129.958 137.864 129.174 138.144 128.19 138.144C127.31 138.144 126.582 137.864 126.006 137.304C125.438 136.736 125.154 136 125.154 135.096ZM128.094 133.092C127.598 133.092 127.21 133.248 126.93 133.56C126.65 133.864 126.494 134.22 126.462 134.628H129.726C129.71 134.228 129.562 133.872 129.282 133.56C129.01 133.248 128.614 133.092 128.094 133.092ZM137.557 138H136.297V137.208C135.817 137.832 135.197 138.144 134.437 138.144C133.677 138.144 133.057 137.872 132.577 137.328C132.097 136.784 131.857 136.044 131.857 135.108C131.857 134.18 132.097 133.44 132.577 132.888C133.057 132.336 133.677 132.06 134.437 132.06C135.197 132.06 135.817 132.376 136.297 133.008V129.996H137.557V138ZM136.297 136.26V133.956C136.153 133.732 135.941 133.548 135.661 133.404C135.381 133.252 135.093 133.176 134.797 133.176C134.301 133.176 133.905 133.356 133.609 133.716C133.313 134.076 133.165 134.54 133.165 135.108C133.165 135.676 133.313 136.14 133.609 136.5C133.905 136.852 134.301 137.028 134.797 137.028C135.093 137.028 135.381 136.956 135.661 136.812C135.941 136.668 136.153 136.484 136.297 136.26ZM145.056 133.308H143.88V138H142.62V133.308H141.66V132.204H142.62V131.88C142.62 131.248 142.788 130.756 143.124 130.404C143.46 130.052 143.904 129.876 144.456 129.876C144.864 129.876 145.2 129.952 145.464 130.104L145.188 131.028C145.052 130.948 144.884 130.908 144.684 130.908C144.436 130.908 144.24 130.992 144.096 131.16C143.952 131.32 143.88 131.56 143.88 131.88V132.204H145.056V133.308ZM147.295 138H146.035V132.204H147.295V133.056C147.519 132.768 147.799 132.532 148.135 132.348C148.471 132.164 148.819 132.072 149.179 132.072V133.32C149.067 133.296 148.935 133.284 148.783 133.284C148.519 133.284 148.235 133.364 147.931 133.524C147.635 133.676 147.423 133.852 147.295 134.052V138ZM152.836 138.144C151.94 138.144 151.22 137.852 150.676 137.268C150.132 136.676 149.86 135.952 149.86 135.096C149.86 134.24 150.132 133.52 150.676 132.936C151.22 132.352 151.94 132.06 152.836 132.06C153.74 132.06 154.464 132.352 155.008 132.936C155.552 133.52 155.824 134.24 155.824 135.096C155.824 135.96 155.552 136.684 155.008 137.268C154.464 137.852 153.74 138.144 152.836 138.144ZM152.836 137.028C153.356 137.028 153.764 136.844 154.06 136.476C154.364 136.1 154.516 135.64 154.516 135.096C154.516 134.56 154.364 134.108 154.06 133.74C153.764 133.364 153.356 133.176 152.836 133.176C152.324 133.176 151.916 133.364 151.612 133.74C151.316 134.108 151.168 134.56 151.168 135.096C151.168 135.64 151.316 136.1 151.612 136.476C151.916 136.844 152.324 137.028 152.836 137.028ZM165.486 138H164.226V134.22C164.226 133.524 163.91 133.176 163.278 133.176C163.014 133.176 162.758 133.252 162.51 133.404C162.262 133.556 162.07 133.736 161.934 133.944V138H160.674V134.22C160.674 133.524 160.354 133.176 159.714 133.176C159.458 133.176 159.206 133.252 158.958 133.404C158.718 133.556 158.526 133.74 158.382 133.956V138H157.122V132.204H158.382V132.996C158.526 132.78 158.774 132.572 159.126 132.372C159.486 132.164 159.866 132.06 160.266 132.06C161.106 132.06 161.634 132.416 161.85 133.128C162.034 132.84 162.306 132.592 162.666 132.384C163.026 132.168 163.41 132.06 163.818 132.06C164.93 132.06 165.486 132.644 165.486 133.812V138Z" fill="#346868"/>
<path d="M176.344 131.232C176.184 131.232 176.044 131.172 175.924 131.052C175.804 130.932 175.744 130.788 175.744 130.62C175.744 130.452 175.804 130.312 175.924 130.2C176.044 130.08 176.184 130.02 176.344 130.02C176.512 130.02 176.656 130.08 176.776 130.2C176.896 130.312 176.956 130.452 176.956 130.62C176.956 130.788 176.896 130.932 176.776 131.052C176.656 131.172 176.512 131.232 176.344 131.232ZM176.8 138H175.9V132.204H176.8V138ZM178.115 137.232L178.583 136.584C178.783 136.816 179.055 137.012 179.399 137.172C179.751 137.332 180.115 137.412 180.491 137.412C180.923 137.412 181.259 137.324 181.499 137.148C181.739 136.972 181.859 136.74 181.859 136.452C181.859 136.3 181.819 136.168 181.739 136.056C181.667 135.944 181.551 135.848 181.391 135.768C181.231 135.688 181.079 135.624 180.935 135.576C180.799 135.528 180.611 135.476 180.371 135.42C180.107 135.356 179.903 135.308 179.759 135.276C179.623 135.236 179.443 135.172 179.219 135.084C178.995 134.988 178.827 134.888 178.715 134.784C178.603 134.672 178.499 134.528 178.403 134.352C178.315 134.168 178.271 133.96 178.271 133.728C178.271 133.256 178.463 132.86 178.847 132.54C179.239 132.22 179.767 132.06 180.431 132.06C181.303 132.06 182.019 132.34 182.579 132.9L182.159 133.524C181.751 133.036 181.175 132.792 180.431 132.792C180.039 132.792 179.727 132.872 179.495 133.032C179.263 133.192 179.147 133.404 179.147 133.668C179.147 133.924 179.263 134.116 179.495 134.244C179.735 134.364 180.091 134.48 180.563 134.592C180.827 134.648 181.035 134.7 181.187 134.748C181.339 134.788 181.527 134.856 181.751 134.952C181.975 135.048 182.147 135.156 182.267 135.276C182.395 135.388 182.503 135.54 182.591 135.732C182.687 135.924 182.735 136.144 182.735 136.392C182.735 136.904 182.535 137.324 182.135 137.652C181.735 137.98 181.175 138.144 180.455 138.144C179.471 138.144 178.691 137.84 178.115 137.232Z" fill="#7D8393"/>
<path d="M191.828 138H188.852V129.996H191.828C193.068 129.996 194.076 130.368 194.852 131.112C195.628 131.856 196.016 132.82 196.016 134.004C196.016 135.18 195.628 136.14 194.852 136.884C194.084 137.628 193.076 138 191.828 138ZM190.256 131.232V136.764H191.828C192.668 136.764 193.336 136.5 193.832 135.972C194.328 135.444 194.576 134.788 194.576 134.004C194.576 133.196 194.332 132.532 193.844 132.012C193.364 131.492 192.692 131.232 191.828 131.232H190.256ZM199.976 138.144C199.08 138.144 198.36 137.852 197.816 137.268C197.272 136.676 197 135.952 197 135.096C197 134.24 197.272 133.52 197.816 132.936C198.36 132.352 199.08 132.06 199.976 132.06C200.88 132.06 201.604 132.352 202.148 132.936C202.692 133.52 202.964 134.24 202.964 135.096C202.964 135.96 202.692 136.684 202.148 137.268C201.604 137.852 200.88 138.144 199.976 138.144ZM199.976 137.028C200.496 137.028 200.904 136.844 201.2 136.476C201.504 136.1 201.656 135.64 201.656 135.096C201.656 134.56 201.504 134.108 201.2 133.74C200.904 133.364 200.496 133.176 199.976 133.176C199.464 133.176 199.056 133.364 198.752 133.74C198.456 134.108 198.308 134.56 198.308 135.096C198.308 135.64 198.456 136.1 198.752 136.476C199.056 136.844 199.464 137.028 199.976 137.028ZM205.522 138H204.262V129.996H205.522V138ZM208.441 138H207.181V129.996H208.441V138ZM214.9 138H213.64V137.376C213.192 137.888 212.568 138.144 211.768 138.144C211.24 138.144 210.772 137.976 210.364 137.64C209.956 137.296 209.752 136.824 209.752 136.224C209.752 135.608 209.952 135.14 210.352 134.82C210.76 134.5 211.232 134.34 211.768 134.34C212.592 134.34 213.216 134.588 213.64 135.084V134.22C213.64 133.884 213.516 133.62 213.268 133.428C213.02 133.236 212.692 133.14 212.284 133.14C211.636 133.14 211.064 133.384 210.568 133.872L210.052 132.996C210.708 132.372 211.52 132.06 212.488 132.06C213.2 132.06 213.78 132.228 214.228 132.564C214.676 132.9 214.9 133.432 214.9 134.16V138ZM213.64 136.68V135.804C213.352 135.404 212.892 135.204 212.26 135.204C211.9 135.204 211.604 135.3 211.372 135.492C211.14 135.684 211.024 135.936 211.024 136.248C211.024 136.56 211.14 136.812 211.372 137.004C211.604 137.188 211.9 137.28 212.26 137.28C212.892 137.28 213.352 137.08 213.64 136.68ZM217.817 138H216.557V132.204H217.817V133.056C218.041 132.768 218.321 132.532 218.657 132.348C218.993 132.164 219.341 132.072 219.701 132.072V133.32C219.589 133.296 219.457 133.284 219.305 133.284C219.041 133.284 218.757 133.364 218.453 133.524C218.157 133.676 217.945 133.852 217.817 134.052V138ZM227.195 138H225.791V131.232H223.367V129.996H229.619V131.232H227.195V138ZM231.155 138H229.895V132.204H231.155V133.056C231.379 132.768 231.659 132.532 231.995 132.348C232.331 132.164 232.679 132.072 233.039 132.072V133.32C232.927 133.296 232.795 133.284 232.643 133.284C232.379 133.284 232.095 133.364 231.791 133.524C231.495 133.676 231.283 133.852 231.155 134.052V138ZM233.719 135.096C233.719 134.248 233.995 133.532 234.547 132.948C235.107 132.356 235.811 132.06 236.659 132.06C237.515 132.06 238.203 132.356 238.723 132.948C239.251 133.54 239.515 134.296 239.515 135.216V135.516H235.039C235.087 135.972 235.275 136.352 235.603 136.656C235.931 136.96 236.359 137.112 236.887 137.112C237.183 137.112 237.479 137.056 237.775 136.944C238.079 136.832 238.331 136.676 238.531 136.476L239.107 137.304C238.523 137.864 237.739 138.144 236.755 138.144C235.875 138.144 235.147 137.864 234.571 137.304C234.003 136.736 233.719 136 233.719 135.096ZM236.659 133.092C236.163 133.092 235.775 133.248 235.495 133.56C235.215 133.864 235.059 134.22 235.027 134.628H238.291C238.275 134.228 238.127 133.872 237.847 133.56C237.575 133.248 237.179 133.092 236.659 133.092ZM240.423 135.096C240.423 134.248 240.699 133.532 241.251 132.948C241.811 132.356 242.515 132.06 243.363 132.06C244.219 132.06 244.907 132.356 245.427 132.948C245.955 133.54 246.219 134.296 246.219 135.216V135.516H241.743C241.791 135.972 241.979 136.352 242.307 136.656C242.635 136.96 243.063 137.112 243.591 137.112C243.887 137.112 244.183 137.056 244.479 136.944C244.783 136.832 245.035 136.676 245.235 136.476L245.811 137.304C245.227 137.864 244.443 138.144 243.459 138.144C242.579 138.144 241.851 137.864 241.275 137.304C240.707 136.736 240.423 136 240.423 135.096ZM243.363 133.092C242.867 133.092 242.479 133.248 242.199 133.56C241.919 133.864 241.763 134.22 241.731 134.628H244.995C244.979 134.228 244.831 133.872 244.551 133.56C244.279 133.248 243.883 133.092 243.363 133.092ZM247.86 139.596L247.296 139.128C247.496 139.008 247.68 138.84 247.848 138.624C248.016 138.408 248.12 138.2 248.16 138C248.088 138.024 248.02 138.036 247.956 138.036C247.748 138.036 247.576 137.968 247.44 137.832C247.304 137.688 247.236 137.504 247.236 137.28C247.236 137.056 247.316 136.864 247.476 136.704C247.636 136.536 247.828 136.452 248.052 136.452C248.308 136.452 248.528 136.552 248.712 136.752C248.896 136.944 248.988 137.208 248.988 137.544C248.988 137.944 248.884 138.324 248.676 138.684C248.476 139.052 248.204 139.356 247.86 139.596ZM255.671 138H254.135L257.159 131.232H253.007V129.996H258.779V130.968L255.671 138ZM262.334 135.636H259.454V134.556H262.334V135.636ZM269.051 138H263.567V129.996H269.051V131.232H264.971V133.308H268.967V134.544H264.971V136.764H269.051V138ZM271.741 138H270.481V129.996H271.741V138ZM273.04 135.096C273.04 134.248 273.316 133.532 273.868 132.948C274.428 132.356 275.132 132.06 275.98 132.06C276.836 132.06 277.524 132.356 278.044 132.948C278.572 133.54 278.836 134.296 278.836 135.216V135.516H274.36C274.408 135.972 274.596 136.352 274.924 136.656C275.252 136.96 275.68 137.112 276.208 137.112C276.504 137.112 276.8 137.056 277.096 136.944C277.4 136.832 277.652 136.676 277.852 136.476L278.428 137.304C277.844 137.864 277.06 138.144 276.076 138.144C275.196 138.144 274.468 137.864 273.892 137.304C273.324 136.736 273.04 136 273.04 135.096ZM275.98 133.092C275.484 133.092 275.096 133.248 274.816 133.56C274.536 133.864 274.38 134.22 274.348 134.628H277.612C277.596 134.228 277.448 133.872 277.168 133.56C276.896 133.248 276.5 133.092 275.98 133.092ZM282.983 138H281.627L279.263 132.204H280.607L282.299 136.548L283.991 132.204H285.347L282.983 138ZM285.803 135.096C285.803 134.248 286.079 133.532 286.631 132.948C287.191 132.356 287.895 132.06 288.743 132.06C289.599 132.06 290.287 132.356 290.807 132.948C291.335 133.54 291.599 134.296 291.599 135.216V135.516H287.123C287.171 135.972 287.359 136.352 287.687 136.656C288.015 136.96 288.443 137.112 288.971 137.112C289.267 137.112 289.563 137.056 289.859 136.944C290.163 136.832 290.415 136.676 290.615 136.476L291.191 137.304C290.607 137.864 289.823 138.144 288.839 138.144C287.959 138.144 287.231 137.864 286.655 137.304C286.087 136.736 285.803 136 285.803 135.096ZM288.743 133.092C288.247 133.092 287.859 133.248 287.579 133.56C287.299 133.864 287.143 134.22 287.111 134.628H290.375C290.359 134.228 290.211 133.872 289.931 133.56C289.659 133.248 289.263 133.092 288.743 133.092ZM298.038 138H296.778V134.376C296.778 133.576 296.39 133.176 295.614 133.176C295.31 133.176 295.026 133.252 294.762 133.404C294.498 133.556 294.286 133.74 294.126 133.956V138H292.866V132.204H294.126V132.996C294.342 132.74 294.63 132.52 294.99 132.336C295.35 132.152 295.742 132.06 296.166 132.06C296.782 132.06 297.246 132.22 297.558 132.54C297.878 132.86 298.038 133.32 298.038 133.92V138ZM300.131 139.596L299.567 139.128C299.767 139.008 299.951 138.84 300.119 138.624C300.287 138.408 300.391 138.2 300.431 138C300.359 138.024 300.291 138.036 300.227 138.036C300.019 138.036 299.847 137.968 299.711 137.832C299.575 137.688 299.507 137.504 299.507 137.28C299.507 137.056 299.587 136.864 299.747 136.704C299.907 136.536 300.099 136.452 300.323 136.452C300.579 136.452 300.799 136.552 300.983 136.752C301.167 136.944 301.259 137.208 301.259 137.544C301.259 137.944 301.155 138.324 300.947 138.684C300.747 139.052 300.475 139.356 300.131 139.596ZM305.05 137.304L305.698 136.236C306.106 136.676 306.562 136.896 307.066 136.896C307.498 136.896 307.838 136.764 308.086 136.5C308.342 136.236 308.47 135.884 308.47 135.444V129.996H309.874V135.468C309.874 136.348 309.626 137.016 309.13 137.472C308.634 137.92 307.982 138.144 307.174 138.144C306.286 138.144 305.578 137.864 305.05 137.304ZM315.388 138.144C314.22 138.144 313.236 137.756 312.436 136.98C311.644 136.204 311.248 135.212 311.248 134.004C311.248 132.796 311.644 131.804 312.436 131.028C313.236 130.252 314.22 129.864 315.388 129.864C316.82 129.864 317.912 130.464 318.664 131.664L317.464 132.276C317.264 131.932 316.98 131.652 316.612 131.436C316.244 131.22 315.836 131.112 315.388 131.112C314.62 131.112 313.976 131.388 313.456 131.94C312.944 132.484 312.688 133.172 312.688 134.004C312.688 134.836 312.944 135.528 313.456 136.08C313.976 136.624 314.62 136.896 315.388 136.896C315.836 136.896 316.244 136.788 316.612 136.572C316.98 136.356 317.264 136.076 317.464 135.732L318.664 136.344C317.896 137.544 316.804 138.144 315.388 138.144ZM321.215 138H319.811V129.996H323.327C324.135 129.996 324.771 130.236 325.235 130.716C325.707 131.196 325.943 131.792 325.943 132.504C325.943 133.208 325.707 133.804 325.235 134.292C324.771 134.772 324.135 135.012 323.327 135.012H321.215V138ZM324.119 133.428C324.375 133.196 324.503 132.888 324.503 132.504C324.503 132.12 324.375 131.812 324.119 131.58C323.863 131.348 323.535 131.232 323.135 131.232H321.215V133.776H323.135C323.535 133.776 323.863 133.66 324.119 133.428ZM326.564 135.096C326.564 134.248 326.84 133.532 327.392 132.948C327.952 132.356 328.656 132.06 329.504 132.06C330.36 132.06 331.048 132.356 331.568 132.948C332.096 133.54 332.36 134.296 332.36 135.216V135.516H327.884C327.932 135.972 328.12 136.352 328.448 136.656C328.776 136.96 329.204 137.112 329.732 137.112C330.028 137.112 330.324 137.056 330.62 136.944C330.924 136.832 331.176 136.676 331.376 136.476L331.952 137.304C331.368 137.864 330.584 138.144 329.6 138.144C328.72 138.144 327.992 137.864 327.416 137.304C326.848 136.736 326.564 136 326.564 135.096ZM329.504 133.092C329.008 133.092 328.62 133.248 328.34 133.56C328.06 133.864 327.904 134.22 327.872 134.628H331.136C331.12 134.228 330.972 133.872 330.692 133.56C330.42 133.248 330.024 133.092 329.504 133.092ZM338.8 138H337.54V134.376C337.54 133.576 337.152 133.176 336.376 133.176C336.072 133.176 335.788 133.252 335.524 133.404C335.26 133.556 335.048 133.74 334.888 133.956V138H333.628V132.204H334.888V132.996C335.104 132.74 335.392 132.52 335.752 132.336C336.112 132.152 336.504 132.06 336.928 132.06C337.544 132.06 338.008 132.22 338.32 132.54C338.64 132.86 338.8 133.32 338.8 133.92V138ZM345.633 138H344.373V134.376C344.373 133.576 343.985 133.176 343.209 133.176C342.905 133.176 342.621 133.252 342.357 133.404C342.093 133.556 341.881 133.74 341.721 133.956V138H340.461V132.204H341.721V132.996C341.937 132.74 342.225 132.52 342.585 132.336C342.945 132.152 343.337 132.06 343.761 132.06C344.377 132.06 344.841 132.22 345.153 132.54C345.473 132.86 345.633 133.32 345.633 133.92V138ZM346.933 135.096C346.933 134.248 347.209 133.532 347.761 132.948C348.321 132.356 349.025 132.06 349.873 132.06C350.729 132.06 351.417 132.356 351.937 132.948C352.465 133.54 352.729 134.296 352.729 135.216V135.516H348.253C348.301 135.972 348.489 136.352 348.817 136.656C349.145 136.96 349.573 137.112 350.101 137.112C350.397 137.112 350.693 137.056 350.989 136.944C351.293 136.832 351.545 136.676 351.745 136.476L352.321 137.304C351.737 137.864 350.953 138.144 349.969 138.144C349.089 138.144 348.361 137.864 347.785 137.304C347.217 136.736 346.933 136 346.933 135.096ZM349.873 133.092C349.377 133.092 348.989 133.248 348.709 133.56C348.429 133.864 348.273 134.22 348.241 134.628H351.505C351.489 134.228 351.341 133.872 351.061 133.56C350.789 133.248 350.393 133.092 349.873 133.092ZM353.745 140.268L353.937 139.14C354.081 139.204 354.241 139.236 354.417 139.236C354.825 139.236 355.101 139.068 355.245 138.732L355.533 138.072L353.157 132.204H354.501L356.193 136.548L357.885 132.204H359.241L356.445 139.044C356.101 139.9 355.437 140.336 354.453 140.352C354.189 140.352 353.953 140.324 353.745 140.268Z" fill="#346868"/>
<mask id="path-19-inside-1_367_7498" fill="white">
<path d="M4 666H424V722H4V666Z"/>
</mask>
<path d="M4 666V667H424V666V665H4V666Z" fill="#CCCED4" mask="url(#path-19-inside-1_367_7498)"/>
<path d="M63.2043 698H61.3143L59.2423 694.514H57.6183V698H55.9803V688.662H60.0823C60.997 688.662 61.7343 688.933 62.2943 689.474C62.8543 690.015 63.1343 690.72 63.1343 691.588C63.1343 692.372 62.9197 693.002 62.4903 693.478C62.061 693.945 61.5383 694.229 60.9223 694.332L63.2043 698ZM61.0063 692.666C61.305 692.395 61.4543 692.036 61.4543 691.588C61.4543 691.14 61.305 690.781 61.0063 690.51C60.7077 690.239 60.325 690.104 59.8583 690.104H57.6183V693.072H59.8583C60.325 693.072 60.7077 692.937 61.0063 692.666ZM63.8855 694.612C63.8855 693.623 64.2075 692.787 64.8515 692.106C65.5048 691.415 66.3262 691.07 67.3155 691.07C68.3142 691.07 69.1168 691.415 69.7235 692.106C70.3395 692.797 70.6475 693.679 70.6475 694.752V695.102H65.4255C65.4815 695.634 65.7008 696.077 66.0835 696.432C66.4662 696.787 66.9655 696.964 67.5815 696.964C67.9268 696.964 68.2722 696.899 68.6175 696.768C68.9722 696.637 69.2662 696.455 69.4995 696.222L70.1715 697.188C69.4902 697.841 68.5755 698.168 67.4275 698.168C66.4008 698.168 65.5515 697.841 64.8795 697.188C64.2168 696.525 63.8855 695.667 63.8855 694.612ZM67.3155 692.274C66.7368 692.274 66.2842 692.456 65.9575 692.82C65.6308 693.175 65.4488 693.59 65.4115 694.066H69.2195C69.2008 693.599 69.0282 693.184 68.7015 692.82C68.3842 692.456 67.9222 692.274 67.3155 692.274ZM71.5105 697.118L72.1825 696.054C72.4345 696.315 72.7752 696.539 73.2045 696.726C73.6338 696.913 74.0585 697.006 74.4785 697.006C74.9078 697.006 75.2345 696.936 75.4585 696.796C75.6918 696.647 75.8085 696.441 75.8085 696.18C75.8085 695.909 75.6778 695.709 75.4165 695.578C75.1552 695.438 74.7725 695.312 74.2685 695.2C73.9605 695.135 73.7178 695.079 73.5405 695.032C73.3725 694.985 73.1532 694.911 72.8825 694.808C72.6118 694.696 72.4065 694.575 72.2665 694.444C72.1265 694.304 72.0005 694.122 71.8885 693.898C71.7765 693.674 71.7205 693.417 71.7205 693.128C71.7205 692.549 71.9585 692.064 72.4345 691.672C72.9105 691.271 73.5592 691.07 74.3805 691.07C75.4165 691.07 76.2938 691.387 77.0125 692.022L76.3965 693.058C76.1818 692.815 75.8972 692.619 75.5425 692.47C75.1878 692.321 74.8052 692.246 74.3945 692.246C74.0025 692.246 73.6945 692.316 73.4705 692.456C73.2465 692.587 73.1345 692.769 73.1345 693.002C73.1345 693.235 73.2558 693.413 73.4985 693.534C73.7412 693.655 74.1098 693.772 74.6045 693.884C74.9125 693.949 75.1552 694.005 75.3325 694.052C75.5192 694.099 75.7478 694.183 76.0185 694.304C76.2892 694.416 76.4992 694.542 76.6485 694.682C76.7978 694.822 76.9285 695.013 77.0405 695.256C77.1618 695.489 77.2225 695.76 77.2225 696.068C77.2225 696.684 76.9752 697.188 76.4805 697.58C75.9858 697.972 75.2952 698.168 74.4085 698.168C73.1952 698.168 72.2292 697.818 71.5105 697.118ZM78.282 694.612C78.282 693.623 78.604 692.787 79.248 692.106C79.9013 691.415 80.7227 691.07 81.712 691.07C82.7107 691.07 83.5133 691.415 84.12 692.106C84.736 692.797 85.044 693.679 85.044 694.752V695.102H79.822C79.878 695.634 80.0973 696.077 80.48 696.432C80.8627 696.787 81.362 696.964 81.978 696.964C82.3233 696.964 82.6687 696.899 83.014 696.768C83.3687 696.637 83.6627 696.455 83.896 696.222L84.568 697.188C83.8867 697.841 82.972 698.168 81.824 698.168C80.7973 698.168 79.948 697.841 79.276 697.188C78.6133 696.525 78.282 695.667 78.282 694.612ZM81.712 692.274C81.1333 692.274 80.6807 692.456 80.354 692.82C80.0273 693.175 79.8453 693.59 79.808 694.066H83.616C83.5973 693.599 83.4247 693.184 83.098 692.82C82.7807 692.456 82.3187 692.274 81.712 692.274ZM88.525 698.168C87.9556 698.168 87.5216 698.019 87.223 697.72C86.9336 697.421 86.789 696.992 86.789 696.432V692.526H85.669V691.238H86.789V689.39H88.259V691.238H89.631V692.526H88.259V696.068C88.259 696.311 88.315 696.507 88.427 696.656C88.539 696.796 88.6976 696.866 88.903 696.866C89.2016 696.866 89.421 696.787 89.561 696.628L89.911 697.734C89.603 698.023 89.141 698.168 88.525 698.168Z" fill="#7D8393"/>
<path d="M141 681C141 679.343 142.343 678 144 678H243C244.657 678 246 679.343 246 681V707C246 708.657 244.657 710 243 710H144C142.343 710 141 708.657 141 707V681Z" fill="#F0F1F2"/>
<path d="M177.343 698.168C175.981 698.168 174.833 697.715 173.899 696.81C172.975 695.905 172.513 694.747 172.513 693.338C172.513 691.929 172.975 690.771 173.899 689.866C174.833 688.961 175.981 688.508 177.343 688.508C179.014 688.508 180.288 689.208 181.165 690.608L179.765 691.322C179.532 690.921 179.201 690.594 178.771 690.342C178.342 690.09 177.866 689.964 177.343 689.964C176.447 689.964 175.696 690.286 175.089 690.93C174.492 691.565 174.193 692.367 174.193 693.338C174.193 694.309 174.492 695.116 175.089 695.76C175.696 696.395 176.447 696.712 177.343 696.712C177.866 696.712 178.342 696.586 178.771 696.334C179.201 696.082 179.532 695.755 179.765 695.354L181.165 696.068C180.269 697.468 178.995 698.168 177.343 698.168ZM188.034 698H186.564V697.272C186.042 697.869 185.314 698.168 184.38 698.168C183.764 698.168 183.218 697.972 182.742 697.58C182.266 697.179 182.028 696.628 182.028 695.928C182.028 695.209 182.262 694.663 182.728 694.29C183.204 693.917 183.755 693.73 184.38 693.73C185.342 693.73 186.07 694.019 186.564 694.598V693.59C186.564 693.198 186.42 692.89 186.13 692.666C185.841 692.442 185.458 692.33 184.982 692.33C184.226 692.33 183.559 692.615 182.98 693.184L182.378 692.162C183.144 691.434 184.091 691.07 185.22 691.07C186.051 691.07 186.728 691.266 187.25 691.658C187.773 692.05 188.034 692.671 188.034 693.52V698ZM186.564 696.46V695.438C186.228 694.971 185.692 694.738 184.954 694.738C184.534 694.738 184.189 694.85 183.918 695.074C183.648 695.298 183.512 695.592 183.512 695.956C183.512 696.32 183.648 696.614 183.918 696.838C184.189 697.053 184.534 697.16 184.954 697.16C185.692 697.16 186.228 696.927 186.564 696.46ZM195.974 698H194.504V693.772C194.504 692.839 194.052 692.372 193.146 692.372C192.792 692.372 192.46 692.461 192.152 692.638C191.844 692.815 191.597 693.03 191.41 693.282V698H189.94V691.238H191.41V692.162C191.662 691.863 191.998 691.607 192.418 691.392C192.838 691.177 193.296 691.07 193.79 691.07C194.509 691.07 195.05 691.257 195.414 691.63C195.788 692.003 195.974 692.54 195.974 693.24V698ZM197.464 694.612C197.464 693.585 197.79 692.741 198.444 692.078C199.097 691.406 199.937 691.07 200.964 691.07C202.093 691.07 202.956 691.471 203.554 692.274L202.588 693.17C202.214 692.638 201.696 692.372 201.034 692.372C200.418 692.372 199.923 692.582 199.55 693.002C199.176 693.413 198.99 693.949 198.99 694.612C198.99 695.275 199.176 695.816 199.55 696.236C199.923 696.656 200.418 696.866 201.034 696.866C201.678 696.866 202.196 696.6 202.588 696.068L203.554 696.964C202.956 697.767 202.093 698.168 200.964 698.168C199.937 698.168 199.097 697.837 198.444 697.174C197.79 696.502 197.464 695.648 197.464 694.612ZM204.423 694.612C204.423 693.623 204.745 692.787 205.389 692.106C206.042 691.415 206.863 691.07 207.853 691.07C208.851 691.07 209.654 691.415 210.261 692.106C210.877 692.797 211.185 693.679 211.185 694.752V695.102H205.963C206.019 695.634 206.238 696.077 206.621 696.432C207.003 696.787 207.503 696.964 208.119 696.964C208.464 696.964 208.809 696.899 209.155 696.768C209.509 696.637 209.803 696.455 210.037 696.222L210.709 697.188C210.027 697.841 209.113 698.168 207.965 698.168C206.938 698.168 206.089 697.841 205.417 697.188C204.754 696.525 204.423 695.667 204.423 694.612ZM207.853 692.274C207.274 692.274 206.821 692.456 206.495 692.82C206.168 693.175 205.986 693.59 205.949 694.066H209.757C209.738 693.599 209.565 693.184 209.239 692.82C208.921 692.456 208.459 692.274 207.853 692.274ZM214.106 698H212.636V688.662H214.106V698Z" fill="#5C6069"/>
<path d="M262 681C262 679.343 263.343 678 265 678H347V710H265C263.343 710 262 708.657 262 707V681Z" fill="#5C6069"/>
<path d="M295.394 698H293.602L292.916 696.208H288.492L287.806 698H286.014L289.682 688.662H291.726L295.394 698ZM292.454 694.766L290.704 690.048L288.954 694.766H292.454ZM297.842 697.062V700.576H296.372V691.238H297.842V692.162C298.383 691.434 299.107 691.07 300.012 691.07C300.899 691.07 301.617 691.387 302.168 692.022C302.728 692.657 303.008 693.52 303.008 694.612C303.008 695.704 302.728 696.572 302.168 697.216C301.617 697.851 300.899 698.168 300.012 698.168C299.116 698.168 298.393 697.799 297.842 697.062ZM300.964 696.236C301.309 695.816 301.482 695.275 301.482 694.612C301.482 693.949 301.309 693.413 300.964 693.002C300.619 692.582 300.157 692.372 299.578 692.372C299.242 692.372 298.911 692.461 298.584 692.638C298.257 692.815 298.01 693.03 297.842 693.282V695.956C298.01 696.208 298.257 696.423 298.584 696.6C298.911 696.777 299.242 696.866 299.578 696.866C300.157 696.866 300.619 696.656 300.964 696.236ZM305.963 697.062V700.576H304.493V691.238H305.963V692.162C306.504 691.434 307.228 691.07 308.133 691.07C309.02 691.07 309.738 691.387 310.289 692.022C310.849 692.657 311.129 693.52 311.129 694.612C311.129 695.704 310.849 696.572 310.289 697.216C309.738 697.851 309.02 698.168 308.133 698.168C307.237 698.168 306.514 697.799 305.963 697.062ZM309.085 696.236C309.43 695.816 309.603 695.275 309.603 694.612C309.603 693.949 309.43 693.413 309.085 693.002C308.74 692.582 308.278 692.372 307.699 692.372C307.363 692.372 307.032 692.461 306.705 692.638C306.378 692.815 306.131 693.03 305.963 693.282V695.956C306.131 696.208 306.378 696.423 306.705 696.6C307.032 696.777 307.363 696.866 307.699 696.866C308.278 696.866 308.74 696.656 309.085 696.236ZM314.084 698H312.614V688.662H314.084V698ZM315.697 700.646L315.921 699.33C316.089 699.405 316.276 699.442 316.481 699.442C316.957 699.442 317.279 699.246 317.447 698.854L317.783 698.084L315.011 691.238H316.579L318.553 696.306L320.527 691.238H322.109L318.847 699.218C318.446 700.217 317.671 700.725 316.523 700.744C316.215 700.744 315.94 700.711 315.697 700.646Z" fill="#F0F1F2"/>
<path d="M348 678H385C386.657 678 388 679.343 388 681V707C388 708.657 386.657 710 385 710H348V678Z" fill="#5C6069"/>
<path d="M363 691.5L368 696.5L373 691.5" stroke="white" stroke-width="2" stroke-linecap="round" stroke-linejoin="round"/>
</g>
<defs>
<filter id="filter0_dd_367_7498" x="-6" y="-10" width="440" height="742" filterUnits="userSpaceOnUse" color-interpolation-filters="sRGB">
<feFlood flood-opacity="0" result="BackgroundImageFix"/>
<feColorMatrix in="SourceAlpha" type="matrix" values="0 0 0 0 0 0 0 0 0 0 0 0 0 0 0 0 0 0 127 0" result="hardAlpha"/>
<feMorphology radius="2" operator="erode" in="SourceAlpha" result="effect1_dropShadow_367_7498"/>
<feOffset dy="2"/>
<feGaussianBlur stdDeviation="2"/>
<feColorMatrix type="matrix" values="0 0 0 0 0 0 0 0 0 0 0 0 0 0 0 0 0 0 0.07 0"/>
<feBlend mode="normal" in2="BackgroundImageFix" result="effect1_dropShadow_367_7498"/>
<feColorMatrix in="SourceAlpha" type="matrix" values="0 0 0 0 0 0 0 0 0 0 0 0 0 0 0 0 0 0 127 0" result="hardAlpha"/>
<feOffset dy="4"/>
<feGaussianBlur stdDeviation="2"/>
<feComposite in2="hardAlpha" operator="out"/>
<feColorMatrix type="matrix" values="0 0 0 0 0 0 0 0 0 0 0 0 0 0 0 0 0 0 0.15 0"/>
<feBlend mode="normal" in2="effect1_dropShadow_367_7498" result="effect2_dropShadow_367_7498"/>
<feBlend mode="normal" in="SourceGraphic" in2="effect2_dropShadow_367_7498" result="shape"/>
</filter>
</defs>
</svg>
