<svg width="428" height="730" viewBox="0 0 428 730" fill="none" xmlns="http://www.w3.org/2000/svg">
<g filter="url(#filter0_dd_367_5083)">
<rect width="420" height="722" transform="translate(4)" fill="white" fill-opacity="0.95"/>
<path d="M31.092 26.216C29.388 26.216 27.954 25.634 26.79 24.47C25.626 23.306 25.044 21.818 25.044 20.006C25.044 18.194 25.626 16.706 26.79 15.542C27.954 14.378 29.388 13.796 31.092 13.796C32.892 13.796 34.362 14.504 35.502 15.92L34.638 16.478C34.254 15.95 33.744 15.53 33.108 15.218C32.484 14.894 31.812 14.732 31.092 14.732C29.676 14.732 28.494 15.224 27.546 16.208C26.598 17.192 26.124 18.458 26.124 20.006C26.124 21.542 26.598 22.808 27.546 23.804C28.506 24.788 29.688 25.28 31.092 25.28C31.812 25.28 32.484 25.124 33.108 24.812C33.744 24.488 34.254 24.062 34.638 23.534L35.502 24.074C34.35 25.502 32.88 26.216 31.092 26.216ZM38.4878 26H37.5518V17.306H38.4878V18.8C39.3398 17.684 40.3178 17.126 41.4218 17.126V18.152C41.3138 18.128 41.1578 18.116 40.9538 18.116C40.5218 18.116 40.0538 18.278 39.5498 18.602C39.0458 18.926 38.6918 19.28 38.4878 19.664V26ZM42.7606 21.644C42.7606 20.372 43.1566 19.298 43.9486 18.422C44.7526 17.534 45.7546 17.09 46.9546 17.09C48.2266 17.09 49.2286 17.534 49.9606 18.422C50.6926 19.298 51.0586 20.39 51.0586 21.698V21.95H43.7866C43.8346 22.934 44.1646 23.756 44.7766 24.416C45.3886 25.076 46.1926 25.406 47.1886 25.406C48.3406 25.406 49.2886 25.004 50.0326 24.2L50.5186 24.812C49.6186 25.748 48.4846 26.216 47.1166 26.216C45.8446 26.216 44.8006 25.79 43.9846 24.938C43.1686 24.086 42.7606 22.988 42.7606 21.644ZM46.9366 17.9C45.9886 17.9 45.2326 18.242 44.6686 18.926C44.1166 19.598 43.8226 20.36 43.7866 21.212H50.1046C50.0926 20.372 49.8106 19.61 49.2586 18.926C48.7186 18.242 47.9446 17.9 46.9366 17.9ZM59.9395 26H59.0035V24.974C58.2475 25.802 57.2635 26.216 56.0515 26.216C55.2475 26.216 54.5395 25.958 53.9275 25.442C53.3155 24.914 53.0095 24.206 53.0095 23.318C53.0095 22.418 53.3095 21.716 53.9095 21.212C54.5215 20.696 55.2355 20.438 56.0515 20.438C57.2755 20.438 58.2595 20.852 59.0035 21.68V19.916C59.0035 19.292 58.7815 18.806 58.3375 18.458C57.8935 18.098 57.3355 17.918 56.6635 17.918C55.5955 17.918 54.6895 18.344 53.9455 19.196L53.4235 18.548C54.3235 17.576 55.4395 17.09 56.7715 17.09C57.7075 17.09 58.4695 17.324 59.0575 17.792C59.6455 18.26 59.9395 18.956 59.9395 19.88V26ZM59.0035 24.29V22.382C58.3795 21.578 57.5035 21.176 56.3755 21.176C55.6675 21.176 55.0915 21.38 54.6475 21.788C54.2155 22.196 53.9995 22.712 53.9995 23.336C53.9995 23.96 54.2155 24.476 54.6475 24.884C55.0915 25.28 55.6675 25.478 56.3755 25.478C57.5155 25.478 58.3915 25.082 59.0035 24.29ZM64.7543 26.216C63.6143 26.216 63.0443 25.586 63.0443 24.326V18.134H61.6043V17.306H63.0443V14.93H63.9983V17.306H65.7623V18.134H63.9983V24.182C63.9983 24.974 64.2983 25.37 64.8983 25.37C65.2943 25.37 65.6183 25.232 65.8703 24.956L66.2303 25.676C65.8463 26.036 65.3543 26.216 64.7543 26.216ZM67.3173 21.644C67.3173 20.372 67.7133 19.298 68.5053 18.422C69.3093 17.534 70.3113 17.09 71.5113 17.09C72.7833 17.09 73.7853 17.534 74.5173 18.422C75.2493 19.298 75.6153 20.39 75.6153 21.698V21.95H68.3433C68.3913 22.934 68.7213 23.756 69.3333 24.416C69.9453 25.076 70.7493 25.406 71.7453 25.406C72.8973 25.406 73.8453 25.004 74.5893 24.2L75.0753 24.812C74.1753 25.748 73.0413 26.216 71.6733 26.216C70.4013 26.216 69.3573 25.79 68.5413 24.938C67.7253 24.086 67.3173 22.988 67.3173 21.644ZM71.4933 17.9C70.5453 17.9 69.7893 18.242 69.2253 18.926C68.6733 19.598 68.3793 20.36 68.3433 21.212H74.6613C74.6493 20.372 74.3673 19.61 73.8153 18.926C73.2753 18.242 72.5013 17.9 71.4933 17.9ZM83.7544 26H82.7284V13.994H90.3424V14.93H83.7544V19.376H90.2164V20.312H83.7544V26ZM92.9162 15.83C92.7242 15.83 92.5562 15.758 92.4122 15.614C92.2682 15.47 92.1962 15.302 92.1962 15.11C92.1962 14.918 92.2682 14.75 92.4122 14.606C92.5562 14.462 92.7242 14.39 92.9162 14.39C93.1202 14.39 93.2882 14.462 93.4202 14.606C93.5642 14.738 93.6362 14.906 93.6362 15.11C93.6362 15.314 93.5642 15.488 93.4202 15.632C93.2882 15.764 93.1202 15.83 92.9162 15.83ZM93.3842 26H92.4482V17.306H93.3842V26ZM97.2338 26H96.2978V13.994H97.2338V26ZM102.037 26.216C100.897 26.216 100.327 25.586 100.327 24.326V18.134H98.8875V17.306H100.327V14.93H101.281V17.306H103.045V18.134H101.281V24.182C101.281 24.974 101.581 25.37 102.181 25.37C102.577 25.37 102.901 25.232 103.153 24.956L103.513 25.676C103.129 26.036 102.637 26.216 102.037 26.216ZM104.6 21.644C104.6 20.372 104.996 19.298 105.788 18.422C106.592 17.534 107.594 17.09 108.794 17.09C110.066 17.09 111.068 17.534 111.8 18.422C112.532 19.298 112.898 20.39 112.898 21.698V21.95H105.626C105.674 22.934 106.004 23.756 106.616 24.416C107.228 25.076 108.032 25.406 109.028 25.406C110.18 25.406 111.128 25.004 111.872 24.2L112.358 24.812C111.458 25.748 110.324 26.216 108.956 26.216C107.684 26.216 106.64 25.79 105.824 24.938C105.008 24.086 104.6 22.988 104.6 21.644ZM108.776 17.9C107.828 17.9 107.072 18.242 106.508 18.926C105.956 19.598 105.662 20.36 105.626 21.212H111.944C111.932 20.372 111.65 19.61 111.098 18.926C110.558 18.242 109.784 17.9 108.776 17.9ZM116.253 26H115.317V17.306H116.253V18.8C117.105 17.684 118.083 17.126 119.187 17.126V18.152C119.079 18.128 118.923 18.116 118.719 18.116C118.287 18.116 117.819 18.278 117.315 18.602C116.811 18.926 116.457 19.28 116.253 19.664V26Z" fill="black"/>
<mask id="mask0_367_5083" style="mask-type:alpha" maskUnits="userSpaceOnUse" x="388" y="12" width="16" height="16">
<rect x="388" y="12" width="16" height="16" fill="#D9D9D9"/>
</mask>
<g mask="url(#mask0_367_5083)">
<path d="M396 20.6999L392.5 24.1999C392.4 24.2999 392.283 24.3499 392.15 24.3499C392.017 24.3499 391.9 24.2999 391.8 24.1999C391.7 24.0999 391.65 23.9832 391.65 23.8499C391.65 23.7166 391.7 23.5999 391.8 23.4999L395.3 19.9999L391.8 16.4999C391.7 16.3999 391.65 16.2832 391.65 16.1499C391.65 16.0166 391.7 15.8999 391.8 15.7999C391.9 15.6999 392.017 15.6499 392.15 15.6499C392.283 15.6499 392.4 15.6999 392.5 15.7999L396 19.2999L399.5 15.7999C399.6 15.6999 399.717 15.6499 399.85 15.6499C399.983 15.6499 400.1 15.6999 400.2 15.7999C400.3 15.8999 400.35 16.0166 400.35 16.1499C400.35 16.2832 400.3 16.3999 400.2 16.4999L396.7 19.9999L400.2 23.4999C400.3 23.5999 400.35 23.7166 400.35 23.8499C400.35 23.9832 400.3 24.0999 400.2 24.1999C400.1 24.2999 399.983 24.3499 399.85 24.3499C399.717 24.3499 399.6 24.2999 399.5 24.1999L396 20.6999Z" fill="#7D8393"/>
</g>
<rect x="24.5" y="40.5" width="379" height="43" rx="5.5" stroke="#C5E1DF"/>
<path d="M48.1445 63.1606C48.0661 63.4246 48.0002 63.6964 47.9482 63.9751L47.9473 63.9839C47.8742 64.4224 47.8502 64.8801 47.874 65.355C47.8981 65.8347 47.9754 66.3009 48.1064 66.7524C48.1749 66.9956 48.2617 67.227 48.3652 67.4468H42.667C42.5988 67.4468 42.5701 67.4289 42.5439 67.4028C42.5178 67.3767 42.5 67.3481 42.5 67.2798V65.9468C42.5 65.5779 42.5921 65.251 42.7734 64.9546C42.9501 64.6659 43.2011 64.44 43.5449 64.2788C44.3849 63.8913 45.2031 63.6016 45.999 63.4058C46.7123 63.2303 47.4321 63.1332 48.1582 63.1157C48.1536 63.1307 48.149 63.1456 48.1445 63.1606ZM48.4004 55.8999C49.1577 55.9 49.7588 56.145 50.2402 56.6265C50.7217 57.1079 50.9667 57.709 50.9668 58.4663C50.9668 59.2236 50.7216 59.8247 50.2402 60.3062C49.7588 60.7876 49.1577 61.0336 48.4004 61.0337C47.6429 61.0337 47.0421 60.7877 46.5605 60.3062C46.079 59.8246 45.833 59.2238 45.833 58.4663C45.8331 57.7089 46.0791 57.1079 46.5605 56.6265C47.042 56.1451 47.6431 55.8999 48.4004 55.8999Z" stroke="#3E7880"/>
<path d="M54 60.6128C55.1034 60.6128 56.0436 61.0012 56.8213 61.7788C57.5989 62.5565 57.9873 63.4967 57.9873 64.6001C57.9873 65.7035 57.5989 66.6437 56.8213 67.4214C56.0436 68.199 55.1034 68.5874 54 68.5874C52.8966 68.5874 51.9564 68.199 51.1787 67.4214C50.4011 66.6437 50.0127 65.7035 50.0127 64.6001C50.0127 63.4967 50.4011 62.5565 51.1787 61.7788C51.9564 61.0012 52.8966 60.6128 54 60.6128ZM53.5879 64.7603H53.582L53.5908 64.769L55.3115 66.4888L55.3203 66.4976L55.8975 65.9204L55.8887 65.9116L54.4121 64.4341V62.188H53.5879V64.7603Z" fill="#3E7880" stroke="#3E7880" stroke-width="0.025"/>
<path d="M66.256 66H64.852V57.996H68.368C69.176 57.996 69.812 58.236 70.276 58.716C70.748 59.196 70.984 59.792 70.984 60.504C70.984 61.208 70.748 61.804 70.276 62.292C69.812 62.772 69.176 63.012 68.368 63.012H66.256V66ZM69.16 61.428C69.416 61.196 69.544 60.888 69.544 60.504C69.544 60.12 69.416 59.812 69.16 59.58C68.904 59.348 68.576 59.232 68.176 59.232H66.256V61.776H68.176C68.576 61.776 68.904 61.66 69.16 61.428ZM77.3128 66H76.0528V65.232C75.5088 65.84 74.8248 66.144 74.0008 66.144C72.7608 66.144 72.1408 65.532 72.1408 64.308V60.204H73.4008V63.852C73.4008 64.276 73.5008 64.58 73.7008 64.764C73.9008 64.94 74.1888 65.028 74.5648 65.028C74.8688 65.028 75.1528 64.956 75.4168 64.812C75.6808 64.668 75.8928 64.488 76.0528 64.272V60.204H77.3128V66ZM80.2334 66H78.9734V60.204H80.2334V61.056C80.4574 60.768 80.7374 60.532 81.0734 60.348C81.4094 60.164 81.7574 60.072 82.1174 60.072V61.32C82.0054 61.296 81.8734 61.284 81.7214 61.284C81.4574 61.284 81.1734 61.364 80.8694 61.524C80.5734 61.676 80.3614 61.852 80.2334 62.052V66ZM82.7975 63.096C82.7975 62.216 83.0775 61.492 83.6375 60.924C84.1975 60.348 84.9175 60.06 85.7975 60.06C86.7655 60.06 87.5055 60.404 88.0175 61.092L87.1895 61.86C86.8695 61.404 86.4255 61.176 85.8575 61.176C85.3295 61.176 84.9055 61.356 84.5855 61.716C84.2655 62.068 84.1055 62.528 84.1055 63.096C84.1055 63.664 84.2655 64.128 84.5855 64.488C84.9055 64.848 85.3295 65.028 85.8575 65.028C86.4095 65.028 86.8535 64.8 87.1895 64.344L88.0175 65.112C87.5055 65.8 86.7655 66.144 85.7975 66.144C84.9175 66.144 84.1975 65.86 83.6375 65.292C83.0775 64.716 82.7975 63.984 82.7975 63.096ZM94.3304 66H93.0704V62.352C93.0704 61.928 92.9664 61.628 92.7584 61.452C92.5584 61.268 92.2704 61.176 91.8944 61.176C91.5984 61.176 91.3184 61.252 91.0544 61.404C90.7904 61.556 90.5744 61.74 90.4064 61.956V66H89.1464V57.996H90.4064V60.996C90.6224 60.74 90.9104 60.52 91.2704 60.336C91.6384 60.152 92.0344 60.06 92.4584 60.06C93.7064 60.06 94.3304 60.672 94.3304 61.896V66ZM100.791 66H99.5307V65.376C99.0827 65.888 98.4587 66.144 97.6587 66.144C97.1307 66.144 96.6627 65.976 96.2547 65.64C95.8467 65.296 95.6427 64.824 95.6427 64.224C95.6427 63.608 95.8427 63.14 96.2427 62.82C96.6507 62.5 97.1227 62.34 97.6587 62.34C98.4827 62.34 99.1067 62.588 99.5307 63.084V62.22C99.5307 61.884 99.4067 61.62 99.1587 61.428C98.9107 61.236 98.5827 61.14 98.1747 61.14C97.5267 61.14 96.9547 61.384 96.4587 61.872L95.9427 60.996C96.5987 60.372 97.4107 60.06 98.3787 60.06C99.0907 60.06 99.6707 60.228 100.119 60.564C100.567 60.9 100.791 61.432 100.791 62.16V66ZM99.5307 64.68V63.804C99.2427 63.404 98.7827 63.204 98.1507 63.204C97.7907 63.204 97.4947 63.3 97.2627 63.492C97.0307 63.684 96.9147 63.936 96.9147 64.248C96.9147 64.56 97.0307 64.812 97.2627 65.004C97.4947 65.188 97.7907 65.28 98.1507 65.28C98.7827 65.28 99.2427 65.08 99.5307 64.68ZM101.944 65.244L102.52 64.332C102.736 64.556 103.028 64.748 103.396 64.908C103.764 65.068 104.128 65.148 104.488 65.148C104.856 65.148 105.136 65.088 105.328 64.968C105.528 64.84 105.628 64.664 105.628 64.44C105.628 64.208 105.516 64.036 105.292 63.924C105.068 63.804 104.74 63.696 104.308 63.6C104.044 63.544 103.836 63.496 103.684 63.456C103.54 63.416 103.352 63.352 103.12 63.264C102.888 63.168 102.712 63.064 102.592 62.952C102.472 62.832 102.364 62.676 102.268 62.484C102.172 62.292 102.124 62.072 102.124 61.824C102.124 61.328 102.328 60.912 102.736 60.576C103.144 60.232 103.7 60.06 104.404 60.06C105.292 60.06 106.044 60.332 106.66 60.876L106.132 61.764C105.948 61.556 105.704 61.388 105.4 61.26C105.096 61.132 104.768 61.068 104.416 61.068C104.08 61.068 103.816 61.128 103.624 61.248C103.432 61.36 103.336 61.516 103.336 61.716C103.336 61.916 103.44 62.068 103.648 62.172C103.856 62.276 104.172 62.376 104.596 62.472C104.86 62.528 105.068 62.576 105.22 62.616C105.38 62.656 105.576 62.728 105.808 62.832C106.04 62.928 106.22 63.036 106.348 63.156C106.476 63.276 106.588 63.44 106.684 63.648C106.788 63.848 106.84 64.08 106.84 64.344C106.84 64.872 106.628 65.304 106.204 65.64C105.78 65.976 105.188 66.144 104.428 66.144C103.388 66.144 102.56 65.844 101.944 65.244ZM107.772 63.096C107.772 62.248 108.048 61.532 108.6 60.948C109.16 60.356 109.864 60.06 110.712 60.06C111.568 60.06 112.256 60.356 112.776 60.948C113.304 61.54 113.568 62.296 113.568 63.216V63.516H109.092C109.14 63.972 109.328 64.352 109.656 64.656C109.984 64.96 110.412 65.112 110.94 65.112C111.236 65.112 111.532 65.056 111.828 64.944C112.132 64.832 112.384 64.676 112.584 64.476L113.16 65.304C112.576 65.864 111.792 66.144 110.808 66.144C109.928 66.144 109.2 65.864 108.624 65.304C108.056 64.736 107.772 64 107.772 63.096ZM110.712 61.092C110.216 61.092 109.828 61.248 109.548 61.56C109.268 61.864 109.112 62.22 109.08 62.628H112.344C112.328 62.228 112.18 61.872 111.9 61.56C111.628 61.248 111.232 61.092 110.712 61.092ZM123.282 66H122.022V65.208C121.542 65.832 120.922 66.144 120.162 66.144C119.402 66.144 118.782 65.872 118.302 65.328C117.822 64.784 117.582 64.044 117.582 63.108C117.582 62.18 117.822 61.44 118.302 60.888C118.782 60.336 119.402 60.06 120.162 60.06C120.922 60.06 121.542 60.376 122.022 61.008V57.996H123.282V66ZM122.022 64.26V61.956C121.878 61.732 121.666 61.548 121.386 61.404C121.106 61.252 120.818 61.176 120.522 61.176C120.026 61.176 119.63 61.356 119.334 61.716C119.038 62.076 118.89 62.54 118.89 63.108C118.89 63.676 119.038 64.14 119.334 64.5C119.63 64.852 120.026 65.028 120.522 65.028C120.818 65.028 121.106 64.956 121.386 64.812C121.666 64.668 121.878 64.484 122.022 64.26ZM129.739 66H128.479V65.376C128.031 65.888 127.407 66.144 126.607 66.144C126.079 66.144 125.611 65.976 125.203 65.64C124.795 65.296 124.591 64.824 124.591 64.224C124.591 63.608 124.791 63.14 125.191 62.82C125.599 62.5 126.071 62.34 126.607 62.34C127.431 62.34 128.055 62.588 128.479 63.084V62.22C128.479 61.884 128.355 61.62 128.107 61.428C127.859 61.236 127.531 61.14 127.123 61.14C126.475 61.14 125.903 61.384 125.407 61.872L124.891 60.996C125.547 60.372 126.359 60.06 127.327 60.06C128.039 60.06 128.619 60.228 129.067 60.564C129.515 60.9 129.739 61.432 129.739 62.16V66ZM128.479 64.68V63.804C128.191 63.404 127.731 63.204 127.099 63.204C126.739 63.204 126.443 63.3 126.211 63.492C125.979 63.684 125.863 63.936 125.863 64.248C125.863 64.56 125.979 64.812 126.211 65.004C126.443 65.188 126.739 65.28 127.099 65.28C127.731 65.28 128.191 65.08 128.479 64.68ZM133.136 66.144C132.648 66.144 132.276 66.016 132.02 65.76C131.772 65.504 131.648 65.136 131.648 64.656V61.308H130.688V60.204H131.648V58.62H132.908V60.204H134.084V61.308H132.908V64.344C132.908 64.552 132.956 64.72 133.052 64.848C133.148 64.968 133.284 65.028 133.46 65.028C133.716 65.028 133.904 64.96 134.024 64.824L134.324 65.772C134.06 66.02 133.664 66.144 133.136 66.144ZM134.892 63.096C134.892 62.248 135.168 61.532 135.72 60.948C136.28 60.356 136.984 60.06 137.832 60.06C138.688 60.06 139.376 60.356 139.896 60.948C140.424 61.54 140.688 62.296 140.688 63.216V63.516H136.212C136.26 63.972 136.448 64.352 136.776 64.656C137.104 64.96 137.532 65.112 138.06 65.112C138.356 65.112 138.652 65.056 138.948 64.944C139.252 64.832 139.504 64.676 139.704 64.476L140.28 65.304C139.696 65.864 138.912 66.144 137.928 66.144C137.048 66.144 136.32 65.864 135.744 65.304C135.176 64.736 134.892 64 134.892 63.096ZM137.832 61.092C137.336 61.092 136.948 61.248 136.668 61.56C136.388 61.864 136.232 62.22 136.2 62.628H139.464C139.448 62.228 139.3 61.872 139.02 61.56C138.748 61.248 138.352 61.092 137.832 61.092Z" fill="#346868"/>
<path d="M151.344 59.232C151.184 59.232 151.044 59.172 150.924 59.052C150.804 58.932 150.744 58.788 150.744 58.62C150.744 58.452 150.804 58.312 150.924 58.2C151.044 58.08 151.184 58.02 151.344 58.02C151.512 58.02 151.656 58.08 151.776 58.2C151.896 58.312 151.956 58.452 151.956 58.62C151.956 58.788 151.896 58.932 151.776 59.052C151.656 59.172 151.512 59.232 151.344 59.232ZM151.8 66H150.9V60.204H151.8V66ZM153.115 65.232L153.583 64.584C153.783 64.816 154.055 65.012 154.399 65.172C154.751 65.332 155.115 65.412 155.491 65.412C155.923 65.412 156.259 65.324 156.499 65.148C156.739 64.972 156.859 64.74 156.859 64.452C156.859 64.3 156.819 64.168 156.739 64.056C156.667 63.944 156.551 63.848 156.391 63.768C156.231 63.688 156.079 63.624 155.935 63.576C155.799 63.528 155.611 63.476 155.371 63.42C155.107 63.356 154.903 63.308 154.759 63.276C154.623 63.236 154.443 63.172 154.219 63.084C153.995 62.988 153.827 62.888 153.715 62.784C153.603 62.672 153.499 62.528 153.403 62.352C153.315 62.168 153.271 61.96 153.271 61.728C153.271 61.256 153.463 60.86 153.847 60.54C154.239 60.22 154.767 60.06 155.431 60.06C156.303 60.06 157.019 60.34 157.579 60.9L157.159 61.524C156.751 61.036 156.175 60.792 155.431 60.792C155.039 60.792 154.727 60.872 154.495 61.032C154.263 61.192 154.147 61.404 154.147 61.668C154.147 61.924 154.263 62.116 154.495 62.244C154.735 62.364 155.091 62.48 155.563 62.592C155.827 62.648 156.035 62.7 156.187 62.748C156.339 62.788 156.527 62.856 156.751 62.952C156.975 63.048 157.147 63.156 157.267 63.276C157.395 63.388 157.503 63.54 157.591 63.732C157.687 63.924 157.735 64.144 157.735 64.392C157.735 64.904 157.535 65.324 157.135 65.652C156.735 65.98 156.175 66.144 155.455 66.144C154.471 66.144 153.691 65.84 153.115 65.232ZM163.239 66H162.339V57.996H163.239V61.08C163.743 60.4 164.395 60.06 165.195 60.06C165.955 60.06 166.575 60.34 167.055 60.9C167.535 61.452 167.775 62.188 167.775 63.108C167.775 64.036 167.535 64.776 167.055 65.328C166.583 65.872 165.963 66.144 165.195 66.144C164.387 66.144 163.735 65.808 163.239 65.136V66ZM163.239 61.8V64.428C163.399 64.684 163.639 64.9 163.959 65.076C164.287 65.252 164.623 65.34 164.967 65.34C165.543 65.34 165.999 65.132 166.335 64.716C166.671 64.3 166.839 63.764 166.839 63.108C166.839 62.452 166.671 61.916 166.335 61.5C165.999 61.076 165.543 60.864 164.967 60.864C164.623 60.864 164.287 60.956 163.959 61.14C163.639 61.316 163.399 61.536 163.239 61.8ZM168.93 63.096C168.93 62.248 169.202 61.532 169.746 60.948C170.29 60.356 170.97 60.06 171.786 60.06C172.642 60.06 173.318 60.356 173.814 60.948C174.318 61.532 174.57 62.272 174.57 63.168V63.396H169.878C169.918 63.964 170.126 64.44 170.502 64.824C170.878 65.208 171.366 65.4 171.966 65.4C172.686 65.4 173.282 65.156 173.754 64.668L174.186 65.256C173.594 65.848 172.826 66.144 171.882 66.144C171.018 66.144 170.31 65.864 169.758 65.304C169.206 64.736 168.93 64 168.93 63.096ZM171.774 60.804C171.198 60.804 170.742 61 170.406 61.392C170.078 61.784 169.902 62.232 169.878 62.736H173.682C173.674 62.24 173.506 61.796 173.178 61.404C172.85 61.004 172.382 60.804 171.774 60.804ZM177.515 66.144C177.091 66.144 176.771 66.028 176.555 65.796C176.339 65.564 176.231 65.228 176.231 64.788V60.996H175.271V60.204H176.231V58.62H177.131V60.204H178.307V60.996H177.131V64.596C177.131 64.82 177.179 65 177.275 65.136C177.379 65.272 177.527 65.34 177.719 65.34C177.983 65.34 178.187 65.26 178.331 65.1L178.595 65.772C178.331 66.02 177.971 66.144 177.515 66.144ZM185.519 66H184.619L183.107 61.344L181.595 66H180.695L178.847 60.204H179.783L181.199 64.824L182.723 60.204H183.491L185.015 64.824L186.431 60.204H187.367L185.519 66ZM188.103 63.096C188.103 62.248 188.375 61.532 188.919 60.948C189.463 60.356 190.143 60.06 190.959 60.06C191.815 60.06 192.491 60.356 192.987 60.948C193.491 61.532 193.743 62.272 193.743 63.168V63.396H189.051C189.091 63.964 189.299 64.44 189.675 64.824C190.051 65.208 190.539 65.4 191.139 65.4C191.859 65.4 192.455 65.156 192.927 64.668L193.359 65.256C192.767 65.848 191.999 66.144 191.055 66.144C190.191 66.144 189.483 65.864 188.931 65.304C188.379 64.736 188.103 64 188.103 63.096ZM190.947 60.804C190.371 60.804 189.915 61 189.579 61.392C189.251 61.784 189.075 62.232 189.051 62.736H192.855C192.847 62.24 192.679 61.796 192.351 61.404C192.023 61.004 191.555 60.804 190.947 60.804ZM194.889 63.096C194.889 62.248 195.161 61.532 195.705 60.948C196.249 60.356 196.929 60.06 197.745 60.06C198.601 60.06 199.277 60.356 199.773 60.948C200.277 61.532 200.529 62.272 200.529 63.168V63.396H195.837C195.877 63.964 196.085 64.44 196.461 64.824C196.837 65.208 197.325 65.4 197.925 65.4C198.645 65.4 199.241 65.156 199.713 64.668L200.145 65.256C199.553 65.848 198.785 66.144 197.841 66.144C196.977 66.144 196.269 65.864 195.717 65.304C195.165 64.736 194.889 64 194.889 63.096ZM197.733 60.804C197.157 60.804 196.701 61 196.365 61.392C196.037 61.784 195.861 62.232 195.837 62.736H199.641C199.633 62.24 199.465 61.796 199.137 61.404C198.809 61.004 198.341 60.804 197.733 60.804ZM206.823 66H205.923V62.208C205.923 61.72 205.811 61.376 205.587 61.176C205.363 60.968 205.043 60.864 204.627 60.864C204.291 60.864 203.963 60.952 203.643 61.128C203.331 61.304 203.087 61.516 202.911 61.764V66H202.011V60.204H202.911V61.044C203.135 60.78 203.435 60.552 203.811 60.36C204.187 60.16 204.575 60.06 204.975 60.06C206.207 60.06 206.823 60.684 206.823 61.932V66Z" fill="#7D8393"/>
<path d="M212.504 63.948C212.504 63.46 212.672 63.036 213.008 62.676C213.352 62.316 213.784 62.048 214.304 61.872C213.808 61.712 213.404 61.476 213.092 61.164C212.788 60.852 212.636 60.456 212.636 59.976C212.636 59.624 212.72 59.308 212.888 59.028C213.064 58.748 213.292 58.528 213.572 58.368C213.86 58.208 214.172 58.088 214.508 58.008C214.852 57.92 215.208 57.876 215.576 57.876C215.944 57.876 216.296 57.92 216.632 58.008C216.968 58.088 217.28 58.208 217.568 58.368C217.856 58.528 218.084 58.748 218.252 59.028C218.428 59.308 218.516 59.624 218.516 59.976C218.516 60.88 217.956 61.512 216.836 61.872C217.356 62.048 217.784 62.316 218.12 62.676C218.464 63.036 218.636 63.46 218.636 63.948C218.636 64.636 218.34 65.176 217.748 65.568C217.164 65.952 216.44 66.144 215.576 66.144C214.712 66.144 213.984 65.952 213.392 65.568C212.8 65.176 212.504 64.636 212.504 63.948ZM217.088 60.192C217.088 59.864 216.944 59.604 216.656 59.412C216.376 59.22 216.016 59.124 215.576 59.124C215.128 59.124 214.76 59.22 214.472 59.412C214.192 59.604 214.052 59.864 214.052 60.192C214.052 60.424 214.152 60.628 214.352 60.804C214.552 60.972 214.752 61.092 214.952 61.164C215.152 61.228 215.36 61.28 215.576 61.32C215.792 61.28 216 61.228 216.2 61.164C216.4 61.092 216.596 60.972 216.788 60.804C216.988 60.628 217.088 60.424 217.088 60.192ZM217.22 63.768C217.22 63.408 217.032 63.12 216.656 62.904C216.288 62.68 215.928 62.548 215.576 62.508C215.368 62.532 215.148 62.588 214.916 62.676C214.684 62.756 214.46 62.896 214.244 63.096C214.028 63.288 213.92 63.512 213.92 63.768C213.92 64.104 214.076 64.376 214.388 64.584C214.708 64.792 215.104 64.896 215.576 64.896C216.032 64.896 216.42 64.792 216.74 64.584C217.06 64.376 217.22 64.104 217.22 63.768ZM220.097 66.24H219.161L222.005 57.756H222.941L220.097 66.24ZM223.462 62.016C223.462 60.808 223.77 59.816 224.386 59.04C225.002 58.264 225.87 57.876 226.99 57.876C227.918 57.876 228.686 58.172 229.294 58.764L228.634 59.832C228.186 59.36 227.638 59.124 226.99 59.124C226.35 59.124 225.838 59.38 225.454 59.892C225.07 60.404 224.878 61.028 224.878 61.764C224.878 61.868 224.882 61.944 224.89 61.992C225.09 61.696 225.386 61.436 225.778 61.212C226.17 60.988 226.59 60.876 227.038 60.876C227.798 60.876 228.434 61.104 228.946 61.56C229.458 62.008 229.714 62.64 229.714 63.456C229.714 64.216 229.442 64.856 228.898 65.376C228.354 65.888 227.642 66.144 226.762 66.144C226.194 66.144 225.694 66.036 225.262 65.82C224.83 65.596 224.486 65.292 224.23 64.908C223.974 64.524 223.782 64.092 223.654 63.612C223.526 63.124 223.462 62.592 223.462 62.016ZM228.298 63.504C228.298 63.04 228.142 62.688 227.83 62.448C227.518 62.2 227.126 62.076 226.654 62.076C226.318 62.076 225.994 62.164 225.682 62.34C225.37 62.508 225.11 62.736 224.902 63.024C224.95 63.536 225.118 63.976 225.406 64.344C225.694 64.712 226.122 64.896 226.69 64.896C227.186 64.896 227.578 64.756 227.866 64.476C228.154 64.188 228.298 63.864 228.298 63.504ZM231.137 66.24H230.201L233.045 57.756H233.981L231.137 66.24ZM240.406 66H234.61V64.896C236.282 63.632 237.418 62.696 238.018 62.088C238.626 61.472 238.93 60.892 238.93 60.348C238.93 59.956 238.786 59.656 238.498 59.448C238.218 59.232 237.878 59.124 237.478 59.124C236.598 59.124 235.878 59.444 235.318 60.084L234.502 59.16C234.846 58.744 235.278 58.428 235.798 58.212C236.326 57.988 236.878 57.876 237.454 57.876C238.27 57.876 238.958 58.096 239.518 58.536C240.078 58.976 240.358 59.58 240.358 60.348C240.358 61.036 240.07 61.72 239.494 62.4C238.918 63.08 238.038 63.868 236.854 64.764H240.406V66ZM241.855 63.504C241.727 63.024 241.663 62.524 241.663 62.004C241.663 61.484 241.727 60.984 241.855 60.504C241.983 60.024 242.171 59.588 242.419 59.196C242.667 58.796 243.003 58.476 243.427 58.236C243.851 57.996 244.331 57.876 244.867 57.876C245.403 57.876 245.883 57.996 246.307 58.236C246.731 58.476 247.067 58.796 247.315 59.196C247.563 59.588 247.751 60.024 247.879 60.504C248.007 60.984 248.071 61.484 248.071 62.004C248.071 62.524 248.007 63.024 247.879 63.504C247.751 63.984 247.563 64.424 247.315 64.824C247.067 65.224 246.731 65.544 246.307 65.784C245.883 66.024 245.403 66.144 244.867 66.144C244.331 66.144 243.851 66.024 243.427 65.784C243.003 65.544 242.667 65.224 242.419 64.824C242.171 64.424 241.983 63.984 241.855 63.504ZM246.643 62.004C246.643 61.468 246.587 60.992 246.475 60.576C246.371 60.16 246.179 59.816 245.899 59.544C245.627 59.264 245.283 59.124 244.867 59.124C244.451 59.124 244.103 59.264 243.823 59.544C243.551 59.816 243.359 60.16 243.247 60.576C243.143 60.992 243.091 61.468 243.091 62.004C243.091 62.844 243.235 63.536 243.523 64.08C243.811 64.624 244.259 64.896 244.867 64.896C245.475 64.896 245.923 64.624 246.211 64.08C246.499 63.536 246.643 62.844 246.643 62.004ZM254.985 66H249.189V64.896C250.861 63.632 251.997 62.696 252.597 62.088C253.205 61.472 253.509 60.892 253.509 60.348C253.509 59.956 253.365 59.656 253.077 59.448C252.797 59.232 252.457 59.124 252.057 59.124C251.177 59.124 250.457 59.444 249.897 60.084L249.081 59.16C249.425 58.744 249.857 58.428 250.377 58.212C250.905 57.988 251.457 57.876 252.033 57.876C252.849 57.876 253.537 58.096 254.097 58.536C254.657 58.976 254.937 59.58 254.937 60.348C254.937 61.036 254.649 61.72 254.073 62.4C253.497 63.08 252.617 63.868 251.433 64.764H254.985V66ZM256.038 64.848L256.794 63.924C257.05 64.22 257.378 64.456 257.778 64.632C258.178 64.808 258.59 64.896 259.014 64.896C259.534 64.896 259.942 64.788 260.238 64.572C260.534 64.348 260.682 64.048 260.682 63.672C260.682 62.92 260.09 62.544 258.906 62.544C258.37 62.544 258.062 62.548 257.982 62.556V61.296C258.078 61.304 258.386 61.308 258.906 61.308C259.402 61.308 259.798 61.22 260.094 61.044C260.398 60.868 260.55 60.604 260.55 60.252C260.55 59.892 260.398 59.616 260.094 59.424C259.79 59.224 259.402 59.124 258.93 59.124C258.146 59.124 257.458 59.42 256.866 60.012L256.146 59.136C256.858 58.296 257.83 57.876 259.062 57.876C259.934 57.876 260.634 58.072 261.162 58.464C261.69 58.848 261.954 59.372 261.954 60.036C261.954 60.532 261.778 60.944 261.426 61.272C261.082 61.592 260.678 61.792 260.214 61.872C260.67 61.912 261.094 62.104 261.486 62.448C261.878 62.792 262.074 63.248 262.074 63.816C262.074 64.504 261.798 65.064 261.246 65.496C260.702 65.928 259.974 66.144 259.062 66.144C258.382 66.144 257.778 66.024 257.25 65.784C256.73 65.544 256.326 65.232 256.038 64.848ZM269.011 63.636H266.131V62.556H269.011V63.636ZM272.632 63.636H269.752V62.556H272.632V63.636ZM276.408 64.848L277.164 63.924C277.42 64.22 277.748 64.456 278.148 64.632C278.548 64.808 278.96 64.896 279.384 64.896C279.904 64.896 280.312 64.788 280.608 64.572C280.904 64.348 281.052 64.048 281.052 63.672C281.052 62.92 280.46 62.544 279.276 62.544C278.74 62.544 278.432 62.548 278.352 62.556V61.296C278.448 61.304 278.756 61.308 279.276 61.308C279.772 61.308 280.168 61.22 280.464 61.044C280.768 60.868 280.92 60.604 280.92 60.252C280.92 59.892 280.768 59.616 280.464 59.424C280.16 59.224 279.772 59.124 279.3 59.124C278.516 59.124 277.828 59.42 277.236 60.012L276.516 59.136C277.228 58.296 278.2 57.876 279.432 57.876C280.304 57.876 281.004 58.072 281.532 58.464C282.06 58.848 282.324 59.372 282.324 60.036C282.324 60.532 282.148 60.944 281.796 61.272C281.452 61.592 281.048 61.792 280.584 61.872C281.04 61.912 281.464 62.104 281.856 62.448C282.248 62.792 282.444 63.248 282.444 63.816C282.444 64.504 282.168 65.064 281.616 65.496C281.072 65.928 280.344 66.144 279.432 66.144C278.752 66.144 278.148 66.024 277.62 65.784C277.1 65.544 276.696 65.232 276.408 64.848ZM286.743 66H285.339V59.82L284.031 61.176L283.215 60.324L285.519 57.996H286.743V66ZM288.553 66.24H287.617L290.461 57.756H291.397L288.553 66.24ZM291.93 63.948C291.93 63.46 292.098 63.036 292.434 62.676C292.778 62.316 293.21 62.048 293.73 61.872C293.234 61.712 292.83 61.476 292.518 61.164C292.214 60.852 292.062 60.456 292.062 59.976C292.062 59.624 292.146 59.308 292.314 59.028C292.49 58.748 292.718 58.528 292.998 58.368C293.286 58.208 293.598 58.088 293.934 58.008C294.278 57.92 294.634 57.876 295.002 57.876C295.37 57.876 295.722 57.92 296.058 58.008C296.394 58.088 296.706 58.208 296.994 58.368C297.282 58.528 297.51 58.748 297.678 59.028C297.854 59.308 297.942 59.624 297.942 59.976C297.942 60.88 297.382 61.512 296.262 61.872C296.782 62.048 297.21 62.316 297.546 62.676C297.89 63.036 298.062 63.46 298.062 63.948C298.062 64.636 297.766 65.176 297.174 65.568C296.59 65.952 295.866 66.144 295.002 66.144C294.138 66.144 293.41 65.952 292.818 65.568C292.226 65.176 291.93 64.636 291.93 63.948ZM296.514 60.192C296.514 59.864 296.37 59.604 296.082 59.412C295.802 59.22 295.442 59.124 295.002 59.124C294.554 59.124 294.186 59.22 293.898 59.412C293.618 59.604 293.478 59.864 293.478 60.192C293.478 60.424 293.578 60.628 293.778 60.804C293.978 60.972 294.178 61.092 294.378 61.164C294.578 61.228 294.786 61.28 295.002 61.32C295.218 61.28 295.426 61.228 295.626 61.164C295.826 61.092 296.022 60.972 296.214 60.804C296.414 60.628 296.514 60.424 296.514 60.192ZM296.646 63.768C296.646 63.408 296.458 63.12 296.082 62.904C295.714 62.68 295.354 62.548 295.002 62.508C294.794 62.532 294.574 62.588 294.342 62.676C294.11 62.756 293.886 62.896 293.67 63.096C293.454 63.288 293.346 63.512 293.346 63.768C293.346 64.104 293.502 64.376 293.814 64.584C294.134 64.792 294.53 64.896 295.002 64.896C295.458 64.896 295.846 64.792 296.166 64.584C296.486 64.376 296.646 64.104 296.646 63.768ZM299.523 66.24H298.587L301.431 57.756H302.367L299.523 66.24ZM308.792 66H302.996V64.896C304.668 63.632 305.804 62.696 306.404 62.088C307.012 61.472 307.316 60.892 307.316 60.348C307.316 59.956 307.172 59.656 306.884 59.448C306.604 59.232 306.264 59.124 305.864 59.124C304.984 59.124 304.264 59.444 303.704 60.084L302.888 59.16C303.232 58.744 303.664 58.428 304.184 58.212C304.712 57.988 305.264 57.876 305.84 57.876C306.656 57.876 307.344 58.096 307.904 58.536C308.464 58.976 308.744 59.58 308.744 60.348C308.744 61.036 308.456 61.72 307.88 62.4C307.304 63.08 306.424 63.868 305.24 64.764H308.792V66ZM310.241 63.504C310.113 63.024 310.049 62.524 310.049 62.004C310.049 61.484 310.113 60.984 310.241 60.504C310.369 60.024 310.557 59.588 310.805 59.196C311.053 58.796 311.389 58.476 311.813 58.236C312.237 57.996 312.717 57.876 313.253 57.876C313.789 57.876 314.269 57.996 314.693 58.236C315.117 58.476 315.453 58.796 315.701 59.196C315.949 59.588 316.137 60.024 316.265 60.504C316.393 60.984 316.457 61.484 316.457 62.004C316.457 62.524 316.393 63.024 316.265 63.504C316.137 63.984 315.949 64.424 315.701 64.824C315.453 65.224 315.117 65.544 314.693 65.784C314.269 66.024 313.789 66.144 313.253 66.144C312.717 66.144 312.237 66.024 311.813 65.784C311.389 65.544 311.053 65.224 310.805 64.824C310.557 64.424 310.369 63.984 310.241 63.504ZM315.029 62.004C315.029 61.468 314.973 60.992 314.861 60.576C314.757 60.16 314.565 59.816 314.285 59.544C314.013 59.264 313.669 59.124 313.253 59.124C312.837 59.124 312.489 59.264 312.209 59.544C311.937 59.816 311.745 60.16 311.633 60.576C311.529 60.992 311.477 61.468 311.477 62.004C311.477 62.844 311.621 63.536 311.909 64.08C312.197 64.624 312.645 64.896 313.253 64.896C313.861 64.896 314.309 64.624 314.597 64.08C314.885 63.536 315.029 62.844 315.029 62.004ZM323.372 66H317.576V64.896C319.248 63.632 320.384 62.696 320.984 62.088C321.592 61.472 321.896 60.892 321.896 60.348C321.896 59.956 321.752 59.656 321.464 59.448C321.184 59.232 320.844 59.124 320.444 59.124C319.564 59.124 318.844 59.444 318.284 60.084L317.468 59.16C317.812 58.744 318.244 58.428 318.764 58.212C319.292 57.988 319.844 57.876 320.42 57.876C321.236 57.876 321.924 58.096 322.484 58.536C323.044 58.976 323.324 59.58 323.324 60.348C323.324 61.036 323.036 61.72 322.46 62.4C321.884 63.08 321.004 63.868 319.82 64.764H323.372V66ZM324.424 64.848L325.18 63.924C325.436 64.22 325.764 64.456 326.164 64.632C326.564 64.808 326.976 64.896 327.4 64.896C327.92 64.896 328.328 64.788 328.624 64.572C328.92 64.348 329.068 64.048 329.068 63.672C329.068 62.92 328.476 62.544 327.292 62.544C326.756 62.544 326.448 62.548 326.368 62.556V61.296C326.464 61.304 326.772 61.308 327.292 61.308C327.788 61.308 328.184 61.22 328.48 61.044C328.784 60.868 328.936 60.604 328.936 60.252C328.936 59.892 328.784 59.616 328.48 59.424C328.176 59.224 327.788 59.124 327.316 59.124C326.532 59.124 325.844 59.42 325.252 60.012L324.532 59.136C325.244 58.296 326.216 57.876 327.448 57.876C328.32 57.876 329.02 58.072 329.548 58.464C330.076 58.848 330.34 59.372 330.34 60.036C330.34 60.532 330.164 60.944 329.812 61.272C329.468 61.592 329.064 61.792 328.6 61.872C329.056 61.912 329.48 62.104 329.872 62.448C330.264 62.792 330.46 63.248 330.46 63.816C330.46 64.504 330.184 65.064 329.632 65.496C329.088 65.928 328.36 66.144 327.448 66.144C326.768 66.144 326.164 66.024 325.636 65.784C325.116 65.544 324.712 65.232 324.424 64.848Z" fill="#346868"/>
<rect x="24.5" y="108.5" width="379" height="31" rx="2.5" fill="#F0F1F2"/>
<rect x="24.5" y="108.5" width="379" height="31" rx="2.5" stroke="#E7E8EA"/>
<path d="M167.062 123.438V118.75C167.062 118.601 167.003 118.458 166.898 118.352C166.792 118.247 166.649 118.188 166.5 118.188C166.351 118.188 166.208 118.247 166.102 118.352C165.997 118.458 165.938 118.601 165.938 118.75V123.438H161.25C161.101 123.438 160.958 123.497 160.852 123.602C160.747 123.708 160.688 123.851 160.688 124C160.688 124.149 160.747 124.292 160.852 124.398C160.958 124.503 161.101 124.562 161.25 124.562H165.938V129.25C165.939 129.399 165.999 129.541 166.104 129.646C166.209 129.751 166.351 129.811 166.5 129.812C166.649 129.812 166.792 129.753 166.898 129.648C167.003 129.542 167.062 129.399 167.062 129.25V124.562H171.75C171.899 124.562 172.042 124.503 172.148 124.398C172.253 124.292 172.312 124.149 172.312 124C172.311 123.851 172.251 123.709 172.146 123.604C172.041 123.499 171.899 123.439 171.75 123.438H167.062Z" fill="#393C42"/>
<path d="M188.894 128H187.102L186.416 126.208H181.992L181.306 128H179.514L183.182 118.662H185.226L188.894 128ZM185.954 124.766L184.204 120.048L182.454 124.766H185.954ZM196.102 128H194.632V127.076C194.072 127.804 193.349 128.168 192.462 128.168C191.575 128.168 190.852 127.851 190.292 127.216C189.732 126.581 189.452 125.718 189.452 124.626C189.452 123.543 189.732 122.68 190.292 122.036C190.852 121.392 191.575 121.07 192.462 121.07C193.349 121.07 194.072 121.439 194.632 122.176V118.662H196.102V128ZM194.632 125.97V123.282C194.464 123.021 194.217 122.806 193.89 122.638C193.563 122.461 193.227 122.372 192.882 122.372C192.303 122.372 191.841 122.582 191.496 123.002C191.151 123.422 190.978 123.963 190.978 124.626C190.978 125.289 191.151 125.83 191.496 126.25C191.841 126.661 192.303 126.866 192.882 126.866C193.227 126.866 193.563 126.782 193.89 126.614C194.217 126.446 194.464 126.231 194.632 125.97ZM204.237 128H202.767V127.076C202.207 127.804 201.483 128.168 200.597 128.168C199.71 128.168 198.987 127.851 198.427 127.216C197.867 126.581 197.587 125.718 197.587 124.626C197.587 123.543 197.867 122.68 198.427 122.036C198.987 121.392 199.71 121.07 200.597 121.07C201.483 121.07 202.207 121.439 202.767 122.176V118.662H204.237V128ZM202.767 125.97V123.282C202.599 123.021 202.351 122.806 202.025 122.638C201.698 122.461 201.362 122.372 201.017 122.372C200.438 122.372 199.976 122.582 199.631 123.002C199.285 123.422 199.113 123.963 199.113 124.626C199.113 125.289 199.285 125.83 199.631 126.25C199.976 126.661 200.438 126.866 201.017 126.866C201.362 126.866 201.698 126.782 202.025 126.614C202.351 126.446 202.599 126.231 202.767 125.97ZM214.189 128.168C212.826 128.168 211.678 127.715 210.745 126.81C209.821 125.905 209.359 124.747 209.359 123.338C209.359 121.929 209.821 120.771 210.745 119.866C211.678 118.961 212.826 118.508 214.189 118.508C215.86 118.508 217.134 119.208 218.011 120.608L216.611 121.322C216.378 120.921 216.046 120.594 215.617 120.342C215.188 120.09 214.712 119.964 214.189 119.964C213.293 119.964 212.542 120.286 211.935 120.93C211.338 121.565 211.039 122.367 211.039 123.338C211.039 124.309 211.338 125.116 211.935 125.76C212.542 126.395 213.293 126.712 214.189 126.712C214.712 126.712 215.188 126.586 215.617 126.334C216.046 126.082 216.378 125.755 216.611 125.354L218.011 126.068C217.115 127.468 215.841 128.168 214.189 128.168ZM222.332 128.168C221.287 128.168 220.447 127.827 219.812 127.146C219.177 126.455 218.86 125.611 218.86 124.612C218.86 123.613 219.177 122.773 219.812 122.092C220.447 121.411 221.287 121.07 222.332 121.07C223.387 121.07 224.231 121.411 224.866 122.092C225.501 122.773 225.818 123.613 225.818 124.612C225.818 125.62 225.501 126.465 224.866 127.146C224.231 127.827 223.387 128.168 222.332 128.168ZM222.332 126.866C222.939 126.866 223.415 126.651 223.76 126.222C224.115 125.783 224.292 125.247 224.292 124.612C224.292 123.987 224.115 123.459 223.76 123.03C223.415 122.591 222.939 122.372 222.332 122.372C221.735 122.372 221.259 122.591 220.904 123.03C220.559 123.459 220.386 123.987 220.386 124.612C220.386 125.247 220.559 125.783 220.904 126.222C221.259 126.651 221.735 126.866 222.332 126.866ZM233.34 128H231.87V123.772C231.87 122.839 231.417 122.372 230.512 122.372C230.157 122.372 229.826 122.461 229.518 122.638C229.21 122.815 228.962 123.03 228.776 123.282V128H227.306V121.238H228.776V122.162C229.028 121.863 229.364 121.607 229.784 121.392C230.204 121.177 230.661 121.07 231.156 121.07C231.874 121.07 232.416 121.257 232.78 121.63C233.153 122.003 233.34 122.54 233.34 123.24V128ZM241.479 128H240.009V127.076C239.449 127.804 238.726 128.168 237.839 128.168C236.952 128.168 236.229 127.851 235.669 127.216C235.109 126.581 234.829 125.718 234.829 124.626C234.829 123.543 235.109 122.68 235.669 122.036C236.229 121.392 236.952 121.07 237.839 121.07C238.726 121.07 239.449 121.439 240.009 122.176V118.662H241.479V128ZM240.009 125.97V123.282C239.841 123.021 239.594 122.806 239.267 122.638C238.94 122.461 238.604 122.372 238.259 122.372C237.68 122.372 237.218 122.582 236.873 123.002C236.528 123.422 236.355 123.963 236.355 124.626C236.355 125.289 236.528 125.83 236.873 126.25C237.218 126.661 237.68 126.866 238.259 126.866C238.604 126.866 238.94 126.782 239.267 126.614C239.594 126.446 239.841 126.231 240.009 125.97ZM244.112 120.118C243.869 120.118 243.654 120.029 243.468 119.852C243.29 119.675 243.202 119.46 243.202 119.208C243.202 118.956 243.29 118.741 243.468 118.564C243.654 118.387 243.869 118.298 244.112 118.298C244.364 118.298 244.578 118.387 244.756 118.564C244.933 118.741 245.022 118.956 245.022 119.208C245.022 119.46 244.933 119.675 244.756 119.852C244.578 120.029 244.364 120.118 244.112 120.118ZM244.854 128H243.384V121.238H244.854V128ZM248.791 128.168C248.221 128.168 247.787 128.019 247.489 127.72C247.199 127.421 247.055 126.992 247.055 126.432V122.526H245.935V121.238H247.055V119.39H248.525V121.238H249.897V122.526H248.525V126.068C248.525 126.311 248.581 126.507 248.693 126.656C248.805 126.796 248.963 126.866 249.169 126.866C249.467 126.866 249.687 126.787 249.827 126.628L250.177 127.734C249.869 128.023 249.407 128.168 248.791 128.168ZM251.959 120.118C251.717 120.118 251.502 120.029 251.315 119.852C251.138 119.675 251.049 119.46 251.049 119.208C251.049 118.956 251.138 118.741 251.315 118.564C251.502 118.387 251.717 118.298 251.959 118.298C252.211 118.298 252.426 118.387 252.603 118.564C252.781 118.741 252.869 118.956 252.869 119.208C252.869 119.46 252.781 119.675 252.603 119.852C252.426 120.029 252.211 120.118 251.959 120.118ZM252.701 128H251.231V121.238H252.701V128ZM257.66 128.168C256.615 128.168 255.775 127.827 255.14 127.146C254.506 126.455 254.188 125.611 254.188 124.612C254.188 123.613 254.506 122.773 255.14 122.092C255.775 121.411 256.615 121.07 257.66 121.07C258.715 121.07 259.56 121.411 260.194 122.092C260.829 122.773 261.146 123.613 261.146 124.612C261.146 125.62 260.829 126.465 260.194 127.146C259.56 127.827 258.715 128.168 257.66 128.168ZM257.66 126.866C258.267 126.866 258.743 126.651 259.088 126.222C259.443 125.783 259.62 125.247 259.62 124.612C259.62 123.987 259.443 123.459 259.088 123.03C258.743 122.591 258.267 122.372 257.66 122.372C257.063 122.372 256.587 122.591 256.232 123.03C255.887 123.459 255.714 123.987 255.714 124.612C255.714 125.247 255.887 125.783 256.232 126.222C256.587 126.651 257.063 126.866 257.66 126.866ZM268.668 128H267.198V123.772C267.198 122.839 266.745 122.372 265.84 122.372C265.485 122.372 265.154 122.461 264.846 122.638C264.538 122.815 264.29 123.03 264.104 123.282V128H262.634V121.238H264.104V122.162C264.356 121.863 264.692 121.607 265.112 121.392C265.532 121.177 265.989 121.07 266.484 121.07C267.202 121.07 267.744 121.257 268.108 121.63C268.481 122.003 268.668 122.54 268.668 123.24V128Z" fill="#20232A"/>
<mask id="path-14-inside-1_367_5083" fill="white">
<path d="M4 666H424V722H4V666Z"/>
</mask>
<path d="M4 666V667H424V666V665H4V666Z" fill="#CCCED4" mask="url(#path-14-inside-1_367_5083)"/>
<path d="M63.2043 698H61.3143L59.2423 694.514H57.6183V698H55.9803V688.662H60.0823C60.997 688.662 61.7343 688.933 62.2943 689.474C62.8543 690.015 63.1343 690.72 63.1343 691.588C63.1343 692.372 62.9197 693.002 62.4903 693.478C62.061 693.945 61.5383 694.229 60.9223 694.332L63.2043 698ZM61.0063 692.666C61.305 692.395 61.4543 692.036 61.4543 691.588C61.4543 691.14 61.305 690.781 61.0063 690.51C60.7077 690.239 60.325 690.104 59.8583 690.104H57.6183V693.072H59.8583C60.325 693.072 60.7077 692.937 61.0063 692.666ZM63.8855 694.612C63.8855 693.623 64.2075 692.787 64.8515 692.106C65.5048 691.415 66.3262 691.07 67.3155 691.07C68.3142 691.07 69.1168 691.415 69.7235 692.106C70.3395 692.797 70.6475 693.679 70.6475 694.752V695.102H65.4255C65.4815 695.634 65.7008 696.077 66.0835 696.432C66.4662 696.787 66.9655 696.964 67.5815 696.964C67.9268 696.964 68.2722 696.899 68.6175 696.768C68.9722 696.637 69.2662 696.455 69.4995 696.222L70.1715 697.188C69.4902 697.841 68.5755 698.168 67.4275 698.168C66.4008 698.168 65.5515 697.841 64.8795 697.188C64.2168 696.525 63.8855 695.667 63.8855 694.612ZM67.3155 692.274C66.7368 692.274 66.2842 692.456 65.9575 692.82C65.6308 693.175 65.4488 693.59 65.4115 694.066H69.2195C69.2008 693.599 69.0282 693.184 68.7015 692.82C68.3842 692.456 67.9222 692.274 67.3155 692.274ZM71.5105 697.118L72.1825 696.054C72.4345 696.315 72.7752 696.539 73.2045 696.726C73.6338 696.913 74.0585 697.006 74.4785 697.006C74.9078 697.006 75.2345 696.936 75.4585 696.796C75.6918 696.647 75.8085 696.441 75.8085 696.18C75.8085 695.909 75.6778 695.709 75.4165 695.578C75.1552 695.438 74.7725 695.312 74.2685 695.2C73.9605 695.135 73.7178 695.079 73.5405 695.032C73.3725 694.985 73.1532 694.911 72.8825 694.808C72.6118 694.696 72.4065 694.575 72.2665 694.444C72.1265 694.304 72.0005 694.122 71.8885 693.898C71.7765 693.674 71.7205 693.417 71.7205 693.128C71.7205 692.549 71.9585 692.064 72.4345 691.672C72.9105 691.271 73.5592 691.07 74.3805 691.07C75.4165 691.07 76.2938 691.387 77.0125 692.022L76.3965 693.058C76.1818 692.815 75.8972 692.619 75.5425 692.47C75.1878 692.321 74.8052 692.246 74.3945 692.246C74.0025 692.246 73.6945 692.316 73.4705 692.456C73.2465 692.587 73.1345 692.769 73.1345 693.002C73.1345 693.235 73.2558 693.413 73.4985 693.534C73.7412 693.655 74.1098 693.772 74.6045 693.884C74.9125 693.949 75.1552 694.005 75.3325 694.052C75.5192 694.099 75.7478 694.183 76.0185 694.304C76.2892 694.416 76.4992 694.542 76.6485 694.682C76.7978 694.822 76.9285 695.013 77.0405 695.256C77.1618 695.489 77.2225 695.76 77.2225 696.068C77.2225 696.684 76.9752 697.188 76.4805 697.58C75.9858 697.972 75.2952 698.168 74.4085 698.168C73.1952 698.168 72.2292 697.818 71.5105 697.118ZM78.282 694.612C78.282 693.623 78.604 692.787 79.248 692.106C79.9013 691.415 80.7227 691.07 81.712 691.07C82.7107 691.07 83.5133 691.415 84.12 692.106C84.736 692.797 85.044 693.679 85.044 694.752V695.102H79.822C79.878 695.634 80.0973 696.077 80.48 696.432C80.8627 696.787 81.362 696.964 81.978 696.964C82.3233 696.964 82.6687 696.899 83.014 696.768C83.3687 696.637 83.6627 696.455 83.896 696.222L84.568 697.188C83.8867 697.841 82.972 698.168 81.824 698.168C80.7973 698.168 79.948 697.841 79.276 697.188C78.6133 696.525 78.282 695.667 78.282 694.612ZM81.712 692.274C81.1333 692.274 80.6807 692.456 80.354 692.82C80.0273 693.175 79.8453 693.59 79.808 694.066H83.616C83.5973 693.599 83.4247 693.184 83.098 692.82C82.7807 692.456 82.3187 692.274 81.712 692.274ZM88.525 698.168C87.9556 698.168 87.5216 698.019 87.223 697.72C86.9336 697.421 86.789 696.992 86.789 696.432V692.526H85.669V691.238H86.789V689.39H88.259V691.238H89.631V692.526H88.259V696.068C88.259 696.311 88.315 696.507 88.427 696.656C88.539 696.796 88.6976 696.866 88.903 696.866C89.2016 696.866 89.421 696.787 89.561 696.628L89.911 697.734C89.603 698.023 89.141 698.168 88.525 698.168Z" fill="#7D8393"/>
<path d="M141 681C141 679.343 142.343 678 144 678H243C244.657 678 246 679.343 246 681V707C246 708.657 244.657 710 243 710H144C142.343 710 141 708.657 141 707V681Z" fill="#F0F1F2"/>
<path d="M177.343 698.168C175.981 698.168 174.833 697.715 173.899 696.81C172.975 695.905 172.513 694.747 172.513 693.338C172.513 691.929 172.975 690.771 173.899 689.866C174.833 688.961 175.981 688.508 177.343 688.508C179.014 688.508 180.288 689.208 181.165 690.608L179.765 691.322C179.532 690.921 179.201 690.594 178.771 690.342C178.342 690.09 177.866 689.964 177.343 689.964C176.447 689.964 175.696 690.286 175.089 690.93C174.492 691.565 174.193 692.367 174.193 693.338C174.193 694.309 174.492 695.116 175.089 695.76C175.696 696.395 176.447 696.712 177.343 696.712C177.866 696.712 178.342 696.586 178.771 696.334C179.201 696.082 179.532 695.755 179.765 695.354L181.165 696.068C180.269 697.468 178.995 698.168 177.343 698.168ZM188.034 698H186.564V697.272C186.042 697.869 185.314 698.168 184.38 698.168C183.764 698.168 183.218 697.972 182.742 697.58C182.266 697.179 182.028 696.628 182.028 695.928C182.028 695.209 182.262 694.663 182.728 694.29C183.204 693.917 183.755 693.73 184.38 693.73C185.342 693.73 186.07 694.019 186.564 694.598V693.59C186.564 693.198 186.42 692.89 186.13 692.666C185.841 692.442 185.458 692.33 184.982 692.33C184.226 692.33 183.559 692.615 182.98 693.184L182.378 692.162C183.144 691.434 184.091 691.07 185.22 691.07C186.051 691.07 186.728 691.266 187.25 691.658C187.773 692.05 188.034 692.671 188.034 693.52V698ZM186.564 696.46V695.438C186.228 694.971 185.692 694.738 184.954 694.738C184.534 694.738 184.189 694.85 183.918 695.074C183.648 695.298 183.512 695.592 183.512 695.956C183.512 696.32 183.648 696.614 183.918 696.838C184.189 697.053 184.534 697.16 184.954 697.16C185.692 697.16 186.228 696.927 186.564 696.46ZM195.974 698H194.504V693.772C194.504 692.839 194.052 692.372 193.146 692.372C192.792 692.372 192.46 692.461 192.152 692.638C191.844 692.815 191.597 693.03 191.41 693.282V698H189.94V691.238H191.41V692.162C191.662 691.863 191.998 691.607 192.418 691.392C192.838 691.177 193.296 691.07 193.79 691.07C194.509 691.07 195.05 691.257 195.414 691.63C195.788 692.003 195.974 692.54 195.974 693.24V698ZM197.464 694.612C197.464 693.585 197.79 692.741 198.444 692.078C199.097 691.406 199.937 691.07 200.964 691.07C202.093 691.07 202.956 691.471 203.554 692.274L202.588 693.17C202.214 692.638 201.696 692.372 201.034 692.372C200.418 692.372 199.923 692.582 199.55 693.002C199.176 693.413 198.99 693.949 198.99 694.612C198.99 695.275 199.176 695.816 199.55 696.236C199.923 696.656 200.418 696.866 201.034 696.866C201.678 696.866 202.196 696.6 202.588 696.068L203.554 696.964C202.956 697.767 202.093 698.168 200.964 698.168C199.937 698.168 199.097 697.837 198.444 697.174C197.79 696.502 197.464 695.648 197.464 694.612ZM204.423 694.612C204.423 693.623 204.745 692.787 205.389 692.106C206.042 691.415 206.863 691.07 207.853 691.07C208.851 691.07 209.654 691.415 210.261 692.106C210.877 692.797 211.185 693.679 211.185 694.752V695.102H205.963C206.019 695.634 206.238 696.077 206.621 696.432C207.003 696.787 207.503 696.964 208.119 696.964C208.464 696.964 208.809 696.899 209.155 696.768C209.509 696.637 209.803 696.455 210.037 696.222L210.709 697.188C210.027 697.841 209.113 698.168 207.965 698.168C206.938 698.168 206.089 697.841 205.417 697.188C204.754 696.525 204.423 695.667 204.423 694.612ZM207.853 692.274C207.274 692.274 206.821 692.456 206.495 692.82C206.168 693.175 205.986 693.59 205.949 694.066H209.757C209.738 693.599 209.565 693.184 209.239 692.82C208.921 692.456 208.459 692.274 207.853 692.274ZM214.106 698H212.636V688.662H214.106V698Z" fill="#5C6069"/>
<path d="M262 681C262 679.343 263.343 678 265 678H347V710H265C263.343 710 262 708.657 262 707V681Z" fill="#5C6069"/>
<path d="M295.394 698H293.602L292.916 696.208H288.492L287.806 698H286.014L289.682 688.662H291.726L295.394 698ZM292.454 694.766L290.704 690.048L288.954 694.766H292.454ZM297.842 697.062V700.576H296.372V691.238H297.842V692.162C298.383 691.434 299.107 691.07 300.012 691.07C300.899 691.07 301.617 691.387 302.168 692.022C302.728 692.657 303.008 693.52 303.008 694.612C303.008 695.704 302.728 696.572 302.168 697.216C301.617 697.851 300.899 698.168 300.012 698.168C299.116 698.168 298.393 697.799 297.842 697.062ZM300.964 696.236C301.309 695.816 301.482 695.275 301.482 694.612C301.482 693.949 301.309 693.413 300.964 693.002C300.619 692.582 300.157 692.372 299.578 692.372C299.242 692.372 298.911 692.461 298.584 692.638C298.257 692.815 298.01 693.03 297.842 693.282V695.956C298.01 696.208 298.257 696.423 298.584 696.6C298.911 696.777 299.242 696.866 299.578 696.866C300.157 696.866 300.619 696.656 300.964 696.236ZM305.963 697.062V700.576H304.493V691.238H305.963V692.162C306.504 691.434 307.228 691.07 308.133 691.07C309.02 691.07 309.738 691.387 310.289 692.022C310.849 692.657 311.129 693.52 311.129 694.612C311.129 695.704 310.849 696.572 310.289 697.216C309.738 697.851 309.02 698.168 308.133 698.168C307.237 698.168 306.514 697.799 305.963 697.062ZM309.085 696.236C309.43 695.816 309.603 695.275 309.603 694.612C309.603 693.949 309.43 693.413 309.085 693.002C308.74 692.582 308.278 692.372 307.699 692.372C307.363 692.372 307.032 692.461 306.705 692.638C306.378 692.815 306.131 693.03 305.963 693.282V695.956C306.131 696.208 306.378 696.423 306.705 696.6C307.032 696.777 307.363 696.866 307.699 696.866C308.278 696.866 308.74 696.656 309.085 696.236ZM314.084 698H312.614V688.662H314.084V698ZM315.697 700.646L315.921 699.33C316.089 699.405 316.276 699.442 316.481 699.442C316.957 699.442 317.279 699.246 317.447 698.854L317.783 698.084L315.011 691.238H316.579L318.553 696.306L320.527 691.238H322.109L318.847 699.218C318.446 700.217 317.671 700.725 316.523 700.744C316.215 700.744 315.94 700.711 315.697 700.646Z" fill="#F0F1F2"/>
<path d="M348 678H385C386.657 678 388 679.343 388 681V707C388 708.657 386.657 710 385 710H348V678Z" fill="#5C6069"/>
<path d="M363 691.5L368 696.5L373 691.5" stroke="white" stroke-width="2" stroke-linecap="round" stroke-linejoin="round"/>
</g>
<defs>
<filter id="filter0_dd_367_5083" x="-6" y="-10" width="440" height="742" filterUnits="userSpaceOnUse" color-interpolation-filters="sRGB">
<feFlood flood-opacity="0" result="BackgroundImageFix"/>
<feColorMatrix in="SourceAlpha" type="matrix" values="0 0 0 0 0 0 0 0 0 0 0 0 0 0 0 0 0 0 127 0" result="hardAlpha"/>
<feMorphology radius="2" operator="erode" in="SourceAlpha" result="effect1_dropShadow_367_5083"/>
<feOffset dy="2"/>
<feGaussianBlur stdDeviation="2"/>
<feColorMatrix type="matrix" values="0 0 0 0 0 0 0 0 0 0 0 0 0 0 0 0 0 0 0.07 0"/>
<feBlend mode="normal" in2="BackgroundImageFix" result="effect1_dropShadow_367_5083"/>
<feColorMatrix in="SourceAlpha" type="matrix" values="0 0 0 0 0 0 0 0 0 0 0 0 0 0 0 0 0 0 127 0" result="hardAlpha"/>
<feOffset dy="4"/>
<feGaussianBlur stdDeviation="2"/>
<feComposite in2="hardAlpha" operator="out"/>
<feColorMatrix type="matrix" values="0 0 0 0 0 0 0 0 0 0 0 0 0 0 0 0 0 0 0.15 0"/>
<feBlend mode="normal" in2="effect1_dropShadow_367_5083" result="effect2_dropShadow_367_5083"/>
<feBlend mode="normal" in="SourceGraphic" in2="effect2_dropShadow_367_5083" result="shape"/>
</filter>
</defs>
</svg>
