<svg width="428" height="730" viewBox="0 0 428 730" fill="none" xmlns="http://www.w3.org/2000/svg">
<g filter="url(#filter0_dd_367_4863)">
<rect width="420" height="722" transform="translate(4)" fill="white" fill-opacity="0.95"/>
<path d="M31.092 26.216C29.388 26.216 27.954 25.634 26.79 24.47C25.626 23.306 25.044 21.818 25.044 20.006C25.044 18.194 25.626 16.706 26.79 15.542C27.954 14.378 29.388 13.796 31.092 13.796C32.892 13.796 34.362 14.504 35.502 15.92L34.638 16.478C34.254 15.95 33.744 15.53 33.108 15.218C32.484 14.894 31.812 14.732 31.092 14.732C29.676 14.732 28.494 15.224 27.546 16.208C26.598 17.192 26.124 18.458 26.124 20.006C26.124 21.542 26.598 22.808 27.546 23.804C28.506 24.788 29.688 25.28 31.092 25.28C31.812 25.28 32.484 25.124 33.108 24.812C33.744 24.488 34.254 24.062 34.638 23.534L35.502 24.074C34.35 25.502 32.88 26.216 31.092 26.216ZM38.4878 26H37.5518V17.306H38.4878V18.8C39.3398 17.684 40.3178 17.126 41.4218 17.126V18.152C41.3138 18.128 41.1578 18.116 40.9538 18.116C40.5218 18.116 40.0538 18.278 39.5498 18.602C39.0458 18.926 38.6918 19.28 38.4878 19.664V26ZM42.7606 21.644C42.7606 20.372 43.1566 19.298 43.9486 18.422C44.7526 17.534 45.7546 17.09 46.9546 17.09C48.2266 17.09 49.2286 17.534 49.9606 18.422C50.6926 19.298 51.0586 20.39 51.0586 21.698V21.95H43.7866C43.8346 22.934 44.1646 23.756 44.7766 24.416C45.3886 25.076 46.1926 25.406 47.1886 25.406C48.3406 25.406 49.2886 25.004 50.0326 24.2L50.5186 24.812C49.6186 25.748 48.4846 26.216 47.1166 26.216C45.8446 26.216 44.8006 25.79 43.9846 24.938C43.1686 24.086 42.7606 22.988 42.7606 21.644ZM46.9366 17.9C45.9886 17.9 45.2326 18.242 44.6686 18.926C44.1166 19.598 43.8226 20.36 43.7866 21.212H50.1046C50.0926 20.372 49.8106 19.61 49.2586 18.926C48.7186 18.242 47.9446 17.9 46.9366 17.9ZM59.9395 26H59.0035V24.974C58.2475 25.802 57.2635 26.216 56.0515 26.216C55.2475 26.216 54.5395 25.958 53.9275 25.442C53.3155 24.914 53.0095 24.206 53.0095 23.318C53.0095 22.418 53.3095 21.716 53.9095 21.212C54.5215 20.696 55.2355 20.438 56.0515 20.438C57.2755 20.438 58.2595 20.852 59.0035 21.68V19.916C59.0035 19.292 58.7815 18.806 58.3375 18.458C57.8935 18.098 57.3355 17.918 56.6635 17.918C55.5955 17.918 54.6895 18.344 53.9455 19.196L53.4235 18.548C54.3235 17.576 55.4395 17.09 56.7715 17.09C57.7075 17.09 58.4695 17.324 59.0575 17.792C59.6455 18.26 59.9395 18.956 59.9395 19.88V26ZM59.0035 24.29V22.382C58.3795 21.578 57.5035 21.176 56.3755 21.176C55.6675 21.176 55.0915 21.38 54.6475 21.788C54.2155 22.196 53.9995 22.712 53.9995 23.336C53.9995 23.96 54.2155 24.476 54.6475 24.884C55.0915 25.28 55.6675 25.478 56.3755 25.478C57.5155 25.478 58.3915 25.082 59.0035 24.29ZM64.7543 26.216C63.6143 26.216 63.0443 25.586 63.0443 24.326V18.134H61.6043V17.306H63.0443V14.93H63.9983V17.306H65.7623V18.134H63.9983V24.182C63.9983 24.974 64.2983 25.37 64.8983 25.37C65.2943 25.37 65.6183 25.232 65.8703 24.956L66.2303 25.676C65.8463 26.036 65.3543 26.216 64.7543 26.216ZM67.3173 21.644C67.3173 20.372 67.7133 19.298 68.5053 18.422C69.3093 17.534 70.3113 17.09 71.5113 17.09C72.7833 17.09 73.7853 17.534 74.5173 18.422C75.2493 19.298 75.6153 20.39 75.6153 21.698V21.95H68.3433C68.3913 22.934 68.7213 23.756 69.3333 24.416C69.9453 25.076 70.7493 25.406 71.7453 25.406C72.8973 25.406 73.8453 25.004 74.5893 24.2L75.0753 24.812C74.1753 25.748 73.0413 26.216 71.6733 26.216C70.4013 26.216 69.3573 25.79 68.5413 24.938C67.7253 24.086 67.3173 22.988 67.3173 21.644ZM71.4933 17.9C70.5453 17.9 69.7893 18.242 69.2253 18.926C68.6733 19.598 68.3793 20.36 68.3433 21.212H74.6613C74.6493 20.372 74.3673 19.61 73.8153 18.926C73.2753 18.242 72.5013 17.9 71.4933 17.9ZM83.7544 26H82.7284V13.994H90.3424V14.93H83.7544V19.376H90.2164V20.312H83.7544V26ZM92.9162 15.83C92.7242 15.83 92.5562 15.758 92.4122 15.614C92.2682 15.47 92.1962 15.302 92.1962 15.11C92.1962 14.918 92.2682 14.75 92.4122 14.606C92.5562 14.462 92.7242 14.39 92.9162 14.39C93.1202 14.39 93.2882 14.462 93.4202 14.606C93.5642 14.738 93.6362 14.906 93.6362 15.11C93.6362 15.314 93.5642 15.488 93.4202 15.632C93.2882 15.764 93.1202 15.83 92.9162 15.83ZM93.3842 26H92.4482V17.306H93.3842V26ZM97.2338 26H96.2978V13.994H97.2338V26ZM102.037 26.216C100.897 26.216 100.327 25.586 100.327 24.326V18.134H98.8875V17.306H100.327V14.93H101.281V17.306H103.045V18.134H101.281V24.182C101.281 24.974 101.581 25.37 102.181 25.37C102.577 25.37 102.901 25.232 103.153 24.956L103.513 25.676C103.129 26.036 102.637 26.216 102.037 26.216ZM104.6 21.644C104.6 20.372 104.996 19.298 105.788 18.422C106.592 17.534 107.594 17.09 108.794 17.09C110.066 17.09 111.068 17.534 111.8 18.422C112.532 19.298 112.898 20.39 112.898 21.698V21.95H105.626C105.674 22.934 106.004 23.756 106.616 24.416C107.228 25.076 108.032 25.406 109.028 25.406C110.18 25.406 111.128 25.004 111.872 24.2L112.358 24.812C111.458 25.748 110.324 26.216 108.956 26.216C107.684 26.216 106.64 25.79 105.824 24.938C105.008 24.086 104.6 22.988 104.6 21.644ZM108.776 17.9C107.828 17.9 107.072 18.242 106.508 18.926C105.956 19.598 105.662 20.36 105.626 21.212H111.944C111.932 20.372 111.65 19.61 111.098 18.926C110.558 18.242 109.784 17.9 108.776 17.9ZM116.253 26H115.317V17.306H116.253V18.8C117.105 17.684 118.083 17.126 119.187 17.126V18.152C119.079 18.128 118.923 18.116 118.719 18.116C118.287 18.116 117.819 18.278 117.315 18.602C116.811 18.926 116.457 19.28 116.253 19.664V26Z" fill="black"/>
<mask id="mask0_367_4863" style="mask-type:alpha" maskUnits="userSpaceOnUse" x="388" y="12" width="16" height="16">
<rect x="388" y="12" width="16" height="16" fill="#D9D9D9"/>
</mask>
<g mask="url(#mask0_367_4863)">
<path d="M396 20.6999L392.5 24.1999C392.4 24.2999 392.283 24.3499 392.15 24.3499C392.017 24.3499 391.9 24.2999 391.8 24.1999C391.7 24.0999 391.65 23.9832 391.65 23.8499C391.65 23.7166 391.7 23.5999 391.8 23.4999L395.3 19.9999L391.8 16.4999C391.7 16.3999 391.65 16.2832 391.65 16.1499C391.65 16.0166 391.7 15.8999 391.8 15.7999C391.9 15.6999 392.017 15.6499 392.15 15.6499C392.283 15.6499 392.4 15.6999 392.5 15.7999L396 19.2999L399.5 15.7999C399.6 15.6999 399.717 15.6499 399.85 15.6499C399.983 15.6499 400.1 15.6999 400.2 15.7999C400.3 15.8999 400.35 16.0166 400.35 16.1499C400.35 16.2832 400.3 16.3999 400.2 16.4999L396.7 19.9999L400.2 23.4999C400.3 23.5999 400.35 23.7166 400.35 23.8499C400.35 23.9832 400.3 24.0999 400.2 24.1999C400.1 24.2999 399.983 24.3499 399.85 24.3499C399.717 24.3499 399.6 24.2999 399.5 24.1999L396 20.6999Z" fill="#20232A"/>
</g>
<rect x="20.5" y="48.5" width="383" height="43" rx="5.5" stroke="#C5E1DF"/>
<path d="M44.1445 71.1606C44.0661 71.4246 44.0002 71.6964 43.9482 71.9751L43.9473 71.9839C43.8742 72.4224 43.8502 72.8801 43.874 73.355C43.8981 73.8347 43.9754 74.3009 44.1064 74.7524C44.1749 74.9956 44.2617 75.227 44.3652 75.4468H38.667C38.5988 75.4468 38.5701 75.4289 38.5439 75.4028C38.5178 75.3767 38.5 75.3481 38.5 75.2798V73.9468C38.5 73.5779 38.5921 73.251 38.7734 72.9546C38.9501 72.6659 39.2011 72.44 39.5449 72.2788C40.3849 71.8913 41.2031 71.6016 41.999 71.4058C42.7123 71.2303 43.4321 71.1332 44.1582 71.1157C44.1536 71.1307 44.149 71.1456 44.1445 71.1606ZM44.4004 63.8999C45.1577 63.9 45.7588 64.145 46.2402 64.6265C46.7217 65.1079 46.9667 65.709 46.9668 66.4663C46.9668 67.2236 46.7216 67.8247 46.2402 68.3062C45.7588 68.7876 45.1577 69.0336 44.4004 69.0337C43.6429 69.0337 43.0421 68.7877 42.5605 68.3062C42.079 67.8246 41.833 67.2238 41.833 66.4663C41.8331 65.7089 42.0791 65.1079 42.5605 64.6265C43.042 64.1451 43.6431 63.8999 44.4004 63.8999Z" stroke="#3E7880"/>
<path d="M50 68.6128C51.1034 68.6128 52.0436 69.0012 52.8213 69.7788C53.5989 70.5565 53.9873 71.4967 53.9873 72.6001C53.9873 73.7035 53.5989 74.6437 52.8213 75.4214C52.0436 76.199 51.1034 76.5874 50 76.5874C48.8966 76.5874 47.9564 76.199 47.1787 75.4214C46.4011 74.6437 46.0127 73.7035 46.0127 72.6001C46.0127 71.4967 46.4011 70.5565 47.1787 69.7788C47.9564 69.0012 48.8966 68.6128 50 68.6128ZM49.5879 72.7603H49.582L49.5908 72.769L51.3115 74.4888L51.3203 74.4976L51.8975 73.9204L51.8887 73.9116L50.4121 72.4341V70.188H49.5879V72.7603Z" fill="#3E7880" stroke="#3E7880" stroke-width="0.025"/>
<path d="M62.256 74H60.852V65.996H64.368C65.176 65.996 65.812 66.236 66.276 66.716C66.748 67.196 66.984 67.792 66.984 68.504C66.984 69.208 66.748 69.804 66.276 70.292C65.812 70.772 65.176 71.012 64.368 71.012H62.256V74ZM65.16 69.428C65.416 69.196 65.544 68.888 65.544 68.504C65.544 68.12 65.416 67.812 65.16 67.58C64.904 67.348 64.576 67.232 64.176 67.232H62.256V69.776H64.176C64.576 69.776 64.904 69.66 65.16 69.428ZM73.3128 74H72.0528V73.232C71.5088 73.84 70.8248 74.144 70.0008 74.144C68.7608 74.144 68.1408 73.532 68.1408 72.308V68.204H69.4008V71.852C69.4008 72.276 69.5008 72.58 69.7008 72.764C69.9008 72.94 70.1888 73.028 70.5648 73.028C70.8688 73.028 71.1528 72.956 71.4168 72.812C71.6808 72.668 71.8928 72.488 72.0528 72.272V68.204H73.3128V74ZM76.2334 74H74.9734V68.204H76.2334V69.056C76.4574 68.768 76.7374 68.532 77.0734 68.348C77.4094 68.164 77.7574 68.072 78.1174 68.072V69.32C78.0054 69.296 77.8734 69.284 77.7214 69.284C77.4574 69.284 77.1734 69.364 76.8694 69.524C76.5734 69.676 76.3614 69.852 76.2334 70.052V74ZM78.7975 71.096C78.7975 70.216 79.0775 69.492 79.6375 68.924C80.1975 68.348 80.9175 68.06 81.7975 68.06C82.7655 68.06 83.5055 68.404 84.0175 69.092L83.1895 69.86C82.8695 69.404 82.4255 69.176 81.8575 69.176C81.3295 69.176 80.9055 69.356 80.5855 69.716C80.2655 70.068 80.1055 70.528 80.1055 71.096C80.1055 71.664 80.2655 72.128 80.5855 72.488C80.9055 72.848 81.3295 73.028 81.8575 73.028C82.4095 73.028 82.8535 72.8 83.1895 72.344L84.0175 73.112C83.5055 73.8 82.7655 74.144 81.7975 74.144C80.9175 74.144 80.1975 73.86 79.6375 73.292C79.0775 72.716 78.7975 71.984 78.7975 71.096ZM90.3304 74H89.0704V70.352C89.0704 69.928 88.9664 69.628 88.7584 69.452C88.5584 69.268 88.2704 69.176 87.8944 69.176C87.5984 69.176 87.3184 69.252 87.0544 69.404C86.7904 69.556 86.5744 69.74 86.4064 69.956V74H85.1464V65.996H86.4064V68.996C86.6224 68.74 86.9104 68.52 87.2704 68.336C87.6384 68.152 88.0344 68.06 88.4584 68.06C89.7064 68.06 90.3304 68.672 90.3304 69.896V74ZM96.7907 74H95.5307V73.376C95.0827 73.888 94.4587 74.144 93.6587 74.144C93.1307 74.144 92.6627 73.976 92.2547 73.64C91.8467 73.296 91.6427 72.824 91.6427 72.224C91.6427 71.608 91.8427 71.14 92.2427 70.82C92.6507 70.5 93.1227 70.34 93.6587 70.34C94.4827 70.34 95.1067 70.588 95.5307 71.084V70.22C95.5307 69.884 95.4067 69.62 95.1587 69.428C94.9107 69.236 94.5827 69.14 94.1747 69.14C93.5267 69.14 92.9547 69.384 92.4587 69.872L91.9427 68.996C92.5987 68.372 93.4107 68.06 94.3787 68.06C95.0907 68.06 95.6707 68.228 96.1187 68.564C96.5667 68.9 96.7907 69.432 96.7907 70.16V74ZM95.5307 72.68V71.804C95.2427 71.404 94.7827 71.204 94.1507 71.204C93.7907 71.204 93.4947 71.3 93.2627 71.492C93.0307 71.684 92.9147 71.936 92.9147 72.248C92.9147 72.56 93.0307 72.812 93.2627 73.004C93.4947 73.188 93.7907 73.28 94.1507 73.28C94.7827 73.28 95.2427 73.08 95.5307 72.68ZM97.9443 73.244L98.5203 72.332C98.7363 72.556 99.0283 72.748 99.3963 72.908C99.7643 73.068 100.128 73.148 100.488 73.148C100.856 73.148 101.136 73.088 101.328 72.968C101.528 72.84 101.628 72.664 101.628 72.44C101.628 72.208 101.516 72.036 101.292 71.924C101.068 71.804 100.74 71.696 100.308 71.6C100.044 71.544 99.8363 71.496 99.6843 71.456C99.5403 71.416 99.3523 71.352 99.1203 71.264C98.8883 71.168 98.7123 71.064 98.5923 70.952C98.4723 70.832 98.3643 70.676 98.2683 70.484C98.1723 70.292 98.1243 70.072 98.1243 69.824C98.1243 69.328 98.3283 68.912 98.7363 68.576C99.1443 68.232 99.7003 68.06 100.404 68.06C101.292 68.06 102.044 68.332 102.66 68.876L102.132 69.764C101.948 69.556 101.704 69.388 101.4 69.26C101.096 69.132 100.768 69.068 100.416 69.068C100.08 69.068 99.8163 69.128 99.6243 69.248C99.4323 69.36 99.3363 69.516 99.3363 69.716C99.3363 69.916 99.4403 70.068 99.6483 70.172C99.8563 70.276 100.172 70.376 100.596 70.472C100.86 70.528 101.068 70.576 101.22 70.616C101.38 70.656 101.576 70.728 101.808 70.832C102.04 70.928 102.22 71.036 102.348 71.156C102.476 71.276 102.588 71.44 102.684 71.648C102.788 71.848 102.84 72.08 102.84 72.344C102.84 72.872 102.628 73.304 102.204 73.64C101.78 73.976 101.188 74.144 100.428 74.144C99.3883 74.144 98.5603 73.844 97.9443 73.244ZM103.772 71.096C103.772 70.248 104.048 69.532 104.6 68.948C105.16 68.356 105.864 68.06 106.712 68.06C107.568 68.06 108.256 68.356 108.776 68.948C109.304 69.54 109.568 70.296 109.568 71.216V71.516H105.092C105.14 71.972 105.328 72.352 105.656 72.656C105.984 72.96 106.412 73.112 106.94 73.112C107.236 73.112 107.532 73.056 107.828 72.944C108.132 72.832 108.384 72.676 108.584 72.476L109.16 73.304C108.576 73.864 107.792 74.144 106.808 74.144C105.928 74.144 105.2 73.864 104.624 73.304C104.056 72.736 103.772 72 103.772 71.096ZM106.712 69.092C106.216 69.092 105.828 69.248 105.548 69.56C105.268 69.864 105.112 70.22 105.08 70.628H108.344C108.328 70.228 108.18 69.872 107.9 69.56C107.628 69.248 107.232 69.092 106.712 69.092ZM119.282 74H118.022V73.208C117.542 73.832 116.922 74.144 116.162 74.144C115.402 74.144 114.782 73.872 114.302 73.328C113.822 72.784 113.582 72.044 113.582 71.108C113.582 70.18 113.822 69.44 114.302 68.888C114.782 68.336 115.402 68.06 116.162 68.06C116.922 68.06 117.542 68.376 118.022 69.008V65.996H119.282V74ZM118.022 72.26V69.956C117.878 69.732 117.666 69.548 117.386 69.404C117.106 69.252 116.818 69.176 116.522 69.176C116.026 69.176 115.63 69.356 115.334 69.716C115.038 70.076 114.89 70.54 114.89 71.108C114.89 71.676 115.038 72.14 115.334 72.5C115.63 72.852 116.026 73.028 116.522 73.028C116.818 73.028 117.106 72.956 117.386 72.812C117.666 72.668 117.878 72.484 118.022 72.26ZM125.739 74H124.479V73.376C124.031 73.888 123.407 74.144 122.607 74.144C122.079 74.144 121.611 73.976 121.203 73.64C120.795 73.296 120.591 72.824 120.591 72.224C120.591 71.608 120.791 71.14 121.191 70.82C121.599 70.5 122.071 70.34 122.607 70.34C123.431 70.34 124.055 70.588 124.479 71.084V70.22C124.479 69.884 124.355 69.62 124.107 69.428C123.859 69.236 123.531 69.14 123.123 69.14C122.475 69.14 121.903 69.384 121.407 69.872L120.891 68.996C121.547 68.372 122.359 68.06 123.327 68.06C124.039 68.06 124.619 68.228 125.067 68.564C125.515 68.9 125.739 69.432 125.739 70.16V74ZM124.479 72.68V71.804C124.191 71.404 123.731 71.204 123.099 71.204C122.739 71.204 122.443 71.3 122.211 71.492C121.979 71.684 121.863 71.936 121.863 72.248C121.863 72.56 121.979 72.812 122.211 73.004C122.443 73.188 122.739 73.28 123.099 73.28C123.731 73.28 124.191 73.08 124.479 72.68ZM129.136 74.144C128.648 74.144 128.276 74.016 128.02 73.76C127.772 73.504 127.648 73.136 127.648 72.656V69.308H126.688V68.204H127.648V66.62H128.908V68.204H130.084V69.308H128.908V72.344C128.908 72.552 128.956 72.72 129.052 72.848C129.148 72.968 129.284 73.028 129.46 73.028C129.716 73.028 129.904 72.96 130.024 72.824L130.324 73.772C130.06 74.02 129.664 74.144 129.136 74.144ZM130.892 71.096C130.892 70.248 131.168 69.532 131.72 68.948C132.28 68.356 132.984 68.06 133.832 68.06C134.688 68.06 135.376 68.356 135.896 68.948C136.424 69.54 136.688 70.296 136.688 71.216V71.516H132.212C132.26 71.972 132.448 72.352 132.776 72.656C133.104 72.96 133.532 73.112 134.06 73.112C134.356 73.112 134.652 73.056 134.948 72.944C135.252 72.832 135.504 72.676 135.704 72.476L136.28 73.304C135.696 73.864 134.912 74.144 133.928 74.144C133.048 74.144 132.32 73.864 131.744 73.304C131.176 72.736 130.892 72 130.892 71.096ZM133.832 69.092C133.336 69.092 132.948 69.248 132.668 69.56C132.388 69.864 132.232 70.22 132.2 70.628H135.464C135.448 70.228 135.3 69.872 135.02 69.56C134.748 69.248 134.352 69.092 133.832 69.092Z" fill="#346868"/>
<path d="M147.344 67.232C147.184 67.232 147.044 67.172 146.924 67.052C146.804 66.932 146.744 66.788 146.744 66.62C146.744 66.452 146.804 66.312 146.924 66.2C147.044 66.08 147.184 66.02 147.344 66.02C147.512 66.02 147.656 66.08 147.776 66.2C147.896 66.312 147.956 66.452 147.956 66.62C147.956 66.788 147.896 66.932 147.776 67.052C147.656 67.172 147.512 67.232 147.344 67.232ZM147.8 74H146.9V68.204H147.8V74ZM149.115 73.232L149.583 72.584C149.783 72.816 150.055 73.012 150.399 73.172C150.751 73.332 151.115 73.412 151.491 73.412C151.923 73.412 152.259 73.324 152.499 73.148C152.739 72.972 152.859 72.74 152.859 72.452C152.859 72.3 152.819 72.168 152.739 72.056C152.667 71.944 152.551 71.848 152.391 71.768C152.231 71.688 152.079 71.624 151.935 71.576C151.799 71.528 151.611 71.476 151.371 71.42C151.107 71.356 150.903 71.308 150.759 71.276C150.623 71.236 150.443 71.172 150.219 71.084C149.995 70.988 149.827 70.888 149.715 70.784C149.603 70.672 149.499 70.528 149.403 70.352C149.315 70.168 149.271 69.96 149.271 69.728C149.271 69.256 149.463 68.86 149.847 68.54C150.239 68.22 150.767 68.06 151.431 68.06C152.303 68.06 153.019 68.34 153.579 68.9L153.159 69.524C152.751 69.036 152.175 68.792 151.431 68.792C151.039 68.792 150.727 68.872 150.495 69.032C150.263 69.192 150.147 69.404 150.147 69.668C150.147 69.924 150.263 70.116 150.495 70.244C150.735 70.364 151.091 70.48 151.563 70.592C151.827 70.648 152.035 70.7 152.187 70.748C152.339 70.788 152.527 70.856 152.751 70.952C152.975 71.048 153.147 71.156 153.267 71.276C153.395 71.388 153.503 71.54 153.591 71.732C153.687 71.924 153.735 72.144 153.735 72.392C153.735 72.904 153.535 73.324 153.135 73.652C152.735 73.98 152.175 74.144 151.455 74.144C150.471 74.144 149.691 73.84 149.115 73.232ZM159.239 74H158.339V65.996H159.239V69.08C159.743 68.4 160.395 68.06 161.195 68.06C161.955 68.06 162.575 68.34 163.055 68.9C163.535 69.452 163.775 70.188 163.775 71.108C163.775 72.036 163.535 72.776 163.055 73.328C162.583 73.872 161.963 74.144 161.195 74.144C160.387 74.144 159.735 73.808 159.239 73.136V74ZM159.239 69.8V72.428C159.399 72.684 159.639 72.9 159.959 73.076C160.287 73.252 160.623 73.34 160.967 73.34C161.543 73.34 161.999 73.132 162.335 72.716C162.671 72.3 162.839 71.764 162.839 71.108C162.839 70.452 162.671 69.916 162.335 69.5C161.999 69.076 161.543 68.864 160.967 68.864C160.623 68.864 160.287 68.956 159.959 69.14C159.639 69.316 159.399 69.536 159.239 69.8ZM164.93 71.096C164.93 70.248 165.202 69.532 165.746 68.948C166.29 68.356 166.97 68.06 167.786 68.06C168.642 68.06 169.318 68.356 169.814 68.948C170.318 69.532 170.57 70.272 170.57 71.168V71.396H165.878C165.918 71.964 166.126 72.44 166.502 72.824C166.878 73.208 167.366 73.4 167.966 73.4C168.686 73.4 169.282 73.156 169.754 72.668L170.186 73.256C169.594 73.848 168.826 74.144 167.882 74.144C167.018 74.144 166.31 73.864 165.758 73.304C165.206 72.736 164.93 72 164.93 71.096ZM167.774 68.804C167.198 68.804 166.742 69 166.406 69.392C166.078 69.784 165.902 70.232 165.878 70.736H169.682C169.674 70.24 169.506 69.796 169.178 69.404C168.85 69.004 168.382 68.804 167.774 68.804ZM173.515 74.144C173.091 74.144 172.771 74.028 172.555 73.796C172.339 73.564 172.231 73.228 172.231 72.788V68.996H171.271V68.204H172.231V66.62H173.131V68.204H174.307V68.996H173.131V72.596C173.131 72.82 173.179 73 173.275 73.136C173.379 73.272 173.527 73.34 173.719 73.34C173.983 73.34 174.187 73.26 174.331 73.1L174.595 73.772C174.331 74.02 173.971 74.144 173.515 74.144ZM181.519 74H180.619L179.107 69.344L177.595 74H176.695L174.847 68.204H175.783L177.199 72.824L178.723 68.204H179.491L181.015 72.824L182.431 68.204H183.367L181.519 74ZM184.103 71.096C184.103 70.248 184.375 69.532 184.919 68.948C185.463 68.356 186.143 68.06 186.959 68.06C187.815 68.06 188.491 68.356 188.987 68.948C189.491 69.532 189.743 70.272 189.743 71.168V71.396H185.051C185.091 71.964 185.299 72.44 185.675 72.824C186.051 73.208 186.539 73.4 187.139 73.4C187.859 73.4 188.455 73.156 188.927 72.668L189.359 73.256C188.767 73.848 187.999 74.144 187.055 74.144C186.191 74.144 185.483 73.864 184.931 73.304C184.379 72.736 184.103 72 184.103 71.096ZM186.947 68.804C186.371 68.804 185.915 69 185.579 69.392C185.251 69.784 185.075 70.232 185.051 70.736H188.855C188.847 70.24 188.679 69.796 188.351 69.404C188.023 69.004 187.555 68.804 186.947 68.804ZM190.889 71.096C190.889 70.248 191.161 69.532 191.705 68.948C192.249 68.356 192.929 68.06 193.745 68.06C194.601 68.06 195.277 68.356 195.773 68.948C196.277 69.532 196.529 70.272 196.529 71.168V71.396H191.837C191.877 71.964 192.085 72.44 192.461 72.824C192.837 73.208 193.325 73.4 193.925 73.4C194.645 73.4 195.241 73.156 195.713 72.668L196.145 73.256C195.553 73.848 194.785 74.144 193.841 74.144C192.977 74.144 192.269 73.864 191.717 73.304C191.165 72.736 190.889 72 190.889 71.096ZM193.733 68.804C193.157 68.804 192.701 69 192.365 69.392C192.037 69.784 191.861 70.232 191.837 70.736H195.641C195.633 70.24 195.465 69.796 195.137 69.404C194.809 69.004 194.341 68.804 193.733 68.804ZM202.823 74H201.923V70.208C201.923 69.72 201.811 69.376 201.587 69.176C201.363 68.968 201.043 68.864 200.627 68.864C200.291 68.864 199.963 68.952 199.643 69.128C199.331 69.304 199.087 69.516 198.911 69.764V74H198.011V68.204H198.911V69.044C199.135 68.78 199.435 68.552 199.811 68.36C200.187 68.16 200.575 68.06 200.975 68.06C202.207 68.06 202.823 68.684 202.823 69.932V74Z" fill="#7D8393"/>
<path d="M208.504 71.948C208.504 71.46 208.672 71.036 209.008 70.676C209.352 70.316 209.784 70.048 210.304 69.872C209.808 69.712 209.404 69.476 209.092 69.164C208.788 68.852 208.636 68.456 208.636 67.976C208.636 67.624 208.72 67.308 208.888 67.028C209.064 66.748 209.292 66.528 209.572 66.368C209.86 66.208 210.172 66.088 210.508 66.008C210.852 65.92 211.208 65.876 211.576 65.876C211.944 65.876 212.296 65.92 212.632 66.008C212.968 66.088 213.28 66.208 213.568 66.368C213.856 66.528 214.084 66.748 214.252 67.028C214.428 67.308 214.516 67.624 214.516 67.976C214.516 68.88 213.956 69.512 212.836 69.872C213.356 70.048 213.784 70.316 214.12 70.676C214.464 71.036 214.636 71.46 214.636 71.948C214.636 72.636 214.34 73.176 213.748 73.568C213.164 73.952 212.44 74.144 211.576 74.144C210.712 74.144 209.984 73.952 209.392 73.568C208.8 73.176 208.504 72.636 208.504 71.948ZM213.088 68.192C213.088 67.864 212.944 67.604 212.656 67.412C212.376 67.22 212.016 67.124 211.576 67.124C211.128 67.124 210.76 67.22 210.472 67.412C210.192 67.604 210.052 67.864 210.052 68.192C210.052 68.424 210.152 68.628 210.352 68.804C210.552 68.972 210.752 69.092 210.952 69.164C211.152 69.228 211.36 69.28 211.576 69.32C211.792 69.28 212 69.228 212.2 69.164C212.4 69.092 212.596 68.972 212.788 68.804C212.988 68.628 213.088 68.424 213.088 68.192ZM213.22 71.768C213.22 71.408 213.032 71.12 212.656 70.904C212.288 70.68 211.928 70.548 211.576 70.508C211.368 70.532 211.148 70.588 210.916 70.676C210.684 70.756 210.46 70.896 210.244 71.096C210.028 71.288 209.92 71.512 209.92 71.768C209.92 72.104 210.076 72.376 210.388 72.584C210.708 72.792 211.104 72.896 211.576 72.896C212.032 72.896 212.42 72.792 212.74 72.584C213.06 72.376 213.22 72.104 213.22 71.768ZM216.097 74.24H215.161L218.005 65.756H218.941L216.097 74.24ZM219.462 70.016C219.462 68.808 219.77 67.816 220.386 67.04C221.002 66.264 221.87 65.876 222.99 65.876C223.918 65.876 224.686 66.172 225.294 66.764L224.634 67.832C224.186 67.36 223.638 67.124 222.99 67.124C222.35 67.124 221.838 67.38 221.454 67.892C221.07 68.404 220.878 69.028 220.878 69.764C220.878 69.868 220.882 69.944 220.89 69.992C221.09 69.696 221.386 69.436 221.778 69.212C222.17 68.988 222.59 68.876 223.038 68.876C223.798 68.876 224.434 69.104 224.946 69.56C225.458 70.008 225.714 70.64 225.714 71.456C225.714 72.216 225.442 72.856 224.898 73.376C224.354 73.888 223.642 74.144 222.762 74.144C222.194 74.144 221.694 74.036 221.262 73.82C220.83 73.596 220.486 73.292 220.23 72.908C219.974 72.524 219.782 72.092 219.654 71.612C219.526 71.124 219.462 70.592 219.462 70.016ZM224.298 71.504C224.298 71.04 224.142 70.688 223.83 70.448C223.518 70.2 223.126 70.076 222.654 70.076C222.318 70.076 221.994 70.164 221.682 70.34C221.37 70.508 221.11 70.736 220.902 71.024C220.95 71.536 221.118 71.976 221.406 72.344C221.694 72.712 222.122 72.896 222.69 72.896C223.186 72.896 223.578 72.756 223.866 72.476C224.154 72.188 224.298 71.864 224.298 71.504ZM227.137 74.24H226.201L229.045 65.756H229.981L227.137 74.24ZM236.406 74H230.61V72.896C232.282 71.632 233.418 70.696 234.018 70.088C234.626 69.472 234.93 68.892 234.93 68.348C234.93 67.956 234.786 67.656 234.498 67.448C234.218 67.232 233.878 67.124 233.478 67.124C232.598 67.124 231.878 67.444 231.318 68.084L230.502 67.16C230.846 66.744 231.278 66.428 231.798 66.212C232.326 65.988 232.878 65.876 233.454 65.876C234.27 65.876 234.958 66.096 235.518 66.536C236.078 66.976 236.358 67.58 236.358 68.348C236.358 69.036 236.07 69.72 235.494 70.4C234.918 71.08 234.038 71.868 232.854 72.764H236.406V74ZM237.855 71.504C237.727 71.024 237.663 70.524 237.663 70.004C237.663 69.484 237.727 68.984 237.855 68.504C237.983 68.024 238.171 67.588 238.419 67.196C238.667 66.796 239.003 66.476 239.427 66.236C239.851 65.996 240.331 65.876 240.867 65.876C241.403 65.876 241.883 65.996 242.307 66.236C242.731 66.476 243.067 66.796 243.315 67.196C243.563 67.588 243.751 68.024 243.879 68.504C244.007 68.984 244.071 69.484 244.071 70.004C244.071 70.524 244.007 71.024 243.879 71.504C243.751 71.984 243.563 72.424 243.315 72.824C243.067 73.224 242.731 73.544 242.307 73.784C241.883 74.024 241.403 74.144 240.867 74.144C240.331 74.144 239.851 74.024 239.427 73.784C239.003 73.544 238.667 73.224 238.419 72.824C238.171 72.424 237.983 71.984 237.855 71.504ZM242.643 70.004C242.643 69.468 242.587 68.992 242.475 68.576C242.371 68.16 242.179 67.816 241.899 67.544C241.627 67.264 241.283 67.124 240.867 67.124C240.451 67.124 240.103 67.264 239.823 67.544C239.551 67.816 239.359 68.16 239.247 68.576C239.143 68.992 239.091 69.468 239.091 70.004C239.091 70.844 239.235 71.536 239.523 72.08C239.811 72.624 240.259 72.896 240.867 72.896C241.475 72.896 241.923 72.624 242.211 72.08C242.499 71.536 242.643 70.844 242.643 70.004ZM250.985 74H245.189V72.896C246.861 71.632 247.997 70.696 248.597 70.088C249.205 69.472 249.509 68.892 249.509 68.348C249.509 67.956 249.365 67.656 249.077 67.448C248.797 67.232 248.457 67.124 248.057 67.124C247.177 67.124 246.457 67.444 245.897 68.084L245.081 67.16C245.425 66.744 245.857 66.428 246.377 66.212C246.905 65.988 247.457 65.876 248.033 65.876C248.849 65.876 249.537 66.096 250.097 66.536C250.657 66.976 250.937 67.58 250.937 68.348C250.937 69.036 250.649 69.72 250.073 70.4C249.497 71.08 248.617 71.868 247.433 72.764H250.985V74ZM252.038 72.848L252.794 71.924C253.05 72.22 253.378 72.456 253.778 72.632C254.178 72.808 254.59 72.896 255.014 72.896C255.534 72.896 255.942 72.788 256.238 72.572C256.534 72.348 256.682 72.048 256.682 71.672C256.682 70.92 256.09 70.544 254.906 70.544C254.37 70.544 254.062 70.548 253.982 70.556V69.296C254.078 69.304 254.386 69.308 254.906 69.308C255.402 69.308 255.798 69.22 256.094 69.044C256.398 68.868 256.55 68.604 256.55 68.252C256.55 67.892 256.398 67.616 256.094 67.424C255.79 67.224 255.402 67.124 254.93 67.124C254.146 67.124 253.458 67.42 252.866 68.012L252.146 67.136C252.858 66.296 253.83 65.876 255.062 65.876C255.934 65.876 256.634 66.072 257.162 66.464C257.69 66.848 257.954 67.372 257.954 68.036C257.954 68.532 257.778 68.944 257.426 69.272C257.082 69.592 256.678 69.792 256.214 69.872C256.67 69.912 257.094 70.104 257.486 70.448C257.878 70.792 258.074 71.248 258.074 71.816C258.074 72.504 257.798 73.064 257.246 73.496C256.702 73.928 255.974 74.144 255.062 74.144C254.382 74.144 253.778 74.024 253.25 73.784C252.73 73.544 252.326 73.232 252.038 72.848ZM265.011 71.636H262.131V70.556H265.011V71.636ZM268.632 71.636H265.752V70.556H268.632V71.636ZM272.408 72.848L273.164 71.924C273.42 72.22 273.748 72.456 274.148 72.632C274.548 72.808 274.96 72.896 275.384 72.896C275.904 72.896 276.312 72.788 276.608 72.572C276.904 72.348 277.052 72.048 277.052 71.672C277.052 70.92 276.46 70.544 275.276 70.544C274.74 70.544 274.432 70.548 274.352 70.556V69.296C274.448 69.304 274.756 69.308 275.276 69.308C275.772 69.308 276.168 69.22 276.464 69.044C276.768 68.868 276.92 68.604 276.92 68.252C276.92 67.892 276.768 67.616 276.464 67.424C276.16 67.224 275.772 67.124 275.3 67.124C274.516 67.124 273.828 67.42 273.236 68.012L272.516 67.136C273.228 66.296 274.2 65.876 275.432 65.876C276.304 65.876 277.004 66.072 277.532 66.464C278.06 66.848 278.324 67.372 278.324 68.036C278.324 68.532 278.148 68.944 277.796 69.272C277.452 69.592 277.048 69.792 276.584 69.872C277.04 69.912 277.464 70.104 277.856 70.448C278.248 70.792 278.444 71.248 278.444 71.816C278.444 72.504 278.168 73.064 277.616 73.496C277.072 73.928 276.344 74.144 275.432 74.144C274.752 74.144 274.148 74.024 273.62 73.784C273.1 73.544 272.696 73.232 272.408 72.848ZM282.743 74H281.339V67.82L280.031 69.176L279.215 68.324L281.519 65.996H282.743V74ZM284.553 74.24H283.617L286.461 65.756H287.397L284.553 74.24ZM287.93 71.948C287.93 71.46 288.098 71.036 288.434 70.676C288.778 70.316 289.21 70.048 289.73 69.872C289.234 69.712 288.83 69.476 288.518 69.164C288.214 68.852 288.062 68.456 288.062 67.976C288.062 67.624 288.146 67.308 288.314 67.028C288.49 66.748 288.718 66.528 288.998 66.368C289.286 66.208 289.598 66.088 289.934 66.008C290.278 65.92 290.634 65.876 291.002 65.876C291.37 65.876 291.722 65.92 292.058 66.008C292.394 66.088 292.706 66.208 292.994 66.368C293.282 66.528 293.51 66.748 293.678 67.028C293.854 67.308 293.942 67.624 293.942 67.976C293.942 68.88 293.382 69.512 292.262 69.872C292.782 70.048 293.21 70.316 293.546 70.676C293.89 71.036 294.062 71.46 294.062 71.948C294.062 72.636 293.766 73.176 293.174 73.568C292.59 73.952 291.866 74.144 291.002 74.144C290.138 74.144 289.41 73.952 288.818 73.568C288.226 73.176 287.93 72.636 287.93 71.948ZM292.514 68.192C292.514 67.864 292.37 67.604 292.082 67.412C291.802 67.22 291.442 67.124 291.002 67.124C290.554 67.124 290.186 67.22 289.898 67.412C289.618 67.604 289.478 67.864 289.478 68.192C289.478 68.424 289.578 68.628 289.778 68.804C289.978 68.972 290.178 69.092 290.378 69.164C290.578 69.228 290.786 69.28 291.002 69.32C291.218 69.28 291.426 69.228 291.626 69.164C291.826 69.092 292.022 68.972 292.214 68.804C292.414 68.628 292.514 68.424 292.514 68.192ZM292.646 71.768C292.646 71.408 292.458 71.12 292.082 70.904C291.714 70.68 291.354 70.548 291.002 70.508C290.794 70.532 290.574 70.588 290.342 70.676C290.11 70.756 289.886 70.896 289.67 71.096C289.454 71.288 289.346 71.512 289.346 71.768C289.346 72.104 289.502 72.376 289.814 72.584C290.134 72.792 290.53 72.896 291.002 72.896C291.458 72.896 291.846 72.792 292.166 72.584C292.486 72.376 292.646 72.104 292.646 71.768ZM295.523 74.24H294.587L297.431 65.756H298.367L295.523 74.24ZM304.792 74H298.996V72.896C300.668 71.632 301.804 70.696 302.404 70.088C303.012 69.472 303.316 68.892 303.316 68.348C303.316 67.956 303.172 67.656 302.884 67.448C302.604 67.232 302.264 67.124 301.864 67.124C300.984 67.124 300.264 67.444 299.704 68.084L298.888 67.16C299.232 66.744 299.664 66.428 300.184 66.212C300.712 65.988 301.264 65.876 301.84 65.876C302.656 65.876 303.344 66.096 303.904 66.536C304.464 66.976 304.744 67.58 304.744 68.348C304.744 69.036 304.456 69.72 303.88 70.4C303.304 71.08 302.424 71.868 301.24 72.764H304.792V74ZM306.241 71.504C306.113 71.024 306.049 70.524 306.049 70.004C306.049 69.484 306.113 68.984 306.241 68.504C306.369 68.024 306.557 67.588 306.805 67.196C307.053 66.796 307.389 66.476 307.813 66.236C308.237 65.996 308.717 65.876 309.253 65.876C309.789 65.876 310.269 65.996 310.693 66.236C311.117 66.476 311.453 66.796 311.701 67.196C311.949 67.588 312.137 68.024 312.265 68.504C312.393 68.984 312.457 69.484 312.457 70.004C312.457 70.524 312.393 71.024 312.265 71.504C312.137 71.984 311.949 72.424 311.701 72.824C311.453 73.224 311.117 73.544 310.693 73.784C310.269 74.024 309.789 74.144 309.253 74.144C308.717 74.144 308.237 74.024 307.813 73.784C307.389 73.544 307.053 73.224 306.805 72.824C306.557 72.424 306.369 71.984 306.241 71.504ZM311.029 70.004C311.029 69.468 310.973 68.992 310.861 68.576C310.757 68.16 310.565 67.816 310.285 67.544C310.013 67.264 309.669 67.124 309.253 67.124C308.837 67.124 308.489 67.264 308.209 67.544C307.937 67.816 307.745 68.16 307.633 68.576C307.529 68.992 307.477 69.468 307.477 70.004C307.477 70.844 307.621 71.536 307.909 72.08C308.197 72.624 308.645 72.896 309.253 72.896C309.861 72.896 310.309 72.624 310.597 72.08C310.885 71.536 311.029 70.844 311.029 70.004ZM319.372 74H313.576V72.896C315.248 71.632 316.384 70.696 316.984 70.088C317.592 69.472 317.896 68.892 317.896 68.348C317.896 67.956 317.752 67.656 317.464 67.448C317.184 67.232 316.844 67.124 316.444 67.124C315.564 67.124 314.844 67.444 314.284 68.084L313.468 67.16C313.812 66.744 314.244 66.428 314.764 66.212C315.292 65.988 315.844 65.876 316.42 65.876C317.236 65.876 317.924 66.096 318.484 66.536C319.044 66.976 319.324 67.58 319.324 68.348C319.324 69.036 319.036 69.72 318.46 70.4C317.884 71.08 317.004 71.868 315.82 72.764H319.372V74ZM320.424 72.848L321.18 71.924C321.436 72.22 321.764 72.456 322.164 72.632C322.564 72.808 322.976 72.896 323.4 72.896C323.92 72.896 324.328 72.788 324.624 72.572C324.92 72.348 325.068 72.048 325.068 71.672C325.068 70.92 324.476 70.544 323.292 70.544C322.756 70.544 322.448 70.548 322.368 70.556V69.296C322.464 69.304 322.772 69.308 323.292 69.308C323.788 69.308 324.184 69.22 324.48 69.044C324.784 68.868 324.936 68.604 324.936 68.252C324.936 67.892 324.784 67.616 324.48 67.424C324.176 67.224 323.788 67.124 323.316 67.124C322.532 67.124 321.844 67.42 321.252 68.012L320.532 67.136C321.244 66.296 322.216 65.876 323.448 65.876C324.32 65.876 325.02 66.072 325.548 66.464C326.076 66.848 326.34 67.372 326.34 68.036C326.34 68.532 326.164 68.944 325.812 69.272C325.468 69.592 325.064 69.792 324.6 69.872C325.056 69.912 325.48 70.104 325.872 70.448C326.264 70.792 326.46 71.248 326.46 71.816C326.46 72.504 326.184 73.064 325.632 73.496C325.088 73.928 324.36 74.144 323.448 74.144C322.768 74.144 322.164 74.024 321.636 73.784C321.116 73.544 320.712 73.232 320.424 72.848Z" fill="#346868"/>
<rect x="20.5" y="116.5" width="383" height="31" rx="2.5" fill="#F0F1F2"/>
<rect x="20.5" y="116.5" width="383" height="31" rx="2.5" stroke="#E7E8EA"/>
<path d="M165.062 131.438V126.75C165.062 126.601 165.003 126.458 164.898 126.352C164.792 126.247 164.649 126.188 164.5 126.188C164.351 126.188 164.208 126.247 164.102 126.352C163.997 126.458 163.938 126.601 163.938 126.75V131.438H159.25C159.101 131.438 158.958 131.497 158.852 131.602C158.747 131.708 158.688 131.851 158.688 132C158.688 132.149 158.747 132.292 158.852 132.398C158.958 132.503 159.101 132.562 159.25 132.562H163.938V137.25C163.939 137.399 163.999 137.541 164.104 137.646C164.209 137.751 164.351 137.811 164.5 137.812C164.649 137.812 164.792 137.753 164.898 137.648C165.003 137.542 165.062 137.399 165.062 137.25V132.562H169.75C169.899 132.562 170.042 132.503 170.148 132.398C170.253 132.292 170.312 132.149 170.312 132C170.311 131.851 170.251 131.709 170.146 131.604C170.041 131.499 169.899 131.439 169.75 131.438H165.062Z" fill="#393C42"/>
<path d="M186.894 136H185.102L184.416 134.208H179.992L179.306 136H177.514L181.182 126.662H183.226L186.894 136ZM183.954 132.766L182.204 128.048L180.454 132.766H183.954ZM194.102 136H192.632V135.076C192.072 135.804 191.349 136.168 190.462 136.168C189.575 136.168 188.852 135.851 188.292 135.216C187.732 134.581 187.452 133.718 187.452 132.626C187.452 131.543 187.732 130.68 188.292 130.036C188.852 129.392 189.575 129.07 190.462 129.07C191.349 129.07 192.072 129.439 192.632 130.176V126.662H194.102V136ZM192.632 133.97V131.282C192.464 131.021 192.217 130.806 191.89 130.638C191.563 130.461 191.227 130.372 190.882 130.372C190.303 130.372 189.841 130.582 189.496 131.002C189.151 131.422 188.978 131.963 188.978 132.626C188.978 133.289 189.151 133.83 189.496 134.25C189.841 134.661 190.303 134.866 190.882 134.866C191.227 134.866 191.563 134.782 191.89 134.614C192.217 134.446 192.464 134.231 192.632 133.97ZM202.237 136H200.767V135.076C200.207 135.804 199.483 136.168 198.597 136.168C197.71 136.168 196.987 135.851 196.427 135.216C195.867 134.581 195.587 133.718 195.587 132.626C195.587 131.543 195.867 130.68 196.427 130.036C196.987 129.392 197.71 129.07 198.597 129.07C199.483 129.07 200.207 129.439 200.767 130.176V126.662H202.237V136ZM200.767 133.97V131.282C200.599 131.021 200.351 130.806 200.025 130.638C199.698 130.461 199.362 130.372 199.017 130.372C198.438 130.372 197.976 130.582 197.631 131.002C197.285 131.422 197.113 131.963 197.113 132.626C197.113 133.289 197.285 133.83 197.631 134.25C197.976 134.661 198.438 134.866 199.017 134.866C199.362 134.866 199.698 134.782 200.025 134.614C200.351 134.446 200.599 134.231 200.767 133.97ZM212.189 136.168C210.826 136.168 209.678 135.715 208.745 134.81C207.821 133.905 207.359 132.747 207.359 131.338C207.359 129.929 207.821 128.771 208.745 127.866C209.678 126.961 210.826 126.508 212.189 126.508C213.86 126.508 215.134 127.208 216.011 128.608L214.611 129.322C214.378 128.921 214.046 128.594 213.617 128.342C213.188 128.09 212.712 127.964 212.189 127.964C211.293 127.964 210.542 128.286 209.935 128.93C209.338 129.565 209.039 130.367 209.039 131.338C209.039 132.309 209.338 133.116 209.935 133.76C210.542 134.395 211.293 134.712 212.189 134.712C212.712 134.712 213.188 134.586 213.617 134.334C214.046 134.082 214.378 133.755 214.611 133.354L216.011 134.068C215.115 135.468 213.841 136.168 212.189 136.168ZM220.332 136.168C219.287 136.168 218.447 135.827 217.812 135.146C217.177 134.455 216.86 133.611 216.86 132.612C216.86 131.613 217.177 130.773 217.812 130.092C218.447 129.411 219.287 129.07 220.332 129.07C221.387 129.07 222.231 129.411 222.866 130.092C223.501 130.773 223.818 131.613 223.818 132.612C223.818 133.62 223.501 134.465 222.866 135.146C222.231 135.827 221.387 136.168 220.332 136.168ZM220.332 134.866C220.939 134.866 221.415 134.651 221.76 134.222C222.115 133.783 222.292 133.247 222.292 132.612C222.292 131.987 222.115 131.459 221.76 131.03C221.415 130.591 220.939 130.372 220.332 130.372C219.735 130.372 219.259 130.591 218.904 131.03C218.559 131.459 218.386 131.987 218.386 132.612C218.386 133.247 218.559 133.783 218.904 134.222C219.259 134.651 219.735 134.866 220.332 134.866ZM231.34 136H229.87V131.772C229.87 130.839 229.417 130.372 228.512 130.372C228.157 130.372 227.826 130.461 227.518 130.638C227.21 130.815 226.962 131.03 226.776 131.282V136H225.306V129.238H226.776V130.162C227.028 129.863 227.364 129.607 227.784 129.392C228.204 129.177 228.661 129.07 229.156 129.07C229.874 129.07 230.416 129.257 230.78 129.63C231.153 130.003 231.34 130.54 231.34 131.24V136ZM239.479 136H238.009V135.076C237.449 135.804 236.726 136.168 235.839 136.168C234.952 136.168 234.229 135.851 233.669 135.216C233.109 134.581 232.829 133.718 232.829 132.626C232.829 131.543 233.109 130.68 233.669 130.036C234.229 129.392 234.952 129.07 235.839 129.07C236.726 129.07 237.449 129.439 238.009 130.176V126.662H239.479V136ZM238.009 133.97V131.282C237.841 131.021 237.594 130.806 237.267 130.638C236.94 130.461 236.604 130.372 236.259 130.372C235.68 130.372 235.218 130.582 234.873 131.002C234.528 131.422 234.355 131.963 234.355 132.626C234.355 133.289 234.528 133.83 234.873 134.25C235.218 134.661 235.68 134.866 236.259 134.866C236.604 134.866 236.94 134.782 237.267 134.614C237.594 134.446 237.841 134.231 238.009 133.97ZM242.112 128.118C241.869 128.118 241.654 128.029 241.468 127.852C241.29 127.675 241.202 127.46 241.202 127.208C241.202 126.956 241.29 126.741 241.468 126.564C241.654 126.387 241.869 126.298 242.112 126.298C242.364 126.298 242.578 126.387 242.756 126.564C242.933 126.741 243.022 126.956 243.022 127.208C243.022 127.46 242.933 127.675 242.756 127.852C242.578 128.029 242.364 128.118 242.112 128.118ZM242.854 136H241.384V129.238H242.854V136ZM246.791 136.168C246.221 136.168 245.787 136.019 245.489 135.72C245.199 135.421 245.055 134.992 245.055 134.432V130.526H243.935V129.238H245.055V127.39H246.525V129.238H247.897V130.526H246.525V134.068C246.525 134.311 246.581 134.507 246.693 134.656C246.805 134.796 246.963 134.866 247.169 134.866C247.467 134.866 247.687 134.787 247.827 134.628L248.177 135.734C247.869 136.023 247.407 136.168 246.791 136.168ZM249.959 128.118C249.717 128.118 249.502 128.029 249.315 127.852C249.138 127.675 249.049 127.46 249.049 127.208C249.049 126.956 249.138 126.741 249.315 126.564C249.502 126.387 249.717 126.298 249.959 126.298C250.211 126.298 250.426 126.387 250.603 126.564C250.781 126.741 250.869 126.956 250.869 127.208C250.869 127.46 250.781 127.675 250.603 127.852C250.426 128.029 250.211 128.118 249.959 128.118ZM250.701 136H249.231V129.238H250.701V136ZM255.66 136.168C254.615 136.168 253.775 135.827 253.14 135.146C252.506 134.455 252.188 133.611 252.188 132.612C252.188 131.613 252.506 130.773 253.14 130.092C253.775 129.411 254.615 129.07 255.66 129.07C256.715 129.07 257.56 129.411 258.194 130.092C258.829 130.773 259.146 131.613 259.146 132.612C259.146 133.62 258.829 134.465 258.194 135.146C257.56 135.827 256.715 136.168 255.66 136.168ZM255.66 134.866C256.267 134.866 256.743 134.651 257.088 134.222C257.443 133.783 257.62 133.247 257.62 132.612C257.62 131.987 257.443 131.459 257.088 131.03C256.743 130.591 256.267 130.372 255.66 130.372C255.063 130.372 254.587 130.591 254.232 131.03C253.887 131.459 253.714 131.987 253.714 132.612C253.714 133.247 253.887 133.783 254.232 134.222C254.587 134.651 255.063 134.866 255.66 134.866ZM266.668 136H265.198V131.772C265.198 130.839 264.745 130.372 263.84 130.372C263.485 130.372 263.154 130.461 262.846 130.638C262.538 130.815 262.29 131.03 262.104 131.282V136H260.634V129.238H262.104V130.162C262.356 129.863 262.692 129.607 263.112 129.392C263.532 129.177 263.989 129.07 264.484 129.07C265.202 129.07 265.744 129.257 266.108 129.63C266.481 130.003 266.668 130.54 266.668 131.24V136Z" fill="#20232A"/>
<mask id="path-14-inside-1_367_4863" fill="white">
<path d="M4 666H424V722H4V666Z"/>
</mask>
<path d="M4 666V667H424V666V665H4V666Z" fill="#CCCED4" mask="url(#path-14-inside-1_367_4863)"/>
<path d="M63.2043 698H61.3143L59.2423 694.514H57.6183V698H55.9803V688.662H60.0823C60.997 688.662 61.7343 688.933 62.2943 689.474C62.8543 690.015 63.1343 690.72 63.1343 691.588C63.1343 692.372 62.9197 693.002 62.4903 693.478C62.061 693.945 61.5383 694.229 60.9223 694.332L63.2043 698ZM61.0063 692.666C61.305 692.395 61.4543 692.036 61.4543 691.588C61.4543 691.14 61.305 690.781 61.0063 690.51C60.7077 690.239 60.325 690.104 59.8583 690.104H57.6183V693.072H59.8583C60.325 693.072 60.7077 692.937 61.0063 692.666ZM63.8855 694.612C63.8855 693.623 64.2075 692.787 64.8515 692.106C65.5048 691.415 66.3262 691.07 67.3155 691.07C68.3142 691.07 69.1168 691.415 69.7235 692.106C70.3395 692.797 70.6475 693.679 70.6475 694.752V695.102H65.4255C65.4815 695.634 65.7008 696.077 66.0835 696.432C66.4662 696.787 66.9655 696.964 67.5815 696.964C67.9268 696.964 68.2722 696.899 68.6175 696.768C68.9722 696.637 69.2662 696.455 69.4995 696.222L70.1715 697.188C69.4902 697.841 68.5755 698.168 67.4275 698.168C66.4008 698.168 65.5515 697.841 64.8795 697.188C64.2168 696.525 63.8855 695.667 63.8855 694.612ZM67.3155 692.274C66.7368 692.274 66.2842 692.456 65.9575 692.82C65.6308 693.175 65.4488 693.59 65.4115 694.066H69.2195C69.2008 693.599 69.0282 693.184 68.7015 692.82C68.3842 692.456 67.9222 692.274 67.3155 692.274ZM71.5105 697.118L72.1825 696.054C72.4345 696.315 72.7752 696.539 73.2045 696.726C73.6338 696.913 74.0585 697.006 74.4785 697.006C74.9078 697.006 75.2345 696.936 75.4585 696.796C75.6918 696.647 75.8085 696.441 75.8085 696.18C75.8085 695.909 75.6778 695.709 75.4165 695.578C75.1552 695.438 74.7725 695.312 74.2685 695.2C73.9605 695.135 73.7178 695.079 73.5405 695.032C73.3725 694.985 73.1532 694.911 72.8825 694.808C72.6118 694.696 72.4065 694.575 72.2665 694.444C72.1265 694.304 72.0005 694.122 71.8885 693.898C71.7765 693.674 71.7205 693.417 71.7205 693.128C71.7205 692.549 71.9585 692.064 72.4345 691.672C72.9105 691.271 73.5592 691.07 74.3805 691.07C75.4165 691.07 76.2938 691.387 77.0125 692.022L76.3965 693.058C76.1818 692.815 75.8972 692.619 75.5425 692.47C75.1878 692.321 74.8052 692.246 74.3945 692.246C74.0025 692.246 73.6945 692.316 73.4705 692.456C73.2465 692.587 73.1345 692.769 73.1345 693.002C73.1345 693.235 73.2558 693.413 73.4985 693.534C73.7412 693.655 74.1098 693.772 74.6045 693.884C74.9125 693.949 75.1552 694.005 75.3325 694.052C75.5192 694.099 75.7478 694.183 76.0185 694.304C76.2892 694.416 76.4992 694.542 76.6485 694.682C76.7978 694.822 76.9285 695.013 77.0405 695.256C77.1618 695.489 77.2225 695.76 77.2225 696.068C77.2225 696.684 76.9752 697.188 76.4805 697.58C75.9858 697.972 75.2952 698.168 74.4085 698.168C73.1952 698.168 72.2292 697.818 71.5105 697.118ZM78.282 694.612C78.282 693.623 78.604 692.787 79.248 692.106C79.9013 691.415 80.7227 691.07 81.712 691.07C82.7107 691.07 83.5133 691.415 84.12 692.106C84.736 692.797 85.044 693.679 85.044 694.752V695.102H79.822C79.878 695.634 80.0973 696.077 80.48 696.432C80.8627 696.787 81.362 696.964 81.978 696.964C82.3233 696.964 82.6687 696.899 83.014 696.768C83.3687 696.637 83.6627 696.455 83.896 696.222L84.568 697.188C83.8867 697.841 82.972 698.168 81.824 698.168C80.7973 698.168 79.948 697.841 79.276 697.188C78.6133 696.525 78.282 695.667 78.282 694.612ZM81.712 692.274C81.1333 692.274 80.6807 692.456 80.354 692.82C80.0273 693.175 79.8453 693.59 79.808 694.066H83.616C83.5973 693.599 83.4247 693.184 83.098 692.82C82.7807 692.456 82.3187 692.274 81.712 692.274ZM88.525 698.168C87.9556 698.168 87.5216 698.019 87.223 697.72C86.9336 697.421 86.789 696.992 86.789 696.432V692.526H85.669V691.238H86.789V689.39H88.259V691.238H89.631V692.526H88.259V696.068C88.259 696.311 88.315 696.507 88.427 696.656C88.539 696.796 88.6976 696.866 88.903 696.866C89.2016 696.866 89.421 696.787 89.561 696.628L89.911 697.734C89.603 698.023 89.141 698.168 88.525 698.168Z" fill="#7D8393"/>
<path d="M141 681C141 679.343 142.343 678 144 678H243C244.657 678 246 679.343 246 681V707C246 708.657 244.657 710 243 710H144C142.343 710 141 708.657 141 707V681Z" fill="#F0F1F2"/>
<path d="M177.343 698.168C175.981 698.168 174.833 697.715 173.899 696.81C172.975 695.905 172.513 694.747 172.513 693.338C172.513 691.929 172.975 690.771 173.899 689.866C174.833 688.961 175.981 688.508 177.343 688.508C179.014 688.508 180.288 689.208 181.165 690.608L179.765 691.322C179.532 690.921 179.201 690.594 178.771 690.342C178.342 690.09 177.866 689.964 177.343 689.964C176.447 689.964 175.696 690.286 175.089 690.93C174.492 691.565 174.193 692.367 174.193 693.338C174.193 694.309 174.492 695.116 175.089 695.76C175.696 696.395 176.447 696.712 177.343 696.712C177.866 696.712 178.342 696.586 178.771 696.334C179.201 696.082 179.532 695.755 179.765 695.354L181.165 696.068C180.269 697.468 178.995 698.168 177.343 698.168ZM188.034 698H186.564V697.272C186.042 697.869 185.314 698.168 184.38 698.168C183.764 698.168 183.218 697.972 182.742 697.58C182.266 697.179 182.028 696.628 182.028 695.928C182.028 695.209 182.262 694.663 182.728 694.29C183.204 693.917 183.755 693.73 184.38 693.73C185.342 693.73 186.07 694.019 186.564 694.598V693.59C186.564 693.198 186.42 692.89 186.13 692.666C185.841 692.442 185.458 692.33 184.982 692.33C184.226 692.33 183.559 692.615 182.98 693.184L182.378 692.162C183.144 691.434 184.091 691.07 185.22 691.07C186.051 691.07 186.728 691.266 187.25 691.658C187.773 692.05 188.034 692.671 188.034 693.52V698ZM186.564 696.46V695.438C186.228 694.971 185.692 694.738 184.954 694.738C184.534 694.738 184.189 694.85 183.918 695.074C183.648 695.298 183.512 695.592 183.512 695.956C183.512 696.32 183.648 696.614 183.918 696.838C184.189 697.053 184.534 697.16 184.954 697.16C185.692 697.16 186.228 696.927 186.564 696.46ZM195.974 698H194.504V693.772C194.504 692.839 194.052 692.372 193.146 692.372C192.792 692.372 192.46 692.461 192.152 692.638C191.844 692.815 191.597 693.03 191.41 693.282V698H189.94V691.238H191.41V692.162C191.662 691.863 191.998 691.607 192.418 691.392C192.838 691.177 193.296 691.07 193.79 691.07C194.509 691.07 195.05 691.257 195.414 691.63C195.788 692.003 195.974 692.54 195.974 693.24V698ZM197.464 694.612C197.464 693.585 197.79 692.741 198.444 692.078C199.097 691.406 199.937 691.07 200.964 691.07C202.093 691.07 202.956 691.471 203.554 692.274L202.588 693.17C202.214 692.638 201.696 692.372 201.034 692.372C200.418 692.372 199.923 692.582 199.55 693.002C199.176 693.413 198.99 693.949 198.99 694.612C198.99 695.275 199.176 695.816 199.55 696.236C199.923 696.656 200.418 696.866 201.034 696.866C201.678 696.866 202.196 696.6 202.588 696.068L203.554 696.964C202.956 697.767 202.093 698.168 200.964 698.168C199.937 698.168 199.097 697.837 198.444 697.174C197.79 696.502 197.464 695.648 197.464 694.612ZM204.423 694.612C204.423 693.623 204.745 692.787 205.389 692.106C206.042 691.415 206.863 691.07 207.853 691.07C208.851 691.07 209.654 691.415 210.261 692.106C210.877 692.797 211.185 693.679 211.185 694.752V695.102H205.963C206.019 695.634 206.238 696.077 206.621 696.432C207.003 696.787 207.503 696.964 208.119 696.964C208.464 696.964 208.809 696.899 209.155 696.768C209.509 696.637 209.803 696.455 210.037 696.222L210.709 697.188C210.027 697.841 209.113 698.168 207.965 698.168C206.938 698.168 206.089 697.841 205.417 697.188C204.754 696.525 204.423 695.667 204.423 694.612ZM207.853 692.274C207.274 692.274 206.821 692.456 206.495 692.82C206.168 693.175 205.986 693.59 205.949 694.066H209.757C209.738 693.599 209.565 693.184 209.239 692.82C208.921 692.456 208.459 692.274 207.853 692.274ZM214.106 698H212.636V688.662H214.106V698Z" fill="#5C6069"/>
<path d="M262 681C262 679.343 263.343 678 265 678H347V710H265C263.343 710 262 708.657 262 707V681Z" fill="#5C6069"/>
<path d="M295.394 698H293.602L292.916 696.208H288.492L287.806 698H286.014L289.682 688.662H291.726L295.394 698ZM292.454 694.766L290.704 690.048L288.954 694.766H292.454ZM297.842 697.062V700.576H296.372V691.238H297.842V692.162C298.383 691.434 299.107 691.07 300.012 691.07C300.899 691.07 301.617 691.387 302.168 692.022C302.728 692.657 303.008 693.52 303.008 694.612C303.008 695.704 302.728 696.572 302.168 697.216C301.617 697.851 300.899 698.168 300.012 698.168C299.116 698.168 298.393 697.799 297.842 697.062ZM300.964 696.236C301.309 695.816 301.482 695.275 301.482 694.612C301.482 693.949 301.309 693.413 300.964 693.002C300.619 692.582 300.157 692.372 299.578 692.372C299.242 692.372 298.911 692.461 298.584 692.638C298.257 692.815 298.01 693.03 297.842 693.282V695.956C298.01 696.208 298.257 696.423 298.584 696.6C298.911 696.777 299.242 696.866 299.578 696.866C300.157 696.866 300.619 696.656 300.964 696.236ZM305.963 697.062V700.576H304.493V691.238H305.963V692.162C306.504 691.434 307.228 691.07 308.133 691.07C309.02 691.07 309.738 691.387 310.289 692.022C310.849 692.657 311.129 693.52 311.129 694.612C311.129 695.704 310.849 696.572 310.289 697.216C309.738 697.851 309.02 698.168 308.133 698.168C307.237 698.168 306.514 697.799 305.963 697.062ZM309.085 696.236C309.43 695.816 309.603 695.275 309.603 694.612C309.603 693.949 309.43 693.413 309.085 693.002C308.74 692.582 308.278 692.372 307.699 692.372C307.363 692.372 307.032 692.461 306.705 692.638C306.378 692.815 306.131 693.03 305.963 693.282V695.956C306.131 696.208 306.378 696.423 306.705 696.6C307.032 696.777 307.363 696.866 307.699 696.866C308.278 696.866 308.74 696.656 309.085 696.236ZM314.084 698H312.614V688.662H314.084V698ZM315.697 700.646L315.921 699.33C316.089 699.405 316.276 699.442 316.481 699.442C316.957 699.442 317.279 699.246 317.447 698.854L317.783 698.084L315.011 691.238H316.579L318.553 696.306L320.527 691.238H322.109L318.847 699.218C318.446 700.217 317.671 700.725 316.523 700.744C316.215 700.744 315.94 700.711 315.697 700.646Z" fill="#F0F1F2"/>
<path d="M348 678H385C386.657 678 388 679.343 388 681V707C388 708.657 386.657 710 385 710H348V678Z" fill="#5C6069"/>
<path d="M363 691.5L368 696.5L373 691.5" stroke="white" stroke-width="2" stroke-linecap="round" stroke-linejoin="round"/>
</g>
<defs>
<filter id="filter0_dd_367_4863" x="-6" y="-10" width="440" height="742" filterUnits="userSpaceOnUse" color-interpolation-filters="sRGB">
<feFlood flood-opacity="0" result="BackgroundImageFix"/>
<feColorMatrix in="SourceAlpha" type="matrix" values="0 0 0 0 0 0 0 0 0 0 0 0 0 0 0 0 0 0 127 0" result="hardAlpha"/>
<feMorphology radius="2" operator="erode" in="SourceAlpha" result="effect1_dropShadow_367_4863"/>
<feOffset dy="2"/>
<feGaussianBlur stdDeviation="2"/>
<feColorMatrix type="matrix" values="0 0 0 0 0 0 0 0 0 0 0 0 0 0 0 0 0 0 0.07 0"/>
<feBlend mode="normal" in2="BackgroundImageFix" result="effect1_dropShadow_367_4863"/>
<feColorMatrix in="SourceAlpha" type="matrix" values="0 0 0 0 0 0 0 0 0 0 0 0 0 0 0 0 0 0 127 0" result="hardAlpha"/>
<feOffset dy="4"/>
<feGaussianBlur stdDeviation="2"/>
<feComposite in2="hardAlpha" operator="out"/>
<feColorMatrix type="matrix" values="0 0 0 0 0 0 0 0 0 0 0 0 0 0 0 0 0 0 0.15 0"/>
<feBlend mode="normal" in2="effect1_dropShadow_367_4863" result="effect2_dropShadow_367_4863"/>
<feBlend mode="normal" in="SourceGraphic" in2="effect2_dropShadow_367_4863" result="shape"/>
</filter>
</defs>
</svg>
