<svg width="180" height="216" viewBox="0 0 180 216" fill="none" xmlns="http://www.w3.org/2000/svg">
<g filter="url(#filter0_dd_367_11150)">
<rect x="127.5" y="6.5" width="31" height="31" rx="2.5" fill="#33353A"/>
<rect x="127.5" y="6.5" width="31" height="31" rx="2.5" stroke="white"/>
<mask id="mask0_367_11150" style="mask-type:alpha" maskUnits="userSpaceOnUse" x="133" y="10" width="24" height="24">
<rect x="133" y="10" width="24" height="24" fill="#D9D9D9"/>
</mask>
<g mask="url(#mask0_367_11150)">
<path d="M142.001 30C141.718 30 141.48 29.9042 141.289 29.7125C141.097 29.5208 141.001 29.2833 141.001 29V23L135.085 15.45C134.846 15.15 134.811 14.8333 134.98 14.5C135.15 14.1667 135.424 14 135.801 14H150.201C150.579 14 150.853 14.1667 151.022 14.5C151.192 14.8333 151.157 15.15 150.918 15.45L145.001 23V29C145.001 29.2833 144.905 29.5208 144.714 29.7125C144.522 29.9042 144.285 30 144.001 30H142.001Z" fill="#F0F1F2"/>
</g>
<circle cx="157" cy="7" r="4.5" fill="#006159" stroke="white"/>
</g>
<mask id="path-6-inside-1_367_11150" fill="white">
<path d="M150.486 49.4854L142.001 57.9707L133.516 49.4854L142.001 41L150.486 49.4854Z"/>
</mask>
<path d="M150.486 49.4854L142.001 57.9707L133.516 49.4854L142.001 41L150.486 49.4854Z" fill="white"/>
<path d="M150.486 49.4854L151.193 50.1925L151.901 49.4854L151.193 48.7782L150.486 49.4854ZM142.001 57.9707L141.294 58.6778L142.001 59.3849L142.708 58.6778L142.001 57.9707ZM133.516 49.4854L132.809 48.7782L132.101 49.4854L132.809 50.1925L133.516 49.4854ZM142.001 41L142.708 40.2929L142.001 39.5858L141.294 40.2929L142.001 41ZM150.486 49.4854L149.779 48.7782L141.294 57.2636L142.001 57.9707L142.708 58.6778L151.193 50.1925L150.486 49.4854ZM142.001 57.9707L142.708 57.2636L134.223 48.7782L133.516 49.4854L132.809 50.1925L141.294 58.6778L142.001 57.9707ZM133.516 49.4854L134.223 50.1925L142.708 41.7071L142.001 41L141.294 40.2929L132.809 48.7782L133.516 49.4854ZM142.001 41L141.294 41.7071L149.779 50.1925L150.486 49.4854L151.193 48.7782L142.708 40.2929L142.001 41Z" fill="#CCCED4" mask="url(#path-6-inside-1_367_11150)"/>
<g filter="url(#filter1_dd_367_11150)">
<rect x="5" y="49" width="170" height="158" rx="6" fill="white"/>
<rect x="5.5" y="49.5" width="169" height="157" rx="5.5" stroke="#CCCED4"/>
<mask id="mask1_367_11150" style="mask-type:alpha" maskUnits="userSpaceOnUse" x="23" y="64" width="16" height="16">
<rect x="23" y="64" width="16" height="16" fill="#D9D9D9"/>
</mask>
<g mask="url(#mask1_367_11150)">
<path d="M26.1111 76.8891H26.9111L33.75 70.0502L32.95 69.2502L26.1111 76.0891V76.8891ZM36.1111 69.2502L33.7445 66.8946L34.5203 66.1188C34.7327 65.9064 34.9954 65.8021 35.3083 65.8058C35.6213 65.8095 35.8833 65.9169 36.0945 66.128L36.8833 66.9169C37.0944 67.128 37.2019 67.3863 37.2056 67.6919C37.2093 67.9974 37.1057 68.2556 36.8949 68.4664L36.1111 69.2502ZM25.5592 78.0002C25.4007 78.0002 25.2679 77.9466 25.1608 77.8395C25.0536 77.7323 25 77.5996 25 77.4412V75.862C25 75.7875 25.013 75.7178 25.0389 75.653C25.0648 75.5882 25.1074 75.5261 25.1667 75.4669L32.9556 67.678L35.3222 70.0446L27.5333 77.8335C27.4741 77.8928 27.4112 77.9354 27.3448 77.9613C27.2784 77.9872 27.2097 78.0002 27.1389 78.0002H25.5592Z" fill="#1C1B1F"/>
</g>
<path d="M54.21 76H48.092V66.662H54.21V67.698H49.254V70.708H54.112V71.744H49.254V74.964H54.21V76ZM61.9707 76H60.9207V74.992C60.342 75.776 59.5814 76.168 58.6387 76.168C57.7427 76.168 57.0147 75.8507 56.4547 75.216C55.904 74.572 55.6287 73.7087 55.6287 72.626C55.6287 71.5527 55.904 70.694 56.4547 70.05C57.0147 69.3967 57.7427 69.07 58.6387 69.07C59.572 69.07 60.3327 69.4667 60.9207 70.26V66.662H61.9707V76ZM60.9207 74.166V71.1C60.7247 70.792 60.4354 70.5353 60.0527 70.33C59.6794 70.1153 59.292 70.008 58.8907 70.008C58.228 70.008 57.7007 70.2553 57.3087 70.75C56.9167 71.2353 56.7207 71.8607 56.7207 72.626C56.7207 73.3913 56.9167 74.0167 57.3087 74.502C57.7007 74.9873 58.228 75.23 58.8907 75.23C59.3014 75.23 59.6934 75.1273 60.0667 74.922C60.44 74.7167 60.7247 74.4647 60.9207 74.166ZM64.5914 68.104C64.4048 68.104 64.2414 68.034 64.1014 67.894C63.9614 67.754 63.8914 67.586 63.8914 67.39C63.8914 67.194 63.9614 67.0307 64.1014 66.9C64.2414 66.76 64.4048 66.69 64.5914 66.69C64.7874 66.69 64.9554 66.76 65.0954 66.9C65.2354 67.0307 65.3054 67.194 65.3054 67.39C65.3054 67.586 65.2354 67.754 65.0954 67.894C64.9554 68.034 64.7874 68.104 64.5914 68.104ZM65.1234 76H64.0734V69.238H65.1234V76ZM68.926 76.168C68.4313 76.168 68.058 76.0327 67.806 75.762C67.554 75.4913 67.428 75.0993 67.428 74.586V70.162H66.308V69.238H67.428V67.39H68.478V69.238H69.85V70.162H68.478V74.362C68.478 74.6233 68.534 74.8333 68.646 74.992C68.7673 75.1507 68.94 75.23 69.164 75.23C69.472 75.23 69.71 75.1367 69.878 74.95L70.186 75.734C69.878 76.0233 69.458 76.168 68.926 76.168ZM76.1466 76H74.9846V66.662H81.1026V67.698H76.1466V70.708H81.0046V71.744H76.1466V76ZM83.1578 68.104C82.9712 68.104 82.8078 68.034 82.6678 67.894C82.5278 67.754 82.4578 67.586 82.4578 67.39C82.4578 67.194 82.5278 67.0307 82.6678 66.9C82.8078 66.76 82.9712 66.69 83.1578 66.69C83.3538 66.69 83.5218 66.76 83.6618 66.9C83.8018 67.0307 83.8718 67.194 83.8718 67.39C83.8718 67.586 83.8018 67.754 83.6618 67.894C83.5218 68.034 83.3538 68.104 83.1578 68.104ZM83.6898 76H82.6398V69.238H83.6898V76ZM86.8344 76H85.7844V66.662H86.8344V76ZM90.6369 76.168C90.1422 76.168 89.7689 76.0327 89.5169 75.762C89.2649 75.4913 89.1389 75.0993 89.1389 74.586V70.162H88.0189V69.238H89.1389V67.39H90.1889V69.238H91.5609V70.162H90.1889V74.362C90.1889 74.6233 90.2449 74.8333 90.3569 74.992C90.4782 75.1507 90.6509 75.23 90.8749 75.23C91.1829 75.23 91.4209 75.1367 91.5889 74.95L91.8969 75.734C91.5889 76.0233 91.1689 76.168 90.6369 76.168ZM92.6521 72.612C92.6521 71.6227 92.9695 70.7873 93.6041 70.106C94.2388 69.4153 95.0321 69.07 95.9841 69.07C96.9828 69.07 97.7715 69.4153 98.3501 70.106C98.9381 70.7873 99.2321 71.6507 99.2321 72.696V72.962H93.7581C93.8048 73.6247 94.0475 74.18 94.4861 74.628C94.9248 75.076 95.4941 75.3 96.1941 75.3C97.0341 75.3 97.7295 75.0153 98.2801 74.446L98.7841 75.132C98.0935 75.8227 97.1975 76.168 96.0961 76.168C95.0881 76.168 94.2621 75.8413 93.6181 75.188C92.9741 74.5253 92.6521 73.6667 92.6521 72.612ZM95.9701 69.938C95.2981 69.938 94.7661 70.1667 94.3741 70.624C93.9915 71.0813 93.7861 71.604 93.7581 72.192H98.1961C98.1868 71.6133 97.9908 71.0953 97.6081 70.638C97.2255 70.1713 96.6795 69.938 95.9701 69.938ZM101.983 76H100.933V69.238H101.983V70.33C102.608 69.5087 103.359 69.098 104.237 69.098V70.176C104.106 70.148 103.966 70.134 103.817 70.134C103.499 70.134 103.154 70.246 102.781 70.47C102.407 70.694 102.141 70.9413 101.983 71.212V76Z" fill="#20232A"/>
<mask id="mask2_367_11150" style="mask-type:alpha" maskUnits="userSpaceOnUse" x="23" y="100" width="16" height="16">
<rect x="23" y="100" width="16" height="16" fill="#D9D9D9"/>
</mask>
<g mask="url(#mask2_367_11150)">
<path d="M28.2223 108.522H33.7778C33.9352 108.522 34.0672 108.468 34.1737 108.362C34.2801 108.255 34.3334 108.122 34.3334 107.964C34.3334 107.806 34.2801 107.675 34.1737 107.569C34.0672 107.464 33.9352 107.411 33.7778 107.411H28.2223C28.0649 107.411 27.9329 107.464 27.8264 107.571C27.7199 107.678 27.6667 107.81 27.6667 107.968C27.6667 108.126 27.7199 108.258 27.8264 108.364C27.9329 108.469 28.0649 108.522 28.2223 108.522ZM31.003 114.666C30.0827 114.666 29.2179 114.491 28.4086 114.141C27.5992 113.791 26.8926 113.314 26.2889 112.711C25.6852 112.107 25.2084 111.4 24.8584 110.59C24.5084 109.78 24.3334 108.915 24.3334 107.994C24.3334 107.073 24.5084 106.208 24.8584 105.398C25.2084 104.588 25.6852 103.883 26.2889 103.283C26.8926 102.683 27.5995 102.208 28.4094 101.858C29.2193 101.508 30.0847 101.333 31.0056 101.333C31.9265 101.333 32.7919 101.508 33.6018 101.858C34.4117 102.208 35.1167 102.683 35.7167 103.283C36.3167 103.883 36.7917 104.589 37.1417 105.4C37.4917 106.211 37.6667 107.076 37.6667 107.997C37.6667 108.917 37.4917 109.782 37.1417 110.591C36.7917 111.401 36.3167 112.106 35.7167 112.709C35.1167 113.311 34.4112 113.788 33.6 114.139C32.7889 114.491 31.9232 114.666 31.003 114.666ZM31.0056 113.555C32.55 113.555 33.8612 113.014 34.9389 111.933C36.0167 110.852 36.5556 109.539 36.5556 107.994C36.5556 106.45 36.0174 105.139 34.941 104.061C33.8646 102.983 32.551 102.444 31 102.444C29.4593 102.444 28.1482 102.982 27.0667 104.059C25.9852 105.135 25.4445 106.449 25.4445 108C25.4445 109.54 25.9852 110.852 27.0667 111.933C28.1482 113.014 29.4611 113.555 31.0056 113.555Z" fill="#1C1B1F"/>
</g>
<path d="M54.868 112H53.496L51.116 108.29H49.254V112H48.092V102.662H51.844C52.712 102.662 53.4167 102.919 53.958 103.432C54.4993 103.945 54.77 104.627 54.77 105.476C54.77 106.279 54.5367 106.918 54.07 107.394C53.6033 107.87 53.0293 108.136 52.348 108.192L54.868 112ZM53.048 106.764C53.3933 106.428 53.566 105.999 53.566 105.476C53.566 104.953 53.3933 104.529 53.048 104.202C52.7027 103.866 52.2547 103.698 51.704 103.698H49.254V107.268H51.704C52.2547 107.268 52.7027 107.1 53.048 106.764ZM55.7518 108.612C55.7518 107.623 56.0691 106.787 56.7038 106.106C57.3384 105.415 58.1318 105.07 59.0838 105.07C60.0824 105.07 60.8711 105.415 61.4498 106.106C62.0378 106.787 62.3318 107.651 62.3318 108.696V108.962H56.8578C56.9044 109.625 57.1471 110.18 57.5858 110.628C58.0244 111.076 58.5938 111.3 59.2938 111.3C60.1338 111.3 60.8291 111.015 61.3798 110.446L61.8838 111.132C61.1931 111.823 60.2971 112.168 59.1958 112.168C58.1878 112.168 57.3618 111.841 56.7178 111.188C56.0738 110.525 55.7518 109.667 55.7518 108.612ZM59.0698 105.938C58.3978 105.938 57.8658 106.167 57.4738 106.624C57.0911 107.081 56.8858 107.604 56.8578 108.192H61.2958C61.2864 107.613 61.0904 107.095 60.7078 106.638C60.3251 106.171 59.7791 105.938 59.0698 105.938ZM73.2444 112H72.1944V107.408C72.1944 106.475 71.7791 106.008 70.9484 106.008C70.6124 106.008 70.2764 106.111 69.9404 106.316C69.6044 106.521 69.3431 106.764 69.1564 107.044V112H68.1064V107.408C68.1064 106.475 67.6911 106.008 66.8604 106.008C66.5338 106.008 66.2024 106.111 65.8664 106.316C65.5398 106.521 65.2784 106.769 65.0824 107.058V112H64.0324V105.238H65.0824V106.218C65.2504 105.957 65.5444 105.7 65.9644 105.448C66.3844 105.196 66.8184 105.07 67.2664 105.07C67.7611 105.07 68.1624 105.187 68.4704 105.42C68.7784 105.653 68.9838 105.957 69.0864 106.33C69.2918 105.994 69.6044 105.7 70.0244 105.448C70.4444 105.196 70.8878 105.07 71.3544 105.07C72.6144 105.07 73.2444 105.751 73.2444 107.114V112ZM80.7151 111.146C80.1084 111.827 79.3011 112.168 78.2931 112.168C77.2851 112.168 76.4731 111.827 75.8571 111.146C75.2504 110.465 74.9471 109.62 74.9471 108.612C74.9471 107.604 75.2504 106.764 75.8571 106.092C76.4731 105.411 77.2851 105.07 78.2931 105.07C79.3011 105.07 80.1084 105.411 80.7151 106.092C81.3311 106.764 81.6391 107.604 81.6391 108.612C81.6391 109.62 81.3311 110.465 80.7151 111.146ZM76.6411 110.474C77.0517 110.978 77.6024 111.23 78.2931 111.23C78.9837 111.23 79.5297 110.978 79.9311 110.474C80.3324 109.961 80.5331 109.34 80.5331 108.612C80.5331 107.884 80.3324 107.268 79.9311 106.764C79.5297 106.26 78.9837 106.008 78.2931 106.008C77.6024 106.008 77.0517 106.265 76.6411 106.778C76.2397 107.282 76.0391 107.893 76.0391 108.612C76.0391 109.34 76.2397 109.961 76.6411 110.474ZM86.3048 112H85.1568L82.3428 105.238H83.4768L85.7308 110.782L87.9708 105.238H89.1188L86.3048 112ZM89.8221 108.612C89.8221 107.623 90.1394 106.787 90.7741 106.106C91.4087 105.415 92.2021 105.07 93.1541 105.07C94.1527 105.07 94.9414 105.415 95.5201 106.106C96.1081 106.787 96.4021 107.651 96.4021 108.696V108.962H90.9281C90.9747 109.625 91.2174 110.18 91.6561 110.628C92.0947 111.076 92.6641 111.3 93.3641 111.3C94.2041 111.3 94.8994 111.015 95.4501 110.446L95.9541 111.132C95.2634 111.823 94.3674 112.168 93.2661 112.168C92.2581 112.168 91.4321 111.841 90.7881 111.188C90.1441 110.525 89.8221 109.667 89.8221 108.612ZM93.1401 105.938C92.4681 105.938 91.9361 106.167 91.5441 106.624C91.1614 107.081 90.9561 107.604 90.9281 108.192H95.3661C95.3567 107.613 95.1607 107.095 94.7781 106.638C94.3954 106.171 93.8494 105.938 93.1401 105.938ZM102.916 112H101.754V102.662H107.872V103.698H102.916V106.708H107.774V107.744H102.916V112ZM109.927 104.104C109.741 104.104 109.577 104.034 109.437 103.894C109.297 103.754 109.227 103.586 109.227 103.39C109.227 103.194 109.297 103.031 109.437 102.9C109.577 102.76 109.741 102.69 109.927 102.69C110.123 102.69 110.291 102.76 110.431 102.9C110.571 103.031 110.641 103.194 110.641 103.39C110.641 103.586 110.571 103.754 110.431 103.894C110.291 104.034 110.123 104.104 109.927 104.104ZM110.459 112H109.409V105.238H110.459V112ZM113.604 112H112.554V102.662H113.604V112ZM117.406 112.168C116.912 112.168 116.538 112.033 116.286 111.762C116.034 111.491 115.908 111.099 115.908 110.586V106.162H114.788V105.238H115.908V103.39H116.958V105.238H118.33V106.162H116.958V110.362C116.958 110.623 117.014 110.833 117.126 110.992C117.248 111.151 117.42 111.23 117.644 111.23C117.952 111.23 118.19 111.137 118.358 110.95L118.666 111.734C118.358 112.023 117.938 112.168 117.406 112.168ZM119.422 108.612C119.422 107.623 119.739 106.787 120.374 106.106C121.008 105.415 121.802 105.07 122.754 105.07C123.752 105.07 124.541 105.415 125.12 106.106C125.708 106.787 126.002 107.651 126.002 108.696V108.962H120.528C120.574 109.625 120.817 110.18 121.256 110.628C121.694 111.076 122.264 111.3 122.964 111.3C123.804 111.3 124.499 111.015 125.05 110.446L125.554 111.132C124.863 111.823 123.967 112.168 122.866 112.168C121.858 112.168 121.032 111.841 120.388 111.188C119.744 110.525 119.422 109.667 119.422 108.612ZM122.74 105.938C122.068 105.938 121.536 106.167 121.144 106.624C120.761 107.081 120.556 107.604 120.528 108.192H124.966C124.956 107.613 124.76 107.095 124.378 106.638C123.995 106.171 123.449 105.938 122.74 105.938ZM128.752 112H127.702V105.238H128.752V106.33C129.378 105.509 130.129 105.098 131.006 105.098V106.176C130.876 106.148 130.736 106.134 130.586 106.134C130.269 106.134 129.924 106.246 129.55 106.47C129.177 106.694 128.911 106.941 128.752 107.212V112Z" fill="#20232A"/>
<mask id="path-18-inside-2_367_11150" fill="white">
<path d="M5 127H175V201H5V127Z"/>
</mask>
<path d="M5 127V128H175V127V126H5V127Z" fill="#CCCED4" mask="url(#path-18-inside-2_367_11150)"/>
<mask id="mask3_367_11150" style="mask-type:alpha" maskUnits="userSpaceOnUse" x="23" y="139" width="18" height="18">
<rect x="23" y="139" width="18" height="18" fill="#D9D9D9"/>
</mask>
<g mask="url(#mask3_367_11150)">
<path d="M31.9978 153.25C31.8201 153.25 31.6719 153.19 31.5531 153.07C31.4344 152.951 31.375 152.802 31.375 152.625V148.625H27.375C27.1979 148.625 27.0495 148.565 26.9297 148.445C26.8099 148.324 26.75 148.176 26.75 147.998C26.75 147.82 26.8099 147.672 26.9297 147.553C27.0495 147.434 27.1979 147.375 27.375 147.375H31.375V143.375C31.375 143.198 31.4351 143.049 31.5553 142.93C31.6755 142.81 31.8245 142.75 32.0022 142.75C32.1799 142.75 32.3281 142.81 32.4469 142.93C32.5656 143.049 32.625 143.198 32.625 143.375V147.375H36.625C36.8021 147.375 36.9505 147.435 37.0703 147.555C37.1901 147.676 37.25 147.824 37.25 148.002C37.25 148.18 37.1901 148.328 37.0703 148.447C36.9505 148.566 36.8021 148.625 36.625 148.625H32.625V152.625C32.625 152.802 32.5649 152.951 32.4447 153.07C32.3245 153.19 32.1755 153.25 31.9978 153.25Z" fill="#1C1B1F"/>
</g>
<path d="M54.474 152.168C53.13 152.168 52.0007 151.715 51.086 150.81C50.1713 149.905 49.714 148.747 49.714 147.338C49.714 145.929 50.1713 144.771 51.086 143.866C52.0007 142.961 53.13 142.508 54.474 142.508C55.9953 142.508 57.19 143.124 58.058 144.356L57.078 144.902C56.8073 144.501 56.4387 144.174 55.972 143.922C55.5147 143.67 55.0153 143.544 54.474 143.544C53.466 143.544 52.6213 143.903 51.94 144.622C51.2587 145.331 50.918 146.237 50.918 147.338C50.918 148.439 51.2587 149.349 51.94 150.068C52.6213 150.777 53.466 151.132 54.474 151.132C55.0153 151.132 55.5147 151.011 55.972 150.768C56.4387 150.516 56.8073 150.185 57.078 149.774L58.072 150.32C57.1667 151.552 55.9673 152.168 54.474 152.168ZM60.5609 152H59.5109V145.238H60.5609V146.33C61.1863 145.509 61.9376 145.098 62.8149 145.098V146.176C62.6843 146.148 62.5443 146.134 62.3949 146.134C62.0776 146.134 61.7323 146.246 61.3589 146.47C60.9856 146.694 60.7196 146.941 60.5609 147.212V152ZM63.74 148.612C63.74 147.623 64.0574 146.787 64.692 146.106C65.3267 145.415 66.12 145.07 67.072 145.07C68.0707 145.07 68.8594 145.415 69.438 146.106C70.026 146.787 70.32 147.651 70.32 148.696V148.962H64.846C64.8927 149.625 65.1354 150.18 65.574 150.628C66.0127 151.076 66.582 151.3 67.282 151.3C68.122 151.3 68.8174 151.015 69.368 150.446L69.872 151.132C69.1814 151.823 68.2854 152.168 67.184 152.168C66.176 152.168 65.35 151.841 64.706 151.188C64.062 150.525 63.74 149.667 63.74 148.612ZM67.058 145.938C66.386 145.938 65.854 146.167 65.462 146.624C65.0794 147.081 64.874 147.604 64.846 148.192H69.284C69.2747 147.613 69.0787 147.095 68.696 146.638C68.3134 146.171 67.7674 145.938 67.058 145.938ZM77.2987 152H76.2487V151.23C75.6794 151.855 74.9327 152.168 74.0087 152.168C73.3834 152.168 72.8327 151.967 72.3567 151.566C71.8807 151.165 71.6427 150.619 71.6427 149.928C71.6427 149.219 71.876 148.673 72.3427 148.29C72.8187 147.898 73.374 147.702 74.0087 147.702C74.97 147.702 75.7167 148.01 76.2487 148.626V147.408C76.2487 146.96 76.09 146.61 75.7727 146.358C75.4554 146.106 75.0447 145.98 74.5407 145.98C73.7474 145.98 73.0567 146.293 72.4687 146.918L71.9787 146.19C72.6974 145.443 73.598 145.07 74.6807 145.07C75.4554 145.07 76.0854 145.257 76.5707 145.63C77.056 146.003 77.2987 146.577 77.2987 147.352V152ZM76.2487 150.572V149.298C75.8474 148.738 75.2267 148.458 74.3867 148.458C73.9014 148.458 73.5 148.598 73.1827 148.878C72.8747 149.149 72.7207 149.503 72.7207 149.942C72.7207 150.371 72.8747 150.726 73.1827 151.006C73.5 151.277 73.9014 151.412 74.3867 151.412C75.2267 151.412 75.8474 151.132 76.2487 150.572ZM81.1115 152.168C80.6168 152.168 80.2435 152.033 79.9915 151.762C79.7395 151.491 79.6135 151.099 79.6135 150.586V146.162H78.4935V145.238H79.6135V143.39H80.6635V145.238H82.0355V146.162H80.6635V150.362C80.6635 150.623 80.7195 150.833 80.8315 150.992C80.9528 151.151 81.1255 151.23 81.3495 151.23C81.6575 151.23 81.8955 151.137 82.0635 150.95L82.3715 151.734C82.0635 152.023 81.6435 152.168 81.1115 152.168ZM83.1268 148.612C83.1268 147.623 83.4441 146.787 84.0788 146.106C84.7134 145.415 85.5068 145.07 86.4588 145.07C87.4574 145.07 88.2461 145.415 88.8248 146.106C89.4128 146.787 89.7068 147.651 89.7068 148.696V148.962H84.2328C84.2794 149.625 84.5221 150.18 84.9608 150.628C85.3994 151.076 85.9688 151.3 86.6688 151.3C87.5088 151.3 88.2041 151.015 88.7548 150.446L89.2588 151.132C88.5681 151.823 87.6721 152.168 86.5708 152.168C85.5628 152.168 84.7368 151.841 84.0928 151.188C83.4488 150.525 83.1268 149.667 83.1268 148.612ZM86.4448 145.938C85.7728 145.938 85.2408 146.167 84.8488 146.624C84.4661 147.081 84.2608 147.604 84.2328 148.192H88.6708C88.6614 147.613 88.4654 147.095 88.0828 146.638C87.7001 146.171 87.1541 145.938 86.4448 145.938ZM102.787 152H101.667L96.2208 144.468V152H95.0588V142.662H96.2488L101.625 150.04V142.662H102.787V152ZM104.537 148.612C104.537 147.623 104.854 146.787 105.489 146.106C106.124 145.415 106.917 145.07 107.869 145.07C108.868 145.07 109.656 145.415 110.235 146.106C110.823 146.787 111.117 147.651 111.117 148.696V148.962H105.643C105.69 149.625 105.932 150.18 106.371 150.628C106.81 151.076 107.379 151.3 108.079 151.3C108.919 151.3 109.614 151.015 110.165 150.446L110.669 151.132C109.978 151.823 109.082 152.168 107.981 152.168C106.973 152.168 106.147 151.841 105.503 151.188C104.859 150.525 104.537 149.667 104.537 148.612ZM107.855 145.938C107.183 145.938 106.651 146.167 106.259 146.624C105.876 147.081 105.671 147.604 105.643 148.192H110.081C110.072 147.613 109.876 147.095 109.493 146.638C109.11 146.171 108.564 145.938 107.855 145.938ZM119.72 152H118.67L116.906 146.568L115.142 152H114.092L111.936 145.238H113.028L114.68 150.628L116.458 145.238H117.354L119.132 150.628L120.784 145.238H121.876L119.72 152ZM127.912 152H126.75V142.662H132.868V143.698H127.912V146.708H132.77V147.744H127.912V152ZM134.923 144.104C134.737 144.104 134.573 144.034 134.433 143.894C134.293 143.754 134.223 143.586 134.223 143.39C134.223 143.194 134.293 143.031 134.433 142.9C134.573 142.76 134.737 142.69 134.923 142.69C135.119 142.69 135.287 142.76 135.427 142.9C135.567 143.031 135.637 143.194 135.637 143.39C135.637 143.586 135.567 143.754 135.427 143.894C135.287 144.034 135.119 144.104 134.923 144.104ZM135.455 152H134.405V145.238H135.455V152ZM138.6 152H137.55V142.662H138.6V152ZM142.403 152.168C141.908 152.168 141.535 152.033 141.283 151.762C141.031 151.491 140.905 151.099 140.905 150.586V146.162H139.785V145.238H140.905V143.39H141.955V145.238H143.327V146.162H141.955V150.362C141.955 150.623 142.011 150.833 142.123 150.992C142.244 151.151 142.417 151.23 142.641 151.23C142.949 151.23 143.187 151.137 143.355 150.95L143.663 151.734C143.355 152.023 142.935 152.168 142.403 152.168ZM144.418 148.612C144.418 147.623 144.735 146.787 145.37 146.106C146.004 145.415 146.798 145.07 147.75 145.07C148.748 145.07 149.537 145.415 150.116 146.106C150.704 146.787 150.998 147.651 150.998 148.696V148.962H145.524C145.57 149.625 145.813 150.18 146.252 150.628C146.69 151.076 147.26 151.3 147.96 151.3C148.8 151.3 149.495 151.015 150.046 150.446L150.55 151.132C149.859 151.823 148.963 152.168 147.862 152.168C146.854 152.168 146.028 151.841 145.384 151.188C144.74 150.525 144.418 149.667 144.418 148.612ZM147.736 145.938C147.064 145.938 146.532 146.167 146.14 146.624C145.757 147.081 145.552 147.604 145.524 148.192H149.962C149.952 147.613 149.756 147.095 149.374 146.638C148.991 146.171 148.445 145.938 147.736 145.938ZM153.748 152H152.698V145.238H153.748V146.33C154.374 145.509 155.125 145.098 156.002 145.098V146.176C155.872 146.148 155.732 146.134 155.582 146.134C155.265 146.134 154.92 146.246 154.546 146.47C154.173 146.694 153.907 146.941 153.748 147.212V152Z" fill="#20232A"/>
<rect x="11" y="167" width="158" height="34" rx="6" fill="#E7E8EA"/>
<mask id="mask4_367_11150" style="mask-type:alpha" maskUnits="userSpaceOnUse" x="23" y="176" width="16" height="16">
<rect x="23" y="176" width="16" height="16" fill="#D9D9D9"/>
</mask>
<g mask="url(#mask4_367_11150)">
<path d="M30.3334 189.334C30.1445 189.334 29.9862 189.27 29.8584 189.142C29.7306 189.014 29.6667 188.856 29.6667 188.667V184.667L25.7223 179.634C25.563 179.434 25.5399 179.223 25.6528 179C25.7658 178.778 25.9482 178.667 26.2001 178.667H35.8001C36.0519 178.667 36.2343 178.778 36.3473 179C36.4602 179.223 36.4371 179.434 36.2778 179.634L32.3334 184.667V188.667C32.3334 188.856 32.2695 189.014 32.1417 189.142C32.0139 189.27 31.8556 189.334 31.6667 189.334H30.3334ZM31.0001 184.556L34.7667 179.778H27.2334L31.0001 184.556Z" fill="#1C1B1F"/>
</g>
<path d="M47.532 186.684L48.218 185.802C49.0113 186.689 49.9913 187.132 51.158 187.132C51.914 187.132 52.4693 186.973 52.824 186.656C53.1787 186.329 53.356 185.951 53.356 185.522C53.356 185.307 53.3093 185.116 53.216 184.948C53.1227 184.771 53.0153 184.631 52.894 184.528C52.7727 184.416 52.586 184.309 52.334 184.206C52.0913 184.094 51.886 184.015 51.718 183.968C51.5593 183.921 51.3167 183.851 50.99 183.758C50.5793 183.646 50.2713 183.562 50.066 183.506C49.8607 183.441 49.5853 183.333 49.24 183.184C48.904 183.035 48.652 182.881 48.484 182.722C48.316 182.554 48.162 182.335 48.022 182.064C47.8913 181.784 47.826 181.467 47.826 181.112C47.826 180.347 48.1293 179.726 48.736 179.25C49.3427 178.765 50.108 178.522 51.032 178.522C52.4227 178.522 53.5287 178.956 54.35 179.824L53.65 180.678C52.9687 179.931 52.068 179.558 50.948 179.558C50.388 179.558 49.926 179.698 49.562 179.978C49.2073 180.249 49.03 180.603 49.03 181.042C49.03 181.219 49.0767 181.383 49.17 181.532C49.2633 181.681 49.3613 181.803 49.464 181.896C49.576 181.989 49.7533 182.083 49.996 182.176C50.248 182.269 50.444 182.339 50.584 182.386C50.7333 182.433 50.9713 182.498 51.298 182.582C51.6993 182.694 52.012 182.783 52.236 182.848C52.46 182.913 52.74 183.025 53.076 183.184C53.4213 183.343 53.6827 183.515 53.86 183.702C54.0467 183.879 54.21 184.117 54.35 184.416C54.49 184.715 54.56 185.051 54.56 185.424C54.56 186.189 54.2753 186.838 53.706 187.37C53.146 187.902 52.2827 188.168 51.116 188.168C49.604 188.168 48.4093 187.673 47.532 186.684ZM61.5311 188H60.4811V187.23C59.9118 187.855 59.1651 188.168 58.2411 188.168C57.6158 188.168 57.0651 187.967 56.5891 187.566C56.1131 187.165 55.8751 186.619 55.8751 185.928C55.8751 185.219 56.1085 184.673 56.5751 184.29C57.0511 183.898 57.6065 183.702 58.2411 183.702C59.2025 183.702 59.9491 184.01 60.4811 184.626V183.408C60.4811 182.96 60.3225 182.61 60.0051 182.358C59.6878 182.106 59.2771 181.98 58.7731 181.98C57.9798 181.98 57.2891 182.293 56.7011 182.918L56.2111 182.19C56.9298 181.443 57.8305 181.07 58.9131 181.07C59.6878 181.07 60.3178 181.257 60.8031 181.63C61.2885 182.003 61.5311 182.577 61.5311 183.352V188ZM60.4811 186.572V185.298C60.0798 184.738 59.4591 184.458 58.6191 184.458C58.1338 184.458 57.7325 184.598 57.4151 184.878C57.1071 185.149 56.9531 185.503 56.9531 185.942C56.9531 186.371 57.1071 186.726 57.4151 187.006C57.7325 187.277 58.1338 187.412 58.6191 187.412C59.4591 187.412 60.0798 187.132 60.4811 186.572ZM66.5899 188H65.4419L62.6279 181.238H63.7619L66.0159 186.782L68.2559 181.238H69.4039L66.5899 188ZM70.1072 184.612C70.1072 183.623 70.4246 182.787 71.0592 182.106C71.6939 181.415 72.4872 181.07 73.4392 181.07C74.4379 181.07 75.2266 181.415 75.8052 182.106C76.3932 182.787 76.6872 183.651 76.6872 184.696V184.962H71.2132C71.2599 185.625 71.5026 186.18 71.9412 186.628C72.3799 187.076 72.9492 187.3 73.6492 187.3C74.4892 187.3 75.1846 187.015 75.7352 186.446L76.2392 187.132C75.5486 187.823 74.6526 188.168 73.5512 188.168C72.5432 188.168 71.7172 187.841 71.0732 187.188C70.4292 186.525 70.1072 185.667 70.1072 184.612ZM73.4252 181.938C72.7532 181.938 72.2212 182.167 71.8292 182.624C71.4466 183.081 71.2412 183.604 71.2132 184.192H75.6512C75.6419 183.613 75.4459 183.095 75.0632 182.638C74.6806 182.171 74.1346 181.938 73.4252 181.938ZM84.3379 188H83.2879V186.992C82.7092 187.776 81.9486 188.168 81.0059 188.168C80.1099 188.168 79.3819 187.851 78.8219 187.216C78.2712 186.572 77.9959 185.709 77.9959 184.626C77.9959 183.553 78.2712 182.694 78.8219 182.05C79.3819 181.397 80.1099 181.07 81.0059 181.07C81.9392 181.07 82.6999 181.467 83.2879 182.26V178.662H84.3379V188ZM83.2879 186.166V183.1C83.0919 182.792 82.8026 182.535 82.4199 182.33C82.0466 182.115 81.6592 182.008 81.2579 182.008C80.5952 182.008 80.0679 182.255 79.6759 182.75C79.2839 183.235 79.0879 183.861 79.0879 184.626C79.0879 185.391 79.2839 186.017 79.6759 186.502C80.0679 186.987 80.5952 187.23 81.2579 187.23C81.6686 187.23 82.0606 187.127 82.4339 186.922C82.8072 186.717 83.0919 186.465 83.2879 186.166ZM91.254 188H90.092V178.662H96.21V179.698H91.254V182.708H96.112V183.744H91.254V188ZM98.2653 180.104C98.0786 180.104 97.9153 180.034 97.7753 179.894C97.6353 179.754 97.5653 179.586 97.5653 179.39C97.5653 179.194 97.6353 179.031 97.7753 178.9C97.9153 178.76 98.0786 178.69 98.2653 178.69C98.4613 178.69 98.6293 178.76 98.7693 178.9C98.9093 179.031 98.9793 179.194 98.9793 179.39C98.9793 179.586 98.9093 179.754 98.7693 179.894C98.6293 180.034 98.4613 180.104 98.2653 180.104ZM98.7973 188H97.7473V181.238H98.7973V188ZM101.942 188H100.892V178.662H101.942V188ZM105.744 188.168C105.25 188.168 104.876 188.033 104.624 187.762C104.372 187.491 104.246 187.099 104.246 186.586V182.162H103.126V181.238H104.246V179.39H105.296V181.238H106.668V182.162H105.296V186.362C105.296 186.623 105.352 186.833 105.464 186.992C105.586 187.151 105.758 187.23 105.982 187.23C106.29 187.23 106.528 187.137 106.696 186.95L107.004 187.734C106.696 188.023 106.276 188.168 105.744 188.168ZM107.76 184.612C107.76 183.623 108.077 182.787 108.712 182.106C109.346 181.415 110.14 181.07 111.092 181.07C112.09 181.07 112.879 181.415 113.458 182.106C114.046 182.787 114.34 183.651 114.34 184.696V184.962H108.866C108.912 185.625 109.155 186.18 109.594 186.628C110.032 187.076 110.602 187.3 111.302 187.3C112.142 187.3 112.837 187.015 113.388 186.446L113.892 187.132C113.201 187.823 112.305 188.168 111.204 188.168C110.196 188.168 109.37 187.841 108.726 187.188C108.082 186.525 107.76 185.667 107.76 184.612ZM111.078 181.938C110.406 181.938 109.874 182.167 109.482 182.624C109.099 183.081 108.894 183.604 108.866 184.192H113.304C113.294 183.613 113.098 183.095 112.716 182.638C112.333 182.171 111.787 181.938 111.078 181.938ZM117.09 188H116.04V181.238H117.09V182.33C117.716 181.509 118.467 181.098 119.344 181.098V182.176C119.214 182.148 119.074 182.134 118.924 182.134C118.607 182.134 118.262 182.246 117.888 182.47C117.515 182.694 117.249 182.941 117.09 183.212V188ZM120.073 187.104L120.619 186.348C120.853 186.619 121.17 186.847 121.571 187.034C121.982 187.221 122.407 187.314 122.845 187.314C123.349 187.314 123.741 187.211 124.021 187.006C124.301 186.801 124.441 186.53 124.441 186.194C124.441 186.017 124.395 185.863 124.301 185.732C124.217 185.601 124.082 185.489 123.895 185.396C123.709 185.303 123.531 185.228 123.363 185.172C123.205 185.116 122.985 185.055 122.705 184.99C122.397 184.915 122.159 184.859 121.991 184.822C121.833 184.775 121.623 184.701 121.361 184.598C121.1 184.486 120.904 184.369 120.773 184.248C120.643 184.117 120.521 183.949 120.409 183.744C120.307 183.529 120.255 183.287 120.255 183.016C120.255 182.465 120.479 182.003 120.927 181.63C121.385 181.257 122.001 181.07 122.775 181.07C123.793 181.07 124.628 181.397 125.281 182.05L124.791 182.778C124.315 182.209 123.643 181.924 122.775 181.924C122.318 181.924 121.954 182.017 121.683 182.204C121.413 182.391 121.277 182.638 121.277 182.946C121.277 183.245 121.413 183.469 121.683 183.618C121.963 183.758 122.379 183.893 122.929 184.024C123.237 184.089 123.48 184.15 123.657 184.206C123.835 184.253 124.054 184.332 124.315 184.444C124.577 184.556 124.777 184.682 124.917 184.822C125.067 184.953 125.193 185.13 125.295 185.354C125.407 185.578 125.463 185.835 125.463 186.124C125.463 186.721 125.23 187.211 124.763 187.594C124.297 187.977 123.643 188.168 122.803 188.168C121.655 188.168 120.745 187.813 120.073 187.104Z" fill="#20232A"/>
</g>
<defs>
<filter id="filter0_dd_367_11150" x="124" y="0" width="41" height="42" filterUnits="userSpaceOnUse" color-interpolation-filters="sRGB">
<feFlood flood-opacity="0" result="BackgroundImageFix"/>
<feColorMatrix in="SourceAlpha" type="matrix" values="0 0 0 0 0 0 0 0 0 0 0 0 0 0 0 0 0 0 127 0" result="hardAlpha"/>
<feOffset dy="1"/>
<feGaussianBlur stdDeviation="1.5"/>
<feColorMatrix type="matrix" values="0 0 0 0 0 0 0 0 0 0 0 0 0 0 0 0 0 0 0.1 0"/>
<feBlend mode="normal" in2="BackgroundImageFix" result="effect1_dropShadow_367_11150"/>
<feColorMatrix in="SourceAlpha" type="matrix" values="0 0 0 0 0 0 0 0 0 0 0 0 0 0 0 0 0 0 127 0" result="hardAlpha"/>
<feMorphology radius="1" operator="erode" in="SourceAlpha" result="effect2_dropShadow_367_11150"/>
<feOffset dy="1"/>
<feGaussianBlur stdDeviation="1"/>
<feColorMatrix type="matrix" values="0 0 0 0 0 0 0 0 0 0 0 0 0 0 0 0 0 0 0.1 0"/>
<feBlend mode="normal" in2="effect1_dropShadow_367_11150" result="effect2_dropShadow_367_11150"/>
<feBlend mode="normal" in="SourceGraphic" in2="effect2_dropShadow_367_11150" result="shape"/>
</filter>
<filter id="filter1_dd_367_11150" x="0" y="48" width="180" height="168" filterUnits="userSpaceOnUse" color-interpolation-filters="sRGB">
<feFlood flood-opacity="0" result="BackgroundImageFix"/>
<feColorMatrix in="SourceAlpha" type="matrix" values="0 0 0 0 0 0 0 0 0 0 0 0 0 0 0 0 0 0 127 0" result="hardAlpha"/>
<feMorphology radius="1" operator="erode" in="SourceAlpha" result="effect1_dropShadow_367_11150"/>
<feOffset dy="4"/>
<feGaussianBlur stdDeviation="3"/>
<feColorMatrix type="matrix" values="0 0 0 0 0 0 0 0 0 0 0 0 0 0 0 0 0 0 0.1 0"/>
<feBlend mode="normal" in2="BackgroundImageFix" result="effect1_dropShadow_367_11150"/>
<feColorMatrix in="SourceAlpha" type="matrix" values="0 0 0 0 0 0 0 0 0 0 0 0 0 0 0 0 0 0 127 0" result="hardAlpha"/>
<feMorphology radius="2" operator="erode" in="SourceAlpha" result="effect2_dropShadow_367_11150"/>
<feOffset dy="2"/>
<feGaussianBlur stdDeviation="2"/>
<feColorMatrix type="matrix" values="0 0 0 0 0 0 0 0 0 0 0 0 0 0 0 0 0 0 0.1 0"/>
<feBlend mode="normal" in2="effect1_dropShadow_367_11150" result="effect2_dropShadow_367_11150"/>
<feBlend mode="normal" in="SourceGraphic" in2="effect2_dropShadow_367_11150" result="shape"/>
</filter>
</defs>
</svg>
