<svg width="1366" height="768" viewBox="0 0 1366 768" fill="none" xmlns="http://www.w3.org/2000/svg">
<rect width="1366" height="768" fill="#211E1F" fill-opacity="0.6"/>
<path d="M392 206C392 202.686 394.686 200 398 200H968C971.314 200 974 202.686 974 206V248H392V206Z" fill="#20232A"/>
<path d="M588.487 228.308L589.657 226.688C590.689 227.792 591.955 228.344 593.455 228.344C594.259 228.344 594.859 228.182 595.255 227.858C595.663 227.534 595.867 227.15 595.867 226.706C595.867 226.502 595.813 226.316 595.705 226.148C595.597 225.968 595.477 225.83 595.345 225.734C595.213 225.626 594.997 225.518 594.697 225.41C594.409 225.29 594.175 225.206 593.995 225.158C593.815 225.098 593.527 225.02 593.131 224.924C592.603 224.792 592.195 224.684 591.907 224.6C591.619 224.516 591.247 224.378 590.791 224.186C590.347 223.982 590.005 223.772 589.765 223.556C589.537 223.328 589.327 223.022 589.135 222.638C588.955 222.254 588.865 221.816 588.865 221.324C588.865 220.316 589.267 219.482 590.071 218.822C590.887 218.15 591.943 217.814 593.239 217.814C595.087 217.814 596.587 218.372 597.739 219.488L596.533 221.054C595.621 220.142 594.463 219.686 593.059 219.686C592.435 219.686 591.937 219.824 591.565 220.1C591.205 220.364 591.025 220.724 591.025 221.18C591.025 221.408 591.085 221.606 591.205 221.774C591.337 221.93 591.547 222.074 591.835 222.206C592.135 222.338 592.399 222.44 592.627 222.512C592.855 222.572 593.203 222.662 593.671 222.782C594.199 222.914 594.607 223.028 594.895 223.124C595.195 223.208 595.573 223.352 596.029 223.556C596.485 223.76 596.833 223.982 597.073 224.222C597.313 224.45 597.529 224.762 597.721 225.158C597.913 225.554 598.009 226.004 598.009 226.508C598.009 227.588 597.619 228.476 596.839 229.172C596.059 229.868 594.901 230.216 593.365 230.216C591.301 230.216 589.675 229.58 588.487 228.308ZM607.095 230H605.205V229.064C604.533 229.832 603.597 230.216 602.397 230.216C601.605 230.216 600.903 229.964 600.291 229.46C599.679 228.944 599.373 228.236 599.373 227.336C599.373 226.412 599.673 225.71 600.273 225.23C600.885 224.75 601.593 224.51 602.397 224.51C603.633 224.51 604.569 224.882 605.205 225.626V224.33C605.205 223.826 605.019 223.43 604.647 223.142C604.275 222.854 603.783 222.71 603.171 222.71C602.199 222.71 601.341 223.076 600.597 223.808L599.823 222.494C600.807 221.558 602.025 221.09 603.477 221.09C604.545 221.09 605.415 221.342 606.087 221.846C606.759 222.35 607.095 223.148 607.095 224.24V230ZM605.205 228.02V226.706C604.773 226.106 604.083 225.806 603.135 225.806C602.595 225.806 602.151 225.95 601.803 226.238C601.455 226.526 601.281 226.904 601.281 227.372C601.281 227.84 601.455 228.218 601.803 228.506C602.151 228.782 602.595 228.92 603.135 228.92C604.083 228.92 604.773 228.62 605.205 228.02ZM613.865 230H611.831L608.285 221.306H610.301L612.839 227.822L615.377 221.306H617.411L613.865 230ZM618.058 225.644C618.058 224.372 618.472 223.298 619.3 222.422C620.14 221.534 621.196 221.09 622.468 221.09C623.752 221.09 624.784 221.534 625.564 222.422C626.356 223.31 626.752 224.444 626.752 225.824V226.274H620.038C620.11 226.958 620.392 227.528 620.884 227.984C621.376 228.44 622.018 228.668 622.81 228.668C623.254 228.668 623.698 228.584 624.142 228.416C624.598 228.248 624.976 228.014 625.276 227.714L626.14 228.956C625.264 229.796 624.088 230.216 622.612 230.216C621.292 230.216 620.2 229.796 619.336 228.956C618.484 228.104 618.058 227 618.058 225.644ZM622.468 222.638C621.724 222.638 621.142 222.872 620.722 223.34C620.302 223.796 620.068 224.33 620.02 224.942H624.916C624.892 224.342 624.67 223.808 624.25 223.34C623.842 222.872 623.248 222.638 622.468 222.638ZM640.963 227.642C641.767 228.482 642.541 229.268 643.285 230H640.819C640.627 229.82 640.273 229.472 639.757 228.956C638.761 229.796 637.639 230.216 636.391 230.216C635.263 230.216 634.333 229.922 633.601 229.334C632.881 228.734 632.521 227.888 632.521 226.796C632.521 225.956 632.749 225.272 633.205 224.744C633.673 224.204 634.315 223.718 635.131 223.286C634.567 222.278 634.285 221.402 634.285 220.658C634.285 219.842 634.591 219.164 635.203 218.624C635.827 218.084 636.607 217.814 637.543 217.814C638.395 217.814 639.103 218.036 639.667 218.48C640.231 218.924 640.513 219.524 640.513 220.28C640.513 220.712 640.435 221.102 640.279 221.45C640.123 221.786 639.877 222.092 639.541 222.368C639.217 222.644 638.917 222.86 638.641 223.016C638.377 223.172 638.005 223.37 637.525 223.61C637.849 224.066 638.239 224.558 638.695 225.086C638.959 225.41 639.355 225.872 639.883 226.472C640.387 225.716 640.783 224.882 641.071 223.97L642.619 224.672C642.115 225.836 641.563 226.826 640.963 227.642ZM636.193 220.694C636.193 221.162 636.391 221.762 636.787 222.494C637.459 222.182 637.969 221.864 638.317 221.54C638.665 221.216 638.839 220.826 638.839 220.37C638.839 220.01 638.725 219.728 638.497 219.524C638.269 219.32 637.981 219.218 637.633 219.218C637.225 219.218 636.883 219.356 636.607 219.632C636.331 219.908 636.193 220.262 636.193 220.694ZM636.625 228.704C637.345 228.704 638.035 228.422 638.695 227.858C638.119 227.222 637.627 226.67 637.219 226.202C636.715 225.59 636.271 225.014 635.887 224.474C634.987 225.086 634.537 225.806 634.537 226.634C634.537 227.27 634.741 227.774 635.149 228.146C635.557 228.518 636.049 228.704 636.625 228.704ZM660.284 230H657.98L657.098 227.696H651.41L650.528 230H648.224L652.94 217.994H655.568L660.284 230ZM656.504 225.842L654.254 219.776L652.004 225.842H656.504ZM663.431 228.794V233.312H661.541V221.306H663.431V222.494C664.127 221.558 665.057 221.09 666.221 221.09C667.361 221.09 668.285 221.498 668.993 222.314C669.713 223.13 670.073 224.24 670.073 225.644C670.073 227.048 669.713 228.164 668.993 228.992C668.285 229.808 667.361 230.216 666.221 230.216C665.069 230.216 664.139 229.742 663.431 228.794ZM667.445 227.732C667.889 227.192 668.111 226.496 668.111 225.644C668.111 224.792 667.889 224.102 667.445 223.574C667.001 223.034 666.407 222.764 665.663 222.764C665.231 222.764 664.805 222.878 664.385 223.106C663.965 223.334 663.647 223.61 663.431 223.934V227.372C663.647 227.696 663.965 227.972 664.385 228.2C664.805 228.428 665.231 228.542 665.663 228.542C666.407 228.542 667.001 228.272 667.445 227.732ZM673.873 228.794V233.312H671.983V221.306H673.873V222.494C674.569 221.558 675.499 221.09 676.663 221.09C677.803 221.09 678.727 221.498 679.435 222.314C680.155 223.13 680.515 224.24 680.515 225.644C680.515 227.048 680.155 228.164 679.435 228.992C678.727 229.808 677.803 230.216 676.663 230.216C675.511 230.216 674.581 229.742 673.873 228.794ZM677.887 227.732C678.331 227.192 678.553 226.496 678.553 225.644C678.553 224.792 678.331 224.102 677.887 223.574C677.443 223.034 676.849 222.764 676.105 222.764C675.673 222.764 675.247 222.878 674.827 223.106C674.407 223.334 674.089 223.61 673.873 223.934V227.372C674.089 227.696 674.407 227.972 674.827 228.2C675.247 228.428 675.673 228.542 676.105 228.542C676.849 228.542 677.443 228.272 677.887 227.732ZM684.314 230H682.424V217.994H684.314V230ZM686.388 233.402L686.676 231.71C686.892 231.806 687.132 231.854 687.396 231.854C688.008 231.854 688.422 231.602 688.638 231.098L689.07 230.108L685.506 221.306H687.522L690.06 227.822L692.598 221.306H694.632L690.438 231.566C689.922 232.85 688.926 233.504 687.45 233.528C687.054 233.528 686.7 233.486 686.388 233.402ZM702.602 230H700.496V217.994H708.722V219.848H702.602V222.962H708.596V224.816H702.602V230ZM711.485 219.866C711.173 219.866 710.897 219.752 710.657 219.524C710.429 219.296 710.315 219.02 710.315 218.696C710.315 218.372 710.429 218.096 710.657 217.868C710.897 217.64 711.173 217.526 711.485 217.526C711.809 217.526 712.085 217.64 712.313 217.868C712.541 218.096 712.655 218.372 712.655 218.696C712.655 219.02 712.541 219.296 712.313 219.524C712.085 219.752 711.809 219.866 711.485 219.866ZM712.439 230H710.549V221.306H712.439V230ZM716.781 230H714.891V217.994H716.781V230ZM721.843 230.216C721.111 230.216 720.553 230.024 720.169 229.64C719.797 229.256 719.611 228.704 719.611 227.984V222.962H718.171V221.306H719.611V218.93H721.501V221.306H723.265V222.962H721.501V227.516C721.501 227.828 721.573 228.08 721.717 228.272C721.861 228.452 722.065 228.542 722.329 228.542C722.713 228.542 722.995 228.44 723.175 228.236L723.625 229.658C723.229 230.03 722.635 230.216 721.843 230.216ZM724.441 225.644C724.441 224.372 724.855 223.298 725.683 222.422C726.523 221.534 727.579 221.09 728.851 221.09C730.135 221.09 731.167 221.534 731.947 222.422C732.739 223.31 733.135 224.444 733.135 225.824V226.274H726.421C726.493 226.958 726.775 227.528 727.267 227.984C727.759 228.44 728.401 228.668 729.193 228.668C729.637 228.668 730.081 228.584 730.525 228.416C730.981 228.248 731.359 228.014 731.659 227.714L732.523 228.956C731.647 229.796 730.471 230.216 728.995 230.216C727.675 230.216 726.583 229.796 725.719 228.956C724.867 228.104 724.441 227 724.441 225.644ZM728.851 222.638C728.107 222.638 727.525 222.872 727.105 223.34C726.685 223.796 726.451 224.33 726.403 224.942H731.299C731.275 224.342 731.053 223.808 730.633 223.34C730.225 222.872 729.631 222.638 728.851 222.638ZM736.89 230H735V221.306H736.89V222.584C737.226 222.152 737.646 221.798 738.15 221.522C738.654 221.246 739.176 221.108 739.716 221.108V222.98C739.548 222.944 739.35 222.926 739.122 222.926C738.726 222.926 738.3 223.046 737.844 223.286C737.4 223.514 737.082 223.778 736.89 224.078V230Z" fill="#F0F1F2"/>
<path d="M953.06 224L957.48 219.58C957.554 219.511 957.613 219.428 957.654 219.336C957.695 219.244 957.717 219.145 957.719 219.044C957.72 218.944 957.702 218.844 957.664 218.75C957.626 218.657 957.57 218.572 957.499 218.501C957.428 218.43 957.343 218.374 957.25 218.336C957.156 218.298 957.056 218.28 956.955 218.281C956.855 218.283 956.755 218.305 956.663 218.346C956.571 218.387 956.489 218.446 956.42 218.52L952 222.94L947.58 218.52C947.438 218.387 947.25 218.315 947.055 218.319C946.861 218.322 946.676 218.401 946.538 218.538C946.401 218.676 946.322 218.861 946.319 219.055C946.315 219.25 946.388 219.438 946.52 219.58L950.94 224L946.52 228.42C946.38 228.561 946.301 228.751 946.301 228.95C946.301 229.149 946.38 229.339 946.52 229.48C946.661 229.62 946.851 229.699 947.05 229.699C947.249 229.699 947.439 229.62 947.58 229.48L952 225.06L956.42 229.48C956.561 229.62 956.751 229.699 956.95 229.699C957.149 229.699 957.339 229.62 957.48 229.48C957.62 229.339 957.699 229.149 957.699 228.95C957.699 228.751 957.62 228.561 957.48 228.42L953.06 224Z" fill="#F0F1F2"/>
<rect width="582" height="182" transform="translate(392 248)" fill="white"/>
<path d="M434.632 309H432.994V299.662H439.392V301.104H434.632V303.526H439.294V304.968H434.632V309ZM441.541 301.118C441.299 301.118 441.084 301.029 440.897 300.852C440.72 300.675 440.631 300.46 440.631 300.208C440.631 299.956 440.72 299.741 440.897 299.564C441.084 299.387 441.299 299.298 441.541 299.298C441.793 299.298 442.008 299.387 442.185 299.564C442.363 299.741 442.451 299.956 442.451 300.208C442.451 300.46 442.363 300.675 442.185 300.852C442.008 301.029 441.793 301.118 441.541 301.118ZM442.283 309H440.813V302.238H442.283V309ZM445.66 309H444.19V299.662H445.66V309ZM449.597 309.168C449.028 309.168 448.594 309.019 448.295 308.72C448.006 308.421 447.861 307.992 447.861 307.432V303.526H446.741V302.238H447.861V300.39H449.331V302.238H450.703V303.526H449.331V307.068C449.331 307.311 449.387 307.507 449.499 307.656C449.611 307.796 449.77 307.866 449.975 307.866C450.274 307.866 450.493 307.787 450.633 307.628L450.983 308.734C450.675 309.023 450.213 309.168 449.597 309.168ZM451.618 305.612C451.618 304.623 451.94 303.787 452.584 303.106C453.237 302.415 454.059 302.07 455.048 302.07C456.047 302.07 456.849 302.415 457.456 303.106C458.072 303.797 458.38 304.679 458.38 305.752V306.102H453.158C453.214 306.634 453.433 307.077 453.816 307.432C454.199 307.787 454.698 307.964 455.314 307.964C455.659 307.964 456.005 307.899 456.35 307.768C456.705 307.637 456.999 307.455 457.232 307.222L457.904 308.188C457.223 308.841 456.308 309.168 455.16 309.168C454.133 309.168 453.284 308.841 452.612 308.188C451.949 307.525 451.618 306.667 451.618 305.612ZM455.048 303.274C454.469 303.274 454.017 303.456 453.69 303.82C453.363 304.175 453.181 304.59 453.144 305.066H456.952C456.933 304.599 456.761 304.184 456.434 303.82C456.117 303.456 455.655 303.274 455.048 303.274ZM461.301 309H459.831V302.238H461.301V303.232C461.562 302.896 461.889 302.621 462.281 302.406C462.673 302.191 463.079 302.084 463.499 302.084V303.54C463.368 303.512 463.214 303.498 463.037 303.498C462.729 303.498 462.398 303.591 462.043 303.778C461.698 303.955 461.45 304.161 461.301 304.394V309ZM476.414 309H474.832L469.96 302.196V309H468.322V299.662H470.002L474.776 306.284V299.662H476.414V309ZM483.956 309H482.486V308.272C481.964 308.869 481.236 309.168 480.302 309.168C479.686 309.168 479.14 308.972 478.664 308.58C478.188 308.179 477.95 307.628 477.95 306.928C477.95 306.209 478.184 305.663 478.65 305.29C479.126 304.917 479.677 304.73 480.302 304.73C481.264 304.73 481.992 305.019 482.486 305.598V304.59C482.486 304.198 482.342 303.89 482.052 303.666C481.763 303.442 481.38 303.33 480.904 303.33C480.148 303.33 479.481 303.615 478.902 304.184L478.3 303.162C479.066 302.434 480.013 302.07 481.142 302.07C481.973 302.07 482.65 302.266 483.172 302.658C483.695 303.05 483.956 303.671 483.956 304.52V309ZM482.486 307.46V306.438C482.15 305.971 481.614 305.738 480.876 305.738C480.456 305.738 480.111 305.85 479.84 306.074C479.57 306.298 479.434 306.592 479.434 306.956C479.434 307.32 479.57 307.614 479.84 307.838C480.111 308.053 480.456 308.16 480.876 308.16C481.614 308.16 482.15 307.927 482.486 307.46ZM495.62 309H494.15V304.59C494.15 303.778 493.781 303.372 493.044 303.372C492.736 303.372 492.437 303.461 492.148 303.638C491.859 303.815 491.635 304.025 491.476 304.268V309H490.006V304.59C490.006 303.778 489.633 303.372 488.886 303.372C488.587 303.372 488.293 303.461 488.004 303.638C487.724 303.815 487.5 304.03 487.332 304.282V309H485.862V302.238H487.332V303.162C487.5 302.91 487.789 302.667 488.2 302.434C488.62 302.191 489.063 302.07 489.53 302.07C490.51 302.07 491.126 302.485 491.378 303.316C491.593 302.98 491.91 302.691 492.33 302.448C492.75 302.196 493.198 302.07 493.674 302.07C494.971 302.07 495.62 302.751 495.62 304.114V309ZM497.104 305.612C497.104 304.623 497.426 303.787 498.07 303.106C498.724 302.415 499.545 302.07 500.534 302.07C501.533 302.07 502.336 302.415 502.942 303.106C503.558 303.797 503.866 304.679 503.866 305.752V306.102H498.644C498.7 306.634 498.92 307.077 499.302 307.432C499.685 307.787 500.184 307.964 500.8 307.964C501.146 307.964 501.491 307.899 501.836 307.768C502.191 307.637 502.485 307.455 502.718 307.222L503.39 308.188C502.709 308.841 501.794 309.168 500.646 309.168C499.62 309.168 498.77 308.841 498.098 308.188C497.436 307.525 497.104 306.667 497.104 305.612ZM500.534 303.274C499.956 303.274 499.503 303.456 499.176 303.82C498.85 304.175 498.668 304.59 498.63 305.066H502.438C502.42 304.599 502.247 304.184 501.92 303.82C501.603 303.456 501.141 303.274 500.534 303.274Z" fill="#111827"/>
<mask id="path-6-inside-1_367_10214" fill="white">
<path d="M432 332C432 330.343 433.343 329 435 329H931C932.657 329 934 330.343 934 332V355C934 356.657 932.657 358 931 358H435C433.343 358 432 356.657 432 355V332Z"/>
</mask>
<path d="M432 332C432 330.343 433.343 329 435 329H931C932.657 329 934 330.343 934 332V355C934 356.657 932.657 358 931 358H435C433.343 358 432 356.657 432 355V332Z" fill="white"/>
<path d="M432 329H934H432M934 355C934 357.209 932.209 359 930 359H436C433.791 359 432 357.209 432 355C432 356.105 433.343 357 435 357H931C932.657 357 934 356.105 934 355ZM934 355M432 358V329V358M432 358M934 329V358V329" fill="#111827" mask="url(#path-6-inside-1_367_10214)"/>
<path d="M439.084 346H433.162V336.662H439.084V337.39H433.96V340.848H438.986V341.576H433.96V345.272H439.084V346ZM446.328 346H445.6V341.422C445.6 340.806 445.46 340.372 445.18 340.12C444.9 339.859 444.494 339.728 443.962 339.728C443.542 339.728 443.127 339.84 442.716 340.064C442.306 340.288 441.988 340.563 441.764 340.89V346H441.036V339.238H441.764V340.26C442.035 339.943 442.394 339.667 442.842 339.434C443.29 339.191 443.743 339.07 444.2 339.07C445.619 339.07 446.328 339.803 446.328 341.268V346ZM450.067 346.168C449.18 346.168 448.737 345.678 448.737 344.698V339.882H447.617V339.238H448.737V337.39H449.479V339.238H450.851V339.882H449.479V344.586C449.479 345.202 449.712 345.51 450.179 345.51C450.487 345.51 450.739 345.403 450.935 345.188L451.215 345.748C450.916 346.028 450.534 346.168 450.067 346.168ZM452.06 342.612C452.06 341.623 452.368 340.787 452.984 340.106C453.61 339.415 454.389 339.07 455.322 339.07C456.312 339.07 457.091 339.415 457.66 340.106C458.23 340.787 458.514 341.637 458.514 342.654V342.85H452.858C452.896 343.615 453.152 344.255 453.628 344.768C454.104 345.281 454.73 345.538 455.504 345.538C456.4 345.538 457.138 345.225 457.716 344.6L458.094 345.076C457.394 345.804 456.512 346.168 455.448 346.168C454.459 346.168 453.647 345.837 453.012 345.174C452.378 344.511 452.06 343.657 452.06 342.612ZM455.308 339.7C454.571 339.7 453.983 339.966 453.544 340.498C453.115 341.021 452.886 341.613 452.858 342.276H457.772C457.763 341.623 457.544 341.03 457.114 340.498C456.694 339.966 456.092 339.7 455.308 339.7ZM461.124 346H460.396V339.238H461.124V340.4C461.786 339.532 462.547 339.098 463.406 339.098V339.896C463.322 339.877 463.2 339.868 463.042 339.868C462.706 339.868 462.342 339.994 461.95 340.246C461.558 340.498 461.282 340.773 461.124 341.072V346ZM468.014 348.646L468.14 347.974C468.308 348.049 468.504 348.086 468.728 348.086C469.185 348.086 469.526 347.811 469.75 347.26L470.282 346.056L467.426 339.238H468.238L470.702 345.146L473.138 339.238H473.964L470.464 347.484C470.109 348.324 469.531 348.744 468.728 348.744C468.467 348.744 468.229 348.711 468.014 348.646ZM478.058 346.168C477.088 346.168 476.304 345.827 475.706 345.146C475.109 344.465 474.81 343.62 474.81 342.612C474.81 341.604 475.109 340.764 475.706 340.092C476.304 339.411 477.088 339.07 478.058 339.07C479.038 339.07 479.827 339.411 480.424 340.092C481.022 340.764 481.32 341.604 481.32 342.612C481.32 343.62 481.022 344.465 480.424 345.146C479.827 345.827 479.038 346.168 478.058 346.168ZM478.058 345.51C478.824 345.51 479.426 345.23 479.864 344.67C480.312 344.101 480.536 343.415 480.536 342.612C480.536 341.819 480.312 341.142 479.864 340.582C479.426 340.013 478.824 339.728 478.058 339.728C477.302 339.728 476.7 340.013 476.252 340.582C475.814 341.142 475.594 341.819 475.594 342.612C475.594 343.405 475.814 344.087 476.252 344.656C476.7 345.225 477.302 345.51 478.058 345.51ZM488.492 346H487.764V345.006C487.456 345.342 487.088 345.622 486.658 345.846C486.229 346.061 485.786 346.168 485.328 346.168C484.619 346.168 484.087 345.995 483.732 345.65C483.378 345.295 483.2 344.745 483.2 343.998V339.238H483.928V343.83C483.928 344.455 484.068 344.894 484.348 345.146C484.628 345.389 485.034 345.51 485.566 345.51C485.986 345.51 486.397 345.403 486.798 345.188C487.209 344.973 487.531 344.707 487.764 344.39V339.238H488.492V346ZM491.489 346H490.761V339.238H491.489V340.4C492.152 339.532 492.912 339.098 493.771 339.098V339.896C493.687 339.877 493.566 339.868 493.407 339.868C493.071 339.868 492.707 339.994 492.315 340.246C491.923 340.498 491.648 340.773 491.489 341.072V346ZM499.793 339.882V346H499.065V339.882H497.945V339.238H499.065V338.622C499.065 337.959 499.229 337.446 499.555 337.082C499.882 336.709 500.33 336.522 500.899 336.522C501.263 336.522 501.567 336.592 501.809 336.732L501.585 337.306C501.408 337.203 501.203 337.152 500.969 337.152C500.185 337.152 499.793 337.642 499.793 338.622V339.238H501.165V339.882H499.793ZM503.293 337.936C503.181 338.039 503.051 338.09 502.901 338.09C502.752 338.09 502.621 338.034 502.509 337.922C502.397 337.81 502.341 337.679 502.341 337.53C502.341 337.381 502.397 337.25 502.509 337.138C502.621 337.026 502.752 336.97 502.901 336.97C503.051 336.97 503.181 337.026 503.293 337.138C503.405 337.241 503.461 337.371 503.461 337.53C503.461 337.689 503.405 337.824 503.293 337.936ZM503.265 346H502.537V339.238H503.265V346ZM506.241 346H505.513V336.662H506.241V346ZM509.977 346.168C509.09 346.168 508.647 345.678 508.647 344.698V339.882H507.527V339.238H508.647V337.39H509.389V339.238H510.761V339.882H509.389V344.586C509.389 345.202 509.622 345.51 510.089 345.51C510.397 345.51 510.649 345.403 510.845 345.188L511.125 345.748C510.826 346.028 510.444 346.168 509.977 346.168ZM511.971 342.612C511.971 341.623 512.279 340.787 512.895 340.106C513.52 339.415 514.299 339.07 515.233 339.07C516.222 339.07 517.001 339.415 517.571 340.106C518.14 340.787 518.425 341.637 518.425 342.654V342.85H512.769C512.806 343.615 513.063 344.255 513.539 344.768C514.015 345.281 514.64 345.538 515.415 345.538C516.311 345.538 517.048 345.225 517.627 344.6L518.005 345.076C517.305 345.804 516.423 346.168 515.359 346.168C514.369 346.168 513.557 345.837 512.923 345.174C512.288 344.511 511.971 343.657 511.971 342.612ZM515.219 339.7C514.481 339.7 513.893 339.966 513.455 340.498C513.025 341.021 512.797 341.613 512.769 342.276H517.683C517.673 341.623 517.454 341.03 517.025 340.498C516.605 339.966 516.003 339.7 515.219 339.7ZM521.034 346H520.306V339.238H521.034V340.4C521.697 339.532 522.457 339.098 523.316 339.098V339.896C523.232 339.877 523.111 339.868 522.952 339.868C522.616 339.868 522.252 339.994 521.86 340.246C521.468 340.498 521.193 340.773 521.034 341.072V346ZM533.664 346H532.936V341.422C532.936 340.806 532.796 340.372 532.516 340.12C532.236 339.859 531.83 339.728 531.298 339.728C530.878 339.728 530.463 339.84 530.052 340.064C529.642 340.288 529.324 340.563 529.1 340.89V346H528.372V339.238H529.1V340.26C529.371 339.943 529.73 339.667 530.178 339.434C530.626 339.191 531.079 339.07 531.536 339.07C532.955 339.07 533.664 339.803 533.664 341.268V346ZM540.959 346H540.231V345.202C539.643 345.846 538.877 346.168 537.935 346.168C537.309 346.168 536.759 345.967 536.283 345.566C535.807 345.155 535.569 344.605 535.569 343.914C535.569 343.214 535.802 342.668 536.269 342.276C536.745 341.875 537.3 341.674 537.935 341.674C538.887 341.674 539.652 341.996 540.231 342.64V341.268C540.231 340.783 540.058 340.405 539.713 340.134C539.367 339.854 538.933 339.714 538.411 339.714C537.58 339.714 536.875 340.045 536.297 340.708L535.891 340.204C536.591 339.448 537.459 339.07 538.495 339.07C539.223 339.07 539.815 339.252 540.273 339.616C540.73 339.98 540.959 340.521 540.959 341.24V346ZM540.231 344.67V343.186C539.745 342.561 539.064 342.248 538.187 342.248C537.636 342.248 537.188 342.407 536.843 342.724C536.507 343.041 536.339 343.443 536.339 343.928C536.339 344.413 536.507 344.815 536.843 345.132C537.188 345.44 537.636 345.594 538.187 345.594C539.073 345.594 539.755 345.286 540.231 344.67ZM552.012 346H551.284V341.268C551.284 340.241 550.831 339.728 549.926 339.728C549.571 339.728 549.207 339.84 548.834 340.064C548.47 340.288 548.19 340.559 547.994 340.876V346H547.252V341.268C547.252 340.241 546.799 339.728 545.894 339.728C545.548 339.728 545.194 339.845 544.83 340.078C544.466 340.302 544.176 340.573 543.962 340.89V346H543.234V339.238H543.962V340.26C544.13 339.989 544.424 339.723 544.844 339.462C545.273 339.201 545.707 339.07 546.146 339.07C546.64 339.07 547.037 339.191 547.336 339.434C547.634 339.677 547.83 339.98 547.924 340.344C548.129 340.008 548.442 339.714 548.862 339.462C549.282 339.201 549.716 339.07 550.164 339.07C551.396 339.07 552.012 339.756 552.012 341.128V346ZM553.888 342.612C553.888 341.623 554.196 340.787 554.812 340.106C555.438 339.415 556.217 339.07 557.15 339.07C558.14 339.07 558.919 339.415 559.488 340.106C560.058 340.787 560.342 341.637 560.342 342.654V342.85H554.686C554.724 343.615 554.98 344.255 555.456 344.768C555.932 345.281 556.558 345.538 557.332 345.538C558.228 345.538 558.966 345.225 559.544 344.6L559.922 345.076C559.222 345.804 558.34 346.168 557.276 346.168C556.287 346.168 555.475 345.837 554.84 345.174C554.206 344.511 553.888 343.657 553.888 342.612ZM557.136 339.7C556.399 339.7 555.811 339.966 555.372 340.498C554.943 341.021 554.714 341.613 554.686 342.276H559.6C559.591 341.623 559.372 341.03 558.942 340.498C558.522 339.966 557.92 339.7 557.136 339.7ZM571.139 346H570.411V341.394C570.411 340.778 570.271 340.349 569.991 340.106C569.711 339.854 569.305 339.728 568.773 339.728C568.353 339.728 567.938 339.84 567.527 340.064C567.116 340.288 566.799 340.563 566.575 340.89V346H565.847V336.662H566.575V340.26C566.846 339.943 567.205 339.667 567.653 339.434C568.101 339.191 568.554 339.07 569.011 339.07C570.43 339.07 571.139 339.793 571.139 341.24V346ZM573.015 342.612C573.015 341.623 573.323 340.787 573.939 340.106C574.565 339.415 575.344 339.07 576.277 339.07C577.267 339.07 578.046 339.415 578.615 340.106C579.185 340.787 579.469 341.637 579.469 342.654V342.85H573.813C573.851 343.615 574.107 344.255 574.583 344.768C575.059 345.281 575.685 345.538 576.459 345.538C577.355 345.538 578.093 345.225 578.671 344.6L579.049 345.076C578.349 345.804 577.467 346.168 576.403 346.168C575.414 346.168 574.602 345.837 573.967 345.174C573.333 344.511 573.015 343.657 573.015 342.612ZM576.263 339.7C575.526 339.7 574.938 339.966 574.499 340.498C574.07 341.021 573.841 341.613 573.813 342.276H578.727C578.718 341.623 578.499 341.03 578.069 340.498C577.649 339.966 577.047 339.7 576.263 339.7ZM582.079 346H581.351V339.238H582.079V340.4C582.741 339.532 583.502 339.098 584.361 339.098V339.896C584.277 339.877 584.155 339.868 583.997 339.868C583.661 339.868 583.297 339.994 582.905 340.246C582.513 340.498 582.237 340.773 582.079 341.072V346ZM585.402 342.612C585.402 341.623 585.71 340.787 586.326 340.106C586.951 339.415 587.731 339.07 588.664 339.07C589.653 339.07 590.433 339.415 591.002 340.106C591.571 340.787 591.856 341.637 591.856 342.654V342.85H586.2C586.237 343.615 586.494 344.255 586.97 344.768C587.446 345.281 588.071 345.538 588.846 345.538C589.742 345.538 590.479 345.225 591.058 344.6L591.436 345.076C590.736 345.804 589.854 346.168 588.79 346.168C587.801 346.168 586.989 345.837 586.354 345.174C585.719 344.511 585.402 343.657 585.402 342.612ZM588.65 339.7C587.913 339.7 587.325 339.966 586.886 340.498C586.457 341.021 586.228 341.613 586.2 342.276H591.114C591.105 341.623 590.885 341.03 590.456 340.498C590.036 339.966 589.434 339.7 588.65 339.7Z" fill="#CCCED4"/>
<mask id="path-9-inside-2_367_10214" fill="white">
<path d="M392 430H974V482C974 485.314 971.314 488 968 488H398C394.686 488 392 485.314 392 482V430Z"/>
</mask>
<path d="M392 430H974V482C974 485.314 971.314 488 968 488H398C394.686 488 392 485.314 392 482V430Z" fill="white"/>
<path d="M392 429H974V431H392V429ZM392 431M974 488H392H974M974 488M392 488V430V488M392 488M974 430V488V430" fill="#F0F1F2" mask="url(#path-9-inside-2_367_10214)"/>
<rect x="569.5" y="442.5" width="106" height="33" rx="2.5" fill="#E7E8EA"/>
<rect x="569.5" y="442.5" width="106" height="33" rx="2.5" stroke="#E7E8EA"/>
<path d="M605.904 463.168C604.541 463.168 603.393 462.715 602.46 461.81C601.536 460.905 601.074 459.747 601.074 458.338C601.074 456.929 601.536 455.771 602.46 454.866C603.393 453.961 604.541 453.508 605.904 453.508C607.575 453.508 608.849 454.208 609.726 455.608L608.326 456.322C608.093 455.921 607.761 455.594 607.332 455.342C606.903 455.09 606.427 454.964 605.904 454.964C605.008 454.964 604.257 455.286 603.65 455.93C603.053 456.565 602.754 457.367 602.754 458.338C602.754 459.309 603.053 460.116 603.65 460.76C604.257 461.395 605.008 461.712 605.904 461.712C606.427 461.712 606.903 461.586 607.332 461.334C607.761 461.082 608.093 460.755 608.326 460.354L609.726 461.068C608.83 462.468 607.556 463.168 605.904 463.168ZM616.595 463H615.125V462.272C614.602 462.869 613.874 463.168 612.941 463.168C612.325 463.168 611.779 462.972 611.303 462.58C610.827 462.179 610.589 461.628 610.589 460.928C610.589 460.209 610.822 459.663 611.289 459.29C611.765 458.917 612.316 458.73 612.941 458.73C613.902 458.73 614.63 459.019 615.125 459.598V458.59C615.125 458.198 614.98 457.89 614.691 457.666C614.402 457.442 614.019 457.33 613.543 457.33C612.787 457.33 612.12 457.615 611.541 458.184L610.939 457.162C611.704 456.434 612.652 456.07 613.781 456.07C614.612 456.07 615.288 456.266 615.811 456.658C616.334 457.05 616.595 457.671 616.595 458.52V463ZM615.125 461.46V460.438C614.789 459.971 614.252 459.738 613.515 459.738C613.095 459.738 612.75 459.85 612.479 460.074C612.208 460.298 612.073 460.592 612.073 460.956C612.073 461.32 612.208 461.614 612.479 461.838C612.75 462.053 613.095 462.16 613.515 462.16C614.252 462.16 614.789 461.927 615.125 461.46ZM624.535 463H623.065V458.772C623.065 457.839 622.612 457.372 621.707 457.372C621.352 457.372 621.021 457.461 620.713 457.638C620.405 457.815 620.157 458.03 619.971 458.282V463H618.501V456.238H619.971V457.162C620.223 456.863 620.559 456.607 620.979 456.392C621.399 456.177 621.856 456.07 622.351 456.07C623.069 456.07 623.611 456.257 623.975 456.63C624.348 457.003 624.535 457.54 624.535 458.24V463ZM626.024 459.612C626.024 458.585 626.351 457.741 627.004 457.078C627.658 456.406 628.498 456.07 629.524 456.07C630.654 456.07 631.517 456.471 632.114 457.274L631.148 458.17C630.775 457.638 630.257 457.372 629.594 457.372C628.978 457.372 628.484 457.582 628.11 458.002C627.737 458.413 627.55 458.949 627.55 459.612C627.55 460.275 627.737 460.816 628.11 461.236C628.484 461.656 628.978 461.866 629.594 461.866C630.238 461.866 630.756 461.6 631.148 461.068L632.114 461.964C631.517 462.767 630.654 463.168 629.524 463.168C628.498 463.168 627.658 462.837 627.004 462.174C626.351 461.502 626.024 460.648 626.024 459.612ZM632.983 459.612C632.983 458.623 633.305 457.787 633.949 457.106C634.603 456.415 635.424 456.07 636.413 456.07C637.412 456.07 638.215 456.415 638.821 457.106C639.437 457.797 639.745 458.679 639.745 459.752V460.102H634.523C634.579 460.634 634.799 461.077 635.181 461.432C635.564 461.787 636.063 461.964 636.679 461.964C637.025 461.964 637.37 461.899 637.715 461.768C638.07 461.637 638.364 461.455 638.597 461.222L639.269 462.188C638.588 462.841 637.673 463.168 636.525 463.168C635.499 463.168 634.649 462.841 633.977 462.188C633.315 461.525 632.983 460.667 632.983 459.612ZM636.413 457.274C635.835 457.274 635.382 457.456 635.055 457.82C634.729 458.175 634.547 458.59 634.509 459.066H638.317C638.299 458.599 638.126 458.184 637.799 457.82C637.482 457.456 637.02 457.274 636.413 457.274ZM642.666 463H641.196V453.662H642.666V463Z" fill="#5C6069"/>
<rect x="692" y="443" width="105" height="32" rx="3" fill="#5C6069"/>
<path d="M729.392 461.684L730.302 460.424C731.105 461.283 732.089 461.712 733.256 461.712C733.881 461.712 734.348 461.586 734.656 461.334C734.973 461.082 735.132 460.783 735.132 460.438C735.132 460.279 735.09 460.135 735.006 460.004C734.922 459.864 734.829 459.757 734.726 459.682C734.623 459.598 734.455 459.514 734.222 459.43C733.998 459.337 733.816 459.271 733.676 459.234C733.536 459.187 733.312 459.127 733.004 459.052C732.593 458.949 732.276 458.865 732.052 458.8C731.828 458.735 731.539 458.627 731.184 458.478C730.839 458.319 730.573 458.156 730.386 457.988C730.209 457.811 730.045 457.573 729.896 457.274C729.756 456.975 729.686 456.635 729.686 456.252C729.686 455.468 729.999 454.819 730.624 454.306C731.259 453.783 732.08 453.522 733.088 453.522C734.525 453.522 735.692 453.956 736.588 454.824L735.65 456.042C734.941 455.333 734.04 454.978 732.948 454.978C732.463 454.978 732.075 455.085 731.786 455.3C731.506 455.505 731.366 455.785 731.366 456.14C731.366 456.317 731.413 456.471 731.506 456.602C731.609 456.723 731.772 456.835 731.996 456.938C732.229 457.041 732.435 457.12 732.612 457.176C732.789 457.223 733.06 457.293 733.424 457.386C733.835 457.489 734.152 457.577 734.376 457.652C734.609 457.717 734.903 457.829 735.258 457.988C735.613 458.147 735.883 458.319 736.07 458.506C736.257 458.683 736.425 458.926 736.574 459.234C736.723 459.542 736.798 459.892 736.798 460.284C736.798 461.124 736.495 461.815 735.888 462.356C735.281 462.897 734.381 463.168 733.186 463.168C731.581 463.168 730.316 462.673 729.392 461.684ZM743.865 463H742.395V462.272C741.872 462.869 741.144 463.168 740.211 463.168C739.595 463.168 739.049 462.972 738.573 462.58C738.097 462.179 737.859 461.628 737.859 460.928C737.859 460.209 738.092 459.663 738.559 459.29C739.035 458.917 739.585 458.73 740.211 458.73C741.172 458.73 741.9 459.019 742.395 459.598V458.59C742.395 458.198 742.25 457.89 741.961 457.666C741.671 457.442 741.289 457.33 740.812 457.33C740.057 457.33 739.389 457.615 738.811 458.184L738.209 457.162C738.974 456.434 739.921 456.07 741.051 456.07C741.881 456.07 742.558 456.266 743.081 456.658C743.603 457.05 743.865 457.671 743.865 458.52V463ZM742.395 461.46V460.438C742.059 459.971 741.522 459.738 740.785 459.738C740.365 459.738 740.019 459.85 739.749 460.074C739.478 460.298 739.343 460.592 739.343 460.956C739.343 461.32 739.478 461.614 739.749 461.838C740.019 462.053 740.365 462.16 740.785 462.16C741.522 462.16 742.059 461.927 742.395 461.46ZM749.13 463H747.548L744.79 456.238H746.358L748.332 461.306L750.306 456.238H751.888L749.13 463ZM752.391 459.612C752.391 458.623 752.713 457.787 753.357 457.106C754.011 456.415 754.832 456.07 755.821 456.07C756.82 456.07 757.623 456.415 758.229 457.106C758.845 457.797 759.153 458.679 759.153 459.752V460.102H753.931C753.987 460.634 754.207 461.077 754.589 461.432C754.972 461.787 755.471 461.964 756.087 461.964C756.433 461.964 756.778 461.899 757.123 461.768C757.478 461.637 757.772 461.455 758.005 461.222L758.677 462.188C757.996 462.841 757.081 463.168 755.933 463.168C754.907 463.168 754.057 462.841 753.385 462.188C752.723 461.525 752.391 460.667 752.391 459.612ZM755.821 457.274C755.243 457.274 754.79 457.456 754.463 457.82C754.137 458.175 753.955 458.59 753.917 459.066H757.725C757.707 458.599 757.534 458.184 757.207 457.82C756.89 457.456 756.428 457.274 755.821 457.274Z" fill="#F0F1F2"/>
</svg>
