<svg width="420" height="722" viewBox="0 0 420 722" fill="none" xmlns="http://www.w3.org/2000/svg">
<rect width="420" height="722" fill="white"/>
<path d="M27.092 26.216C25.388 26.216 23.954 25.634 22.79 24.47C21.626 23.306 21.044 21.818 21.044 20.006C21.044 18.194 21.626 16.706 22.79 15.542C23.954 14.378 25.388 13.796 27.092 13.796C28.892 13.796 30.362 14.504 31.502 15.92L30.638 16.478C30.254 15.95 29.744 15.53 29.108 15.218C28.484 14.894 27.812 14.732 27.092 14.732C25.676 14.732 24.494 15.224 23.546 16.208C22.598 17.192 22.124 18.458 22.124 20.006C22.124 21.542 22.598 22.808 23.546 23.804C24.506 24.788 25.688 25.28 27.092 25.28C27.812 25.28 28.484 25.124 29.108 24.812C29.744 24.488 30.254 24.062 30.638 23.534L31.502 24.074C30.35 25.502 28.88 26.216 27.092 26.216ZM34.4878 26H33.5518V17.306H34.4878V18.8C35.3398 17.684 36.3178 17.126 37.4218 17.126V18.152C37.3138 18.128 37.1578 18.116 36.9538 18.116C36.5218 18.116 36.0538 18.278 35.5498 18.602C35.0458 18.926 34.6918 19.28 34.4878 19.664V26ZM38.7606 21.644C38.7606 20.372 39.1566 19.298 39.9486 18.422C40.7526 17.534 41.7546 17.09 42.9546 17.09C44.2266 17.09 45.2286 17.534 45.9606 18.422C46.6926 19.298 47.0586 20.39 47.0586 21.698V21.95H39.7866C39.8346 22.934 40.1646 23.756 40.7766 24.416C41.3886 25.076 42.1926 25.406 43.1886 25.406C44.3406 25.406 45.2886 25.004 46.0326 24.2L46.5186 24.812C45.6186 25.748 44.4846 26.216 43.1166 26.216C41.8446 26.216 40.8006 25.79 39.9846 24.938C39.1686 24.086 38.7606 22.988 38.7606 21.644ZM42.9366 17.9C41.9886 17.9 41.2326 18.242 40.6686 18.926C40.1166 19.598 39.8226 20.36 39.7866 21.212H46.1046C46.0926 20.372 45.8106 19.61 45.2586 18.926C44.7186 18.242 43.9446 17.9 42.9366 17.9ZM55.9395 26H55.0035V24.974C54.2475 25.802 53.2635 26.216 52.0515 26.216C51.2475 26.216 50.5395 25.958 49.9275 25.442C49.3155 24.914 49.0095 24.206 49.0095 23.318C49.0095 22.418 49.3095 21.716 49.9095 21.212C50.5215 20.696 51.2355 20.438 52.0515 20.438C53.2755 20.438 54.2595 20.852 55.0035 21.68V19.916C55.0035 19.292 54.7815 18.806 54.3375 18.458C53.8935 18.098 53.3355 17.918 52.6635 17.918C51.5955 17.918 50.6895 18.344 49.9455 19.196L49.4235 18.548C50.3235 17.576 51.4395 17.09 52.7715 17.09C53.7075 17.09 54.4695 17.324 55.0575 17.792C55.6455 18.26 55.9395 18.956 55.9395 19.88V26ZM55.0035 24.29V22.382C54.3795 21.578 53.5035 21.176 52.3755 21.176C51.6675 21.176 51.0915 21.38 50.6475 21.788C50.2155 22.196 49.9995 22.712 49.9995 23.336C49.9995 23.96 50.2155 24.476 50.6475 24.884C51.0915 25.28 51.6675 25.478 52.3755 25.478C53.5155 25.478 54.3915 25.082 55.0035 24.29ZM60.7543 26.216C59.6143 26.216 59.0443 25.586 59.0443 24.326V18.134H57.6043V17.306H59.0443V14.93H59.9983V17.306H61.7623V18.134H59.9983V24.182C59.9983 24.974 60.2983 25.37 60.8983 25.37C61.2943 25.37 61.6183 25.232 61.8703 24.956L62.2303 25.676C61.8463 26.036 61.3543 26.216 60.7543 26.216ZM63.3173 21.644C63.3173 20.372 63.7133 19.298 64.5053 18.422C65.3093 17.534 66.3113 17.09 67.5113 17.09C68.7833 17.09 69.7853 17.534 70.5173 18.422C71.2493 19.298 71.6153 20.39 71.6153 21.698V21.95H64.3433C64.3913 22.934 64.7213 23.756 65.3333 24.416C65.9453 25.076 66.7493 25.406 67.7453 25.406C68.8973 25.406 69.8453 25.004 70.5893 24.2L71.0753 24.812C70.1753 25.748 69.0413 26.216 67.6733 26.216C66.4013 26.216 65.3573 25.79 64.5413 24.938C63.7253 24.086 63.3173 22.988 63.3173 21.644ZM67.4933 17.9C66.5453 17.9 65.7893 18.242 65.2253 18.926C64.6733 19.598 64.3793 20.36 64.3433 21.212H70.6613C70.6493 20.372 70.3673 19.61 69.8153 18.926C69.2753 18.242 68.5013 17.9 67.4933 17.9ZM79.7544 26H78.7284V13.994H86.3424V14.93H79.7544V19.376H86.2164V20.312H79.7544V26ZM88.9162 15.83C88.7242 15.83 88.5562 15.758 88.4122 15.614C88.2682 15.47 88.1962 15.302 88.1962 15.11C88.1962 14.918 88.2682 14.75 88.4122 14.606C88.5562 14.462 88.7242 14.39 88.9162 14.39C89.1202 14.39 89.2882 14.462 89.4202 14.606C89.5642 14.738 89.6362 14.906 89.6362 15.11C89.6362 15.314 89.5642 15.488 89.4202 15.632C89.2882 15.764 89.1202 15.83 88.9162 15.83ZM89.3842 26H88.4482V17.306H89.3842V26ZM93.2338 26H92.2978V13.994H93.2338V26ZM98.0375 26.216C96.8975 26.216 96.3275 25.586 96.3275 24.326V18.134H94.8875V17.306H96.3275V14.93H97.2815V17.306H99.0455V18.134H97.2815V24.182C97.2815 24.974 97.5815 25.37 98.1815 25.37C98.5775 25.37 98.9015 25.232 99.1535 24.956L99.5135 25.676C99.1295 26.036 98.6375 26.216 98.0375 26.216ZM100.6 21.644C100.6 20.372 100.996 19.298 101.788 18.422C102.592 17.534 103.594 17.09 104.794 17.09C106.066 17.09 107.068 17.534 107.8 18.422C108.532 19.298 108.898 20.39 108.898 21.698V21.95H101.626C101.674 22.934 102.004 23.756 102.616 24.416C103.228 25.076 104.032 25.406 105.028 25.406C106.18 25.406 107.128 25.004 107.872 24.2L108.358 24.812C107.458 25.748 106.324 26.216 104.956 26.216C103.684 26.216 102.64 25.79 101.824 24.938C101.008 24.086 100.6 22.988 100.6 21.644ZM104.776 17.9C103.828 17.9 103.072 18.242 102.508 18.926C101.956 19.598 101.662 20.36 101.626 21.212H107.944C107.932 20.372 107.65 19.61 107.098 18.926C106.558 18.242 105.784 17.9 104.776 17.9ZM112.253 26H111.317V17.306H112.253V18.8C113.105 17.684 114.083 17.126 115.187 17.126V18.152C115.079 18.128 114.923 18.116 114.719 18.116C114.287 18.116 113.819 18.278 113.315 18.602C112.811 18.926 112.457 19.28 112.253 19.664V26Z" fill="black"/>
<mask id="mask0_1553_25919" style="mask-type:alpha" maskUnits="userSpaceOnUse" x="384" y="12" width="16" height="16">
<rect x="384" y="12" width="16" height="16" fill="#D9D9D9"/>
</mask>
<g mask="url(#mask0_1553_25919)">
<path d="M392 20.6999L388.5 24.1999C388.4 24.2999 388.283 24.3499 388.15 24.3499C388.017 24.3499 387.9 24.2999 387.8 24.1999C387.7 24.0999 387.65 23.9832 387.65 23.8499C387.65 23.7166 387.7 23.5999 387.8 23.4999L391.3 19.9999L387.8 16.4999C387.7 16.3999 387.65 16.2832 387.65 16.1499C387.65 16.0166 387.7 15.8999 387.8 15.7999C387.9 15.6999 388.017 15.6499 388.15 15.6499C388.283 15.6499 388.4 15.6999 388.5 15.7999L392 19.2999L395.5 15.7999C395.6 15.6999 395.717 15.6499 395.85 15.6499C395.983 15.6499 396.1 15.6999 396.2 15.7999C396.3 15.8999 396.35 16.0166 396.35 16.1499C396.35 16.2832 396.3 16.3999 396.2 16.4999L392.7 19.9999L396.2 23.4999C396.3 23.5999 396.35 23.7166 396.35 23.8499C396.35 23.9832 396.3 24.0999 396.2 24.1999C396.1 24.2999 395.983 24.3499 395.85 24.3499C395.717 24.3499 395.6 24.2999 395.5 24.1999L392 20.6999Z" fill="#20232A"/>
</g>
<rect x="19.5" y="47.5" width="381" height="69" rx="6.5" fill="white"/>
<rect x="19.5" y="47.5" width="381" height="69" rx="6.5" stroke="#DEE0E4"/>
<path d="M40.052 72H38.516L37.928 70.464H34.136L33.548 72H32.012L35.156 63.996H36.908L40.052 72ZM37.532 69.228L36.032 65.184L34.532 69.228H37.532ZM40.5542 69.096C40.5542 68.216 40.8342 67.492 41.3942 66.924C41.9542 66.348 42.6742 66.06 43.5542 66.06C44.5222 66.06 45.2622 66.404 45.7742 67.092L44.9462 67.86C44.6262 67.404 44.1822 67.176 43.6142 67.176C43.0862 67.176 42.6622 67.356 42.3422 67.716C42.0222 68.068 41.8622 68.528 41.8622 69.096C41.8622 69.664 42.0222 70.128 42.3422 70.488C42.6622 70.848 43.0862 71.028 43.6142 71.028C44.1662 71.028 44.6102 70.8 44.9462 70.344L45.7742 71.112C45.2622 71.8 44.5222 72.144 43.5542 72.144C42.6742 72.144 41.9542 71.86 41.3942 71.292C40.8342 70.716 40.5542 69.984 40.5542 69.096ZM48.6431 72.144C48.1551 72.144 47.7831 72.016 47.5271 71.76C47.2791 71.504 47.1551 71.136 47.1551 70.656V67.308H46.1951V66.204H47.1551V64.62H48.4151V66.204H49.5911V67.308H48.4151V70.344C48.4151 70.552 48.4631 70.72 48.5591 70.848C48.6551 70.968 48.7911 71.028 48.9671 71.028C49.2231 71.028 49.4111 70.96 49.5311 70.824L49.8311 71.772C49.5671 72.02 49.1711 72.144 48.6431 72.144ZM51.3831 65.244C51.1751 65.244 50.9911 65.168 50.8311 65.016C50.6791 64.864 50.6031 64.68 50.6031 64.464C50.6031 64.248 50.6791 64.064 50.8311 63.912C50.9911 63.76 51.1751 63.684 51.3831 63.684C51.5991 63.684 51.7831 63.76 51.9351 63.912C52.0871 64.064 52.1631 64.248 52.1631 64.464C52.1631 64.68 52.0871 64.864 51.9351 65.016C51.7831 65.168 51.5991 65.244 51.3831 65.244ZM52.0191 72H50.7591V66.204H52.0191V72ZM56.5576 72H55.2016L52.8376 66.204H54.1816L55.8736 70.548L57.5656 66.204H58.9216L56.5576 72ZM60.3608 65.244C60.1528 65.244 59.9688 65.168 59.8088 65.016C59.6568 64.864 59.5808 64.68 59.5808 64.464C59.5808 64.248 59.6568 64.064 59.8088 63.912C59.9688 63.76 60.1528 63.684 60.3608 63.684C60.5768 63.684 60.7608 63.76 60.9128 63.912C61.0648 64.064 61.1408 64.248 61.1408 64.464C61.1408 64.68 61.0648 64.864 60.9128 65.016C60.7608 65.168 60.5768 65.244 60.3608 65.244ZM60.9968 72H59.7368V66.204H60.9968V72ZM64.3953 72.144C63.9073 72.144 63.5353 72.016 63.2793 71.76C63.0313 71.504 62.9073 71.136 62.9073 70.656V67.308H61.9473V66.204H62.9073V64.62H64.1673V66.204H65.3433V67.308H64.1673V70.344C64.1673 70.552 64.2153 70.72 64.3113 70.848C64.4073 70.968 64.5433 71.028 64.7193 71.028C64.9753 71.028 65.1633 70.96 65.2833 70.824L65.5833 71.772C65.3193 72.02 64.9233 72.144 64.3953 72.144ZM66.2593 74.268L66.4513 73.14C66.5953 73.204 66.7553 73.236 66.9313 73.236C67.3393 73.236 67.6153 73.068 67.7593 72.732L68.0473 72.072L65.6713 66.204H67.0153L68.7073 70.548L70.3993 66.204H71.7553L68.9593 73.044C68.6153 73.9 67.9513 74.336 66.9673 74.352C66.7033 74.352 66.4673 74.324 66.2593 74.268Z" fill="#346868"/>
<path d="M84 70.1664C83.9343 70.1668 83.8692 70.1539 83.8085 70.1288C83.7478 70.1036 83.6928 70.0665 83.6466 70.0198L80.3133 66.6864C80.2468 66.5892 80.2168 66.4716 80.2286 66.3543C80.2403 66.2371 80.2931 66.1278 80.3776 66.0457C80.4621 65.9636 80.5729 65.914 80.6904 65.9056C80.8079 65.8972 80.9246 65.9305 81.02 65.9998L84 68.9598L86.98 65.9998C87.0739 65.9389 87.1856 65.9112 87.2972 65.9214C87.4087 65.9315 87.5136 65.9788 87.5951 66.0556C87.6765 66.1325 87.7298 66.2345 87.7464 66.3452C87.763 66.456 87.742 66.5691 87.6866 66.6664L84.3533 69.9998C84.3088 70.0502 84.2546 70.0909 84.1938 70.1196C84.1331 70.1482 84.0671 70.1642 84 70.1664Z" fill="#26514C"/>
<path d="M101.932 72H100.936V63.996H101.932V72ZM108.607 72H107.707V68.208C107.707 67.72 107.595 67.376 107.371 67.176C107.147 66.968 106.827 66.864 106.411 66.864C106.075 66.864 105.747 66.952 105.427 67.128C105.115 67.304 104.871 67.516 104.695 67.764V72H103.795V66.204H104.695V67.044C104.919 66.78 105.219 66.552 105.595 66.36C105.971 66.16 106.359 66.06 106.759 66.06C107.991 66.06 108.607 66.684 108.607 67.932V72Z" fill="#7D8393"/>
<path d="M124.632 72.144C123.464 72.144 122.48 71.756 121.68 70.98C120.888 70.204 120.492 69.212 120.492 68.004C120.492 66.796 120.888 65.804 121.68 65.028C122.48 64.252 123.464 63.864 124.632 63.864C126.064 63.864 127.156 64.464 127.908 65.664L126.708 66.276C126.508 65.932 126.224 65.652 125.856 65.436C125.488 65.22 125.08 65.112 124.632 65.112C123.864 65.112 123.22 65.388 122.7 65.94C122.188 66.484 121.932 67.172 121.932 68.004C121.932 68.836 122.188 69.528 122.7 70.08C123.22 70.624 123.864 70.896 124.632 70.896C125.08 70.896 125.488 70.788 125.856 70.572C126.224 70.356 126.508 70.076 126.708 69.732L127.908 70.344C127.14 71.544 126.048 72.144 124.632 72.144ZM134.192 72H132.932V71.232C132.388 71.84 131.704 72.144 130.88 72.144C129.64 72.144 129.02 71.532 129.02 70.308V66.204H130.28V69.852C130.28 70.276 130.38 70.58 130.58 70.764C130.78 70.94 131.068 71.028 131.444 71.028C131.748 71.028 132.032 70.956 132.296 70.812C132.56 70.668 132.772 70.488 132.932 70.272V66.204H134.192V72ZM135.348 71.244L135.924 70.332C136.14 70.556 136.432 70.748 136.8 70.908C137.168 71.068 137.532 71.148 137.892 71.148C138.26 71.148 138.54 71.088 138.732 70.968C138.932 70.84 139.032 70.664 139.032 70.44C139.032 70.208 138.92 70.036 138.696 69.924C138.472 69.804 138.144 69.696 137.712 69.6C137.448 69.544 137.24 69.496 137.088 69.456C136.944 69.416 136.756 69.352 136.524 69.264C136.292 69.168 136.116 69.064 135.996 68.952C135.876 68.832 135.768 68.676 135.672 68.484C135.576 68.292 135.528 68.072 135.528 67.824C135.528 67.328 135.732 66.912 136.14 66.576C136.548 66.232 137.104 66.06 137.808 66.06C138.696 66.06 139.448 66.332 140.064 66.876L139.536 67.764C139.352 67.556 139.108 67.388 138.804 67.26C138.5 67.132 138.172 67.068 137.82 67.068C137.484 67.068 137.22 67.128 137.028 67.248C136.836 67.36 136.74 67.516 136.74 67.716C136.74 67.916 136.844 68.068 137.052 68.172C137.26 68.276 137.576 68.376 138 68.472C138.264 68.528 138.472 68.576 138.624 68.616C138.784 68.656 138.98 68.728 139.212 68.832C139.444 68.928 139.624 69.036 139.752 69.156C139.88 69.276 139.992 69.44 140.088 69.648C140.192 69.848 140.244 70.08 140.244 70.344C140.244 70.872 140.032 71.304 139.608 71.64C139.184 71.976 138.592 72.144 137.832 72.144C136.792 72.144 135.964 71.844 135.348 71.244ZM143.276 72.144C142.788 72.144 142.416 72.016 142.16 71.76C141.912 71.504 141.788 71.136 141.788 70.656V67.308H140.828V66.204H141.788V64.62H143.048V66.204H144.224V67.308H143.048V70.344C143.048 70.552 143.096 70.72 143.192 70.848C143.288 70.968 143.424 71.028 143.6 71.028C143.856 71.028 144.044 70.96 144.164 70.824L144.464 71.772C144.2 72.02 143.804 72.144 143.276 72.144ZM148.008 72.144C147.112 72.144 146.392 71.852 145.848 71.268C145.304 70.676 145.032 69.952 145.032 69.096C145.032 68.24 145.304 67.52 145.848 66.936C146.392 66.352 147.112 66.06 148.008 66.06C148.912 66.06 149.636 66.352 150.18 66.936C150.724 67.52 150.996 68.24 150.996 69.096C150.996 69.96 150.724 70.684 150.18 71.268C149.636 71.852 148.912 72.144 148.008 72.144ZM148.008 71.028C148.528 71.028 148.936 70.844 149.232 70.476C149.536 70.1 149.688 69.64 149.688 69.096C149.688 68.56 149.536 68.108 149.232 67.74C148.936 67.364 148.528 67.176 148.008 67.176C147.496 67.176 147.088 67.364 146.784 67.74C146.488 68.108 146.34 68.56 146.34 69.096C146.34 69.64 146.488 70.1 146.784 70.476C147.088 70.844 147.496 71.028 148.008 71.028ZM160.659 72H159.399V68.22C159.399 67.524 159.083 67.176 158.451 67.176C158.187 67.176 157.931 67.252 157.683 67.404C157.435 67.556 157.243 67.736 157.107 67.944V72H155.847V68.22C155.847 67.524 155.527 67.176 154.887 67.176C154.631 67.176 154.379 67.252 154.131 67.404C153.891 67.556 153.699 67.74 153.555 67.956V72H152.295V66.204H153.555V66.996C153.699 66.78 153.947 66.572 154.299 66.372C154.659 66.164 155.039 66.06 155.439 66.06C156.279 66.06 156.807 66.416 157.023 67.128C157.207 66.84 157.479 66.592 157.839 66.384C158.199 66.168 158.583 66.06 158.991 66.06C160.103 66.06 160.659 66.644 160.659 67.812V72ZM161.955 69.096C161.955 68.248 162.231 67.532 162.783 66.948C163.343 66.356 164.047 66.06 164.895 66.06C165.751 66.06 166.439 66.356 166.959 66.948C167.487 67.54 167.751 68.296 167.751 69.216V69.516H163.275C163.323 69.972 163.511 70.352 163.839 70.656C164.167 70.96 164.595 71.112 165.123 71.112C165.419 71.112 165.715 71.056 166.011 70.944C166.315 70.832 166.567 70.676 166.767 70.476L167.343 71.304C166.759 71.864 165.975 72.144 164.991 72.144C164.111 72.144 163.383 71.864 162.807 71.304C162.239 70.736 161.955 70 161.955 69.096ZM164.895 67.092C164.399 67.092 164.011 67.248 163.731 67.56C163.451 67.864 163.295 68.22 163.263 68.628H166.527C166.511 68.228 166.363 67.872 166.083 67.56C165.811 67.248 165.415 67.092 164.895 67.092ZM170.279 72H169.019V66.204H170.279V67.056C170.503 66.768 170.783 66.532 171.119 66.348C171.455 66.164 171.803 66.072 172.163 66.072V67.32C172.051 67.296 171.919 67.284 171.767 67.284C171.503 67.284 171.219 67.364 170.915 67.524C170.619 67.676 170.407 67.852 170.279 68.052V72ZM179.321 72H176.345V63.996H179.321C180.561 63.996 181.569 64.368 182.345 65.112C183.121 65.856 183.509 66.82 183.509 68.004C183.509 69.18 183.121 70.14 182.345 70.884C181.577 71.628 180.569 72 179.321 72ZM177.749 65.232V70.764H179.321C180.161 70.764 180.829 70.5 181.325 69.972C181.821 69.444 182.069 68.788 182.069 68.004C182.069 67.196 181.825 66.532 181.337 66.012C180.857 65.492 180.185 65.232 179.321 65.232H177.749ZM185.477 65.244C185.269 65.244 185.085 65.168 184.925 65.016C184.773 64.864 184.697 64.68 184.697 64.464C184.697 64.248 184.773 64.064 184.925 63.912C185.085 63.76 185.269 63.684 185.477 63.684C185.693 63.684 185.877 63.76 186.029 63.912C186.181 64.064 186.257 64.248 186.257 64.464C186.257 64.68 186.181 64.864 186.029 65.016C185.877 65.168 185.693 65.244 185.477 65.244ZM186.113 72H184.853V66.204H186.113V72ZM189.031 72H187.771V66.204H189.031V67.056C189.255 66.768 189.535 66.532 189.871 66.348C190.207 66.164 190.555 66.072 190.915 66.072V67.32C190.803 67.296 190.671 67.284 190.519 67.284C190.255 67.284 189.971 67.364 189.667 67.524C189.371 67.676 189.159 67.852 189.031 68.052V72ZM191.596 69.096C191.596 68.248 191.872 67.532 192.424 66.948C192.984 66.356 193.688 66.06 194.536 66.06C195.392 66.06 196.08 66.356 196.6 66.948C197.128 67.54 197.392 68.296 197.392 69.216V69.516H192.916C192.964 69.972 193.152 70.352 193.48 70.656C193.808 70.96 194.236 71.112 194.764 71.112C195.06 71.112 195.356 71.056 195.652 70.944C195.956 70.832 196.208 70.676 196.408 70.476L196.984 71.304C196.4 71.864 195.616 72.144 194.632 72.144C193.752 72.144 193.024 71.864 192.448 71.304C191.88 70.736 191.596 70 191.596 69.096ZM194.536 67.092C194.04 67.092 193.652 67.248 193.372 67.56C193.092 67.864 192.936 68.22 192.904 68.628H196.168C196.152 68.228 196.004 67.872 195.724 67.56C195.452 67.248 195.056 67.092 194.536 67.092ZM198.299 69.096C198.299 68.216 198.579 67.492 199.139 66.924C199.699 66.348 200.419 66.06 201.299 66.06C202.267 66.06 203.007 66.404 203.519 67.092L202.691 67.86C202.371 67.404 201.927 67.176 201.359 67.176C200.831 67.176 200.407 67.356 200.087 67.716C199.767 68.068 199.607 68.528 199.607 69.096C199.607 69.664 199.767 70.128 200.087 70.488C200.407 70.848 200.831 71.028 201.359 71.028C201.911 71.028 202.355 70.8 202.691 70.344L203.519 71.112C203.007 71.8 202.267 72.144 201.299 72.144C200.419 72.144 199.699 71.86 199.139 71.292C198.579 70.716 198.299 69.984 198.299 69.096ZM206.388 72.144C205.9 72.144 205.528 72.016 205.272 71.76C205.024 71.504 204.9 71.136 204.9 70.656V67.308H203.94V66.204H204.9V64.62H206.16V66.204H207.336V67.308H206.16V70.344C206.16 70.552 206.208 70.72 206.304 70.848C206.4 70.968 206.536 71.028 206.712 71.028C206.968 71.028 207.156 70.96 207.276 70.824L207.576 71.772C207.312 72.02 206.916 72.144 206.388 72.144ZM211.12 72.144C210.224 72.144 209.504 71.852 208.96 71.268C208.416 70.676 208.144 69.952 208.144 69.096C208.144 68.24 208.416 67.52 208.96 66.936C209.504 66.352 210.224 66.06 211.12 66.06C212.024 66.06 212.748 66.352 213.292 66.936C213.836 67.52 214.108 68.24 214.108 69.096C214.108 69.96 213.836 70.684 213.292 71.268C212.748 71.852 212.024 72.144 211.12 72.144ZM211.12 71.028C211.64 71.028 212.048 70.844 212.344 70.476C212.648 70.1 212.8 69.64 212.8 69.096C212.8 68.56 212.648 68.108 212.344 67.74C212.048 67.364 211.64 67.176 211.12 67.176C210.608 67.176 210.2 67.364 209.896 67.74C209.6 68.108 209.452 68.56 209.452 69.096C209.452 69.64 209.6 70.1 209.896 70.476C210.2 70.844 210.608 71.028 211.12 71.028ZM216.667 72H215.407V66.204H216.667V67.056C216.891 66.768 217.171 66.532 217.507 66.348C217.843 66.164 218.191 66.072 218.551 66.072V67.32C218.439 67.296 218.307 67.284 218.155 67.284C217.891 67.284 217.607 67.364 217.303 67.524C217.007 67.676 216.795 67.852 216.667 68.052V72ZM219.339 74.268L219.531 73.14C219.675 73.204 219.835 73.236 220.011 73.236C220.419 73.236 220.695 73.068 220.839 72.732L221.127 72.072L218.751 66.204H220.095L221.787 70.548L223.479 66.204H224.835L222.039 73.044C221.695 73.9 221.031 74.336 220.047 74.352C219.783 74.352 219.547 74.324 219.339 74.268Z" fill="#346868"/>
<path d="M237 70.1664C236.934 70.1668 236.869 70.1539 236.808 70.1288C236.748 70.1036 236.693 70.0665 236.647 70.0198L233.313 66.6864C233.247 66.5892 233.217 66.4716 233.229 66.3543C233.24 66.2371 233.293 66.1278 233.378 66.0457C233.462 65.9636 233.573 65.914 233.69 65.9056C233.808 65.8972 233.925 65.9305 234.02 65.9998L237 68.9598L239.98 65.9998C240.074 65.9389 240.186 65.9112 240.297 65.9214C240.409 65.9315 240.514 65.9788 240.595 66.0556C240.677 66.1325 240.73 66.2345 240.746 66.3452C240.763 66.456 240.742 66.5691 240.687 66.6664L237.353 69.9998C237.309 70.0502 237.255 70.0909 237.194 70.1196C237.133 70.1482 237.067 70.1642 237 70.1664Z" fill="#26514C"/>
<path d="M36.136 100H35.056L33.292 93.544L31.528 100H30.448L28.168 91.996H29.272L31.048 98.668L32.884 91.996H33.712L35.548 98.668L37.312 91.996H38.416L36.136 100ZM44.3418 100H43.4418V96.184C43.4418 95.704 43.3298 95.364 43.1058 95.164C42.8818 94.964 42.5578 94.864 42.1338 94.864C41.8058 94.864 41.4818 94.952 41.1618 95.128C40.8498 95.304 40.6018 95.516 40.4178 95.764V100H39.5178V91.996H40.4178V95.044C40.6418 94.78 40.9418 94.552 41.3178 94.36C41.6938 94.16 42.0858 94.06 42.4938 94.06C43.7258 94.06 44.3418 94.676 44.3418 95.908V100ZM45.8268 97.096C45.8268 96.248 46.0988 95.532 46.6428 94.948C47.1868 94.356 47.8668 94.06 48.6828 94.06C49.5388 94.06 50.2148 94.356 50.7108 94.948C51.2148 95.532 51.4668 96.272 51.4668 97.168V97.396H46.7748C46.8148 97.964 47.0228 98.44 47.3988 98.824C47.7748 99.208 48.2628 99.4 48.8628 99.4C49.5828 99.4 50.1788 99.156 50.6508 98.668L51.0828 99.256C50.4908 99.848 49.7228 100.144 48.7788 100.144C47.9148 100.144 47.2068 99.864 46.6548 99.304C46.1028 98.736 45.8268 98 45.8268 97.096ZM48.6708 94.804C48.0948 94.804 47.6388 95 47.3028 95.392C46.9748 95.784 46.7988 96.232 46.7748 96.736H50.5788C50.5708 96.24 50.4028 95.796 50.0748 95.404C49.7468 95.004 49.2788 94.804 48.6708 94.804ZM53.8486 100H52.9486V94.204H53.8486V95.14C54.3846 94.436 55.0286 94.084 55.7806 94.084V95.008C55.6686 94.984 55.5486 94.972 55.4206 94.972C55.1486 94.972 54.8526 95.068 54.5326 95.26C54.2126 95.452 53.9846 95.664 53.8486 95.896V100ZM56.5975 97.096C56.5975 96.248 56.8695 95.532 57.4135 94.948C57.9575 94.356 58.6375 94.06 59.4535 94.06C60.3095 94.06 60.9855 94.356 61.4815 94.948C61.9855 95.532 62.2375 96.272 62.2375 97.168V97.396H57.5455C57.5855 97.964 57.7935 98.44 58.1695 98.824C58.5455 99.208 59.0335 99.4 59.6335 99.4C60.3535 99.4 60.9495 99.156 61.4215 98.668L61.8535 99.256C61.2615 99.848 60.4935 100.144 59.5495 100.144C58.6855 100.144 57.9775 99.864 57.4255 99.304C56.8735 98.736 56.5975 98 56.5975 97.096ZM59.4415 94.804C58.8655 94.804 58.4095 95 58.0735 95.392C57.7455 95.784 57.5695 96.232 57.5455 96.736H61.3495C61.3415 96.24 61.1735 95.796 60.8455 95.404C60.5175 95.004 60.0495 94.804 59.4415 94.804Z" fill="#7D8393"/>
<rect x="65" y="84" width="116" height="24" rx="6" fill="#C5E1DF"/>
<path d="M76.24 97.636H73.36V96.556H76.24V97.636ZM79.8617 97.636H76.9817V96.556H79.8617V97.636ZM80.5793 98.872L81.3593 97.792C82.0473 98.528 82.8913 98.896 83.8913 98.896C84.4273 98.896 84.8273 98.788 85.0913 98.572C85.3633 98.356 85.4993 98.1 85.4993 97.804C85.4993 97.668 85.4633 97.544 85.3913 97.432C85.3193 97.312 85.2393 97.22 85.1513 97.156C85.0633 97.084 84.9193 97.012 84.7193 96.94C84.5273 96.86 84.3713 96.804 84.2513 96.772C84.1313 96.732 83.9393 96.68 83.6753 96.616C83.3233 96.528 83.0513 96.456 82.8593 96.4C82.6673 96.344 82.4193 96.252 82.1153 96.124C81.8193 95.988 81.5913 95.848 81.4313 95.704C81.2793 95.552 81.1393 95.348 81.0113 95.092C80.8913 94.836 80.8313 94.544 80.8313 94.216C80.8313 93.544 81.0993 92.988 81.6353 92.548C82.1793 92.1 82.8833 91.876 83.7473 91.876C84.9793 91.876 85.9793 92.248 86.7473 92.992L85.9433 94.036C85.3353 93.428 84.5633 93.124 83.6273 93.124C83.2113 93.124 82.8793 93.216 82.6313 93.4C82.3913 93.576 82.2713 93.816 82.2713 94.12C82.2713 94.272 82.3113 94.404 82.3913 94.516C82.4793 94.62 82.6193 94.716 82.8113 94.804C83.0113 94.892 83.1873 94.96 83.3393 95.008C83.4913 95.048 83.7233 95.108 84.0353 95.188C84.3873 95.276 84.6593 95.352 84.8513 95.416C85.0513 95.472 85.3033 95.568 85.6073 95.704C85.9113 95.84 86.1433 95.988 86.3033 96.148C86.4633 96.3 86.6073 96.508 86.7353 96.772C86.8633 97.036 86.9273 97.336 86.9273 97.672C86.9273 98.392 86.6673 98.984 86.1473 99.448C85.6273 99.912 84.8553 100.144 83.8313 100.144C82.4553 100.144 81.3713 99.72 80.5793 98.872ZM87.8483 97.096C87.8483 96.248 88.1243 95.532 88.6763 94.948C89.2363 94.356 89.9403 94.06 90.7883 94.06C91.6443 94.06 92.3323 94.356 92.8523 94.948C93.3803 95.54 93.6443 96.296 93.6443 97.216V97.516H89.1683C89.2163 97.972 89.4043 98.352 89.7323 98.656C90.0603 98.96 90.4883 99.112 91.0163 99.112C91.3123 99.112 91.6083 99.056 91.9043 98.944C92.2083 98.832 92.4603 98.676 92.6603 98.476L93.2363 99.304C92.6523 99.864 91.8683 100.144 90.8843 100.144C90.0043 100.144 89.2763 99.864 88.7003 99.304C88.1323 98.736 87.8483 98 87.8483 97.096ZM90.7883 95.092C90.2923 95.092 89.9043 95.248 89.6243 95.56C89.3443 95.864 89.1883 96.22 89.1563 96.628H92.4203C92.4043 96.228 92.2563 95.872 91.9763 95.56C91.7043 95.248 91.3083 95.092 90.7883 95.092ZM96.172 100H94.912V91.996H96.172V100ZM97.4705 97.096C97.4705 96.248 97.7465 95.532 98.2985 94.948C98.8585 94.356 99.5625 94.06 100.411 94.06C101.267 94.06 101.955 94.356 102.475 94.948C103.003 95.54 103.267 96.296 103.267 97.216V97.516H98.7905C98.8385 97.972 99.0265 98.352 99.3545 98.656C99.6825 98.96 100.111 99.112 100.639 99.112C100.935 99.112 101.231 99.056 101.527 98.944C101.831 98.832 102.083 98.676 102.283 98.476L102.859 99.304C102.275 99.864 101.491 100.144 100.507 100.144C99.6265 100.144 98.8985 99.864 98.3225 99.304C97.7545 98.736 97.4705 98 97.4705 97.096ZM100.411 95.092C99.9145 95.092 99.5265 95.248 99.2465 95.56C98.9665 95.864 98.8105 96.22 98.7785 96.628H102.043C102.027 96.228 101.879 95.872 101.599 95.56C101.327 95.248 100.931 95.092 100.411 95.092ZM104.174 97.096C104.174 96.216 104.454 95.492 105.014 94.924C105.574 94.348 106.294 94.06 107.174 94.06C108.142 94.06 108.882 94.404 109.394 95.092L108.566 95.86C108.246 95.404 107.802 95.176 107.234 95.176C106.706 95.176 106.282 95.356 105.962 95.716C105.642 96.068 105.482 96.528 105.482 97.096C105.482 97.664 105.642 98.128 105.962 98.488C106.282 98.848 106.706 99.028 107.234 99.028C107.786 99.028 108.23 98.8 108.566 98.344L109.394 99.112C108.882 99.8 108.142 100.144 107.174 100.144C106.294 100.144 105.574 99.86 105.014 99.292C104.454 98.716 104.174 97.984 104.174 97.096ZM112.263 100.144C111.775 100.144 111.403 100.016 111.147 99.76C110.899 99.504 110.775 99.136 110.775 98.656V95.308H109.815V94.204H110.775V92.62H112.035V94.204H113.211V95.308H112.035V98.344C112.035 98.552 112.083 98.72 112.179 98.848C112.275 98.968 112.411 99.028 112.587 99.028C112.843 99.028 113.031 98.96 113.151 98.824L113.451 99.772C113.187 100.02 112.791 100.144 112.263 100.144ZM124.721 100H123.185L122.597 98.464H118.805L118.217 100H116.681L119.825 91.996H121.577L124.721 100ZM122.201 97.228L120.701 93.184L119.201 97.228H122.201ZM125.223 97.096C125.223 96.216 125.503 95.492 126.063 94.924C126.623 94.348 127.343 94.06 128.223 94.06C129.191 94.06 129.931 94.404 130.443 95.092L129.615 95.86C129.295 95.404 128.851 95.176 128.283 95.176C127.755 95.176 127.331 95.356 127.011 95.716C126.691 96.068 126.531 96.528 126.531 97.096C126.531 97.664 126.691 98.128 127.011 98.488C127.331 98.848 127.755 99.028 128.283 99.028C128.835 99.028 129.279 98.8 129.615 98.344L130.443 99.112C129.931 99.8 129.191 100.144 128.223 100.144C127.343 100.144 126.623 99.86 126.063 99.292C125.503 98.716 125.223 97.984 125.223 97.096ZM133.312 100.144C132.824 100.144 132.452 100.016 132.196 99.76C131.948 99.504 131.824 99.136 131.824 98.656V95.308H130.864V94.204H131.824V92.62H133.084V94.204H134.26V95.308H133.084V98.344C133.084 98.552 133.132 98.72 133.228 98.848C133.324 98.968 133.46 99.028 133.636 99.028C133.892 99.028 134.08 98.96 134.2 98.824L134.5 99.772C134.236 100.02 133.84 100.144 133.312 100.144ZM136.052 93.244C135.844 93.244 135.66 93.168 135.5 93.016C135.348 92.864 135.272 92.68 135.272 92.464C135.272 92.248 135.348 92.064 135.5 91.912C135.66 91.76 135.844 91.684 136.052 91.684C136.268 91.684 136.452 91.76 136.604 91.912C136.756 92.064 136.832 92.248 136.832 92.464C136.832 92.68 136.756 92.864 136.604 93.016C136.452 93.168 136.268 93.244 136.052 93.244ZM136.688 100H135.428V94.204H136.688V100ZM141.227 100H139.871L137.507 94.204H138.851L140.543 98.548L142.235 94.204H143.591L141.227 100ZM145.03 93.244C144.822 93.244 144.638 93.168 144.478 93.016C144.326 92.864 144.25 92.68 144.25 92.464C144.25 92.248 144.326 92.064 144.478 91.912C144.638 91.76 144.822 91.684 145.03 91.684C145.246 91.684 145.43 91.76 145.582 91.912C145.734 92.064 145.81 92.248 145.81 92.464C145.81 92.68 145.734 92.864 145.582 93.016C145.43 93.168 145.246 93.244 145.03 93.244ZM145.666 100H144.406V94.204H145.666V100ZM149.064 100.144C148.576 100.144 148.204 100.016 147.948 99.76C147.7 99.504 147.576 99.136 147.576 98.656V95.308H146.616V94.204H147.576V92.62H148.836V94.204H150.012V95.308H148.836V98.344C148.836 98.552 148.884 98.72 148.98 98.848C149.076 98.968 149.212 99.028 149.388 99.028C149.644 99.028 149.832 98.96 149.952 98.824L150.252 99.772C149.988 100.02 149.592 100.144 149.064 100.144ZM150.928 102.268L151.12 101.14C151.264 101.204 151.424 101.236 151.6 101.236C152.008 101.236 152.284 101.068 152.428 100.732L152.716 100.072L150.34 94.204H151.684L153.376 98.548L155.068 94.204H156.424L153.628 101.044C153.284 101.9 152.62 102.336 151.636 102.352C151.372 102.352 151.136 102.324 150.928 102.268Z" fill="#346868"/>
<path d="M169 98.1664C168.934 98.1668 168.869 98.1539 168.808 98.1288C168.748 98.1036 168.693 98.0665 168.647 98.0198L165.313 94.6864C165.247 94.5892 165.217 94.4716 165.229 94.3543C165.24 94.2371 165.293 94.1278 165.378 94.0457C165.462 93.9636 165.573 93.914 165.69 93.9056C165.808 93.8972 165.925 93.9305 166.02 93.9998L169 96.9598L171.98 93.9998C172.074 93.9389 172.186 93.9112 172.297 93.9214C172.409 93.9315 172.514 93.9788 172.595 94.0556C172.677 94.1325 172.73 94.2345 172.746 94.3452C172.763 94.456 172.742 94.5691 172.687 94.6664L169.353 97.9998C169.309 98.0502 169.255 98.0909 169.194 98.1196C169.133 98.1482 169.067 98.1642 169 98.1664Z" fill="#26514C"/>
<g opacity="0.5">
<rect x="20.5" y="136.5" width="379" height="31" rx="2.5" fill="#F0F1F2"/>
<rect x="20.5" y="136.5" width="379" height="31" rx="2.5" stroke="#E7E8EA"/>
<path d="M163.062 151.438V146.75C163.062 146.601 163.003 146.458 162.898 146.352C162.792 146.247 162.649 146.188 162.5 146.188C162.351 146.188 162.208 146.247 162.102 146.352C161.997 146.458 161.938 146.601 161.938 146.75V151.438H157.25C157.101 151.438 156.958 151.497 156.852 151.602C156.747 151.708 156.688 151.851 156.688 152C156.688 152.149 156.747 152.292 156.852 152.398C156.958 152.503 157.101 152.562 157.25 152.562H161.938V157.25C161.939 157.399 161.999 157.541 162.104 157.646C162.209 157.751 162.351 157.811 162.5 157.812C162.649 157.812 162.792 157.753 162.898 157.648C163.003 157.542 163.062 157.399 163.062 157.25V152.562H167.75C167.899 152.562 168.042 152.503 168.148 152.398C168.253 152.292 168.312 152.149 168.312 152C168.311 151.851 168.251 151.709 168.146 151.604C168.041 151.499 167.899 151.439 167.75 151.438H163.062Z" fill="#393C42"/>
<path d="M184.894 156H183.102L182.416 154.208H177.992L177.306 156H175.514L179.182 146.662H181.226L184.894 156ZM181.954 152.766L180.204 148.048L178.454 152.766H181.954ZM192.102 156H190.632V155.076C190.072 155.804 189.349 156.168 188.462 156.168C187.575 156.168 186.852 155.851 186.292 155.216C185.732 154.581 185.452 153.718 185.452 152.626C185.452 151.543 185.732 150.68 186.292 150.036C186.852 149.392 187.575 149.07 188.462 149.07C189.349 149.07 190.072 149.439 190.632 150.176V146.662H192.102V156ZM190.632 153.97V151.282C190.464 151.021 190.217 150.806 189.89 150.638C189.563 150.461 189.227 150.372 188.882 150.372C188.303 150.372 187.841 150.582 187.496 151.002C187.151 151.422 186.978 151.963 186.978 152.626C186.978 153.289 187.151 153.83 187.496 154.25C187.841 154.661 188.303 154.866 188.882 154.866C189.227 154.866 189.563 154.782 189.89 154.614C190.217 154.446 190.464 154.231 190.632 153.97ZM200.237 156H198.767V155.076C198.207 155.804 197.483 156.168 196.597 156.168C195.71 156.168 194.987 155.851 194.427 155.216C193.867 154.581 193.587 153.718 193.587 152.626C193.587 151.543 193.867 150.68 194.427 150.036C194.987 149.392 195.71 149.07 196.597 149.07C197.483 149.07 198.207 149.439 198.767 150.176V146.662H200.237V156ZM198.767 153.97V151.282C198.599 151.021 198.351 150.806 198.025 150.638C197.698 150.461 197.362 150.372 197.017 150.372C196.438 150.372 195.976 150.582 195.631 151.002C195.285 151.422 195.113 151.963 195.113 152.626C195.113 153.289 195.285 153.83 195.631 154.25C195.976 154.661 196.438 154.866 197.017 154.866C197.362 154.866 197.698 154.782 198.025 154.614C198.351 154.446 198.599 154.231 198.767 153.97ZM210.189 156.168C208.826 156.168 207.678 155.715 206.745 154.81C205.821 153.905 205.359 152.747 205.359 151.338C205.359 149.929 205.821 148.771 206.745 147.866C207.678 146.961 208.826 146.508 210.189 146.508C211.86 146.508 213.134 147.208 214.011 148.608L212.611 149.322C212.378 148.921 212.046 148.594 211.617 148.342C211.188 148.09 210.712 147.964 210.189 147.964C209.293 147.964 208.542 148.286 207.935 148.93C207.338 149.565 207.039 150.367 207.039 151.338C207.039 152.309 207.338 153.116 207.935 153.76C208.542 154.395 209.293 154.712 210.189 154.712C210.712 154.712 211.188 154.586 211.617 154.334C212.046 154.082 212.378 153.755 212.611 153.354L214.011 154.068C213.115 155.468 211.841 156.168 210.189 156.168ZM218.332 156.168C217.287 156.168 216.447 155.827 215.812 155.146C215.177 154.455 214.86 153.611 214.86 152.612C214.86 151.613 215.177 150.773 215.812 150.092C216.447 149.411 217.287 149.07 218.332 149.07C219.387 149.07 220.231 149.411 220.866 150.092C221.501 150.773 221.818 151.613 221.818 152.612C221.818 153.62 221.501 154.465 220.866 155.146C220.231 155.827 219.387 156.168 218.332 156.168ZM218.332 154.866C218.939 154.866 219.415 154.651 219.76 154.222C220.115 153.783 220.292 153.247 220.292 152.612C220.292 151.987 220.115 151.459 219.76 151.03C219.415 150.591 218.939 150.372 218.332 150.372C217.735 150.372 217.259 150.591 216.904 151.03C216.559 151.459 216.386 151.987 216.386 152.612C216.386 153.247 216.559 153.783 216.904 154.222C217.259 154.651 217.735 154.866 218.332 154.866ZM229.34 156H227.87V151.772C227.87 150.839 227.417 150.372 226.512 150.372C226.157 150.372 225.826 150.461 225.518 150.638C225.21 150.815 224.962 151.03 224.776 151.282V156H223.306V149.238H224.776V150.162C225.028 149.863 225.364 149.607 225.784 149.392C226.204 149.177 226.661 149.07 227.156 149.07C227.874 149.07 228.416 149.257 228.78 149.63C229.153 150.003 229.34 150.54 229.34 151.24V156ZM237.479 156H236.009V155.076C235.449 155.804 234.726 156.168 233.839 156.168C232.952 156.168 232.229 155.851 231.669 155.216C231.109 154.581 230.829 153.718 230.829 152.626C230.829 151.543 231.109 150.68 231.669 150.036C232.229 149.392 232.952 149.07 233.839 149.07C234.726 149.07 235.449 149.439 236.009 150.176V146.662H237.479V156ZM236.009 153.97V151.282C235.841 151.021 235.594 150.806 235.267 150.638C234.94 150.461 234.604 150.372 234.259 150.372C233.68 150.372 233.218 150.582 232.873 151.002C232.528 151.422 232.355 151.963 232.355 152.626C232.355 153.289 232.528 153.83 232.873 154.25C233.218 154.661 233.68 154.866 234.259 154.866C234.604 154.866 234.94 154.782 235.267 154.614C235.594 154.446 235.841 154.231 236.009 153.97ZM240.112 148.118C239.869 148.118 239.654 148.029 239.468 147.852C239.29 147.675 239.202 147.46 239.202 147.208C239.202 146.956 239.29 146.741 239.468 146.564C239.654 146.387 239.869 146.298 240.112 146.298C240.364 146.298 240.578 146.387 240.756 146.564C240.933 146.741 241.022 146.956 241.022 147.208C241.022 147.46 240.933 147.675 240.756 147.852C240.578 148.029 240.364 148.118 240.112 148.118ZM240.854 156H239.384V149.238H240.854V156ZM244.791 156.168C244.221 156.168 243.787 156.019 243.489 155.72C243.199 155.421 243.055 154.992 243.055 154.432V150.526H241.935V149.238H243.055V147.39H244.525V149.238H245.897V150.526H244.525V154.068C244.525 154.311 244.581 154.507 244.693 154.656C244.805 154.796 244.963 154.866 245.169 154.866C245.467 154.866 245.687 154.787 245.827 154.628L246.177 155.734C245.869 156.023 245.407 156.168 244.791 156.168ZM247.959 148.118C247.717 148.118 247.502 148.029 247.315 147.852C247.138 147.675 247.049 147.46 247.049 147.208C247.049 146.956 247.138 146.741 247.315 146.564C247.502 146.387 247.717 146.298 247.959 146.298C248.211 146.298 248.426 146.387 248.603 146.564C248.781 146.741 248.869 146.956 248.869 147.208C248.869 147.46 248.781 147.675 248.603 147.852C248.426 148.029 248.211 148.118 247.959 148.118ZM248.701 156H247.231V149.238H248.701V156ZM253.66 156.168C252.615 156.168 251.775 155.827 251.14 155.146C250.506 154.455 250.188 153.611 250.188 152.612C250.188 151.613 250.506 150.773 251.14 150.092C251.775 149.411 252.615 149.07 253.66 149.07C254.715 149.07 255.56 149.411 256.194 150.092C256.829 150.773 257.146 151.613 257.146 152.612C257.146 153.62 256.829 154.465 256.194 155.146C255.56 155.827 254.715 156.168 253.66 156.168ZM253.66 154.866C254.267 154.866 254.743 154.651 255.088 154.222C255.443 153.783 255.62 153.247 255.62 152.612C255.62 151.987 255.443 151.459 255.088 151.03C254.743 150.591 254.267 150.372 253.66 150.372C253.063 150.372 252.587 150.591 252.232 151.03C251.887 151.459 251.714 151.987 251.714 152.612C251.714 153.247 251.887 153.783 252.232 154.222C252.587 154.651 253.063 154.866 253.66 154.866ZM264.668 156H263.198V151.772C263.198 150.839 262.745 150.372 261.84 150.372C261.485 150.372 261.154 150.461 260.846 150.638C260.538 150.815 260.29 151.03 260.104 151.282V156H258.634V149.238H260.104V150.162C260.356 149.863 260.692 149.607 261.112 149.392C261.532 149.177 261.989 149.07 262.484 149.07C263.202 149.07 263.744 149.257 264.108 149.63C264.481 150.003 264.668 150.54 264.668 151.24V156Z" fill="#20232A"/>
</g>
<g filter="url(#filter0_dd_1553_25919)">
<rect x="16" y="110" width="384" height="196" rx="6" fill="white"/>
<rect x="16.5" y="110.5" width="383" height="195" rx="5.5" stroke="#E7E8EA"/>
<g clip-path="url(#clip0_1553_25919)">
<mask id="path-22-inside-1_1553_25919" fill="white">
<path d="M22 122C22 119.791 23.7909 118 26 118H390C392.209 118 394 119.791 394 122V146C394 148.209 392.209 150 390 150H26C23.7909 150 22 148.209 22 146V122Z"/>
</mask>
<path d="M22 122C22 119.791 23.7909 118 26 118H390C392.209 118 394 119.791 394 122V146C394 148.209 392.209 150 390 150H26C23.7909 150 22 148.209 22 146V122Z" fill="white"/>
<path d="M22 118H394H22ZM394 146C394 148.761 391.761 151 389 151H27C24.2386 151 22 148.761 22 146C22 147.657 23.7909 149 26 149H390C392.209 149 394 147.657 394 146ZM22 150V118V150ZM394 118V150V118Z" fill="#E3E7EA" mask="url(#path-22-inside-1_1553_25919)"/>
<path d="M32.0774 138.725C30.9605 138.725 29.8686 138.394 28.9399 137.773C28.0111 137.153 27.2873 136.271 26.8598 135.239C26.4324 134.207 26.3205 133.071 26.5384 131.976C26.7564 130.88 27.2942 129.874 28.084 129.084C28.8739 128.294 29.8802 127.757 30.9757 127.539C32.0712 127.321 33.2067 127.433 34.2386 127.86C35.2706 128.288 36.1526 129.011 36.7732 129.94C37.3937 130.869 37.7249 131.961 37.7249 133.078C37.7249 133.819 37.5789 134.554 37.295 135.239C37.0112 135.924 36.5952 136.547 36.0708 137.071C35.5464 137.595 34.9238 138.011 34.2386 138.295C33.5535 138.579 32.8191 138.725 32.0774 138.725ZM32.0774 128.563C31.1874 128.563 30.3174 128.827 29.5774 129.321C28.8373 129.816 28.2606 130.518 27.92 131.341C27.5794 132.163 27.4903 133.068 27.6639 133.941C27.8375 134.813 28.2661 135.615 28.8955 136.245C29.5248 136.874 30.3266 137.303 31.1995 137.476C32.0724 137.65 32.9772 137.561 33.7995 137.22C34.6218 136.88 35.3246 136.303 35.819 135.563C36.3135 134.823 36.5774 133.953 36.5774 133.063C36.5774 131.869 36.1033 130.725 35.2594 129.881C34.4155 129.037 33.2709 128.563 32.0774 128.563Z" fill="#7D8393"/>
<path d="M39 140.562C38.9261 140.563 38.8528 140.548 38.7846 140.52C38.7163 140.492 38.6544 140.45 38.6025 140.397L35.505 137.3C35.4056 137.193 35.3515 137.052 35.3541 136.907C35.3567 136.761 35.4157 136.622 35.5188 136.519C35.6218 136.416 35.7609 136.357 35.9066 136.354C36.0523 136.352 36.1933 136.406 36.3 136.505L39.3975 139.602C39.5028 139.708 39.562 139.851 39.562 140C39.562 140.149 39.5028 140.292 39.3975 140.397C39.3455 140.45 39.2836 140.492 39.2154 140.52C39.1471 140.548 39.0739 140.563 39 140.562Z" fill="#20232A"/>
<path d="M50.532 137.184L51.218 136.302C52.0113 137.189 52.9913 137.632 54.158 137.632C54.914 137.632 55.4693 137.473 55.824 137.156C56.1787 136.829 56.356 136.451 56.356 136.022C56.356 135.807 56.3093 135.616 56.216 135.448C56.1227 135.271 56.0153 135.131 55.894 135.028C55.7727 134.916 55.586 134.809 55.334 134.706C55.0913 134.594 54.886 134.515 54.718 134.468C54.5593 134.421 54.3167 134.351 53.99 134.258C53.5793 134.146 53.2713 134.062 53.066 134.006C52.8607 133.941 52.5853 133.833 52.24 133.684C51.904 133.535 51.652 133.381 51.484 133.222C51.316 133.054 51.162 132.835 51.022 132.564C50.8913 132.284 50.826 131.967 50.826 131.612C50.826 130.847 51.1293 130.226 51.736 129.75C52.3427 129.265 53.108 129.022 54.032 129.022C55.4227 129.022 56.5287 129.456 57.35 130.324L56.65 131.178C55.9687 130.431 55.068 130.058 53.948 130.058C53.388 130.058 52.926 130.198 52.562 130.478C52.2073 130.749 52.03 131.103 52.03 131.542C52.03 131.719 52.0767 131.883 52.17 132.032C52.2633 132.181 52.3613 132.303 52.464 132.396C52.576 132.489 52.7533 132.583 52.996 132.676C53.248 132.769 53.444 132.839 53.584 132.886C53.7333 132.933 53.9713 132.998 54.298 133.082C54.6993 133.194 55.012 133.283 55.236 133.348C55.46 133.413 55.74 133.525 56.076 133.684C56.4213 133.843 56.6827 134.015 56.86 134.202C57.0467 134.379 57.21 134.617 57.35 134.916C57.49 135.215 57.56 135.551 57.56 135.924C57.56 136.689 57.2753 137.338 56.706 137.87C56.146 138.402 55.2827 138.668 54.116 138.668C52.604 138.668 51.4093 138.173 50.532 137.184ZM58.8611 135.112C58.8611 134.123 59.1785 133.287 59.8131 132.606C60.4478 131.915 61.2411 131.57 62.1931 131.57C63.1918 131.57 63.9805 131.915 64.5591 132.606C65.1471 133.287 65.4411 134.151 65.4411 135.196V135.462H59.9671C60.0138 136.125 60.2565 136.68 60.6951 137.128C61.1338 137.576 61.7031 137.8 62.4031 137.8C63.2431 137.8 63.9385 137.515 64.4891 136.946L64.9931 137.632C64.3025 138.323 63.4065 138.668 62.3051 138.668C61.2971 138.668 60.4711 138.341 59.8271 137.688C59.1831 137.025 58.8611 136.167 58.8611 135.112ZM62.1791 132.438C61.5071 132.438 60.9751 132.667 60.5831 133.124C60.2005 133.581 59.9951 134.104 59.9671 134.692H64.4051C64.3958 134.113 64.1998 133.595 63.8171 133.138C63.4345 132.671 62.8885 132.438 62.1791 132.438ZM72.4198 138.5H71.3698V137.73C70.8005 138.355 70.0538 138.668 69.1298 138.668C68.5045 138.668 67.9538 138.467 67.4778 138.066C67.0018 137.665 66.7638 137.119 66.7638 136.428C66.7638 135.719 66.9971 135.173 67.4638 134.79C67.9398 134.398 68.4951 134.202 69.1298 134.202C70.0911 134.202 70.8378 134.51 71.3698 135.126V133.908C71.3698 133.46 71.2111 133.11 70.8938 132.858C70.5765 132.606 70.1658 132.48 69.6618 132.48C68.8685 132.48 68.1778 132.793 67.5898 133.418L67.0998 132.69C67.8185 131.943 68.7191 131.57 69.8018 131.57C70.5765 131.57 71.2065 131.757 71.6918 132.13C72.1771 132.503 72.4198 133.077 72.4198 133.852V138.5ZM71.3698 137.072V135.798C70.9685 135.238 70.3478 134.958 69.5078 134.958C69.0225 134.958 68.6211 135.098 68.3038 135.378C67.9958 135.649 67.8418 136.003 67.8418 136.442C67.8418 136.871 67.9958 137.226 68.3038 137.506C68.6211 137.777 69.0225 137.912 69.5078 137.912C70.3478 137.912 70.9685 137.632 71.3698 137.072ZM75.5746 138.5H74.5246V131.738H75.5746V132.83C76.1999 132.009 76.9513 131.598 77.8286 131.598V132.676C77.6979 132.648 77.5579 132.634 77.4086 132.634C77.0913 132.634 76.7459 132.746 76.3726 132.97C75.9993 133.194 75.7333 133.441 75.5746 133.712V138.5ZM79.6917 137.66C79.0664 136.979 78.7537 136.129 78.7537 135.112C78.7537 134.095 79.0664 133.25 79.6917 132.578C80.317 131.906 81.129 131.57 82.1277 131.57C83.173 131.57 83.999 131.962 84.6057 132.746L83.9057 133.39C83.4764 132.802 82.9024 132.508 82.1837 132.508C81.4744 132.508 80.905 132.751 80.4757 133.236C80.0557 133.721 79.8457 134.347 79.8457 135.112C79.8457 135.877 80.0557 136.507 80.4757 137.002C80.905 137.487 81.4744 137.73 82.1837 137.73C82.893 137.73 83.467 137.436 83.9057 136.848L84.6057 137.492C83.999 138.276 83.173 138.668 82.1277 138.668C81.129 138.668 80.317 138.332 79.6917 137.66ZM91.7053 138.5H90.6553V134.048C90.6553 133.488 90.5247 133.091 90.2633 132.858C90.002 132.625 89.624 132.508 89.1293 132.508C88.7467 132.508 88.3687 132.611 87.9953 132.816C87.6313 133.021 87.342 133.269 87.1273 133.558V138.5H86.0773V129.162H87.1273V132.718C87.3887 132.41 87.7387 132.144 88.1773 131.92C88.616 131.687 89.0733 131.57 89.5493 131.57C90.9867 131.57 91.7053 132.289 91.7053 133.726V138.5ZM105.447 138.5H104.159L103.333 136.428H98.6013L97.7753 138.5H96.4873L100.239 129.162H101.681L105.447 138.5ZM102.983 135.392L100.967 130.198L98.9373 135.392H102.983ZM107.172 137.66C106.547 136.979 106.234 136.129 106.234 135.112C106.234 134.095 106.547 133.25 107.172 132.578C107.798 131.906 108.61 131.57 109.608 131.57C110.654 131.57 111.48 131.962 112.086 132.746L111.386 133.39C110.957 132.802 110.383 132.508 109.664 132.508C108.955 132.508 108.386 132.751 107.956 133.236C107.536 133.721 107.326 134.347 107.326 135.112C107.326 135.877 107.536 136.507 107.956 137.002C108.386 137.487 108.955 137.73 109.664 137.73C110.374 137.73 110.948 137.436 111.386 136.848L112.086 137.492C111.48 138.276 110.654 138.668 109.608 138.668C108.61 138.668 107.798 138.332 107.172 137.66ZM115.266 138.668C114.771 138.668 114.398 138.533 114.146 138.262C113.894 137.991 113.768 137.599 113.768 137.086V132.662H112.648V131.738H113.768V129.89H114.818V131.738H116.19V132.662H114.818V136.862C114.818 137.123 114.874 137.333 114.986 137.492C115.107 137.651 115.28 137.73 115.504 137.73C115.812 137.73 116.05 137.637 116.218 137.45L116.526 138.234C116.218 138.523 115.798 138.668 115.266 138.668ZM118.191 130.604C118.004 130.604 117.841 130.534 117.701 130.394C117.561 130.254 117.491 130.086 117.491 129.89C117.491 129.694 117.561 129.531 117.701 129.4C117.841 129.26 118.004 129.19 118.191 129.19C118.387 129.19 118.555 129.26 118.695 129.4C118.835 129.531 118.905 129.694 118.905 129.89C118.905 130.086 118.835 130.254 118.695 130.394C118.555 130.534 118.387 130.604 118.191 130.604ZM118.723 138.5H117.673V131.738H118.723V138.5ZM123.772 138.5H122.624L119.81 131.738H120.944L123.198 137.282L125.438 131.738H126.586L123.772 138.5ZM128.199 130.604C128.012 130.604 127.849 130.534 127.709 130.394C127.569 130.254 127.499 130.086 127.499 129.89C127.499 129.694 127.569 129.531 127.709 129.4C127.849 129.26 128.012 129.19 128.199 129.19C128.395 129.19 128.563 129.26 128.703 129.4C128.843 129.531 128.913 129.694 128.913 129.89C128.913 130.086 128.843 130.254 128.703 130.394C128.563 130.534 128.395 130.604 128.199 130.604ZM128.731 138.5H127.681V131.738H128.731V138.5ZM132.533 138.668C132.039 138.668 131.665 138.533 131.413 138.262C131.161 137.991 131.035 137.599 131.035 137.086V132.662H129.915V131.738H131.035V129.89H132.085V131.738H133.457V132.662H132.085V136.862C132.085 137.123 132.141 137.333 132.253 137.492C132.375 137.651 132.547 137.73 132.771 137.73C133.079 137.73 133.317 137.637 133.485 137.45L133.793 138.234C133.485 138.523 133.065 138.668 132.533 138.668ZM134.563 141.146L134.731 140.194C134.899 140.269 135.09 140.306 135.305 140.306C135.547 140.306 135.748 140.255 135.907 140.152C136.065 140.049 136.201 139.863 136.313 139.592L136.761 138.57L133.933 131.738H135.067L137.321 137.282L139.561 131.738H140.709L137.321 139.872C136.947 140.768 136.285 141.225 135.333 141.244C135.053 141.244 134.796 141.211 134.563 141.146ZM150.957 138.5H145.455V129.162H146.617V137.464H150.957V138.5ZM153.068 130.604C152.881 130.604 152.718 130.534 152.578 130.394C152.438 130.254 152.368 130.086 152.368 129.89C152.368 129.694 152.438 129.531 152.578 129.4C152.718 129.26 152.881 129.19 153.068 129.19C153.264 129.19 153.432 129.26 153.572 129.4C153.712 129.531 153.782 129.694 153.782 129.89C153.782 130.086 153.712 130.254 153.572 130.394C153.432 130.534 153.264 130.604 153.068 130.604ZM153.6 138.5H152.55V131.738H153.6V138.5ZM155.107 137.604L155.653 136.848C155.886 137.119 156.203 137.347 156.605 137.534C157.015 137.721 157.44 137.814 157.879 137.814C158.383 137.814 158.775 137.711 159.055 137.506C159.335 137.301 159.475 137.03 159.475 136.694C159.475 136.517 159.428 136.363 159.335 136.232C159.251 136.101 159.115 135.989 158.929 135.896C158.742 135.803 158.565 135.728 158.397 135.672C158.238 135.616 158.019 135.555 157.739 135.49C157.431 135.415 157.193 135.359 157.025 135.322C156.866 135.275 156.656 135.201 156.395 135.098C156.133 134.986 155.937 134.869 155.807 134.748C155.676 134.617 155.555 134.449 155.443 134.244C155.34 134.029 155.289 133.787 155.289 133.516C155.289 132.965 155.513 132.503 155.961 132.13C156.418 131.757 157.034 131.57 157.809 131.57C158.826 131.57 159.661 131.897 160.315 132.55L159.825 133.278C159.349 132.709 158.677 132.424 157.809 132.424C157.351 132.424 156.987 132.517 156.717 132.704C156.446 132.891 156.311 133.138 156.311 133.446C156.311 133.745 156.446 133.969 156.717 134.118C156.997 134.258 157.412 134.393 157.963 134.524C158.271 134.589 158.513 134.65 158.691 134.706C158.868 134.753 159.087 134.832 159.349 134.944C159.61 135.056 159.811 135.182 159.951 135.322C160.1 135.453 160.226 135.63 160.329 135.854C160.441 136.078 160.497 136.335 160.497 136.624C160.497 137.221 160.263 137.711 159.797 138.094C159.33 138.477 158.677 138.668 157.837 138.668C156.689 138.668 155.779 138.313 155.107 137.604ZM163.91 138.668C163.416 138.668 163.042 138.533 162.79 138.262C162.538 137.991 162.412 137.599 162.412 137.086V132.662H161.292V131.738H162.412V129.89H163.462V131.738H164.834V132.662H163.462V136.862C163.462 137.123 163.518 137.333 163.63 137.492C163.752 137.651 163.924 137.73 164.148 137.73C164.456 137.73 164.694 137.637 164.862 137.45L165.17 138.234C164.862 138.523 164.442 138.668 163.91 138.668Z" fill="#7D8393"/>
</g>
<rect x="22" y="158" width="336" height="34" rx="6" fill="#E7E8EA"/>
<path d="M36.254 179H35.092V169.662H38.844C39.7493 169.662 40.4633 169.933 40.986 170.474C41.5087 171.015 41.77 171.683 41.77 172.476C41.77 173.269 41.504 173.937 40.972 174.478C40.4493 175.019 39.74 175.29 38.844 175.29H36.254V179ZM40.048 173.764C40.3933 173.428 40.566 172.999 40.566 172.476C40.566 171.953 40.3933 171.529 40.048 171.202C39.7027 170.866 39.2547 170.698 38.704 170.698H36.254V174.254H38.704C39.2547 174.254 39.7027 174.091 40.048 173.764ZM48.8808 179H47.8308V178.048C47.5508 178.365 47.1961 178.631 46.7668 178.846C46.3468 179.061 45.8988 179.168 45.4228 179.168C43.9855 179.168 43.2668 178.449 43.2668 177.012V172.238H44.3168V176.69C44.3168 177.25 44.4428 177.647 44.6948 177.88C44.9561 178.113 45.3341 178.23 45.8288 178.23C46.2208 178.23 46.5988 178.132 46.9628 177.936C47.3361 177.74 47.6255 177.497 47.8308 177.208V172.238H48.8808V179ZM52.0277 179H50.9777V172.238H52.0277V173.33C52.6531 172.509 53.4044 172.098 54.2817 172.098V173.176C54.1511 173.148 54.0111 173.134 53.8617 173.134C53.5444 173.134 53.1991 173.246 52.8257 173.47C52.4524 173.694 52.1864 173.941 52.0277 174.212V179ZM56.1448 178.16C55.5195 177.479 55.2068 176.629 55.2068 175.612C55.2068 174.595 55.5195 173.75 56.1448 173.078C56.7702 172.406 57.5822 172.07 58.5808 172.07C59.6262 172.07 60.4522 172.462 61.0588 173.246L60.3588 173.89C59.9295 173.302 59.3555 173.008 58.6368 173.008C57.9275 173.008 57.3582 173.251 56.9288 173.736C56.5088 174.221 56.2988 174.847 56.2988 175.612C56.2988 176.377 56.5088 177.007 56.9288 177.502C57.3582 177.987 57.9275 178.23 58.6368 178.23C59.3462 178.23 59.9202 177.936 60.3588 177.348L61.0588 177.992C60.4522 178.776 59.6262 179.168 58.5808 179.168C57.5822 179.168 56.7702 178.832 56.1448 178.16ZM68.1585 179H67.1085V174.548C67.1085 173.988 66.9778 173.591 66.7165 173.358C66.4551 173.125 66.0771 173.008 65.5825 173.008C65.1998 173.008 64.8218 173.111 64.4485 173.316C64.0845 173.521 63.7951 173.769 63.5805 174.058V179H62.5305V169.662H63.5805V173.218C63.8418 172.91 64.1918 172.644 64.6305 172.42C65.0691 172.187 65.5265 172.07 66.0025 172.07C67.4398 172.07 68.1585 172.789 68.1585 174.226V179ZM75.5331 179H74.4831V178.23C73.9137 178.855 73.1671 179.168 72.2431 179.168C71.6177 179.168 71.0671 178.967 70.5911 178.566C70.1151 178.165 69.8771 177.619 69.8771 176.928C69.8771 176.219 70.1104 175.673 70.5771 175.29C71.0531 174.898 71.6084 174.702 72.2431 174.702C73.2044 174.702 73.9511 175.01 74.4831 175.626V174.408C74.4831 173.96 74.3244 173.61 74.0071 173.358C73.6897 173.106 73.2791 172.98 72.7751 172.98C71.9817 172.98 71.2911 173.293 70.7031 173.918L70.2131 173.19C70.9317 172.443 71.8324 172.07 72.9151 172.07C73.6897 172.07 74.3197 172.257 74.8051 172.63C75.2904 173.003 75.5331 173.577 75.5331 174.352V179ZM74.4831 177.572V176.298C74.0817 175.738 73.4611 175.458 72.6211 175.458C72.1357 175.458 71.7344 175.598 71.4171 175.878C71.1091 176.149 70.9551 176.503 70.9551 176.942C70.9551 177.371 71.1091 177.726 71.4171 178.006C71.7344 178.277 72.1357 178.412 72.6211 178.412C73.4611 178.412 74.0817 178.132 74.4831 177.572ZM77.0499 178.104L77.5959 177.348C77.8292 177.619 78.1466 177.847 78.5479 178.034C78.9586 178.221 79.3832 178.314 79.8219 178.314C80.3259 178.314 80.7179 178.211 80.9979 178.006C81.2779 177.801 81.4179 177.53 81.4179 177.194C81.4179 177.017 81.3712 176.863 81.2779 176.732C81.1939 176.601 81.0586 176.489 80.8719 176.396C80.6852 176.303 80.5079 176.228 80.3399 176.172C80.1812 176.116 79.9619 176.055 79.6819 175.99C79.3739 175.915 79.1359 175.859 78.9679 175.822C78.8092 175.775 78.5992 175.701 78.3379 175.598C78.0766 175.486 77.8806 175.369 77.7499 175.248C77.6192 175.117 77.4979 174.949 77.3859 174.744C77.2832 174.529 77.2319 174.287 77.2319 174.016C77.2319 173.465 77.4559 173.003 77.9039 172.63C78.3612 172.257 78.9772 172.07 79.7519 172.07C80.7692 172.07 81.6046 172.397 82.2579 173.05L81.7679 173.778C81.2919 173.209 80.6199 172.924 79.7519 172.924C79.2946 172.924 78.9306 173.017 78.6599 173.204C78.3892 173.391 78.2539 173.638 78.2539 173.946C78.2539 174.245 78.3892 174.469 78.6599 174.618C78.9399 174.758 79.3552 174.893 79.9059 175.024C80.2139 175.089 80.4566 175.15 80.6339 175.206C80.8112 175.253 81.0306 175.332 81.2919 175.444C81.5532 175.556 81.7539 175.682 81.8939 175.822C82.0432 175.953 82.1692 176.13 82.2719 176.354C82.3839 176.578 82.4399 176.835 82.4399 177.124C82.4399 177.721 82.2066 178.211 81.7399 178.594C81.2732 178.977 80.6199 179.168 79.7799 179.168C78.6319 179.168 77.7219 178.813 77.0499 178.104ZM83.7537 175.612C83.7537 174.623 84.071 173.787 84.7057 173.106C85.3404 172.415 86.1337 172.07 87.0857 172.07C88.0844 172.07 88.873 172.415 89.4517 173.106C90.0397 173.787 90.3337 174.651 90.3337 175.696V175.962H84.8597C84.9064 176.625 85.149 177.18 85.5877 177.628C86.0264 178.076 86.5957 178.3 87.2957 178.3C88.1357 178.3 88.831 178.015 89.3817 177.446L89.8857 178.132C89.195 178.823 88.299 179.168 87.1977 179.168C86.1897 179.168 85.3637 178.841 84.7197 178.188C84.0757 177.525 83.7537 176.667 83.7537 175.612ZM87.0717 172.938C86.3997 172.938 85.8677 173.167 85.4757 173.624C85.093 174.081 84.8877 174.604 84.8597 175.192H89.2977C89.2884 174.613 89.0924 174.095 88.7097 173.638C88.327 173.171 87.781 172.938 87.0717 172.938ZM91.4464 178.104L91.9924 177.348C92.2257 177.619 92.543 177.847 92.9444 178.034C93.355 178.221 93.7797 178.314 94.2184 178.314C94.7224 178.314 95.1144 178.211 95.3944 178.006C95.6744 177.801 95.8144 177.53 95.8144 177.194C95.8144 177.017 95.7677 176.863 95.6744 176.732C95.5904 176.601 95.455 176.489 95.2684 176.396C95.0817 176.303 94.9044 176.228 94.7364 176.172C94.5777 176.116 94.3584 176.055 94.0784 175.99C93.7704 175.915 93.5324 175.859 93.3644 175.822C93.2057 175.775 92.9957 175.701 92.7344 175.598C92.473 175.486 92.277 175.369 92.1464 175.248C92.0157 175.117 91.8944 174.949 91.7824 174.744C91.6797 174.529 91.6284 174.287 91.6284 174.016C91.6284 173.465 91.8524 173.003 92.3004 172.63C92.7577 172.257 93.3737 172.07 94.1484 172.07C95.1657 172.07 96.001 172.397 96.6544 173.05L96.1644 173.778C95.6884 173.209 95.0164 172.924 94.1484 172.924C93.691 172.924 93.327 173.017 93.0564 173.204C92.7857 173.391 92.6504 173.638 92.6504 173.946C92.6504 174.245 92.7857 174.469 93.0564 174.618C93.3364 174.758 93.7517 174.893 94.3024 175.024C94.6104 175.089 94.853 175.15 95.0304 175.206C95.2077 175.253 95.427 175.332 95.6884 175.444C95.9497 175.556 96.1504 175.682 96.2904 175.822C96.4397 175.953 96.5657 176.13 96.6684 176.354C96.7804 176.578 96.8364 176.835 96.8364 177.124C96.8364 177.721 96.603 178.211 96.1364 178.594C95.6697 178.977 95.0164 179.168 94.1764 179.168C93.0284 179.168 92.1184 178.813 91.4464 178.104Z" fill="#20232A"/>
<mask id="mask1_1553_25919" style="mask-type:alpha" maskUnits="userSpaceOnUse" x="368" y="166" width="16" height="16">
<rect x="368" y="166" width="16" height="16" fill="#D9D9D9"/>
</mask>
<g mask="url(#mask1_1553_25919)">
<path d="M378.667 174L380 175.333V176.667H376.667V180.667L376 181.333L375.333 180.667V176.667H372V175.333L373.333 174V169.333H372.667V168H379.333V169.333H378.667V174ZM373.9 175.333H378.1L377.333 174.567V169.333H374.667V174.567L373.9 175.333Z" fill="#20232A"/>
</g>
<path d="M41.868 215H40.496L38.116 211.29H36.254V215H35.092V205.662H38.844C39.712 205.662 40.4167 205.919 40.958 206.432C41.4993 206.945 41.77 207.627 41.77 208.476C41.77 209.279 41.5367 209.918 41.07 210.394C40.6033 210.87 40.0293 211.136 39.348 211.192L41.868 215ZM40.048 209.764C40.3933 209.428 40.566 208.999 40.566 208.476C40.566 207.953 40.3933 207.529 40.048 207.202C39.7027 206.866 39.2547 206.698 38.704 206.698H36.254V210.268H38.704C39.2547 210.268 39.7027 210.1 40.048 209.764ZM42.7518 211.612C42.7518 210.623 43.0691 209.787 43.7038 209.106C44.3384 208.415 45.1318 208.07 46.0838 208.07C47.0824 208.07 47.8711 208.415 48.4498 209.106C49.0378 209.787 49.3318 210.651 49.3318 211.696V211.962H43.8578C43.9044 212.625 44.1471 213.18 44.5858 213.628C45.0244 214.076 45.5938 214.3 46.2938 214.3C47.1338 214.3 47.8291 214.015 48.3798 213.446L48.8838 214.132C48.1931 214.823 47.2971 215.168 46.1958 215.168C45.1878 215.168 44.3618 214.841 43.7178 214.188C43.0738 213.525 42.7518 212.667 42.7518 211.612ZM46.0698 208.938C45.3978 208.938 44.8658 209.167 44.4738 209.624C44.0911 210.081 43.8858 210.604 43.8578 211.192H48.2958C48.2864 210.613 48.0904 210.095 47.7078 209.638C47.3251 209.171 46.7791 208.938 46.0698 208.938ZM56.6464 215H55.5964V210.576C55.5964 210.007 55.4658 209.605 55.2044 209.372C54.9431 209.129 54.5698 209.008 54.0844 209.008C53.6924 209.008 53.3098 209.111 52.9364 209.316C52.5724 209.521 52.2878 209.769 52.0824 210.058V215H51.0324V208.238H52.0824V209.218C52.3438 208.91 52.6938 208.644 53.1324 208.42C53.5711 208.187 54.0238 208.07 54.4904 208.07C55.9278 208.07 56.6464 208.798 56.6464 210.254V215ZM58.3514 211.612C58.3514 210.623 58.6687 209.787 59.3034 209.106C59.938 208.415 60.7314 208.07 61.6834 208.07C62.682 208.07 63.4707 208.415 64.0494 209.106C64.6374 209.787 64.9314 210.651 64.9314 211.696V211.962H59.4574C59.504 212.625 59.7467 213.18 60.1854 213.628C60.624 214.076 61.1934 214.3 61.8934 214.3C62.7334 214.3 63.4287 214.015 63.9794 213.446L64.4834 214.132C63.7927 214.823 62.8967 215.168 61.7954 215.168C60.7874 215.168 59.9614 214.841 59.3174 214.188C58.6734 213.525 58.3514 212.667 58.3514 211.612ZM61.6694 208.938C60.9974 208.938 60.4654 209.167 60.0734 209.624C59.6907 210.081 59.4854 210.604 59.4574 211.192H63.8954C63.886 210.613 63.69 210.095 63.3074 209.638C62.9247 209.171 62.3787 208.938 61.6694 208.938ZM73.534 215H72.484L70.72 209.568L68.956 215H67.906L65.75 208.238H66.842L68.494 213.628L70.272 208.238H71.168L72.946 213.628L74.598 208.238H75.69L73.534 215ZM82.1913 215H81.1413V214.23C80.5719 214.855 79.8253 215.168 78.9013 215.168C78.2759 215.168 77.7253 214.967 77.2493 214.566C76.7733 214.165 76.5353 213.619 76.5353 212.928C76.5353 212.219 76.7686 211.673 77.2353 211.29C77.7113 210.898 78.2666 210.702 78.9013 210.702C79.8626 210.702 80.6093 211.01 81.1413 211.626V210.408C81.1413 209.96 80.9826 209.61 80.6653 209.358C80.3479 209.106 79.9373 208.98 79.4333 208.98C78.6399 208.98 77.9493 209.293 77.3613 209.918L76.8713 209.19C77.5899 208.443 78.4906 208.07 79.5733 208.07C80.3479 208.07 80.9779 208.257 81.4633 208.63C81.9486 209.003 82.1913 209.577 82.1913 210.352V215ZM81.1413 213.572V212.298C80.7399 211.738 80.1193 211.458 79.2793 211.458C78.7939 211.458 78.3926 211.598 78.0753 211.878C77.7673 212.149 77.6133 212.503 77.6133 212.942C77.6133 213.371 77.7673 213.726 78.0753 214.006C78.3926 214.277 78.7939 214.412 79.2793 214.412C80.1193 214.412 80.7399 214.132 81.1413 213.572ZM85.3461 215H84.2961V205.662H85.3461V215Z" fill="#20232A"/>
<path d="M34.532 249.684L35.218 248.802C36.0113 249.689 36.9913 250.132 38.158 250.132C38.914 250.132 39.4693 249.973 39.824 249.656C40.1787 249.329 40.356 248.951 40.356 248.522C40.356 248.307 40.3093 248.116 40.216 247.948C40.1227 247.771 40.0153 247.631 39.894 247.528C39.7727 247.416 39.586 247.309 39.334 247.206C39.0913 247.094 38.886 247.015 38.718 246.968C38.5593 246.921 38.3167 246.851 37.99 246.758C37.5793 246.646 37.2713 246.562 37.066 246.506C36.8607 246.441 36.5853 246.333 36.24 246.184C35.904 246.035 35.652 245.881 35.484 245.722C35.316 245.554 35.162 245.335 35.022 245.064C34.8913 244.784 34.826 244.467 34.826 244.112C34.826 243.347 35.1293 242.726 35.736 242.25C36.3427 241.765 37.108 241.522 38.032 241.522C39.4227 241.522 40.5287 241.956 41.35 242.824L40.65 243.678C39.9687 242.931 39.068 242.558 37.948 242.558C37.388 242.558 36.926 242.698 36.562 242.978C36.2073 243.249 36.03 243.603 36.03 244.042C36.03 244.219 36.0767 244.383 36.17 244.532C36.2633 244.681 36.3613 244.803 36.464 244.896C36.576 244.989 36.7533 245.083 36.996 245.176C37.248 245.269 37.444 245.339 37.584 245.386C37.7333 245.433 37.9713 245.498 38.298 245.582C38.6993 245.694 39.012 245.783 39.236 245.848C39.46 245.913 39.74 246.025 40.076 246.184C40.4213 246.343 40.6827 246.515 40.86 246.702C41.0467 246.879 41.21 247.117 41.35 247.416C41.49 247.715 41.56 248.051 41.56 248.424C41.56 249.189 41.2753 249.838 40.706 250.37C40.146 250.902 39.2827 251.168 38.116 251.168C36.604 251.168 35.4093 250.673 34.532 249.684ZM48.8671 251H47.8171V250.048C47.5371 250.365 47.1825 250.631 46.7531 250.846C46.3331 251.061 45.8851 251.168 45.4091 251.168C43.9718 251.168 43.2531 250.449 43.2531 249.012V244.238H44.3031V248.69C44.3031 249.25 44.4291 249.647 44.6811 249.88C44.9425 250.113 45.3205 250.23 45.8151 250.23C46.2071 250.23 46.5851 250.132 46.9491 249.936C47.3225 249.74 47.6118 249.497 47.8171 249.208V244.238H48.8671V251ZM52.0141 249.978V253.576H50.9641V244.238H52.0141V245.246C52.2661 244.891 52.5927 244.607 52.9941 244.392C53.3954 244.177 53.8294 244.07 54.2961 244.07C55.1921 244.07 55.9154 244.392 56.4661 245.036C57.0261 245.671 57.3061 246.529 57.3061 247.612C57.3061 248.695 57.0261 249.558 56.4661 250.202C55.9154 250.846 55.1921 251.168 54.2961 251.168C53.3441 251.168 52.5834 250.771 52.0141 249.978ZM55.6121 249.502C56.0041 249.007 56.2001 248.377 56.2001 247.612C56.2001 246.847 56.0041 246.221 55.6121 245.736C55.2201 245.251 54.6927 245.008 54.0301 245.008C53.6287 245.008 53.2367 245.115 52.8541 245.33C52.4807 245.535 52.2007 245.787 52.0141 246.086V249.138C52.2007 249.446 52.4807 249.707 52.8541 249.922C53.2367 250.127 53.6287 250.23 54.0301 250.23C54.6927 250.23 55.2201 249.987 55.6121 249.502ZM60.0531 249.978V253.576H59.0031V244.238H60.0531V245.246C60.3051 244.891 60.6318 244.607 61.0331 244.392C61.4345 244.177 61.8685 244.07 62.3351 244.07C63.2311 244.07 63.9545 244.392 64.5051 245.036C65.0651 245.671 65.3451 246.529 65.3451 247.612C65.3451 248.695 65.0651 249.558 64.5051 250.202C63.9545 250.846 63.2311 251.168 62.3351 251.168C61.3831 251.168 60.6225 250.771 60.0531 249.978ZM63.6511 249.502C64.0431 249.007 64.2391 248.377 64.2391 247.612C64.2391 246.847 64.0431 246.221 63.6511 245.736C63.2591 245.251 62.7318 245.008 62.0691 245.008C61.6678 245.008 61.2758 245.115 60.8931 245.33C60.5198 245.535 60.2398 245.787 60.0531 246.086V249.138C60.2398 249.446 60.5198 249.707 60.8931 249.922C61.2758 250.127 61.6678 250.23 62.0691 250.23C62.7318 250.23 63.2591 249.987 63.6511 249.502ZM72.4182 250.146C71.8115 250.827 71.0042 251.168 69.9962 251.168C68.9882 251.168 68.1762 250.827 67.5602 250.146C66.9535 249.465 66.6502 248.62 66.6502 247.612C66.6502 246.604 66.9535 245.764 67.5602 245.092C68.1762 244.411 68.9882 244.07 69.9962 244.07C71.0042 244.07 71.8115 244.411 72.4182 245.092C73.0342 245.764 73.3422 246.604 73.3422 247.612C73.3422 248.62 73.0342 249.465 72.4182 250.146ZM68.3442 249.474C68.7549 249.978 69.3055 250.23 69.9962 250.23C70.6869 250.23 71.2329 249.978 71.6342 249.474C72.0355 248.961 72.2362 248.34 72.2362 247.612C72.2362 246.884 72.0355 246.268 71.6342 245.764C71.2329 245.26 70.6869 245.008 69.9962 245.008C69.3055 245.008 68.7549 245.265 68.3442 245.778C67.9429 246.282 67.7422 246.893 67.7422 247.612C67.7422 248.34 67.9429 248.961 68.3442 249.474ZM76.1039 251H75.0539V244.238H76.1039V245.33C76.7292 244.509 77.4806 244.098 78.3579 244.098V245.176C78.2272 245.148 78.0872 245.134 77.9379 245.134C77.6206 245.134 77.2752 245.246 76.9019 245.47C76.5286 245.694 76.2626 245.941 76.1039 246.212V251ZM81.383 251.168C80.8883 251.168 80.515 251.033 80.263 250.762C80.011 250.491 79.885 250.099 79.885 249.586V245.162H78.765V244.238H79.885V242.39H80.935V244.238H82.307V245.162H80.935V249.362C80.935 249.623 80.991 249.833 81.103 249.992C81.2243 250.151 81.397 250.23 81.621 250.23C81.929 250.23 82.167 250.137 82.335 249.95L82.643 250.734C82.335 251.023 81.915 251.168 81.383 251.168ZM91.8236 251.168C90.4796 251.168 89.3503 250.715 88.4356 249.81C87.5209 248.905 87.0636 247.747 87.0636 246.338C87.0636 244.929 87.5209 243.771 88.4356 242.866C89.3503 241.961 90.4796 241.508 91.8236 241.508C93.3449 241.508 94.5396 242.124 95.4076 243.356L94.4276 243.902C94.1569 243.501 93.7883 243.174 93.3216 242.922C92.8643 242.67 92.3649 242.544 91.8236 242.544C90.8156 242.544 89.9709 242.903 89.2896 243.622C88.6083 244.331 88.2676 245.237 88.2676 246.338C88.2676 247.439 88.6083 248.349 89.2896 249.068C89.9709 249.777 90.8156 250.132 91.8236 250.132C92.3649 250.132 92.8643 250.011 93.3216 249.768C93.7883 249.516 94.1569 249.185 94.4276 248.774L95.4216 249.32C94.5163 250.552 93.3169 251.168 91.8236 251.168ZM102.139 251H101.089V250.23C100.519 250.855 99.7725 251.168 98.8485 251.168C98.2232 251.168 97.6725 250.967 97.1965 250.566C96.7205 250.165 96.4825 249.619 96.4825 248.928C96.4825 248.219 96.7159 247.673 97.1825 247.29C97.6585 246.898 98.2139 246.702 98.8485 246.702C99.8099 246.702 100.557 247.01 101.089 247.626V246.408C101.089 245.96 100.93 245.61 100.613 245.358C100.295 245.106 99.8845 244.98 99.3805 244.98C98.5872 244.98 97.8965 245.293 97.3085 245.918L96.8185 245.19C97.5372 244.443 98.4379 244.07 99.5205 244.07C100.295 244.07 100.925 244.257 101.411 244.63C101.896 245.003 102.139 245.577 102.139 246.352V251ZM101.089 249.572V248.298C100.687 247.738 100.067 247.458 99.2265 247.458C98.7412 247.458 98.3399 247.598 98.0225 247.878C97.7145 248.149 97.5605 248.503 97.5605 248.942C97.5605 249.371 97.7145 249.726 98.0225 250.006C98.3399 250.277 98.7412 250.412 99.2265 250.412C100.067 250.412 100.687 250.132 101.089 249.572ZM105.293 251H104.243V241.662H105.293V251ZM108.438 251H107.388V241.662H108.438V251Z" fill="#20232A"/>
<path d="M36.254 287H35.092V277.662H41.21V278.698H36.254V281.708H41.112V282.744H36.254V287ZM42.3553 283.612C42.3553 282.623 42.6726 281.787 43.3073 281.106C43.9419 280.415 44.7353 280.07 45.6873 280.07C46.6859 280.07 47.4746 280.415 48.0533 281.106C48.6413 281.787 48.9353 282.651 48.9353 283.696V283.962H43.4613C43.5079 284.625 43.7506 285.18 44.1893 285.628C44.6279 286.076 45.1973 286.3 45.8973 286.3C46.7373 286.3 47.4326 286.015 47.9833 285.446L48.4873 286.132C47.7966 286.823 46.9006 287.168 45.7993 287.168C44.7913 287.168 43.9653 286.841 43.3213 286.188C42.6773 285.525 42.3553 284.667 42.3553 283.612ZM45.6733 280.938C45.0013 280.938 44.4693 281.167 44.0773 281.624C43.6946 282.081 43.4893 282.604 43.4613 283.192H47.8993C47.8899 282.613 47.6939 282.095 47.3113 281.638C46.9286 281.171 46.3826 280.938 45.6733 280.938ZM50.2439 283.612C50.2439 282.623 50.5613 281.787 51.1959 281.106C51.8306 280.415 52.6239 280.07 53.5759 280.07C54.5746 280.07 55.3633 280.415 55.9419 281.106C56.5299 281.787 56.8239 282.651 56.8239 283.696V283.962H51.3499C51.3966 284.625 51.6393 285.18 52.0779 285.628C52.5166 286.076 53.0859 286.3 53.7859 286.3C54.6259 286.3 55.3213 286.015 55.8719 285.446L56.3759 286.132C55.6853 286.823 54.7893 287.168 53.6879 287.168C52.6799 287.168 51.8539 286.841 51.2099 286.188C50.5659 285.525 50.2439 284.667 50.2439 283.612ZM53.5619 280.938C52.8899 280.938 52.3579 281.167 51.9659 281.624C51.5833 282.081 51.3779 282.604 51.3499 283.192H55.7879C55.7786 282.613 55.5826 282.095 55.1999 281.638C54.8173 281.171 54.2713 280.938 53.5619 280.938ZM64.4746 287H63.4246V285.992C62.8459 286.776 62.0853 287.168 61.1426 287.168C60.2466 287.168 59.5186 286.851 58.9586 286.216C58.4079 285.572 58.1326 284.709 58.1326 283.626C58.1326 282.553 58.4079 281.694 58.9586 281.05C59.5186 280.397 60.2466 280.07 61.1426 280.07C62.0759 280.07 62.8366 280.467 63.4246 281.26V277.662H64.4746V287ZM63.4246 285.166V282.1C63.2286 281.792 62.9393 281.535 62.5566 281.33C62.1833 281.115 61.7959 281.008 61.3946 281.008C60.7319 281.008 60.2046 281.255 59.8126 281.75C59.4206 282.235 59.2246 282.861 59.2246 283.626C59.2246 284.391 59.4206 285.017 59.8126 285.502C60.2046 285.987 60.7319 286.23 61.3946 286.23C61.8053 286.23 62.1973 286.127 62.5706 285.922C62.9439 285.717 63.2286 285.465 63.4246 285.166ZM67.6273 287H66.5773V277.662H67.6273V281.26C68.2153 280.467 68.976 280.07 69.9093 280.07C70.796 280.07 71.5193 280.397 72.0793 281.05C72.6393 281.694 72.9193 282.553 72.9193 283.626C72.9193 284.709 72.6393 285.572 72.0793 286.216C71.5287 286.851 70.8053 287.168 69.9093 287.168C68.9667 287.168 68.206 286.776 67.6273 285.992V287ZM67.6273 282.1V285.166C67.814 285.465 68.094 285.717 68.4673 285.922C68.85 286.127 69.242 286.23 69.6433 286.23C70.3153 286.23 70.8473 285.987 71.2393 285.502C71.6313 285.017 71.8273 284.391 71.8273 283.626C71.8273 282.861 71.6313 282.235 71.2393 281.75C70.8473 281.255 70.3153 281.008 69.6433 281.008C69.242 281.008 68.85 281.115 68.4673 281.33C68.094 281.535 67.814 281.792 67.6273 282.1ZM79.9081 287H78.8581V286.23C78.2887 286.855 77.5421 287.168 76.6181 287.168C75.9927 287.168 75.4421 286.967 74.9661 286.566C74.4901 286.165 74.2521 285.619 74.2521 284.928C74.2521 284.219 74.4854 283.673 74.9521 283.29C75.4281 282.898 75.9834 282.702 76.6181 282.702C77.5794 282.702 78.3261 283.01 78.8581 283.626V282.408C78.8581 281.96 78.6994 281.61 78.3821 281.358C78.0647 281.106 77.6541 280.98 77.1501 280.98C76.3567 280.98 75.6661 281.293 75.0781 281.918L74.5881 281.19C75.3067 280.443 76.2074 280.07 77.2901 280.07C78.0647 280.07 78.6947 280.257 79.1801 280.63C79.6654 281.003 79.9081 281.577 79.9081 282.352V287ZM78.8581 285.572V284.298C78.4567 283.738 77.8361 283.458 76.9961 283.458C76.5107 283.458 76.1094 283.598 75.7921 283.878C75.4841 284.149 75.3301 284.503 75.3301 284.942C75.3301 285.371 75.4841 285.726 75.7921 286.006C76.1094 286.277 76.5107 286.412 76.9961 286.412C77.8361 286.412 78.4567 286.132 78.8581 285.572ZM82.5589 286.16C81.9336 285.479 81.6209 284.629 81.6209 283.612C81.6209 282.595 81.9336 281.75 82.5589 281.078C83.1842 280.406 83.9962 280.07 84.9949 280.07C86.0402 280.07 86.8662 280.462 87.4729 281.246L86.7729 281.89C86.3436 281.302 85.7696 281.008 85.0509 281.008C84.3416 281.008 83.7722 281.251 83.3429 281.736C82.9229 282.221 82.7129 282.847 82.7129 283.612C82.7129 284.377 82.9229 285.007 83.3429 285.502C83.7722 285.987 84.3416 286.23 85.0509 286.23C85.7602 286.23 86.3342 285.936 86.7729 285.348L87.4729 285.992C86.8662 286.776 86.0402 287.168 84.9949 287.168C83.9962 287.168 83.1842 286.832 82.5589 286.16ZM94.8945 287H93.5505L91.1145 283.962L89.9945 285.068V287H88.9445V277.662H89.9945V283.836L93.5505 280.238H94.8805L91.8845 283.304L94.8945 287Z" fill="#20232A"/>
</g>
<mask id="path-37-inside-2_1553_25919" fill="white">
<path d="M0 666H420V722H0V666Z"/>
</mask>
<path d="M0 667H420V665H0V667Z" fill="#CCCED4" mask="url(#path-37-inside-2_1553_25919)"/>
<path d="M59.2043 698H57.3143L55.2423 694.514H53.6183V698H51.9803V688.662H56.0823C56.997 688.662 57.7343 688.933 58.2943 689.474C58.8543 690.015 59.1343 690.72 59.1343 691.588C59.1343 692.372 58.9197 693.002 58.4903 693.478C58.061 693.945 57.5383 694.229 56.9223 694.332L59.2043 698ZM57.0063 692.666C57.305 692.395 57.4543 692.036 57.4543 691.588C57.4543 691.14 57.305 690.781 57.0063 690.51C56.7077 690.239 56.325 690.104 55.8583 690.104H53.6183V693.072H55.8583C56.325 693.072 56.7077 692.937 57.0063 692.666ZM59.8855 694.612C59.8855 693.623 60.2075 692.787 60.8515 692.106C61.5048 691.415 62.3262 691.07 63.3155 691.07C64.3142 691.07 65.1168 691.415 65.7235 692.106C66.3395 692.797 66.6475 693.679 66.6475 694.752V695.102H61.4255C61.4815 695.634 61.7008 696.077 62.0835 696.432C62.4662 696.787 62.9655 696.964 63.5815 696.964C63.9268 696.964 64.2722 696.899 64.6175 696.768C64.9722 696.637 65.2662 696.455 65.4995 696.222L66.1715 697.188C65.4902 697.841 64.5755 698.168 63.4275 698.168C62.4008 698.168 61.5515 697.841 60.8795 697.188C60.2168 696.525 59.8855 695.667 59.8855 694.612ZM63.3155 692.274C62.7368 692.274 62.2842 692.456 61.9575 692.82C61.6308 693.175 61.4488 693.59 61.4115 694.066H65.2195C65.2008 693.599 65.0282 693.184 64.7015 692.82C64.3842 692.456 63.9222 692.274 63.3155 692.274ZM67.5105 697.118L68.1825 696.054C68.4345 696.315 68.7752 696.539 69.2045 696.726C69.6338 696.913 70.0585 697.006 70.4785 697.006C70.9078 697.006 71.2345 696.936 71.4585 696.796C71.6918 696.647 71.8085 696.441 71.8085 696.18C71.8085 695.909 71.6778 695.709 71.4165 695.578C71.1552 695.438 70.7725 695.312 70.2685 695.2C69.9605 695.135 69.7178 695.079 69.5405 695.032C69.3725 694.985 69.1532 694.911 68.8825 694.808C68.6118 694.696 68.4065 694.575 68.2665 694.444C68.1265 694.304 68.0005 694.122 67.8885 693.898C67.7765 693.674 67.7205 693.417 67.7205 693.128C67.7205 692.549 67.9585 692.064 68.4345 691.672C68.9105 691.271 69.5592 691.07 70.3805 691.07C71.4165 691.07 72.2938 691.387 73.0125 692.022L72.3965 693.058C72.1818 692.815 71.8972 692.619 71.5425 692.47C71.1878 692.321 70.8052 692.246 70.3945 692.246C70.0025 692.246 69.6945 692.316 69.4705 692.456C69.2465 692.587 69.1345 692.769 69.1345 693.002C69.1345 693.235 69.2558 693.413 69.4985 693.534C69.7412 693.655 70.1098 693.772 70.6045 693.884C70.9125 693.949 71.1552 694.005 71.3325 694.052C71.5192 694.099 71.7478 694.183 72.0185 694.304C72.2892 694.416 72.4992 694.542 72.6485 694.682C72.7978 694.822 72.9285 695.013 73.0405 695.256C73.1618 695.489 73.2225 695.76 73.2225 696.068C73.2225 696.684 72.9752 697.188 72.4805 697.58C71.9858 697.972 71.2952 698.168 70.4085 698.168C69.1952 698.168 68.2292 697.818 67.5105 697.118ZM74.282 694.612C74.282 693.623 74.604 692.787 75.248 692.106C75.9013 691.415 76.7227 691.07 77.712 691.07C78.7107 691.07 79.5133 691.415 80.12 692.106C80.736 692.797 81.044 693.679 81.044 694.752V695.102H75.822C75.878 695.634 76.0973 696.077 76.48 696.432C76.8627 696.787 77.362 696.964 77.978 696.964C78.3233 696.964 78.6687 696.899 79.014 696.768C79.3687 696.637 79.6627 696.455 79.896 696.222L80.568 697.188C79.8867 697.841 78.972 698.168 77.824 698.168C76.7973 698.168 75.948 697.841 75.276 697.188C74.6133 696.525 74.282 695.667 74.282 694.612ZM77.712 692.274C77.1333 692.274 76.6807 692.456 76.354 692.82C76.0273 693.175 75.8453 693.59 75.808 694.066H79.616C79.5973 693.599 79.4247 693.184 79.098 692.82C78.7807 692.456 78.3187 692.274 77.712 692.274ZM84.525 698.168C83.9556 698.168 83.5216 698.019 83.223 697.72C82.9336 697.421 82.789 696.992 82.789 696.432V692.526H81.669V691.238H82.789V689.39H84.259V691.238H85.631V692.526H84.259V696.068C84.259 696.311 84.315 696.507 84.427 696.656C84.539 696.796 84.6976 696.866 84.903 696.866C85.2016 696.866 85.421 696.787 85.561 696.628L85.911 697.734C85.603 698.023 85.141 698.168 84.525 698.168Z" fill="#7D8393"/>
<path d="M137 681C137 679.343 138.343 678 140 678H242C243.657 678 245 679.343 245 681V707C245 708.657 243.657 710 242 710H140C138.343 710 137 708.657 137 707V681Z" fill="#F0F1F2"/>
<path d="M174.843 698.168C173.481 698.168 172.333 697.715 171.399 696.81C170.475 695.905 170.013 694.747 170.013 693.338C170.013 691.929 170.475 690.771 171.399 689.866C172.333 688.961 173.481 688.508 174.843 688.508C176.514 688.508 177.788 689.208 178.665 690.608L177.265 691.322C177.032 690.921 176.701 690.594 176.271 690.342C175.842 690.09 175.366 689.964 174.843 689.964C173.947 689.964 173.196 690.286 172.589 690.93C171.992 691.565 171.693 692.367 171.693 693.338C171.693 694.309 171.992 695.116 172.589 695.76C173.196 696.395 173.947 696.712 174.843 696.712C175.366 696.712 175.842 696.586 176.271 696.334C176.701 696.082 177.032 695.755 177.265 695.354L178.665 696.068C177.769 697.468 176.495 698.168 174.843 698.168ZM185.534 698H184.064V697.272C183.542 697.869 182.814 698.168 181.88 698.168C181.264 698.168 180.718 697.972 180.242 697.58C179.766 697.179 179.528 696.628 179.528 695.928C179.528 695.209 179.762 694.663 180.228 694.29C180.704 693.917 181.255 693.73 181.88 693.73C182.842 693.73 183.57 694.019 184.064 694.598V693.59C184.064 693.198 183.92 692.89 183.63 692.666C183.341 692.442 182.958 692.33 182.482 692.33C181.726 692.33 181.059 692.615 180.48 693.184L179.878 692.162C180.644 691.434 181.591 691.07 182.72 691.07C183.551 691.07 184.228 691.266 184.75 691.658C185.273 692.05 185.534 692.671 185.534 693.52V698ZM184.064 696.46V695.438C183.728 694.971 183.192 694.738 182.454 694.738C182.034 694.738 181.689 694.85 181.418 695.074C181.148 695.298 181.012 695.592 181.012 695.956C181.012 696.32 181.148 696.614 181.418 696.838C181.689 697.053 182.034 697.16 182.454 697.16C183.192 697.16 183.728 696.927 184.064 696.46ZM193.474 698H192.004V693.772C192.004 692.839 191.552 692.372 190.646 692.372C190.292 692.372 189.96 692.461 189.652 692.638C189.344 692.815 189.097 693.03 188.91 693.282V698H187.44V691.238H188.91V692.162C189.162 691.863 189.498 691.607 189.918 691.392C190.338 691.177 190.796 691.07 191.29 691.07C192.009 691.07 192.55 691.257 192.914 691.63C193.288 692.003 193.474 692.54 193.474 693.24V698ZM194.964 694.612C194.964 693.585 195.29 692.741 195.944 692.078C196.597 691.406 197.437 691.07 198.464 691.07C199.593 691.07 200.456 691.471 201.054 692.274L200.088 693.17C199.714 692.638 199.196 692.372 198.534 692.372C197.918 692.372 197.423 692.582 197.05 693.002C196.676 693.413 196.49 693.949 196.49 694.612C196.49 695.275 196.676 695.816 197.05 696.236C197.423 696.656 197.918 696.866 198.534 696.866C199.178 696.866 199.696 696.6 200.088 696.068L201.054 696.964C200.456 697.767 199.593 698.168 198.464 698.168C197.437 698.168 196.597 697.837 195.944 697.174C195.29 696.502 194.964 695.648 194.964 694.612ZM201.923 694.612C201.923 693.623 202.245 692.787 202.889 692.106C203.542 691.415 204.363 691.07 205.353 691.07C206.351 691.07 207.154 691.415 207.761 692.106C208.377 692.797 208.685 693.679 208.685 694.752V695.102H203.463C203.519 695.634 203.738 696.077 204.121 696.432C204.503 696.787 205.003 696.964 205.619 696.964C205.964 696.964 206.309 696.899 206.655 696.768C207.009 696.637 207.303 696.455 207.537 696.222L208.209 697.188C207.527 697.841 206.613 698.168 205.465 698.168C204.438 698.168 203.589 697.841 202.917 697.188C202.254 696.525 201.923 695.667 201.923 694.612ZM205.353 692.274C204.774 692.274 204.321 692.456 203.995 692.82C203.668 693.175 203.486 693.59 203.449 694.066H207.257C207.238 693.599 207.065 693.184 206.739 692.82C206.421 692.456 205.959 692.274 205.353 692.274ZM211.606 698H210.136V688.662H211.606V698Z" fill="#5C6069"/>
<g opacity="0.5">
<path d="M261 681C261 679.343 262.343 678 264 678H346V710H264C262.343 710 261 708.657 261 707V681Z" fill="#5C6069"/>
<path d="M294.394 698H292.602L291.916 696.208H287.492L286.806 698H285.014L288.682 688.662H290.726L294.394 698ZM291.454 694.766L289.704 690.048L287.954 694.766H291.454ZM296.842 697.062V700.576H295.372V691.238H296.842V692.162C297.383 691.434 298.107 691.07 299.012 691.07C299.899 691.07 300.617 691.387 301.168 692.022C301.728 692.657 302.008 693.52 302.008 694.612C302.008 695.704 301.728 696.572 301.168 697.216C300.617 697.851 299.899 698.168 299.012 698.168C298.116 698.168 297.393 697.799 296.842 697.062ZM299.964 696.236C300.309 695.816 300.482 695.275 300.482 694.612C300.482 693.949 300.309 693.413 299.964 693.002C299.619 692.582 299.157 692.372 298.578 692.372C298.242 692.372 297.911 692.461 297.584 692.638C297.257 692.815 297.01 693.03 296.842 693.282V695.956C297.01 696.208 297.257 696.423 297.584 696.6C297.911 696.777 298.242 696.866 298.578 696.866C299.157 696.866 299.619 696.656 299.964 696.236ZM304.963 697.062V700.576H303.493V691.238H304.963V692.162C305.504 691.434 306.228 691.07 307.133 691.07C308.02 691.07 308.738 691.387 309.289 692.022C309.849 692.657 310.129 693.52 310.129 694.612C310.129 695.704 309.849 696.572 309.289 697.216C308.738 697.851 308.02 698.168 307.133 698.168C306.237 698.168 305.514 697.799 304.963 697.062ZM308.085 696.236C308.43 695.816 308.603 695.275 308.603 694.612C308.603 693.949 308.43 693.413 308.085 693.002C307.74 692.582 307.278 692.372 306.699 692.372C306.363 692.372 306.032 692.461 305.705 692.638C305.378 692.815 305.131 693.03 304.963 693.282V695.956C305.131 696.208 305.378 696.423 305.705 696.6C306.032 696.777 306.363 696.866 306.699 696.866C307.278 696.866 307.74 696.656 308.085 696.236ZM313.084 698H311.614V688.662H313.084V698ZM314.697 700.646L314.921 699.33C315.089 699.405 315.276 699.442 315.481 699.442C315.957 699.442 316.279 699.246 316.447 698.854L316.783 698.084L314.011 691.238H315.579L317.553 696.306L319.527 691.238H321.109L317.847 699.218C317.446 700.217 316.671 700.725 315.523 700.744C315.215 700.744 314.94 700.711 314.697 700.646Z" fill="#F0F1F2"/>
<path d="M347 678H384C385.657 678 387 679.343 387 681V707C387 708.657 385.657 710 384 710H347V678Z" fill="#5C6069"/>
<path d="M362 691.5L367 696.5L372 691.5" stroke="white" stroke-width="2" stroke-linecap="round" stroke-linejoin="round"/>
</g>
<defs>
<filter id="filter0_dd_1553_25919" x="11" y="109" width="394" height="206" filterUnits="userSpaceOnUse" color-interpolation-filters="sRGB">
<feFlood flood-opacity="0" result="BackgroundImageFix"/>
<feColorMatrix in="SourceAlpha" type="matrix" values="0 0 0 0 0 0 0 0 0 0 0 0 0 0 0 0 0 0 127 0" result="hardAlpha"/>
<feMorphology radius="1" operator="erode" in="SourceAlpha" result="effect1_dropShadow_1553_25919"/>
<feOffset dy="4"/>
<feGaussianBlur stdDeviation="3"/>
<feColorMatrix type="matrix" values="0 0 0 0 0 0 0 0 0 0 0 0 0 0 0 0 0 0 0.1 0"/>
<feBlend mode="normal" in2="BackgroundImageFix" result="effect1_dropShadow_1553_25919"/>
<feColorMatrix in="SourceAlpha" type="matrix" values="0 0 0 0 0 0 0 0 0 0 0 0 0 0 0 0 0 0 127 0" result="hardAlpha"/>
<feMorphology radius="2" operator="erode" in="SourceAlpha" result="effect2_dropShadow_1553_25919"/>
<feOffset dy="2"/>
<feGaussianBlur stdDeviation="2"/>
<feColorMatrix type="matrix" values="0 0 0 0 0 0 0 0 0 0 0 0 0 0 0 0 0 0 0.1 0"/>
<feBlend mode="normal" in2="effect1_dropShadow_1553_25919" result="effect2_dropShadow_1553_25919"/>
<feBlend mode="normal" in="SourceGraphic" in2="effect2_dropShadow_1553_25919" result="shape"/>
</filter>
<clipPath id="clip0_1553_25919">
<rect x="22" y="118" width="372" height="32" rx="3" fill="white"/>
</clipPath>
</defs>
</svg>
