<svg width="420" height="722" viewBox="0 0 420 722" fill="none" xmlns="http://www.w3.org/2000/svg">
<rect width="420" height="722" fill="white"/>
<path d="M27.092 26.216C25.388 26.216 23.954 25.634 22.79 24.47C21.626 23.306 21.044 21.818 21.044 20.006C21.044 18.194 21.626 16.706 22.79 15.542C23.954 14.378 25.388 13.796 27.092 13.796C28.892 13.796 30.362 14.504 31.502 15.92L30.638 16.478C30.254 15.95 29.744 15.53 29.108 15.218C28.484 14.894 27.812 14.732 27.092 14.732C25.676 14.732 24.494 15.224 23.546 16.208C22.598 17.192 22.124 18.458 22.124 20.006C22.124 21.542 22.598 22.808 23.546 23.804C24.506 24.788 25.688 25.28 27.092 25.28C27.812 25.28 28.484 25.124 29.108 24.812C29.744 24.488 30.254 24.062 30.638 23.534L31.502 24.074C30.35 25.502 28.88 26.216 27.092 26.216ZM34.4878 26H33.5518V17.306H34.4878V18.8C35.3398 17.684 36.3178 17.126 37.4218 17.126V18.152C37.3138 18.128 37.1578 18.116 36.9538 18.116C36.5218 18.116 36.0538 18.278 35.5498 18.602C35.0458 18.926 34.6918 19.28 34.4878 19.664V26ZM38.7606 21.644C38.7606 20.372 39.1566 19.298 39.9486 18.422C40.7526 17.534 41.7546 17.09 42.9546 17.09C44.2266 17.09 45.2286 17.534 45.9606 18.422C46.6926 19.298 47.0586 20.39 47.0586 21.698V21.95H39.7866C39.8346 22.934 40.1646 23.756 40.7766 24.416C41.3886 25.076 42.1926 25.406 43.1886 25.406C44.3406 25.406 45.2886 25.004 46.0326 24.2L46.5186 24.812C45.6186 25.748 44.4846 26.216 43.1166 26.216C41.8446 26.216 40.8006 25.79 39.9846 24.938C39.1686 24.086 38.7606 22.988 38.7606 21.644ZM42.9366 17.9C41.9886 17.9 41.2326 18.242 40.6686 18.926C40.1166 19.598 39.8226 20.36 39.7866 21.212H46.1046C46.0926 20.372 45.8106 19.61 45.2586 18.926C44.7186 18.242 43.9446 17.9 42.9366 17.9ZM55.9395 26H55.0035V24.974C54.2475 25.802 53.2635 26.216 52.0515 26.216C51.2475 26.216 50.5395 25.958 49.9275 25.442C49.3155 24.914 49.0095 24.206 49.0095 23.318C49.0095 22.418 49.3095 21.716 49.9095 21.212C50.5215 20.696 51.2355 20.438 52.0515 20.438C53.2755 20.438 54.2595 20.852 55.0035 21.68V19.916C55.0035 19.292 54.7815 18.806 54.3375 18.458C53.8935 18.098 53.3355 17.918 52.6635 17.918C51.5955 17.918 50.6895 18.344 49.9455 19.196L49.4235 18.548C50.3235 17.576 51.4395 17.09 52.7715 17.09C53.7075 17.09 54.4695 17.324 55.0575 17.792C55.6455 18.26 55.9395 18.956 55.9395 19.88V26ZM55.0035 24.29V22.382C54.3795 21.578 53.5035 21.176 52.3755 21.176C51.6675 21.176 51.0915 21.38 50.6475 21.788C50.2155 22.196 49.9995 22.712 49.9995 23.336C49.9995 23.96 50.2155 24.476 50.6475 24.884C51.0915 25.28 51.6675 25.478 52.3755 25.478C53.5155 25.478 54.3915 25.082 55.0035 24.29ZM60.7543 26.216C59.6143 26.216 59.0443 25.586 59.0443 24.326V18.134H57.6043V17.306H59.0443V14.93H59.9983V17.306H61.7623V18.134H59.9983V24.182C59.9983 24.974 60.2983 25.37 60.8983 25.37C61.2943 25.37 61.6183 25.232 61.8703 24.956L62.2303 25.676C61.8463 26.036 61.3543 26.216 60.7543 26.216ZM63.3173 21.644C63.3173 20.372 63.7133 19.298 64.5053 18.422C65.3093 17.534 66.3113 17.09 67.5113 17.09C68.7833 17.09 69.7853 17.534 70.5173 18.422C71.2493 19.298 71.6153 20.39 71.6153 21.698V21.95H64.3433C64.3913 22.934 64.7213 23.756 65.3333 24.416C65.9453 25.076 66.7493 25.406 67.7453 25.406C68.8973 25.406 69.8453 25.004 70.5893 24.2L71.0753 24.812C70.1753 25.748 69.0413 26.216 67.6733 26.216C66.4013 26.216 65.3573 25.79 64.5413 24.938C63.7253 24.086 63.3173 22.988 63.3173 21.644ZM67.4933 17.9C66.5453 17.9 65.7893 18.242 65.2253 18.926C64.6733 19.598 64.3793 20.36 64.3433 21.212H70.6613C70.6493 20.372 70.3673 19.61 69.8153 18.926C69.2753 18.242 68.5013 17.9 67.4933 17.9ZM79.7544 26H78.7284V13.994H86.3424V14.93H79.7544V19.376H86.2164V20.312H79.7544V26ZM88.9162 15.83C88.7242 15.83 88.5562 15.758 88.4122 15.614C88.2682 15.47 88.1962 15.302 88.1962 15.11C88.1962 14.918 88.2682 14.75 88.4122 14.606C88.5562 14.462 88.7242 14.39 88.9162 14.39C89.1202 14.39 89.2882 14.462 89.4202 14.606C89.5642 14.738 89.6362 14.906 89.6362 15.11C89.6362 15.314 89.5642 15.488 89.4202 15.632C89.2882 15.764 89.1202 15.83 88.9162 15.83ZM89.3842 26H88.4482V17.306H89.3842V26ZM93.2338 26H92.2978V13.994H93.2338V26ZM98.0375 26.216C96.8975 26.216 96.3275 25.586 96.3275 24.326V18.134H94.8875V17.306H96.3275V14.93H97.2815V17.306H99.0455V18.134H97.2815V24.182C97.2815 24.974 97.5815 25.37 98.1815 25.37C98.5775 25.37 98.9015 25.232 99.1535 24.956L99.5135 25.676C99.1295 26.036 98.6375 26.216 98.0375 26.216ZM100.6 21.644C100.6 20.372 100.996 19.298 101.788 18.422C102.592 17.534 103.594 17.09 104.794 17.09C106.066 17.09 107.068 17.534 107.8 18.422C108.532 19.298 108.898 20.39 108.898 21.698V21.95H101.626C101.674 22.934 102.004 23.756 102.616 24.416C103.228 25.076 104.032 25.406 105.028 25.406C106.18 25.406 107.128 25.004 107.872 24.2L108.358 24.812C107.458 25.748 106.324 26.216 104.956 26.216C103.684 26.216 102.64 25.79 101.824 24.938C101.008 24.086 100.6 22.988 100.6 21.644ZM104.776 17.9C103.828 17.9 103.072 18.242 102.508 18.926C101.956 19.598 101.662 20.36 101.626 21.212H107.944C107.932 20.372 107.65 19.61 107.098 18.926C106.558 18.242 105.784 17.9 104.776 17.9ZM112.253 26H111.317V17.306H112.253V18.8C113.105 17.684 114.083 17.126 115.187 17.126V18.152C115.079 18.128 114.923 18.116 114.719 18.116C114.287 18.116 113.819 18.278 113.315 18.602C112.811 18.926 112.457 19.28 112.253 19.664V26Z" fill="black"/>
<mask id="mask0_1553_25370" style="mask-type:alpha" maskUnits="userSpaceOnUse" x="356" y="12" width="16" height="16">
<rect x="356" y="12" width="16" height="16" fill="#D9D9D9"/>
</mask>
<g mask="url(#mask0_1553_25370)">
<path d="M364 20.6999L360.5 24.1999C360.4 24.2999 360.283 24.3499 360.15 24.3499C360.017 24.3499 359.9 24.2999 359.8 24.1999C359.7 24.0999 359.65 23.9832 359.65 23.8499C359.65 23.7166 359.7 23.5999 359.8 23.4999L363.3 19.9999L359.8 16.4999C359.7 16.3999 359.65 16.2832 359.65 16.1499C359.65 16.0166 359.7 15.8999 359.8 15.7999C359.9 15.6999 360.017 15.6499 360.15 15.6499C360.283 15.6499 360.4 15.6999 360.5 15.7999L364 19.2999L367.5 15.7999C367.6 15.6999 367.717 15.6499 367.85 15.6499C367.983 15.6499 368.1 15.6999 368.2 15.7999C368.3 15.8999 368.35 16.0166 368.35 16.1499C368.35 16.2832 368.3 16.3999 368.2 16.4999L364.7 19.9999L368.2 23.4999C368.3 23.5999 368.35 23.7166 368.35 23.8499C368.35 23.9832 368.3 24.0999 368.2 24.1999C368.1 24.2999 367.983 24.3499 367.85 24.3499C367.717 24.3499 367.6 24.2999 367.5 24.1999L364 20.6999Z" fill="#20232A"/>
</g>
<rect x="19.5" y="39.5" width="381" height="69" rx="6.5" stroke="#E7E8EA"/>
<path d="M29.932 64H28.936V55.996H34.18V56.884H29.932V59.464H34.096V60.352H29.932V64ZM35.9657 57.232C35.8057 57.232 35.6657 57.172 35.5457 57.052C35.4257 56.932 35.3657 56.788 35.3657 56.62C35.3657 56.452 35.4257 56.312 35.5457 56.2C35.6657 56.08 35.8057 56.02 35.9657 56.02C36.1337 56.02 36.2777 56.08 36.3977 56.2C36.5177 56.312 36.5777 56.452 36.5777 56.62C36.5777 56.788 36.5177 56.932 36.3977 57.052C36.2777 57.172 36.1337 57.232 35.9657 57.232ZM36.4217 64H35.5217V58.204H36.4217V64ZM39.141 64H38.241V55.996H39.141V64ZM42.4243 64.144C42.0003 64.144 41.6803 64.028 41.4643 63.796C41.2483 63.564 41.1403 63.228 41.1403 62.788V58.996H40.1803V58.204H41.1403V56.62H42.0403V58.204H43.2163V58.996H42.0403V62.596C42.0403 62.82 42.0883 63 42.1843 63.136C42.2883 63.272 42.4363 63.34 42.6283 63.34C42.8923 63.34 43.0963 63.26 43.2403 63.1L43.5043 63.772C43.2403 64.02 42.8803 64.144 42.4243 64.144ZM44.1756 61.096C44.1756 60.248 44.4476 59.532 44.9916 58.948C45.5356 58.356 46.2156 58.06 47.0316 58.06C47.8876 58.06 48.5636 58.356 49.0596 58.948C49.5636 59.532 49.8156 60.272 49.8156 61.168V61.396H45.1236C45.1636 61.964 45.3716 62.44 45.7476 62.824C46.1236 63.208 46.6116 63.4 47.2116 63.4C47.9316 63.4 48.5276 63.156 48.9996 62.668L49.4316 63.256C48.8396 63.848 48.0716 64.144 47.1276 64.144C46.2636 64.144 45.5556 63.864 45.0036 63.304C44.4516 62.736 44.1756 62 44.1756 61.096ZM47.0196 58.804C46.4436 58.804 45.9876 59 45.6516 59.392C45.3236 59.784 45.1476 60.232 45.1236 60.736H48.9276C48.9196 60.24 48.7516 59.796 48.4236 59.404C48.0956 59.004 47.6276 58.804 47.0196 58.804ZM52.1973 64H51.2973V58.204H52.1973V59.14C52.7333 58.436 53.3773 58.084 54.1293 58.084V59.008C54.0173 58.984 53.8973 58.972 53.7693 58.972C53.4973 58.972 53.2013 59.068 52.8813 59.26C52.5613 59.452 52.3333 59.664 52.1973 59.896V64ZM59.3 64H58.4V55.996H59.3V59.08C59.804 58.4 60.456 58.06 61.256 58.06C62.016 58.06 62.636 58.34 63.116 58.9C63.596 59.452 63.836 60.188 63.836 61.108C63.836 62.036 63.596 62.776 63.116 63.328C62.644 63.872 62.024 64.144 61.256 64.144C60.448 64.144 59.796 63.808 59.3 63.136V64ZM59.3 59.8V62.428C59.46 62.684 59.7 62.9 60.02 63.076C60.348 63.252 60.684 63.34 61.028 63.34C61.604 63.34 62.06 63.132 62.396 62.716C62.732 62.3 62.9 61.764 62.9 61.108C62.9 60.452 62.732 59.916 62.396 59.5C62.06 59.076 61.604 58.864 61.028 58.864C60.684 58.864 60.348 58.956 60.02 59.14C59.7 59.316 59.46 59.536 59.3 59.8ZM65.0024 66.268L65.1464 65.452C65.2904 65.516 65.4544 65.548 65.6384 65.548C65.8464 65.548 66.0184 65.504 66.1544 65.416C66.2904 65.328 66.4064 65.168 66.5024 64.936L66.8864 64.06L64.4624 58.204H65.4344L67.3664 62.956L69.2864 58.204H70.2704L67.3664 65.176C67.0464 65.944 66.4784 66.336 65.6624 66.352C65.4224 66.352 65.2024 66.324 65.0024 66.268Z" fill="#7D8393"/>
<path d="M89.052 64H87.516L86.928 62.464H83.136L82.548 64H81.012L84.156 55.996H85.908L89.052 64ZM86.532 61.228L85.032 57.184L83.532 61.228H86.532ZM89.5542 61.096C89.5542 60.216 89.8342 59.492 90.3942 58.924C90.9542 58.348 91.6742 58.06 92.5542 58.06C93.5222 58.06 94.2622 58.404 94.7742 59.092L93.9462 59.86C93.6262 59.404 93.1822 59.176 92.6142 59.176C92.0862 59.176 91.6622 59.356 91.3422 59.716C91.0222 60.068 90.8622 60.528 90.8622 61.096C90.8622 61.664 91.0222 62.128 91.3422 62.488C91.6622 62.848 92.0862 63.028 92.6142 63.028C93.1662 63.028 93.6102 62.8 93.9462 62.344L94.7742 63.112C94.2622 63.8 93.5222 64.144 92.5542 64.144C91.6742 64.144 90.9542 63.86 90.3942 63.292C89.8342 62.716 89.5542 61.984 89.5542 61.096ZM97.6431 64.144C97.1551 64.144 96.7831 64.016 96.5271 63.76C96.2791 63.504 96.1551 63.136 96.1551 62.656V59.308H95.1951V58.204H96.1551V56.62H97.4151V58.204H98.5911V59.308H97.4151V62.344C97.4151 62.552 97.4631 62.72 97.5591 62.848C97.6551 62.968 97.7911 63.028 97.9671 63.028C98.2231 63.028 98.4111 62.96 98.5311 62.824L98.8311 63.772C98.5671 64.02 98.1711 64.144 97.6431 64.144ZM100.383 57.244C100.175 57.244 99.9911 57.168 99.8311 57.016C99.6791 56.864 99.6031 56.68 99.6031 56.464C99.6031 56.248 99.6791 56.064 99.8311 55.912C99.9911 55.76 100.175 55.684 100.383 55.684C100.599 55.684 100.783 55.76 100.935 55.912C101.087 56.064 101.163 56.248 101.163 56.464C101.163 56.68 101.087 56.864 100.935 57.016C100.783 57.168 100.599 57.244 100.383 57.244ZM101.019 64H99.7591V58.204H101.019V64ZM105.558 64H104.202L101.838 58.204H103.182L104.874 62.548L106.566 58.204H107.922L105.558 64ZM109.361 57.244C109.153 57.244 108.969 57.168 108.809 57.016C108.657 56.864 108.581 56.68 108.581 56.464C108.581 56.248 108.657 56.064 108.809 55.912C108.969 55.76 109.153 55.684 109.361 55.684C109.577 55.684 109.761 55.76 109.913 55.912C110.065 56.064 110.141 56.248 110.141 56.464C110.141 56.68 110.065 56.864 109.913 57.016C109.761 57.168 109.577 57.244 109.361 57.244ZM109.997 64H108.737V58.204H109.997V64ZM113.395 64.144C112.907 64.144 112.535 64.016 112.279 63.76C112.031 63.504 111.907 63.136 111.907 62.656V59.308H110.947V58.204H111.907V56.62H113.167V58.204H114.343V59.308H113.167V62.344C113.167 62.552 113.215 62.72 113.311 62.848C113.407 62.968 113.543 63.028 113.719 63.028C113.975 63.028 114.163 62.96 114.283 62.824L114.583 63.772C114.319 64.02 113.923 64.144 113.395 64.144ZM115.259 66.268L115.451 65.14C115.595 65.204 115.755 65.236 115.931 65.236C116.339 65.236 116.615 65.068 116.759 64.732L117.047 64.072L114.671 58.204H116.015L117.707 62.548L119.399 58.204H120.755L117.959 65.044C117.615 65.9 116.951 66.336 115.967 66.352C115.703 66.352 115.467 66.324 115.259 66.268Z" fill="#346868"/>
<path d="M133 62.1664C132.934 62.1668 132.869 62.1539 132.808 62.1288C132.748 62.1036 132.693 62.0665 132.647 62.0198L129.313 58.6864C129.247 58.5892 129.217 58.4716 129.229 58.3543C129.24 58.2371 129.293 58.1278 129.378 58.0457C129.462 57.9636 129.573 57.914 129.69 57.9056C129.808 57.8972 129.925 57.9305 130.02 57.9998L133 60.9598L135.98 57.9998C136.074 57.9389 136.186 57.9112 136.297 57.9214C136.409 57.9315 136.514 57.9788 136.595 58.0556C136.677 58.1325 136.73 58.2345 136.746 58.3452C136.763 58.456 136.742 58.5691 136.687 58.6664L133.353 61.9998C133.309 62.0502 133.255 62.0909 133.194 62.1196C133.133 62.1482 133.067 62.1642 133 62.1664Z" fill="#26514C"/>
<path d="M150.932 64H149.936V55.996H150.932V64ZM157.607 64H156.707V60.208C156.707 59.72 156.595 59.376 156.371 59.176C156.147 58.968 155.827 58.864 155.411 58.864C155.075 58.864 154.747 58.952 154.427 59.128C154.115 59.304 153.871 59.516 153.695 59.764V64H152.795V58.204H153.695V59.044C153.919 58.78 154.219 58.552 154.595 58.36C154.971 58.16 155.359 58.06 155.759 58.06C156.991 58.06 157.607 58.684 157.607 59.932V64Z" fill="#7D8393"/>
<path d="M173.632 64.144C172.464 64.144 171.48 63.756 170.68 62.98C169.888 62.204 169.492 61.212 169.492 60.004C169.492 58.796 169.888 57.804 170.68 57.028C171.48 56.252 172.464 55.864 173.632 55.864C175.064 55.864 176.156 56.464 176.908 57.664L175.708 58.276C175.508 57.932 175.224 57.652 174.856 57.436C174.488 57.22 174.08 57.112 173.632 57.112C172.864 57.112 172.22 57.388 171.7 57.94C171.188 58.484 170.932 59.172 170.932 60.004C170.932 60.836 171.188 61.528 171.7 62.08C172.22 62.624 172.864 62.896 173.632 62.896C174.08 62.896 174.488 62.788 174.856 62.572C175.224 62.356 175.508 62.076 175.708 61.732L176.908 62.344C176.14 63.544 175.048 64.144 173.632 64.144ZM183.192 64H181.932V63.232C181.388 63.84 180.704 64.144 179.88 64.144C178.64 64.144 178.02 63.532 178.02 62.308V58.204H179.28V61.852C179.28 62.276 179.38 62.58 179.58 62.764C179.78 62.94 180.068 63.028 180.444 63.028C180.748 63.028 181.032 62.956 181.296 62.812C181.56 62.668 181.772 62.488 181.932 62.272V58.204H183.192V64ZM184.348 63.244L184.924 62.332C185.14 62.556 185.432 62.748 185.8 62.908C186.168 63.068 186.532 63.148 186.892 63.148C187.26 63.148 187.54 63.088 187.732 62.968C187.932 62.84 188.032 62.664 188.032 62.44C188.032 62.208 187.92 62.036 187.696 61.924C187.472 61.804 187.144 61.696 186.712 61.6C186.448 61.544 186.24 61.496 186.088 61.456C185.944 61.416 185.756 61.352 185.524 61.264C185.292 61.168 185.116 61.064 184.996 60.952C184.876 60.832 184.768 60.676 184.672 60.484C184.576 60.292 184.528 60.072 184.528 59.824C184.528 59.328 184.732 58.912 185.14 58.576C185.548 58.232 186.104 58.06 186.808 58.06C187.696 58.06 188.448 58.332 189.064 58.876L188.536 59.764C188.352 59.556 188.108 59.388 187.804 59.26C187.5 59.132 187.172 59.068 186.82 59.068C186.484 59.068 186.22 59.128 186.028 59.248C185.836 59.36 185.74 59.516 185.74 59.716C185.74 59.916 185.844 60.068 186.052 60.172C186.26 60.276 186.576 60.376 187 60.472C187.264 60.528 187.472 60.576 187.624 60.616C187.784 60.656 187.98 60.728 188.212 60.832C188.444 60.928 188.624 61.036 188.752 61.156C188.88 61.276 188.992 61.44 189.088 61.648C189.192 61.848 189.244 62.08 189.244 62.344C189.244 62.872 189.032 63.304 188.608 63.64C188.184 63.976 187.592 64.144 186.832 64.144C185.792 64.144 184.964 63.844 184.348 63.244ZM192.276 64.144C191.788 64.144 191.416 64.016 191.16 63.76C190.912 63.504 190.788 63.136 190.788 62.656V59.308H189.828V58.204H190.788V56.62H192.048V58.204H193.224V59.308H192.048V62.344C192.048 62.552 192.096 62.72 192.192 62.848C192.288 62.968 192.424 63.028 192.6 63.028C192.856 63.028 193.044 62.96 193.164 62.824L193.464 63.772C193.2 64.02 192.804 64.144 192.276 64.144ZM197.008 64.144C196.112 64.144 195.392 63.852 194.848 63.268C194.304 62.676 194.032 61.952 194.032 61.096C194.032 60.24 194.304 59.52 194.848 58.936C195.392 58.352 196.112 58.06 197.008 58.06C197.912 58.06 198.636 58.352 199.18 58.936C199.724 59.52 199.996 60.24 199.996 61.096C199.996 61.96 199.724 62.684 199.18 63.268C198.636 63.852 197.912 64.144 197.008 64.144ZM197.008 63.028C197.528 63.028 197.936 62.844 198.232 62.476C198.536 62.1 198.688 61.64 198.688 61.096C198.688 60.56 198.536 60.108 198.232 59.74C197.936 59.364 197.528 59.176 197.008 59.176C196.496 59.176 196.088 59.364 195.784 59.74C195.488 60.108 195.34 60.56 195.34 61.096C195.34 61.64 195.488 62.1 195.784 62.476C196.088 62.844 196.496 63.028 197.008 63.028ZM209.659 64H208.399V60.22C208.399 59.524 208.083 59.176 207.451 59.176C207.187 59.176 206.931 59.252 206.683 59.404C206.435 59.556 206.243 59.736 206.107 59.944V64H204.847V60.22C204.847 59.524 204.527 59.176 203.887 59.176C203.631 59.176 203.379 59.252 203.131 59.404C202.891 59.556 202.699 59.74 202.555 59.956V64H201.295V58.204H202.555V58.996C202.699 58.78 202.947 58.572 203.299 58.372C203.659 58.164 204.039 58.06 204.439 58.06C205.279 58.06 205.807 58.416 206.023 59.128C206.207 58.84 206.479 58.592 206.839 58.384C207.199 58.168 207.583 58.06 207.991 58.06C209.103 58.06 209.659 58.644 209.659 59.812V64ZM210.955 61.096C210.955 60.248 211.231 59.532 211.783 58.948C212.343 58.356 213.047 58.06 213.895 58.06C214.751 58.06 215.439 58.356 215.959 58.948C216.487 59.54 216.751 60.296 216.751 61.216V61.516H212.275C212.323 61.972 212.511 62.352 212.839 62.656C213.167 62.96 213.595 63.112 214.123 63.112C214.419 63.112 214.715 63.056 215.011 62.944C215.315 62.832 215.567 62.676 215.767 62.476L216.343 63.304C215.759 63.864 214.975 64.144 213.991 64.144C213.111 64.144 212.383 63.864 211.807 63.304C211.239 62.736 210.955 62 210.955 61.096ZM213.895 59.092C213.399 59.092 213.011 59.248 212.731 59.56C212.451 59.864 212.295 60.22 212.263 60.628H215.527C215.511 60.228 215.363 59.872 215.083 59.56C214.811 59.248 214.415 59.092 213.895 59.092ZM219.279 64H218.019V58.204H219.279V59.056C219.503 58.768 219.783 58.532 220.119 58.348C220.455 58.164 220.803 58.072 221.163 58.072V59.32C221.051 59.296 220.919 59.284 220.767 59.284C220.503 59.284 220.219 59.364 219.915 59.524C219.619 59.676 219.407 59.852 219.279 60.052V64ZM228.321 64H225.345V55.996H228.321C229.561 55.996 230.569 56.368 231.345 57.112C232.121 57.856 232.509 58.82 232.509 60.004C232.509 61.18 232.121 62.14 231.345 62.884C230.577 63.628 229.569 64 228.321 64ZM226.749 57.232V62.764H228.321C229.161 62.764 229.829 62.5 230.325 61.972C230.821 61.444 231.069 60.788 231.069 60.004C231.069 59.196 230.825 58.532 230.337 58.012C229.857 57.492 229.185 57.232 228.321 57.232H226.749ZM234.477 57.244C234.269 57.244 234.085 57.168 233.925 57.016C233.773 56.864 233.697 56.68 233.697 56.464C233.697 56.248 233.773 56.064 233.925 55.912C234.085 55.76 234.269 55.684 234.477 55.684C234.693 55.684 234.877 55.76 235.029 55.912C235.181 56.064 235.257 56.248 235.257 56.464C235.257 56.68 235.181 56.864 235.029 57.016C234.877 57.168 234.693 57.244 234.477 57.244ZM235.113 64H233.853V58.204H235.113V64ZM238.031 64H236.771V58.204H238.031V59.056C238.255 58.768 238.535 58.532 238.871 58.348C239.207 58.164 239.555 58.072 239.915 58.072V59.32C239.803 59.296 239.671 59.284 239.519 59.284C239.255 59.284 238.971 59.364 238.667 59.524C238.371 59.676 238.159 59.852 238.031 60.052V64ZM240.596 61.096C240.596 60.248 240.872 59.532 241.424 58.948C241.984 58.356 242.688 58.06 243.536 58.06C244.392 58.06 245.08 58.356 245.6 58.948C246.128 59.54 246.392 60.296 246.392 61.216V61.516H241.916C241.964 61.972 242.152 62.352 242.48 62.656C242.808 62.96 243.236 63.112 243.764 63.112C244.06 63.112 244.356 63.056 244.652 62.944C244.956 62.832 245.208 62.676 245.408 62.476L245.984 63.304C245.4 63.864 244.616 64.144 243.632 64.144C242.752 64.144 242.024 63.864 241.448 63.304C240.88 62.736 240.596 62 240.596 61.096ZM243.536 59.092C243.04 59.092 242.652 59.248 242.372 59.56C242.092 59.864 241.936 60.22 241.904 60.628H245.168C245.152 60.228 245.004 59.872 244.724 59.56C244.452 59.248 244.056 59.092 243.536 59.092ZM247.299 61.096C247.299 60.216 247.579 59.492 248.139 58.924C248.699 58.348 249.419 58.06 250.299 58.06C251.267 58.06 252.007 58.404 252.519 59.092L251.691 59.86C251.371 59.404 250.927 59.176 250.359 59.176C249.831 59.176 249.407 59.356 249.087 59.716C248.767 60.068 248.607 60.528 248.607 61.096C248.607 61.664 248.767 62.128 249.087 62.488C249.407 62.848 249.831 63.028 250.359 63.028C250.911 63.028 251.355 62.8 251.691 62.344L252.519 63.112C252.007 63.8 251.267 64.144 250.299 64.144C249.419 64.144 248.699 63.86 248.139 63.292C247.579 62.716 247.299 61.984 247.299 61.096ZM255.388 64.144C254.9 64.144 254.528 64.016 254.272 63.76C254.024 63.504 253.9 63.136 253.9 62.656V59.308H252.94V58.204H253.9V56.62H255.16V58.204H256.336V59.308H255.16V62.344C255.16 62.552 255.208 62.72 255.304 62.848C255.4 62.968 255.536 63.028 255.712 63.028C255.968 63.028 256.156 62.96 256.276 62.824L256.576 63.772C256.312 64.02 255.916 64.144 255.388 64.144ZM260.12 64.144C259.224 64.144 258.504 63.852 257.96 63.268C257.416 62.676 257.144 61.952 257.144 61.096C257.144 60.24 257.416 59.52 257.96 58.936C258.504 58.352 259.224 58.06 260.12 58.06C261.024 58.06 261.748 58.352 262.292 58.936C262.836 59.52 263.108 60.24 263.108 61.096C263.108 61.96 262.836 62.684 262.292 63.268C261.748 63.852 261.024 64.144 260.12 64.144ZM260.12 63.028C260.64 63.028 261.048 62.844 261.344 62.476C261.648 62.1 261.8 61.64 261.8 61.096C261.8 60.56 261.648 60.108 261.344 59.74C261.048 59.364 260.64 59.176 260.12 59.176C259.608 59.176 259.2 59.364 258.896 59.74C258.6 60.108 258.452 60.56 258.452 61.096C258.452 61.64 258.6 62.1 258.896 62.476C259.2 62.844 259.608 63.028 260.12 63.028ZM265.667 64H264.407V58.204H265.667V59.056C265.891 58.768 266.171 58.532 266.507 58.348C266.843 58.164 267.191 58.072 267.551 58.072V59.32C267.439 59.296 267.307 59.284 267.155 59.284C266.891 59.284 266.607 59.364 266.303 59.524C266.007 59.676 265.795 59.852 265.667 60.052V64ZM268.339 66.268L268.531 65.14C268.675 65.204 268.835 65.236 269.011 65.236C269.419 65.236 269.695 65.068 269.839 64.732L270.127 64.072L267.751 58.204H269.095L270.787 62.548L272.479 58.204H273.835L271.039 65.044C270.695 65.9 270.031 66.336 269.047 66.352C268.783 66.352 268.547 66.324 268.339 66.268Z" fill="#346868"/>
<path d="M35.788 92H34.684L33.976 90.224H29.92L29.212 92H28.108L31.324 83.996H32.56L35.788 92ZM33.676 89.336L31.948 84.884L30.208 89.336H33.676ZM37.2904 91.28C36.7544 90.696 36.4864 89.968 36.4864 89.096C36.4864 88.224 36.7544 87.5 37.2904 86.924C37.8264 86.348 38.5224 86.06 39.3784 86.06C40.2744 86.06 40.9824 86.396 41.5024 87.068L40.9024 87.62C40.5344 87.116 40.0424 86.864 39.4264 86.864C38.8184 86.864 38.3304 87.072 37.9624 87.488C37.6024 87.904 37.4224 88.44 37.4224 89.096C37.4224 89.752 37.6024 90.292 37.9624 90.716C38.3304 91.132 38.8184 91.34 39.4264 91.34C40.0344 91.34 40.5264 91.088 40.9024 90.584L41.5024 91.136C40.9824 91.808 40.2744 92.144 39.3784 92.144C38.5224 92.144 37.8264 91.856 37.2904 91.28ZM44.2518 92.144C43.8278 92.144 43.5078 92.028 43.2918 91.796C43.0758 91.564 42.9678 91.228 42.9678 90.788V86.996H42.0078V86.204H42.9678V84.62H43.8678V86.204H45.0438V86.996H43.8678V90.596C43.8678 90.82 43.9158 91 44.0118 91.136C44.1158 91.272 44.2638 91.34 44.4558 91.34C44.7198 91.34 44.9238 91.26 45.0678 91.1L45.3318 91.772C45.0678 92.02 44.7078 92.144 44.2518 92.144ZM46.7832 85.232C46.6232 85.232 46.4832 85.172 46.3632 85.052C46.2432 84.932 46.1832 84.788 46.1832 84.62C46.1832 84.452 46.2432 84.312 46.3632 84.2C46.4832 84.08 46.6232 84.02 46.7832 84.02C46.9512 84.02 47.0952 84.08 47.2152 84.2C47.3352 84.312 47.3952 84.452 47.3952 84.62C47.3952 84.788 47.3352 84.932 47.2152 85.052C47.0952 85.172 46.9512 85.232 46.7832 85.232ZM47.2392 92H46.3392V86.204H47.2392V92ZM51.5905 92H50.6065L48.1945 86.204H49.1665L51.0985 90.956L53.0185 86.204H54.0025L51.5905 92ZM55.4093 85.232C55.2493 85.232 55.1093 85.172 54.9893 85.052C54.8693 84.932 54.8093 84.788 54.8093 84.62C54.8093 84.452 54.8693 84.312 54.9893 84.2C55.1093 84.08 55.2493 84.02 55.4093 84.02C55.5773 84.02 55.7213 84.08 55.8413 84.2C55.9613 84.312 56.0213 84.452 56.0213 84.62C56.0213 84.788 55.9613 84.932 55.8413 85.052C55.7213 85.172 55.5773 85.232 55.4093 85.232ZM55.8653 92H54.9653V86.204H55.8653V92ZM59.1486 92.144C58.7246 92.144 58.4046 92.028 58.1886 91.796C57.9726 91.564 57.8646 91.228 57.8646 90.788V86.996H56.9046V86.204H57.8646V84.62H58.7646V86.204H59.9406V86.996H58.7646V90.596C58.7646 90.82 58.8126 91 58.9086 91.136C59.0126 91.272 59.1606 91.34 59.3526 91.34C59.6166 91.34 59.8206 91.26 59.9646 91.1L60.2286 91.772C59.9646 92.02 59.6046 92.144 59.1486 92.144ZM60.912 94.268L61.056 93.452C61.2 93.516 61.364 93.548 61.548 93.548C61.756 93.548 61.928 93.504 62.064 93.416C62.2 93.328 62.316 93.168 62.412 92.936L62.796 92.06L60.372 86.204H61.344L63.276 90.956L65.196 86.204H66.18L63.276 93.176C62.956 93.944 62.388 94.336 61.572 94.352C61.332 94.352 61.112 94.324 60.912 94.268Z" fill="#7D8393"/>
<rect x="69" y="76" width="116" height="24" rx="6" fill="#C5E1DF"/>
<path d="M80.24 89.636H77.36V88.556H80.24V89.636ZM83.8617 89.636H80.9817V88.556H83.8617V89.636ZM84.5793 90.872L85.3593 89.792C86.0473 90.528 86.8913 90.896 87.8913 90.896C88.4273 90.896 88.8273 90.788 89.0913 90.572C89.3633 90.356 89.4993 90.1 89.4993 89.804C89.4993 89.668 89.4633 89.544 89.3913 89.432C89.3193 89.312 89.2393 89.22 89.1513 89.156C89.0633 89.084 88.9193 89.012 88.7193 88.94C88.5273 88.86 88.3713 88.804 88.2513 88.772C88.1313 88.732 87.9393 88.68 87.6753 88.616C87.3233 88.528 87.0513 88.456 86.8593 88.4C86.6673 88.344 86.4193 88.252 86.1153 88.124C85.8193 87.988 85.5913 87.848 85.4313 87.704C85.2793 87.552 85.1393 87.348 85.0113 87.092C84.8913 86.836 84.8313 86.544 84.8313 86.216C84.8313 85.544 85.0993 84.988 85.6353 84.548C86.1793 84.1 86.8833 83.876 87.7473 83.876C88.9793 83.876 89.9793 84.248 90.7473 84.992L89.9433 86.036C89.3353 85.428 88.5633 85.124 87.6273 85.124C87.2113 85.124 86.8793 85.216 86.6313 85.4C86.3913 85.576 86.2713 85.816 86.2713 86.12C86.2713 86.272 86.3113 86.404 86.3913 86.516C86.4793 86.62 86.6193 86.716 86.8113 86.804C87.0113 86.892 87.1873 86.96 87.3393 87.008C87.4913 87.048 87.7233 87.108 88.0353 87.188C88.3873 87.276 88.6593 87.352 88.8513 87.416C89.0513 87.472 89.3033 87.568 89.6073 87.704C89.9113 87.84 90.1433 87.988 90.3033 88.148C90.4633 88.3 90.6073 88.508 90.7353 88.772C90.8633 89.036 90.9273 89.336 90.9273 89.672C90.9273 90.392 90.6673 90.984 90.1473 91.448C89.6273 91.912 88.8553 92.144 87.8313 92.144C86.4553 92.144 85.3713 91.72 84.5793 90.872ZM91.8483 89.096C91.8483 88.248 92.1243 87.532 92.6763 86.948C93.2363 86.356 93.9403 86.06 94.7883 86.06C95.6443 86.06 96.3323 86.356 96.8523 86.948C97.3803 87.54 97.6443 88.296 97.6443 89.216V89.516H93.1683C93.2163 89.972 93.4043 90.352 93.7323 90.656C94.0603 90.96 94.4883 91.112 95.0163 91.112C95.3123 91.112 95.6083 91.056 95.9043 90.944C96.2083 90.832 96.4603 90.676 96.6603 90.476L97.2363 91.304C96.6523 91.864 95.8683 92.144 94.8843 92.144C94.0043 92.144 93.2763 91.864 92.7003 91.304C92.1323 90.736 91.8483 90 91.8483 89.096ZM94.7883 87.092C94.2923 87.092 93.9043 87.248 93.6243 87.56C93.3443 87.864 93.1883 88.22 93.1563 88.628H96.4203C96.4043 88.228 96.2563 87.872 95.9763 87.56C95.7043 87.248 95.3083 87.092 94.7883 87.092ZM100.172 92H98.912V83.996H100.172V92ZM101.471 89.096C101.471 88.248 101.747 87.532 102.299 86.948C102.859 86.356 103.563 86.06 104.411 86.06C105.267 86.06 105.955 86.356 106.475 86.948C107.003 87.54 107.267 88.296 107.267 89.216V89.516H102.791C102.839 89.972 103.027 90.352 103.355 90.656C103.683 90.96 104.111 91.112 104.639 91.112C104.935 91.112 105.231 91.056 105.527 90.944C105.831 90.832 106.083 90.676 106.283 90.476L106.859 91.304C106.275 91.864 105.491 92.144 104.507 92.144C103.627 92.144 102.899 91.864 102.323 91.304C101.755 90.736 101.471 90 101.471 89.096ZM104.411 87.092C103.915 87.092 103.527 87.248 103.247 87.56C102.967 87.864 102.811 88.22 102.779 88.628H106.043C106.027 88.228 105.879 87.872 105.599 87.56C105.327 87.248 104.931 87.092 104.411 87.092ZM108.174 89.096C108.174 88.216 108.454 87.492 109.014 86.924C109.574 86.348 110.294 86.06 111.174 86.06C112.142 86.06 112.882 86.404 113.394 87.092L112.566 87.86C112.246 87.404 111.802 87.176 111.234 87.176C110.706 87.176 110.282 87.356 109.962 87.716C109.642 88.068 109.482 88.528 109.482 89.096C109.482 89.664 109.642 90.128 109.962 90.488C110.282 90.848 110.706 91.028 111.234 91.028C111.786 91.028 112.23 90.8 112.566 90.344L113.394 91.112C112.882 91.8 112.142 92.144 111.174 92.144C110.294 92.144 109.574 91.86 109.014 91.292C108.454 90.716 108.174 89.984 108.174 89.096ZM116.263 92.144C115.775 92.144 115.403 92.016 115.147 91.76C114.899 91.504 114.775 91.136 114.775 90.656V87.308H113.815V86.204H114.775V84.62H116.035V86.204H117.211V87.308H116.035V90.344C116.035 90.552 116.083 90.72 116.179 90.848C116.275 90.968 116.411 91.028 116.587 91.028C116.843 91.028 117.031 90.96 117.151 90.824L117.451 91.772C117.187 92.02 116.791 92.144 116.263 92.144ZM128.721 92H127.185L126.597 90.464H122.805L122.217 92H120.681L123.825 83.996H125.577L128.721 92ZM126.201 89.228L124.701 85.184L123.201 89.228H126.201ZM129.223 89.096C129.223 88.216 129.503 87.492 130.063 86.924C130.623 86.348 131.343 86.06 132.223 86.06C133.191 86.06 133.931 86.404 134.443 87.092L133.615 87.86C133.295 87.404 132.851 87.176 132.283 87.176C131.755 87.176 131.331 87.356 131.011 87.716C130.691 88.068 130.531 88.528 130.531 89.096C130.531 89.664 130.691 90.128 131.011 90.488C131.331 90.848 131.755 91.028 132.283 91.028C132.835 91.028 133.279 90.8 133.615 90.344L134.443 91.112C133.931 91.8 133.191 92.144 132.223 92.144C131.343 92.144 130.623 91.86 130.063 91.292C129.503 90.716 129.223 89.984 129.223 89.096ZM137.312 92.144C136.824 92.144 136.452 92.016 136.196 91.76C135.948 91.504 135.824 91.136 135.824 90.656V87.308H134.864V86.204H135.824V84.62H137.084V86.204H138.26V87.308H137.084V90.344C137.084 90.552 137.132 90.72 137.228 90.848C137.324 90.968 137.46 91.028 137.636 91.028C137.892 91.028 138.08 90.96 138.2 90.824L138.5 91.772C138.236 92.02 137.84 92.144 137.312 92.144ZM140.052 85.244C139.844 85.244 139.66 85.168 139.5 85.016C139.348 84.864 139.272 84.68 139.272 84.464C139.272 84.248 139.348 84.064 139.5 83.912C139.66 83.76 139.844 83.684 140.052 83.684C140.268 83.684 140.452 83.76 140.604 83.912C140.756 84.064 140.832 84.248 140.832 84.464C140.832 84.68 140.756 84.864 140.604 85.016C140.452 85.168 140.268 85.244 140.052 85.244ZM140.688 92H139.428V86.204H140.688V92ZM145.227 92H143.871L141.507 86.204H142.851L144.543 90.548L146.235 86.204H147.591L145.227 92ZM149.03 85.244C148.822 85.244 148.638 85.168 148.478 85.016C148.326 84.864 148.25 84.68 148.25 84.464C148.25 84.248 148.326 84.064 148.478 83.912C148.638 83.76 148.822 83.684 149.03 83.684C149.246 83.684 149.43 83.76 149.582 83.912C149.734 84.064 149.81 84.248 149.81 84.464C149.81 84.68 149.734 84.864 149.582 85.016C149.43 85.168 149.246 85.244 149.03 85.244ZM149.666 92H148.406V86.204H149.666V92ZM153.064 92.144C152.576 92.144 152.204 92.016 151.948 91.76C151.7 91.504 151.576 91.136 151.576 90.656V87.308H150.616V86.204H151.576V84.62H152.836V86.204H154.012V87.308H152.836V90.344C152.836 90.552 152.884 90.72 152.98 90.848C153.076 90.968 153.212 91.028 153.388 91.028C153.644 91.028 153.832 90.96 153.952 90.824L154.252 91.772C153.988 92.02 153.592 92.144 153.064 92.144ZM154.928 94.268L155.12 93.14C155.264 93.204 155.424 93.236 155.6 93.236C156.008 93.236 156.284 93.068 156.428 92.732L156.716 92.072L154.34 86.204H155.684L157.376 90.548L159.068 86.204H160.424L157.628 93.044C157.284 93.9 156.62 94.336 155.636 94.352C155.372 94.352 155.136 94.324 154.928 94.268Z" fill="#346868"/>
<path d="M173 90.1664C172.934 90.1668 172.869 90.1539 172.808 90.1288C172.748 90.1036 172.693 90.0665 172.647 90.0198L169.313 86.6864C169.247 86.5892 169.217 86.4716 169.229 86.3543C169.24 86.2371 169.293 86.1278 169.378 86.0457C169.462 85.9636 169.573 85.914 169.69 85.9056C169.808 85.8972 169.925 85.9305 170.02 85.9998L173 88.9598L175.98 85.9998C176.074 85.9389 176.186 85.9112 176.297 85.9214C176.409 85.9315 176.514 85.9788 176.595 86.0556C176.677 86.1325 176.73 86.2345 176.746 86.3452C176.763 86.456 176.742 86.5691 176.687 86.6664L173.353 89.9998C173.309 90.0502 173.255 90.0909 173.194 90.1196C173.133 90.1482 173.067 90.1642 173 90.1664Z" fill="#26514C"/>
<g opacity="0.5">
<rect x="20.5" y="128.5" width="379" height="31" rx="2.5" fill="#F0F1F2"/>
<rect x="20.5" y="128.5" width="379" height="31" rx="2.5" stroke="#E7E8EA"/>
<path d="M163.062 143.438V138.75C163.062 138.601 163.003 138.458 162.898 138.352C162.792 138.247 162.649 138.188 162.5 138.188C162.351 138.188 162.208 138.247 162.102 138.352C161.997 138.458 161.938 138.601 161.938 138.75V143.438H157.25C157.101 143.438 156.958 143.497 156.852 143.602C156.747 143.708 156.688 143.851 156.688 144C156.688 144.149 156.747 144.292 156.852 144.398C156.958 144.503 157.101 144.562 157.25 144.562H161.938V149.25C161.939 149.399 161.999 149.541 162.104 149.646C162.209 149.751 162.351 149.811 162.5 149.812C162.649 149.812 162.792 149.753 162.898 149.648C163.003 149.542 163.062 149.399 163.062 149.25V144.562H167.75C167.899 144.562 168.042 144.503 168.148 144.398C168.253 144.292 168.312 144.149 168.312 144C168.311 143.851 168.251 143.709 168.146 143.604C168.041 143.499 167.899 143.439 167.75 143.438H163.062Z" fill="#393C42"/>
<path d="M184.894 148H183.102L182.416 146.208H177.992L177.306 148H175.514L179.182 138.662H181.226L184.894 148ZM181.954 144.766L180.204 140.048L178.454 144.766H181.954ZM192.102 148H190.632V147.076C190.072 147.804 189.349 148.168 188.462 148.168C187.575 148.168 186.852 147.851 186.292 147.216C185.732 146.581 185.452 145.718 185.452 144.626C185.452 143.543 185.732 142.68 186.292 142.036C186.852 141.392 187.575 141.07 188.462 141.07C189.349 141.07 190.072 141.439 190.632 142.176V138.662H192.102V148ZM190.632 145.97V143.282C190.464 143.021 190.217 142.806 189.89 142.638C189.563 142.461 189.227 142.372 188.882 142.372C188.303 142.372 187.841 142.582 187.496 143.002C187.151 143.422 186.978 143.963 186.978 144.626C186.978 145.289 187.151 145.83 187.496 146.25C187.841 146.661 188.303 146.866 188.882 146.866C189.227 146.866 189.563 146.782 189.89 146.614C190.217 146.446 190.464 146.231 190.632 145.97ZM200.237 148H198.767V147.076C198.207 147.804 197.483 148.168 196.597 148.168C195.71 148.168 194.987 147.851 194.427 147.216C193.867 146.581 193.587 145.718 193.587 144.626C193.587 143.543 193.867 142.68 194.427 142.036C194.987 141.392 195.71 141.07 196.597 141.07C197.483 141.07 198.207 141.439 198.767 142.176V138.662H200.237V148ZM198.767 145.97V143.282C198.599 143.021 198.351 142.806 198.025 142.638C197.698 142.461 197.362 142.372 197.017 142.372C196.438 142.372 195.976 142.582 195.631 143.002C195.285 143.422 195.113 143.963 195.113 144.626C195.113 145.289 195.285 145.83 195.631 146.25C195.976 146.661 196.438 146.866 197.017 146.866C197.362 146.866 197.698 146.782 198.025 146.614C198.351 146.446 198.599 146.231 198.767 145.97ZM210.189 148.168C208.826 148.168 207.678 147.715 206.745 146.81C205.821 145.905 205.359 144.747 205.359 143.338C205.359 141.929 205.821 140.771 206.745 139.866C207.678 138.961 208.826 138.508 210.189 138.508C211.86 138.508 213.134 139.208 214.011 140.608L212.611 141.322C212.378 140.921 212.046 140.594 211.617 140.342C211.188 140.09 210.712 139.964 210.189 139.964C209.293 139.964 208.542 140.286 207.935 140.93C207.338 141.565 207.039 142.367 207.039 143.338C207.039 144.309 207.338 145.116 207.935 145.76C208.542 146.395 209.293 146.712 210.189 146.712C210.712 146.712 211.188 146.586 211.617 146.334C212.046 146.082 212.378 145.755 212.611 145.354L214.011 146.068C213.115 147.468 211.841 148.168 210.189 148.168ZM218.332 148.168C217.287 148.168 216.447 147.827 215.812 147.146C215.177 146.455 214.86 145.611 214.86 144.612C214.86 143.613 215.177 142.773 215.812 142.092C216.447 141.411 217.287 141.07 218.332 141.07C219.387 141.07 220.231 141.411 220.866 142.092C221.501 142.773 221.818 143.613 221.818 144.612C221.818 145.62 221.501 146.465 220.866 147.146C220.231 147.827 219.387 148.168 218.332 148.168ZM218.332 146.866C218.939 146.866 219.415 146.651 219.76 146.222C220.115 145.783 220.292 145.247 220.292 144.612C220.292 143.987 220.115 143.459 219.76 143.03C219.415 142.591 218.939 142.372 218.332 142.372C217.735 142.372 217.259 142.591 216.904 143.03C216.559 143.459 216.386 143.987 216.386 144.612C216.386 145.247 216.559 145.783 216.904 146.222C217.259 146.651 217.735 146.866 218.332 146.866ZM229.34 148H227.87V143.772C227.87 142.839 227.417 142.372 226.512 142.372C226.157 142.372 225.826 142.461 225.518 142.638C225.21 142.815 224.962 143.03 224.776 143.282V148H223.306V141.238H224.776V142.162C225.028 141.863 225.364 141.607 225.784 141.392C226.204 141.177 226.661 141.07 227.156 141.07C227.874 141.07 228.416 141.257 228.78 141.63C229.153 142.003 229.34 142.54 229.34 143.24V148ZM237.479 148H236.009V147.076C235.449 147.804 234.726 148.168 233.839 148.168C232.952 148.168 232.229 147.851 231.669 147.216C231.109 146.581 230.829 145.718 230.829 144.626C230.829 143.543 231.109 142.68 231.669 142.036C232.229 141.392 232.952 141.07 233.839 141.07C234.726 141.07 235.449 141.439 236.009 142.176V138.662H237.479V148ZM236.009 145.97V143.282C235.841 143.021 235.594 142.806 235.267 142.638C234.94 142.461 234.604 142.372 234.259 142.372C233.68 142.372 233.218 142.582 232.873 143.002C232.528 143.422 232.355 143.963 232.355 144.626C232.355 145.289 232.528 145.83 232.873 146.25C233.218 146.661 233.68 146.866 234.259 146.866C234.604 146.866 234.94 146.782 235.267 146.614C235.594 146.446 235.841 146.231 236.009 145.97ZM240.112 140.118C239.869 140.118 239.654 140.029 239.468 139.852C239.29 139.675 239.202 139.46 239.202 139.208C239.202 138.956 239.29 138.741 239.468 138.564C239.654 138.387 239.869 138.298 240.112 138.298C240.364 138.298 240.578 138.387 240.756 138.564C240.933 138.741 241.022 138.956 241.022 139.208C241.022 139.46 240.933 139.675 240.756 139.852C240.578 140.029 240.364 140.118 240.112 140.118ZM240.854 148H239.384V141.238H240.854V148ZM244.791 148.168C244.221 148.168 243.787 148.019 243.489 147.72C243.199 147.421 243.055 146.992 243.055 146.432V142.526H241.935V141.238H243.055V139.39H244.525V141.238H245.897V142.526H244.525V146.068C244.525 146.311 244.581 146.507 244.693 146.656C244.805 146.796 244.963 146.866 245.169 146.866C245.467 146.866 245.687 146.787 245.827 146.628L246.177 147.734C245.869 148.023 245.407 148.168 244.791 148.168ZM247.959 140.118C247.717 140.118 247.502 140.029 247.315 139.852C247.138 139.675 247.049 139.46 247.049 139.208C247.049 138.956 247.138 138.741 247.315 138.564C247.502 138.387 247.717 138.298 247.959 138.298C248.211 138.298 248.426 138.387 248.603 138.564C248.781 138.741 248.869 138.956 248.869 139.208C248.869 139.46 248.781 139.675 248.603 139.852C248.426 140.029 248.211 140.118 247.959 140.118ZM248.701 148H247.231V141.238H248.701V148ZM253.66 148.168C252.615 148.168 251.775 147.827 251.14 147.146C250.506 146.455 250.188 145.611 250.188 144.612C250.188 143.613 250.506 142.773 251.14 142.092C251.775 141.411 252.615 141.07 253.66 141.07C254.715 141.07 255.56 141.411 256.194 142.092C256.829 142.773 257.146 143.613 257.146 144.612C257.146 145.62 256.829 146.465 256.194 147.146C255.56 147.827 254.715 148.168 253.66 148.168ZM253.66 146.866C254.267 146.866 254.743 146.651 255.088 146.222C255.443 145.783 255.62 145.247 255.62 144.612C255.62 143.987 255.443 143.459 255.088 143.03C254.743 142.591 254.267 142.372 253.66 142.372C253.063 142.372 252.587 142.591 252.232 143.03C251.887 143.459 251.714 143.987 251.714 144.612C251.714 145.247 251.887 145.783 252.232 146.222C252.587 146.651 253.063 146.866 253.66 146.866ZM264.668 148H263.198V143.772C263.198 142.839 262.745 142.372 261.84 142.372C261.485 142.372 261.154 142.461 260.846 142.638C260.538 142.815 260.29 143.03 260.104 143.282V148H258.634V141.238H260.104V142.162C260.356 141.863 260.692 141.607 261.112 141.392C261.532 141.177 261.989 141.07 262.484 141.07C263.202 141.07 263.744 141.257 264.108 141.63C264.481 142.003 264.668 142.54 264.668 143.24V148Z" fill="#20232A"/>
</g>
<g filter="url(#filter0_dd_1553_25370)">
<rect x="20" y="105" width="380" height="196" rx="6" fill="white"/>
<rect x="20.5" y="105.5" width="379" height="195" rx="5.5" stroke="#E7E8EA"/>
<g clip-path="url(#clip0_1553_25370)">
<mask id="path-22-inside-1_1553_25370" fill="white">
<path d="M26 117C26 114.791 27.7909 113 30 113H362C364.209 113 366 114.791 366 117V141C366 143.209 364.209 145 362 145H30C27.7909 145 26 143.209 26 141V117Z"/>
</mask>
<path d="M26 117C26 114.791 27.7909 113 30 113H362C364.209 113 366 114.791 366 117V141C366 143.209 364.209 145 362 145H30C27.7909 145 26 143.209 26 141V117Z" fill="white"/>
<path d="M26 113H366H26ZM366 141C366 143.761 363.761 146 361 146H31C28.2386 146 26 143.761 26 141C26 142.657 27.7909 144 30 144H362C364.209 144 366 142.657 366 141ZM26 145V113V145ZM366 113V145V113Z" fill="#E3E7EA" mask="url(#path-22-inside-1_1553_25370)"/>
<path d="M36.0777 133.725C34.9607 133.725 33.8688 133.394 32.9401 132.773C32.0114 132.153 31.2875 131.271 30.8601 130.239C30.4326 129.207 30.3208 128.071 30.5387 126.976C30.7566 125.88 31.2945 124.874 32.0843 124.084C32.8741 123.294 33.8804 122.757 34.9759 122.539C36.0714 122.321 37.2069 122.433 38.2389 122.86C39.2708 123.288 40.1528 124.011 40.7734 124.94C41.394 125.869 41.7252 126.961 41.7252 128.078C41.7252 128.819 41.5791 129.554 41.2953 130.239C41.0115 130.924 40.5955 131.547 40.0711 132.071C39.5466 132.595 38.9241 133.011 38.2389 133.295C37.5537 133.579 36.8193 133.725 36.0777 133.725ZM36.0777 123.563C35.1877 123.563 34.3176 123.827 33.5776 124.321C32.8376 124.816 32.2608 125.518 31.9202 126.341C31.5796 127.163 31.4905 128.068 31.6641 128.941C31.8378 129.813 32.2664 130.615 32.8957 131.245C33.525 131.874 34.3269 132.303 35.1998 132.476C36.0727 132.65 36.9775 132.561 37.7998 132.22C38.622 131.88 39.3248 131.303 39.8193 130.563C40.3138 129.823 40.5777 128.953 40.5777 128.063C40.5777 126.869 40.1036 125.725 39.2597 124.881C38.4157 124.037 37.2712 123.563 36.0777 123.563Z" fill="#7D8393"/>
<path d="M43 135.562C42.9261 135.563 42.8528 135.548 42.7846 135.52C42.7163 135.492 42.6544 135.45 42.6025 135.397L39.505 132.3C39.4056 132.193 39.3515 132.052 39.3541 131.907C39.3567 131.761 39.4157 131.622 39.5188 131.519C39.6218 131.416 39.7609 131.357 39.9066 131.354C40.0523 131.352 40.1933 131.406 40.3 131.505L43.3975 134.602C43.5028 134.708 43.562 134.851 43.562 135C43.562 135.149 43.5028 135.292 43.3975 135.397C43.3455 135.45 43.2836 135.492 43.2154 135.52C43.1471 135.548 43.0739 135.563 43 135.562Z" fill="#20232A"/>
<path d="M54.532 132.184L55.218 131.302C56.0113 132.189 56.9913 132.632 58.158 132.632C58.914 132.632 59.4693 132.473 59.824 132.156C60.1787 131.829 60.356 131.451 60.356 131.022C60.356 130.807 60.3093 130.616 60.216 130.448C60.1227 130.271 60.0153 130.131 59.894 130.028C59.7727 129.916 59.586 129.809 59.334 129.706C59.0913 129.594 58.886 129.515 58.718 129.468C58.5593 129.421 58.3167 129.351 57.99 129.258C57.5793 129.146 57.2713 129.062 57.066 129.006C56.8607 128.941 56.5853 128.833 56.24 128.684C55.904 128.535 55.652 128.381 55.484 128.222C55.316 128.054 55.162 127.835 55.022 127.564C54.8913 127.284 54.826 126.967 54.826 126.612C54.826 125.847 55.1293 125.226 55.736 124.75C56.3427 124.265 57.108 124.022 58.032 124.022C59.4227 124.022 60.5287 124.456 61.35 125.324L60.65 126.178C59.9687 125.431 59.068 125.058 57.948 125.058C57.388 125.058 56.926 125.198 56.562 125.478C56.2073 125.749 56.03 126.103 56.03 126.542C56.03 126.719 56.0767 126.883 56.17 127.032C56.2633 127.181 56.3613 127.303 56.464 127.396C56.576 127.489 56.7533 127.583 56.996 127.676C57.248 127.769 57.444 127.839 57.584 127.886C57.7333 127.933 57.9713 127.998 58.298 128.082C58.6993 128.194 59.012 128.283 59.236 128.348C59.46 128.413 59.74 128.525 60.076 128.684C60.4213 128.843 60.6827 129.015 60.86 129.202C61.0467 129.379 61.21 129.617 61.35 129.916C61.49 130.215 61.56 130.551 61.56 130.924C61.56 131.689 61.2753 132.338 60.706 132.87C60.146 133.402 59.2827 133.668 58.116 133.668C56.604 133.668 55.4093 133.173 54.532 132.184ZM62.8611 130.112C62.8611 129.123 63.1785 128.287 63.8131 127.606C64.4478 126.915 65.2411 126.57 66.1931 126.57C67.1918 126.57 67.9805 126.915 68.5591 127.606C69.1471 128.287 69.4411 129.151 69.4411 130.196V130.462H63.9671C64.0138 131.125 64.2565 131.68 64.6951 132.128C65.1338 132.576 65.7031 132.8 66.4031 132.8C67.2431 132.8 67.9385 132.515 68.4891 131.946L68.9931 132.632C68.3025 133.323 67.4065 133.668 66.3051 133.668C65.2971 133.668 64.4711 133.341 63.8271 132.688C63.1831 132.025 62.8611 131.167 62.8611 130.112ZM66.1791 127.438C65.5071 127.438 64.9751 127.667 64.5831 128.124C64.2005 128.581 63.9951 129.104 63.9671 129.692H68.4051C68.3958 129.113 68.1998 128.595 67.8171 128.138C67.4345 127.671 66.8885 127.438 66.1791 127.438ZM76.4198 133.5H75.3698V132.73C74.8005 133.355 74.0538 133.668 73.1298 133.668C72.5045 133.668 71.9538 133.467 71.4778 133.066C71.0018 132.665 70.7638 132.119 70.7638 131.428C70.7638 130.719 70.9971 130.173 71.4638 129.79C71.9398 129.398 72.4951 129.202 73.1298 129.202C74.0911 129.202 74.8378 129.51 75.3698 130.126V128.908C75.3698 128.46 75.2111 128.11 74.8938 127.858C74.5765 127.606 74.1658 127.48 73.6618 127.48C72.8685 127.48 72.1778 127.793 71.5898 128.418L71.0998 127.69C71.8185 126.943 72.7191 126.57 73.8018 126.57C74.5765 126.57 75.2065 126.757 75.6918 127.13C76.1771 127.503 76.4198 128.077 76.4198 128.852V133.5ZM75.3698 132.072V130.798C74.9685 130.238 74.3478 129.958 73.5078 129.958C73.0225 129.958 72.6211 130.098 72.3038 130.378C71.9958 130.649 71.8418 131.003 71.8418 131.442C71.8418 131.871 71.9958 132.226 72.3038 132.506C72.6211 132.777 73.0225 132.912 73.5078 132.912C74.3478 132.912 74.9685 132.632 75.3698 132.072ZM79.5746 133.5H78.5246V126.738H79.5746V127.83C80.1999 127.009 80.9513 126.598 81.8286 126.598V127.676C81.6979 127.648 81.5579 127.634 81.4086 127.634C81.0913 127.634 80.7459 127.746 80.3726 127.97C79.9993 128.194 79.7333 128.441 79.5746 128.712V133.5ZM83.6917 132.66C83.0664 131.979 82.7537 131.129 82.7537 130.112C82.7537 129.095 83.0664 128.25 83.6917 127.578C84.317 126.906 85.129 126.57 86.1277 126.57C87.173 126.57 87.999 126.962 88.6057 127.746L87.9057 128.39C87.4764 127.802 86.9024 127.508 86.1837 127.508C85.4744 127.508 84.905 127.751 84.4757 128.236C84.0557 128.721 83.8457 129.347 83.8457 130.112C83.8457 130.877 84.0557 131.507 84.4757 132.002C84.905 132.487 85.4744 132.73 86.1837 132.73C86.893 132.73 87.467 132.436 87.9057 131.848L88.6057 132.492C87.999 133.276 87.173 133.668 86.1277 133.668C85.129 133.668 84.317 133.332 83.6917 132.66ZM95.7053 133.5H94.6553V129.048C94.6553 128.488 94.5247 128.091 94.2633 127.858C94.002 127.625 93.624 127.508 93.1293 127.508C92.7467 127.508 92.3687 127.611 91.9953 127.816C91.6313 128.021 91.342 128.269 91.1273 128.558V133.5H90.0773V124.162H91.1273V127.718C91.3887 127.41 91.7387 127.144 92.1773 126.92C92.616 126.687 93.0733 126.57 93.5493 126.57C94.9867 126.57 95.7053 127.289 95.7053 128.726V133.5ZM109.447 133.5H108.159L107.333 131.428H102.601L101.775 133.5H100.487L104.239 124.162H105.681L109.447 133.5ZM106.983 130.392L104.967 125.198L102.937 130.392H106.983ZM111.172 132.66C110.547 131.979 110.234 131.129 110.234 130.112C110.234 129.095 110.547 128.25 111.172 127.578C111.798 126.906 112.61 126.57 113.608 126.57C114.654 126.57 115.48 126.962 116.086 127.746L115.386 128.39C114.957 127.802 114.383 127.508 113.664 127.508C112.955 127.508 112.386 127.751 111.956 128.236C111.536 128.721 111.326 129.347 111.326 130.112C111.326 130.877 111.536 131.507 111.956 132.002C112.386 132.487 112.955 132.73 113.664 132.73C114.374 132.73 114.948 132.436 115.386 131.848L116.086 132.492C115.48 133.276 114.654 133.668 113.608 133.668C112.61 133.668 111.798 133.332 111.172 132.66ZM119.266 133.668C118.771 133.668 118.398 133.533 118.146 133.262C117.894 132.991 117.768 132.599 117.768 132.086V127.662H116.648V126.738H117.768V124.89H118.818V126.738H120.19V127.662H118.818V131.862C118.818 132.123 118.874 132.333 118.986 132.492C119.107 132.651 119.28 132.73 119.504 132.73C119.812 132.73 120.05 132.637 120.218 132.45L120.526 133.234C120.218 133.523 119.798 133.668 119.266 133.668ZM122.191 125.604C122.004 125.604 121.841 125.534 121.701 125.394C121.561 125.254 121.491 125.086 121.491 124.89C121.491 124.694 121.561 124.531 121.701 124.4C121.841 124.26 122.004 124.19 122.191 124.19C122.387 124.19 122.555 124.26 122.695 124.4C122.835 124.531 122.905 124.694 122.905 124.89C122.905 125.086 122.835 125.254 122.695 125.394C122.555 125.534 122.387 125.604 122.191 125.604ZM122.723 133.5H121.673V126.738H122.723V133.5ZM127.772 133.5H126.624L123.81 126.738H124.944L127.198 132.282L129.438 126.738H130.586L127.772 133.5ZM132.199 125.604C132.012 125.604 131.849 125.534 131.709 125.394C131.569 125.254 131.499 125.086 131.499 124.89C131.499 124.694 131.569 124.531 131.709 124.4C131.849 124.26 132.012 124.19 132.199 124.19C132.395 124.19 132.563 124.26 132.703 124.4C132.843 124.531 132.913 124.694 132.913 124.89C132.913 125.086 132.843 125.254 132.703 125.394C132.563 125.534 132.395 125.604 132.199 125.604ZM132.731 133.5H131.681V126.738H132.731V133.5ZM136.533 133.668C136.039 133.668 135.665 133.533 135.413 133.262C135.161 132.991 135.035 132.599 135.035 132.086V127.662H133.915V126.738H135.035V124.89H136.085V126.738H137.457V127.662H136.085V131.862C136.085 132.123 136.141 132.333 136.253 132.492C136.375 132.651 136.547 132.73 136.771 132.73C137.079 132.73 137.317 132.637 137.485 132.45L137.793 133.234C137.485 133.523 137.065 133.668 136.533 133.668ZM138.563 136.146L138.731 135.194C138.899 135.269 139.09 135.306 139.305 135.306C139.547 135.306 139.748 135.255 139.907 135.152C140.065 135.049 140.201 134.863 140.313 134.592L140.761 133.57L137.933 126.738H139.067L141.321 132.282L143.561 126.738H144.709L141.321 134.872C140.947 135.768 140.285 136.225 139.333 136.244C139.053 136.244 138.796 136.211 138.563 136.146ZM154.957 133.5H149.455V124.162H150.617V132.464H154.957V133.5ZM157.068 125.604C156.881 125.604 156.718 125.534 156.578 125.394C156.438 125.254 156.368 125.086 156.368 124.89C156.368 124.694 156.438 124.531 156.578 124.4C156.718 124.26 156.881 124.19 157.068 124.19C157.264 124.19 157.432 124.26 157.572 124.4C157.712 124.531 157.782 124.694 157.782 124.89C157.782 125.086 157.712 125.254 157.572 125.394C157.432 125.534 157.264 125.604 157.068 125.604ZM157.6 133.5H156.55V126.738H157.6V133.5ZM159.107 132.604L159.653 131.848C159.886 132.119 160.203 132.347 160.605 132.534C161.015 132.721 161.44 132.814 161.879 132.814C162.383 132.814 162.775 132.711 163.055 132.506C163.335 132.301 163.475 132.03 163.475 131.694C163.475 131.517 163.428 131.363 163.335 131.232C163.251 131.101 163.115 130.989 162.929 130.896C162.742 130.803 162.565 130.728 162.397 130.672C162.238 130.616 162.019 130.555 161.739 130.49C161.431 130.415 161.193 130.359 161.025 130.322C160.866 130.275 160.656 130.201 160.395 130.098C160.133 129.986 159.937 129.869 159.807 129.748C159.676 129.617 159.555 129.449 159.443 129.244C159.34 129.029 159.289 128.787 159.289 128.516C159.289 127.965 159.513 127.503 159.961 127.13C160.418 126.757 161.034 126.57 161.809 126.57C162.826 126.57 163.661 126.897 164.315 127.55L163.825 128.278C163.349 127.709 162.677 127.424 161.809 127.424C161.351 127.424 160.987 127.517 160.717 127.704C160.446 127.891 160.311 128.138 160.311 128.446C160.311 128.745 160.446 128.969 160.717 129.118C160.997 129.258 161.412 129.393 161.963 129.524C162.271 129.589 162.513 129.65 162.691 129.706C162.868 129.753 163.087 129.832 163.349 129.944C163.61 130.056 163.811 130.182 163.951 130.322C164.1 130.453 164.226 130.63 164.329 130.854C164.441 131.078 164.497 131.335 164.497 131.624C164.497 132.221 164.263 132.711 163.797 133.094C163.33 133.477 162.677 133.668 161.837 133.668C160.689 133.668 159.779 133.313 159.107 132.604ZM167.91 133.668C167.416 133.668 167.042 133.533 166.79 133.262C166.538 132.991 166.412 132.599 166.412 132.086V127.662H165.292V126.738H166.412V124.89H167.462V126.738H168.834V127.662H167.462V131.862C167.462 132.123 167.518 132.333 167.63 132.492C167.752 132.651 167.924 132.73 168.148 132.73C168.456 132.73 168.694 132.637 168.862 132.45L169.17 133.234C168.862 133.523 168.442 133.668 167.91 133.668Z" fill="#7D8393"/>
</g>
<rect x="26" y="153" width="340" height="34" rx="6" fill="#E7E8EA"/>
<path d="M40.254 174H39.092V164.662H42.844C43.7493 164.662 44.4633 164.933 44.986 165.474C45.5087 166.015 45.77 166.683 45.77 167.476C45.77 168.269 45.504 168.937 44.972 169.478C44.4493 170.019 43.74 170.29 42.844 170.29H40.254V174ZM44.048 168.764C44.3933 168.428 44.566 167.999 44.566 167.476C44.566 166.953 44.3933 166.529 44.048 166.202C43.7027 165.866 43.2547 165.698 42.704 165.698H40.254V169.254H42.704C43.2547 169.254 43.7027 169.091 44.048 168.764ZM52.8808 174H51.8308V173.048C51.5508 173.365 51.1961 173.631 50.7668 173.846C50.3468 174.061 49.8988 174.168 49.4228 174.168C47.9855 174.168 47.2668 173.449 47.2668 172.012V167.238H48.3168V171.69C48.3168 172.25 48.4428 172.647 48.6948 172.88C48.9561 173.113 49.3341 173.23 49.8288 173.23C50.2208 173.23 50.5988 173.132 50.9628 172.936C51.3361 172.74 51.6255 172.497 51.8308 172.208V167.238H52.8808V174ZM56.0277 174H54.9777V167.238H56.0277V168.33C56.6531 167.509 57.4044 167.098 58.2817 167.098V168.176C58.1511 168.148 58.0111 168.134 57.8617 168.134C57.5444 168.134 57.1991 168.246 56.8257 168.47C56.4524 168.694 56.1864 168.941 56.0277 169.212V174ZM60.1448 173.16C59.5195 172.479 59.2068 171.629 59.2068 170.612C59.2068 169.595 59.5195 168.75 60.1448 168.078C60.7702 167.406 61.5822 167.07 62.5808 167.07C63.6262 167.07 64.4522 167.462 65.0588 168.246L64.3588 168.89C63.9295 168.302 63.3555 168.008 62.6368 168.008C61.9275 168.008 61.3582 168.251 60.9288 168.736C60.5088 169.221 60.2988 169.847 60.2988 170.612C60.2988 171.377 60.5088 172.007 60.9288 172.502C61.3582 172.987 61.9275 173.23 62.6368 173.23C63.3462 173.23 63.9202 172.936 64.3588 172.348L65.0588 172.992C64.4522 173.776 63.6262 174.168 62.5808 174.168C61.5822 174.168 60.7702 173.832 60.1448 173.16ZM72.1585 174H71.1085V169.548C71.1085 168.988 70.9778 168.591 70.7165 168.358C70.4551 168.125 70.0771 168.008 69.5825 168.008C69.1998 168.008 68.8218 168.111 68.4485 168.316C68.0845 168.521 67.7951 168.769 67.5805 169.058V174H66.5305V164.662H67.5805V168.218C67.8418 167.91 68.1918 167.644 68.6305 167.42C69.0691 167.187 69.5265 167.07 70.0025 167.07C71.4398 167.07 72.1585 167.789 72.1585 169.226V174ZM79.5331 174H78.4831V173.23C77.9137 173.855 77.1671 174.168 76.2431 174.168C75.6177 174.168 75.0671 173.967 74.5911 173.566C74.1151 173.165 73.8771 172.619 73.8771 171.928C73.8771 171.219 74.1104 170.673 74.5771 170.29C75.0531 169.898 75.6084 169.702 76.2431 169.702C77.2044 169.702 77.9511 170.01 78.4831 170.626V169.408C78.4831 168.96 78.3244 168.61 78.0071 168.358C77.6897 168.106 77.2791 167.98 76.7751 167.98C75.9817 167.98 75.2911 168.293 74.7031 168.918L74.2131 168.19C74.9317 167.443 75.8324 167.07 76.9151 167.07C77.6897 167.07 78.3197 167.257 78.8051 167.63C79.2904 168.003 79.5331 168.577 79.5331 169.352V174ZM78.4831 172.572V171.298C78.0817 170.738 77.4611 170.458 76.6211 170.458C76.1357 170.458 75.7344 170.598 75.4171 170.878C75.1091 171.149 74.9551 171.503 74.9551 171.942C74.9551 172.371 75.1091 172.726 75.4171 173.006C75.7344 173.277 76.1357 173.412 76.6211 173.412C77.4611 173.412 78.0817 173.132 78.4831 172.572ZM81.0499 173.104L81.5959 172.348C81.8292 172.619 82.1466 172.847 82.5479 173.034C82.9586 173.221 83.3832 173.314 83.8219 173.314C84.3259 173.314 84.7179 173.211 84.9979 173.006C85.2779 172.801 85.4179 172.53 85.4179 172.194C85.4179 172.017 85.3712 171.863 85.2779 171.732C85.1939 171.601 85.0586 171.489 84.8719 171.396C84.6852 171.303 84.5079 171.228 84.3399 171.172C84.1812 171.116 83.9619 171.055 83.6819 170.99C83.3739 170.915 83.1359 170.859 82.9679 170.822C82.8092 170.775 82.5992 170.701 82.3379 170.598C82.0766 170.486 81.8806 170.369 81.7499 170.248C81.6192 170.117 81.4979 169.949 81.3859 169.744C81.2832 169.529 81.2319 169.287 81.2319 169.016C81.2319 168.465 81.4559 168.003 81.9039 167.63C82.3612 167.257 82.9772 167.07 83.7519 167.07C84.7692 167.07 85.6046 167.397 86.2579 168.05L85.7679 168.778C85.2919 168.209 84.6199 167.924 83.7519 167.924C83.2946 167.924 82.9306 168.017 82.6599 168.204C82.3892 168.391 82.2539 168.638 82.2539 168.946C82.2539 169.245 82.3892 169.469 82.6599 169.618C82.9399 169.758 83.3552 169.893 83.9059 170.024C84.2139 170.089 84.4566 170.15 84.6339 170.206C84.8112 170.253 85.0306 170.332 85.2919 170.444C85.5532 170.556 85.7539 170.682 85.8939 170.822C86.0432 170.953 86.1692 171.13 86.2719 171.354C86.3839 171.578 86.4399 171.835 86.4399 172.124C86.4399 172.721 86.2066 173.211 85.7399 173.594C85.2732 173.977 84.6199 174.168 83.7799 174.168C82.6319 174.168 81.7219 173.813 81.0499 173.104ZM87.7537 170.612C87.7537 169.623 88.071 168.787 88.7057 168.106C89.3404 167.415 90.1337 167.07 91.0857 167.07C92.0844 167.07 92.873 167.415 93.4517 168.106C94.0397 168.787 94.3337 169.651 94.3337 170.696V170.962H88.8597C88.9064 171.625 89.149 172.18 89.5877 172.628C90.0264 173.076 90.5957 173.3 91.2957 173.3C92.1357 173.3 92.831 173.015 93.3817 172.446L93.8857 173.132C93.195 173.823 92.299 174.168 91.1977 174.168C90.1897 174.168 89.3637 173.841 88.7197 173.188C88.0757 172.525 87.7537 171.667 87.7537 170.612ZM91.0717 167.938C90.3997 167.938 89.8677 168.167 89.4757 168.624C89.093 169.081 88.8877 169.604 88.8597 170.192H93.2977C93.2884 169.613 93.0924 169.095 92.7097 168.638C92.327 168.171 91.781 167.938 91.0717 167.938ZM95.4464 173.104L95.9924 172.348C96.2257 172.619 96.543 172.847 96.9444 173.034C97.355 173.221 97.7797 173.314 98.2184 173.314C98.7224 173.314 99.1144 173.211 99.3944 173.006C99.6744 172.801 99.8144 172.53 99.8144 172.194C99.8144 172.017 99.7677 171.863 99.6744 171.732C99.5904 171.601 99.455 171.489 99.2684 171.396C99.0817 171.303 98.9044 171.228 98.7364 171.172C98.5777 171.116 98.3584 171.055 98.0784 170.99C97.7704 170.915 97.5324 170.859 97.3644 170.822C97.2057 170.775 96.9957 170.701 96.7344 170.598C96.473 170.486 96.277 170.369 96.1464 170.248C96.0157 170.117 95.8944 169.949 95.7824 169.744C95.6797 169.529 95.6284 169.287 95.6284 169.016C95.6284 168.465 95.8524 168.003 96.3004 167.63C96.7577 167.257 97.3737 167.07 98.1484 167.07C99.1657 167.07 100.001 167.397 100.654 168.05L100.164 168.778C99.6884 168.209 99.0164 167.924 98.1484 167.924C97.691 167.924 97.327 168.017 97.0564 168.204C96.7857 168.391 96.6504 168.638 96.6504 168.946C96.6504 169.245 96.7857 169.469 97.0564 169.618C97.3364 169.758 97.7517 169.893 98.3024 170.024C98.6104 170.089 98.853 170.15 99.0304 170.206C99.2077 170.253 99.427 170.332 99.6884 170.444C99.9497 170.556 100.15 170.682 100.29 170.822C100.44 170.953 100.566 171.13 100.668 171.354C100.78 171.578 100.836 171.835 100.836 172.124C100.836 172.721 100.603 173.211 100.136 173.594C99.6697 173.977 99.0164 174.168 98.1764 174.168C97.0284 174.168 96.1184 173.813 95.4464 173.104Z" fill="#20232A"/>
<path d="M45.868 210H44.496L42.116 206.29H40.254V210H39.092V200.662H42.844C43.712 200.662 44.4167 200.919 44.958 201.432C45.4993 201.945 45.77 202.627 45.77 203.476C45.77 204.279 45.5367 204.918 45.07 205.394C44.6033 205.87 44.0293 206.136 43.348 206.192L45.868 210ZM44.048 204.764C44.3933 204.428 44.566 203.999 44.566 203.476C44.566 202.953 44.3933 202.529 44.048 202.202C43.7027 201.866 43.2547 201.698 42.704 201.698H40.254V205.268H42.704C43.2547 205.268 43.7027 205.1 44.048 204.764ZM46.7518 206.612C46.7518 205.623 47.0691 204.787 47.7038 204.106C48.3384 203.415 49.1318 203.07 50.0838 203.07C51.0824 203.07 51.8711 203.415 52.4498 204.106C53.0378 204.787 53.3318 205.651 53.3318 206.696V206.962H47.8578C47.9044 207.625 48.1471 208.18 48.5858 208.628C49.0244 209.076 49.5938 209.3 50.2938 209.3C51.1338 209.3 51.8291 209.015 52.3798 208.446L52.8838 209.132C52.1931 209.823 51.2971 210.168 50.1958 210.168C49.1878 210.168 48.3618 209.841 47.7178 209.188C47.0738 208.525 46.7518 207.667 46.7518 206.612ZM50.0698 203.938C49.3978 203.938 48.8658 204.167 48.4738 204.624C48.0911 205.081 47.8858 205.604 47.8578 206.192H52.2958C52.2864 205.613 52.0904 205.095 51.7078 204.638C51.3251 204.171 50.7791 203.938 50.0698 203.938ZM60.6464 210H59.5964V205.576C59.5964 205.007 59.4658 204.605 59.2044 204.372C58.9431 204.129 58.5698 204.008 58.0844 204.008C57.6924 204.008 57.3098 204.111 56.9364 204.316C56.5724 204.521 56.2878 204.769 56.0824 205.058V210H55.0324V203.238H56.0824V204.218C56.3438 203.91 56.6938 203.644 57.1324 203.42C57.5711 203.187 58.0238 203.07 58.4904 203.07C59.9278 203.07 60.6464 203.798 60.6464 205.254V210ZM62.3514 206.612C62.3514 205.623 62.6687 204.787 63.3034 204.106C63.938 203.415 64.7314 203.07 65.6834 203.07C66.682 203.07 67.4707 203.415 68.0494 204.106C68.6374 204.787 68.9314 205.651 68.9314 206.696V206.962H63.4574C63.504 207.625 63.7467 208.18 64.1854 208.628C64.624 209.076 65.1934 209.3 65.8934 209.3C66.7334 209.3 67.4287 209.015 67.9794 208.446L68.4834 209.132C67.7927 209.823 66.8967 210.168 65.7954 210.168C64.7874 210.168 63.9614 209.841 63.3174 209.188C62.6734 208.525 62.3514 207.667 62.3514 206.612ZM65.6694 203.938C64.9974 203.938 64.4654 204.167 64.0734 204.624C63.6907 205.081 63.4854 205.604 63.4574 206.192H67.8954C67.886 205.613 67.69 205.095 67.3074 204.638C66.9247 204.171 66.3787 203.938 65.6694 203.938ZM77.534 210H76.484L74.72 204.568L72.956 210H71.906L69.75 203.238H70.842L72.494 208.628L74.272 203.238H75.168L76.946 208.628L78.598 203.238H79.69L77.534 210ZM86.1913 210H85.1413V209.23C84.5719 209.855 83.8253 210.168 82.9013 210.168C82.2759 210.168 81.7253 209.967 81.2493 209.566C80.7733 209.165 80.5353 208.619 80.5353 207.928C80.5353 207.219 80.7686 206.673 81.2353 206.29C81.7113 205.898 82.2666 205.702 82.9013 205.702C83.8626 205.702 84.6093 206.01 85.1413 206.626V205.408C85.1413 204.96 84.9826 204.61 84.6653 204.358C84.3479 204.106 83.9373 203.98 83.4333 203.98C82.6399 203.98 81.9493 204.293 81.3613 204.918L80.8713 204.19C81.5899 203.443 82.4906 203.07 83.5733 203.07C84.3479 203.07 84.9779 203.257 85.4633 203.63C85.9486 204.003 86.1913 204.577 86.1913 205.352V210ZM85.1413 208.572V207.298C84.7399 206.738 84.1193 206.458 83.2793 206.458C82.7939 206.458 82.3926 206.598 82.0753 206.878C81.7673 207.149 81.6133 207.503 81.6133 207.942C81.6133 208.371 81.7673 208.726 82.0753 209.006C82.3926 209.277 82.7939 209.412 83.2793 209.412C84.1193 209.412 84.7399 209.132 85.1413 208.572ZM89.3461 210H88.2961V200.662H89.3461V210Z" fill="#20232A"/>
<path d="M38.532 244.684L39.218 243.802C40.0113 244.689 40.9913 245.132 42.158 245.132C42.914 245.132 43.4693 244.973 43.824 244.656C44.1787 244.329 44.356 243.951 44.356 243.522C44.356 243.307 44.3093 243.116 44.216 242.948C44.1227 242.771 44.0153 242.631 43.894 242.528C43.7727 242.416 43.586 242.309 43.334 242.206C43.0913 242.094 42.886 242.015 42.718 241.968C42.5593 241.921 42.3167 241.851 41.99 241.758C41.5793 241.646 41.2713 241.562 41.066 241.506C40.8607 241.441 40.5853 241.333 40.24 241.184C39.904 241.035 39.652 240.881 39.484 240.722C39.316 240.554 39.162 240.335 39.022 240.064C38.8913 239.784 38.826 239.467 38.826 239.112C38.826 238.347 39.1293 237.726 39.736 237.25C40.3427 236.765 41.108 236.522 42.032 236.522C43.4227 236.522 44.5287 236.956 45.35 237.824L44.65 238.678C43.9687 237.931 43.068 237.558 41.948 237.558C41.388 237.558 40.926 237.698 40.562 237.978C40.2073 238.249 40.03 238.603 40.03 239.042C40.03 239.219 40.0767 239.383 40.17 239.532C40.2633 239.681 40.3613 239.803 40.464 239.896C40.576 239.989 40.7533 240.083 40.996 240.176C41.248 240.269 41.444 240.339 41.584 240.386C41.7333 240.433 41.9713 240.498 42.298 240.582C42.6993 240.694 43.012 240.783 43.236 240.848C43.46 240.913 43.74 241.025 44.076 241.184C44.4213 241.343 44.6827 241.515 44.86 241.702C45.0467 241.879 45.21 242.117 45.35 242.416C45.49 242.715 45.56 243.051 45.56 243.424C45.56 244.189 45.2753 244.838 44.706 245.37C44.146 245.902 43.2827 246.168 42.116 246.168C40.604 246.168 39.4093 245.673 38.532 244.684ZM52.8671 246H51.8171V245.048C51.5371 245.365 51.1825 245.631 50.7531 245.846C50.3331 246.061 49.8851 246.168 49.4091 246.168C47.9718 246.168 47.2531 245.449 47.2531 244.012V239.238H48.3031V243.69C48.3031 244.25 48.4291 244.647 48.6811 244.88C48.9425 245.113 49.3205 245.23 49.8151 245.23C50.2071 245.23 50.5851 245.132 50.9491 244.936C51.3225 244.74 51.6118 244.497 51.8171 244.208V239.238H52.8671V246ZM56.0141 244.978V248.576H54.9641V239.238H56.0141V240.246C56.2661 239.891 56.5927 239.607 56.9941 239.392C57.3954 239.177 57.8294 239.07 58.2961 239.07C59.1921 239.07 59.9154 239.392 60.4661 240.036C61.0261 240.671 61.3061 241.529 61.3061 242.612C61.3061 243.695 61.0261 244.558 60.4661 245.202C59.9154 245.846 59.1921 246.168 58.2961 246.168C57.3441 246.168 56.5834 245.771 56.0141 244.978ZM59.6121 244.502C60.0041 244.007 60.2001 243.377 60.2001 242.612C60.2001 241.847 60.0041 241.221 59.6121 240.736C59.2201 240.251 58.6927 240.008 58.0301 240.008C57.6287 240.008 57.2367 240.115 56.8541 240.33C56.4807 240.535 56.2007 240.787 56.0141 241.086V244.138C56.2007 244.446 56.4807 244.707 56.8541 244.922C57.2367 245.127 57.6287 245.23 58.0301 245.23C58.6927 245.23 59.2201 244.987 59.6121 244.502ZM64.0531 244.978V248.576H63.0031V239.238H64.0531V240.246C64.3051 239.891 64.6318 239.607 65.0331 239.392C65.4345 239.177 65.8685 239.07 66.3351 239.07C67.2311 239.07 67.9545 239.392 68.5051 240.036C69.0651 240.671 69.3451 241.529 69.3451 242.612C69.3451 243.695 69.0651 244.558 68.5051 245.202C67.9545 245.846 67.2311 246.168 66.3351 246.168C65.3831 246.168 64.6225 245.771 64.0531 244.978ZM67.6511 244.502C68.0431 244.007 68.2391 243.377 68.2391 242.612C68.2391 241.847 68.0431 241.221 67.6511 240.736C67.2591 240.251 66.7318 240.008 66.0691 240.008C65.6678 240.008 65.2758 240.115 64.8931 240.33C64.5198 240.535 64.2398 240.787 64.0531 241.086V244.138C64.2398 244.446 64.5198 244.707 64.8931 244.922C65.2758 245.127 65.6678 245.23 66.0691 245.23C66.7318 245.23 67.2591 244.987 67.6511 244.502ZM76.4182 245.146C75.8115 245.827 75.0042 246.168 73.9962 246.168C72.9882 246.168 72.1762 245.827 71.5602 245.146C70.9535 244.465 70.6502 243.62 70.6502 242.612C70.6502 241.604 70.9535 240.764 71.5602 240.092C72.1762 239.411 72.9882 239.07 73.9962 239.07C75.0042 239.07 75.8115 239.411 76.4182 240.092C77.0342 240.764 77.3422 241.604 77.3422 242.612C77.3422 243.62 77.0342 244.465 76.4182 245.146ZM72.3442 244.474C72.7549 244.978 73.3055 245.23 73.9962 245.23C74.6869 245.23 75.2329 244.978 75.6342 244.474C76.0355 243.961 76.2362 243.34 76.2362 242.612C76.2362 241.884 76.0355 241.268 75.6342 240.764C75.2329 240.26 74.6869 240.008 73.9962 240.008C73.3055 240.008 72.7549 240.265 72.3442 240.778C71.9429 241.282 71.7422 241.893 71.7422 242.612C71.7422 243.34 71.9429 243.961 72.3442 244.474ZM80.1039 246H79.0539V239.238H80.1039V240.33C80.7292 239.509 81.4806 239.098 82.3579 239.098V240.176C82.2272 240.148 82.0872 240.134 81.9379 240.134C81.6206 240.134 81.2752 240.246 80.9019 240.47C80.5286 240.694 80.2626 240.941 80.1039 241.212V246ZM85.383 246.168C84.8883 246.168 84.515 246.033 84.263 245.762C84.011 245.491 83.885 245.099 83.885 244.586V240.162H82.765V239.238H83.885V237.39H84.935V239.238H86.307V240.162H84.935V244.362C84.935 244.623 84.991 244.833 85.103 244.992C85.2243 245.151 85.397 245.23 85.621 245.23C85.929 245.23 86.167 245.137 86.335 244.95L86.643 245.734C86.335 246.023 85.915 246.168 85.383 246.168ZM95.8236 246.168C94.4796 246.168 93.3503 245.715 92.4356 244.81C91.5209 243.905 91.0636 242.747 91.0636 241.338C91.0636 239.929 91.5209 238.771 92.4356 237.866C93.3503 236.961 94.4796 236.508 95.8236 236.508C97.3449 236.508 98.5396 237.124 99.4076 238.356L98.4276 238.902C98.1569 238.501 97.7883 238.174 97.3216 237.922C96.8643 237.67 96.3649 237.544 95.8236 237.544C94.8156 237.544 93.9709 237.903 93.2896 238.622C92.6083 239.331 92.2676 240.237 92.2676 241.338C92.2676 242.439 92.6083 243.349 93.2896 244.068C93.9709 244.777 94.8156 245.132 95.8236 245.132C96.3649 245.132 96.8643 245.011 97.3216 244.768C97.7883 244.516 98.1569 244.185 98.4276 243.774L99.4216 244.32C98.5163 245.552 97.3169 246.168 95.8236 246.168ZM106.139 246H105.089V245.23C104.519 245.855 103.773 246.168 102.849 246.168C102.223 246.168 101.673 245.967 101.197 245.566C100.721 245.165 100.483 244.619 100.483 243.928C100.483 243.219 100.716 242.673 101.183 242.29C101.659 241.898 102.214 241.702 102.849 241.702C103.81 241.702 104.557 242.01 105.089 242.626V241.408C105.089 240.96 104.93 240.61 104.613 240.358C104.295 240.106 103.885 239.98 103.381 239.98C102.587 239.98 101.897 240.293 101.309 240.918L100.819 240.19C101.537 239.443 102.438 239.07 103.521 239.07C104.295 239.07 104.925 239.257 105.411 239.63C105.896 240.003 106.139 240.577 106.139 241.352V246ZM105.089 244.572V243.298C104.687 242.738 104.067 242.458 103.227 242.458C102.741 242.458 102.34 242.598 102.023 242.878C101.715 243.149 101.561 243.503 101.561 243.942C101.561 244.371 101.715 244.726 102.023 245.006C102.34 245.277 102.741 245.412 103.227 245.412C104.067 245.412 104.687 245.132 105.089 244.572ZM109.293 246H108.243V236.662H109.293V246ZM112.438 246H111.388V236.662H112.438V246Z" fill="#20232A"/>
<path d="M40.254 282H39.092V272.662H45.21V273.698H40.254V276.708H45.112V277.744H40.254V282ZM46.3553 278.612C46.3553 277.623 46.6726 276.787 47.3073 276.106C47.9419 275.415 48.7353 275.07 49.6873 275.07C50.6859 275.07 51.4746 275.415 52.0533 276.106C52.6413 276.787 52.9353 277.651 52.9353 278.696V278.962H47.4613C47.5079 279.625 47.7506 280.18 48.1893 280.628C48.6279 281.076 49.1973 281.3 49.8973 281.3C50.7373 281.3 51.4326 281.015 51.9833 280.446L52.4873 281.132C51.7966 281.823 50.9006 282.168 49.7993 282.168C48.7913 282.168 47.9653 281.841 47.3213 281.188C46.6773 280.525 46.3553 279.667 46.3553 278.612ZM49.6733 275.938C49.0013 275.938 48.4693 276.167 48.0773 276.624C47.6946 277.081 47.4893 277.604 47.4613 278.192H51.8993C51.8899 277.613 51.6939 277.095 51.3113 276.638C50.9286 276.171 50.3826 275.938 49.6733 275.938ZM54.2439 278.612C54.2439 277.623 54.5613 276.787 55.1959 276.106C55.8306 275.415 56.6239 275.07 57.5759 275.07C58.5746 275.07 59.3633 275.415 59.9419 276.106C60.5299 276.787 60.8239 277.651 60.8239 278.696V278.962H55.3499C55.3966 279.625 55.6393 280.18 56.0779 280.628C56.5166 281.076 57.0859 281.3 57.7859 281.3C58.6259 281.3 59.3213 281.015 59.8719 280.446L60.3759 281.132C59.6853 281.823 58.7893 282.168 57.6879 282.168C56.6799 282.168 55.8539 281.841 55.2099 281.188C54.5659 280.525 54.2439 279.667 54.2439 278.612ZM57.5619 275.938C56.8899 275.938 56.3579 276.167 55.9659 276.624C55.5833 277.081 55.3779 277.604 55.3499 278.192H59.7879C59.7786 277.613 59.5826 277.095 59.1999 276.638C58.8173 276.171 58.2713 275.938 57.5619 275.938ZM68.4746 282H67.4246V280.992C66.8459 281.776 66.0853 282.168 65.1426 282.168C64.2466 282.168 63.5186 281.851 62.9586 281.216C62.4079 280.572 62.1326 279.709 62.1326 278.626C62.1326 277.553 62.4079 276.694 62.9586 276.05C63.5186 275.397 64.2466 275.07 65.1426 275.07C66.0759 275.07 66.8366 275.467 67.4246 276.26V272.662H68.4746V282ZM67.4246 280.166V277.1C67.2286 276.792 66.9393 276.535 66.5566 276.33C66.1833 276.115 65.7959 276.008 65.3946 276.008C64.7319 276.008 64.2046 276.255 63.8126 276.75C63.4206 277.235 63.2246 277.861 63.2246 278.626C63.2246 279.391 63.4206 280.017 63.8126 280.502C64.2046 280.987 64.7319 281.23 65.3946 281.23C65.8053 281.23 66.1973 281.127 66.5706 280.922C66.9439 280.717 67.2286 280.465 67.4246 280.166ZM71.6273 282H70.5773V272.662H71.6273V276.26C72.2153 275.467 72.976 275.07 73.9093 275.07C74.796 275.07 75.5193 275.397 76.0793 276.05C76.6393 276.694 76.9193 277.553 76.9193 278.626C76.9193 279.709 76.6393 280.572 76.0793 281.216C75.5287 281.851 74.8053 282.168 73.9093 282.168C72.9667 282.168 72.206 281.776 71.6273 280.992V282ZM71.6273 277.1V280.166C71.814 280.465 72.094 280.717 72.4673 280.922C72.85 281.127 73.242 281.23 73.6433 281.23C74.3153 281.23 74.8473 280.987 75.2393 280.502C75.6313 280.017 75.8273 279.391 75.8273 278.626C75.8273 277.861 75.6313 277.235 75.2393 276.75C74.8473 276.255 74.3153 276.008 73.6433 276.008C73.242 276.008 72.85 276.115 72.4673 276.33C72.094 276.535 71.814 276.792 71.6273 277.1ZM83.9081 282H82.8581V281.23C82.2887 281.855 81.5421 282.168 80.6181 282.168C79.9927 282.168 79.4421 281.967 78.9661 281.566C78.4901 281.165 78.2521 280.619 78.2521 279.928C78.2521 279.219 78.4854 278.673 78.9521 278.29C79.4281 277.898 79.9834 277.702 80.6181 277.702C81.5794 277.702 82.3261 278.01 82.8581 278.626V277.408C82.8581 276.96 82.6994 276.61 82.3821 276.358C82.0647 276.106 81.6541 275.98 81.1501 275.98C80.3567 275.98 79.6661 276.293 79.0781 276.918L78.5881 276.19C79.3067 275.443 80.2074 275.07 81.2901 275.07C82.0647 275.07 82.6947 275.257 83.1801 275.63C83.6654 276.003 83.9081 276.577 83.9081 277.352V282ZM82.8581 280.572V279.298C82.4567 278.738 81.8361 278.458 80.9961 278.458C80.5107 278.458 80.1094 278.598 79.7921 278.878C79.4841 279.149 79.3301 279.503 79.3301 279.942C79.3301 280.371 79.4841 280.726 79.7921 281.006C80.1094 281.277 80.5107 281.412 80.9961 281.412C81.8361 281.412 82.4567 281.132 82.8581 280.572ZM86.5589 281.16C85.9336 280.479 85.6209 279.629 85.6209 278.612C85.6209 277.595 85.9336 276.75 86.5589 276.078C87.1842 275.406 87.9962 275.07 88.9949 275.07C90.0402 275.07 90.8662 275.462 91.4729 276.246L90.7729 276.89C90.3436 276.302 89.7696 276.008 89.0509 276.008C88.3416 276.008 87.7722 276.251 87.3429 276.736C86.9229 277.221 86.7129 277.847 86.7129 278.612C86.7129 279.377 86.9229 280.007 87.3429 280.502C87.7722 280.987 88.3416 281.23 89.0509 281.23C89.7602 281.23 90.3342 280.936 90.7729 280.348L91.4729 280.992C90.8662 281.776 90.0402 282.168 88.9949 282.168C87.9962 282.168 87.1842 281.832 86.5589 281.16ZM98.8945 282H97.5505L95.1145 278.962L93.9945 280.068V282H92.9445V272.662H93.9945V278.836L97.5505 275.238H98.8805L95.8845 278.304L98.8945 282Z" fill="#20232A"/>
</g>
<mask id="path-35-inside-2_1553_25370" fill="white">
<path d="M0 666H420V722H0V666Z"/>
</mask>
<path d="M0 667H420V665H0V667Z" fill="#CCCED4" mask="url(#path-35-inside-2_1553_25370)"/>
<path d="M59.2043 698H57.3143L55.2423 694.514H53.6183V698H51.9803V688.662H56.0823C56.997 688.662 57.7343 688.933 58.2943 689.474C58.8543 690.015 59.1343 690.72 59.1343 691.588C59.1343 692.372 58.9197 693.002 58.4903 693.478C58.061 693.945 57.5383 694.229 56.9223 694.332L59.2043 698ZM57.0063 692.666C57.305 692.395 57.4543 692.036 57.4543 691.588C57.4543 691.14 57.305 690.781 57.0063 690.51C56.7077 690.239 56.325 690.104 55.8583 690.104H53.6183V693.072H55.8583C56.325 693.072 56.7077 692.937 57.0063 692.666ZM59.8855 694.612C59.8855 693.623 60.2075 692.787 60.8515 692.106C61.5048 691.415 62.3262 691.07 63.3155 691.07C64.3142 691.07 65.1168 691.415 65.7235 692.106C66.3395 692.797 66.6475 693.679 66.6475 694.752V695.102H61.4255C61.4815 695.634 61.7008 696.077 62.0835 696.432C62.4662 696.787 62.9655 696.964 63.5815 696.964C63.9268 696.964 64.2722 696.899 64.6175 696.768C64.9722 696.637 65.2662 696.455 65.4995 696.222L66.1715 697.188C65.4902 697.841 64.5755 698.168 63.4275 698.168C62.4008 698.168 61.5515 697.841 60.8795 697.188C60.2168 696.525 59.8855 695.667 59.8855 694.612ZM63.3155 692.274C62.7368 692.274 62.2842 692.456 61.9575 692.82C61.6308 693.175 61.4488 693.59 61.4115 694.066H65.2195C65.2008 693.599 65.0282 693.184 64.7015 692.82C64.3842 692.456 63.9222 692.274 63.3155 692.274ZM67.5105 697.118L68.1825 696.054C68.4345 696.315 68.7752 696.539 69.2045 696.726C69.6338 696.913 70.0585 697.006 70.4785 697.006C70.9078 697.006 71.2345 696.936 71.4585 696.796C71.6918 696.647 71.8085 696.441 71.8085 696.18C71.8085 695.909 71.6778 695.709 71.4165 695.578C71.1552 695.438 70.7725 695.312 70.2685 695.2C69.9605 695.135 69.7178 695.079 69.5405 695.032C69.3725 694.985 69.1532 694.911 68.8825 694.808C68.6118 694.696 68.4065 694.575 68.2665 694.444C68.1265 694.304 68.0005 694.122 67.8885 693.898C67.7765 693.674 67.7205 693.417 67.7205 693.128C67.7205 692.549 67.9585 692.064 68.4345 691.672C68.9105 691.271 69.5592 691.07 70.3805 691.07C71.4165 691.07 72.2938 691.387 73.0125 692.022L72.3965 693.058C72.1818 692.815 71.8972 692.619 71.5425 692.47C71.1878 692.321 70.8052 692.246 70.3945 692.246C70.0025 692.246 69.6945 692.316 69.4705 692.456C69.2465 692.587 69.1345 692.769 69.1345 693.002C69.1345 693.235 69.2558 693.413 69.4985 693.534C69.7412 693.655 70.1098 693.772 70.6045 693.884C70.9125 693.949 71.1552 694.005 71.3325 694.052C71.5192 694.099 71.7478 694.183 72.0185 694.304C72.2892 694.416 72.4992 694.542 72.6485 694.682C72.7978 694.822 72.9285 695.013 73.0405 695.256C73.1618 695.489 73.2225 695.76 73.2225 696.068C73.2225 696.684 72.9752 697.188 72.4805 697.58C71.9858 697.972 71.2952 698.168 70.4085 698.168C69.1952 698.168 68.2292 697.818 67.5105 697.118ZM74.282 694.612C74.282 693.623 74.604 692.787 75.248 692.106C75.9013 691.415 76.7227 691.07 77.712 691.07C78.7107 691.07 79.5133 691.415 80.12 692.106C80.736 692.797 81.044 693.679 81.044 694.752V695.102H75.822C75.878 695.634 76.0973 696.077 76.48 696.432C76.8627 696.787 77.362 696.964 77.978 696.964C78.3233 696.964 78.6687 696.899 79.014 696.768C79.3687 696.637 79.6627 696.455 79.896 696.222L80.568 697.188C79.8867 697.841 78.972 698.168 77.824 698.168C76.7973 698.168 75.948 697.841 75.276 697.188C74.6133 696.525 74.282 695.667 74.282 694.612ZM77.712 692.274C77.1333 692.274 76.6807 692.456 76.354 692.82C76.0273 693.175 75.8453 693.59 75.808 694.066H79.616C79.5973 693.599 79.4247 693.184 79.098 692.82C78.7807 692.456 78.3187 692.274 77.712 692.274ZM84.525 698.168C83.9556 698.168 83.5216 698.019 83.223 697.72C82.9336 697.421 82.789 696.992 82.789 696.432V692.526H81.669V691.238H82.789V689.39H84.259V691.238H85.631V692.526H84.259V696.068C84.259 696.311 84.315 696.507 84.427 696.656C84.539 696.796 84.6976 696.866 84.903 696.866C85.2016 696.866 85.421 696.787 85.561 696.628L85.911 697.734C85.603 698.023 85.141 698.168 84.525 698.168Z" fill="#7D8393"/>
<path d="M137 681C137 679.343 138.343 678 140 678H239C240.657 678 242 679.343 242 681V707C242 708.657 240.657 710 239 710H140C138.343 710 137 708.657 137 707V681Z" fill="#F0F1F2"/>
<path d="M166.404 698.168C165.041 698.168 163.893 697.715 162.96 696.81C162.036 695.905 161.574 694.747 161.574 693.338C161.574 691.929 162.036 690.771 162.96 689.866C163.893 688.961 165.041 688.508 166.404 688.508C168.075 688.508 169.349 689.208 170.226 690.608L168.826 691.322C168.593 690.921 168.261 690.594 167.832 690.342C167.403 690.09 166.927 689.964 166.404 689.964C165.508 689.964 164.757 690.286 164.15 690.93C163.553 691.565 163.254 692.367 163.254 693.338C163.254 694.309 163.553 695.116 164.15 695.76C164.757 696.395 165.508 696.712 166.404 696.712C166.927 696.712 167.403 696.586 167.832 696.334C168.261 696.082 168.593 695.755 168.826 695.354L170.226 696.068C169.33 697.468 168.056 698.168 166.404 698.168ZM177.095 698H175.625V697.272C175.102 697.869 174.374 698.168 173.441 698.168C172.825 698.168 172.279 697.972 171.803 697.58C171.327 697.179 171.089 696.628 171.089 695.928C171.089 695.209 171.322 694.663 171.789 694.29C172.265 693.917 172.816 693.73 173.441 693.73C174.402 693.73 175.13 694.019 175.625 694.598V693.59C175.625 693.198 175.48 692.89 175.191 692.666C174.902 692.442 174.519 692.33 174.043 692.33C173.287 692.33 172.62 692.615 172.041 693.184L171.439 692.162C172.204 691.434 173.152 691.07 174.281 691.07C175.112 691.07 175.788 691.266 176.311 691.658C176.834 692.05 177.095 692.671 177.095 693.52V698ZM175.625 696.46V695.438C175.289 694.971 174.752 694.738 174.015 694.738C173.595 694.738 173.25 694.85 172.979 695.074C172.708 695.298 172.573 695.592 172.573 695.956C172.573 696.32 172.708 696.614 172.979 696.838C173.25 697.053 173.595 697.16 174.015 697.16C174.752 697.16 175.289 696.927 175.625 696.46ZM185.035 698H183.565V693.772C183.565 692.839 183.112 692.372 182.207 692.372C181.852 692.372 181.521 692.461 181.213 692.638C180.905 692.815 180.657 693.03 180.471 693.282V698H179.001V691.238H180.471V692.162C180.723 691.863 181.059 691.607 181.479 691.392C181.899 691.177 182.356 691.07 182.851 691.07C183.569 691.07 184.111 691.257 184.475 691.63C184.848 692.003 185.035 692.54 185.035 693.24V698ZM186.524 694.612C186.524 693.585 186.851 692.741 187.504 692.078C188.158 691.406 188.998 691.07 190.024 691.07C191.154 691.07 192.017 691.471 192.614 692.274L191.648 693.17C191.275 692.638 190.757 692.372 190.094 692.372C189.478 692.372 188.984 692.582 188.61 693.002C188.237 693.413 188.05 693.949 188.05 694.612C188.05 695.275 188.237 695.816 188.61 696.236C188.984 696.656 189.478 696.866 190.094 696.866C190.738 696.866 191.256 696.6 191.648 696.068L192.614 696.964C192.017 697.767 191.154 698.168 190.024 698.168C188.998 698.168 188.158 697.837 187.504 697.174C186.851 696.502 186.524 695.648 186.524 694.612ZM193.483 694.612C193.483 693.623 193.805 692.787 194.449 692.106C195.103 691.415 195.924 691.07 196.913 691.07C197.912 691.07 198.715 691.415 199.321 692.106C199.937 692.797 200.245 693.679 200.245 694.752V695.102H195.023C195.079 695.634 195.299 696.077 195.681 696.432C196.064 696.787 196.563 696.964 197.179 696.964C197.525 696.964 197.87 696.899 198.215 696.768C198.57 696.637 198.864 696.455 199.097 696.222L199.769 697.188C199.088 697.841 198.173 698.168 197.025 698.168C195.999 698.168 195.149 697.841 194.477 697.188C193.815 696.525 193.483 695.667 193.483 694.612ZM196.913 692.274C196.335 692.274 195.882 692.456 195.555 692.82C195.229 693.175 195.047 693.59 195.009 694.066H198.817C198.799 693.599 198.626 693.184 198.299 692.82C197.982 692.456 197.52 692.274 196.913 692.274ZM203.166 698H201.696V688.662H203.166V698Z" fill="#5C6069"/>
<path d="M258 681C258 679.343 259.343 678 261 678H343V710H261C259.343 710 258 708.657 258 707V681Z" fill="#5C6069"/>
<path d="M291.394 698H289.602L288.916 696.208H284.492L283.806 698H282.014L285.682 688.662H287.726L291.394 698ZM288.454 694.766L286.704 690.048L284.954 694.766H288.454ZM293.842 697.062V700.576H292.372V691.238H293.842V692.162C294.383 691.434 295.107 691.07 296.012 691.07C296.899 691.07 297.617 691.387 298.168 692.022C298.728 692.657 299.008 693.52 299.008 694.612C299.008 695.704 298.728 696.572 298.168 697.216C297.617 697.851 296.899 698.168 296.012 698.168C295.116 698.168 294.393 697.799 293.842 697.062ZM296.964 696.236C297.309 695.816 297.482 695.275 297.482 694.612C297.482 693.949 297.309 693.413 296.964 693.002C296.619 692.582 296.157 692.372 295.578 692.372C295.242 692.372 294.911 692.461 294.584 692.638C294.257 692.815 294.01 693.03 293.842 693.282V695.956C294.01 696.208 294.257 696.423 294.584 696.6C294.911 696.777 295.242 696.866 295.578 696.866C296.157 696.866 296.619 696.656 296.964 696.236ZM301.963 697.062V700.576H300.493V691.238H301.963V692.162C302.504 691.434 303.228 691.07 304.133 691.07C305.02 691.07 305.738 691.387 306.289 692.022C306.849 692.657 307.129 693.52 307.129 694.612C307.129 695.704 306.849 696.572 306.289 697.216C305.738 697.851 305.02 698.168 304.133 698.168C303.237 698.168 302.514 697.799 301.963 697.062ZM305.085 696.236C305.43 695.816 305.603 695.275 305.603 694.612C305.603 693.949 305.43 693.413 305.085 693.002C304.74 692.582 304.278 692.372 303.699 692.372C303.363 692.372 303.032 692.461 302.705 692.638C302.378 692.815 302.131 693.03 301.963 693.282V695.956C302.131 696.208 302.378 696.423 302.705 696.6C303.032 696.777 303.363 696.866 303.699 696.866C304.278 696.866 304.74 696.656 305.085 696.236ZM310.084 698H308.614V688.662H310.084V698ZM311.697 700.646L311.921 699.33C312.089 699.405 312.276 699.442 312.481 699.442C312.957 699.442 313.279 699.246 313.447 698.854L313.783 698.084L311.011 691.238H312.579L314.553 696.306L316.527 691.238H318.109L314.847 699.218C314.446 700.217 313.671 700.725 312.523 700.744C312.215 700.744 311.94 700.711 311.697 700.646Z" fill="#F0F1F2"/>
<path d="M344 678H381C382.657 678 384 679.343 384 681V707C384 708.657 382.657 710 381 710H344V678Z" fill="#5C6069"/>
<path d="M359 691.5L364 696.5L369 691.5" stroke="white" stroke-width="2" stroke-linecap="round" stroke-linejoin="round"/>
<defs>
<filter id="filter0_dd_1553_25370" x="15" y="104" width="390" height="206" filterUnits="userSpaceOnUse" color-interpolation-filters="sRGB">
<feFlood flood-opacity="0" result="BackgroundImageFix"/>
<feColorMatrix in="SourceAlpha" type="matrix" values="0 0 0 0 0 0 0 0 0 0 0 0 0 0 0 0 0 0 127 0" result="hardAlpha"/>
<feMorphology radius="1" operator="erode" in="SourceAlpha" result="effect1_dropShadow_1553_25370"/>
<feOffset dy="4"/>
<feGaussianBlur stdDeviation="3"/>
<feColorMatrix type="matrix" values="0 0 0 0 0 0 0 0 0 0 0 0 0 0 0 0 0 0 0.1 0"/>
<feBlend mode="normal" in2="BackgroundImageFix" result="effect1_dropShadow_1553_25370"/>
<feColorMatrix in="SourceAlpha" type="matrix" values="0 0 0 0 0 0 0 0 0 0 0 0 0 0 0 0 0 0 127 0" result="hardAlpha"/>
<feMorphology radius="2" operator="erode" in="SourceAlpha" result="effect2_dropShadow_1553_25370"/>
<feOffset dy="2"/>
<feGaussianBlur stdDeviation="2"/>
<feColorMatrix type="matrix" values="0 0 0 0 0 0 0 0 0 0 0 0 0 0 0 0 0 0 0.1 0"/>
<feBlend mode="normal" in2="effect1_dropShadow_1553_25370" result="effect2_dropShadow_1553_25370"/>
<feBlend mode="normal" in="SourceGraphic" in2="effect2_dropShadow_1553_25370" result="shape"/>
</filter>
<clipPath id="clip0_1553_25370">
<rect x="26" y="113" width="340" height="32" rx="3" fill="white"/>
</clipPath>
</defs>
</svg>
