<svg width="428" height="730" viewBox="0 0 428 730" fill="none" xmlns="http://www.w3.org/2000/svg">
<g filter="url(#filter0_dd_1553_27524)">
<rect width="420" height="722" transform="translate(4)" fill="white" fill-opacity="0.95"/>
<path d="M31.092 26.216C29.388 26.216 27.954 25.634 26.79 24.47C25.626 23.306 25.044 21.818 25.044 20.006C25.044 18.194 25.626 16.706 26.79 15.542C27.954 14.378 29.388 13.796 31.092 13.796C32.892 13.796 34.362 14.504 35.502 15.92L34.638 16.478C34.254 15.95 33.744 15.53 33.108 15.218C32.484 14.894 31.812 14.732 31.092 14.732C29.676 14.732 28.494 15.224 27.546 16.208C26.598 17.192 26.124 18.458 26.124 20.006C26.124 21.542 26.598 22.808 27.546 23.804C28.506 24.788 29.688 25.28 31.092 25.28C31.812 25.28 32.484 25.124 33.108 24.812C33.744 24.488 34.254 24.062 34.638 23.534L35.502 24.074C34.35 25.502 32.88 26.216 31.092 26.216ZM38.4878 26H37.5518V17.306H38.4878V18.8C39.3398 17.684 40.3178 17.126 41.4218 17.126V18.152C41.3138 18.128 41.1578 18.116 40.9538 18.116C40.5218 18.116 40.0538 18.278 39.5498 18.602C39.0458 18.926 38.6918 19.28 38.4878 19.664V26ZM42.7606 21.644C42.7606 20.372 43.1566 19.298 43.9486 18.422C44.7526 17.534 45.7546 17.09 46.9546 17.09C48.2266 17.09 49.2286 17.534 49.9606 18.422C50.6926 19.298 51.0586 20.39 51.0586 21.698V21.95H43.7866C43.8346 22.934 44.1646 23.756 44.7766 24.416C45.3886 25.076 46.1926 25.406 47.1886 25.406C48.3406 25.406 49.2886 25.004 50.0326 24.2L50.5186 24.812C49.6186 25.748 48.4846 26.216 47.1166 26.216C45.8446 26.216 44.8006 25.79 43.9846 24.938C43.1686 24.086 42.7606 22.988 42.7606 21.644ZM46.9366 17.9C45.9886 17.9 45.2326 18.242 44.6686 18.926C44.1166 19.598 43.8226 20.36 43.7866 21.212H50.1046C50.0926 20.372 49.8106 19.61 49.2586 18.926C48.7186 18.242 47.9446 17.9 46.9366 17.9ZM59.9395 26H59.0035V24.974C58.2475 25.802 57.2635 26.216 56.0515 26.216C55.2475 26.216 54.5395 25.958 53.9275 25.442C53.3155 24.914 53.0095 24.206 53.0095 23.318C53.0095 22.418 53.3095 21.716 53.9095 21.212C54.5215 20.696 55.2355 20.438 56.0515 20.438C57.2755 20.438 58.2595 20.852 59.0035 21.68V19.916C59.0035 19.292 58.7815 18.806 58.3375 18.458C57.8935 18.098 57.3355 17.918 56.6635 17.918C55.5955 17.918 54.6895 18.344 53.9455 19.196L53.4235 18.548C54.3235 17.576 55.4395 17.09 56.7715 17.09C57.7075 17.09 58.4695 17.324 59.0575 17.792C59.6455 18.26 59.9395 18.956 59.9395 19.88V26ZM59.0035 24.29V22.382C58.3795 21.578 57.5035 21.176 56.3755 21.176C55.6675 21.176 55.0915 21.38 54.6475 21.788C54.2155 22.196 53.9995 22.712 53.9995 23.336C53.9995 23.96 54.2155 24.476 54.6475 24.884C55.0915 25.28 55.6675 25.478 56.3755 25.478C57.5155 25.478 58.3915 25.082 59.0035 24.29ZM64.7543 26.216C63.6143 26.216 63.0443 25.586 63.0443 24.326V18.134H61.6043V17.306H63.0443V14.93H63.9983V17.306H65.7623V18.134H63.9983V24.182C63.9983 24.974 64.2983 25.37 64.8983 25.37C65.2943 25.37 65.6183 25.232 65.8703 24.956L66.2303 25.676C65.8463 26.036 65.3543 26.216 64.7543 26.216ZM67.3173 21.644C67.3173 20.372 67.7133 19.298 68.5053 18.422C69.3093 17.534 70.3113 17.09 71.5113 17.09C72.7833 17.09 73.7853 17.534 74.5173 18.422C75.2493 19.298 75.6153 20.39 75.6153 21.698V21.95H68.3433C68.3913 22.934 68.7213 23.756 69.3333 24.416C69.9453 25.076 70.7493 25.406 71.7453 25.406C72.8973 25.406 73.8453 25.004 74.5893 24.2L75.0753 24.812C74.1753 25.748 73.0413 26.216 71.6733 26.216C70.4013 26.216 69.3573 25.79 68.5413 24.938C67.7253 24.086 67.3173 22.988 67.3173 21.644ZM71.4933 17.9C70.5453 17.9 69.7893 18.242 69.2253 18.926C68.6733 19.598 68.3793 20.36 68.3433 21.212H74.6613C74.6493 20.372 74.3673 19.61 73.8153 18.926C73.2753 18.242 72.5013 17.9 71.4933 17.9ZM83.7544 26H82.7284V13.994H90.3424V14.93H83.7544V19.376H90.2164V20.312H83.7544V26ZM92.9162 15.83C92.7242 15.83 92.5562 15.758 92.4122 15.614C92.2682 15.47 92.1962 15.302 92.1962 15.11C92.1962 14.918 92.2682 14.75 92.4122 14.606C92.5562 14.462 92.7242 14.39 92.9162 14.39C93.1202 14.39 93.2882 14.462 93.4202 14.606C93.5642 14.738 93.6362 14.906 93.6362 15.11C93.6362 15.314 93.5642 15.488 93.4202 15.632C93.2882 15.764 93.1202 15.83 92.9162 15.83ZM93.3842 26H92.4482V17.306H93.3842V26ZM97.2338 26H96.2978V13.994H97.2338V26ZM102.037 26.216C100.897 26.216 100.327 25.586 100.327 24.326V18.134H98.8875V17.306H100.327V14.93H101.281V17.306H103.045V18.134H101.281V24.182C101.281 24.974 101.581 25.37 102.181 25.37C102.577 25.37 102.901 25.232 103.153 24.956L103.513 25.676C103.129 26.036 102.637 26.216 102.037 26.216ZM104.6 21.644C104.6 20.372 104.996 19.298 105.788 18.422C106.592 17.534 107.594 17.09 108.794 17.09C110.066 17.09 111.068 17.534 111.8 18.422C112.532 19.298 112.898 20.39 112.898 21.698V21.95H105.626C105.674 22.934 106.004 23.756 106.616 24.416C107.228 25.076 108.032 25.406 109.028 25.406C110.18 25.406 111.128 25.004 111.872 24.2L112.358 24.812C111.458 25.748 110.324 26.216 108.956 26.216C107.684 26.216 106.64 25.79 105.824 24.938C105.008 24.086 104.6 22.988 104.6 21.644ZM108.776 17.9C107.828 17.9 107.072 18.242 106.508 18.926C105.956 19.598 105.662 20.36 105.626 21.212H111.944C111.932 20.372 111.65 19.61 111.098 18.926C110.558 18.242 109.784 17.9 108.776 17.9ZM116.253 26H115.317V17.306H116.253V18.8C117.105 17.684 118.083 17.126 119.187 17.126V18.152C119.079 18.128 118.923 18.116 118.719 18.116C118.287 18.116 117.819 18.278 117.315 18.602C116.811 18.926 116.457 19.28 116.253 19.664V26Z" fill="black"/>
<mask id="mask0_1553_27524" style="mask-type:alpha" maskUnits="userSpaceOnUse" x="360" y="12" width="16" height="16">
<rect x="360" y="12" width="16" height="16" fill="#D9D9D9"/>
</mask>
<g mask="url(#mask0_1553_27524)">
<path d="M368 20.6999L364.5 24.1999C364.4 24.2999 364.283 24.3499 364.15 24.3499C364.017 24.3499 363.9 24.2999 363.8 24.1999C363.7 24.0999 363.65 23.9832 363.65 23.8499C363.65 23.7166 363.7 23.5999 363.8 23.4999L367.3 19.9999L363.8 16.4999C363.7 16.3999 363.65 16.2832 363.65 16.1499C363.65 16.0166 363.7 15.8999 363.8 15.7999C363.9 15.6999 364.017 15.6499 364.15 15.6499C364.283 15.6499 364.4 15.6999 364.5 15.7999L368 19.2999L371.5 15.7999C371.6 15.6999 371.717 15.6499 371.85 15.6499C371.983 15.6499 372.1 15.6999 372.2 15.7999C372.3 15.8999 372.35 16.0166 372.35 16.1499C372.35 16.2832 372.3 16.3999 372.2 16.4999L368.7 19.9999L372.2 23.4999C372.3 23.5999 372.35 23.7166 372.35 23.8499C372.35 23.9832 372.3 24.0999 372.2 24.1999C372.1 24.2999 371.983 24.3499 371.85 24.3499C371.717 24.3499 371.6 24.2999 371.5 24.1999L368 20.6999Z" fill="#7D8393"/>
</g>
<rect x="24.5" y="48.5" width="379" height="99" rx="5.5" stroke="#E7E8EA"/>
<g opacity="0.5">
<path d="M41.932 76H40.936V67.996H46.18V68.884H41.932V71.464H46.096V72.352H41.932V76ZM47.9657 69.232C47.8057 69.232 47.6657 69.172 47.5457 69.052C47.4257 68.932 47.3657 68.788 47.3657 68.62C47.3657 68.452 47.4257 68.312 47.5457 68.2C47.6657 68.08 47.8057 68.02 47.9657 68.02C48.1337 68.02 48.2777 68.08 48.3977 68.2C48.5177 68.312 48.5777 68.452 48.5777 68.62C48.5777 68.788 48.5177 68.932 48.3977 69.052C48.2777 69.172 48.1337 69.232 47.9657 69.232ZM48.4217 76H47.5217V70.204H48.4217V76ZM51.141 76H50.241V67.996H51.141V76ZM54.4243 76.144C54.0003 76.144 53.6803 76.028 53.4643 75.796C53.2483 75.564 53.1403 75.228 53.1403 74.788V70.996H52.1803V70.204H53.1403V68.62H54.0403V70.204H55.2163V70.996H54.0403V74.596C54.0403 74.82 54.0883 75 54.1843 75.136C54.2883 75.272 54.4363 75.34 54.6283 75.34C54.8923 75.34 55.0963 75.26 55.2403 75.1L55.5043 75.772C55.2403 76.02 54.8803 76.144 54.4243 76.144ZM56.1756 73.096C56.1756 72.248 56.4476 71.532 56.9916 70.948C57.5356 70.356 58.2156 70.06 59.0316 70.06C59.8876 70.06 60.5636 70.356 61.0596 70.948C61.5636 71.532 61.8156 72.272 61.8156 73.168V73.396H57.1236C57.1636 73.964 57.3716 74.44 57.7476 74.824C58.1236 75.208 58.6116 75.4 59.2116 75.4C59.9316 75.4 60.5276 75.156 60.9996 74.668L61.4316 75.256C60.8396 75.848 60.0716 76.144 59.1276 76.144C58.2636 76.144 57.5556 75.864 57.0036 75.304C56.4516 74.736 56.1756 74 56.1756 73.096ZM59.0196 70.804C58.4436 70.804 57.9876 71 57.6516 71.392C57.3236 71.784 57.1476 72.232 57.1236 72.736H60.9276C60.9196 72.24 60.7516 71.796 60.4236 71.404C60.0956 71.004 59.6276 70.804 59.0196 70.804ZM64.1973 76H63.2973V70.204H64.1973V71.14C64.7333 70.436 65.3773 70.084 66.1293 70.084V71.008C66.0173 70.984 65.8973 70.972 65.7693 70.972C65.4973 70.972 65.2013 71.068 64.8813 71.26C64.5613 71.452 64.3333 71.664 64.1973 71.896V76ZM71.3 76H70.4V67.996H71.3V71.08C71.804 70.4 72.456 70.06 73.256 70.06C74.016 70.06 74.636 70.34 75.116 70.9C75.596 71.452 75.836 72.188 75.836 73.108C75.836 74.036 75.596 74.776 75.116 75.328C74.644 75.872 74.024 76.144 73.256 76.144C72.448 76.144 71.796 75.808 71.3 75.136V76ZM71.3 71.8V74.428C71.46 74.684 71.7 74.9 72.02 75.076C72.348 75.252 72.684 75.34 73.028 75.34C73.604 75.34 74.06 75.132 74.396 74.716C74.732 74.3 74.9 73.764 74.9 73.108C74.9 72.452 74.732 71.916 74.396 71.5C74.06 71.076 73.604 70.864 73.028 70.864C72.684 70.864 72.348 70.956 72.02 71.14C71.7 71.316 71.46 71.536 71.3 71.8ZM77.0024 78.268L77.1464 77.452C77.2904 77.516 77.4544 77.548 77.6384 77.548C77.8464 77.548 78.0184 77.504 78.1544 77.416C78.2904 77.328 78.4064 77.168 78.5024 76.936L78.8864 76.06L76.4624 70.204H77.4344L79.3664 74.956L81.2864 70.204H82.2704L79.3664 77.176C79.0464 77.944 78.4784 78.336 77.6624 78.352C77.4224 78.352 77.2024 78.324 77.0024 78.268Z" fill="#7D8393"/>
<path d="M101.052 76H99.516L98.928 74.464H95.136L94.548 76H93.012L96.156 67.996H97.908L101.052 76ZM98.532 73.228L97.032 69.184L95.532 73.228H98.532ZM101.554 73.096C101.554 72.216 101.834 71.492 102.394 70.924C102.954 70.348 103.674 70.06 104.554 70.06C105.522 70.06 106.262 70.404 106.774 71.092L105.946 71.86C105.626 71.404 105.182 71.176 104.614 71.176C104.086 71.176 103.662 71.356 103.342 71.716C103.022 72.068 102.862 72.528 102.862 73.096C102.862 73.664 103.022 74.128 103.342 74.488C103.662 74.848 104.086 75.028 104.614 75.028C105.166 75.028 105.61 74.8 105.946 74.344L106.774 75.112C106.262 75.8 105.522 76.144 104.554 76.144C103.674 76.144 102.954 75.86 102.394 75.292C101.834 74.716 101.554 73.984 101.554 73.096ZM109.643 76.144C109.155 76.144 108.783 76.016 108.527 75.76C108.279 75.504 108.155 75.136 108.155 74.656V71.308H107.195V70.204H108.155V68.62H109.415V70.204H110.591V71.308H109.415V74.344C109.415 74.552 109.463 74.72 109.559 74.848C109.655 74.968 109.791 75.028 109.967 75.028C110.223 75.028 110.411 74.96 110.531 74.824L110.831 75.772C110.567 76.02 110.171 76.144 109.643 76.144ZM112.383 69.244C112.175 69.244 111.991 69.168 111.831 69.016C111.679 68.864 111.603 68.68 111.603 68.464C111.603 68.248 111.679 68.064 111.831 67.912C111.991 67.76 112.175 67.684 112.383 67.684C112.599 67.684 112.783 67.76 112.935 67.912C113.087 68.064 113.163 68.248 113.163 68.464C113.163 68.68 113.087 68.864 112.935 69.016C112.783 69.168 112.599 69.244 112.383 69.244ZM113.019 76H111.759V70.204H113.019V76ZM117.558 76H116.202L113.838 70.204H115.182L116.874 74.548L118.566 70.204H119.922L117.558 76ZM121.361 69.244C121.153 69.244 120.969 69.168 120.809 69.016C120.657 68.864 120.581 68.68 120.581 68.464C120.581 68.248 120.657 68.064 120.809 67.912C120.969 67.76 121.153 67.684 121.361 67.684C121.577 67.684 121.761 67.76 121.913 67.912C122.065 68.064 122.141 68.248 122.141 68.464C122.141 68.68 122.065 68.864 121.913 69.016C121.761 69.168 121.577 69.244 121.361 69.244ZM121.997 76H120.737V70.204H121.997V76ZM125.395 76.144C124.907 76.144 124.535 76.016 124.279 75.76C124.031 75.504 123.907 75.136 123.907 74.656V71.308H122.947V70.204H123.907V68.62H125.167V70.204H126.343V71.308H125.167V74.344C125.167 74.552 125.215 74.72 125.311 74.848C125.407 74.968 125.543 75.028 125.719 75.028C125.975 75.028 126.163 74.96 126.283 74.824L126.583 75.772C126.319 76.02 125.923 76.144 125.395 76.144ZM127.259 78.268L127.451 77.14C127.595 77.204 127.755 77.236 127.931 77.236C128.339 77.236 128.615 77.068 128.759 76.732L129.047 76.072L126.671 70.204H128.015L129.707 74.548L131.399 70.204H132.755L129.959 77.044C129.615 77.9 128.951 78.336 127.967 78.352C127.703 78.352 127.467 78.324 127.259 78.268Z" fill="#346868"/>
<path d="M145 74.1664C144.934 74.1668 144.869 74.1539 144.808 74.1288C144.748 74.1036 144.693 74.0665 144.647 74.0198L141.313 70.6864C141.247 70.5892 141.217 70.4716 141.229 70.3543C141.24 70.2371 141.293 70.1278 141.378 70.0457C141.462 69.9636 141.573 69.914 141.69 69.9056C141.808 69.8972 141.925 69.9305 142.02 69.9998L145 72.9598L147.98 69.9998C148.074 69.9389 148.186 69.9112 148.297 69.9214C148.409 69.9315 148.514 69.9788 148.595 70.0556C148.677 70.1325 148.73 70.2345 148.746 70.3452C148.763 70.456 148.742 70.5691 148.687 70.6664L145.353 73.9998C145.309 74.0502 145.255 74.0909 145.194 74.1196C145.133 74.1482 145.067 74.1642 145 74.1664Z" fill="#20232A"/>
</g>
<path d="M162.932 76H161.936V67.996H162.932V76ZM169.607 76H168.707V72.208C168.707 71.72 168.595 71.376 168.371 71.176C168.147 70.968 167.827 70.864 167.411 70.864C167.075 70.864 166.747 70.952 166.427 71.128C166.115 71.304 165.871 71.516 165.695 71.764V76H164.795V70.204H165.695V71.044C165.919 70.78 166.219 70.552 166.595 70.36C166.971 70.16 167.359 70.06 167.759 70.06C168.991 70.06 169.607 70.684 169.607 71.932V76Z" fill="#7D8393"/>
<rect x="173" y="60" width="137" height="24" rx="6" fill="#C5E1DF"/>
<path d="M185.632 76.144C184.464 76.144 183.48 75.756 182.68 74.98C181.888 74.204 181.492 73.212 181.492 72.004C181.492 70.796 181.888 69.804 182.68 69.028C183.48 68.252 184.464 67.864 185.632 67.864C187.064 67.864 188.156 68.464 188.908 69.664L187.708 70.276C187.508 69.932 187.224 69.652 186.856 69.436C186.488 69.22 186.08 69.112 185.632 69.112C184.864 69.112 184.22 69.388 183.7 69.94C183.188 70.484 182.932 71.172 182.932 72.004C182.932 72.836 183.188 73.528 183.7 74.08C184.22 74.624 184.864 74.896 185.632 74.896C186.08 74.896 186.488 74.788 186.856 74.572C187.224 74.356 187.508 74.076 187.708 73.732L188.908 74.344C188.14 75.544 187.048 76.144 185.632 76.144ZM195.192 76H193.932V75.232C193.388 75.84 192.704 76.144 191.88 76.144C190.64 76.144 190.02 75.532 190.02 74.308V70.204H191.28V73.852C191.28 74.276 191.38 74.58 191.58 74.764C191.78 74.94 192.068 75.028 192.444 75.028C192.748 75.028 193.032 74.956 193.296 74.812C193.56 74.668 193.772 74.488 193.932 74.272V70.204H195.192V76ZM196.348 75.244L196.924 74.332C197.14 74.556 197.432 74.748 197.8 74.908C198.168 75.068 198.532 75.148 198.892 75.148C199.26 75.148 199.54 75.088 199.732 74.968C199.932 74.84 200.032 74.664 200.032 74.44C200.032 74.208 199.92 74.036 199.696 73.924C199.472 73.804 199.144 73.696 198.712 73.6C198.448 73.544 198.24 73.496 198.088 73.456C197.944 73.416 197.756 73.352 197.524 73.264C197.292 73.168 197.116 73.064 196.996 72.952C196.876 72.832 196.768 72.676 196.672 72.484C196.576 72.292 196.528 72.072 196.528 71.824C196.528 71.328 196.732 70.912 197.14 70.576C197.548 70.232 198.104 70.06 198.808 70.06C199.696 70.06 200.448 70.332 201.064 70.876L200.536 71.764C200.352 71.556 200.108 71.388 199.804 71.26C199.5 71.132 199.172 71.068 198.82 71.068C198.484 71.068 198.22 71.128 198.028 71.248C197.836 71.36 197.74 71.516 197.74 71.716C197.74 71.916 197.844 72.068 198.052 72.172C198.26 72.276 198.576 72.376 199 72.472C199.264 72.528 199.472 72.576 199.624 72.616C199.784 72.656 199.98 72.728 200.212 72.832C200.444 72.928 200.624 73.036 200.752 73.156C200.88 73.276 200.992 73.44 201.088 73.648C201.192 73.848 201.244 74.08 201.244 74.344C201.244 74.872 201.032 75.304 200.608 75.64C200.184 75.976 199.592 76.144 198.832 76.144C197.792 76.144 196.964 75.844 196.348 75.244ZM204.276 76.144C203.788 76.144 203.416 76.016 203.16 75.76C202.912 75.504 202.788 75.136 202.788 74.656V71.308H201.828V70.204H202.788V68.62H204.048V70.204H205.224V71.308H204.048V74.344C204.048 74.552 204.096 74.72 204.192 74.848C204.288 74.968 204.424 75.028 204.6 75.028C204.856 75.028 205.044 74.96 205.164 74.824L205.464 75.772C205.2 76.02 204.804 76.144 204.276 76.144ZM209.008 76.144C208.112 76.144 207.392 75.852 206.848 75.268C206.304 74.676 206.032 73.952 206.032 73.096C206.032 72.24 206.304 71.52 206.848 70.936C207.392 70.352 208.112 70.06 209.008 70.06C209.912 70.06 210.636 70.352 211.18 70.936C211.724 71.52 211.996 72.24 211.996 73.096C211.996 73.96 211.724 74.684 211.18 75.268C210.636 75.852 209.912 76.144 209.008 76.144ZM209.008 75.028C209.528 75.028 209.936 74.844 210.232 74.476C210.536 74.1 210.688 73.64 210.688 73.096C210.688 72.56 210.536 72.108 210.232 71.74C209.936 71.364 209.528 71.176 209.008 71.176C208.496 71.176 208.088 71.364 207.784 71.74C207.488 72.108 207.34 72.56 207.34 73.096C207.34 73.64 207.488 74.1 207.784 74.476C208.088 74.844 208.496 75.028 209.008 75.028ZM221.659 76H220.399V72.22C220.399 71.524 220.083 71.176 219.451 71.176C219.187 71.176 218.931 71.252 218.683 71.404C218.435 71.556 218.243 71.736 218.107 71.944V76H216.847V72.22C216.847 71.524 216.527 71.176 215.887 71.176C215.631 71.176 215.379 71.252 215.131 71.404C214.891 71.556 214.699 71.74 214.555 71.956V76H213.295V70.204H214.555V70.996C214.699 70.78 214.947 70.572 215.299 70.372C215.659 70.164 216.039 70.06 216.439 70.06C217.279 70.06 217.807 70.416 218.023 71.128C218.207 70.84 218.479 70.592 218.839 70.384C219.199 70.168 219.583 70.06 219.991 70.06C221.103 70.06 221.659 70.644 221.659 71.812V76ZM222.955 73.096C222.955 72.248 223.231 71.532 223.783 70.948C224.343 70.356 225.047 70.06 225.895 70.06C226.751 70.06 227.439 70.356 227.959 70.948C228.487 71.54 228.751 72.296 228.751 73.216V73.516H224.275C224.323 73.972 224.511 74.352 224.839 74.656C225.167 74.96 225.595 75.112 226.123 75.112C226.419 75.112 226.715 75.056 227.011 74.944C227.315 74.832 227.567 74.676 227.767 74.476L228.343 75.304C227.759 75.864 226.975 76.144 225.991 76.144C225.111 76.144 224.383 75.864 223.807 75.304C223.239 74.736 222.955 74 222.955 73.096ZM225.895 71.092C225.399 71.092 225.011 71.248 224.731 71.56C224.451 71.864 224.295 72.22 224.263 72.628H227.527C227.511 72.228 227.363 71.872 227.083 71.56C226.811 71.248 226.415 71.092 225.895 71.092ZM231.279 76H230.019V70.204H231.279V71.056C231.503 70.768 231.783 70.532 232.119 70.348C232.455 70.164 232.803 70.072 233.163 70.072V71.32C233.051 71.296 232.919 71.284 232.767 71.284C232.503 71.284 232.219 71.364 231.915 71.524C231.619 71.676 231.407 71.852 231.279 72.052V76ZM240.321 76H237.345V67.996H240.321C241.561 67.996 242.569 68.368 243.345 69.112C244.121 69.856 244.509 70.82 244.509 72.004C244.509 73.18 244.121 74.14 243.345 74.884C242.577 75.628 241.569 76 240.321 76ZM238.749 69.232V74.764H240.321C241.161 74.764 241.829 74.5 242.325 73.972C242.821 73.444 243.069 72.788 243.069 72.004C243.069 71.196 242.825 70.532 242.337 70.012C241.857 69.492 241.185 69.232 240.321 69.232H238.749ZM246.477 69.244C246.269 69.244 246.085 69.168 245.925 69.016C245.773 68.864 245.697 68.68 245.697 68.464C245.697 68.248 245.773 68.064 245.925 67.912C246.085 67.76 246.269 67.684 246.477 67.684C246.693 67.684 246.877 67.76 247.029 67.912C247.181 68.064 247.257 68.248 247.257 68.464C247.257 68.68 247.181 68.864 247.029 69.016C246.877 69.168 246.693 69.244 246.477 69.244ZM247.113 76H245.853V70.204H247.113V76ZM250.031 76H248.771V70.204H250.031V71.056C250.255 70.768 250.535 70.532 250.871 70.348C251.207 70.164 251.555 70.072 251.915 70.072V71.32C251.803 71.296 251.671 71.284 251.519 71.284C251.255 71.284 250.971 71.364 250.667 71.524C250.371 71.676 250.159 71.852 250.031 72.052V76ZM252.596 73.096C252.596 72.248 252.872 71.532 253.424 70.948C253.984 70.356 254.688 70.06 255.536 70.06C256.392 70.06 257.08 70.356 257.6 70.948C258.128 71.54 258.392 72.296 258.392 73.216V73.516H253.916C253.964 73.972 254.152 74.352 254.48 74.656C254.808 74.96 255.236 75.112 255.764 75.112C256.06 75.112 256.356 75.056 256.652 74.944C256.956 74.832 257.208 74.676 257.408 74.476L257.984 75.304C257.4 75.864 256.616 76.144 255.632 76.144C254.752 76.144 254.024 75.864 253.448 75.304C252.88 74.736 252.596 74 252.596 73.096ZM255.536 71.092C255.04 71.092 254.652 71.248 254.372 71.56C254.092 71.864 253.936 72.22 253.904 72.628H257.168C257.152 72.228 257.004 71.872 256.724 71.56C256.452 71.248 256.056 71.092 255.536 71.092ZM259.299 73.096C259.299 72.216 259.579 71.492 260.139 70.924C260.699 70.348 261.419 70.06 262.299 70.06C263.267 70.06 264.007 70.404 264.519 71.092L263.691 71.86C263.371 71.404 262.927 71.176 262.359 71.176C261.831 71.176 261.407 71.356 261.087 71.716C260.767 72.068 260.607 72.528 260.607 73.096C260.607 73.664 260.767 74.128 261.087 74.488C261.407 74.848 261.831 75.028 262.359 75.028C262.911 75.028 263.355 74.8 263.691 74.344L264.519 75.112C264.007 75.8 263.267 76.144 262.299 76.144C261.419 76.144 260.699 75.86 260.139 75.292C259.579 74.716 259.299 73.984 259.299 73.096ZM267.388 76.144C266.9 76.144 266.528 76.016 266.272 75.76C266.024 75.504 265.9 75.136 265.9 74.656V71.308H264.94V70.204H265.9V68.62H267.16V70.204H268.336V71.308H267.16V74.344C267.16 74.552 267.208 74.72 267.304 74.848C267.4 74.968 267.536 75.028 267.712 75.028C267.968 75.028 268.156 74.96 268.276 74.824L268.576 75.772C268.312 76.02 267.916 76.144 267.388 76.144ZM272.12 76.144C271.224 76.144 270.504 75.852 269.96 75.268C269.416 74.676 269.144 73.952 269.144 73.096C269.144 72.24 269.416 71.52 269.96 70.936C270.504 70.352 271.224 70.06 272.12 70.06C273.024 70.06 273.748 70.352 274.292 70.936C274.836 71.52 275.108 72.24 275.108 73.096C275.108 73.96 274.836 74.684 274.292 75.268C273.748 75.852 273.024 76.144 272.12 76.144ZM272.12 75.028C272.64 75.028 273.048 74.844 273.344 74.476C273.648 74.1 273.8 73.64 273.8 73.096C273.8 72.56 273.648 72.108 273.344 71.74C273.048 71.364 272.64 71.176 272.12 71.176C271.608 71.176 271.2 71.364 270.896 71.74C270.6 72.108 270.452 72.56 270.452 73.096C270.452 73.64 270.6 74.1 270.896 74.476C271.2 74.844 271.608 75.028 272.12 75.028ZM277.667 76H276.407V70.204H277.667V71.056C277.891 70.768 278.171 70.532 278.507 70.348C278.843 70.164 279.191 70.072 279.551 70.072V71.32C279.439 71.296 279.307 71.284 279.155 71.284C278.891 71.284 278.607 71.364 278.303 71.524C278.007 71.676 277.795 71.852 277.667 72.052V76ZM280.339 78.268L280.531 77.14C280.675 77.204 280.835 77.236 281.011 77.236C281.419 77.236 281.695 77.068 281.839 76.732L282.127 76.072L279.751 70.204H281.095L282.787 74.548L284.479 70.204H285.835L283.039 77.044C282.695 77.9 282.031 78.336 281.047 78.352C280.783 78.352 280.547 78.324 280.339 78.268Z" fill="#346868"/>
<path d="M298 74.1664C297.934 74.1668 297.869 74.1539 297.808 74.1288C297.748 74.1036 297.693 74.0665 297.647 74.0198L294.313 70.6864C294.247 70.5892 294.217 70.4716 294.229 70.3543C294.24 70.2371 294.293 70.1278 294.378 70.0457C294.462 69.9636 294.573 69.914 294.69 69.9056C294.808 69.8972 294.925 69.9305 295.02 69.9998L298 72.9598L300.98 69.9998C301.074 69.9389 301.186 69.9112 301.297 69.9214C301.409 69.9315 301.514 69.9788 301.595 70.0556C301.677 70.1325 301.73 70.2345 301.746 70.3452C301.763 70.456 301.742 70.5691 301.687 70.6664L298.353 73.9998C298.309 74.0502 298.255 74.0909 298.194 74.1196C298.133 74.1482 298.067 74.1642 298 74.1664Z" fill="#20232A"/>
<path d="M47.788 102H46.684L45.976 100.224H41.92L41.212 102H40.108L43.324 93.996H44.56L47.788 102ZM45.676 99.336L43.948 94.884L42.208 99.336H45.676ZM49.2904 101.28C48.7544 100.696 48.4864 99.968 48.4864 99.096C48.4864 98.224 48.7544 97.5 49.2904 96.924C49.8264 96.348 50.5224 96.06 51.3784 96.06C52.2744 96.06 52.9824 96.396 53.5024 97.068L52.9024 97.62C52.5344 97.116 52.0424 96.864 51.4264 96.864C50.8184 96.864 50.3304 97.072 49.9624 97.488C49.6024 97.904 49.4224 98.44 49.4224 99.096C49.4224 99.752 49.6024 100.292 49.9624 100.716C50.3304 101.132 50.8184 101.34 51.4264 101.34C52.0344 101.34 52.5264 101.088 52.9024 100.584L53.5024 101.136C52.9824 101.808 52.2744 102.144 51.3784 102.144C50.5224 102.144 49.8264 101.856 49.2904 101.28ZM56.2518 102.144C55.8278 102.144 55.5078 102.028 55.2918 101.796C55.0758 101.564 54.9678 101.228 54.9678 100.788V96.996H54.0078V96.204H54.9678V94.62H55.8678V96.204H57.0438V96.996H55.8678V100.596C55.8678 100.82 55.9158 101 56.0118 101.136C56.1158 101.272 56.2638 101.34 56.4558 101.34C56.7198 101.34 56.9238 101.26 57.0678 101.1L57.3318 101.772C57.0678 102.02 56.7078 102.144 56.2518 102.144ZM58.7832 95.232C58.6232 95.232 58.4832 95.172 58.3632 95.052C58.2432 94.932 58.1832 94.788 58.1832 94.62C58.1832 94.452 58.2432 94.312 58.3632 94.2C58.4832 94.08 58.6232 94.02 58.7832 94.02C58.9512 94.02 59.0952 94.08 59.2152 94.2C59.3352 94.312 59.3952 94.452 59.3952 94.62C59.3952 94.788 59.3352 94.932 59.2152 95.052C59.0952 95.172 58.9512 95.232 58.7832 95.232ZM59.2392 102H58.3392V96.204H59.2392V102ZM63.5905 102H62.6065L60.1945 96.204H61.1665L63.0985 100.956L65.0185 96.204H66.0025L63.5905 102ZM67.4093 95.232C67.2493 95.232 67.1093 95.172 66.9893 95.052C66.8693 94.932 66.8093 94.788 66.8093 94.62C66.8093 94.452 66.8693 94.312 66.9893 94.2C67.1093 94.08 67.2493 94.02 67.4093 94.02C67.5773 94.02 67.7213 94.08 67.8413 94.2C67.9613 94.312 68.0213 94.452 68.0213 94.62C68.0213 94.788 67.9613 94.932 67.8413 95.052C67.7213 95.172 67.5773 95.232 67.4093 95.232ZM67.8653 102H66.9653V96.204H67.8653V102ZM71.1486 102.144C70.7246 102.144 70.4046 102.028 70.1886 101.796C69.9726 101.564 69.8646 101.228 69.8646 100.788V96.996H68.9046V96.204H69.8646V94.62H70.7646V96.204H71.9406V96.996H70.7646V100.596C70.7646 100.82 70.8126 101 70.9086 101.136C71.0126 101.272 71.1606 101.34 71.3526 101.34C71.6166 101.34 71.8206 101.26 71.9646 101.1L72.2286 101.772C71.9646 102.02 71.6046 102.144 71.1486 102.144ZM72.912 104.268L73.056 103.452C73.2 103.516 73.364 103.548 73.548 103.548C73.756 103.548 73.928 103.504 74.064 103.416C74.2 103.328 74.316 103.168 74.412 102.936L74.796 102.06L72.372 96.204H73.344L75.276 100.956L77.196 96.204H78.18L75.276 103.176C74.956 103.944 74.388 104.336 73.572 104.352C73.332 104.352 73.112 104.324 72.912 104.268Z" fill="#7D8393"/>
<path d="M87.256 102H85.852V93.996H89.368C90.176 93.996 90.812 94.236 91.276 94.716C91.748 95.196 91.984 95.792 91.984 96.504C91.984 97.208 91.748 97.804 91.276 98.292C90.812 98.772 90.176 99.012 89.368 99.012H87.256V102ZM90.16 97.428C90.416 97.196 90.544 96.888 90.544 96.504C90.544 96.12 90.416 95.812 90.16 95.58C89.904 95.348 89.576 95.232 89.176 95.232H87.256V97.776H89.176C89.576 97.776 89.904 97.66 90.16 97.428ZM98.3128 102H97.0528V101.232C96.5088 101.84 95.8248 102.144 95.0008 102.144C93.7608 102.144 93.1408 101.532 93.1408 100.308V96.204H94.4008V99.852C94.4008 100.276 94.5008 100.58 94.7008 100.764C94.9008 100.94 95.1888 101.028 95.5648 101.028C95.8688 101.028 96.1528 100.956 96.4168 100.812C96.6808 100.668 96.8928 100.488 97.0528 100.272V96.204H98.3128V102ZM101.233 102H99.9734V96.204H101.233V97.056C101.457 96.768 101.737 96.532 102.073 96.348C102.409 96.164 102.757 96.072 103.117 96.072V97.32C103.005 97.296 102.873 97.284 102.721 97.284C102.457 97.284 102.173 97.364 101.869 97.524C101.573 97.676 101.361 97.852 101.233 98.052V102ZM103.798 99.096C103.798 98.216 104.078 97.492 104.638 96.924C105.198 96.348 105.918 96.06 106.798 96.06C107.766 96.06 108.506 96.404 109.018 97.092L108.19 97.86C107.87 97.404 107.426 97.176 106.858 97.176C106.33 97.176 105.906 97.356 105.586 97.716C105.266 98.068 105.106 98.528 105.106 99.096C105.106 99.664 105.266 100.128 105.586 100.488C105.906 100.848 106.33 101.028 106.858 101.028C107.41 101.028 107.854 100.8 108.19 100.344L109.018 101.112C108.506 101.8 107.766 102.144 106.798 102.144C105.918 102.144 105.198 101.86 104.638 101.292C104.078 100.716 103.798 99.984 103.798 99.096ZM115.33 102H114.07V98.352C114.07 97.928 113.966 97.628 113.758 97.452C113.558 97.268 113.27 97.176 112.894 97.176C112.598 97.176 112.318 97.252 112.054 97.404C111.79 97.556 111.574 97.74 111.406 97.956V102H110.146V93.996H111.406V96.996C111.622 96.74 111.91 96.52 112.27 96.336C112.638 96.152 113.034 96.06 113.458 96.06C114.706 96.06 115.33 96.672 115.33 97.896V102ZM121.791 102H120.531V101.376C120.083 101.888 119.459 102.144 118.659 102.144C118.131 102.144 117.663 101.976 117.255 101.64C116.847 101.296 116.643 100.824 116.643 100.224C116.643 99.608 116.843 99.14 117.243 98.82C117.651 98.5 118.123 98.34 118.659 98.34C119.483 98.34 120.107 98.588 120.531 99.084V98.22C120.531 97.884 120.407 97.62 120.159 97.428C119.911 97.236 119.583 97.14 119.175 97.14C118.527 97.14 117.955 97.384 117.459 97.872L116.943 96.996C117.599 96.372 118.411 96.06 119.379 96.06C120.091 96.06 120.671 96.228 121.119 96.564C121.567 96.9 121.791 97.432 121.791 98.16V102ZM120.531 100.68V99.804C120.243 99.404 119.783 99.204 119.151 99.204C118.791 99.204 118.495 99.3 118.263 99.492C118.031 99.684 117.915 99.936 117.915 100.248C117.915 100.56 118.031 100.812 118.263 101.004C118.495 101.188 118.791 101.28 119.151 101.28C119.783 101.28 120.243 101.08 120.531 100.68ZM122.944 101.244L123.52 100.332C123.736 100.556 124.028 100.748 124.396 100.908C124.764 101.068 125.128 101.148 125.488 101.148C125.856 101.148 126.136 101.088 126.328 100.968C126.528 100.84 126.628 100.664 126.628 100.44C126.628 100.208 126.516 100.036 126.292 99.924C126.068 99.804 125.74 99.696 125.308 99.6C125.044 99.544 124.836 99.496 124.684 99.456C124.54 99.416 124.352 99.352 124.12 99.264C123.888 99.168 123.712 99.064 123.592 98.952C123.472 98.832 123.364 98.676 123.268 98.484C123.172 98.292 123.124 98.072 123.124 97.824C123.124 97.328 123.328 96.912 123.736 96.576C124.144 96.232 124.7 96.06 125.404 96.06C126.292 96.06 127.044 96.332 127.66 96.876L127.132 97.764C126.948 97.556 126.704 97.388 126.4 97.26C126.096 97.132 125.768 97.068 125.416 97.068C125.08 97.068 124.816 97.128 124.624 97.248C124.432 97.36 124.336 97.516 124.336 97.716C124.336 97.916 124.44 98.068 124.648 98.172C124.856 98.276 125.172 98.376 125.596 98.472C125.86 98.528 126.068 98.576 126.22 98.616C126.38 98.656 126.576 98.728 126.808 98.832C127.04 98.928 127.22 99.036 127.348 99.156C127.476 99.276 127.588 99.44 127.684 99.648C127.788 99.848 127.84 100.08 127.84 100.344C127.84 100.872 127.628 101.304 127.204 101.64C126.78 101.976 126.188 102.144 125.428 102.144C124.388 102.144 123.56 101.844 122.944 101.244ZM128.772 99.096C128.772 98.248 129.048 97.532 129.6 96.948C130.16 96.356 130.864 96.06 131.712 96.06C132.568 96.06 133.256 96.356 133.776 96.948C134.304 97.54 134.568 98.296 134.568 99.216V99.516H130.092C130.14 99.972 130.328 100.352 130.656 100.656C130.984 100.96 131.412 101.112 131.94 101.112C132.236 101.112 132.532 101.056 132.828 100.944C133.132 100.832 133.384 100.676 133.584 100.476L134.16 101.304C133.576 101.864 132.792 102.144 131.808 102.144C130.928 102.144 130.2 101.864 129.624 101.304C129.056 100.736 128.772 100 128.772 99.096ZM131.712 97.092C131.216 97.092 130.828 97.248 130.548 97.56C130.268 97.864 130.112 98.22 130.08 98.628H133.344C133.328 98.228 133.18 97.872 132.9 97.56C132.628 97.248 132.232 97.092 131.712 97.092ZM135.332 101.244L135.908 100.332C136.124 100.556 136.416 100.748 136.784 100.908C137.152 101.068 137.516 101.148 137.876 101.148C138.244 101.148 138.524 101.088 138.716 100.968C138.916 100.84 139.016 100.664 139.016 100.44C139.016 100.208 138.904 100.036 138.68 99.924C138.456 99.804 138.128 99.696 137.696 99.6C137.432 99.544 137.224 99.496 137.072 99.456C136.928 99.416 136.74 99.352 136.508 99.264C136.276 99.168 136.1 99.064 135.98 98.952C135.86 98.832 135.752 98.676 135.656 98.484C135.56 98.292 135.512 98.072 135.512 97.824C135.512 97.328 135.716 96.912 136.124 96.576C136.532 96.232 137.088 96.06 137.792 96.06C138.68 96.06 139.432 96.332 140.048 96.876L139.52 97.764C139.336 97.556 139.092 97.388 138.788 97.26C138.484 97.132 138.156 97.068 137.804 97.068C137.468 97.068 137.204 97.128 137.012 97.248C136.82 97.36 136.724 97.516 136.724 97.716C136.724 97.916 136.828 98.068 137.036 98.172C137.244 98.276 137.56 98.376 137.984 98.472C138.248 98.528 138.456 98.576 138.608 98.616C138.768 98.656 138.964 98.728 139.196 98.832C139.428 98.928 139.608 99.036 139.736 99.156C139.864 99.276 139.976 99.44 140.072 99.648C140.176 99.848 140.228 100.08 140.228 100.344C140.228 100.872 140.016 101.304 139.592 101.64C139.168 101.976 138.576 102.144 137.816 102.144C136.776 102.144 135.948 101.844 135.332 101.244Z" fill="#20232A"/>
<path d="M153 100.166C152.934 100.167 152.869 100.154 152.808 100.129C152.748 100.104 152.693 100.067 152.647 100.02L149.313 96.6864C149.247 96.5892 149.217 96.4716 149.229 96.3543C149.24 96.2371 149.293 96.1278 149.378 96.0457C149.462 95.9636 149.573 95.914 149.69 95.9056C149.808 95.8972 149.925 95.9305 150.02 95.9998L153 98.9598L155.98 95.9998C156.074 95.9389 156.186 95.9112 156.297 95.9214C156.409 95.9315 156.514 95.9788 156.595 96.0556C156.677 96.1325 156.73 96.2345 156.746 96.3452C156.763 96.456 156.742 96.5691 156.687 96.6664L153.353 99.9998C153.309 100.05 153.255 100.091 153.194 100.12C153.133 100.148 153.067 100.164 153 100.166Z" fill="#20232A"/>
<path d="M176.788 102H175.684L174.976 100.224H170.92L170.212 102H169.108L172.324 93.996H173.56L176.788 102ZM174.676 99.336L172.948 94.884L171.208 99.336H174.676ZM179.158 102.144C178.734 102.144 178.414 102.028 178.198 101.796C177.982 101.564 177.874 101.228 177.874 100.788V96.996H176.914V96.204H177.874V94.62H178.774V96.204H179.95V96.996H178.774V100.596C178.774 100.82 178.822 101 178.918 101.136C179.022 101.272 179.17 101.34 179.362 101.34C179.626 101.34 179.83 101.26 179.974 101.1L180.238 101.772C179.974 102.02 179.614 102.144 179.158 102.144ZM182.709 102.144C182.285 102.144 181.965 102.028 181.749 101.796C181.533 101.564 181.425 101.228 181.425 100.788V96.996H180.465V96.204H181.425V94.62H182.325V96.204H183.501V96.996H182.325V100.596C182.325 100.82 182.373 101 182.469 101.136C182.573 101.272 182.721 101.34 182.913 101.34C183.177 101.34 183.381 101.26 183.525 101.1L183.789 101.772C183.525 102.02 183.165 102.144 182.709 102.144ZM185.696 102H184.796V96.204H185.696V97.14C186.232 96.436 186.876 96.084 187.628 96.084V97.008C187.516 96.984 187.396 96.972 187.268 96.972C186.996 96.972 186.7 97.068 186.38 97.26C186.06 97.452 185.832 97.664 185.696 97.896V102ZM189.225 95.232C189.065 95.232 188.925 95.172 188.805 95.052C188.685 94.932 188.625 94.788 188.625 94.62C188.625 94.452 188.685 94.312 188.805 94.2C188.925 94.08 189.065 94.02 189.225 94.02C189.393 94.02 189.537 94.08 189.657 94.2C189.777 94.312 189.837 94.452 189.837 94.62C189.837 94.788 189.777 94.932 189.657 95.052C189.537 95.172 189.393 95.232 189.225 95.232ZM189.681 102H188.781V96.204H189.681V102ZM192.4 102H191.5V93.996H192.4V97.08C192.904 96.4 193.556 96.06 194.356 96.06C195.116 96.06 195.736 96.34 196.216 96.9C196.696 97.452 196.936 98.188 196.936 99.108C196.936 100.036 196.696 100.776 196.216 101.328C195.744 101.872 195.124 102.144 194.356 102.144C193.548 102.144 192.896 101.808 192.4 101.136V102ZM192.4 97.8V100.428C192.56 100.684 192.8 100.9 193.12 101.076C193.448 101.252 193.784 101.34 194.128 101.34C194.704 101.34 195.16 101.132 195.496 100.716C195.832 100.3 196 99.764 196 99.108C196 98.452 195.832 97.916 195.496 97.5C195.16 97.076 194.704 96.864 194.128 96.864C193.784 96.864 193.448 96.956 193.12 97.14C192.8 97.316 192.56 97.536 192.4 97.8ZM203.239 102H202.339V101.184C202.099 101.456 201.795 101.684 201.427 101.868C201.067 102.052 200.683 102.144 200.275 102.144C199.043 102.144 198.427 101.528 198.427 100.296V96.204H199.327V100.02C199.327 100.5 199.435 100.84 199.651 101.04C199.875 101.24 200.199 101.34 200.623 101.34C200.959 101.34 201.283 101.256 201.595 101.088C201.915 100.92 202.163 100.712 202.339 100.464V96.204H203.239V102ZM206.524 102.144C206.1 102.144 205.78 102.028 205.564 101.796C205.348 101.564 205.24 101.228 205.24 100.788V96.996H204.28V96.204H205.24V94.62H206.14V96.204H207.316V96.996H206.14V100.596C206.14 100.82 206.188 101 206.284 101.136C206.388 101.272 206.536 101.34 206.728 101.34C206.992 101.34 207.196 101.26 207.34 101.1L207.604 101.772C207.34 102.02 206.98 102.144 206.524 102.144ZM208.276 99.096C208.276 98.248 208.548 97.532 209.092 96.948C209.636 96.356 210.316 96.06 211.132 96.06C211.988 96.06 212.664 96.356 213.16 96.948C213.664 97.532 213.916 98.272 213.916 99.168V99.396H209.224C209.264 99.964 209.472 100.44 209.848 100.824C210.224 101.208 210.712 101.4 211.312 101.4C212.032 101.4 212.628 101.156 213.1 100.668L213.532 101.256C212.94 101.848 212.172 102.144 211.228 102.144C210.364 102.144 209.656 101.864 209.104 101.304C208.552 100.736 208.276 100 208.276 99.096ZM211.12 96.804C210.544 96.804 210.088 97 209.752 97.392C209.424 97.784 209.248 98.232 209.224 98.736H213.028C213.02 98.24 212.852 97.796 212.524 97.404C212.196 97.004 211.728 96.804 211.12 96.804Z" fill="#7D8393"/>
<path d="M223.256 102H221.852V93.996H225.368C226.176 93.996 226.812 94.236 227.276 94.716C227.748 95.196 227.984 95.792 227.984 96.504C227.984 97.208 227.748 97.804 227.276 98.292C226.812 98.772 226.176 99.012 225.368 99.012H223.256V102ZM226.16 97.428C226.416 97.196 226.544 96.888 226.544 96.504C226.544 96.12 226.416 95.812 226.16 95.58C225.904 95.348 225.576 95.232 225.176 95.232H223.256V97.776H225.176C225.576 97.776 225.904 97.66 226.16 97.428ZM234.313 102H233.053V101.232C232.509 101.84 231.825 102.144 231.001 102.144C229.761 102.144 229.141 101.532 229.141 100.308V96.204H230.401V99.852C230.401 100.276 230.501 100.58 230.701 100.764C230.901 100.94 231.189 101.028 231.565 101.028C231.869 101.028 232.153 100.956 232.417 100.812C232.681 100.668 232.893 100.488 233.053 100.272V96.204H234.313V102ZM237.233 102H235.973V96.204H237.233V97.056C237.457 96.768 237.737 96.532 238.073 96.348C238.409 96.164 238.757 96.072 239.117 96.072V97.32C239.005 97.296 238.873 97.284 238.721 97.284C238.457 97.284 238.173 97.364 237.869 97.524C237.573 97.676 237.361 97.852 237.233 98.052V102ZM239.798 99.096C239.798 98.216 240.078 97.492 240.638 96.924C241.198 96.348 241.918 96.06 242.798 96.06C243.766 96.06 244.506 96.404 245.018 97.092L244.19 97.86C243.87 97.404 243.426 97.176 242.858 97.176C242.33 97.176 241.906 97.356 241.586 97.716C241.266 98.068 241.106 98.528 241.106 99.096C241.106 99.664 241.266 100.128 241.586 100.488C241.906 100.848 242.33 101.028 242.858 101.028C243.41 101.028 243.854 100.8 244.19 100.344L245.018 101.112C244.506 101.8 243.766 102.144 242.798 102.144C241.918 102.144 241.198 101.86 240.638 101.292C240.078 100.716 239.798 99.984 239.798 99.096ZM251.33 102H250.07V98.352C250.07 97.928 249.966 97.628 249.758 97.452C249.558 97.268 249.27 97.176 248.894 97.176C248.598 97.176 248.318 97.252 248.054 97.404C247.79 97.556 247.574 97.74 247.406 97.956V102H246.146V93.996H247.406V96.996C247.622 96.74 247.91 96.52 248.27 96.336C248.638 96.152 249.034 96.06 249.458 96.06C250.706 96.06 251.33 96.672 251.33 97.896V102ZM257.791 102H256.531V101.376C256.083 101.888 255.459 102.144 254.659 102.144C254.131 102.144 253.663 101.976 253.255 101.64C252.847 101.296 252.643 100.824 252.643 100.224C252.643 99.608 252.843 99.14 253.243 98.82C253.651 98.5 254.123 98.34 254.659 98.34C255.483 98.34 256.107 98.588 256.531 99.084V98.22C256.531 97.884 256.407 97.62 256.159 97.428C255.911 97.236 255.583 97.14 255.175 97.14C254.527 97.14 253.955 97.384 253.459 97.872L252.943 96.996C253.599 96.372 254.411 96.06 255.379 96.06C256.091 96.06 256.671 96.228 257.119 96.564C257.567 96.9 257.791 97.432 257.791 98.16V102ZM256.531 100.68V99.804C256.243 99.404 255.783 99.204 255.151 99.204C254.791 99.204 254.495 99.3 254.263 99.492C254.031 99.684 253.915 99.936 253.915 100.248C253.915 100.56 254.031 100.812 254.263 101.004C254.495 101.188 254.791 101.28 255.151 101.28C255.783 101.28 256.243 101.08 256.531 100.68ZM258.944 101.244L259.52 100.332C259.736 100.556 260.028 100.748 260.396 100.908C260.764 101.068 261.128 101.148 261.488 101.148C261.856 101.148 262.136 101.088 262.328 100.968C262.528 100.84 262.628 100.664 262.628 100.44C262.628 100.208 262.516 100.036 262.292 99.924C262.068 99.804 261.74 99.696 261.308 99.6C261.044 99.544 260.836 99.496 260.684 99.456C260.54 99.416 260.352 99.352 260.12 99.264C259.888 99.168 259.712 99.064 259.592 98.952C259.472 98.832 259.364 98.676 259.268 98.484C259.172 98.292 259.124 98.072 259.124 97.824C259.124 97.328 259.328 96.912 259.736 96.576C260.144 96.232 260.7 96.06 261.404 96.06C262.292 96.06 263.044 96.332 263.66 96.876L263.132 97.764C262.948 97.556 262.704 97.388 262.4 97.26C262.096 97.132 261.768 97.068 261.416 97.068C261.08 97.068 260.816 97.128 260.624 97.248C260.432 97.36 260.336 97.516 260.336 97.716C260.336 97.916 260.44 98.068 260.648 98.172C260.856 98.276 261.172 98.376 261.596 98.472C261.86 98.528 262.068 98.576 262.22 98.616C262.38 98.656 262.576 98.728 262.808 98.832C263.04 98.928 263.22 99.036 263.348 99.156C263.476 99.276 263.588 99.44 263.684 99.648C263.788 99.848 263.84 100.08 263.84 100.344C263.84 100.872 263.628 101.304 263.204 101.64C262.78 101.976 262.188 102.144 261.428 102.144C260.388 102.144 259.56 101.844 258.944 101.244ZM264.772 99.096C264.772 98.248 265.048 97.532 265.6 96.948C266.16 96.356 266.864 96.06 267.712 96.06C268.568 96.06 269.256 96.356 269.776 96.948C270.304 97.54 270.568 98.296 270.568 99.216V99.516H266.092C266.14 99.972 266.328 100.352 266.656 100.656C266.984 100.96 267.412 101.112 267.94 101.112C268.236 101.112 268.532 101.056 268.828 100.944C269.132 100.832 269.384 100.676 269.584 100.476L270.16 101.304C269.576 101.864 268.792 102.144 267.808 102.144C266.928 102.144 266.2 101.864 265.624 101.304C265.056 100.736 264.772 100 264.772 99.096ZM267.712 97.092C267.216 97.092 266.828 97.248 266.548 97.56C266.268 97.864 266.112 98.22 266.08 98.628H269.344C269.328 98.228 269.18 97.872 268.9 97.56C268.628 97.248 268.232 97.092 267.712 97.092ZM280.282 102H279.022V101.208C278.542 101.832 277.922 102.144 277.162 102.144C276.402 102.144 275.782 101.872 275.302 101.328C274.822 100.784 274.582 100.044 274.582 99.108C274.582 98.18 274.822 97.44 275.302 96.888C275.782 96.336 276.402 96.06 277.162 96.06C277.922 96.06 278.542 96.376 279.022 97.008V93.996H280.282V102ZM279.022 100.26V97.956C278.878 97.732 278.666 97.548 278.386 97.404C278.106 97.252 277.818 97.176 277.522 97.176C277.026 97.176 276.63 97.356 276.334 97.716C276.038 98.076 275.89 98.54 275.89 99.108C275.89 99.676 276.038 100.14 276.334 100.5C276.63 100.852 277.026 101.028 277.522 101.028C277.818 101.028 278.106 100.956 278.386 100.812C278.666 100.668 278.878 100.484 279.022 100.26ZM286.739 102H285.479V101.376C285.031 101.888 284.407 102.144 283.607 102.144C283.079 102.144 282.611 101.976 282.203 101.64C281.795 101.296 281.591 100.824 281.591 100.224C281.591 99.608 281.791 99.14 282.191 98.82C282.599 98.5 283.071 98.34 283.607 98.34C284.431 98.34 285.055 98.588 285.479 99.084V98.22C285.479 97.884 285.355 97.62 285.107 97.428C284.859 97.236 284.531 97.14 284.123 97.14C283.475 97.14 282.903 97.384 282.407 97.872L281.891 96.996C282.547 96.372 283.359 96.06 284.327 96.06C285.039 96.06 285.619 96.228 286.067 96.564C286.515 96.9 286.739 97.432 286.739 98.16V102ZM285.479 100.68V99.804C285.191 99.404 284.731 99.204 284.099 99.204C283.739 99.204 283.443 99.3 283.211 99.492C282.979 99.684 282.863 99.936 282.863 100.248C282.863 100.56 282.979 100.812 283.211 101.004C283.443 101.188 283.739 101.28 284.099 101.28C284.731 101.28 285.191 101.08 285.479 100.68ZM290.136 102.144C289.648 102.144 289.276 102.016 289.02 101.76C288.772 101.504 288.648 101.136 288.648 100.656V97.308H287.688V96.204H288.648V94.62H289.908V96.204H291.084V97.308H289.908V100.344C289.908 100.552 289.956 100.72 290.052 100.848C290.148 100.968 290.284 101.028 290.46 101.028C290.716 101.028 290.904 100.96 291.024 100.824L291.324 101.772C291.06 102.02 290.664 102.144 290.136 102.144ZM291.892 99.096C291.892 98.248 292.168 97.532 292.72 96.948C293.28 96.356 293.984 96.06 294.832 96.06C295.688 96.06 296.376 96.356 296.896 96.948C297.424 97.54 297.688 98.296 297.688 99.216V99.516H293.212C293.26 99.972 293.448 100.352 293.776 100.656C294.104 100.96 294.532 101.112 295.06 101.112C295.356 101.112 295.652 101.056 295.948 100.944C296.252 100.832 296.504 100.676 296.704 100.476L297.28 101.304C296.696 101.864 295.912 102.144 294.928 102.144C294.048 102.144 293.32 101.864 292.744 101.304C292.176 100.736 291.892 100 291.892 99.096ZM294.832 97.092C294.336 97.092 293.948 97.248 293.668 97.56C293.388 97.864 293.232 98.22 293.2 98.628H296.464C296.448 98.228 296.3 97.872 296.02 97.56C295.748 97.248 295.352 97.092 294.832 97.092Z" fill="#20232A"/>
<path d="M311 100.166C310.934 100.167 310.869 100.154 310.808 100.129C310.748 100.104 310.693 100.067 310.647 100.02L307.313 96.6864C307.247 96.5892 307.217 96.4716 307.229 96.3543C307.24 96.2371 307.293 96.1278 307.378 96.0457C307.462 95.9636 307.573 95.914 307.69 95.9056C307.808 95.8972 307.925 95.9305 308.02 95.9998L311 98.9598L313.98 95.9998C314.074 95.9389 314.186 95.9112 314.297 95.9214C314.409 95.9315 314.514 95.9788 314.595 96.0556C314.677 96.1325 314.73 96.2345 314.746 96.3452C314.763 96.456 314.742 96.5691 314.687 96.6664L311.353 99.9998C311.309 100.05 311.255 100.091 311.194 100.12C311.133 100.148 311.067 100.164 311 100.166Z" fill="#20232A"/>
<path d="M41.344 121.232C41.184 121.232 41.044 121.172 40.924 121.052C40.804 120.932 40.744 120.788 40.744 120.62C40.744 120.452 40.804 120.312 40.924 120.2C41.044 120.08 41.184 120.02 41.344 120.02C41.512 120.02 41.656 120.08 41.776 120.2C41.896 120.312 41.956 120.452 41.956 120.62C41.956 120.788 41.896 120.932 41.776 121.052C41.656 121.172 41.512 121.232 41.344 121.232ZM41.8 128H40.9V122.204H41.8V128ZM43.1153 127.232L43.5833 126.584C43.7833 126.816 44.0553 127.012 44.3993 127.172C44.7513 127.332 45.1153 127.412 45.4913 127.412C45.9233 127.412 46.2593 127.324 46.4993 127.148C46.7393 126.972 46.8593 126.74 46.8593 126.452C46.8593 126.3 46.8193 126.168 46.7393 126.056C46.6673 125.944 46.5513 125.848 46.3913 125.768C46.2313 125.688 46.0793 125.624 45.9353 125.576C45.7993 125.528 45.6113 125.476 45.3713 125.42C45.1073 125.356 44.9033 125.308 44.7593 125.276C44.6233 125.236 44.4433 125.172 44.2193 125.084C43.9953 124.988 43.8273 124.888 43.7153 124.784C43.6033 124.672 43.4993 124.528 43.4033 124.352C43.3153 124.168 43.2713 123.96 43.2713 123.728C43.2713 123.256 43.4633 122.86 43.8473 122.54C44.2393 122.22 44.7673 122.06 45.4313 122.06C46.3033 122.06 47.0193 122.34 47.5793 122.9L47.1593 123.524C46.7513 123.036 46.1753 122.792 45.4313 122.792C45.0393 122.792 44.7273 122.872 44.4953 123.032C44.2633 123.192 44.1473 123.404 44.1473 123.668C44.1473 123.924 44.2633 124.116 44.4953 124.244C44.7353 124.364 45.0913 124.48 45.5633 124.592C45.8273 124.648 46.0353 124.7 46.1873 124.748C46.3393 124.788 46.5273 124.856 46.7513 124.952C46.9753 125.048 47.1473 125.156 47.2673 125.276C47.3953 125.388 47.5033 125.54 47.5913 125.732C47.6873 125.924 47.7353 126.144 47.7353 126.392C47.7353 126.904 47.5353 127.324 47.1353 127.652C46.7353 127.98 46.1753 128.144 45.4553 128.144C44.4713 128.144 43.6913 127.84 43.1153 127.232ZM56.0232 128H52.3752V119.996H55.9392C56.6272 119.996 57.1712 120.184 57.5712 120.56C57.9792 120.936 58.1832 121.428 58.1832 122.036C58.1832 122.516 58.0472 122.924 57.7752 123.26C57.5032 123.588 57.1712 123.792 56.7792 123.872C57.2032 123.936 57.5672 124.16 57.8712 124.544C58.1832 124.928 58.3392 125.36 58.3392 125.84C58.3392 126.488 58.1312 127.012 57.7152 127.412C57.3072 127.804 56.7432 128 56.0232 128ZM53.3712 120.884V123.464H55.7712C56.2112 123.464 56.5512 123.344 56.7912 123.104C57.0312 122.864 57.1512 122.556 57.1512 122.18C57.1512 121.804 57.0272 121.496 56.7792 121.256C56.5392 121.008 56.2032 120.884 55.7712 120.884H53.3712ZM53.3712 124.352V127.112H55.8192C56.2832 127.112 56.6472 126.988 56.9112 126.74C57.1752 126.492 57.3072 126.156 57.3072 125.732C57.3072 125.34 57.1752 125.012 56.9112 124.748C56.6552 124.484 56.2912 124.352 55.8192 124.352H53.3712ZM59.5741 125.096C59.5741 124.248 59.8461 123.532 60.3901 122.948C60.9341 122.356 61.6141 122.06 62.4301 122.06C63.2861 122.06 63.9621 122.356 64.4581 122.948C64.9621 123.532 65.2141 124.272 65.2141 125.168V125.396H60.5221C60.5621 125.964 60.7701 126.44 61.1461 126.824C61.5221 127.208 62.0101 127.4 62.6101 127.4C63.3301 127.4 63.9261 127.156 64.3981 126.668L64.8301 127.256C64.2381 127.848 63.4701 128.144 62.5261 128.144C61.6621 128.144 60.9541 127.864 60.4021 127.304C59.8501 126.736 59.5741 126 59.5741 125.096ZM62.4181 122.804C61.8421 122.804 61.3861 123 61.0501 123.392C60.7221 123.784 60.5461 124.232 60.5221 124.736H64.3261C64.3181 124.24 64.1501 123.796 63.8221 123.404C63.4941 123.004 63.0261 122.804 62.4181 122.804ZM68.1598 128.144C67.7358 128.144 67.4158 128.028 67.1998 127.796C66.9838 127.564 66.8758 127.228 66.8758 126.788V122.996H65.9158V122.204H66.8758V120.62H67.7758V122.204H68.9518V122.996H67.7758V126.596C67.7758 126.82 67.8238 127 67.9198 127.136C68.0238 127.272 68.1718 127.34 68.3638 127.34C68.6278 127.34 68.8318 127.26 68.9758 127.1L69.2398 127.772C68.9758 128.02 68.6158 128.144 68.1598 128.144ZM76.1631 128H75.2631L73.7511 123.344L72.2391 128H71.3391L69.4911 122.204H70.4271L71.8431 126.824L73.3671 122.204H74.1351L75.6591 126.824L77.0751 122.204H78.0111L76.1631 128ZM78.7476 125.096C78.7476 124.248 79.0196 123.532 79.5636 122.948C80.1076 122.356 80.7876 122.06 81.6036 122.06C82.4596 122.06 83.1356 122.356 83.6316 122.948C84.1356 123.532 84.3876 124.272 84.3876 125.168V125.396H79.6956C79.7356 125.964 79.9436 126.44 80.3196 126.824C80.6956 127.208 81.1836 127.4 81.7836 127.4C82.5036 127.4 83.0996 127.156 83.5716 126.668L84.0036 127.256C83.4116 127.848 82.6436 128.144 81.6996 128.144C80.8356 128.144 80.1276 127.864 79.5756 127.304C79.0236 126.736 78.7476 126 78.7476 125.096ZM81.5916 122.804C81.0156 122.804 80.5596 123 80.2236 123.392C79.8956 123.784 79.7196 124.232 79.6956 124.736H83.4996C83.4916 124.24 83.3236 123.796 82.9956 123.404C82.6676 123.004 82.1996 122.804 81.5916 122.804ZM85.5333 125.096C85.5333 124.248 85.8053 123.532 86.3493 122.948C86.8933 122.356 87.5733 122.06 88.3893 122.06C89.2453 122.06 89.9213 122.356 90.4173 122.948C90.9213 123.532 91.1733 124.272 91.1733 125.168V125.396H86.4813C86.5213 125.964 86.7293 126.44 87.1053 126.824C87.4813 127.208 87.9693 127.4 88.5693 127.4C89.2893 127.4 89.8853 127.156 90.3573 126.668L90.7893 127.256C90.1973 127.848 89.4293 128.144 88.4853 128.144C87.6213 128.144 86.9133 127.864 86.3613 127.304C85.8093 126.736 85.5333 126 85.5333 125.096ZM88.3773 122.804C87.8013 122.804 87.3453 123 87.0093 123.392C86.6813 123.784 86.5053 124.232 86.4813 124.736H90.2853C90.2773 124.24 90.1093 123.796 89.7813 123.404C89.4533 123.004 88.9853 122.804 88.3773 122.804ZM97.4671 128H96.5671V124.208C96.5671 123.72 96.4551 123.376 96.2311 123.176C96.0071 122.968 95.6871 122.864 95.2711 122.864C94.9351 122.864 94.6071 122.952 94.2871 123.128C93.9751 123.304 93.7311 123.516 93.5551 123.764V128H92.6551V122.204H93.5551V123.044C93.7791 122.78 94.0791 122.552 94.4551 122.36C94.8311 122.16 95.2191 122.06 95.6191 122.06C96.8511 122.06 97.4671 122.684 97.4671 123.932V128Z" fill="#7D8393"/>
<path d="M117 126.166C116.934 126.167 116.869 126.154 116.808 126.129C116.748 126.104 116.693 126.067 116.647 126.02L113.313 122.686C113.247 122.589 113.217 122.472 113.229 122.354C113.24 122.237 113.293 122.128 113.378 122.046C113.462 121.964 113.573 121.914 113.69 121.906C113.808 121.897 113.925 121.931 114.02 122L117 124.96L119.98 122C120.074 121.939 120.186 121.911 120.297 121.921C120.409 121.931 120.514 121.979 120.595 122.056C120.677 122.132 120.73 122.234 120.746 122.345C120.763 122.456 120.742 122.569 120.687 122.666L117.353 126C117.309 126.05 117.255 126.091 117.194 126.12C117.133 126.148 117.067 126.164 117 126.166Z" fill="#20232A"/>
<path d="M131.504 125.948C131.504 125.46 131.672 125.036 132.008 124.676C132.352 124.316 132.784 124.048 133.304 123.872C132.808 123.712 132.404 123.476 132.092 123.164C131.788 122.852 131.636 122.456 131.636 121.976C131.636 121.624 131.72 121.308 131.888 121.028C132.064 120.748 132.292 120.528 132.572 120.368C132.86 120.208 133.172 120.088 133.508 120.008C133.852 119.92 134.208 119.876 134.576 119.876C134.944 119.876 135.296 119.92 135.632 120.008C135.968 120.088 136.28 120.208 136.568 120.368C136.856 120.528 137.084 120.748 137.252 121.028C137.428 121.308 137.516 121.624 137.516 121.976C137.516 122.88 136.956 123.512 135.836 123.872C136.356 124.048 136.784 124.316 137.12 124.676C137.464 125.036 137.636 125.46 137.636 125.948C137.636 126.636 137.34 127.176 136.748 127.568C136.164 127.952 135.44 128.144 134.576 128.144C133.712 128.144 132.984 127.952 132.392 127.568C131.8 127.176 131.504 126.636 131.504 125.948ZM136.088 122.192C136.088 121.864 135.944 121.604 135.656 121.412C135.376 121.22 135.016 121.124 134.576 121.124C134.128 121.124 133.76 121.22 133.472 121.412C133.192 121.604 133.052 121.864 133.052 122.192C133.052 122.424 133.152 122.628 133.352 122.804C133.552 122.972 133.752 123.092 133.952 123.164C134.152 123.228 134.36 123.28 134.576 123.32C134.792 123.28 135 123.228 135.2 123.164C135.4 123.092 135.596 122.972 135.788 122.804C135.988 122.628 136.088 122.424 136.088 122.192ZM136.22 125.768C136.22 125.408 136.032 125.12 135.656 124.904C135.288 124.68 134.928 124.548 134.576 124.508C134.368 124.532 134.148 124.588 133.916 124.676C133.684 124.756 133.46 124.896 133.244 125.096C133.028 125.288 132.92 125.512 132.92 125.768C132.92 126.104 133.076 126.376 133.388 126.584C133.708 126.792 134.104 126.896 134.576 126.896C135.032 126.896 135.42 126.792 135.74 126.584C136.06 126.376 136.22 126.104 136.22 125.768ZM139.097 128.24H138.161L141.005 119.756H141.941L139.097 128.24ZM142.462 124.016C142.462 122.808 142.77 121.816 143.386 121.04C144.002 120.264 144.87 119.876 145.99 119.876C146.918 119.876 147.686 120.172 148.294 120.764L147.634 121.832C147.186 121.36 146.638 121.124 145.99 121.124C145.35 121.124 144.838 121.38 144.454 121.892C144.07 122.404 143.878 123.028 143.878 123.764C143.878 123.868 143.882 123.944 143.89 123.992C144.09 123.696 144.386 123.436 144.778 123.212C145.17 122.988 145.59 122.876 146.038 122.876C146.798 122.876 147.434 123.104 147.946 123.56C148.458 124.008 148.714 124.64 148.714 125.456C148.714 126.216 148.442 126.856 147.898 127.376C147.354 127.888 146.642 128.144 145.762 128.144C145.194 128.144 144.694 128.036 144.262 127.82C143.83 127.596 143.486 127.292 143.23 126.908C142.974 126.524 142.782 126.092 142.654 125.612C142.526 125.124 142.462 124.592 142.462 124.016ZM147.298 125.504C147.298 125.04 147.142 124.688 146.83 124.448C146.518 124.2 146.126 124.076 145.654 124.076C145.318 124.076 144.994 124.164 144.682 124.34C144.37 124.508 144.11 124.736 143.902 125.024C143.95 125.536 144.118 125.976 144.406 126.344C144.694 126.712 145.122 126.896 145.69 126.896C146.186 126.896 146.578 126.756 146.866 126.476C147.154 126.188 147.298 125.864 147.298 125.504ZM150.137 128.24H149.201L152.045 119.756H152.981L150.137 128.24ZM159.406 128H153.61V126.896C155.282 125.632 156.418 124.696 157.018 124.088C157.626 123.472 157.93 122.892 157.93 122.348C157.93 121.956 157.786 121.656 157.498 121.448C157.218 121.232 156.878 121.124 156.478 121.124C155.598 121.124 154.878 121.444 154.318 122.084L153.502 121.16C153.846 120.744 154.278 120.428 154.798 120.212C155.326 119.988 155.878 119.876 156.454 119.876C157.27 119.876 157.958 120.096 158.518 120.536C159.078 120.976 159.358 121.58 159.358 122.348C159.358 123.036 159.07 123.72 158.494 124.4C157.918 125.08 157.038 125.868 155.854 126.764H159.406V128ZM160.855 125.504C160.727 125.024 160.663 124.524 160.663 124.004C160.663 123.484 160.727 122.984 160.855 122.504C160.983 122.024 161.171 121.588 161.419 121.196C161.667 120.796 162.003 120.476 162.427 120.236C162.851 119.996 163.331 119.876 163.867 119.876C164.403 119.876 164.883 119.996 165.307 120.236C165.731 120.476 166.067 120.796 166.315 121.196C166.563 121.588 166.751 122.024 166.879 122.504C167.007 122.984 167.071 123.484 167.071 124.004C167.071 124.524 167.007 125.024 166.879 125.504C166.751 125.984 166.563 126.424 166.315 126.824C166.067 127.224 165.731 127.544 165.307 127.784C164.883 128.024 164.403 128.144 163.867 128.144C163.331 128.144 162.851 128.024 162.427 127.784C162.003 127.544 161.667 127.224 161.419 126.824C161.171 126.424 160.983 125.984 160.855 125.504ZM165.643 124.004C165.643 123.468 165.587 122.992 165.475 122.576C165.371 122.16 165.179 121.816 164.899 121.544C164.627 121.264 164.283 121.124 163.867 121.124C163.451 121.124 163.103 121.264 162.823 121.544C162.551 121.816 162.359 122.16 162.247 122.576C162.143 122.992 162.091 123.468 162.091 124.004C162.091 124.844 162.235 125.536 162.523 126.08C162.811 126.624 163.259 126.896 163.867 126.896C164.475 126.896 164.923 126.624 165.211 126.08C165.499 125.536 165.643 124.844 165.643 124.004ZM173.985 128H168.189V126.896C169.861 125.632 170.997 124.696 171.597 124.088C172.205 123.472 172.509 122.892 172.509 122.348C172.509 121.956 172.365 121.656 172.077 121.448C171.797 121.232 171.457 121.124 171.057 121.124C170.177 121.124 169.457 121.444 168.897 122.084L168.081 121.16C168.425 120.744 168.857 120.428 169.377 120.212C169.905 119.988 170.457 119.876 171.033 119.876C171.849 119.876 172.537 120.096 173.097 120.536C173.657 120.976 173.937 121.58 173.937 122.348C173.937 123.036 173.649 123.72 173.073 124.4C172.497 125.08 171.617 125.868 170.433 126.764H173.985V128ZM175.038 126.848L175.794 125.924C176.05 126.22 176.378 126.456 176.778 126.632C177.178 126.808 177.59 126.896 178.014 126.896C178.534 126.896 178.942 126.788 179.238 126.572C179.534 126.348 179.682 126.048 179.682 125.672C179.682 124.92 179.09 124.544 177.906 124.544C177.37 124.544 177.062 124.548 176.982 124.556V123.296C177.078 123.304 177.386 123.308 177.906 123.308C178.402 123.308 178.798 123.22 179.094 123.044C179.398 122.868 179.55 122.604 179.55 122.252C179.55 121.892 179.398 121.616 179.094 121.424C178.79 121.224 178.402 121.124 177.93 121.124C177.146 121.124 176.458 121.42 175.866 122.012L175.146 121.136C175.858 120.296 176.83 119.876 178.062 119.876C178.934 119.876 179.634 120.072 180.162 120.464C180.69 120.848 180.954 121.372 180.954 122.036C180.954 122.532 180.778 122.944 180.426 123.272C180.082 123.592 179.678 123.792 179.214 123.872C179.67 123.912 180.094 124.104 180.486 124.448C180.878 124.792 181.074 125.248 181.074 125.816C181.074 126.504 180.798 127.064 180.246 127.496C179.702 127.928 178.974 128.144 178.062 128.144C177.382 128.144 176.778 128.024 176.25 127.784C175.73 127.544 175.326 127.232 175.038 126.848ZM188.011 125.636H185.131V124.556H188.011V125.636ZM191.632 125.636H188.752V124.556H191.632V125.636ZM195.408 126.848L196.164 125.924C196.42 126.22 196.748 126.456 197.148 126.632C197.548 126.808 197.96 126.896 198.384 126.896C198.904 126.896 199.312 126.788 199.608 126.572C199.904 126.348 200.052 126.048 200.052 125.672C200.052 124.92 199.46 124.544 198.276 124.544C197.74 124.544 197.432 124.548 197.352 124.556V123.296C197.448 123.304 197.756 123.308 198.276 123.308C198.772 123.308 199.168 123.22 199.464 123.044C199.768 122.868 199.92 122.604 199.92 122.252C199.92 121.892 199.768 121.616 199.464 121.424C199.16 121.224 198.772 121.124 198.3 121.124C197.516 121.124 196.828 121.42 196.236 122.012L195.516 121.136C196.228 120.296 197.2 119.876 198.432 119.876C199.304 119.876 200.004 120.072 200.532 120.464C201.06 120.848 201.324 121.372 201.324 122.036C201.324 122.532 201.148 122.944 200.796 123.272C200.452 123.592 200.048 123.792 199.584 123.872C200.04 123.912 200.464 124.104 200.856 124.448C201.248 124.792 201.444 125.248 201.444 125.816C201.444 126.504 201.168 127.064 200.616 127.496C200.072 127.928 199.344 128.144 198.432 128.144C197.752 128.144 197.148 128.024 196.62 127.784C196.1 127.544 195.696 127.232 195.408 126.848ZM205.743 128H204.339V121.82L203.031 123.176L202.215 122.324L204.519 119.996H205.743V128ZM207.553 128.24H206.617L209.461 119.756H210.397L207.553 128.24ZM210.93 125.948C210.93 125.46 211.098 125.036 211.434 124.676C211.778 124.316 212.21 124.048 212.73 123.872C212.234 123.712 211.83 123.476 211.518 123.164C211.214 122.852 211.062 122.456 211.062 121.976C211.062 121.624 211.146 121.308 211.314 121.028C211.49 120.748 211.718 120.528 211.998 120.368C212.286 120.208 212.598 120.088 212.934 120.008C213.278 119.92 213.634 119.876 214.002 119.876C214.37 119.876 214.722 119.92 215.058 120.008C215.394 120.088 215.706 120.208 215.994 120.368C216.282 120.528 216.51 120.748 216.678 121.028C216.854 121.308 216.942 121.624 216.942 121.976C216.942 122.88 216.382 123.512 215.262 123.872C215.782 124.048 216.21 124.316 216.546 124.676C216.89 125.036 217.062 125.46 217.062 125.948C217.062 126.636 216.766 127.176 216.174 127.568C215.59 127.952 214.866 128.144 214.002 128.144C213.138 128.144 212.41 127.952 211.818 127.568C211.226 127.176 210.93 126.636 210.93 125.948ZM215.514 122.192C215.514 121.864 215.37 121.604 215.082 121.412C214.802 121.22 214.442 121.124 214.002 121.124C213.554 121.124 213.186 121.22 212.898 121.412C212.618 121.604 212.478 121.864 212.478 122.192C212.478 122.424 212.578 122.628 212.778 122.804C212.978 122.972 213.178 123.092 213.378 123.164C213.578 123.228 213.786 123.28 214.002 123.32C214.218 123.28 214.426 123.228 214.626 123.164C214.826 123.092 215.022 122.972 215.214 122.804C215.414 122.628 215.514 122.424 215.514 122.192ZM215.646 125.768C215.646 125.408 215.458 125.12 215.082 124.904C214.714 124.68 214.354 124.548 214.002 124.508C213.794 124.532 213.574 124.588 213.342 124.676C213.11 124.756 212.886 124.896 212.67 125.096C212.454 125.288 212.346 125.512 212.346 125.768C212.346 126.104 212.502 126.376 212.814 126.584C213.134 126.792 213.53 126.896 214.002 126.896C214.458 126.896 214.846 126.792 215.166 126.584C215.486 126.376 215.646 126.104 215.646 125.768ZM218.523 128.24H217.587L220.431 119.756H221.367L218.523 128.24ZM227.792 128H221.996V126.896C223.668 125.632 224.804 124.696 225.404 124.088C226.012 123.472 226.316 122.892 226.316 122.348C226.316 121.956 226.172 121.656 225.884 121.448C225.604 121.232 225.264 121.124 224.864 121.124C223.984 121.124 223.264 121.444 222.704 122.084L221.888 121.16C222.232 120.744 222.664 120.428 223.184 120.212C223.712 119.988 224.264 119.876 224.84 119.876C225.656 119.876 226.344 120.096 226.904 120.536C227.464 120.976 227.744 121.58 227.744 122.348C227.744 123.036 227.456 123.72 226.88 124.4C226.304 125.08 225.424 125.868 224.24 126.764H227.792V128ZM229.241 125.504C229.113 125.024 229.049 124.524 229.049 124.004C229.049 123.484 229.113 122.984 229.241 122.504C229.369 122.024 229.557 121.588 229.805 121.196C230.053 120.796 230.389 120.476 230.813 120.236C231.237 119.996 231.717 119.876 232.253 119.876C232.789 119.876 233.269 119.996 233.693 120.236C234.117 120.476 234.453 120.796 234.701 121.196C234.949 121.588 235.137 122.024 235.265 122.504C235.393 122.984 235.457 123.484 235.457 124.004C235.457 124.524 235.393 125.024 235.265 125.504C235.137 125.984 234.949 126.424 234.701 126.824C234.453 127.224 234.117 127.544 233.693 127.784C233.269 128.024 232.789 128.144 232.253 128.144C231.717 128.144 231.237 128.024 230.813 127.784C230.389 127.544 230.053 127.224 229.805 126.824C229.557 126.424 229.369 125.984 229.241 125.504ZM234.029 124.004C234.029 123.468 233.973 122.992 233.861 122.576C233.757 122.16 233.565 121.816 233.285 121.544C233.013 121.264 232.669 121.124 232.253 121.124C231.837 121.124 231.489 121.264 231.209 121.544C230.937 121.816 230.745 122.16 230.633 122.576C230.529 122.992 230.477 123.468 230.477 124.004C230.477 124.844 230.621 125.536 230.909 126.08C231.197 126.624 231.645 126.896 232.253 126.896C232.861 126.896 233.309 126.624 233.597 126.08C233.885 125.536 234.029 124.844 234.029 124.004ZM242.372 128H236.576V126.896C238.248 125.632 239.384 124.696 239.984 124.088C240.592 123.472 240.896 122.892 240.896 122.348C240.896 121.956 240.752 121.656 240.464 121.448C240.184 121.232 239.844 121.124 239.444 121.124C238.564 121.124 237.844 121.444 237.284 122.084L236.468 121.16C236.812 120.744 237.244 120.428 237.764 120.212C238.292 119.988 238.844 119.876 239.42 119.876C240.236 119.876 240.924 120.096 241.484 120.536C242.044 120.976 242.324 121.58 242.324 122.348C242.324 123.036 242.036 123.72 241.46 124.4C240.884 125.08 240.004 125.868 238.82 126.764H242.372V128ZM243.424 126.848L244.18 125.924C244.436 126.22 244.764 126.456 245.164 126.632C245.564 126.808 245.976 126.896 246.4 126.896C246.92 126.896 247.328 126.788 247.624 126.572C247.92 126.348 248.068 126.048 248.068 125.672C248.068 124.92 247.476 124.544 246.292 124.544C245.756 124.544 245.448 124.548 245.368 124.556V123.296C245.464 123.304 245.772 123.308 246.292 123.308C246.788 123.308 247.184 123.22 247.48 123.044C247.784 122.868 247.936 122.604 247.936 122.252C247.936 121.892 247.784 121.616 247.48 121.424C247.176 121.224 246.788 121.124 246.316 121.124C245.532 121.124 244.844 121.42 244.252 122.012L243.532 121.136C244.244 120.296 245.216 119.876 246.448 119.876C247.32 119.876 248.02 120.072 248.548 120.464C249.076 120.848 249.34 121.372 249.34 122.036C249.34 122.532 249.164 122.944 248.812 123.272C248.468 123.592 248.064 123.792 247.6 123.872C248.056 123.912 248.48 124.104 248.872 124.448C249.264 124.792 249.46 125.248 249.46 125.816C249.46 126.504 249.184 127.064 248.632 127.496C248.088 127.928 247.36 128.144 246.448 128.144C245.768 128.144 245.164 128.024 244.636 127.784C244.116 127.544 243.712 127.232 243.424 126.848Z" fill="#20232A"/>
<path d="M263 126.166C262.934 126.167 262.869 126.154 262.808 126.129C262.748 126.104 262.693 126.067 262.647 126.02L259.313 122.686C259.247 122.589 259.217 122.472 259.229 122.354C259.24 122.237 259.293 122.128 259.378 122.046C259.462 121.964 259.573 121.914 259.69 121.906C259.808 121.897 259.925 121.931 260.02 122L263 124.96L265.98 122C266.074 121.939 266.186 121.911 266.297 121.921C266.409 121.931 266.514 121.979 266.595 122.056C266.677 122.132 266.73 122.234 266.746 122.345C266.763 122.456 266.742 122.569 266.687 122.666L263.353 126C263.309 126.05 263.255 126.091 263.194 126.12C263.133 126.148 263.067 126.164 263 126.166Z" fill="#20232A"/>
<rect x="24.5" y="172.5" width="379" height="31" rx="2.5" fill="#F0F1F2"/>
<rect x="24.5" y="172.5" width="379" height="31" rx="2.5" stroke="#E7E8EA"/>
<path d="M167.062 187.438V182.75C167.062 182.601 167.003 182.458 166.898 182.352C166.792 182.247 166.649 182.188 166.5 182.188C166.351 182.188 166.208 182.247 166.102 182.352C165.997 182.458 165.938 182.601 165.938 182.75V187.438H161.25C161.101 187.438 160.958 187.497 160.852 187.602C160.747 187.708 160.688 187.851 160.688 188C160.688 188.149 160.747 188.292 160.852 188.398C160.958 188.503 161.101 188.562 161.25 188.562H165.938V193.25C165.939 193.399 165.999 193.541 166.104 193.646C166.209 193.751 166.351 193.811 166.5 193.812C166.649 193.812 166.792 193.753 166.898 193.648C167.003 193.542 167.062 193.399 167.062 193.25V188.562H171.75C171.899 188.562 172.042 188.503 172.148 188.398C172.253 188.292 172.312 188.149 172.312 188C172.311 187.851 172.251 187.709 172.146 187.604C172.041 187.499 171.899 187.439 171.75 187.438H167.062Z" fill="#393C42"/>
<path d="M188.894 192H187.102L186.416 190.208H181.992L181.306 192H179.514L183.182 182.662H185.226L188.894 192ZM185.954 188.766L184.204 184.048L182.454 188.766H185.954ZM196.102 192H194.632V191.076C194.072 191.804 193.349 192.168 192.462 192.168C191.575 192.168 190.852 191.851 190.292 191.216C189.732 190.581 189.452 189.718 189.452 188.626C189.452 187.543 189.732 186.68 190.292 186.036C190.852 185.392 191.575 185.07 192.462 185.07C193.349 185.07 194.072 185.439 194.632 186.176V182.662H196.102V192ZM194.632 189.97V187.282C194.464 187.021 194.217 186.806 193.89 186.638C193.563 186.461 193.227 186.372 192.882 186.372C192.303 186.372 191.841 186.582 191.496 187.002C191.151 187.422 190.978 187.963 190.978 188.626C190.978 189.289 191.151 189.83 191.496 190.25C191.841 190.661 192.303 190.866 192.882 190.866C193.227 190.866 193.563 190.782 193.89 190.614C194.217 190.446 194.464 190.231 194.632 189.97ZM204.237 192H202.767V191.076C202.207 191.804 201.483 192.168 200.597 192.168C199.71 192.168 198.987 191.851 198.427 191.216C197.867 190.581 197.587 189.718 197.587 188.626C197.587 187.543 197.867 186.68 198.427 186.036C198.987 185.392 199.71 185.07 200.597 185.07C201.483 185.07 202.207 185.439 202.767 186.176V182.662H204.237V192ZM202.767 189.97V187.282C202.599 187.021 202.351 186.806 202.025 186.638C201.698 186.461 201.362 186.372 201.017 186.372C200.438 186.372 199.976 186.582 199.631 187.002C199.285 187.422 199.113 187.963 199.113 188.626C199.113 189.289 199.285 189.83 199.631 190.25C199.976 190.661 200.438 190.866 201.017 190.866C201.362 190.866 201.698 190.782 202.025 190.614C202.351 190.446 202.599 190.231 202.767 189.97ZM214.189 192.168C212.826 192.168 211.678 191.715 210.745 190.81C209.821 189.905 209.359 188.747 209.359 187.338C209.359 185.929 209.821 184.771 210.745 183.866C211.678 182.961 212.826 182.508 214.189 182.508C215.86 182.508 217.134 183.208 218.011 184.608L216.611 185.322C216.378 184.921 216.046 184.594 215.617 184.342C215.188 184.09 214.712 183.964 214.189 183.964C213.293 183.964 212.542 184.286 211.935 184.93C211.338 185.565 211.039 186.367 211.039 187.338C211.039 188.309 211.338 189.116 211.935 189.76C212.542 190.395 213.293 190.712 214.189 190.712C214.712 190.712 215.188 190.586 215.617 190.334C216.046 190.082 216.378 189.755 216.611 189.354L218.011 190.068C217.115 191.468 215.841 192.168 214.189 192.168ZM222.332 192.168C221.287 192.168 220.447 191.827 219.812 191.146C219.177 190.455 218.86 189.611 218.86 188.612C218.86 187.613 219.177 186.773 219.812 186.092C220.447 185.411 221.287 185.07 222.332 185.07C223.387 185.07 224.231 185.411 224.866 186.092C225.501 186.773 225.818 187.613 225.818 188.612C225.818 189.62 225.501 190.465 224.866 191.146C224.231 191.827 223.387 192.168 222.332 192.168ZM222.332 190.866C222.939 190.866 223.415 190.651 223.76 190.222C224.115 189.783 224.292 189.247 224.292 188.612C224.292 187.987 224.115 187.459 223.76 187.03C223.415 186.591 222.939 186.372 222.332 186.372C221.735 186.372 221.259 186.591 220.904 187.03C220.559 187.459 220.386 187.987 220.386 188.612C220.386 189.247 220.559 189.783 220.904 190.222C221.259 190.651 221.735 190.866 222.332 190.866ZM233.34 192H231.87V187.772C231.87 186.839 231.417 186.372 230.512 186.372C230.157 186.372 229.826 186.461 229.518 186.638C229.21 186.815 228.962 187.03 228.776 187.282V192H227.306V185.238H228.776V186.162C229.028 185.863 229.364 185.607 229.784 185.392C230.204 185.177 230.661 185.07 231.156 185.07C231.874 185.07 232.416 185.257 232.78 185.63C233.153 186.003 233.34 186.54 233.34 187.24V192ZM241.479 192H240.009V191.076C239.449 191.804 238.726 192.168 237.839 192.168C236.952 192.168 236.229 191.851 235.669 191.216C235.109 190.581 234.829 189.718 234.829 188.626C234.829 187.543 235.109 186.68 235.669 186.036C236.229 185.392 236.952 185.07 237.839 185.07C238.726 185.07 239.449 185.439 240.009 186.176V182.662H241.479V192ZM240.009 189.97V187.282C239.841 187.021 239.594 186.806 239.267 186.638C238.94 186.461 238.604 186.372 238.259 186.372C237.68 186.372 237.218 186.582 236.873 187.002C236.528 187.422 236.355 187.963 236.355 188.626C236.355 189.289 236.528 189.83 236.873 190.25C237.218 190.661 237.68 190.866 238.259 190.866C238.604 190.866 238.94 190.782 239.267 190.614C239.594 190.446 239.841 190.231 240.009 189.97ZM244.112 184.118C243.869 184.118 243.654 184.029 243.468 183.852C243.29 183.675 243.202 183.46 243.202 183.208C243.202 182.956 243.29 182.741 243.468 182.564C243.654 182.387 243.869 182.298 244.112 182.298C244.364 182.298 244.578 182.387 244.756 182.564C244.933 182.741 245.022 182.956 245.022 183.208C245.022 183.46 244.933 183.675 244.756 183.852C244.578 184.029 244.364 184.118 244.112 184.118ZM244.854 192H243.384V185.238H244.854V192ZM248.791 192.168C248.221 192.168 247.787 192.019 247.489 191.72C247.199 191.421 247.055 190.992 247.055 190.432V186.526H245.935V185.238H247.055V183.39H248.525V185.238H249.897V186.526H248.525V190.068C248.525 190.311 248.581 190.507 248.693 190.656C248.805 190.796 248.963 190.866 249.169 190.866C249.467 190.866 249.687 190.787 249.827 190.628L250.177 191.734C249.869 192.023 249.407 192.168 248.791 192.168ZM251.959 184.118C251.717 184.118 251.502 184.029 251.315 183.852C251.138 183.675 251.049 183.46 251.049 183.208C251.049 182.956 251.138 182.741 251.315 182.564C251.502 182.387 251.717 182.298 251.959 182.298C252.211 182.298 252.426 182.387 252.603 182.564C252.781 182.741 252.869 182.956 252.869 183.208C252.869 183.46 252.781 183.675 252.603 183.852C252.426 184.029 252.211 184.118 251.959 184.118ZM252.701 192H251.231V185.238H252.701V192ZM257.66 192.168C256.615 192.168 255.775 191.827 255.14 191.146C254.506 190.455 254.188 189.611 254.188 188.612C254.188 187.613 254.506 186.773 255.14 186.092C255.775 185.411 256.615 185.07 257.66 185.07C258.715 185.07 259.56 185.411 260.194 186.092C260.829 186.773 261.146 187.613 261.146 188.612C261.146 189.62 260.829 190.465 260.194 191.146C259.56 191.827 258.715 192.168 257.66 192.168ZM257.66 190.866C258.267 190.866 258.743 190.651 259.088 190.222C259.443 189.783 259.62 189.247 259.62 188.612C259.62 187.987 259.443 187.459 259.088 187.03C258.743 186.591 258.267 186.372 257.66 186.372C257.063 186.372 256.587 186.591 256.232 187.03C255.887 187.459 255.714 187.987 255.714 188.612C255.714 189.247 255.887 189.783 256.232 190.222C256.587 190.651 257.063 190.866 257.66 190.866ZM268.668 192H267.198V187.772C267.198 186.839 266.745 186.372 265.84 186.372C265.485 186.372 265.154 186.461 264.846 186.638C264.538 186.815 264.29 187.03 264.104 187.282V192H262.634V185.238H264.104V186.162C264.356 185.863 264.692 185.607 265.112 185.392C265.532 185.177 265.989 185.07 266.484 185.07C267.202 185.07 267.744 185.257 268.108 185.63C268.481 186.003 268.668 186.54 268.668 187.24V192Z" fill="#20232A"/>
<mask id="path-30-inside-1_1553_27524" fill="white">
<path d="M4 666H424V722H4V666Z"/>
</mask>
<path d="M4 667H424V665H4V667Z" fill="#CCCED4" mask="url(#path-30-inside-1_1553_27524)"/>
<path d="M63.2043 698H61.3143L59.2423 694.514H57.6183V698H55.9803V688.662H60.0823C60.997 688.662 61.7343 688.933 62.2943 689.474C62.8543 690.015 63.1343 690.72 63.1343 691.588C63.1343 692.372 62.9197 693.002 62.4903 693.478C62.061 693.945 61.5383 694.229 60.9223 694.332L63.2043 698ZM61.0063 692.666C61.305 692.395 61.4543 692.036 61.4543 691.588C61.4543 691.14 61.305 690.781 61.0063 690.51C60.7077 690.239 60.325 690.104 59.8583 690.104H57.6183V693.072H59.8583C60.325 693.072 60.7077 692.937 61.0063 692.666ZM63.8855 694.612C63.8855 693.623 64.2075 692.787 64.8515 692.106C65.5048 691.415 66.3262 691.07 67.3155 691.07C68.3142 691.07 69.1168 691.415 69.7235 692.106C70.3395 692.797 70.6475 693.679 70.6475 694.752V695.102H65.4255C65.4815 695.634 65.7008 696.077 66.0835 696.432C66.4662 696.787 66.9655 696.964 67.5815 696.964C67.9268 696.964 68.2722 696.899 68.6175 696.768C68.9722 696.637 69.2662 696.455 69.4995 696.222L70.1715 697.188C69.4902 697.841 68.5755 698.168 67.4275 698.168C66.4008 698.168 65.5515 697.841 64.8795 697.188C64.2168 696.525 63.8855 695.667 63.8855 694.612ZM67.3155 692.274C66.7368 692.274 66.2842 692.456 65.9575 692.82C65.6308 693.175 65.4488 693.59 65.4115 694.066H69.2195C69.2008 693.599 69.0282 693.184 68.7015 692.82C68.3842 692.456 67.9222 692.274 67.3155 692.274ZM71.5105 697.118L72.1825 696.054C72.4345 696.315 72.7752 696.539 73.2045 696.726C73.6338 696.913 74.0585 697.006 74.4785 697.006C74.9078 697.006 75.2345 696.936 75.4585 696.796C75.6918 696.647 75.8085 696.441 75.8085 696.18C75.8085 695.909 75.6778 695.709 75.4165 695.578C75.1552 695.438 74.7725 695.312 74.2685 695.2C73.9605 695.135 73.7178 695.079 73.5405 695.032C73.3725 694.985 73.1532 694.911 72.8825 694.808C72.6118 694.696 72.4065 694.575 72.2665 694.444C72.1265 694.304 72.0005 694.122 71.8885 693.898C71.7765 693.674 71.7205 693.417 71.7205 693.128C71.7205 692.549 71.9585 692.064 72.4345 691.672C72.9105 691.271 73.5592 691.07 74.3805 691.07C75.4165 691.07 76.2938 691.387 77.0125 692.022L76.3965 693.058C76.1818 692.815 75.8972 692.619 75.5425 692.47C75.1878 692.321 74.8052 692.246 74.3945 692.246C74.0025 692.246 73.6945 692.316 73.4705 692.456C73.2465 692.587 73.1345 692.769 73.1345 693.002C73.1345 693.235 73.2558 693.413 73.4985 693.534C73.7412 693.655 74.1098 693.772 74.6045 693.884C74.9125 693.949 75.1552 694.005 75.3325 694.052C75.5192 694.099 75.7478 694.183 76.0185 694.304C76.2892 694.416 76.4992 694.542 76.6485 694.682C76.7978 694.822 76.9285 695.013 77.0405 695.256C77.1618 695.489 77.2225 695.76 77.2225 696.068C77.2225 696.684 76.9752 697.188 76.4805 697.58C75.9858 697.972 75.2952 698.168 74.4085 698.168C73.1952 698.168 72.2292 697.818 71.5105 697.118ZM78.282 694.612C78.282 693.623 78.604 692.787 79.248 692.106C79.9013 691.415 80.7227 691.07 81.712 691.07C82.7107 691.07 83.5133 691.415 84.12 692.106C84.736 692.797 85.044 693.679 85.044 694.752V695.102H79.822C79.878 695.634 80.0973 696.077 80.48 696.432C80.8627 696.787 81.362 696.964 81.978 696.964C82.3233 696.964 82.6687 696.899 83.014 696.768C83.3687 696.637 83.6627 696.455 83.896 696.222L84.568 697.188C83.8867 697.841 82.972 698.168 81.824 698.168C80.7973 698.168 79.948 697.841 79.276 697.188C78.6133 696.525 78.282 695.667 78.282 694.612ZM81.712 692.274C81.1333 692.274 80.6807 692.456 80.354 692.82C80.0273 693.175 79.8453 693.59 79.808 694.066H83.616C83.5973 693.599 83.4247 693.184 83.098 692.82C82.7807 692.456 82.3187 692.274 81.712 692.274ZM88.525 698.168C87.9556 698.168 87.5216 698.019 87.223 697.72C86.9336 697.421 86.789 696.992 86.789 696.432V692.526H85.669V691.238H86.789V689.39H88.259V691.238H89.631V692.526H88.259V696.068C88.259 696.311 88.315 696.507 88.427 696.656C88.539 696.796 88.6976 696.866 88.903 696.866C89.2016 696.866 89.421 696.787 89.561 696.628L89.911 697.734C89.603 698.023 89.141 698.168 88.525 698.168Z" fill="#7D8393"/>
<path d="M141 681C141 679.343 142.343 678 144 678H243C244.657 678 246 679.343 246 681V707C246 708.657 244.657 710 243 710H144C142.343 710 141 708.657 141 707V681Z" fill="#F0F1F2"/>
<path d="M177.343 698.168C175.981 698.168 174.833 697.715 173.899 696.81C172.975 695.905 172.513 694.747 172.513 693.338C172.513 691.929 172.975 690.771 173.899 689.866C174.833 688.961 175.981 688.508 177.343 688.508C179.014 688.508 180.288 689.208 181.165 690.608L179.765 691.322C179.532 690.921 179.201 690.594 178.771 690.342C178.342 690.09 177.866 689.964 177.343 689.964C176.447 689.964 175.696 690.286 175.089 690.93C174.492 691.565 174.193 692.367 174.193 693.338C174.193 694.309 174.492 695.116 175.089 695.76C175.696 696.395 176.447 696.712 177.343 696.712C177.866 696.712 178.342 696.586 178.771 696.334C179.201 696.082 179.532 695.755 179.765 695.354L181.165 696.068C180.269 697.468 178.995 698.168 177.343 698.168ZM188.034 698H186.564V697.272C186.042 697.869 185.314 698.168 184.38 698.168C183.764 698.168 183.218 697.972 182.742 697.58C182.266 697.179 182.028 696.628 182.028 695.928C182.028 695.209 182.262 694.663 182.728 694.29C183.204 693.917 183.755 693.73 184.38 693.73C185.342 693.73 186.07 694.019 186.564 694.598V693.59C186.564 693.198 186.42 692.89 186.13 692.666C185.841 692.442 185.458 692.33 184.982 692.33C184.226 692.33 183.559 692.615 182.98 693.184L182.378 692.162C183.144 691.434 184.091 691.07 185.22 691.07C186.051 691.07 186.728 691.266 187.25 691.658C187.773 692.05 188.034 692.671 188.034 693.52V698ZM186.564 696.46V695.438C186.228 694.971 185.692 694.738 184.954 694.738C184.534 694.738 184.189 694.85 183.918 695.074C183.648 695.298 183.512 695.592 183.512 695.956C183.512 696.32 183.648 696.614 183.918 696.838C184.189 697.053 184.534 697.16 184.954 697.16C185.692 697.16 186.228 696.927 186.564 696.46ZM195.974 698H194.504V693.772C194.504 692.839 194.052 692.372 193.146 692.372C192.792 692.372 192.46 692.461 192.152 692.638C191.844 692.815 191.597 693.03 191.41 693.282V698H189.94V691.238H191.41V692.162C191.662 691.863 191.998 691.607 192.418 691.392C192.838 691.177 193.296 691.07 193.79 691.07C194.509 691.07 195.05 691.257 195.414 691.63C195.788 692.003 195.974 692.54 195.974 693.24V698ZM197.464 694.612C197.464 693.585 197.79 692.741 198.444 692.078C199.097 691.406 199.937 691.07 200.964 691.07C202.093 691.07 202.956 691.471 203.554 692.274L202.588 693.17C202.214 692.638 201.696 692.372 201.034 692.372C200.418 692.372 199.923 692.582 199.55 693.002C199.176 693.413 198.99 693.949 198.99 694.612C198.99 695.275 199.176 695.816 199.55 696.236C199.923 696.656 200.418 696.866 201.034 696.866C201.678 696.866 202.196 696.6 202.588 696.068L203.554 696.964C202.956 697.767 202.093 698.168 200.964 698.168C199.937 698.168 199.097 697.837 198.444 697.174C197.79 696.502 197.464 695.648 197.464 694.612ZM204.423 694.612C204.423 693.623 204.745 692.787 205.389 692.106C206.042 691.415 206.863 691.07 207.853 691.07C208.851 691.07 209.654 691.415 210.261 692.106C210.877 692.797 211.185 693.679 211.185 694.752V695.102H205.963C206.019 695.634 206.238 696.077 206.621 696.432C207.003 696.787 207.503 696.964 208.119 696.964C208.464 696.964 208.809 696.899 209.155 696.768C209.509 696.637 209.803 696.455 210.037 696.222L210.709 697.188C210.027 697.841 209.113 698.168 207.965 698.168C206.938 698.168 206.089 697.841 205.417 697.188C204.754 696.525 204.423 695.667 204.423 694.612ZM207.853 692.274C207.274 692.274 206.821 692.456 206.495 692.82C206.168 693.175 205.986 693.59 205.949 694.066H209.757C209.738 693.599 209.565 693.184 209.239 692.82C208.921 692.456 208.459 692.274 207.853 692.274ZM214.106 698H212.636V688.662H214.106V698Z" fill="#5C6069"/>
<g opacity="0.5">
<path d="M262 681C262 679.343 263.343 678 265 678H347V710H265C263.343 710 262 708.657 262 707V681Z" fill="#5C6069"/>
<path d="M295.394 698H293.602L292.916 696.208H288.492L287.806 698H286.014L289.682 688.662H291.726L295.394 698ZM292.454 694.766L290.704 690.048L288.954 694.766H292.454ZM297.842 697.062V700.576H296.372V691.238H297.842V692.162C298.383 691.434 299.107 691.07 300.012 691.07C300.899 691.07 301.617 691.387 302.168 692.022C302.728 692.657 303.008 693.52 303.008 694.612C303.008 695.704 302.728 696.572 302.168 697.216C301.617 697.851 300.899 698.168 300.012 698.168C299.116 698.168 298.393 697.799 297.842 697.062ZM300.964 696.236C301.309 695.816 301.482 695.275 301.482 694.612C301.482 693.949 301.309 693.413 300.964 693.002C300.619 692.582 300.157 692.372 299.578 692.372C299.242 692.372 298.911 692.461 298.584 692.638C298.257 692.815 298.01 693.03 297.842 693.282V695.956C298.01 696.208 298.257 696.423 298.584 696.6C298.911 696.777 299.242 696.866 299.578 696.866C300.157 696.866 300.619 696.656 300.964 696.236ZM305.963 697.062V700.576H304.493V691.238H305.963V692.162C306.504 691.434 307.228 691.07 308.133 691.07C309.02 691.07 309.738 691.387 310.289 692.022C310.849 692.657 311.129 693.52 311.129 694.612C311.129 695.704 310.849 696.572 310.289 697.216C309.738 697.851 309.02 698.168 308.133 698.168C307.237 698.168 306.514 697.799 305.963 697.062ZM309.085 696.236C309.43 695.816 309.603 695.275 309.603 694.612C309.603 693.949 309.43 693.413 309.085 693.002C308.74 692.582 308.278 692.372 307.699 692.372C307.363 692.372 307.032 692.461 306.705 692.638C306.378 692.815 306.131 693.03 305.963 693.282V695.956C306.131 696.208 306.378 696.423 306.705 696.6C307.032 696.777 307.363 696.866 307.699 696.866C308.278 696.866 308.74 696.656 309.085 696.236ZM314.084 698H312.614V688.662H314.084V698ZM315.697 700.646L315.921 699.33C316.089 699.405 316.276 699.442 316.481 699.442C316.957 699.442 317.279 699.246 317.447 698.854L317.783 698.084L315.011 691.238H316.579L318.553 696.306L320.527 691.238H322.109L318.847 699.218C318.446 700.217 317.671 700.725 316.523 700.744C316.215 700.744 315.94 700.711 315.697 700.646Z" fill="#F0F1F2"/>
<path d="M348 678H385C386.657 678 388 679.343 388 681V707C388 708.657 386.657 710 385 710H348V678Z" fill="#5C6069"/>
<path d="M363 691.5L368 696.5L373 691.5" stroke="white" stroke-width="2" stroke-linecap="round" stroke-linejoin="round"/>
</g>
</g>
<defs>
<filter id="filter0_dd_1553_27524" x="-6" y="-10" width="440" height="742" filterUnits="userSpaceOnUse" color-interpolation-filters="sRGB">
<feFlood flood-opacity="0" result="BackgroundImageFix"/>
<feColorMatrix in="SourceAlpha" type="matrix" values="0 0 0 0 0 0 0 0 0 0 0 0 0 0 0 0 0 0 127 0" result="hardAlpha"/>
<feMorphology radius="2" operator="erode" in="SourceAlpha" result="effect1_dropShadow_1553_27524"/>
<feOffset dy="2"/>
<feGaussianBlur stdDeviation="2"/>
<feColorMatrix type="matrix" values="0 0 0 0 0 0 0 0 0 0 0 0 0 0 0 0 0 0 0.07 0"/>
<feBlend mode="normal" in2="BackgroundImageFix" result="effect1_dropShadow_1553_27524"/>
<feColorMatrix in="SourceAlpha" type="matrix" values="0 0 0 0 0 0 0 0 0 0 0 0 0 0 0 0 0 0 127 0" result="hardAlpha"/>
<feOffset dy="4"/>
<feGaussianBlur stdDeviation="2"/>
<feComposite in2="hardAlpha" operator="out"/>
<feColorMatrix type="matrix" values="0 0 0 0 0 0 0 0 0 0 0 0 0 0 0 0 0 0 0.15 0"/>
<feBlend mode="normal" in2="effect1_dropShadow_1553_27524" result="effect2_dropShadow_1553_27524"/>
<feBlend mode="normal" in="SourceGraphic" in2="effect2_dropShadow_1553_27524" result="shape"/>
</filter>
</defs>
</svg>
