<svg width="428" height="730" viewBox="0 0 428 730" fill="none" xmlns="http://www.w3.org/2000/svg">
<g filter="url(#filter0_dd_1553_27021)">
<rect width="420" height="722" transform="translate(4)" fill="white" fill-opacity="0.95"/>
<path d="M31.092 26.216C29.388 26.216 27.954 25.634 26.79 24.47C25.626 23.306 25.044 21.818 25.044 20.006C25.044 18.194 25.626 16.706 26.79 15.542C27.954 14.378 29.388 13.796 31.092 13.796C32.892 13.796 34.362 14.504 35.502 15.92L34.638 16.478C34.254 15.95 33.744 15.53 33.108 15.218C32.484 14.894 31.812 14.732 31.092 14.732C29.676 14.732 28.494 15.224 27.546 16.208C26.598 17.192 26.124 18.458 26.124 20.006C26.124 21.542 26.598 22.808 27.546 23.804C28.506 24.788 29.688 25.28 31.092 25.28C31.812 25.28 32.484 25.124 33.108 24.812C33.744 24.488 34.254 24.062 34.638 23.534L35.502 24.074C34.35 25.502 32.88 26.216 31.092 26.216ZM38.4878 26H37.5518V17.306H38.4878V18.8C39.3398 17.684 40.3178 17.126 41.4218 17.126V18.152C41.3138 18.128 41.1578 18.116 40.9538 18.116C40.5218 18.116 40.0538 18.278 39.5498 18.602C39.0458 18.926 38.6918 19.28 38.4878 19.664V26ZM42.7606 21.644C42.7606 20.372 43.1566 19.298 43.9486 18.422C44.7526 17.534 45.7546 17.09 46.9546 17.09C48.2266 17.09 49.2286 17.534 49.9606 18.422C50.6926 19.298 51.0586 20.39 51.0586 21.698V21.95H43.7866C43.8346 22.934 44.1646 23.756 44.7766 24.416C45.3886 25.076 46.1926 25.406 47.1886 25.406C48.3406 25.406 49.2886 25.004 50.0326 24.2L50.5186 24.812C49.6186 25.748 48.4846 26.216 47.1166 26.216C45.8446 26.216 44.8006 25.79 43.9846 24.938C43.1686 24.086 42.7606 22.988 42.7606 21.644ZM46.9366 17.9C45.9886 17.9 45.2326 18.242 44.6686 18.926C44.1166 19.598 43.8226 20.36 43.7866 21.212H50.1046C50.0926 20.372 49.8106 19.61 49.2586 18.926C48.7186 18.242 47.9446 17.9 46.9366 17.9ZM59.9395 26H59.0035V24.974C58.2475 25.802 57.2635 26.216 56.0515 26.216C55.2475 26.216 54.5395 25.958 53.9275 25.442C53.3155 24.914 53.0095 24.206 53.0095 23.318C53.0095 22.418 53.3095 21.716 53.9095 21.212C54.5215 20.696 55.2355 20.438 56.0515 20.438C57.2755 20.438 58.2595 20.852 59.0035 21.68V19.916C59.0035 19.292 58.7815 18.806 58.3375 18.458C57.8935 18.098 57.3355 17.918 56.6635 17.918C55.5955 17.918 54.6895 18.344 53.9455 19.196L53.4235 18.548C54.3235 17.576 55.4395 17.09 56.7715 17.09C57.7075 17.09 58.4695 17.324 59.0575 17.792C59.6455 18.26 59.9395 18.956 59.9395 19.88V26ZM59.0035 24.29V22.382C58.3795 21.578 57.5035 21.176 56.3755 21.176C55.6675 21.176 55.0915 21.38 54.6475 21.788C54.2155 22.196 53.9995 22.712 53.9995 23.336C53.9995 23.96 54.2155 24.476 54.6475 24.884C55.0915 25.28 55.6675 25.478 56.3755 25.478C57.5155 25.478 58.3915 25.082 59.0035 24.29ZM64.7543 26.216C63.6143 26.216 63.0443 25.586 63.0443 24.326V18.134H61.6043V17.306H63.0443V14.93H63.9983V17.306H65.7623V18.134H63.9983V24.182C63.9983 24.974 64.2983 25.37 64.8983 25.37C65.2943 25.37 65.6183 25.232 65.8703 24.956L66.2303 25.676C65.8463 26.036 65.3543 26.216 64.7543 26.216ZM67.3173 21.644C67.3173 20.372 67.7133 19.298 68.5053 18.422C69.3093 17.534 70.3113 17.09 71.5113 17.09C72.7833 17.09 73.7853 17.534 74.5173 18.422C75.2493 19.298 75.6153 20.39 75.6153 21.698V21.95H68.3433C68.3913 22.934 68.7213 23.756 69.3333 24.416C69.9453 25.076 70.7493 25.406 71.7453 25.406C72.8973 25.406 73.8453 25.004 74.5893 24.2L75.0753 24.812C74.1753 25.748 73.0413 26.216 71.6733 26.216C70.4013 26.216 69.3573 25.79 68.5413 24.938C67.7253 24.086 67.3173 22.988 67.3173 21.644ZM71.4933 17.9C70.5453 17.9 69.7893 18.242 69.2253 18.926C68.6733 19.598 68.3793 20.36 68.3433 21.212H74.6613C74.6493 20.372 74.3673 19.61 73.8153 18.926C73.2753 18.242 72.5013 17.9 71.4933 17.9ZM83.7544 26H82.7284V13.994H90.3424V14.93H83.7544V19.376H90.2164V20.312H83.7544V26ZM92.9162 15.83C92.7242 15.83 92.5562 15.758 92.4122 15.614C92.2682 15.47 92.1962 15.302 92.1962 15.11C92.1962 14.918 92.2682 14.75 92.4122 14.606C92.5562 14.462 92.7242 14.39 92.9162 14.39C93.1202 14.39 93.2882 14.462 93.4202 14.606C93.5642 14.738 93.6362 14.906 93.6362 15.11C93.6362 15.314 93.5642 15.488 93.4202 15.632C93.2882 15.764 93.1202 15.83 92.9162 15.83ZM93.3842 26H92.4482V17.306H93.3842V26ZM97.2338 26H96.2978V13.994H97.2338V26ZM102.037 26.216C100.897 26.216 100.327 25.586 100.327 24.326V18.134H98.8875V17.306H100.327V14.93H101.281V17.306H103.045V18.134H101.281V24.182C101.281 24.974 101.581 25.37 102.181 25.37C102.577 25.37 102.901 25.232 103.153 24.956L103.513 25.676C103.129 26.036 102.637 26.216 102.037 26.216ZM104.6 21.644C104.6 20.372 104.996 19.298 105.788 18.422C106.592 17.534 107.594 17.09 108.794 17.09C110.066 17.09 111.068 17.534 111.8 18.422C112.532 19.298 112.898 20.39 112.898 21.698V21.95H105.626C105.674 22.934 106.004 23.756 106.616 24.416C107.228 25.076 108.032 25.406 109.028 25.406C110.18 25.406 111.128 25.004 111.872 24.2L112.358 24.812C111.458 25.748 110.324 26.216 108.956 26.216C107.684 26.216 106.64 25.79 105.824 24.938C105.008 24.086 104.6 22.988 104.6 21.644ZM108.776 17.9C107.828 17.9 107.072 18.242 106.508 18.926C105.956 19.598 105.662 20.36 105.626 21.212H111.944C111.932 20.372 111.65 19.61 111.098 18.926C110.558 18.242 109.784 17.9 108.776 17.9ZM116.253 26H115.317V17.306H116.253V18.8C117.105 17.684 118.083 17.126 119.187 17.126V18.152C119.079 18.128 118.923 18.116 118.719 18.116C118.287 18.116 117.819 18.278 117.315 18.602C116.811 18.926 116.457 19.28 116.253 19.664V26Z" fill="black"/>
<mask id="mask0_1553_27021" style="mask-type:alpha" maskUnits="userSpaceOnUse" x="388" y="12" width="16" height="16">
<rect x="388" y="12" width="16" height="16" fill="#D9D9D9"/>
</mask>
<g mask="url(#mask0_1553_27021)">
<path d="M396 20.6999L392.5 24.1999C392.4 24.2999 392.283 24.3499 392.15 24.3499C392.017 24.3499 391.9 24.2999 391.8 24.1999C391.7 24.0999 391.65 23.9832 391.65 23.8499C391.65 23.7166 391.7 23.5999 391.8 23.4999L395.3 19.9999L391.8 16.4999C391.7 16.3999 391.65 16.2832 391.65 16.1499C391.65 16.0166 391.7 15.8999 391.8 15.7999C391.9 15.6999 392.017 15.6499 392.15 15.6499C392.283 15.6499 392.4 15.6999 392.5 15.7999L396 19.2999L399.5 15.7999C399.6 15.6999 399.717 15.6499 399.85 15.6499C399.983 15.6499 400.1 15.6999 400.2 15.7999C400.3 15.8999 400.35 16.0166 400.35 16.1499C400.35 16.2832 400.3 16.3999 400.2 16.4999L396.7 19.9999L400.2 23.4999C400.3 23.5999 400.35 23.7166 400.35 23.8499C400.35 23.9832 400.3 24.0999 400.2 24.1999C400.1 24.2999 399.983 24.3499 399.85 24.3499C399.717 24.3499 399.6 24.2999 399.5 24.1999L396 20.6999Z" fill="#20232A"/>
</g>
<g filter="url(#filter1_dd_1553_27021)">
<rect x="24" y="48" width="380" height="96" rx="6" fill="white"/>
<rect x="23.5" y="47.5" width="381" height="97" rx="6.5" stroke="#DEE0E4"/>
<path d="M44.052 72H42.516L41.928 70.464H38.136L37.548 72H36.012L39.156 63.996H40.908L44.052 72ZM41.532 69.228L40.032 65.184L38.532 69.228H41.532ZM44.5542 69.096C44.5542 68.216 44.8342 67.492 45.3942 66.924C45.9542 66.348 46.6742 66.06 47.5542 66.06C48.5222 66.06 49.2622 66.404 49.7742 67.092L48.9462 67.86C48.6262 67.404 48.1822 67.176 47.6142 67.176C47.0862 67.176 46.6622 67.356 46.3422 67.716C46.0222 68.068 45.8622 68.528 45.8622 69.096C45.8622 69.664 46.0222 70.128 46.3422 70.488C46.6622 70.848 47.0862 71.028 47.6142 71.028C48.1662 71.028 48.6102 70.8 48.9462 70.344L49.7742 71.112C49.2622 71.8 48.5222 72.144 47.5542 72.144C46.6742 72.144 45.9542 71.86 45.3942 71.292C44.8342 70.716 44.5542 69.984 44.5542 69.096ZM52.6431 72.144C52.1551 72.144 51.7831 72.016 51.5271 71.76C51.2791 71.504 51.1551 71.136 51.1551 70.656V67.308H50.1951V66.204H51.1551V64.62H52.4151V66.204H53.5911V67.308H52.4151V70.344C52.4151 70.552 52.4631 70.72 52.5591 70.848C52.6551 70.968 52.7911 71.028 52.9671 71.028C53.2231 71.028 53.4111 70.96 53.5311 70.824L53.8311 71.772C53.5671 72.02 53.1711 72.144 52.6431 72.144ZM55.3831 65.244C55.1751 65.244 54.9911 65.168 54.8311 65.016C54.6791 64.864 54.6031 64.68 54.6031 64.464C54.6031 64.248 54.6791 64.064 54.8311 63.912C54.9911 63.76 55.1751 63.684 55.3831 63.684C55.5991 63.684 55.7831 63.76 55.9351 63.912C56.0871 64.064 56.1631 64.248 56.1631 64.464C56.1631 64.68 56.0871 64.864 55.9351 65.016C55.7831 65.168 55.5991 65.244 55.3831 65.244ZM56.0191 72H54.7591V66.204H56.0191V72ZM60.5576 72H59.2016L56.8376 66.204H58.1816L59.8736 70.548L61.5656 66.204H62.9216L60.5576 72ZM64.3608 65.244C64.1528 65.244 63.9688 65.168 63.8088 65.016C63.6568 64.864 63.5808 64.68 63.5808 64.464C63.5808 64.248 63.6568 64.064 63.8088 63.912C63.9688 63.76 64.1528 63.684 64.3608 63.684C64.5768 63.684 64.7608 63.76 64.9128 63.912C65.0648 64.064 65.1408 64.248 65.1408 64.464C65.1408 64.68 65.0648 64.864 64.9128 65.016C64.7608 65.168 64.5768 65.244 64.3608 65.244ZM64.9968 72H63.7368V66.204H64.9968V72ZM68.3953 72.144C67.9073 72.144 67.5353 72.016 67.2793 71.76C67.0313 71.504 66.9073 71.136 66.9073 70.656V67.308H65.9473V66.204H66.9073V64.62H68.1673V66.204H69.3433V67.308H68.1673V70.344C68.1673 70.552 68.2153 70.72 68.3113 70.848C68.4073 70.968 68.5433 71.028 68.7193 71.028C68.9753 71.028 69.1633 70.96 69.2833 70.824L69.5833 71.772C69.3193 72.02 68.9233 72.144 68.3953 72.144ZM70.2593 74.268L70.4513 73.14C70.5953 73.204 70.7553 73.236 70.9313 73.236C71.3393 73.236 71.6153 73.068 71.7593 72.732L72.0473 72.072L69.6713 66.204H71.0153L72.7073 70.548L74.3993 66.204H75.7553L72.9593 73.044C72.6153 73.9 71.9513 74.336 70.9673 74.352C70.7033 74.352 70.4673 74.324 70.2593 74.268Z" fill="#3E7880"/>
<path d="M88 70.1664C87.9343 70.1668 87.8692 70.1539 87.8085 70.1288C87.7478 70.1036 87.6928 70.0665 87.6466 70.0198L84.3133 66.6864C84.2468 66.5892 84.2168 66.4716 84.2286 66.3543C84.2403 66.2371 84.2931 66.1278 84.3776 66.0457C84.4621 65.9636 84.5729 65.914 84.6904 65.9056C84.8079 65.8972 84.9246 65.9305 85.02 65.9998L88 68.9598L90.98 65.9998C91.0739 65.9389 91.1856 65.9112 91.2972 65.9214C91.4087 65.9315 91.5136 65.9788 91.5951 66.0556C91.6765 66.1325 91.7298 66.2345 91.7464 66.3452C91.763 66.456 91.742 66.5691 91.6866 66.6664L88.3533 69.9998C88.3088 70.0502 88.2546 70.0909 88.1938 70.1196C88.1331 70.1482 88.0671 70.1642 88 70.1664Z" fill="#26514C"/>
<path d="M105.932 72H104.936V63.996H105.932V72ZM112.607 72H111.707V68.208C111.707 67.72 111.595 67.376 111.371 67.176C111.147 66.968 110.827 66.864 110.411 66.864C110.075 66.864 109.747 66.952 109.427 67.128C109.115 67.304 108.871 67.516 108.695 67.764V72H107.795V66.204H108.695V67.044C108.919 66.78 109.219 66.552 109.595 66.36C109.971 66.16 110.359 66.06 110.759 66.06C111.991 66.06 112.607 66.684 112.607 67.932V72Z" fill="#7D8393"/>
<path d="M128.632 72.144C127.464 72.144 126.48 71.756 125.68 70.98C124.888 70.204 124.492 69.212 124.492 68.004C124.492 66.796 124.888 65.804 125.68 65.028C126.48 64.252 127.464 63.864 128.632 63.864C130.064 63.864 131.156 64.464 131.908 65.664L130.708 66.276C130.508 65.932 130.224 65.652 129.856 65.436C129.488 65.22 129.08 65.112 128.632 65.112C127.864 65.112 127.22 65.388 126.7 65.94C126.188 66.484 125.932 67.172 125.932 68.004C125.932 68.836 126.188 69.528 126.7 70.08C127.22 70.624 127.864 70.896 128.632 70.896C129.08 70.896 129.488 70.788 129.856 70.572C130.224 70.356 130.508 70.076 130.708 69.732L131.908 70.344C131.14 71.544 130.048 72.144 128.632 72.144ZM138.192 72H136.932V71.232C136.388 71.84 135.704 72.144 134.88 72.144C133.64 72.144 133.02 71.532 133.02 70.308V66.204H134.28V69.852C134.28 70.276 134.38 70.58 134.58 70.764C134.78 70.94 135.068 71.028 135.444 71.028C135.748 71.028 136.032 70.956 136.296 70.812C136.56 70.668 136.772 70.488 136.932 70.272V66.204H138.192V72ZM139.348 71.244L139.924 70.332C140.14 70.556 140.432 70.748 140.8 70.908C141.168 71.068 141.532 71.148 141.892 71.148C142.26 71.148 142.54 71.088 142.732 70.968C142.932 70.84 143.032 70.664 143.032 70.44C143.032 70.208 142.92 70.036 142.696 69.924C142.472 69.804 142.144 69.696 141.712 69.6C141.448 69.544 141.24 69.496 141.088 69.456C140.944 69.416 140.756 69.352 140.524 69.264C140.292 69.168 140.116 69.064 139.996 68.952C139.876 68.832 139.768 68.676 139.672 68.484C139.576 68.292 139.528 68.072 139.528 67.824C139.528 67.328 139.732 66.912 140.14 66.576C140.548 66.232 141.104 66.06 141.808 66.06C142.696 66.06 143.448 66.332 144.064 66.876L143.536 67.764C143.352 67.556 143.108 67.388 142.804 67.26C142.5 67.132 142.172 67.068 141.82 67.068C141.484 67.068 141.22 67.128 141.028 67.248C140.836 67.36 140.74 67.516 140.74 67.716C140.74 67.916 140.844 68.068 141.052 68.172C141.26 68.276 141.576 68.376 142 68.472C142.264 68.528 142.472 68.576 142.624 68.616C142.784 68.656 142.98 68.728 143.212 68.832C143.444 68.928 143.624 69.036 143.752 69.156C143.88 69.276 143.992 69.44 144.088 69.648C144.192 69.848 144.244 70.08 144.244 70.344C144.244 70.872 144.032 71.304 143.608 71.64C143.184 71.976 142.592 72.144 141.832 72.144C140.792 72.144 139.964 71.844 139.348 71.244ZM147.276 72.144C146.788 72.144 146.416 72.016 146.16 71.76C145.912 71.504 145.788 71.136 145.788 70.656V67.308H144.828V66.204H145.788V64.62H147.048V66.204H148.224V67.308H147.048V70.344C147.048 70.552 147.096 70.72 147.192 70.848C147.288 70.968 147.424 71.028 147.6 71.028C147.856 71.028 148.044 70.96 148.164 70.824L148.464 71.772C148.2 72.02 147.804 72.144 147.276 72.144ZM152.008 72.144C151.112 72.144 150.392 71.852 149.848 71.268C149.304 70.676 149.032 69.952 149.032 69.096C149.032 68.24 149.304 67.52 149.848 66.936C150.392 66.352 151.112 66.06 152.008 66.06C152.912 66.06 153.636 66.352 154.18 66.936C154.724 67.52 154.996 68.24 154.996 69.096C154.996 69.96 154.724 70.684 154.18 71.268C153.636 71.852 152.912 72.144 152.008 72.144ZM152.008 71.028C152.528 71.028 152.936 70.844 153.232 70.476C153.536 70.1 153.688 69.64 153.688 69.096C153.688 68.56 153.536 68.108 153.232 67.74C152.936 67.364 152.528 67.176 152.008 67.176C151.496 67.176 151.088 67.364 150.784 67.74C150.488 68.108 150.34 68.56 150.34 69.096C150.34 69.64 150.488 70.1 150.784 70.476C151.088 70.844 151.496 71.028 152.008 71.028ZM164.659 72H163.399V68.22C163.399 67.524 163.083 67.176 162.451 67.176C162.187 67.176 161.931 67.252 161.683 67.404C161.435 67.556 161.243 67.736 161.107 67.944V72H159.847V68.22C159.847 67.524 159.527 67.176 158.887 67.176C158.631 67.176 158.379 67.252 158.131 67.404C157.891 67.556 157.699 67.74 157.555 67.956V72H156.295V66.204H157.555V66.996C157.699 66.78 157.947 66.572 158.299 66.372C158.659 66.164 159.039 66.06 159.439 66.06C160.279 66.06 160.807 66.416 161.023 67.128C161.207 66.84 161.479 66.592 161.839 66.384C162.199 66.168 162.583 66.06 162.991 66.06C164.103 66.06 164.659 66.644 164.659 67.812V72ZM165.955 69.096C165.955 68.248 166.231 67.532 166.783 66.948C167.343 66.356 168.047 66.06 168.895 66.06C169.751 66.06 170.439 66.356 170.959 66.948C171.487 67.54 171.751 68.296 171.751 69.216V69.516H167.275C167.323 69.972 167.511 70.352 167.839 70.656C168.167 70.96 168.595 71.112 169.123 71.112C169.419 71.112 169.715 71.056 170.011 70.944C170.315 70.832 170.567 70.676 170.767 70.476L171.343 71.304C170.759 71.864 169.975 72.144 168.991 72.144C168.111 72.144 167.383 71.864 166.807 71.304C166.239 70.736 165.955 70 165.955 69.096ZM168.895 67.092C168.399 67.092 168.011 67.248 167.731 67.56C167.451 67.864 167.295 68.22 167.263 68.628H170.527C170.511 68.228 170.363 67.872 170.083 67.56C169.811 67.248 169.415 67.092 168.895 67.092ZM174.279 72H173.019V66.204H174.279V67.056C174.503 66.768 174.783 66.532 175.119 66.348C175.455 66.164 175.803 66.072 176.163 66.072V67.32C176.051 67.296 175.919 67.284 175.767 67.284C175.503 67.284 175.219 67.364 174.915 67.524C174.619 67.676 174.407 67.852 174.279 68.052V72ZM183.321 72H180.345V63.996H183.321C184.561 63.996 185.569 64.368 186.345 65.112C187.121 65.856 187.509 66.82 187.509 68.004C187.509 69.18 187.121 70.14 186.345 70.884C185.577 71.628 184.569 72 183.321 72ZM181.749 65.232V70.764H183.321C184.161 70.764 184.829 70.5 185.325 69.972C185.821 69.444 186.069 68.788 186.069 68.004C186.069 67.196 185.825 66.532 185.337 66.012C184.857 65.492 184.185 65.232 183.321 65.232H181.749ZM189.477 65.244C189.269 65.244 189.085 65.168 188.925 65.016C188.773 64.864 188.697 64.68 188.697 64.464C188.697 64.248 188.773 64.064 188.925 63.912C189.085 63.76 189.269 63.684 189.477 63.684C189.693 63.684 189.877 63.76 190.029 63.912C190.181 64.064 190.257 64.248 190.257 64.464C190.257 64.68 190.181 64.864 190.029 65.016C189.877 65.168 189.693 65.244 189.477 65.244ZM190.113 72H188.853V66.204H190.113V72ZM193.031 72H191.771V66.204H193.031V67.056C193.255 66.768 193.535 66.532 193.871 66.348C194.207 66.164 194.555 66.072 194.915 66.072V67.32C194.803 67.296 194.671 67.284 194.519 67.284C194.255 67.284 193.971 67.364 193.667 67.524C193.371 67.676 193.159 67.852 193.031 68.052V72ZM195.596 69.096C195.596 68.248 195.872 67.532 196.424 66.948C196.984 66.356 197.688 66.06 198.536 66.06C199.392 66.06 200.08 66.356 200.6 66.948C201.128 67.54 201.392 68.296 201.392 69.216V69.516H196.916C196.964 69.972 197.152 70.352 197.48 70.656C197.808 70.96 198.236 71.112 198.764 71.112C199.06 71.112 199.356 71.056 199.652 70.944C199.956 70.832 200.208 70.676 200.408 70.476L200.984 71.304C200.4 71.864 199.616 72.144 198.632 72.144C197.752 72.144 197.024 71.864 196.448 71.304C195.88 70.736 195.596 70 195.596 69.096ZM198.536 67.092C198.04 67.092 197.652 67.248 197.372 67.56C197.092 67.864 196.936 68.22 196.904 68.628H200.168C200.152 68.228 200.004 67.872 199.724 67.56C199.452 67.248 199.056 67.092 198.536 67.092ZM202.299 69.096C202.299 68.216 202.579 67.492 203.139 66.924C203.699 66.348 204.419 66.06 205.299 66.06C206.267 66.06 207.007 66.404 207.519 67.092L206.691 67.86C206.371 67.404 205.927 67.176 205.359 67.176C204.831 67.176 204.407 67.356 204.087 67.716C203.767 68.068 203.607 68.528 203.607 69.096C203.607 69.664 203.767 70.128 204.087 70.488C204.407 70.848 204.831 71.028 205.359 71.028C205.911 71.028 206.355 70.8 206.691 70.344L207.519 71.112C207.007 71.8 206.267 72.144 205.299 72.144C204.419 72.144 203.699 71.86 203.139 71.292C202.579 70.716 202.299 69.984 202.299 69.096ZM210.388 72.144C209.9 72.144 209.528 72.016 209.272 71.76C209.024 71.504 208.9 71.136 208.9 70.656V67.308H207.94V66.204H208.9V64.62H210.16V66.204H211.336V67.308H210.16V70.344C210.16 70.552 210.208 70.72 210.304 70.848C210.4 70.968 210.536 71.028 210.712 71.028C210.968 71.028 211.156 70.96 211.276 70.824L211.576 71.772C211.312 72.02 210.916 72.144 210.388 72.144ZM215.12 72.144C214.224 72.144 213.504 71.852 212.96 71.268C212.416 70.676 212.144 69.952 212.144 69.096C212.144 68.24 212.416 67.52 212.96 66.936C213.504 66.352 214.224 66.06 215.12 66.06C216.024 66.06 216.748 66.352 217.292 66.936C217.836 67.52 218.108 68.24 218.108 69.096C218.108 69.96 217.836 70.684 217.292 71.268C216.748 71.852 216.024 72.144 215.12 72.144ZM215.12 71.028C215.64 71.028 216.048 70.844 216.344 70.476C216.648 70.1 216.8 69.64 216.8 69.096C216.8 68.56 216.648 68.108 216.344 67.74C216.048 67.364 215.64 67.176 215.12 67.176C214.608 67.176 214.2 67.364 213.896 67.74C213.6 68.108 213.452 68.56 213.452 69.096C213.452 69.64 213.6 70.1 213.896 70.476C214.2 70.844 214.608 71.028 215.12 71.028ZM220.667 72H219.407V66.204H220.667V67.056C220.891 66.768 221.171 66.532 221.507 66.348C221.843 66.164 222.191 66.072 222.551 66.072V67.32C222.439 67.296 222.307 67.284 222.155 67.284C221.891 67.284 221.607 67.364 221.303 67.524C221.007 67.676 220.795 67.852 220.667 68.052V72ZM223.339 74.268L223.531 73.14C223.675 73.204 223.835 73.236 224.011 73.236C224.419 73.236 224.695 73.068 224.839 72.732L225.127 72.072L222.751 66.204H224.095L225.787 70.548L227.479 66.204H228.835L226.039 73.044C225.695 73.9 225.031 74.336 224.047 74.352C223.783 74.352 223.547 74.324 223.339 74.268Z" fill="#3E7880"/>
<path d="M241 70.1664C240.934 70.1668 240.869 70.1539 240.808 70.1288C240.748 70.1036 240.693 70.0665 240.647 70.0198L237.313 66.6864C237.247 66.5892 237.217 66.4716 237.229 66.3543C237.24 66.2371 237.293 66.1278 237.378 66.0457C237.462 65.9636 237.573 65.914 237.69 65.9056C237.808 65.8972 237.925 65.9305 238.02 65.9998L241 68.9598L243.98 65.9998C244.074 65.9389 244.186 65.9112 244.297 65.9214C244.409 65.9315 244.514 65.9788 244.595 66.0556C244.677 66.1325 244.73 66.2345 244.746 66.3452C244.763 66.456 244.742 66.5691 244.687 66.6664L241.353 69.9998C241.309 70.0502 241.255 70.0909 241.194 70.1196C241.133 70.1482 241.067 70.1642 241 70.1664Z" fill="#26514C"/>
<path d="M40.136 100H39.056L37.292 93.544L35.528 100H34.448L32.168 91.996H33.272L35.048 98.668L36.884 91.996H37.712L39.548 98.668L41.312 91.996H42.416L40.136 100ZM48.3418 100H47.4418V96.184C47.4418 95.704 47.3298 95.364 47.1058 95.164C46.8818 94.964 46.5578 94.864 46.1338 94.864C45.8058 94.864 45.4818 94.952 45.1618 95.128C44.8498 95.304 44.6018 95.516 44.4178 95.764V100H43.5178V91.996H44.4178V95.044C44.6418 94.78 44.9418 94.552 45.3178 94.36C45.6938 94.16 46.0858 94.06 46.4938 94.06C47.7258 94.06 48.3418 94.676 48.3418 95.908V100ZM49.8268 97.096C49.8268 96.248 50.0988 95.532 50.6428 94.948C51.1868 94.356 51.8668 94.06 52.6828 94.06C53.5388 94.06 54.2148 94.356 54.7108 94.948C55.2148 95.532 55.4668 96.272 55.4668 97.168V97.396H50.7748C50.8148 97.964 51.0228 98.44 51.3988 98.824C51.7748 99.208 52.2628 99.4 52.8628 99.4C53.5828 99.4 54.1788 99.156 54.6508 98.668L55.0828 99.256C54.4908 99.848 53.7228 100.144 52.7788 100.144C51.9148 100.144 51.2068 99.864 50.6548 99.304C50.1028 98.736 49.8268 98 49.8268 97.096ZM52.6708 94.804C52.0948 94.804 51.6388 95 51.3028 95.392C50.9748 95.784 50.7988 96.232 50.7748 96.736H54.5788C54.5708 96.24 54.4028 95.796 54.0748 95.404C53.7468 95.004 53.2788 94.804 52.6708 94.804ZM57.8486 100H56.9486V94.204H57.8486V95.14C58.3846 94.436 59.0286 94.084 59.7806 94.084V95.008C59.6686 94.984 59.5486 94.972 59.4206 94.972C59.1486 94.972 58.8526 95.068 58.5326 95.26C58.2126 95.452 57.9846 95.664 57.8486 95.896V100ZM60.5975 97.096C60.5975 96.248 60.8695 95.532 61.4135 94.948C61.9575 94.356 62.6375 94.06 63.4535 94.06C64.3095 94.06 64.9855 94.356 65.4815 94.948C65.9855 95.532 66.2375 96.272 66.2375 97.168V97.396H61.5455C61.5855 97.964 61.7935 98.44 62.1695 98.824C62.5455 99.208 63.0335 99.4 63.6335 99.4C64.3535 99.4 64.9495 99.156 65.4215 98.668L65.8535 99.256C65.2615 99.848 64.4935 100.144 63.5495 100.144C62.6855 100.144 61.9775 99.864 61.4255 99.304C60.8735 98.736 60.5975 98 60.5975 97.096ZM63.4415 94.804C62.8655 94.804 62.4095 95 62.0735 95.392C61.7455 95.784 61.5695 96.232 61.5455 96.736H65.3495C65.3415 96.24 65.1735 95.796 64.8455 95.404C64.5175 95.004 64.0495 94.804 63.4415 94.804Z" fill="#7D8393"/>
<path d="M79.256 100H77.852V91.996H81.368C82.176 91.996 82.812 92.236 83.276 92.716C83.748 93.196 83.984 93.792 83.984 94.504C83.984 95.208 83.748 95.804 83.276 96.292C82.812 96.772 82.176 97.012 81.368 97.012H79.256V100ZM82.16 95.428C82.416 95.196 82.544 94.888 82.544 94.504C82.544 94.12 82.416 93.812 82.16 93.58C81.904 93.348 81.576 93.232 81.176 93.232H79.256V95.776H81.176C81.576 95.776 81.904 95.66 82.16 95.428ZM90.3128 100H89.0528V99.232C88.5088 99.84 87.8248 100.144 87.0008 100.144C85.7608 100.144 85.1408 99.532 85.1408 98.308V94.204H86.4008V97.852C86.4008 98.276 86.5008 98.58 86.7008 98.764C86.9008 98.94 87.1888 99.028 87.5648 99.028C87.8688 99.028 88.1528 98.956 88.4168 98.812C88.6808 98.668 88.8928 98.488 89.0528 98.272V94.204H90.3128V100ZM93.2334 100H91.9734V94.204H93.2334V95.056C93.4574 94.768 93.7374 94.532 94.0734 94.348C94.4094 94.164 94.7574 94.072 95.1174 94.072V95.32C95.0054 95.296 94.8734 95.284 94.7214 95.284C94.4574 95.284 94.1734 95.364 93.8694 95.524C93.5734 95.676 93.3614 95.852 93.2334 96.052V100ZM95.7975 97.096C95.7975 96.216 96.0775 95.492 96.6375 94.924C97.1975 94.348 97.9175 94.06 98.7975 94.06C99.7655 94.06 100.506 94.404 101.018 95.092L100.19 95.86C99.8695 95.404 99.4255 95.176 98.8575 95.176C98.3295 95.176 97.9055 95.356 97.5855 95.716C97.2655 96.068 97.1055 96.528 97.1055 97.096C97.1055 97.664 97.2655 98.128 97.5855 98.488C97.9055 98.848 98.3295 99.028 98.8575 99.028C99.4095 99.028 99.8535 98.8 100.19 98.344L101.018 99.112C100.506 99.8 99.7655 100.144 98.7975 100.144C97.9175 100.144 97.1975 99.86 96.6375 99.292C96.0775 98.716 95.7975 97.984 95.7975 97.096ZM107.33 100H106.07V96.352C106.07 95.928 105.966 95.628 105.758 95.452C105.558 95.268 105.27 95.176 104.894 95.176C104.598 95.176 104.318 95.252 104.054 95.404C103.79 95.556 103.574 95.74 103.406 95.956V100H102.146V91.996H103.406V94.996C103.622 94.74 103.91 94.52 104.27 94.336C104.638 94.152 105.034 94.06 105.458 94.06C106.706 94.06 107.33 94.672 107.33 95.896V100ZM113.791 100H112.531V99.376C112.083 99.888 111.459 100.144 110.659 100.144C110.131 100.144 109.663 99.976 109.255 99.64C108.847 99.296 108.643 98.824 108.643 98.224C108.643 97.608 108.843 97.14 109.243 96.82C109.651 96.5 110.123 96.34 110.659 96.34C111.483 96.34 112.107 96.588 112.531 97.084V96.22C112.531 95.884 112.407 95.62 112.159 95.428C111.911 95.236 111.583 95.14 111.175 95.14C110.527 95.14 109.955 95.384 109.459 95.872L108.943 94.996C109.599 94.372 110.411 94.06 111.379 94.06C112.091 94.06 112.671 94.228 113.119 94.564C113.567 94.9 113.791 95.432 113.791 96.16V100ZM112.531 98.68V97.804C112.243 97.404 111.783 97.204 111.151 97.204C110.791 97.204 110.495 97.3 110.263 97.492C110.031 97.684 109.915 97.936 109.915 98.248C109.915 98.56 110.031 98.812 110.263 99.004C110.495 99.188 110.791 99.28 111.151 99.28C111.783 99.28 112.243 99.08 112.531 98.68ZM114.944 99.244L115.52 98.332C115.736 98.556 116.028 98.748 116.396 98.908C116.764 99.068 117.128 99.148 117.488 99.148C117.856 99.148 118.136 99.088 118.328 98.968C118.528 98.84 118.628 98.664 118.628 98.44C118.628 98.208 118.516 98.036 118.292 97.924C118.068 97.804 117.74 97.696 117.308 97.6C117.044 97.544 116.836 97.496 116.684 97.456C116.54 97.416 116.352 97.352 116.12 97.264C115.888 97.168 115.712 97.064 115.592 96.952C115.472 96.832 115.364 96.676 115.268 96.484C115.172 96.292 115.124 96.072 115.124 95.824C115.124 95.328 115.328 94.912 115.736 94.576C116.144 94.232 116.7 94.06 117.404 94.06C118.292 94.06 119.044 94.332 119.66 94.876L119.132 95.764C118.948 95.556 118.704 95.388 118.4 95.26C118.096 95.132 117.768 95.068 117.416 95.068C117.08 95.068 116.816 95.128 116.624 95.248C116.432 95.36 116.336 95.516 116.336 95.716C116.336 95.916 116.44 96.068 116.648 96.172C116.856 96.276 117.172 96.376 117.596 96.472C117.86 96.528 118.068 96.576 118.22 96.616C118.38 96.656 118.576 96.728 118.808 96.832C119.04 96.928 119.22 97.036 119.348 97.156C119.476 97.276 119.588 97.44 119.684 97.648C119.788 97.848 119.84 98.08 119.84 98.344C119.84 98.872 119.628 99.304 119.204 99.64C118.78 99.976 118.188 100.144 117.428 100.144C116.388 100.144 115.56 99.844 114.944 99.244ZM120.772 97.096C120.772 96.248 121.048 95.532 121.6 94.948C122.16 94.356 122.864 94.06 123.712 94.06C124.568 94.06 125.256 94.356 125.776 94.948C126.304 95.54 126.568 96.296 126.568 97.216V97.516H122.092C122.14 97.972 122.328 98.352 122.656 98.656C122.984 98.96 123.412 99.112 123.94 99.112C124.236 99.112 124.532 99.056 124.828 98.944C125.132 98.832 125.384 98.676 125.584 98.476L126.16 99.304C125.576 99.864 124.792 100.144 123.808 100.144C122.928 100.144 122.2 99.864 121.624 99.304C121.056 98.736 120.772 98 120.772 97.096ZM123.712 95.092C123.216 95.092 122.828 95.248 122.548 95.56C122.268 95.864 122.112 96.22 122.08 96.628H125.344C125.328 96.228 125.18 95.872 124.9 95.56C124.628 95.248 124.232 95.092 123.712 95.092ZM127.332 99.244L127.908 98.332C128.124 98.556 128.416 98.748 128.784 98.908C129.152 99.068 129.516 99.148 129.876 99.148C130.244 99.148 130.524 99.088 130.716 98.968C130.916 98.84 131.016 98.664 131.016 98.44C131.016 98.208 130.904 98.036 130.68 97.924C130.456 97.804 130.128 97.696 129.696 97.6C129.432 97.544 129.224 97.496 129.072 97.456C128.928 97.416 128.74 97.352 128.508 97.264C128.276 97.168 128.1 97.064 127.98 96.952C127.86 96.832 127.752 96.676 127.656 96.484C127.56 96.292 127.512 96.072 127.512 95.824C127.512 95.328 127.716 94.912 128.124 94.576C128.532 94.232 129.088 94.06 129.792 94.06C130.68 94.06 131.432 94.332 132.048 94.876L131.52 95.764C131.336 95.556 131.092 95.388 130.788 95.26C130.484 95.132 130.156 95.068 129.804 95.068C129.468 95.068 129.204 95.128 129.012 95.248C128.82 95.36 128.724 95.516 128.724 95.716C128.724 95.916 128.828 96.068 129.036 96.172C129.244 96.276 129.56 96.376 129.984 96.472C130.248 96.528 130.456 96.576 130.608 96.616C130.768 96.656 130.964 96.728 131.196 96.832C131.428 96.928 131.608 97.036 131.736 97.156C131.864 97.276 131.976 97.44 132.072 97.648C132.176 97.848 132.228 98.08 132.228 98.344C132.228 98.872 132.016 99.304 131.592 99.64C131.168 99.976 130.576 100.144 129.816 100.144C128.776 100.144 127.948 99.844 127.332 99.244Z" fill="#3E7880"/>
<path d="M145 98.1664C144.934 98.1668 144.869 98.1539 144.808 98.1288C144.748 98.1036 144.693 98.0665 144.647 98.0198L141.313 94.6864C141.247 94.5892 141.217 94.4716 141.229 94.3543C141.24 94.2371 141.293 94.1278 141.378 94.0457C141.462 93.9636 141.573 93.914 141.69 93.9056C141.808 93.8972 141.925 93.9305 142.02 93.9998L145 96.9598L147.98 93.9998C148.074 93.9389 148.186 93.9112 148.297 93.9214C148.409 93.9315 148.514 93.9788 148.595 94.0556C148.677 94.1325 148.73 94.2345 148.746 94.3452C148.763 94.456 148.742 94.5691 148.687 94.6664L145.353 97.9998C145.309 98.0502 145.255 98.0909 145.194 98.1196C145.133 98.1482 145.067 98.1642 145 98.1664Z" fill="#26514C"/>
<path d="M168.788 100H167.684L166.976 98.224H162.92L162.212 100H161.108L164.324 91.996H165.56L168.788 100ZM166.676 97.336L164.948 92.884L163.208 97.336H166.676ZM171.158 100.144C170.734 100.144 170.414 100.028 170.198 99.796C169.982 99.564 169.874 99.228 169.874 98.788V94.996H168.914V94.204H169.874V92.62H170.774V94.204H171.95V94.996H170.774V98.596C170.774 98.82 170.822 99 170.918 99.136C171.022 99.272 171.17 99.34 171.362 99.34C171.626 99.34 171.83 99.26 171.974 99.1L172.238 99.772C171.974 100.02 171.614 100.144 171.158 100.144ZM174.709 100.144C174.285 100.144 173.965 100.028 173.749 99.796C173.533 99.564 173.425 99.228 173.425 98.788V94.996H172.465V94.204H173.425V92.62H174.325V94.204H175.501V94.996H174.325V98.596C174.325 98.82 174.373 99 174.469 99.136C174.573 99.272 174.721 99.34 174.913 99.34C175.177 99.34 175.381 99.26 175.525 99.1L175.789 99.772C175.525 100.02 175.165 100.144 174.709 100.144ZM177.696 100H176.796V94.204H177.696V95.14C178.232 94.436 178.876 94.084 179.628 94.084V95.008C179.516 94.984 179.396 94.972 179.268 94.972C178.996 94.972 178.7 95.068 178.38 95.26C178.06 95.452 177.832 95.664 177.696 95.896V100ZM181.225 93.232C181.065 93.232 180.925 93.172 180.805 93.052C180.685 92.932 180.625 92.788 180.625 92.62C180.625 92.452 180.685 92.312 180.805 92.2C180.925 92.08 181.065 92.02 181.225 92.02C181.393 92.02 181.537 92.08 181.657 92.2C181.777 92.312 181.837 92.452 181.837 92.62C181.837 92.788 181.777 92.932 181.657 93.052C181.537 93.172 181.393 93.232 181.225 93.232ZM181.681 100H180.781V94.204H181.681V100ZM184.4 100H183.5V91.996H184.4V95.08C184.904 94.4 185.556 94.06 186.356 94.06C187.116 94.06 187.736 94.34 188.216 94.9C188.696 95.452 188.936 96.188 188.936 97.108C188.936 98.036 188.696 98.776 188.216 99.328C187.744 99.872 187.124 100.144 186.356 100.144C185.548 100.144 184.896 99.808 184.4 99.136V100ZM184.4 95.8V98.428C184.56 98.684 184.8 98.9 185.12 99.076C185.448 99.252 185.784 99.34 186.128 99.34C186.704 99.34 187.16 99.132 187.496 98.716C187.832 98.3 188 97.764 188 97.108C188 96.452 187.832 95.916 187.496 95.5C187.16 95.076 186.704 94.864 186.128 94.864C185.784 94.864 185.448 94.956 185.12 95.14C184.8 95.316 184.56 95.536 184.4 95.8ZM195.239 100H194.339V99.184C194.099 99.456 193.795 99.684 193.427 99.868C193.067 100.052 192.683 100.144 192.275 100.144C191.043 100.144 190.427 99.528 190.427 98.296V94.204H191.327V98.02C191.327 98.5 191.435 98.84 191.651 99.04C191.875 99.24 192.199 99.34 192.623 99.34C192.959 99.34 193.283 99.256 193.595 99.088C193.915 98.92 194.163 98.712 194.339 98.464V94.204H195.239V100ZM198.524 100.144C198.1 100.144 197.78 100.028 197.564 99.796C197.348 99.564 197.24 99.228 197.24 98.788V94.996H196.28V94.204H197.24V92.62H198.14V94.204H199.316V94.996H198.14V98.596C198.14 98.82 198.188 99 198.284 99.136C198.388 99.272 198.536 99.34 198.728 99.34C198.992 99.34 199.196 99.26 199.34 99.1L199.604 99.772C199.34 100.02 198.98 100.144 198.524 100.144ZM200.276 97.096C200.276 96.248 200.548 95.532 201.092 94.948C201.636 94.356 202.316 94.06 203.132 94.06C203.988 94.06 204.664 94.356 205.16 94.948C205.664 95.532 205.916 96.272 205.916 97.168V97.396H201.224C201.264 97.964 201.472 98.44 201.848 98.824C202.224 99.208 202.712 99.4 203.312 99.4C204.032 99.4 204.628 99.156 205.1 98.668L205.532 99.256C204.94 99.848 204.172 100.144 203.228 100.144C202.364 100.144 201.656 99.864 201.104 99.304C200.552 98.736 200.276 98 200.276 97.096ZM203.12 94.804C202.544 94.804 202.088 95 201.752 95.392C201.424 95.784 201.248 96.232 201.224 96.736H205.028C205.02 96.24 204.852 95.796 204.524 95.404C204.196 95.004 203.728 94.804 203.12 94.804ZM206.893 99.232L207.361 98.584C207.561 98.816 207.833 99.012 208.177 99.172C208.529 99.332 208.893 99.412 209.269 99.412C209.701 99.412 210.037 99.324 210.277 99.148C210.517 98.972 210.637 98.74 210.637 98.452C210.637 98.3 210.597 98.168 210.517 98.056C210.445 97.944 210.329 97.848 210.169 97.768C210.009 97.688 209.857 97.624 209.713 97.576C209.577 97.528 209.389 97.476 209.149 97.42C208.885 97.356 208.681 97.308 208.537 97.276C208.401 97.236 208.221 97.172 207.997 97.084C207.773 96.988 207.605 96.888 207.493 96.784C207.381 96.672 207.277 96.528 207.181 96.352C207.093 96.168 207.049 95.96 207.049 95.728C207.049 95.256 207.241 94.86 207.625 94.54C208.017 94.22 208.545 94.06 209.209 94.06C210.081 94.06 210.797 94.34 211.357 94.9L210.937 95.524C210.529 95.036 209.953 94.792 209.209 94.792C208.817 94.792 208.505 94.872 208.273 95.032C208.041 95.192 207.925 95.404 207.925 95.668C207.925 95.924 208.041 96.116 208.273 96.244C208.513 96.364 208.869 96.48 209.341 96.592C209.605 96.648 209.813 96.7 209.965 96.748C210.117 96.788 210.305 96.856 210.529 96.952C210.753 97.048 210.925 97.156 211.045 97.276C211.173 97.388 211.281 97.54 211.369 97.732C211.465 97.924 211.513 98.144 211.513 98.392C211.513 98.904 211.313 99.324 210.913 99.652C210.513 99.98 209.953 100.144 209.233 100.144C208.249 100.144 207.469 99.84 206.893 99.232Z" fill="#7D8393"/>
<path d="M225.256 100H223.852V91.996H227.368C228.176 91.996 228.812 92.236 229.276 92.716C229.748 93.196 229.984 93.792 229.984 94.504C229.984 95.208 229.748 95.804 229.276 96.292C228.812 96.772 228.176 97.012 227.368 97.012H225.256V100ZM228.16 95.428C228.416 95.196 228.544 94.888 228.544 94.504C228.544 94.12 228.416 93.812 228.16 93.58C227.904 93.348 227.576 93.232 227.176 93.232H225.256V95.776H227.176C227.576 95.776 227.904 95.66 228.16 95.428ZM236.313 100H235.053V99.232C234.509 99.84 233.825 100.144 233.001 100.144C231.761 100.144 231.141 99.532 231.141 98.308V94.204H232.401V97.852C232.401 98.276 232.501 98.58 232.701 98.764C232.901 98.94 233.189 99.028 233.565 99.028C233.869 99.028 234.153 98.956 234.417 98.812C234.681 98.668 234.893 98.488 235.053 98.272V94.204H236.313V100ZM239.233 100H237.973V94.204H239.233V95.056C239.457 94.768 239.737 94.532 240.073 94.348C240.409 94.164 240.757 94.072 241.117 94.072V95.32C241.005 95.296 240.873 95.284 240.721 95.284C240.457 95.284 240.173 95.364 239.869 95.524C239.573 95.676 239.361 95.852 239.233 96.052V100ZM241.798 97.096C241.798 96.216 242.078 95.492 242.638 94.924C243.198 94.348 243.918 94.06 244.798 94.06C245.766 94.06 246.506 94.404 247.018 95.092L246.19 95.86C245.87 95.404 245.426 95.176 244.858 95.176C244.33 95.176 243.906 95.356 243.586 95.716C243.266 96.068 243.106 96.528 243.106 97.096C243.106 97.664 243.266 98.128 243.586 98.488C243.906 98.848 244.33 99.028 244.858 99.028C245.41 99.028 245.854 98.8 246.19 98.344L247.018 99.112C246.506 99.8 245.766 100.144 244.798 100.144C243.918 100.144 243.198 99.86 242.638 99.292C242.078 98.716 241.798 97.984 241.798 97.096ZM253.33 100H252.07V96.352C252.07 95.928 251.966 95.628 251.758 95.452C251.558 95.268 251.27 95.176 250.894 95.176C250.598 95.176 250.318 95.252 250.054 95.404C249.79 95.556 249.574 95.74 249.406 95.956V100H248.146V91.996H249.406V94.996C249.622 94.74 249.91 94.52 250.27 94.336C250.638 94.152 251.034 94.06 251.458 94.06C252.706 94.06 253.33 94.672 253.33 95.896V100ZM259.791 100H258.531V99.376C258.083 99.888 257.459 100.144 256.659 100.144C256.131 100.144 255.663 99.976 255.255 99.64C254.847 99.296 254.643 98.824 254.643 98.224C254.643 97.608 254.843 97.14 255.243 96.82C255.651 96.5 256.123 96.34 256.659 96.34C257.483 96.34 258.107 96.588 258.531 97.084V96.22C258.531 95.884 258.407 95.62 258.159 95.428C257.911 95.236 257.583 95.14 257.175 95.14C256.527 95.14 255.955 95.384 255.459 95.872L254.943 94.996C255.599 94.372 256.411 94.06 257.379 94.06C258.091 94.06 258.671 94.228 259.119 94.564C259.567 94.9 259.791 95.432 259.791 96.16V100ZM258.531 98.68V97.804C258.243 97.404 257.783 97.204 257.151 97.204C256.791 97.204 256.495 97.3 256.263 97.492C256.031 97.684 255.915 97.936 255.915 98.248C255.915 98.56 256.031 98.812 256.263 99.004C256.495 99.188 256.791 99.28 257.151 99.28C257.783 99.28 258.243 99.08 258.531 98.68ZM260.944 99.244L261.52 98.332C261.736 98.556 262.028 98.748 262.396 98.908C262.764 99.068 263.128 99.148 263.488 99.148C263.856 99.148 264.136 99.088 264.328 98.968C264.528 98.84 264.628 98.664 264.628 98.44C264.628 98.208 264.516 98.036 264.292 97.924C264.068 97.804 263.74 97.696 263.308 97.6C263.044 97.544 262.836 97.496 262.684 97.456C262.54 97.416 262.352 97.352 262.12 97.264C261.888 97.168 261.712 97.064 261.592 96.952C261.472 96.832 261.364 96.676 261.268 96.484C261.172 96.292 261.124 96.072 261.124 95.824C261.124 95.328 261.328 94.912 261.736 94.576C262.144 94.232 262.7 94.06 263.404 94.06C264.292 94.06 265.044 94.332 265.66 94.876L265.132 95.764C264.948 95.556 264.704 95.388 264.4 95.26C264.096 95.132 263.768 95.068 263.416 95.068C263.08 95.068 262.816 95.128 262.624 95.248C262.432 95.36 262.336 95.516 262.336 95.716C262.336 95.916 262.44 96.068 262.648 96.172C262.856 96.276 263.172 96.376 263.596 96.472C263.86 96.528 264.068 96.576 264.22 96.616C264.38 96.656 264.576 96.728 264.808 96.832C265.04 96.928 265.22 97.036 265.348 97.156C265.476 97.276 265.588 97.44 265.684 97.648C265.788 97.848 265.84 98.08 265.84 98.344C265.84 98.872 265.628 99.304 265.204 99.64C264.78 99.976 264.188 100.144 263.428 100.144C262.388 100.144 261.56 99.844 260.944 99.244ZM266.772 97.096C266.772 96.248 267.048 95.532 267.6 94.948C268.16 94.356 268.864 94.06 269.712 94.06C270.568 94.06 271.256 94.356 271.776 94.948C272.304 95.54 272.568 96.296 272.568 97.216V97.516H268.092C268.14 97.972 268.328 98.352 268.656 98.656C268.984 98.96 269.412 99.112 269.94 99.112C270.236 99.112 270.532 99.056 270.828 98.944C271.132 98.832 271.384 98.676 271.584 98.476L272.16 99.304C271.576 99.864 270.792 100.144 269.808 100.144C268.928 100.144 268.2 99.864 267.624 99.304C267.056 98.736 266.772 98 266.772 97.096ZM269.712 95.092C269.216 95.092 268.828 95.248 268.548 95.56C268.268 95.864 268.112 96.22 268.08 96.628H271.344C271.328 96.228 271.18 95.872 270.9 95.56C270.628 95.248 270.232 95.092 269.712 95.092ZM279.954 100H276.978V91.996H279.954C281.194 91.996 282.202 92.368 282.978 93.112C283.754 93.856 284.142 94.82 284.142 96.004C284.142 97.18 283.754 98.14 282.978 98.884C282.21 99.628 281.202 100 279.954 100ZM278.382 93.232V98.764H279.954C280.794 98.764 281.462 98.5 281.958 97.972C282.454 97.444 282.702 96.788 282.702 96.004C282.702 95.196 282.458 94.532 281.97 94.012C281.49 93.492 280.818 93.232 279.954 93.232H278.382ZM290.286 100H289.026V99.376C288.578 99.888 287.954 100.144 287.154 100.144C286.626 100.144 286.158 99.976 285.75 99.64C285.342 99.296 285.138 98.824 285.138 98.224C285.138 97.608 285.338 97.14 285.738 96.82C286.146 96.5 286.618 96.34 287.154 96.34C287.978 96.34 288.602 96.588 289.026 97.084V96.22C289.026 95.884 288.902 95.62 288.654 95.428C288.406 95.236 288.078 95.14 287.67 95.14C287.022 95.14 286.45 95.384 285.954 95.872L285.438 94.996C286.094 94.372 286.906 94.06 287.874 94.06C288.586 94.06 289.166 94.228 289.614 94.564C290.062 94.9 290.286 95.432 290.286 96.16V100ZM289.026 98.68V97.804C288.738 97.404 288.278 97.204 287.646 97.204C287.286 97.204 286.99 97.3 286.758 97.492C286.526 97.684 286.41 97.936 286.41 98.248C286.41 98.56 286.526 98.812 286.758 99.004C286.99 99.188 287.286 99.28 287.646 99.28C288.278 99.28 288.738 99.08 289.026 98.68ZM293.683 100.144C293.195 100.144 292.823 100.016 292.567 99.76C292.319 99.504 292.195 99.136 292.195 98.656V95.308H291.235V94.204H292.195V92.62H293.455V94.204H294.631V95.308H293.455V98.344C293.455 98.552 293.503 98.72 293.599 98.848C293.695 98.968 293.831 99.028 294.007 99.028C294.263 99.028 294.451 98.96 294.571 98.824L294.871 99.772C294.607 100.02 294.211 100.144 293.683 100.144ZM295.439 97.096C295.439 96.248 295.715 95.532 296.267 94.948C296.827 94.356 297.531 94.06 298.379 94.06C299.235 94.06 299.923 94.356 300.443 94.948C300.971 95.54 301.235 96.296 301.235 97.216V97.516H296.759C296.807 97.972 296.995 98.352 297.323 98.656C297.651 98.96 298.079 99.112 298.607 99.112C298.903 99.112 299.199 99.056 299.495 98.944C299.799 98.832 300.051 98.676 300.251 98.476L300.827 99.304C300.243 99.864 299.459 100.144 298.475 100.144C297.595 100.144 296.867 99.864 296.291 99.304C295.723 98.736 295.439 98 295.439 97.096ZM298.379 95.092C297.883 95.092 297.495 95.248 297.215 95.56C296.935 95.864 296.779 96.22 296.747 96.628H300.011C299.995 96.228 299.847 95.872 299.567 95.56C299.295 95.248 298.899 95.092 298.379 95.092Z" fill="#3E7880"/>
<path d="M314 98.1664C313.934 98.1668 313.869 98.1539 313.808 98.1288C313.748 98.1036 313.693 98.0665 313.647 98.0198L310.313 94.6864C310.247 94.5892 310.217 94.4716 310.229 94.3543C310.24 94.2371 310.293 94.1278 310.378 94.0457C310.462 93.9636 310.573 93.914 310.69 93.9056C310.808 93.8972 310.925 93.9305 311.02 93.9998L314 96.9598L316.98 93.9998C317.074 93.9389 317.186 93.9112 317.297 93.9214C317.409 93.9315 317.514 93.9788 317.595 94.0556C317.677 94.1325 317.73 94.2345 317.746 94.3452C317.763 94.456 317.742 94.5691 317.687 94.6664L314.353 97.9998C314.309 98.0502 314.255 98.0909 314.194 98.1196C314.133 98.1482 314.067 98.1642 314 98.1664Z" fill="#26514C"/>
<path d="M33.344 121.232C33.184 121.232 33.044 121.172 32.924 121.052C32.804 120.932 32.744 120.788 32.744 120.62C32.744 120.452 32.804 120.312 32.924 120.2C33.044 120.08 33.184 120.02 33.344 120.02C33.512 120.02 33.656 120.08 33.776 120.2C33.896 120.312 33.956 120.452 33.956 120.62C33.956 120.788 33.896 120.932 33.776 121.052C33.656 121.172 33.512 121.232 33.344 121.232ZM33.8 128H32.9V122.204H33.8V128ZM35.1153 127.232L35.5833 126.584C35.7833 126.816 36.0553 127.012 36.3993 127.172C36.7513 127.332 37.1153 127.412 37.4913 127.412C37.9233 127.412 38.2593 127.324 38.4993 127.148C38.7393 126.972 38.8593 126.74 38.8593 126.452C38.8593 126.3 38.8193 126.168 38.7393 126.056C38.6673 125.944 38.5513 125.848 38.3913 125.768C38.2313 125.688 38.0793 125.624 37.9353 125.576C37.7993 125.528 37.6113 125.476 37.3713 125.42C37.1073 125.356 36.9033 125.308 36.7593 125.276C36.6233 125.236 36.4433 125.172 36.2193 125.084C35.9953 124.988 35.8273 124.888 35.7153 124.784C35.6033 124.672 35.4993 124.528 35.4033 124.352C35.3153 124.168 35.2713 123.96 35.2713 123.728C35.2713 123.256 35.4633 122.86 35.8473 122.54C36.2393 122.22 36.7673 122.06 37.4313 122.06C38.3033 122.06 39.0193 122.34 39.5793 122.9L39.1593 123.524C38.7513 123.036 38.1753 122.792 37.4313 122.792C37.0393 122.792 36.7273 122.872 36.4953 123.032C36.2633 123.192 36.1473 123.404 36.1473 123.668C36.1473 123.924 36.2633 124.116 36.4953 124.244C36.7353 124.364 37.0913 124.48 37.5633 124.592C37.8273 124.648 38.0353 124.7 38.1873 124.748C38.3393 124.788 38.5273 124.856 38.7513 124.952C38.9753 125.048 39.1473 125.156 39.2673 125.276C39.3953 125.388 39.5033 125.54 39.5913 125.732C39.6873 125.924 39.7353 126.144 39.7353 126.392C39.7353 126.904 39.5353 127.324 39.1353 127.652C38.7353 127.98 38.1753 128.144 37.4553 128.144C36.4713 128.144 35.6913 127.84 35.1153 127.232ZM48.0232 128H44.3752V119.996H47.9392C48.6272 119.996 49.1712 120.184 49.5712 120.56C49.9792 120.936 50.1832 121.428 50.1832 122.036C50.1832 122.516 50.0472 122.924 49.7752 123.26C49.5032 123.588 49.1712 123.792 48.7792 123.872C49.2032 123.936 49.5672 124.16 49.8712 124.544C50.1832 124.928 50.3392 125.36 50.3392 125.84C50.3392 126.488 50.1312 127.012 49.7152 127.412C49.3072 127.804 48.7432 128 48.0232 128ZM45.3712 120.884V123.464H47.7712C48.2112 123.464 48.5512 123.344 48.7912 123.104C49.0312 122.864 49.1512 122.556 49.1512 122.18C49.1512 121.804 49.0272 121.496 48.7792 121.256C48.5392 121.008 48.2032 120.884 47.7712 120.884H45.3712ZM45.3712 124.352V127.112H47.8192C48.2832 127.112 48.6472 126.988 48.9112 126.74C49.1752 126.492 49.3072 126.156 49.3072 125.732C49.3072 125.34 49.1752 125.012 48.9112 124.748C48.6552 124.484 48.2912 124.352 47.8192 124.352H45.3712ZM51.5741 125.096C51.5741 124.248 51.8461 123.532 52.3901 122.948C52.9341 122.356 53.6141 122.06 54.4301 122.06C55.2861 122.06 55.9621 122.356 56.4581 122.948C56.9621 123.532 57.2141 124.272 57.2141 125.168V125.396H52.5221C52.5621 125.964 52.7701 126.44 53.1461 126.824C53.5221 127.208 54.0101 127.4 54.6101 127.4C55.3301 127.4 55.9261 127.156 56.3981 126.668L56.8301 127.256C56.2381 127.848 55.4701 128.144 54.5261 128.144C53.6621 128.144 52.9541 127.864 52.4021 127.304C51.8501 126.736 51.5741 126 51.5741 125.096ZM54.4181 122.804C53.8421 122.804 53.3861 123 53.0501 123.392C52.7221 123.784 52.5461 124.232 52.5221 124.736H56.3261C56.3181 124.24 56.1501 123.796 55.8221 123.404C55.4941 123.004 55.0261 122.804 54.4181 122.804ZM60.1598 128.144C59.7358 128.144 59.4158 128.028 59.1998 127.796C58.9838 127.564 58.8758 127.228 58.8758 126.788V122.996H57.9158V122.204H58.8758V120.62H59.7758V122.204H60.9518V122.996H59.7758V126.596C59.7758 126.82 59.8238 127 59.9198 127.136C60.0238 127.272 60.1718 127.34 60.3638 127.34C60.6278 127.34 60.8318 127.26 60.9758 127.1L61.2398 127.772C60.9758 128.02 60.6158 128.144 60.1598 128.144ZM68.1631 128H67.2631L65.7511 123.344L64.2391 128H63.3391L61.4911 122.204H62.4271L63.8431 126.824L65.3671 122.204H66.1351L67.6591 126.824L69.0751 122.204H70.0111L68.1631 128ZM70.7476 125.096C70.7476 124.248 71.0196 123.532 71.5636 122.948C72.1076 122.356 72.7876 122.06 73.6036 122.06C74.4596 122.06 75.1356 122.356 75.6316 122.948C76.1356 123.532 76.3876 124.272 76.3876 125.168V125.396H71.6956C71.7356 125.964 71.9436 126.44 72.3196 126.824C72.6956 127.208 73.1836 127.4 73.7836 127.4C74.5036 127.4 75.0996 127.156 75.5716 126.668L76.0036 127.256C75.4116 127.848 74.6436 128.144 73.6996 128.144C72.8356 128.144 72.1276 127.864 71.5756 127.304C71.0236 126.736 70.7476 126 70.7476 125.096ZM73.5916 122.804C73.0156 122.804 72.5596 123 72.2236 123.392C71.8956 123.784 71.7196 124.232 71.6956 124.736H75.4996C75.4916 124.24 75.3236 123.796 74.9956 123.404C74.6676 123.004 74.1996 122.804 73.5916 122.804ZM77.5333 125.096C77.5333 124.248 77.8053 123.532 78.3493 122.948C78.8933 122.356 79.5733 122.06 80.3893 122.06C81.2453 122.06 81.9213 122.356 82.4173 122.948C82.9213 123.532 83.1733 124.272 83.1733 125.168V125.396H78.4813C78.5213 125.964 78.7293 126.44 79.1053 126.824C79.4813 127.208 79.9693 127.4 80.5693 127.4C81.2893 127.4 81.8853 127.156 82.3573 126.668L82.7893 127.256C82.1973 127.848 81.4293 128.144 80.4853 128.144C79.6213 128.144 78.9133 127.864 78.3613 127.304C77.8093 126.736 77.5333 126 77.5333 125.096ZM80.3773 122.804C79.8013 122.804 79.3453 123 79.0093 123.392C78.6813 123.784 78.5053 124.232 78.4813 124.736H82.2853C82.2773 124.24 82.1093 123.796 81.7813 123.404C81.4533 123.004 80.9853 122.804 80.3773 122.804ZM89.4671 128H88.5671V124.208C88.5671 123.72 88.4551 123.376 88.2311 123.176C88.0071 122.968 87.6871 122.864 87.2711 122.864C86.9351 122.864 86.6071 122.952 86.2871 123.128C85.9751 123.304 85.7311 123.516 85.5551 123.764V128H84.6551V122.204H85.5551V123.044C85.7791 122.78 86.0791 122.552 86.4551 122.36C86.8311 122.16 87.2191 122.06 87.6191 122.06C88.8511 122.06 89.4671 122.684 89.4671 123.932V128Z" fill="#7D8393"/>
<path d="M103 126.166C102.934 126.167 102.869 126.154 102.808 126.129C102.748 126.104 102.693 126.067 102.647 126.02L99.3133 122.686C99.2468 122.589 99.2168 122.472 99.2286 122.354C99.2403 122.237 99.2931 122.128 99.3776 122.046C99.4621 121.964 99.5729 121.914 99.6904 121.906C99.8079 121.897 99.9246 121.931 100.02 122L103 124.96L105.98 122C106.074 121.939 106.186 121.911 106.297 121.921C106.409 121.931 106.514 121.979 106.595 122.056C106.677 122.132 106.73 122.234 106.746 122.345C106.763 122.456 106.742 122.569 106.687 122.666L103.353 126C103.309 126.05 103.255 126.091 103.194 126.12C103.133 126.148 103.067 126.164 103 126.166Z" fill="#26514C"/>
<path d="M125.504 125.948C125.504 125.46 125.672 125.036 126.008 124.676C126.352 124.316 126.784 124.048 127.304 123.872C126.808 123.712 126.404 123.476 126.092 123.164C125.788 122.852 125.636 122.456 125.636 121.976C125.636 121.624 125.72 121.308 125.888 121.028C126.064 120.748 126.292 120.528 126.572 120.368C126.86 120.208 127.172 120.088 127.508 120.008C127.852 119.92 128.208 119.876 128.576 119.876C128.944 119.876 129.296 119.92 129.632 120.008C129.968 120.088 130.28 120.208 130.568 120.368C130.856 120.528 131.084 120.748 131.252 121.028C131.428 121.308 131.516 121.624 131.516 121.976C131.516 122.88 130.956 123.512 129.836 123.872C130.356 124.048 130.784 124.316 131.12 124.676C131.464 125.036 131.636 125.46 131.636 125.948C131.636 126.636 131.34 127.176 130.748 127.568C130.164 127.952 129.44 128.144 128.576 128.144C127.712 128.144 126.984 127.952 126.392 127.568C125.8 127.176 125.504 126.636 125.504 125.948ZM130.088 122.192C130.088 121.864 129.944 121.604 129.656 121.412C129.376 121.22 129.016 121.124 128.576 121.124C128.128 121.124 127.76 121.22 127.472 121.412C127.192 121.604 127.052 121.864 127.052 122.192C127.052 122.424 127.152 122.628 127.352 122.804C127.552 122.972 127.752 123.092 127.952 123.164C128.152 123.228 128.36 123.28 128.576 123.32C128.792 123.28 129 123.228 129.2 123.164C129.4 123.092 129.596 122.972 129.788 122.804C129.988 122.628 130.088 122.424 130.088 122.192ZM130.22 125.768C130.22 125.408 130.032 125.12 129.656 124.904C129.288 124.68 128.928 124.548 128.576 124.508C128.368 124.532 128.148 124.588 127.916 124.676C127.684 124.756 127.46 124.896 127.244 125.096C127.028 125.288 126.92 125.512 126.92 125.768C126.92 126.104 127.076 126.376 127.388 126.584C127.708 126.792 128.104 126.896 128.576 126.896C129.032 126.896 129.42 126.792 129.74 126.584C130.06 126.376 130.22 126.104 130.22 125.768ZM133.097 128.24H132.161L135.005 119.756H135.941L133.097 128.24ZM136.462 124.016C136.462 122.808 136.77 121.816 137.386 121.04C138.002 120.264 138.87 119.876 139.99 119.876C140.918 119.876 141.686 120.172 142.294 120.764L141.634 121.832C141.186 121.36 140.638 121.124 139.99 121.124C139.35 121.124 138.838 121.38 138.454 121.892C138.07 122.404 137.878 123.028 137.878 123.764C137.878 123.868 137.882 123.944 137.89 123.992C138.09 123.696 138.386 123.436 138.778 123.212C139.17 122.988 139.59 122.876 140.038 122.876C140.798 122.876 141.434 123.104 141.946 123.56C142.458 124.008 142.714 124.64 142.714 125.456C142.714 126.216 142.442 126.856 141.898 127.376C141.354 127.888 140.642 128.144 139.762 128.144C139.194 128.144 138.694 128.036 138.262 127.82C137.83 127.596 137.486 127.292 137.23 126.908C136.974 126.524 136.782 126.092 136.654 125.612C136.526 125.124 136.462 124.592 136.462 124.016ZM141.298 125.504C141.298 125.04 141.142 124.688 140.83 124.448C140.518 124.2 140.126 124.076 139.654 124.076C139.318 124.076 138.994 124.164 138.682 124.34C138.37 124.508 138.11 124.736 137.902 125.024C137.95 125.536 138.118 125.976 138.406 126.344C138.694 126.712 139.122 126.896 139.69 126.896C140.186 126.896 140.578 126.756 140.866 126.476C141.154 126.188 141.298 125.864 141.298 125.504ZM144.137 128.24H143.201L146.045 119.756H146.981L144.137 128.24ZM153.406 128H147.61V126.896C149.282 125.632 150.418 124.696 151.018 124.088C151.626 123.472 151.93 122.892 151.93 122.348C151.93 121.956 151.786 121.656 151.498 121.448C151.218 121.232 150.878 121.124 150.478 121.124C149.598 121.124 148.878 121.444 148.318 122.084L147.502 121.16C147.846 120.744 148.278 120.428 148.798 120.212C149.326 119.988 149.878 119.876 150.454 119.876C151.27 119.876 151.958 120.096 152.518 120.536C153.078 120.976 153.358 121.58 153.358 122.348C153.358 123.036 153.07 123.72 152.494 124.4C151.918 125.08 151.038 125.868 149.854 126.764H153.406V128ZM154.855 125.504C154.727 125.024 154.663 124.524 154.663 124.004C154.663 123.484 154.727 122.984 154.855 122.504C154.983 122.024 155.171 121.588 155.419 121.196C155.667 120.796 156.003 120.476 156.427 120.236C156.851 119.996 157.331 119.876 157.867 119.876C158.403 119.876 158.883 119.996 159.307 120.236C159.731 120.476 160.067 120.796 160.315 121.196C160.563 121.588 160.751 122.024 160.879 122.504C161.007 122.984 161.071 123.484 161.071 124.004C161.071 124.524 161.007 125.024 160.879 125.504C160.751 125.984 160.563 126.424 160.315 126.824C160.067 127.224 159.731 127.544 159.307 127.784C158.883 128.024 158.403 128.144 157.867 128.144C157.331 128.144 156.851 128.024 156.427 127.784C156.003 127.544 155.667 127.224 155.419 126.824C155.171 126.424 154.983 125.984 154.855 125.504ZM159.643 124.004C159.643 123.468 159.587 122.992 159.475 122.576C159.371 122.16 159.179 121.816 158.899 121.544C158.627 121.264 158.283 121.124 157.867 121.124C157.451 121.124 157.103 121.264 156.823 121.544C156.551 121.816 156.359 122.16 156.247 122.576C156.143 122.992 156.091 123.468 156.091 124.004C156.091 124.844 156.235 125.536 156.523 126.08C156.811 126.624 157.259 126.896 157.867 126.896C158.475 126.896 158.923 126.624 159.211 126.08C159.499 125.536 159.643 124.844 159.643 124.004ZM167.985 128H162.189V126.896C163.861 125.632 164.997 124.696 165.597 124.088C166.205 123.472 166.509 122.892 166.509 122.348C166.509 121.956 166.365 121.656 166.077 121.448C165.797 121.232 165.457 121.124 165.057 121.124C164.177 121.124 163.457 121.444 162.897 122.084L162.081 121.16C162.425 120.744 162.857 120.428 163.377 120.212C163.905 119.988 164.457 119.876 165.033 119.876C165.849 119.876 166.537 120.096 167.097 120.536C167.657 120.976 167.937 121.58 167.937 122.348C167.937 123.036 167.649 123.72 167.073 124.4C166.497 125.08 165.617 125.868 164.433 126.764H167.985V128ZM169.038 126.848L169.794 125.924C170.05 126.22 170.378 126.456 170.778 126.632C171.178 126.808 171.59 126.896 172.014 126.896C172.534 126.896 172.942 126.788 173.238 126.572C173.534 126.348 173.682 126.048 173.682 125.672C173.682 124.92 173.09 124.544 171.906 124.544C171.37 124.544 171.062 124.548 170.982 124.556V123.296C171.078 123.304 171.386 123.308 171.906 123.308C172.402 123.308 172.798 123.22 173.094 123.044C173.398 122.868 173.55 122.604 173.55 122.252C173.55 121.892 173.398 121.616 173.094 121.424C172.79 121.224 172.402 121.124 171.93 121.124C171.146 121.124 170.458 121.42 169.866 122.012L169.146 121.136C169.858 120.296 170.83 119.876 172.062 119.876C172.934 119.876 173.634 120.072 174.162 120.464C174.69 120.848 174.954 121.372 174.954 122.036C174.954 122.532 174.778 122.944 174.426 123.272C174.082 123.592 173.678 123.792 173.214 123.872C173.67 123.912 174.094 124.104 174.486 124.448C174.878 124.792 175.074 125.248 175.074 125.816C175.074 126.504 174.798 127.064 174.246 127.496C173.702 127.928 172.974 128.144 172.062 128.144C171.382 128.144 170.778 128.024 170.25 127.784C169.73 127.544 169.326 127.232 169.038 126.848ZM182.011 125.636H179.131V124.556H182.011V125.636ZM185.632 125.636H182.752V124.556H185.632V125.636ZM189.408 126.848L190.164 125.924C190.42 126.22 190.748 126.456 191.148 126.632C191.548 126.808 191.96 126.896 192.384 126.896C192.904 126.896 193.312 126.788 193.608 126.572C193.904 126.348 194.052 126.048 194.052 125.672C194.052 124.92 193.46 124.544 192.276 124.544C191.74 124.544 191.432 124.548 191.352 124.556V123.296C191.448 123.304 191.756 123.308 192.276 123.308C192.772 123.308 193.168 123.22 193.464 123.044C193.768 122.868 193.92 122.604 193.92 122.252C193.92 121.892 193.768 121.616 193.464 121.424C193.16 121.224 192.772 121.124 192.3 121.124C191.516 121.124 190.828 121.42 190.236 122.012L189.516 121.136C190.228 120.296 191.2 119.876 192.432 119.876C193.304 119.876 194.004 120.072 194.532 120.464C195.06 120.848 195.324 121.372 195.324 122.036C195.324 122.532 195.148 122.944 194.796 123.272C194.452 123.592 194.048 123.792 193.584 123.872C194.04 123.912 194.464 124.104 194.856 124.448C195.248 124.792 195.444 125.248 195.444 125.816C195.444 126.504 195.168 127.064 194.616 127.496C194.072 127.928 193.344 128.144 192.432 128.144C191.752 128.144 191.148 128.024 190.62 127.784C190.1 127.544 189.696 127.232 189.408 126.848ZM199.743 128H198.339V121.82L197.031 123.176L196.215 122.324L198.519 119.996H199.743V128ZM201.553 128.24H200.617L203.461 119.756H204.397L201.553 128.24ZM204.93 125.948C204.93 125.46 205.098 125.036 205.434 124.676C205.778 124.316 206.21 124.048 206.73 123.872C206.234 123.712 205.83 123.476 205.518 123.164C205.214 122.852 205.062 122.456 205.062 121.976C205.062 121.624 205.146 121.308 205.314 121.028C205.49 120.748 205.718 120.528 205.998 120.368C206.286 120.208 206.598 120.088 206.934 120.008C207.278 119.92 207.634 119.876 208.002 119.876C208.37 119.876 208.722 119.92 209.058 120.008C209.394 120.088 209.706 120.208 209.994 120.368C210.282 120.528 210.51 120.748 210.678 121.028C210.854 121.308 210.942 121.624 210.942 121.976C210.942 122.88 210.382 123.512 209.262 123.872C209.782 124.048 210.21 124.316 210.546 124.676C210.89 125.036 211.062 125.46 211.062 125.948C211.062 126.636 210.766 127.176 210.174 127.568C209.59 127.952 208.866 128.144 208.002 128.144C207.138 128.144 206.41 127.952 205.818 127.568C205.226 127.176 204.93 126.636 204.93 125.948ZM209.514 122.192C209.514 121.864 209.37 121.604 209.082 121.412C208.802 121.22 208.442 121.124 208.002 121.124C207.554 121.124 207.186 121.22 206.898 121.412C206.618 121.604 206.478 121.864 206.478 122.192C206.478 122.424 206.578 122.628 206.778 122.804C206.978 122.972 207.178 123.092 207.378 123.164C207.578 123.228 207.786 123.28 208.002 123.32C208.218 123.28 208.426 123.228 208.626 123.164C208.826 123.092 209.022 122.972 209.214 122.804C209.414 122.628 209.514 122.424 209.514 122.192ZM209.646 125.768C209.646 125.408 209.458 125.12 209.082 124.904C208.714 124.68 208.354 124.548 208.002 124.508C207.794 124.532 207.574 124.588 207.342 124.676C207.11 124.756 206.886 124.896 206.67 125.096C206.454 125.288 206.346 125.512 206.346 125.768C206.346 126.104 206.502 126.376 206.814 126.584C207.134 126.792 207.53 126.896 208.002 126.896C208.458 126.896 208.846 126.792 209.166 126.584C209.486 126.376 209.646 126.104 209.646 125.768ZM212.523 128.24H211.587L214.431 119.756H215.367L212.523 128.24ZM221.792 128H215.996V126.896C217.668 125.632 218.804 124.696 219.404 124.088C220.012 123.472 220.316 122.892 220.316 122.348C220.316 121.956 220.172 121.656 219.884 121.448C219.604 121.232 219.264 121.124 218.864 121.124C217.984 121.124 217.264 121.444 216.704 122.084L215.888 121.16C216.232 120.744 216.664 120.428 217.184 120.212C217.712 119.988 218.264 119.876 218.84 119.876C219.656 119.876 220.344 120.096 220.904 120.536C221.464 120.976 221.744 121.58 221.744 122.348C221.744 123.036 221.456 123.72 220.88 124.4C220.304 125.08 219.424 125.868 218.24 126.764H221.792V128ZM223.241 125.504C223.113 125.024 223.049 124.524 223.049 124.004C223.049 123.484 223.113 122.984 223.241 122.504C223.369 122.024 223.557 121.588 223.805 121.196C224.053 120.796 224.389 120.476 224.813 120.236C225.237 119.996 225.717 119.876 226.253 119.876C226.789 119.876 227.269 119.996 227.693 120.236C228.117 120.476 228.453 120.796 228.701 121.196C228.949 121.588 229.137 122.024 229.265 122.504C229.393 122.984 229.457 123.484 229.457 124.004C229.457 124.524 229.393 125.024 229.265 125.504C229.137 125.984 228.949 126.424 228.701 126.824C228.453 127.224 228.117 127.544 227.693 127.784C227.269 128.024 226.789 128.144 226.253 128.144C225.717 128.144 225.237 128.024 224.813 127.784C224.389 127.544 224.053 127.224 223.805 126.824C223.557 126.424 223.369 125.984 223.241 125.504ZM228.029 124.004C228.029 123.468 227.973 122.992 227.861 122.576C227.757 122.16 227.565 121.816 227.285 121.544C227.013 121.264 226.669 121.124 226.253 121.124C225.837 121.124 225.489 121.264 225.209 121.544C224.937 121.816 224.745 122.16 224.633 122.576C224.529 122.992 224.477 123.468 224.477 124.004C224.477 124.844 224.621 125.536 224.909 126.08C225.197 126.624 225.645 126.896 226.253 126.896C226.861 126.896 227.309 126.624 227.597 126.08C227.885 125.536 228.029 124.844 228.029 124.004ZM236.372 128H230.576V126.896C232.248 125.632 233.384 124.696 233.984 124.088C234.592 123.472 234.896 122.892 234.896 122.348C234.896 121.956 234.752 121.656 234.464 121.448C234.184 121.232 233.844 121.124 233.444 121.124C232.564 121.124 231.844 121.444 231.284 122.084L230.468 121.16C230.812 120.744 231.244 120.428 231.764 120.212C232.292 119.988 232.844 119.876 233.42 119.876C234.236 119.876 234.924 120.096 235.484 120.536C236.044 120.976 236.324 121.58 236.324 122.348C236.324 123.036 236.036 123.72 235.46 124.4C234.884 125.08 234.004 125.868 232.82 126.764H236.372V128ZM237.424 126.848L238.18 125.924C238.436 126.22 238.764 126.456 239.164 126.632C239.564 126.808 239.976 126.896 240.4 126.896C240.92 126.896 241.328 126.788 241.624 126.572C241.92 126.348 242.068 126.048 242.068 125.672C242.068 124.92 241.476 124.544 240.292 124.544C239.756 124.544 239.448 124.548 239.368 124.556V123.296C239.464 123.304 239.772 123.308 240.292 123.308C240.788 123.308 241.184 123.22 241.48 123.044C241.784 122.868 241.936 122.604 241.936 122.252C241.936 121.892 241.784 121.616 241.48 121.424C241.176 121.224 240.788 121.124 240.316 121.124C239.532 121.124 238.844 121.42 238.252 122.012L237.532 121.136C238.244 120.296 239.216 119.876 240.448 119.876C241.32 119.876 242.02 120.072 242.548 120.464C243.076 120.848 243.34 121.372 243.34 122.036C243.34 122.532 243.164 122.944 242.812 123.272C242.468 123.592 242.064 123.792 241.6 123.872C242.056 123.912 242.48 124.104 242.872 124.448C243.264 124.792 243.46 125.248 243.46 125.816C243.46 126.504 243.184 127.064 242.632 127.496C242.088 127.928 241.36 128.144 240.448 128.144C239.768 128.144 239.164 128.024 238.636 127.784C238.116 127.544 237.712 127.232 237.424 126.848Z" fill="#3E7880"/>
<path d="M257 126.166C256.934 126.167 256.869 126.154 256.808 126.129C256.748 126.104 256.693 126.067 256.647 126.02L253.313 122.686C253.247 122.589 253.217 122.472 253.229 122.354C253.24 122.237 253.293 122.128 253.378 122.046C253.462 121.964 253.573 121.914 253.69 121.906C253.808 121.897 253.925 121.931 254.02 122L257 124.96L259.98 122C260.074 121.939 260.186 121.911 260.297 121.921C260.409 121.931 260.514 121.979 260.595 122.056C260.677 122.132 260.73 122.234 260.746 122.345C260.763 122.456 260.742 122.569 260.687 122.666L257.353 126C257.309 126.05 257.255 126.091 257.194 126.12C257.133 126.148 257.067 126.164 257 126.166Z" fill="#26514C"/>
<mask id="mask1_1553_27021" style="mask-type:alpha" maskUnits="userSpaceOnUse" x="343" y="60" width="20" height="20">
<rect x="343" y="60" width="20" height="20" fill="#D9D9D9"/>
</mask>
<g mask="url(#mask1_1553_27021)">
<path d="M348.57 77.5C348.195 77.5 347.869 77.3623 347.594 77.0868C347.318 76.8114 347.181 76.4861 347.181 76.1111V64.5833H347.028C346.831 64.5833 346.666 64.5165 346.533 64.383C346.4 64.2494 346.333 64.0839 346.333 63.8864C346.333 63.689 346.4 63.5243 346.533 63.3924C346.666 63.2604 346.831 63.1944 347.028 63.1944H350.333C350.333 62.9954 350.4 62.8299 350.533 62.6979C350.666 62.566 350.831 62.5 351.028 62.5H354.972C355.169 62.5 355.334 62.5665 355.467 62.6996C355.6 62.8328 355.667 62.9977 355.667 63.1944H358.972C359.169 63.1944 359.334 63.2612 359.467 63.3948C359.6 63.5284 359.667 63.6939 359.667 63.8913C359.667 64.0888 359.6 64.2535 359.467 64.3854C359.334 64.5173 359.169 64.5833 358.972 64.5833H358.82V76.1111C358.82 76.4861 358.682 76.8114 358.406 77.0868C358.131 77.3623 357.806 77.5 357.431 77.5H348.57ZM348.57 64.5833V76.1111H357.431V64.5833H348.57ZM350.597 73.6667C350.597 73.8634 350.664 74.0284 350.798 74.1615C350.931 74.2946 351.097 74.3611 351.294 74.3611C351.492 74.3611 351.656 74.2946 351.788 74.1615C351.92 74.0284 351.986 73.8634 351.986 73.6667V67.0139C351.986 66.8171 351.919 66.6522 351.786 66.5191C351.652 66.386 351.487 66.3194 351.289 66.3194C351.092 66.3194 350.927 66.386 350.795 66.5191C350.663 66.6522 350.597 66.8171 350.597 67.0139V73.6667ZM354.014 73.6667C354.014 73.8634 354.081 74.0284 354.214 74.1615C354.348 74.2946 354.513 74.3611 354.711 74.3611C354.908 74.3611 355.073 74.2946 355.205 74.1615C355.337 74.0284 355.403 73.8634 355.403 73.6667V67.0139C355.403 66.8171 355.336 66.6522 355.203 66.5191C355.069 66.386 354.904 66.3194 354.706 66.3194C354.509 66.3194 354.344 66.386 354.212 66.5191C354.08 66.6522 354.014 66.8171 354.014 67.0139V73.6667Z" fill="#7D8393"/>
</g>
</g>
<rect x="24.5" y="164.5" width="379" height="31" rx="2.5" fill="#F0F1F2"/>
<rect x="24.5" y="164.5" width="379" height="31" rx="2.5" stroke="#E7E8EA"/>
<path d="M167.062 179.438V174.75C167.062 174.601 167.003 174.458 166.898 174.352C166.792 174.247 166.649 174.188 166.5 174.188C166.351 174.188 166.208 174.247 166.102 174.352C165.997 174.458 165.938 174.601 165.938 174.75V179.438H161.25C161.101 179.438 160.958 179.497 160.852 179.602C160.747 179.708 160.688 179.851 160.688 180C160.688 180.149 160.747 180.292 160.852 180.398C160.958 180.503 161.101 180.562 161.25 180.562H165.938V185.25C165.939 185.399 165.999 185.541 166.104 185.646C166.209 185.751 166.351 185.811 166.5 185.812C166.649 185.812 166.792 185.753 166.898 185.648C167.003 185.542 167.062 185.399 167.062 185.25V180.562H171.75C171.899 180.562 172.042 180.503 172.148 180.398C172.253 180.292 172.312 180.149 172.312 180C172.311 179.851 172.251 179.709 172.146 179.604C172.041 179.499 171.899 179.439 171.75 179.438H167.062Z" fill="#393C42"/>
<path d="M188.894 184H187.102L186.416 182.208H181.992L181.306 184H179.514L183.182 174.662H185.226L188.894 184ZM185.954 180.766L184.204 176.048L182.454 180.766H185.954ZM196.102 184H194.632V183.076C194.072 183.804 193.349 184.168 192.462 184.168C191.575 184.168 190.852 183.851 190.292 183.216C189.732 182.581 189.452 181.718 189.452 180.626C189.452 179.543 189.732 178.68 190.292 178.036C190.852 177.392 191.575 177.07 192.462 177.07C193.349 177.07 194.072 177.439 194.632 178.176V174.662H196.102V184ZM194.632 181.97V179.282C194.464 179.021 194.217 178.806 193.89 178.638C193.563 178.461 193.227 178.372 192.882 178.372C192.303 178.372 191.841 178.582 191.496 179.002C191.151 179.422 190.978 179.963 190.978 180.626C190.978 181.289 191.151 181.83 191.496 182.25C191.841 182.661 192.303 182.866 192.882 182.866C193.227 182.866 193.563 182.782 193.89 182.614C194.217 182.446 194.464 182.231 194.632 181.97ZM204.237 184H202.767V183.076C202.207 183.804 201.483 184.168 200.597 184.168C199.71 184.168 198.987 183.851 198.427 183.216C197.867 182.581 197.587 181.718 197.587 180.626C197.587 179.543 197.867 178.68 198.427 178.036C198.987 177.392 199.71 177.07 200.597 177.07C201.483 177.07 202.207 177.439 202.767 178.176V174.662H204.237V184ZM202.767 181.97V179.282C202.599 179.021 202.351 178.806 202.025 178.638C201.698 178.461 201.362 178.372 201.017 178.372C200.438 178.372 199.976 178.582 199.631 179.002C199.285 179.422 199.113 179.963 199.113 180.626C199.113 181.289 199.285 181.83 199.631 182.25C199.976 182.661 200.438 182.866 201.017 182.866C201.362 182.866 201.698 182.782 202.025 182.614C202.351 182.446 202.599 182.231 202.767 181.97ZM214.189 184.168C212.826 184.168 211.678 183.715 210.745 182.81C209.821 181.905 209.359 180.747 209.359 179.338C209.359 177.929 209.821 176.771 210.745 175.866C211.678 174.961 212.826 174.508 214.189 174.508C215.86 174.508 217.134 175.208 218.011 176.608L216.611 177.322C216.378 176.921 216.046 176.594 215.617 176.342C215.188 176.09 214.712 175.964 214.189 175.964C213.293 175.964 212.542 176.286 211.935 176.93C211.338 177.565 211.039 178.367 211.039 179.338C211.039 180.309 211.338 181.116 211.935 181.76C212.542 182.395 213.293 182.712 214.189 182.712C214.712 182.712 215.188 182.586 215.617 182.334C216.046 182.082 216.378 181.755 216.611 181.354L218.011 182.068C217.115 183.468 215.841 184.168 214.189 184.168ZM222.332 184.168C221.287 184.168 220.447 183.827 219.812 183.146C219.177 182.455 218.86 181.611 218.86 180.612C218.86 179.613 219.177 178.773 219.812 178.092C220.447 177.411 221.287 177.07 222.332 177.07C223.387 177.07 224.231 177.411 224.866 178.092C225.501 178.773 225.818 179.613 225.818 180.612C225.818 181.62 225.501 182.465 224.866 183.146C224.231 183.827 223.387 184.168 222.332 184.168ZM222.332 182.866C222.939 182.866 223.415 182.651 223.76 182.222C224.115 181.783 224.292 181.247 224.292 180.612C224.292 179.987 224.115 179.459 223.76 179.03C223.415 178.591 222.939 178.372 222.332 178.372C221.735 178.372 221.259 178.591 220.904 179.03C220.559 179.459 220.386 179.987 220.386 180.612C220.386 181.247 220.559 181.783 220.904 182.222C221.259 182.651 221.735 182.866 222.332 182.866ZM233.34 184H231.87V179.772C231.87 178.839 231.417 178.372 230.512 178.372C230.157 178.372 229.826 178.461 229.518 178.638C229.21 178.815 228.962 179.03 228.776 179.282V184H227.306V177.238H228.776V178.162C229.028 177.863 229.364 177.607 229.784 177.392C230.204 177.177 230.661 177.07 231.156 177.07C231.874 177.07 232.416 177.257 232.78 177.63C233.153 178.003 233.34 178.54 233.34 179.24V184ZM241.479 184H240.009V183.076C239.449 183.804 238.726 184.168 237.839 184.168C236.952 184.168 236.229 183.851 235.669 183.216C235.109 182.581 234.829 181.718 234.829 180.626C234.829 179.543 235.109 178.68 235.669 178.036C236.229 177.392 236.952 177.07 237.839 177.07C238.726 177.07 239.449 177.439 240.009 178.176V174.662H241.479V184ZM240.009 181.97V179.282C239.841 179.021 239.594 178.806 239.267 178.638C238.94 178.461 238.604 178.372 238.259 178.372C237.68 178.372 237.218 178.582 236.873 179.002C236.528 179.422 236.355 179.963 236.355 180.626C236.355 181.289 236.528 181.83 236.873 182.25C237.218 182.661 237.68 182.866 238.259 182.866C238.604 182.866 238.94 182.782 239.267 182.614C239.594 182.446 239.841 182.231 240.009 181.97ZM244.112 176.118C243.869 176.118 243.654 176.029 243.468 175.852C243.29 175.675 243.202 175.46 243.202 175.208C243.202 174.956 243.29 174.741 243.468 174.564C243.654 174.387 243.869 174.298 244.112 174.298C244.364 174.298 244.578 174.387 244.756 174.564C244.933 174.741 245.022 174.956 245.022 175.208C245.022 175.46 244.933 175.675 244.756 175.852C244.578 176.029 244.364 176.118 244.112 176.118ZM244.854 184H243.384V177.238H244.854V184ZM248.791 184.168C248.221 184.168 247.787 184.019 247.489 183.72C247.199 183.421 247.055 182.992 247.055 182.432V178.526H245.935V177.238H247.055V175.39H248.525V177.238H249.897V178.526H248.525V182.068C248.525 182.311 248.581 182.507 248.693 182.656C248.805 182.796 248.963 182.866 249.169 182.866C249.467 182.866 249.687 182.787 249.827 182.628L250.177 183.734C249.869 184.023 249.407 184.168 248.791 184.168ZM251.959 176.118C251.717 176.118 251.502 176.029 251.315 175.852C251.138 175.675 251.049 175.46 251.049 175.208C251.049 174.956 251.138 174.741 251.315 174.564C251.502 174.387 251.717 174.298 251.959 174.298C252.211 174.298 252.426 174.387 252.603 174.564C252.781 174.741 252.869 174.956 252.869 175.208C252.869 175.46 252.781 175.675 252.603 175.852C252.426 176.029 252.211 176.118 251.959 176.118ZM252.701 184H251.231V177.238H252.701V184ZM257.66 184.168C256.615 184.168 255.775 183.827 255.14 183.146C254.506 182.455 254.188 181.611 254.188 180.612C254.188 179.613 254.506 178.773 255.14 178.092C255.775 177.411 256.615 177.07 257.66 177.07C258.715 177.07 259.56 177.411 260.194 178.092C260.829 178.773 261.146 179.613 261.146 180.612C261.146 181.62 260.829 182.465 260.194 183.146C259.56 183.827 258.715 184.168 257.66 184.168ZM257.66 182.866C258.267 182.866 258.743 182.651 259.088 182.222C259.443 181.783 259.62 181.247 259.62 180.612C259.62 179.987 259.443 179.459 259.088 179.03C258.743 178.591 258.267 178.372 257.66 178.372C257.063 178.372 256.587 178.591 256.232 179.03C255.887 179.459 255.714 179.987 255.714 180.612C255.714 181.247 255.887 181.783 256.232 182.222C256.587 182.651 257.063 182.866 257.66 182.866ZM268.668 184H267.198V179.772C267.198 178.839 266.745 178.372 265.84 178.372C265.485 178.372 265.154 178.461 264.846 178.638C264.538 178.815 264.29 179.03 264.104 179.282V184H262.634V177.238H264.104V178.162C264.356 177.863 264.692 177.607 265.112 177.392C265.532 177.177 265.989 177.07 266.484 177.07C267.202 177.07 267.744 177.257 268.108 177.63C268.481 178.003 268.668 178.54 268.668 179.24V184Z" fill="#20232A"/>
<mask id="path-32-inside-1_1553_27021" fill="white">
<path d="M4 666H424V722H4V666Z"/>
</mask>
<path d="M4 667H424V665H4V667Z" fill="#CCCED4" mask="url(#path-32-inside-1_1553_27021)"/>
<path d="M63.2043 698H61.3143L59.2423 694.514H57.6183V698H55.9803V688.662H60.0823C60.997 688.662 61.7343 688.933 62.2943 689.474C62.8543 690.015 63.1343 690.72 63.1343 691.588C63.1343 692.372 62.9197 693.002 62.4903 693.478C62.061 693.945 61.5383 694.229 60.9223 694.332L63.2043 698ZM61.0063 692.666C61.305 692.395 61.4543 692.036 61.4543 691.588C61.4543 691.14 61.305 690.781 61.0063 690.51C60.7077 690.239 60.325 690.104 59.8583 690.104H57.6183V693.072H59.8583C60.325 693.072 60.7077 692.937 61.0063 692.666ZM63.8855 694.612C63.8855 693.623 64.2075 692.787 64.8515 692.106C65.5048 691.415 66.3262 691.07 67.3155 691.07C68.3142 691.07 69.1168 691.415 69.7235 692.106C70.3395 692.797 70.6475 693.679 70.6475 694.752V695.102H65.4255C65.4815 695.634 65.7008 696.077 66.0835 696.432C66.4662 696.787 66.9655 696.964 67.5815 696.964C67.9268 696.964 68.2722 696.899 68.6175 696.768C68.9722 696.637 69.2662 696.455 69.4995 696.222L70.1715 697.188C69.4902 697.841 68.5755 698.168 67.4275 698.168C66.4008 698.168 65.5515 697.841 64.8795 697.188C64.2168 696.525 63.8855 695.667 63.8855 694.612ZM67.3155 692.274C66.7368 692.274 66.2842 692.456 65.9575 692.82C65.6308 693.175 65.4488 693.59 65.4115 694.066H69.2195C69.2008 693.599 69.0282 693.184 68.7015 692.82C68.3842 692.456 67.9222 692.274 67.3155 692.274ZM71.5105 697.118L72.1825 696.054C72.4345 696.315 72.7752 696.539 73.2045 696.726C73.6338 696.913 74.0585 697.006 74.4785 697.006C74.9078 697.006 75.2345 696.936 75.4585 696.796C75.6918 696.647 75.8085 696.441 75.8085 696.18C75.8085 695.909 75.6778 695.709 75.4165 695.578C75.1552 695.438 74.7725 695.312 74.2685 695.2C73.9605 695.135 73.7178 695.079 73.5405 695.032C73.3725 694.985 73.1532 694.911 72.8825 694.808C72.6118 694.696 72.4065 694.575 72.2665 694.444C72.1265 694.304 72.0005 694.122 71.8885 693.898C71.7765 693.674 71.7205 693.417 71.7205 693.128C71.7205 692.549 71.9585 692.064 72.4345 691.672C72.9105 691.271 73.5592 691.07 74.3805 691.07C75.4165 691.07 76.2938 691.387 77.0125 692.022L76.3965 693.058C76.1818 692.815 75.8972 692.619 75.5425 692.47C75.1878 692.321 74.8052 692.246 74.3945 692.246C74.0025 692.246 73.6945 692.316 73.4705 692.456C73.2465 692.587 73.1345 692.769 73.1345 693.002C73.1345 693.235 73.2558 693.413 73.4985 693.534C73.7412 693.655 74.1098 693.772 74.6045 693.884C74.9125 693.949 75.1552 694.005 75.3325 694.052C75.5192 694.099 75.7478 694.183 76.0185 694.304C76.2892 694.416 76.4992 694.542 76.6485 694.682C76.7978 694.822 76.9285 695.013 77.0405 695.256C77.1618 695.489 77.2225 695.76 77.2225 696.068C77.2225 696.684 76.9752 697.188 76.4805 697.58C75.9858 697.972 75.2952 698.168 74.4085 698.168C73.1952 698.168 72.2292 697.818 71.5105 697.118ZM78.282 694.612C78.282 693.623 78.604 692.787 79.248 692.106C79.9013 691.415 80.7227 691.07 81.712 691.07C82.7107 691.07 83.5133 691.415 84.12 692.106C84.736 692.797 85.044 693.679 85.044 694.752V695.102H79.822C79.878 695.634 80.0973 696.077 80.48 696.432C80.8627 696.787 81.362 696.964 81.978 696.964C82.3233 696.964 82.6687 696.899 83.014 696.768C83.3687 696.637 83.6627 696.455 83.896 696.222L84.568 697.188C83.8867 697.841 82.972 698.168 81.824 698.168C80.7973 698.168 79.948 697.841 79.276 697.188C78.6133 696.525 78.282 695.667 78.282 694.612ZM81.712 692.274C81.1333 692.274 80.6807 692.456 80.354 692.82C80.0273 693.175 79.8453 693.59 79.808 694.066H83.616C83.5973 693.599 83.4247 693.184 83.098 692.82C82.7807 692.456 82.3187 692.274 81.712 692.274ZM88.525 698.168C87.9556 698.168 87.5216 698.019 87.223 697.72C86.9336 697.421 86.789 696.992 86.789 696.432V692.526H85.669V691.238H86.789V689.39H88.259V691.238H89.631V692.526H88.259V696.068C88.259 696.311 88.315 696.507 88.427 696.656C88.539 696.796 88.6976 696.866 88.903 696.866C89.2016 696.866 89.421 696.787 89.561 696.628L89.911 697.734C89.603 698.023 89.141 698.168 88.525 698.168Z" fill="#7D8393"/>
<path d="M141 681C141 679.343 142.343 678 144 678H243C244.657 678 246 679.343 246 681V707C246 708.657 244.657 710 243 710H144C142.343 710 141 708.657 141 707V681Z" fill="#F0F1F2"/>
<path d="M177.343 698.168C175.981 698.168 174.833 697.715 173.899 696.81C172.975 695.905 172.513 694.747 172.513 693.338C172.513 691.929 172.975 690.771 173.899 689.866C174.833 688.961 175.981 688.508 177.343 688.508C179.014 688.508 180.288 689.208 181.165 690.608L179.765 691.322C179.532 690.921 179.201 690.594 178.771 690.342C178.342 690.09 177.866 689.964 177.343 689.964C176.447 689.964 175.696 690.286 175.089 690.93C174.492 691.565 174.193 692.367 174.193 693.338C174.193 694.309 174.492 695.116 175.089 695.76C175.696 696.395 176.447 696.712 177.343 696.712C177.866 696.712 178.342 696.586 178.771 696.334C179.201 696.082 179.532 695.755 179.765 695.354L181.165 696.068C180.269 697.468 178.995 698.168 177.343 698.168ZM188.034 698H186.564V697.272C186.042 697.869 185.314 698.168 184.38 698.168C183.764 698.168 183.218 697.972 182.742 697.58C182.266 697.179 182.028 696.628 182.028 695.928C182.028 695.209 182.262 694.663 182.728 694.29C183.204 693.917 183.755 693.73 184.38 693.73C185.342 693.73 186.07 694.019 186.564 694.598V693.59C186.564 693.198 186.42 692.89 186.13 692.666C185.841 692.442 185.458 692.33 184.982 692.33C184.226 692.33 183.559 692.615 182.98 693.184L182.378 692.162C183.144 691.434 184.091 691.07 185.22 691.07C186.051 691.07 186.728 691.266 187.25 691.658C187.773 692.05 188.034 692.671 188.034 693.52V698ZM186.564 696.46V695.438C186.228 694.971 185.692 694.738 184.954 694.738C184.534 694.738 184.189 694.85 183.918 695.074C183.648 695.298 183.512 695.592 183.512 695.956C183.512 696.32 183.648 696.614 183.918 696.838C184.189 697.053 184.534 697.16 184.954 697.16C185.692 697.16 186.228 696.927 186.564 696.46ZM195.974 698H194.504V693.772C194.504 692.839 194.052 692.372 193.146 692.372C192.792 692.372 192.46 692.461 192.152 692.638C191.844 692.815 191.597 693.03 191.41 693.282V698H189.94V691.238H191.41V692.162C191.662 691.863 191.998 691.607 192.418 691.392C192.838 691.177 193.296 691.07 193.79 691.07C194.509 691.07 195.05 691.257 195.414 691.63C195.788 692.003 195.974 692.54 195.974 693.24V698ZM197.464 694.612C197.464 693.585 197.79 692.741 198.444 692.078C199.097 691.406 199.937 691.07 200.964 691.07C202.093 691.07 202.956 691.471 203.554 692.274L202.588 693.17C202.214 692.638 201.696 692.372 201.034 692.372C200.418 692.372 199.923 692.582 199.55 693.002C199.176 693.413 198.99 693.949 198.99 694.612C198.99 695.275 199.176 695.816 199.55 696.236C199.923 696.656 200.418 696.866 201.034 696.866C201.678 696.866 202.196 696.6 202.588 696.068L203.554 696.964C202.956 697.767 202.093 698.168 200.964 698.168C199.937 698.168 199.097 697.837 198.444 697.174C197.79 696.502 197.464 695.648 197.464 694.612ZM204.423 694.612C204.423 693.623 204.745 692.787 205.389 692.106C206.042 691.415 206.863 691.07 207.853 691.07C208.851 691.07 209.654 691.415 210.261 692.106C210.877 692.797 211.185 693.679 211.185 694.752V695.102H205.963C206.019 695.634 206.238 696.077 206.621 696.432C207.003 696.787 207.503 696.964 208.119 696.964C208.464 696.964 208.809 696.899 209.155 696.768C209.509 696.637 209.803 696.455 210.037 696.222L210.709 697.188C210.027 697.841 209.113 698.168 207.965 698.168C206.938 698.168 206.089 697.841 205.417 697.188C204.754 696.525 204.423 695.667 204.423 694.612ZM207.853 692.274C207.274 692.274 206.821 692.456 206.495 692.82C206.168 693.175 205.986 693.59 205.949 694.066H209.757C209.738 693.599 209.565 693.184 209.239 692.82C208.921 692.456 208.459 692.274 207.853 692.274ZM214.106 698H212.636V688.662H214.106V698Z" fill="#5C6069"/>
<path d="M262 681C262 679.343 263.343 678 265 678H347V710H265C263.343 710 262 708.657 262 707V681Z" fill="#5C6069"/>
<path d="M295.394 698H293.602L292.916 696.208H288.492L287.806 698H286.014L289.682 688.662H291.726L295.394 698ZM292.454 694.766L290.704 690.048L288.954 694.766H292.454ZM297.842 697.062V700.576H296.372V691.238H297.842V692.162C298.383 691.434 299.107 691.07 300.012 691.07C300.899 691.07 301.617 691.387 302.168 692.022C302.728 692.657 303.008 693.52 303.008 694.612C303.008 695.704 302.728 696.572 302.168 697.216C301.617 697.851 300.899 698.168 300.012 698.168C299.116 698.168 298.393 697.799 297.842 697.062ZM300.964 696.236C301.309 695.816 301.482 695.275 301.482 694.612C301.482 693.949 301.309 693.413 300.964 693.002C300.619 692.582 300.157 692.372 299.578 692.372C299.242 692.372 298.911 692.461 298.584 692.638C298.257 692.815 298.01 693.03 297.842 693.282V695.956C298.01 696.208 298.257 696.423 298.584 696.6C298.911 696.777 299.242 696.866 299.578 696.866C300.157 696.866 300.619 696.656 300.964 696.236ZM305.963 697.062V700.576H304.493V691.238H305.963V692.162C306.504 691.434 307.228 691.07 308.133 691.07C309.02 691.07 309.738 691.387 310.289 692.022C310.849 692.657 311.129 693.52 311.129 694.612C311.129 695.704 310.849 696.572 310.289 697.216C309.738 697.851 309.02 698.168 308.133 698.168C307.237 698.168 306.514 697.799 305.963 697.062ZM309.085 696.236C309.43 695.816 309.603 695.275 309.603 694.612C309.603 693.949 309.43 693.413 309.085 693.002C308.74 692.582 308.278 692.372 307.699 692.372C307.363 692.372 307.032 692.461 306.705 692.638C306.378 692.815 306.131 693.03 305.963 693.282V695.956C306.131 696.208 306.378 696.423 306.705 696.6C307.032 696.777 307.363 696.866 307.699 696.866C308.278 696.866 308.74 696.656 309.085 696.236ZM314.084 698H312.614V688.662H314.084V698ZM315.697 700.646L315.921 699.33C316.089 699.405 316.276 699.442 316.481 699.442C316.957 699.442 317.279 699.246 317.447 698.854L317.783 698.084L315.011 691.238H316.579L318.553 696.306L320.527 691.238H322.109L318.847 699.218C318.446 700.217 317.671 700.725 316.523 700.744C316.215 700.744 315.94 700.711 315.697 700.646Z" fill="#F0F1F2"/>
<path d="M348 678H385C386.657 678 388 679.343 388 681V707C388 708.657 386.657 710 385 710H348V678Z" fill="#5C6069"/>
<path d="M363 691.5L368 696.5L373 691.5" stroke="white" stroke-width="2" stroke-linecap="round" stroke-linejoin="round"/>
</g>
<defs>
<filter id="filter0_dd_1553_27021" x="-6" y="-10" width="440" height="742" filterUnits="userSpaceOnUse" color-interpolation-filters="sRGB">
<feFlood flood-opacity="0" result="BackgroundImageFix"/>
<feColorMatrix in="SourceAlpha" type="matrix" values="0 0 0 0 0 0 0 0 0 0 0 0 0 0 0 0 0 0 127 0" result="hardAlpha"/>
<feMorphology radius="2" operator="erode" in="SourceAlpha" result="effect1_dropShadow_1553_27021"/>
<feOffset dy="2"/>
<feGaussianBlur stdDeviation="2"/>
<feColorMatrix type="matrix" values="0 0 0 0 0 0 0 0 0 0 0 0 0 0 0 0 0 0 0.07 0"/>
<feBlend mode="normal" in2="BackgroundImageFix" result="effect1_dropShadow_1553_27021"/>
<feColorMatrix in="SourceAlpha" type="matrix" values="0 0 0 0 0 0 0 0 0 0 0 0 0 0 0 0 0 0 127 0" result="hardAlpha"/>
<feOffset dy="4"/>
<feGaussianBlur stdDeviation="2"/>
<feComposite in2="hardAlpha" operator="out"/>
<feColorMatrix type="matrix" values="0 0 0 0 0 0 0 0 0 0 0 0 0 0 0 0 0 0 0.15 0"/>
<feBlend mode="normal" in2="effect1_dropShadow_1553_27021" result="effect2_dropShadow_1553_27021"/>
<feBlend mode="normal" in="SourceGraphic" in2="effect2_dropShadow_1553_27021" result="shape"/>
</filter>
<filter id="filter1_dd_1553_27021" x="20" y="45" width="388" height="104" filterUnits="userSpaceOnUse" color-interpolation-filters="sRGB">
<feFlood flood-opacity="0" result="BackgroundImageFix"/>
<feColorMatrix in="SourceAlpha" type="matrix" values="0 0 0 0 0 0 0 0 0 0 0 0 0 0 0 0 0 0 127 0" result="hardAlpha"/>
<feOffset dy="1"/>
<feGaussianBlur stdDeviation="1.5"/>
<feColorMatrix type="matrix" values="0 0 0 0 0 0 0 0 0 0 0 0 0 0 0 0 0 0 0.1 0"/>
<feBlend mode="normal" in2="BackgroundImageFix" result="effect1_dropShadow_1553_27021"/>
<feColorMatrix in="SourceAlpha" type="matrix" values="0 0 0 0 0 0 0 0 0 0 0 0 0 0 0 0 0 0 127 0" result="hardAlpha"/>
<feMorphology radius="1" operator="erode" in="SourceAlpha" result="effect2_dropShadow_1553_27021"/>
<feOffset dy="1"/>
<feGaussianBlur stdDeviation="1"/>
<feColorMatrix type="matrix" values="0 0 0 0 0 0 0 0 0 0 0 0 0 0 0 0 0 0 0.1 0"/>
<feBlend mode="normal" in2="effect1_dropShadow_1553_27021" result="effect2_dropShadow_1553_27021"/>
<feBlend mode="normal" in="SourceGraphic" in2="effect2_dropShadow_1553_27021" result="shape"/>
</filter>
</defs>
</svg>
