<svg width="420" height="722" viewBox="0 0 420 722" fill="none" xmlns="http://www.w3.org/2000/svg">
<rect width="420" height="722" fill="white"/>
<path d="M27.092 26.216C25.388 26.216 23.954 25.634 22.79 24.47C21.626 23.306 21.044 21.818 21.044 20.006C21.044 18.194 21.626 16.706 22.79 15.542C23.954 14.378 25.388 13.796 27.092 13.796C28.892 13.796 30.362 14.504 31.502 15.92L30.638 16.478C30.254 15.95 29.744 15.53 29.108 15.218C28.484 14.894 27.812 14.732 27.092 14.732C25.676 14.732 24.494 15.224 23.546 16.208C22.598 17.192 22.124 18.458 22.124 20.006C22.124 21.542 22.598 22.808 23.546 23.804C24.506 24.788 25.688 25.28 27.092 25.28C27.812 25.28 28.484 25.124 29.108 24.812C29.744 24.488 30.254 24.062 30.638 23.534L31.502 24.074C30.35 25.502 28.88 26.216 27.092 26.216ZM34.4878 26H33.5518V17.306H34.4878V18.8C35.3398 17.684 36.3178 17.126 37.4218 17.126V18.152C37.3138 18.128 37.1578 18.116 36.9538 18.116C36.5218 18.116 36.0538 18.278 35.5498 18.602C35.0458 18.926 34.6918 19.28 34.4878 19.664V26ZM38.7606 21.644C38.7606 20.372 39.1566 19.298 39.9486 18.422C40.7526 17.534 41.7546 17.09 42.9546 17.09C44.2266 17.09 45.2286 17.534 45.9606 18.422C46.6926 19.298 47.0586 20.39 47.0586 21.698V21.95H39.7866C39.8346 22.934 40.1646 23.756 40.7766 24.416C41.3886 25.076 42.1926 25.406 43.1886 25.406C44.3406 25.406 45.2886 25.004 46.0326 24.2L46.5186 24.812C45.6186 25.748 44.4846 26.216 43.1166 26.216C41.8446 26.216 40.8006 25.79 39.9846 24.938C39.1686 24.086 38.7606 22.988 38.7606 21.644ZM42.9366 17.9C41.9886 17.9 41.2326 18.242 40.6686 18.926C40.1166 19.598 39.8226 20.36 39.7866 21.212H46.1046C46.0926 20.372 45.8106 19.61 45.2586 18.926C44.7186 18.242 43.9446 17.9 42.9366 17.9ZM55.9395 26H55.0035V24.974C54.2475 25.802 53.2635 26.216 52.0515 26.216C51.2475 26.216 50.5395 25.958 49.9275 25.442C49.3155 24.914 49.0095 24.206 49.0095 23.318C49.0095 22.418 49.3095 21.716 49.9095 21.212C50.5215 20.696 51.2355 20.438 52.0515 20.438C53.2755 20.438 54.2595 20.852 55.0035 21.68V19.916C55.0035 19.292 54.7815 18.806 54.3375 18.458C53.8935 18.098 53.3355 17.918 52.6635 17.918C51.5955 17.918 50.6895 18.344 49.9455 19.196L49.4235 18.548C50.3235 17.576 51.4395 17.09 52.7715 17.09C53.7075 17.09 54.4695 17.324 55.0575 17.792C55.6455 18.26 55.9395 18.956 55.9395 19.88V26ZM55.0035 24.29V22.382C54.3795 21.578 53.5035 21.176 52.3755 21.176C51.6675 21.176 51.0915 21.38 50.6475 21.788C50.2155 22.196 49.9995 22.712 49.9995 23.336C49.9995 23.96 50.2155 24.476 50.6475 24.884C51.0915 25.28 51.6675 25.478 52.3755 25.478C53.5155 25.478 54.3915 25.082 55.0035 24.29ZM60.7543 26.216C59.6143 26.216 59.0443 25.586 59.0443 24.326V18.134H57.6043V17.306H59.0443V14.93H59.9983V17.306H61.7623V18.134H59.9983V24.182C59.9983 24.974 60.2983 25.37 60.8983 25.37C61.2943 25.37 61.6183 25.232 61.8703 24.956L62.2303 25.676C61.8463 26.036 61.3543 26.216 60.7543 26.216ZM63.3173 21.644C63.3173 20.372 63.7133 19.298 64.5053 18.422C65.3093 17.534 66.3113 17.09 67.5113 17.09C68.7833 17.09 69.7853 17.534 70.5173 18.422C71.2493 19.298 71.6153 20.39 71.6153 21.698V21.95H64.3433C64.3913 22.934 64.7213 23.756 65.3333 24.416C65.9453 25.076 66.7493 25.406 67.7453 25.406C68.8973 25.406 69.8453 25.004 70.5893 24.2L71.0753 24.812C70.1753 25.748 69.0413 26.216 67.6733 26.216C66.4013 26.216 65.3573 25.79 64.5413 24.938C63.7253 24.086 63.3173 22.988 63.3173 21.644ZM67.4933 17.9C66.5453 17.9 65.7893 18.242 65.2253 18.926C64.6733 19.598 64.3793 20.36 64.3433 21.212H70.6613C70.6493 20.372 70.3673 19.61 69.8153 18.926C69.2753 18.242 68.5013 17.9 67.4933 17.9ZM79.7544 26H78.7284V13.994H86.3424V14.93H79.7544V19.376H86.2164V20.312H79.7544V26ZM88.9162 15.83C88.7242 15.83 88.5562 15.758 88.4122 15.614C88.2682 15.47 88.1962 15.302 88.1962 15.11C88.1962 14.918 88.2682 14.75 88.4122 14.606C88.5562 14.462 88.7242 14.39 88.9162 14.39C89.1202 14.39 89.2882 14.462 89.4202 14.606C89.5642 14.738 89.6362 14.906 89.6362 15.11C89.6362 15.314 89.5642 15.488 89.4202 15.632C89.2882 15.764 89.1202 15.83 88.9162 15.83ZM89.3842 26H88.4482V17.306H89.3842V26ZM93.2338 26H92.2978V13.994H93.2338V26ZM98.0375 26.216C96.8975 26.216 96.3275 25.586 96.3275 24.326V18.134H94.8875V17.306H96.3275V14.93H97.2815V17.306H99.0455V18.134H97.2815V24.182C97.2815 24.974 97.5815 25.37 98.1815 25.37C98.5775 25.37 98.9015 25.232 99.1535 24.956L99.5135 25.676C99.1295 26.036 98.6375 26.216 98.0375 26.216ZM100.6 21.644C100.6 20.372 100.996 19.298 101.788 18.422C102.592 17.534 103.594 17.09 104.794 17.09C106.066 17.09 107.068 17.534 107.8 18.422C108.532 19.298 108.898 20.39 108.898 21.698V21.95H101.626C101.674 22.934 102.004 23.756 102.616 24.416C103.228 25.076 104.032 25.406 105.028 25.406C106.18 25.406 107.128 25.004 107.872 24.2L108.358 24.812C107.458 25.748 106.324 26.216 104.956 26.216C103.684 26.216 102.64 25.79 101.824 24.938C101.008 24.086 100.6 22.988 100.6 21.644ZM104.776 17.9C103.828 17.9 103.072 18.242 102.508 18.926C101.956 19.598 101.662 20.36 101.626 21.212H107.944C107.932 20.372 107.65 19.61 107.098 18.926C106.558 18.242 105.784 17.9 104.776 17.9ZM112.253 26H111.317V17.306H112.253V18.8C113.105 17.684 114.083 17.126 115.187 17.126V18.152C115.079 18.128 114.923 18.116 114.719 18.116C114.287 18.116 113.819 18.278 113.315 18.602C112.811 18.926 112.457 19.28 112.253 19.664V26Z" fill="black"/>
<mask id="mask0_1553_25309" style="mask-type:alpha" maskUnits="userSpaceOnUse" x="356" y="12" width="16" height="16">
<rect x="356" y="12" width="16" height="16" fill="#D9D9D9"/>
</mask>
<g mask="url(#mask0_1553_25309)">
<path d="M364 20.6999L360.5 24.1999C360.4 24.2999 360.283 24.3499 360.15 24.3499C360.017 24.3499 359.9 24.2999 359.8 24.1999C359.7 24.0999 359.65 23.9832 359.65 23.8499C359.65 23.7166 359.7 23.5999 359.8 23.4999L363.3 19.9999L359.8 16.4999C359.7 16.3999 359.65 16.2832 359.65 16.1499C359.65 16.0166 359.7 15.8999 359.8 15.7999C359.9 15.6999 360.017 15.6499 360.15 15.6499C360.283 15.6499 360.4 15.6999 360.5 15.7999L364 19.2999L367.5 15.7999C367.6 15.6999 367.717 15.6499 367.85 15.6499C367.983 15.6499 368.1 15.6999 368.2 15.7999C368.3 15.8999 368.35 16.0166 368.35 16.1499C368.35 16.2832 368.3 16.3999 368.2 16.4999L364.7 19.9999L368.2 23.4999C368.3 23.5999 368.35 23.7166 368.35 23.8499C368.35 23.9832 368.3 24.0999 368.2 24.1999C368.1 24.2999 367.983 24.3499 367.85 24.3499C367.717 24.3499 367.6 24.2999 367.5 24.1999L364 20.6999Z" fill="#20232A"/>
</g>
<path d="M21.932 52H20.936V43.996H26.18V44.884H21.932V47.464H26.096V48.352H21.932V52ZM27.9657 45.232C27.8057 45.232 27.6657 45.172 27.5457 45.052C27.4257 44.932 27.3657 44.788 27.3657 44.62C27.3657 44.452 27.4257 44.312 27.5457 44.2C27.6657 44.08 27.8057 44.02 27.9657 44.02C28.1337 44.02 28.2777 44.08 28.3977 44.2C28.5177 44.312 28.5777 44.452 28.5777 44.62C28.5777 44.788 28.5177 44.932 28.3977 45.052C28.2777 45.172 28.1337 45.232 27.9657 45.232ZM28.4217 52H27.5217V46.204H28.4217V52ZM31.141 52H30.241V43.996H31.141V52ZM34.4243 52.144C34.0003 52.144 33.6803 52.028 33.4643 51.796C33.2483 51.564 33.1403 51.228 33.1403 50.788V46.996H32.1803V46.204H33.1403V44.62H34.0403V46.204H35.2163V46.996H34.0403V50.596C34.0403 50.82 34.0883 51 34.1843 51.136C34.2883 51.272 34.4363 51.34 34.6283 51.34C34.8923 51.34 35.0963 51.26 35.2403 51.1L35.5043 51.772C35.2403 52.02 34.8803 52.144 34.4243 52.144ZM36.1756 49.096C36.1756 48.248 36.4476 47.532 36.9916 46.948C37.5356 46.356 38.2156 46.06 39.0316 46.06C39.8876 46.06 40.5636 46.356 41.0596 46.948C41.5636 47.532 41.8156 48.272 41.8156 49.168V49.396H37.1236C37.1636 49.964 37.3716 50.44 37.7476 50.824C38.1236 51.208 38.6116 51.4 39.2116 51.4C39.9316 51.4 40.5276 51.156 40.9996 50.668L41.4316 51.256C40.8396 51.848 40.0716 52.144 39.1276 52.144C38.2636 52.144 37.5556 51.864 37.0036 51.304C36.4516 50.736 36.1756 50 36.1756 49.096ZM39.0196 46.804C38.4436 46.804 37.9876 47 37.6516 47.392C37.3236 47.784 37.1476 48.232 37.1236 48.736H40.9276C40.9196 48.24 40.7516 47.796 40.4236 47.404C40.0956 47.004 39.6276 46.804 39.0196 46.804ZM44.1973 52H43.2973V46.204H44.1973V47.14C44.7333 46.436 45.3773 46.084 46.1293 46.084V47.008C46.0173 46.984 45.8973 46.972 45.7693 46.972C45.4973 46.972 45.2013 47.068 44.8813 47.26C44.5613 47.452 44.3333 47.664 44.1973 47.896V52ZM51.3 52H50.4V43.996H51.3V47.08C51.804 46.4 52.456 46.06 53.256 46.06C54.016 46.06 54.636 46.34 55.116 46.9C55.596 47.452 55.836 48.188 55.836 49.108C55.836 50.036 55.596 50.776 55.116 51.328C54.644 51.872 54.024 52.144 53.256 52.144C52.448 52.144 51.796 51.808 51.3 51.136V52ZM51.3 47.8V50.428C51.46 50.684 51.7 50.9 52.02 51.076C52.348 51.252 52.684 51.34 53.028 51.34C53.604 51.34 54.06 51.132 54.396 50.716C54.732 50.3 54.9 49.764 54.9 49.108C54.9 48.452 54.732 47.916 54.396 47.5C54.06 47.076 53.604 46.864 53.028 46.864C52.684 46.864 52.348 46.956 52.02 47.14C51.7 47.316 51.46 47.536 51.3 47.8ZM57.0024 54.268L57.1464 53.452C57.2904 53.516 57.4544 53.548 57.6384 53.548C57.8464 53.548 58.0184 53.504 58.1544 53.416C58.2904 53.328 58.4064 53.168 58.5024 52.936L58.8864 52.06L56.4624 46.204H57.4344L59.3664 50.956L61.2864 46.204H62.2704L59.3664 53.176C59.0464 53.944 58.4784 54.336 57.6624 54.352C57.4224 54.352 57.2024 54.324 57.0024 54.268Z" fill="#7D8393"/>
<g filter="url(#filter0_dd_1553_25309)">
<rect x="20" y="62" width="380" height="226" rx="6" fill="white"/>
<rect x="20.5" y="62.5" width="379" height="225" rx="5.5" stroke="#DEE0E4"/>
<rect x="26" y="68" width="368" height="34" rx="6" fill="#F0F1F2"/>
<path d="M44.1445 86.1606C44.0661 86.4246 44.0002 86.6964 43.9482 86.9751L43.9473 86.9839C43.8742 87.4224 43.8502 87.8801 43.874 88.355C43.8981 88.8347 43.9754 89.3009 44.1064 89.7524C44.1749 89.9956 44.2617 90.227 44.3652 90.4468H38.667C38.5988 90.4468 38.5701 90.4289 38.5439 90.4028C38.5178 90.3767 38.5 90.3481 38.5 90.2798V88.9468C38.5 88.5779 38.5921 88.251 38.7734 87.9546C38.9501 87.6659 39.2011 87.44 39.5449 87.2788C40.3849 86.8913 41.2031 86.6016 41.999 86.4058C42.7123 86.2303 43.4321 86.1332 44.1582 86.1157C44.1536 86.1307 44.149 86.1456 44.1445 86.1606ZM44.4004 78.8999C45.1577 78.9 45.7588 79.145 46.2402 79.6265C46.7217 80.1079 46.9667 80.709 46.9668 81.4663C46.9668 82.2236 46.7216 82.8247 46.2402 83.3062C45.7588 83.7876 45.1577 84.0336 44.4004 84.0337C43.6429 84.0337 43.0421 83.7877 42.5605 83.3062C42.079 82.8246 41.833 82.2238 41.833 81.4663C41.8331 80.7089 42.0791 80.1079 42.5605 79.6265C43.042 79.1451 43.6431 78.8999 44.4004 78.8999Z" stroke="black"/>
<path d="M51.32 89.4801L51.88 88.9201L50.4 87.4401V85.2001H49.6V87.7601L51.32 89.4801ZM50 91.6001C48.8933 91.6001 47.95 91.2101 47.17 90.4301C46.39 89.6501 46 88.7068 46 87.6001C46 86.4934 46.39 85.5501 47.17 84.7701C47.95 83.9901 48.8933 83.6001 50 83.6001C51.1067 83.6001 52.05 83.9901 52.83 84.7701C53.61 85.5501 54 86.4934 54 87.6001C54 88.7068 53.61 89.6501 52.83 90.4301C52.05 91.2101 51.1067 91.6001 50 91.6001Z" fill="#1C1B1F"/>
<path d="M71.086 89H69.798L68.972 86.928H64.24L63.414 89H62.126L65.878 79.662H67.32L71.086 89ZM68.622 85.892L66.606 80.698L64.576 85.892H68.622ZM72.8108 88.16C72.1855 87.4787 71.8728 86.6293 71.8728 85.612C71.8728 84.5947 72.1855 83.75 72.8108 83.078C73.4362 82.406 74.2482 82.07 75.2468 82.07C76.2922 82.07 77.1182 82.462 77.7248 83.246L77.0248 83.89C76.5955 83.302 76.0215 83.008 75.3028 83.008C74.5935 83.008 74.0242 83.2507 73.5948 83.736C73.1748 84.2213 72.9648 84.8467 72.9648 85.612C72.9648 86.3773 73.1748 87.0073 73.5948 87.502C74.0242 87.9873 74.5935 88.23 75.3028 88.23C76.0122 88.23 76.5862 87.936 77.0248 87.348L77.7248 87.992C77.1182 88.776 76.2922 89.168 75.2468 89.168C74.2482 89.168 73.4362 88.832 72.8108 88.16ZM80.9045 89.168C80.4098 89.168 80.0365 89.0327 79.7845 88.762C79.5325 88.4913 79.4065 88.0993 79.4065 87.586V83.162H78.2865V82.238H79.4065V80.39H80.4565V82.238H81.8285V83.162H80.4565V87.362C80.4565 87.6233 80.5125 87.8333 80.6245 87.992C80.7458 88.1507 80.9185 88.23 81.1425 88.23C81.4505 88.23 81.6885 88.1367 81.8565 87.95L82.1645 88.734C81.8565 89.0233 81.4365 89.168 80.9045 89.168ZM83.8297 81.104C83.6431 81.104 83.4797 81.034 83.3397 80.894C83.1997 80.754 83.1297 80.586 83.1297 80.39C83.1297 80.194 83.1997 80.0307 83.3397 79.9C83.4797 79.76 83.6431 79.69 83.8297 79.69C84.0257 79.69 84.1937 79.76 84.3337 79.9C84.4737 80.0307 84.5437 80.194 84.5437 80.39C84.5437 80.586 84.4737 80.754 84.3337 80.894C84.1937 81.034 84.0257 81.104 83.8297 81.104ZM84.3617 89H83.3117V82.238H84.3617V89ZM89.4103 89H88.2623L85.4483 82.238H86.5823L88.8363 87.782L91.0763 82.238H92.2243L89.4103 89ZM93.8375 81.104C93.6509 81.104 93.4875 81.034 93.3475 80.894C93.2075 80.754 93.1375 80.586 93.1375 80.39C93.1375 80.194 93.2075 80.0307 93.3475 79.9C93.4875 79.76 93.6509 79.69 93.8375 79.69C94.0335 79.69 94.2015 79.76 94.3415 79.9C94.4815 80.0307 94.5515 80.194 94.5515 80.39C94.5515 80.586 94.4815 80.754 94.3415 80.894C94.2015 81.034 94.0335 81.104 93.8375 81.104ZM94.3695 89H93.3195V82.238H94.3695V89ZM98.1721 89.168C97.6774 89.168 97.3041 89.0327 97.0521 88.762C96.8001 88.4913 96.6741 88.0993 96.6741 87.586V83.162H95.5541V82.238H96.6741V80.39H97.7241V82.238H99.0961V83.162H97.7241V87.362C97.7241 87.6233 97.7801 87.8333 97.8921 87.992C98.0134 88.1507 98.1861 88.23 98.4101 88.23C98.7181 88.23 98.9561 88.1367 99.1241 87.95L99.4321 88.734C99.1241 89.0233 98.7041 89.168 98.1721 89.168ZM100.201 91.646L100.369 90.694C100.537 90.7687 100.729 90.806 100.943 90.806C101.186 90.806 101.387 90.7547 101.545 90.652C101.704 90.5493 101.839 90.3627 101.951 90.092L102.399 89.07L99.5713 82.238H100.705L102.959 87.782L105.199 82.238H106.347L102.959 90.372C102.586 91.268 101.923 91.7253 100.971 91.744C100.691 91.744 100.435 91.7113 100.201 91.646Z" fill="#20232A"/>
<path d="M116.026 87.5C116.145 87.5 116.244 87.4601 116.323 87.3802C116.402 87.3003 116.442 87.2014 116.442 87.0833V84.9167C116.442 84.7986 116.402 84.6997 116.321 84.6198C116.241 84.5399 116.142 84.5 116.024 84.5C115.905 84.5 115.806 84.5399 115.727 84.6198C115.648 84.6997 115.608 84.7986 115.608 84.9167V87.0833C115.608 87.2014 115.648 87.3003 115.729 87.3802C115.809 87.4601 115.908 87.5 116.026 87.5ZM116 83.55C116.125 83.55 116.23 83.5085 116.315 83.4254C116.399 83.3424 116.442 83.2395 116.442 83.1167C116.442 82.9892 116.399 82.8823 116.315 82.7961C116.23 82.7098 116.125 82.6667 116 82.6667C115.875 82.6667 115.77 82.7098 115.685 82.7961C115.601 82.8823 115.558 82.9892 115.558 83.1167C115.558 83.2395 115.601 83.3424 115.685 83.4254C115.77 83.5085 115.875 83.55 116 83.55ZM116.002 90C115.312 90 114.663 89.8688 114.056 89.6063C113.449 89.3438 112.919 88.9861 112.467 88.5333C112.014 88.0806 111.656 87.5504 111.394 86.943C111.131 86.3356 111 85.6865 111 84.9958C111 84.3052 111.131 83.6561 111.394 83.0487C111.656 82.4412 112.014 81.9125 112.467 81.4625C112.919 81.0125 113.45 80.6563 114.057 80.3938C114.664 80.1313 115.314 80 116.004 80C116.695 80 117.344 80.1313 117.951 80.3938C118.559 80.6563 119.088 81.0125 119.538 81.4625C119.988 81.9125 120.344 82.4417 120.606 83.05C120.869 83.6583 121 84.3076 121 84.9978C121 85.688 120.869 86.3366 120.606 86.9436C120.344 87.5506 119.988 88.08 119.538 88.5318C119.088 88.9836 118.558 89.3412 117.95 89.6047C117.342 89.8682 116.692 90 116.002 90ZM116.004 89.1667C117.162 89.1667 118.146 88.7611 118.954 87.95C119.763 87.1389 120.167 86.1542 120.167 84.9958C120.167 83.8375 119.763 82.8542 118.956 82.0458C118.148 81.2375 117.163 80.8333 116 80.8333C114.844 80.8333 113.861 81.237 113.05 82.0443C112.239 82.8516 111.833 83.8368 111.833 85C111.833 86.1556 112.239 87.1389 113.05 87.95C113.861 88.7611 114.846 89.1667 116.004 89.1667Z" fill="#1C1B1F"/>
<mask id="mask1_1553_25309" style="mask-type:alpha" maskUnits="userSpaceOnUse" x="366" y="77" width="16" height="16">
<rect x="366" y="77" width="16" height="16" fill="#D9D9D9"/>
</mask>
<g mask="url(#mask1_1553_25309)">
<path d="M371.867 88.5999C371.767 88.4851 371.715 88.3517 371.711 88.1999C371.707 88.048 371.759 87.9184 371.867 87.811L374.689 84.9888L371.856 82.1554C371.756 82.0554 371.707 81.9239 371.711 81.761C371.715 81.598 371.767 81.4665 371.867 81.3665C371.981 81.2517 372.113 81.1962 372.261 81.1999C372.409 81.2036 372.537 81.2591 372.644 81.3665L375.878 84.5999C375.937 84.6591 375.979 84.7202 376.003 84.7832C376.027 84.8462 376.039 84.9147 376.039 84.9888C376.039 85.0628 376.027 85.1314 376.003 85.1943C375.979 85.2573 375.937 85.3184 375.878 85.3777L372.656 88.5999C372.548 88.7073 372.419 88.7591 372.267 88.7554C372.115 88.7517 371.981 88.6999 371.867 88.5999Z" fill="#1C1B1F"/>
</g>
<mask id="mask2_1553_25309" style="mask-type:alpha" maskUnits="userSpaceOnUse" x="38" y="113" width="16" height="16">
<rect x="38" y="113" width="16" height="16" fill="#D9D9D9"/>
</mask>
<g mask="url(#mask2_1553_25309)">
<path d="M38.6665 126.333V124.467C38.6665 124.089 38.7637 123.742 38.9582 123.425C39.1526 123.108 39.4109 122.867 39.7332 122.7C40.4221 122.355 41.1221 122.097 41.8332 121.925C42.5443 121.753 43.2665 121.667 43.9998 121.667C44.7332 121.667 45.4554 121.753 46.1665 121.925C46.8776 122.097 47.5776 122.355 48.2665 122.7C48.5887 122.867 48.8471 123.108 49.0415 123.425C49.2359 123.742 49.3332 124.089 49.3332 124.467V126.333H38.6665ZM50.6665 126.333V124.333C50.6665 123.844 50.5304 123.375 50.2582 122.925C49.9859 122.475 49.5998 122.089 49.0998 121.767C49.6665 121.833 50.1998 121.947 50.6998 122.108C51.1998 122.269 51.6665 122.467 52.0998 122.7C52.4998 122.922 52.8054 123.169 53.0165 123.442C53.2276 123.714 53.3332 124.011 53.3332 124.333V126.333H50.6665ZM43.9998 121C43.2665 121 42.6387 120.739 42.1165 120.217C41.5943 119.694 41.3332 119.067 41.3332 118.333C41.3332 117.6 41.5943 116.972 42.1165 116.45C42.6387 115.928 43.2665 115.667 43.9998 115.667C44.7332 115.667 45.3609 115.928 45.8832 116.45C46.4054 116.972 46.6665 117.6 46.6665 118.333C46.6665 119.067 46.4054 119.694 45.8832 120.217C45.3609 120.739 44.7332 121 43.9998 121ZM50.6665 118.333C50.6665 119.067 50.4054 119.694 49.8832 120.217C49.3609 120.739 48.7332 121 47.9998 121C47.8776 121 47.7221 120.986 47.5332 120.958C47.3443 120.93 47.1887 120.9 47.0665 120.867C47.3665 120.511 47.5971 120.117 47.7582 119.683C47.9193 119.25 47.9998 118.8 47.9998 118.333C47.9998 117.867 47.9193 117.417 47.7582 116.983C47.5971 116.55 47.3665 116.155 47.0665 115.8C47.2221 115.744 47.3776 115.708 47.5332 115.692C47.6887 115.675 47.8443 115.667 47.9998 115.667C48.7332 115.667 49.3609 115.928 49.8832 116.45C50.4054 116.972 50.6665 117.6 50.6665 118.333ZM39.9998 125H47.9998V124.467C47.9998 124.344 47.9693 124.233 47.9082 124.133C47.8471 124.033 47.7665 123.955 47.6665 123.9C47.0665 123.6 46.4609 123.375 45.8498 123.225C45.2387 123.075 44.6221 123 43.9998 123C43.3776 123 42.7609 123.075 42.1498 123.225C41.5387 123.375 40.9332 123.6 40.3332 123.9C40.2332 123.955 40.1526 124.033 40.0915 124.133C40.0304 124.233 39.9998 124.344 39.9998 124.467V125ZM43.9998 119.667C44.3665 119.667 44.6804 119.536 44.9415 119.275C45.2026 119.014 45.3332 118.7 45.3332 118.333C45.3332 117.967 45.2026 117.653 44.9415 117.392C44.6804 117.13 44.3665 117 43.9998 117C43.6332 117 43.3193 117.13 43.0582 117.392C42.7971 117.653 42.6665 117.967 42.6665 118.333C42.6665 118.7 42.7971 119.014 43.0582 119.275C43.3193 119.536 43.6332 119.667 43.9998 119.667Z" fill="#1C1B1F"/>
</g>
<path d="M67.474 125.168C66.13 125.168 65.0007 124.715 64.086 123.81C63.1713 122.905 62.714 121.747 62.714 120.338C62.714 118.929 63.1713 117.771 64.086 116.866C65.0007 115.961 66.13 115.508 67.474 115.508C68.9953 115.508 70.19 116.124 71.058 117.356L70.078 117.902C69.8073 117.501 69.4387 117.174 68.972 116.922C68.5147 116.67 68.0153 116.544 67.474 116.544C66.466 116.544 65.6213 116.903 64.94 117.622C64.2587 118.331 63.918 119.237 63.918 120.338C63.918 121.439 64.2587 122.349 64.94 123.068C65.6213 123.777 66.466 124.132 67.474 124.132C68.0153 124.132 68.5147 124.011 68.972 123.768C69.4387 123.516 69.8073 123.185 70.078 122.774L71.072 123.32C70.1667 124.552 68.9673 125.168 67.474 125.168ZM77.8869 124.146C77.2803 124.827 76.4729 125.168 75.4649 125.168C74.4569 125.168 73.6449 124.827 73.0289 124.146C72.4223 123.465 72.1189 122.62 72.1189 121.612C72.1189 120.604 72.4223 119.764 73.0289 119.092C73.6449 118.411 74.4569 118.07 75.4649 118.07C76.4729 118.07 77.2803 118.411 77.8869 119.092C78.5029 119.764 78.8109 120.604 78.8109 121.612C78.8109 122.62 78.5029 123.465 77.8869 124.146ZM73.8129 123.474C74.2236 123.978 74.7743 124.23 75.4649 124.23C76.1556 124.23 76.7016 123.978 77.1029 123.474C77.5043 122.961 77.7049 122.34 77.7049 121.612C77.7049 120.884 77.5043 120.268 77.1029 119.764C76.7016 119.26 76.1556 119.008 75.4649 119.008C74.7743 119.008 74.2236 119.265 73.8129 119.778C73.4116 120.282 73.2109 120.893 73.2109 121.612C73.2109 122.34 73.4116 122.961 73.8129 123.474ZM86.1367 125H85.0867V120.576C85.0867 120.007 84.956 119.605 84.6947 119.372C84.4333 119.129 84.06 119.008 83.5747 119.008C83.1827 119.008 82.8 119.111 82.4267 119.316C82.0627 119.521 81.778 119.769 81.5727 120.058V125H80.5227V118.238H81.5727V119.218C81.834 118.91 82.184 118.644 82.6227 118.42C83.0613 118.187 83.514 118.07 83.9807 118.07C85.418 118.07 86.1367 118.798 86.1367 120.254V125ZM89.9416 125.168C89.4469 125.168 89.0736 125.033 88.8216 124.762C88.5696 124.491 88.4436 124.099 88.4436 123.586V119.162H87.3236V118.238H88.4436V116.39H89.4936V118.238H90.8656V119.162H89.4936V123.362C89.4936 123.623 89.5496 123.833 89.6616 123.992C89.7829 124.151 89.9556 124.23 90.1796 124.23C90.4876 124.23 90.7256 124.137 90.8936 123.95L91.2016 124.734C90.8936 125.023 90.4736 125.168 89.9416 125.168ZM97.6268 125H96.5768V124.23C96.0075 124.855 95.2608 125.168 94.3368 125.168C93.7115 125.168 93.1608 124.967 92.6848 124.566C92.2088 124.165 91.9708 123.619 91.9708 122.928C91.9708 122.219 92.2042 121.673 92.6708 121.29C93.1468 120.898 93.7022 120.702 94.3368 120.702C95.2982 120.702 96.0448 121.01 96.5768 121.626V120.408C96.5768 119.96 96.4182 119.61 96.1008 119.358C95.7835 119.106 95.3728 118.98 94.8688 118.98C94.0755 118.98 93.3848 119.293 92.7968 119.918L92.3068 119.19C93.0255 118.443 93.9262 118.07 95.0088 118.07C95.7835 118.07 96.4135 118.257 96.8988 118.63C97.3842 119.003 97.6268 119.577 97.6268 120.352V125ZM96.5768 123.572V122.298C96.1755 121.738 95.5548 121.458 94.7148 121.458C94.2295 121.458 93.8282 121.598 93.5108 121.878C93.2028 122.149 93.0488 122.503 93.0488 122.942C93.0488 123.371 93.2028 123.726 93.5108 124.006C93.8282 124.277 94.2295 124.412 94.7148 124.412C95.5548 124.412 96.1755 124.132 96.5768 123.572ZM100.278 124.16C99.6523 123.479 99.3396 122.629 99.3396 121.612C99.3396 120.595 99.6523 119.75 100.278 119.078C100.903 118.406 101.715 118.07 102.714 118.07C103.759 118.07 104.585 118.462 105.192 119.246L104.492 119.89C104.062 119.302 103.488 119.008 102.77 119.008C102.06 119.008 101.491 119.251 101.062 119.736C100.642 120.221 100.432 120.847 100.432 121.612C100.432 122.377 100.642 123.007 101.062 123.502C101.491 123.987 102.06 124.23 102.77 124.23C103.479 124.23 104.053 123.936 104.492 123.348L105.192 123.992C104.585 124.776 103.759 125.168 102.714 125.168C101.715 125.168 100.903 124.832 100.278 124.16ZM108.371 125.168C107.877 125.168 107.503 125.033 107.251 124.762C106.999 124.491 106.873 124.099 106.873 123.586V119.162H105.753V118.238H106.873V116.39H107.923V118.238H109.295V119.162H107.923V123.362C107.923 123.623 107.979 123.833 108.091 123.992C108.213 124.151 108.385 124.23 108.609 124.23C108.917 124.23 109.155 124.137 109.323 123.95L109.631 124.734C109.323 125.023 108.903 125.168 108.371 125.168ZM110.191 124.104L110.737 123.348C110.97 123.619 111.287 123.847 111.689 124.034C112.099 124.221 112.524 124.314 112.963 124.314C113.467 124.314 113.859 124.211 114.139 124.006C114.419 123.801 114.559 123.53 114.559 123.194C114.559 123.017 114.512 122.863 114.419 122.732C114.335 122.601 114.199 122.489 114.013 122.396C113.826 122.303 113.649 122.228 113.481 122.172C113.322 122.116 113.103 122.055 112.823 121.99C112.515 121.915 112.277 121.859 112.109 121.822C111.95 121.775 111.74 121.701 111.479 121.598C111.217 121.486 111.021 121.369 110.891 121.248C110.76 121.117 110.639 120.949 110.527 120.744C110.424 120.529 110.373 120.287 110.373 120.016C110.373 119.465 110.597 119.003 111.045 118.63C111.502 118.257 112.118 118.07 112.893 118.07C113.91 118.07 114.745 118.397 115.399 119.05L114.909 119.778C114.433 119.209 113.761 118.924 112.893 118.924C112.435 118.924 112.071 119.017 111.801 119.204C111.53 119.391 111.395 119.638 111.395 119.946C111.395 120.245 111.53 120.469 111.801 120.618C112.081 120.758 112.496 120.893 113.047 121.024C113.355 121.089 113.597 121.15 113.775 121.206C113.952 121.253 114.171 121.332 114.433 121.444C114.694 121.556 114.895 121.682 115.035 121.822C115.184 121.953 115.31 122.13 115.413 122.354C115.525 122.578 115.581 122.835 115.581 123.124C115.581 123.721 115.347 124.211 114.881 124.594C114.414 124.977 113.761 125.168 112.921 125.168C111.773 125.168 110.863 124.813 110.191 124.104Z" fill="#20232A"/>
<path d="M126.026 123.5C126.145 123.5 126.244 123.46 126.323 123.38C126.402 123.3 126.442 123.201 126.442 123.083V120.917C126.442 120.799 126.402 120.7 126.321 120.62C126.241 120.54 126.142 120.5 126.024 120.5C125.905 120.5 125.806 120.54 125.727 120.62C125.648 120.7 125.608 120.799 125.608 120.917V123.083C125.608 123.201 125.648 123.3 125.729 123.38C125.809 123.46 125.908 123.5 126.026 123.5ZM126 119.55C126.125 119.55 126.23 119.508 126.315 119.425C126.399 119.342 126.442 119.239 126.442 119.117C126.442 118.989 126.399 118.882 126.315 118.796C126.23 118.71 126.125 118.667 126 118.667C125.875 118.667 125.77 118.71 125.685 118.796C125.601 118.882 125.558 118.989 125.558 119.117C125.558 119.239 125.601 119.342 125.685 119.425C125.77 119.508 125.875 119.55 126 119.55ZM126.002 126C125.312 126 124.663 125.869 124.056 125.606C123.449 125.344 122.919 124.986 122.467 124.533C122.014 124.081 121.656 123.55 121.394 122.943C121.131 122.336 121 121.686 121 120.996C121 120.305 121.131 119.656 121.394 119.049C121.656 118.441 122.014 117.913 122.467 117.463C122.919 117.013 123.45 116.656 124.057 116.394C124.664 116.131 125.314 116 126.004 116C126.695 116 127.344 116.131 127.951 116.394C128.559 116.656 129.088 117.013 129.538 117.463C129.988 117.913 130.344 118.442 130.606 119.05C130.869 119.658 131 120.308 131 120.998C131 121.688 130.869 122.337 130.606 122.944C130.344 123.551 129.988 124.08 129.538 124.532C129.088 124.984 128.558 125.341 127.95 125.605C127.342 125.868 126.692 126 126.002 126ZM126.004 125.167C127.162 125.167 128.146 124.761 128.954 123.95C129.763 123.139 130.167 122.154 130.167 120.996C130.167 119.838 129.763 118.854 128.956 118.046C128.148 117.237 127.163 116.833 126 116.833C124.844 116.833 123.861 117.237 123.05 118.044C122.239 118.852 121.833 119.837 121.833 121C121.833 122.156 122.239 123.139 123.05 123.95C123.861 124.761 124.846 125.167 126.004 125.167Z" fill="#1C1B1F"/>
<mask id="mask3_1553_25309" style="mask-type:alpha" maskUnits="userSpaceOnUse" x="366" y="113" width="16" height="16">
<rect x="366" y="113" width="16" height="16" fill="#D9D9D9"/>
</mask>
<g mask="url(#mask3_1553_25309)">
<path d="M371.867 124.6C371.767 124.485 371.715 124.352 371.711 124.2C371.707 124.048 371.759 123.918 371.867 123.811L374.689 120.989L371.856 118.155C371.756 118.055 371.707 117.924 371.711 117.761C371.715 117.598 371.767 117.467 371.867 117.367C371.981 117.252 372.113 117.196 372.261 117.2C372.409 117.204 372.537 117.259 372.644 117.367L375.878 120.6C375.937 120.659 375.979 120.72 376.003 120.783C376.027 120.846 376.039 120.915 376.039 120.989C376.039 121.063 376.027 121.131 376.003 121.194C375.979 121.257 375.937 121.318 375.878 121.378L372.656 124.6C372.548 124.707 372.419 124.759 372.267 124.755C372.115 124.752 371.981 124.7 371.867 124.6Z" fill="#1C1B1F"/>
</g>
<mask id="mask4_1553_25309" style="mask-type:alpha" maskUnits="userSpaceOnUse" x="38" y="149" width="16" height="16">
<path d="M38 149H54V165H38V149Z" fill="#D9D9D9"/>
</mask>
<g mask="url(#mask4_1553_25309)">
<path d="M44.1685 160.45H48.0985C48.2285 160.45 48.336 160.408 48.421 160.323C48.506 160.238 48.5485 160.13 48.5485 160C48.5485 159.87 48.506 159.762 48.421 159.677C48.336 159.592 48.2285 159.55 48.0985 159.55H44.1685C44.0385 159.55 43.931 159.592 43.846 159.677C43.761 159.762 43.7185 159.87 43.7185 160C43.7185 160.13 43.761 160.238 43.846 160.323C43.931 160.408 44.0385 160.45 44.1685 160.45ZM44.1685 157.9H48.0985C48.2285 157.9 48.336 157.858 48.421 157.773C48.506 157.688 48.5485 157.58 48.5485 157.45C48.5485 157.32 48.506 157.213 48.421 157.128C48.336 157.043 48.2285 157 48.0985 157H44.1685C44.0385 157 43.931 157.043 43.846 157.128C43.761 157.213 43.7185 157.32 43.7185 157.45C43.7185 157.58 43.761 157.688 43.846 157.773C43.931 157.858 44.0385 157.9 44.1685 157.9ZM42.2335 163C41.9935 163 41.7835 162.91 41.6035 162.73C41.4235 162.55 41.3335 162.34 41.3335 162.1V151.9C41.3335 151.66 41.4235 151.45 41.6035 151.27C41.7835 151.09 41.9935 151 42.2335 151H47.2735C47.3935 151 47.511 151.025 47.626 151.075C47.741 151.125 47.8385 151.19 47.9185 151.27L50.6635 154.015C50.7435 154.095 50.8085 154.192 50.8585 154.307C50.9085 154.422 50.9335 154.54 50.9335 154.66V162.1C50.9335 162.34 50.8435 162.55 50.6635 162.73C50.4835 162.91 50.2735 163 50.0335 163H42.2335ZM47.1985 154.24V151.9H42.2335V162.1H50.0335V154.69H47.6485C47.5185 154.69 47.411 154.648 47.326 154.562C47.241 154.477 47.1985 154.37 47.1985 154.24Z" fill="#20232A"/>
</g>
<path d="M70.68 152.88C71.548 153.795 71.982 154.947 71.982 156.338C71.982 157.729 71.5573 158.877 70.708 159.782L71.59 160.734L70.778 161.434L69.882 160.468C69.1353 160.935 68.2907 161.168 67.348 161.168C65.976 161.168 64.8607 160.711 64.002 159.796C63.1433 158.881 62.714 157.729 62.714 156.338C62.714 154.947 63.1433 153.795 64.002 152.88C64.8607 151.965 65.976 151.508 67.348 151.508C68.7107 151.508 69.8213 151.965 70.68 152.88ZM67.348 160.132C68.0107 160.132 68.6033 159.973 69.126 159.656L67.796 158.214L68.608 157.528L69.924 158.942C70.4933 158.251 70.778 157.383 70.778 156.338C70.778 155.227 70.4607 154.317 69.826 153.608C69.2007 152.899 68.3747 152.544 67.348 152.544C66.312 152.544 65.4813 152.899 64.856 153.608C64.2307 154.317 63.918 155.227 63.918 156.338C63.918 157.439 64.2307 158.349 64.856 159.068C65.4813 159.777 66.312 160.132 67.348 160.132ZM79.3691 161H78.3191V160.048C78.0391 160.365 77.6844 160.631 77.2551 160.846C76.8351 161.061 76.3871 161.168 75.9111 161.168C74.4737 161.168 73.7551 160.449 73.7551 159.012V154.238H74.8051V158.69C74.8051 159.25 74.9311 159.647 75.1831 159.88C75.4444 160.113 75.8224 160.23 76.3171 160.23C76.7091 160.23 77.0871 160.132 77.4511 159.936C77.8244 159.74 78.1137 159.497 78.3191 159.208V154.238H79.3691V161ZM81.074 157.612C81.074 156.623 81.3913 155.787 82.026 155.106C82.6607 154.415 83.454 154.07 84.406 154.07C85.4047 154.07 86.1933 154.415 86.772 155.106C87.36 155.787 87.654 156.651 87.654 157.696V157.962H82.18C82.2267 158.625 82.4693 159.18 82.908 159.628C83.3467 160.076 83.916 160.3 84.616 160.3C85.456 160.3 86.1513 160.015 86.702 159.446L87.206 160.132C86.5153 160.823 85.6193 161.168 84.518 161.168C83.51 161.168 82.684 160.841 82.04 160.188C81.396 159.525 81.074 158.667 81.074 157.612ZM84.392 154.938C83.72 154.938 83.188 155.167 82.796 155.624C82.4133 156.081 82.208 156.604 82.18 157.192H86.618C86.6087 156.613 86.4127 156.095 86.03 155.638C85.6473 155.171 85.1013 154.938 84.392 154.938ZM88.7667 160.104L89.3127 159.348C89.546 159.619 89.8634 159.847 90.2647 160.034C90.6754 160.221 91.1 160.314 91.5387 160.314C92.0427 160.314 92.4347 160.211 92.7147 160.006C92.9947 159.801 93.1347 159.53 93.1347 159.194C93.1347 159.017 93.088 158.863 92.9947 158.732C92.9107 158.601 92.7754 158.489 92.5887 158.396C92.402 158.303 92.2247 158.228 92.0567 158.172C91.898 158.116 91.6787 158.055 91.3987 157.99C91.0907 157.915 90.8527 157.859 90.6847 157.822C90.526 157.775 90.316 157.701 90.0547 157.598C89.7934 157.486 89.5974 157.369 89.4667 157.248C89.336 157.117 89.2147 156.949 89.1027 156.744C89 156.529 88.9487 156.287 88.9487 156.016C88.9487 155.465 89.1727 155.003 89.6207 154.63C90.078 154.257 90.694 154.07 91.4687 154.07C92.486 154.07 93.3214 154.397 93.9747 155.05L93.4847 155.778C93.0087 155.209 92.3367 154.924 91.4687 154.924C91.0114 154.924 90.6474 155.017 90.3767 155.204C90.106 155.391 89.9707 155.638 89.9707 155.946C89.9707 156.245 90.106 156.469 90.3767 156.618C90.6567 156.758 91.072 156.893 91.6227 157.024C91.9307 157.089 92.1734 157.15 92.3507 157.206C92.528 157.253 92.7474 157.332 93.0087 157.444C93.27 157.556 93.4707 157.682 93.6107 157.822C93.76 157.953 93.886 158.13 93.9887 158.354C94.1007 158.578 94.1567 158.835 94.1567 159.124C94.1567 159.721 93.9234 160.211 93.4567 160.594C92.99 160.977 92.3367 161.168 91.4967 161.168C90.3487 161.168 89.4387 160.813 88.7667 160.104ZM97.5705 161.168C97.0758 161.168 96.7025 161.033 96.4505 160.762C96.1985 160.491 96.0725 160.099 96.0725 159.586V155.162H94.9525V154.238H96.0725V152.39H97.1225V154.238H98.4945V155.162H97.1225V159.362C97.1225 159.623 97.1785 159.833 97.2905 159.992C97.4118 160.151 97.5845 160.23 97.8085 160.23C98.1165 160.23 98.3545 160.137 98.5225 159.95L98.8305 160.734C98.5225 161.023 98.1025 161.168 97.5705 161.168ZM100.496 153.104C100.309 153.104 100.146 153.034 100.006 152.894C99.8657 152.754 99.7957 152.586 99.7957 152.39C99.7957 152.194 99.8657 152.031 100.006 151.9C100.146 151.76 100.309 151.69 100.496 151.69C100.692 151.69 100.86 151.76 101 151.9C101.14 152.031 101.21 152.194 101.21 152.39C101.21 152.586 101.14 152.754 101 152.894C100.86 153.034 100.692 153.104 100.496 153.104ZM101.028 161H99.9777V154.238H101.028V161ZM108.498 160.146C107.892 160.827 107.084 161.168 106.076 161.168C105.068 161.168 104.256 160.827 103.64 160.146C103.034 159.465 102.73 158.62 102.73 157.612C102.73 156.604 103.034 155.764 103.64 155.092C104.256 154.411 105.068 154.07 106.076 154.07C107.084 154.07 107.892 154.411 108.498 155.092C109.114 155.764 109.422 156.604 109.422 157.612C109.422 158.62 109.114 159.465 108.498 160.146ZM104.424 159.474C104.835 159.978 105.386 160.23 106.076 160.23C106.767 160.23 107.313 159.978 107.714 159.474C108.116 158.961 108.316 158.34 108.316 157.612C108.316 156.884 108.116 156.268 107.714 155.764C107.313 155.26 106.767 155.008 106.076 155.008C105.386 155.008 104.835 155.265 104.424 155.778C104.023 156.282 103.822 156.893 103.822 157.612C103.822 158.34 104.023 158.961 104.424 159.474ZM116.748 161H115.698V156.576C115.698 156.007 115.567 155.605 115.306 155.372C115.045 155.129 114.671 155.008 114.186 155.008C113.794 155.008 113.411 155.111 113.038 155.316C112.674 155.521 112.389 155.769 112.184 156.058V161H111.134V154.238H112.184V155.218C112.445 154.91 112.795 154.644 113.234 154.42C113.673 154.187 114.125 154.07 114.592 154.07C116.029 154.07 116.748 154.798 116.748 156.254V161ZM118.257 160.104L118.803 159.348C119.036 159.619 119.354 159.847 119.755 160.034C120.166 160.221 120.59 160.314 121.029 160.314C121.533 160.314 121.925 160.211 122.205 160.006C122.485 159.801 122.625 159.53 122.625 159.194C122.625 159.017 122.578 158.863 122.485 158.732C122.401 158.601 122.266 158.489 122.079 158.396C121.892 158.303 121.715 158.228 121.547 158.172C121.388 158.116 121.169 158.055 120.889 157.99C120.581 157.915 120.343 157.859 120.175 157.822C120.016 157.775 119.806 157.701 119.545 157.598C119.284 157.486 119.088 157.369 118.957 157.248C118.826 157.117 118.705 156.949 118.593 156.744C118.49 156.529 118.439 156.287 118.439 156.016C118.439 155.465 118.663 155.003 119.111 154.63C119.568 154.257 120.184 154.07 120.959 154.07C121.976 154.07 122.812 154.397 123.465 155.05L122.975 155.778C122.499 155.209 121.827 154.924 120.959 154.924C120.502 154.924 120.138 155.017 119.867 155.204C119.596 155.391 119.461 155.638 119.461 155.946C119.461 156.245 119.596 156.469 119.867 156.618C120.147 156.758 120.562 156.893 121.113 157.024C121.421 157.089 121.664 157.15 121.841 157.206C122.018 157.253 122.238 157.332 122.499 157.444C122.76 157.556 122.961 157.682 123.101 157.822C123.25 157.953 123.376 158.13 123.479 158.354C123.591 158.578 123.647 158.835 123.647 159.124C123.647 159.721 123.414 160.211 122.947 160.594C122.48 160.977 121.827 161.168 120.987 161.168C119.839 161.168 118.929 160.813 118.257 160.104ZM125.129 161.28H124.303L127.621 151.382H128.447L125.129 161.28ZM138.679 161H137.517V153.23L134.339 161H133.863L130.699 153.23V161H129.537V151.662H131.203L134.101 158.774L137.013 151.662H138.679V161ZM140.424 157.612C140.424 156.623 140.741 155.787 141.376 155.106C142.01 154.415 142.804 154.07 143.756 154.07C144.754 154.07 145.543 154.415 146.122 155.106C146.71 155.787 147.004 156.651 147.004 157.696V157.962H141.53C141.576 158.625 141.819 159.18 142.258 159.628C142.696 160.076 143.266 160.3 143.966 160.3C144.806 160.3 145.501 160.015 146.052 159.446L146.556 160.132C145.865 160.823 144.969 161.168 143.868 161.168C142.86 161.168 142.034 160.841 141.39 160.188C140.746 159.525 140.424 158.667 140.424 157.612ZM143.742 154.938C143.07 154.938 142.538 155.167 142.146 155.624C141.763 156.081 141.558 156.604 141.53 157.192H145.968C145.958 156.613 145.762 156.095 145.38 155.638C144.997 155.171 144.451 154.938 143.742 154.938ZM154.654 161H153.604V159.992C153.026 160.776 152.265 161.168 151.322 161.168C150.426 161.168 149.698 160.851 149.138 160.216C148.588 159.572 148.312 158.709 148.312 157.626C148.312 156.553 148.588 155.694 149.138 155.05C149.698 154.397 150.426 154.07 151.322 154.07C152.256 154.07 153.016 154.467 153.604 155.26V151.662H154.654V161ZM153.604 159.166V156.1C153.408 155.792 153.119 155.535 152.736 155.33C152.363 155.115 151.976 155.008 151.574 155.008C150.912 155.008 150.384 155.255 149.992 155.75C149.6 156.235 149.404 156.861 149.404 157.626C149.404 158.391 149.6 159.017 149.992 159.502C150.384 159.987 150.912 160.23 151.574 160.23C151.985 160.23 152.377 160.127 152.75 159.922C153.124 159.717 153.408 159.465 153.604 159.166ZM162.035 161H160.985V160.23C160.416 160.855 159.669 161.168 158.745 161.168C158.12 161.168 157.569 160.967 157.093 160.566C156.617 160.165 156.379 159.619 156.379 158.928C156.379 158.219 156.612 157.673 157.079 157.29C157.555 156.898 158.11 156.702 158.745 156.702C159.706 156.702 160.453 157.01 160.985 157.626V156.408C160.985 155.96 160.826 155.61 160.509 155.358C160.192 155.106 159.781 154.98 159.277 154.98C158.484 154.98 157.793 155.293 157.205 155.918L156.715 155.19C157.434 154.443 158.334 154.07 159.417 154.07C160.192 154.07 160.822 154.257 161.307 154.63C161.792 155.003 162.035 155.577 162.035 156.352V161ZM160.985 159.572V158.298C160.584 157.738 159.963 157.458 159.123 157.458C158.638 157.458 158.236 157.598 157.919 157.878C157.611 158.149 157.457 158.503 157.457 158.942C157.457 159.371 157.611 159.726 157.919 160.006C158.236 160.277 158.638 160.412 159.123 160.412C159.963 160.412 160.584 160.132 160.985 159.572ZM165.848 161.168C165.353 161.168 164.98 161.033 164.728 160.762C164.476 160.491 164.35 160.099 164.35 159.586V155.162H163.23V154.238H164.35V152.39H165.4V154.238H166.772V155.162H165.4V159.362C165.4 159.623 165.456 159.833 165.568 159.992C165.689 160.151 165.862 160.23 166.086 160.23C166.394 160.23 166.632 160.137 166.8 159.95L167.108 160.734C166.8 161.023 166.38 161.168 165.848 161.168ZM173.533 161H172.483V160.23C171.914 160.855 171.167 161.168 170.243 161.168C169.618 161.168 169.067 160.967 168.591 160.566C168.115 160.165 167.877 159.619 167.877 158.928C167.877 158.219 168.11 157.673 168.577 157.29C169.053 156.898 169.608 156.702 170.243 156.702C171.204 156.702 171.951 157.01 172.483 157.626V156.408C172.483 155.96 172.324 155.61 172.007 155.358C171.69 155.106 171.279 154.98 170.775 154.98C169.982 154.98 169.291 155.293 168.703 155.918L168.213 155.19C168.932 154.443 169.832 154.07 170.915 154.07C171.69 154.07 172.32 154.257 172.805 154.63C173.29 155.003 173.533 155.577 173.533 156.352V161ZM172.483 159.572V158.298C172.082 157.738 171.461 157.458 170.621 157.458C170.136 157.458 169.734 157.598 169.417 157.878C169.109 158.149 168.955 158.503 168.955 158.942C168.955 159.371 169.109 159.726 169.417 160.006C169.734 160.277 170.136 160.412 170.621 160.412C171.461 160.412 172.082 160.132 172.483 159.572Z" fill="#20232A"/>
<path d="M184.026 159.5C184.145 159.5 184.244 159.46 184.323 159.38C184.402 159.3 184.442 159.201 184.442 159.083V156.917C184.442 156.799 184.402 156.7 184.321 156.62C184.241 156.54 184.142 156.5 184.024 156.5C183.905 156.5 183.806 156.54 183.727 156.62C183.648 156.7 183.608 156.799 183.608 156.917V159.083C183.608 159.201 183.648 159.3 183.729 159.38C183.809 159.46 183.908 159.5 184.026 159.5ZM184 155.55C184.125 155.55 184.23 155.508 184.315 155.425C184.399 155.342 184.442 155.239 184.442 155.117C184.442 154.989 184.399 154.882 184.315 154.796C184.23 154.71 184.125 154.667 184 154.667C183.875 154.667 183.77 154.71 183.685 154.796C183.601 154.882 183.558 154.989 183.558 155.117C183.558 155.239 183.601 155.342 183.685 155.425C183.77 155.508 183.875 155.55 184 155.55ZM184.002 162C183.312 162 182.663 161.869 182.056 161.606C181.449 161.344 180.919 160.986 180.467 160.533C180.014 160.081 179.656 159.55 179.394 158.943C179.131 158.336 179 157.686 179 156.996C179 156.305 179.131 155.656 179.394 155.049C179.656 154.441 180.014 153.913 180.467 153.463C180.919 153.013 181.45 152.656 182.057 152.394C182.664 152.131 183.314 152 184.004 152C184.695 152 185.344 152.131 185.951 152.394C186.559 152.656 187.088 153.013 187.538 153.463C187.988 153.913 188.344 154.442 188.606 155.05C188.869 155.658 189 156.308 189 156.998C189 157.688 188.869 158.337 188.606 158.944C188.344 159.551 187.988 160.08 187.538 160.532C187.088 160.984 186.558 161.341 185.95 161.605C185.342 161.868 184.692 162 184.002 162ZM184.004 161.167C185.162 161.167 186.146 160.761 186.954 159.95C187.763 159.139 188.167 158.154 188.167 156.996C188.167 155.838 187.763 154.854 186.956 154.046C186.148 153.237 185.163 152.833 184 152.833C182.844 152.833 181.861 153.237 181.05 154.044C180.239 154.852 179.833 155.837 179.833 157C179.833 158.156 180.239 159.139 181.05 159.95C181.861 160.761 182.846 161.167 184.004 161.167Z" fill="#1C1B1F"/>
<mask id="mask5_1553_25309" style="mask-type:alpha" maskUnits="userSpaceOnUse" x="366" y="149" width="16" height="16">
<rect x="366" y="149" width="16" height="16" fill="#D9D9D9"/>
</mask>
<g mask="url(#mask5_1553_25309)">
<path d="M371.867 160.6C371.767 160.485 371.715 160.352 371.711 160.2C371.707 160.048 371.759 159.918 371.867 159.811L374.689 156.989L371.856 154.155C371.756 154.055 371.707 153.924 371.711 153.761C371.715 153.598 371.767 153.467 371.867 153.367C371.981 153.252 372.113 153.196 372.261 153.2C372.409 153.204 372.537 153.259 372.644 153.367L375.878 156.6C375.937 156.659 375.979 156.72 376.003 156.783C376.027 156.846 376.039 156.915 376.039 156.989C376.039 157.063 376.027 157.131 376.003 157.194C375.979 157.257 375.937 157.318 375.878 157.378L372.656 160.6C372.548 160.707 372.419 160.759 372.267 160.755C372.115 160.752 371.981 160.7 371.867 160.6Z" fill="#1C1B1F"/>
</g>
<mask id="mask6_1553_25309" style="mask-type:alpha" maskUnits="userSpaceOnUse" x="38" y="185" width="16" height="16">
<path d="M38 185H54V201H38V185Z" fill="#D9D9D9"/>
</mask>
<g mask="url(#mask6_1553_25309)">
<path d="M44.1685 196.45H48.0985C48.2285 196.45 48.336 196.408 48.421 196.323C48.506 196.238 48.5485 196.13 48.5485 196C48.5485 195.87 48.506 195.762 48.421 195.677C48.336 195.592 48.2285 195.55 48.0985 195.55H44.1685C44.0385 195.55 43.931 195.592 43.846 195.677C43.761 195.762 43.7185 195.87 43.7185 196C43.7185 196.13 43.761 196.238 43.846 196.323C43.931 196.408 44.0385 196.45 44.1685 196.45ZM44.1685 193.9H48.0985C48.2285 193.9 48.336 193.858 48.421 193.773C48.506 193.688 48.5485 193.58 48.5485 193.45C48.5485 193.32 48.506 193.213 48.421 193.128C48.336 193.043 48.2285 193 48.0985 193H44.1685C44.0385 193 43.931 193.043 43.846 193.128C43.761 193.213 43.7185 193.32 43.7185 193.45C43.7185 193.58 43.761 193.688 43.846 193.773C43.931 193.858 44.0385 193.9 44.1685 193.9ZM42.2335 199C41.9935 199 41.7835 198.91 41.6035 198.73C41.4235 198.55 41.3335 198.34 41.3335 198.1V187.9C41.3335 187.66 41.4235 187.45 41.6035 187.27C41.7835 187.09 41.9935 187 42.2335 187H47.2735C47.3935 187 47.511 187.025 47.626 187.075C47.741 187.125 47.8385 187.19 47.9185 187.27L50.6635 190.015C50.7435 190.095 50.8085 190.192 50.8585 190.307C50.9085 190.422 50.9335 190.54 50.9335 190.66V198.1C50.9335 198.34 50.8435 198.55 50.6635 198.73C50.4835 198.91 50.2735 199 50.0335 199H42.2335ZM47.1985 190.24V187.9H42.2335V198.1H50.0335V190.69H47.6485C47.5185 190.69 47.411 190.648 47.326 190.562C47.241 190.477 47.1985 190.37 47.1985 190.24Z" fill="#20232A"/>
</g>
<path d="M64.254 197H63.092V187.662H66.844C67.7493 187.662 68.4633 187.933 68.986 188.474C69.5087 189.015 69.77 189.683 69.77 190.476C69.77 191.269 69.504 191.937 68.972 192.478C68.4493 193.019 67.74 193.29 66.844 193.29H64.254V197ZM68.048 191.764C68.3933 191.428 68.566 190.999 68.566 190.476C68.566 189.953 68.3933 189.529 68.048 189.202C67.7027 188.866 67.2547 188.698 66.704 188.698H64.254V192.254H66.704C67.2547 192.254 67.7027 192.091 68.048 191.764ZM72.3168 197H71.2668V190.238H72.3168V191.33C72.9421 190.509 73.6935 190.098 74.5708 190.098V191.176C74.4401 191.148 74.3001 191.134 74.1508 191.134C73.8335 191.134 73.4881 191.246 73.1148 191.47C72.7415 191.694 72.4755 191.941 72.3168 192.212V197ZM81.2639 196.146C80.6572 196.827 79.8499 197.168 78.8419 197.168C77.8339 197.168 77.0219 196.827 76.4059 196.146C75.7992 195.465 75.4959 194.62 75.4959 193.612C75.4959 192.604 75.7992 191.764 76.4059 191.092C77.0219 190.411 77.8339 190.07 78.8419 190.07C79.8499 190.07 80.6572 190.411 81.2639 191.092C81.8799 191.764 82.1879 192.604 82.1879 193.612C82.1879 194.62 81.8799 195.465 81.2639 196.146ZM77.1899 195.474C77.6006 195.978 78.1512 196.23 78.8419 196.23C79.5326 196.23 80.0786 195.978 80.4799 195.474C80.8812 194.961 81.0819 194.34 81.0819 193.612C81.0819 192.884 80.8812 192.268 80.4799 191.764C80.0786 191.26 79.5326 191.008 78.8419 191.008C78.1512 191.008 77.6006 191.265 77.1899 191.778C76.7886 192.282 76.5879 192.893 76.5879 193.612C76.5879 194.34 76.7886 194.961 77.1899 195.474ZM84.4176 189.104C84.2309 189.104 84.0676 189.034 83.9276 188.894C83.7876 188.754 83.7176 188.586 83.7176 188.39C83.7176 188.194 83.7876 188.031 83.9276 187.9C84.0676 187.76 84.2309 187.69 84.4176 187.69C84.6136 187.69 84.7816 187.76 84.9216 187.9C85.0616 188.031 85.1316 188.194 85.1316 188.39C85.1316 188.586 85.0616 188.754 84.9216 188.894C84.7816 189.034 84.6136 189.104 84.4176 189.104ZM83.8996 190.238H84.9496V197.658C84.9496 198.321 84.7769 198.834 84.4316 199.198C84.0863 199.562 83.5963 199.744 82.9616 199.744C82.6629 199.744 82.4109 199.711 82.2056 199.646L82.3456 198.764C82.4576 198.811 82.6256 198.834 82.8496 198.834C83.5496 198.834 83.8996 198.442 83.8996 197.658V190.238ZM86.6521 193.612C86.6521 192.623 86.9695 191.787 87.6041 191.106C88.2388 190.415 89.0321 190.07 89.9841 190.07C90.9828 190.07 91.7715 190.415 92.3501 191.106C92.9381 191.787 93.2321 192.651 93.2321 193.696V193.962H87.7581C87.8048 194.625 88.0475 195.18 88.4861 195.628C88.9248 196.076 89.4941 196.3 90.1941 196.3C91.0341 196.3 91.7295 196.015 92.2801 195.446L92.7841 196.132C92.0935 196.823 91.1975 197.168 90.0961 197.168C89.0881 197.168 88.2621 196.841 87.6181 196.188C86.9741 195.525 86.6521 194.667 86.6521 193.612ZM89.9701 190.938C89.2981 190.938 88.7661 191.167 88.3741 191.624C87.9915 192.081 87.7861 192.604 87.7581 193.192H92.1961C92.1868 192.613 91.9908 192.095 91.6081 191.638C91.2255 191.171 90.6795 190.938 89.9701 190.938ZM95.4788 196.16C94.8535 195.479 94.5408 194.629 94.5408 193.612C94.5408 192.595 94.8535 191.75 95.4788 191.078C96.1041 190.406 96.9161 190.07 97.9148 190.07C98.9601 190.07 99.7861 190.462 100.393 191.246L99.6928 191.89C99.2635 191.302 98.6895 191.008 97.9708 191.008C97.2615 191.008 96.6921 191.251 96.2628 191.736C95.8428 192.221 95.6328 192.847 95.6328 193.612C95.6328 194.377 95.8428 195.007 96.2628 195.502C96.6921 195.987 97.2615 196.23 97.9708 196.23C98.6801 196.23 99.2541 195.936 99.6928 195.348L100.393 195.992C99.7861 196.776 98.9601 197.168 97.9148 197.168C96.9161 197.168 96.1041 196.832 95.4788 196.16ZM103.572 197.168C103.078 197.168 102.704 197.033 102.452 196.762C102.2 196.491 102.074 196.099 102.074 195.586V191.162H100.954V190.238H102.074V188.39H103.124V190.238H104.496V191.162H103.124V195.362C103.124 195.623 103.18 195.833 103.292 195.992C103.414 196.151 103.586 196.23 103.81 196.23C104.118 196.23 104.356 196.137 104.524 195.95L104.832 196.734C104.524 197.023 104.104 197.168 103.572 197.168ZM105.392 196.104L105.938 195.348C106.171 195.619 106.488 195.847 106.89 196.034C107.3 196.221 107.725 196.314 108.164 196.314C108.668 196.314 109.06 196.211 109.34 196.006C109.62 195.801 109.76 195.53 109.76 195.194C109.76 195.017 109.713 194.863 109.62 194.732C109.536 194.601 109.4 194.489 109.214 194.396C109.027 194.303 108.85 194.228 108.682 194.172C108.523 194.116 108.304 194.055 108.024 193.99C107.716 193.915 107.478 193.859 107.31 193.822C107.151 193.775 106.941 193.701 106.68 193.598C106.418 193.486 106.222 193.369 106.092 193.248C105.961 193.117 105.84 192.949 105.728 192.744C105.625 192.529 105.574 192.287 105.574 192.016C105.574 191.465 105.798 191.003 106.246 190.63C106.703 190.257 107.319 190.07 108.094 190.07C109.111 190.07 109.946 190.397 110.6 191.05L110.11 191.778C109.634 191.209 108.962 190.924 108.094 190.924C107.636 190.924 107.272 191.017 107.002 191.204C106.731 191.391 106.596 191.638 106.596 191.946C106.596 192.245 106.731 192.469 107.002 192.618C107.282 192.758 107.697 192.893 108.248 193.024C108.556 193.089 108.798 193.15 108.976 193.206C109.153 193.253 109.372 193.332 109.634 193.444C109.895 193.556 110.096 193.682 110.236 193.822C110.385 193.953 110.511 194.13 110.614 194.354C110.726 194.578 110.782 194.835 110.782 195.124C110.782 195.721 110.548 196.211 110.082 196.594C109.615 196.977 108.962 197.168 108.122 197.168C106.974 197.168 106.064 196.813 105.392 196.104Z" fill="#20232A"/>
<path d="M121.026 195.5C121.145 195.5 121.244 195.46 121.323 195.38C121.402 195.3 121.442 195.201 121.442 195.083V192.917C121.442 192.799 121.402 192.7 121.321 192.62C121.241 192.54 121.142 192.5 121.024 192.5C120.905 192.5 120.806 192.54 120.727 192.62C120.648 192.7 120.608 192.799 120.608 192.917V195.083C120.608 195.201 120.648 195.3 120.729 195.38C120.809 195.46 120.908 195.5 121.026 195.5ZM121 191.55C121.125 191.55 121.23 191.508 121.315 191.425C121.399 191.342 121.442 191.239 121.442 191.117C121.442 190.989 121.399 190.882 121.315 190.796C121.23 190.71 121.125 190.667 121 190.667C120.875 190.667 120.77 190.71 120.685 190.796C120.601 190.882 120.558 190.989 120.558 191.117C120.558 191.239 120.601 191.342 120.685 191.425C120.77 191.508 120.875 191.55 121 191.55ZM121.002 198C120.312 198 119.663 197.869 119.056 197.606C118.449 197.344 117.919 196.986 117.467 196.533C117.014 196.081 116.656 195.55 116.394 194.943C116.131 194.336 116 193.686 116 192.996C116 192.305 116.131 191.656 116.394 191.049C116.656 190.441 117.014 189.913 117.467 189.463C117.919 189.013 118.45 188.656 119.057 188.394C119.664 188.131 120.314 188 121.004 188C121.695 188 122.344 188.131 122.951 188.394C123.559 188.656 124.088 189.013 124.538 189.463C124.988 189.913 125.344 190.442 125.606 191.05C125.869 191.658 126 192.308 126 192.998C126 193.688 125.869 194.337 125.606 194.944C125.344 195.551 124.988 196.08 124.538 196.532C124.088 196.984 123.558 197.341 122.95 197.605C122.342 197.868 121.692 198 121.002 198ZM121.004 197.167C122.162 197.167 123.146 196.761 123.954 195.95C124.763 195.139 125.167 194.154 125.167 192.996C125.167 191.838 124.763 190.854 123.956 190.046C123.148 189.237 122.163 188.833 121 188.833C119.844 188.833 118.861 189.237 118.05 190.044C117.239 190.852 116.833 191.837 116.833 193C116.833 194.156 117.239 195.139 118.05 195.95C118.861 196.761 119.846 197.167 121.004 197.167Z" fill="#1C1B1F"/>
<mask id="mask7_1553_25309" style="mask-type:alpha" maskUnits="userSpaceOnUse" x="366" y="185" width="16" height="16">
<rect x="366" y="185" width="16" height="16" fill="#D9D9D9"/>
</mask>
<g mask="url(#mask7_1553_25309)">
<path d="M371.867 196.6C371.767 196.485 371.715 196.352 371.711 196.2C371.707 196.048 371.759 195.918 371.867 195.811L374.689 192.989L371.856 190.155C371.756 190.055 371.707 189.924 371.711 189.761C371.715 189.598 371.767 189.467 371.867 189.367C371.981 189.252 372.113 189.196 372.261 189.2C372.409 189.204 372.537 189.259 372.644 189.367L375.878 192.6C375.937 192.659 375.979 192.72 376.003 192.783C376.027 192.846 376.039 192.915 376.039 192.989C376.039 193.063 376.027 193.131 376.003 193.194C375.979 193.257 375.937 193.318 375.878 193.378L372.656 196.6C372.548 196.707 372.419 196.759 372.267 196.755C372.115 196.752 371.981 196.7 371.867 196.6Z" fill="#1C1B1F"/>
</g>
<mask id="mask8_1553_25309" style="mask-type:alpha" maskUnits="userSpaceOnUse" x="38" y="221" width="16" height="16">
<rect x="38" y="221" width="16" height="16" fill="#D9D9D9"/>
</mask>
<g mask="url(#mask8_1553_25309)">
<path d="M47.5002 235.267C47.2446 235.522 46.9279 235.65 46.5502 235.65C46.1724 235.65 45.8557 235.522 45.6002 235.267L39.7335 229.4C39.6113 229.278 39.5141 229.133 39.4418 228.967C39.3696 228.8 39.3335 228.622 39.3335 228.433V223.667C39.3335 223.3 39.4641 222.986 39.7252 222.725C39.9863 222.464 40.3002 222.333 40.6668 222.333H45.4335C45.6224 222.333 45.8002 222.37 45.9668 222.442C46.1335 222.514 46.2779 222.611 46.4002 222.733L52.2668 228.617C52.5224 228.872 52.6502 229.186 52.6502 229.558C52.6502 229.931 52.5224 230.245 52.2668 230.5L47.5002 235.267ZM46.5502 234.333L51.3168 229.567L45.4335 223.667H40.6668V228.433L46.5502 234.333ZM42.3335 226.333C42.6113 226.333 42.8474 226.236 43.0418 226.042C43.2363 225.847 43.3335 225.611 43.3335 225.333C43.3335 225.056 43.2363 224.82 43.0418 224.625C42.8474 224.431 42.6113 224.333 42.3335 224.333C42.0557 224.333 41.8196 224.431 41.6252 224.625C41.4307 224.82 41.3335 225.056 41.3335 225.333C41.3335 225.611 41.4307 225.847 41.6252 226.042C41.8196 226.236 42.0557 226.333 42.3335 226.333Z" fill="#20232A"/>
</g>
<path d="M66.564 233H65.402V224.698H62.448V223.662H69.532V224.698H66.564V233ZM74.9862 233H73.9362V232.23C73.3669 232.855 72.6202 233.168 71.6962 233.168C71.0709 233.168 70.5202 232.967 70.0442 232.566C69.5682 232.165 69.3302 231.619 69.3302 230.928C69.3302 230.219 69.5635 229.673 70.0302 229.29C70.5062 228.898 71.0615 228.702 71.6962 228.702C72.6575 228.702 73.4042 229.01 73.9362 229.626V228.408C73.9362 227.96 73.7775 227.61 73.4602 227.358C73.1429 227.106 72.7322 226.98 72.2282 226.98C71.4349 226.98 70.7442 227.293 70.1562 227.918L69.6662 227.19C70.3849 226.443 71.2855 226.07 72.3682 226.07C73.1429 226.07 73.7729 226.257 74.2582 226.63C74.7435 227.003 74.9862 227.577 74.9862 228.352V233ZM73.9362 231.572V230.298C73.5349 229.738 72.9142 229.458 72.0742 229.458C71.5889 229.458 71.1875 229.598 70.8702 229.878C70.5622 230.149 70.4082 230.503 70.4082 230.942C70.4082 231.371 70.5622 231.726 70.8702 232.006C71.1875 232.277 71.5889 232.412 72.0742 232.412C72.9142 232.412 73.5349 232.132 73.9362 231.572ZM77.077 234.736L77.609 233.952C78.1223 234.568 78.855 234.876 79.807 234.876C80.4323 234.876 80.9503 234.708 81.361 234.372C81.7717 234.045 81.977 233.537 81.977 232.846V231.88C81.725 232.235 81.3983 232.524 80.997 232.748C80.5957 232.972 80.1663 233.084 79.709 233.084C78.813 233.084 78.085 232.771 77.525 232.146C76.9743 231.511 76.699 230.657 76.699 229.584C76.699 228.511 76.9743 227.657 77.525 227.022C78.085 226.387 78.813 226.07 79.709 226.07C80.633 226.07 81.389 226.467 81.977 227.26V226.238H83.027V232.804C83.027 233.84 82.7237 234.587 82.117 235.044C81.5103 235.511 80.7403 235.744 79.807 235.744C79.2097 235.744 78.701 235.669 78.281 235.52C77.861 235.38 77.4597 235.119 77.077 234.736ZM81.977 231.054V228.1C81.7903 227.792 81.5103 227.535 81.137 227.33C80.7637 227.115 80.3717 227.008 79.961 227.008C79.289 227.008 78.757 227.246 78.365 227.722C77.9823 228.198 77.791 228.819 77.791 229.584C77.791 230.34 77.987 230.961 78.379 231.446C78.771 231.922 79.2983 232.16 79.961 232.16C80.3623 232.16 80.7497 232.053 81.123 231.838C81.5057 231.623 81.7903 231.362 81.977 231.054ZM84.5421 232.104L85.0881 231.348C85.3214 231.619 85.6387 231.847 86.0401 232.034C86.4507 232.221 86.8754 232.314 87.3141 232.314C87.8181 232.314 88.2101 232.211 88.4901 232.006C88.7701 231.801 88.9101 231.53 88.9101 231.194C88.9101 231.017 88.8634 230.863 88.7701 230.732C88.6861 230.601 88.5507 230.489 88.3641 230.396C88.1774 230.303 88.0001 230.228 87.8321 230.172C87.6734 230.116 87.4541 230.055 87.1741 229.99C86.8661 229.915 86.6281 229.859 86.4601 229.822C86.3014 229.775 86.0914 229.701 85.8301 229.598C85.5687 229.486 85.3727 229.369 85.2421 229.248C85.1114 229.117 84.9901 228.949 84.8781 228.744C84.7754 228.529 84.7241 228.287 84.7241 228.016C84.7241 227.465 84.9481 227.003 85.3961 226.63C85.8534 226.257 86.4694 226.07 87.2441 226.07C88.2614 226.07 89.0967 226.397 89.7501 227.05L89.2601 227.778C88.7841 227.209 88.1121 226.924 87.2441 226.924C86.7867 226.924 86.4227 227.017 86.1521 227.204C85.8814 227.391 85.7461 227.638 85.7461 227.946C85.7461 228.245 85.8814 228.469 86.1521 228.618C86.4321 228.758 86.8474 228.893 87.3981 229.024C87.7061 229.089 87.9487 229.15 88.1261 229.206C88.3034 229.253 88.5227 229.332 88.7841 229.444C89.0454 229.556 89.2461 229.682 89.3861 229.822C89.5354 229.953 89.6614 230.13 89.7641 230.354C89.8761 230.578 89.9321 230.835 89.9321 231.124C89.9321 231.721 89.6987 232.211 89.2321 232.594C88.7654 232.977 88.1121 233.168 87.2721 233.168C86.1241 233.168 85.2141 232.813 84.5421 232.104Z" fill="#20232A"/>
<path d="M104.026 231.5C104.145 231.5 104.244 231.46 104.323 231.38C104.402 231.3 104.442 231.201 104.442 231.083V228.917C104.442 228.799 104.402 228.7 104.321 228.62C104.241 228.54 104.142 228.5 104.024 228.5C103.905 228.5 103.806 228.54 103.727 228.62C103.648 228.7 103.608 228.799 103.608 228.917V231.083C103.608 231.201 103.648 231.3 103.729 231.38C103.809 231.46 103.908 231.5 104.026 231.5ZM104 227.55C104.125 227.55 104.23 227.508 104.315 227.425C104.399 227.342 104.442 227.239 104.442 227.117C104.442 226.989 104.399 226.882 104.315 226.796C104.23 226.71 104.125 226.667 104 226.667C103.875 226.667 103.77 226.71 103.685 226.796C103.601 226.882 103.558 226.989 103.558 227.117C103.558 227.239 103.601 227.342 103.685 227.425C103.77 227.508 103.875 227.55 104 227.55ZM104.002 234C103.312 234 102.663 233.869 102.056 233.606C101.449 233.344 100.919 232.986 100.467 232.533C100.014 232.081 99.6563 231.55 99.3938 230.943C99.1313 230.336 99 229.686 99 228.996C99 228.305 99.1313 227.656 99.3938 227.049C99.6563 226.441 100.014 225.913 100.467 225.463C100.919 225.013 101.45 224.656 102.057 224.394C102.664 224.131 103.314 224 104.004 224C104.695 224 105.344 224.131 105.951 224.394C106.559 224.656 107.088 225.013 107.538 225.463C107.988 225.913 108.344 226.442 108.606 227.05C108.869 227.658 109 228.308 109 228.998C109 229.688 108.869 230.337 108.606 230.944C108.344 231.551 107.988 232.08 107.538 232.532C107.088 232.984 106.558 233.341 105.95 233.605C105.342 233.868 104.692 234 104.002 234ZM104.004 233.167C105.162 233.167 106.146 232.761 106.954 231.95C107.763 231.139 108.167 230.154 108.167 228.996C108.167 227.838 107.763 226.854 106.956 226.046C106.148 225.237 105.163 224.833 104 224.833C102.844 224.833 101.861 225.237 101.05 226.044C100.239 226.852 99.8333 227.837 99.8333 229C99.8333 230.156 100.239 231.139 101.05 231.95C101.861 232.761 102.846 233.167 104.004 233.167Z" fill="#1C1B1F"/>
<mask id="mask9_1553_25309" style="mask-type:alpha" maskUnits="userSpaceOnUse" x="366" y="221" width="16" height="16">
<rect x="366" y="221" width="16" height="16" fill="#D9D9D9"/>
</mask>
<g mask="url(#mask9_1553_25309)">
<path d="M371.867 232.6C371.767 232.485 371.715 232.352 371.711 232.2C371.707 232.048 371.759 231.918 371.867 231.811L374.689 228.989L371.856 226.155C371.756 226.055 371.707 225.924 371.711 225.761C371.715 225.598 371.767 225.467 371.867 225.367C371.981 225.252 372.113 225.196 372.261 225.2C372.409 225.204 372.537 225.259 372.644 225.367L375.878 228.6C375.937 228.659 375.979 228.72 376.003 228.783C376.027 228.846 376.039 228.915 376.039 228.989C376.039 229.063 376.027 229.131 376.003 229.194C375.979 229.257 375.937 229.318 375.878 229.378L372.656 232.6C372.548 232.707 372.419 232.759 372.267 232.755C372.115 232.752 371.981 232.7 371.867 232.6Z" fill="#1C1B1F"/>
</g>
<mask id="mask10_1553_25309" style="mask-type:alpha" maskUnits="userSpaceOnUse" x="38" y="257" width="16" height="16">
<rect x="38" y="257" width="16" height="16" fill="#D9D9D9"/>
</mask>
<g mask="url(#mask10_1553_25309)">
<path d="M47.5002 271.267C47.2446 271.522 46.9279 271.65 46.5502 271.65C46.1724 271.65 45.8557 271.522 45.6002 271.267L39.7335 265.4C39.6113 265.278 39.5141 265.133 39.4418 264.967C39.3696 264.8 39.3335 264.622 39.3335 264.433V259.667C39.3335 259.3 39.4641 258.986 39.7252 258.725C39.9863 258.464 40.3002 258.333 40.6668 258.333H45.4335C45.6224 258.333 45.8002 258.37 45.9668 258.442C46.1335 258.514 46.2779 258.611 46.4002 258.733L52.2668 264.617C52.5224 264.872 52.6502 265.186 52.6502 265.558C52.6502 265.931 52.5224 266.245 52.2668 266.5L47.5002 271.267ZM46.5502 270.333L51.3168 265.567L45.4335 259.667H40.6668V264.433L46.5502 270.333ZM42.3335 262.333C42.6113 262.333 42.8474 262.236 43.0418 262.042C43.2363 261.847 43.3335 261.611 43.3335 261.333C43.3335 261.056 43.2363 260.82 43.0418 260.625C42.8474 260.431 42.6113 260.333 42.3335 260.333C42.0557 260.333 41.8196 260.431 41.6252 260.625C41.4307 260.82 41.3335 261.056 41.3335 261.333C41.3335 261.611 41.4307 261.847 41.6252 262.042C41.8196 262.236 42.0557 262.333 42.3335 262.333Z" fill="#20232A"/>
</g>
<path d="M70.82 269H69.7L64.254 261.468V269H63.092V259.662H64.282L69.658 267.04V259.662H70.82V269ZM78.5061 269H73.0041V259.662H74.1661V267.964H78.5061V269ZM81.3028 269H80.1408V259.662H83.8928C84.7982 259.662 85.5122 259.933 86.0348 260.474C86.5575 261.015 86.8188 261.683 86.8188 262.476C86.8188 263.269 86.5528 263.937 86.0208 264.478C85.4982 265.019 84.7888 265.29 83.8928 265.29H81.3028V269ZM85.0968 263.764C85.4422 263.428 85.6148 262.999 85.6148 262.476C85.6148 261.953 85.4422 261.529 85.0968 261.202C84.7515 260.866 84.3035 260.698 83.7528 260.698H81.3028V264.254H83.7528C84.3035 264.254 84.7515 264.091 85.0968 263.764ZM96.349 269.168C95.005 269.168 93.8757 268.715 92.961 267.81C92.0463 266.905 91.589 265.747 91.589 264.338C91.589 262.929 92.0463 261.771 92.961 260.866C93.8757 259.961 95.005 259.508 96.349 259.508C97.8703 259.508 99.065 260.124 99.933 261.356L98.953 261.902C98.6823 261.501 98.3137 261.174 97.847 260.922C97.3897 260.67 96.8903 260.544 96.349 260.544C95.341 260.544 94.4963 260.903 93.815 261.622C93.1337 262.331 92.793 263.237 92.793 264.338C92.793 265.439 93.1337 266.349 93.815 267.068C94.4963 267.777 95.341 268.132 96.349 268.132C96.8903 268.132 97.3897 268.011 97.847 267.768C98.3137 267.516 98.6823 267.185 98.953 266.774L99.947 267.32C99.0417 268.552 97.8423 269.168 96.349 269.168ZM106.762 268.146C106.155 268.827 105.348 269.168 104.34 269.168C103.332 269.168 102.52 268.827 101.904 268.146C101.297 267.465 100.994 266.62 100.994 265.612C100.994 264.604 101.297 263.764 101.904 263.092C102.52 262.411 103.332 262.07 104.34 262.07C105.348 262.07 106.155 262.411 106.762 263.092C107.378 263.764 107.686 264.604 107.686 265.612C107.686 266.62 107.378 267.465 106.762 268.146ZM102.688 267.474C103.099 267.978 103.649 268.23 104.34 268.23C105.031 268.23 105.577 267.978 105.978 267.474C106.379 266.961 106.58 266.34 106.58 265.612C106.58 264.884 106.379 264.268 105.978 263.764C105.577 263.26 105.031 263.008 104.34 263.008C103.649 263.008 103.099 263.265 102.688 263.778C102.287 264.282 102.086 264.893 102.086 265.612C102.086 266.34 102.287 266.961 102.688 267.474ZM115.012 269H113.962V264.576C113.962 264.007 113.831 263.605 113.57 263.372C113.308 263.129 112.935 263.008 112.45 263.008C112.058 263.008 111.675 263.111 111.302 263.316C110.938 263.521 110.653 263.769 110.448 264.058V269H109.398V262.238H110.448V263.218C110.709 262.91 111.059 262.644 111.498 262.42C111.936 262.187 112.389 262.07 112.856 262.07C114.293 262.07 115.012 262.798 115.012 264.254V269ZM123.059 269H122.009V267.992C121.43 268.776 120.669 269.168 119.727 269.168C118.831 269.168 118.103 268.851 117.543 268.216C116.992 267.572 116.717 266.709 116.717 265.626C116.717 264.553 116.992 263.694 117.543 263.05C118.103 262.397 118.831 262.07 119.727 262.07C120.66 262.07 121.421 262.467 122.009 263.26V259.662H123.059V269ZM122.009 267.166V264.1C121.813 263.792 121.523 263.535 121.141 263.33C120.767 263.115 120.38 263.008 119.979 263.008C119.316 263.008 118.789 263.255 118.397 263.75C118.005 264.235 117.809 264.861 117.809 265.626C117.809 266.391 118.005 267.017 118.397 267.502C118.789 267.987 119.316 268.23 119.979 268.23C120.389 268.23 120.781 268.127 121.155 267.922C121.528 267.717 121.813 267.465 122.009 267.166ZM125.679 261.104C125.493 261.104 125.329 261.034 125.189 260.894C125.049 260.754 124.979 260.586 124.979 260.39C124.979 260.194 125.049 260.031 125.189 259.9C125.329 259.76 125.493 259.69 125.679 259.69C125.875 259.69 126.043 259.76 126.183 259.9C126.323 260.031 126.393 260.194 126.393 260.39C126.393 260.586 126.323 260.754 126.183 260.894C126.043 261.034 125.875 261.104 125.679 261.104ZM126.211 269H125.161V262.238H126.211V269ZM130.014 269.168C129.519 269.168 129.146 269.033 128.894 268.762C128.642 268.491 128.516 268.099 128.516 267.586V263.162H127.396V262.238H128.516V260.39H129.566V262.238H130.938V263.162H129.566V267.362C129.566 267.623 129.622 267.833 129.734 267.992C129.855 268.151 130.028 268.23 130.252 268.23C130.56 268.23 130.798 268.137 130.966 267.95L131.274 268.734C130.966 269.023 130.546 269.168 130.014 269.168ZM132.939 261.104C132.752 261.104 132.589 261.034 132.449 260.894C132.309 260.754 132.239 260.586 132.239 260.39C132.239 260.194 132.309 260.031 132.449 259.9C132.589 259.76 132.752 259.69 132.939 259.69C133.135 259.69 133.303 259.76 133.443 259.9C133.583 260.031 133.653 260.194 133.653 260.39C133.653 260.586 133.583 260.754 133.443 260.894C133.303 261.034 133.135 261.104 132.939 261.104ZM133.471 269H132.421V262.238H133.471V269ZM140.942 268.146C140.335 268.827 139.528 269.168 138.52 269.168C137.512 269.168 136.7 268.827 136.084 268.146C135.477 267.465 135.174 266.62 135.174 265.612C135.174 264.604 135.477 263.764 136.084 263.092C136.7 262.411 137.512 262.07 138.52 262.07C139.528 262.07 140.335 262.411 140.942 263.092C141.558 263.764 141.866 264.604 141.866 265.612C141.866 266.62 141.558 267.465 140.942 268.146ZM136.868 267.474C137.278 267.978 137.829 268.23 138.52 268.23C139.21 268.23 139.756 267.978 140.158 267.474C140.559 266.961 140.76 266.34 140.76 265.612C140.76 264.884 140.559 264.268 140.158 263.764C139.756 263.26 139.21 263.008 138.52 263.008C137.829 263.008 137.278 263.265 136.868 263.778C136.466 264.282 136.266 264.893 136.266 265.612C136.266 266.34 136.466 266.961 136.868 267.474ZM149.191 269H148.141V264.576C148.141 264.007 148.011 263.605 147.749 263.372C147.488 263.129 147.115 263.008 146.629 263.008C146.237 263.008 145.855 263.111 145.481 263.316C145.117 263.521 144.833 263.769 144.627 264.058V269H143.577V262.238H144.627V263.218C144.889 262.91 145.239 262.644 145.677 262.42C146.116 262.187 146.569 262.07 147.035 262.07C148.473 262.07 149.191 262.798 149.191 264.254V269ZM150.7 268.104L151.246 267.348C151.48 267.619 151.797 267.847 152.198 268.034C152.609 268.221 153.034 268.314 153.472 268.314C153.976 268.314 154.368 268.211 154.648 268.006C154.928 267.801 155.068 267.53 155.068 267.194C155.068 267.017 155.022 266.863 154.928 266.732C154.844 266.601 154.709 266.489 154.522 266.396C154.336 266.303 154.158 266.228 153.99 266.172C153.832 266.116 153.612 266.055 153.332 265.99C153.024 265.915 152.786 265.859 152.618 265.822C152.46 265.775 152.25 265.701 151.988 265.598C151.727 265.486 151.531 265.369 151.4 265.248C151.27 265.117 151.148 264.949 151.036 264.744C150.934 264.529 150.882 264.287 150.882 264.016C150.882 263.465 151.106 263.003 151.554 262.63C152.012 262.257 152.628 262.07 153.402 262.07C154.42 262.07 155.255 262.397 155.908 263.05L155.418 263.778C154.942 263.209 154.27 262.924 153.402 262.924C152.945 262.924 152.581 263.017 152.31 263.204C152.04 263.391 151.904 263.638 151.904 263.946C151.904 264.245 152.04 264.469 152.31 264.618C152.59 264.758 153.006 264.893 153.556 265.024C153.864 265.089 154.107 265.15 154.284 265.206C154.462 265.253 154.681 265.332 154.942 265.444C155.204 265.556 155.404 265.682 155.544 265.822C155.694 265.953 155.82 266.13 155.922 266.354C156.034 266.578 156.09 266.835 156.09 267.124C156.09 267.721 155.857 268.211 155.39 268.594C154.924 268.977 154.27 269.168 153.43 269.168C152.282 269.168 151.372 268.813 150.7 268.104Z" fill="#20232A"/>
<path d="M170.026 267.5C170.145 267.5 170.244 267.46 170.323 267.38C170.402 267.3 170.442 267.201 170.442 267.083V264.917C170.442 264.799 170.402 264.7 170.321 264.62C170.241 264.54 170.142 264.5 170.024 264.5C169.905 264.5 169.806 264.54 169.727 264.62C169.648 264.7 169.608 264.799 169.608 264.917V267.083C169.608 267.201 169.648 267.3 169.729 267.38C169.809 267.46 169.908 267.5 170.026 267.5ZM170 263.55C170.125 263.55 170.23 263.508 170.315 263.425C170.399 263.342 170.442 263.239 170.442 263.117C170.442 262.989 170.399 262.882 170.315 262.796C170.23 262.71 170.125 262.667 170 262.667C169.875 262.667 169.77 262.71 169.685 262.796C169.601 262.882 169.558 262.989 169.558 263.117C169.558 263.239 169.601 263.342 169.685 263.425C169.77 263.508 169.875 263.55 170 263.55ZM170.002 270C169.312 270 168.663 269.869 168.056 269.606C167.449 269.344 166.919 268.986 166.467 268.533C166.014 268.081 165.656 267.55 165.394 266.943C165.131 266.336 165 265.686 165 264.996C165 264.305 165.131 263.656 165.394 263.049C165.656 262.441 166.014 261.913 166.467 261.463C166.919 261.013 167.45 260.656 168.057 260.394C168.664 260.131 169.314 260 170.004 260C170.695 260 171.344 260.131 171.951 260.394C172.559 260.656 173.088 261.013 173.538 261.463C173.988 261.913 174.344 262.442 174.606 263.05C174.869 263.658 175 264.308 175 264.998C175 265.688 174.869 266.337 174.606 266.944C174.344 267.551 173.988 268.08 173.538 268.532C173.088 268.984 172.558 269.341 171.95 269.605C171.342 269.868 170.692 270 170.002 270ZM170.004 269.167C171.162 269.167 172.146 268.761 172.954 267.95C173.763 267.139 174.167 266.154 174.167 264.996C174.167 263.838 173.763 262.854 172.956 262.046C172.148 261.237 171.163 260.833 170 260.833C168.844 260.833 167.861 261.237 167.05 262.044C166.239 262.852 165.833 263.837 165.833 265C165.833 266.156 166.239 267.139 167.05 267.95C167.861 268.761 168.846 269.167 170.004 269.167Z" fill="#1C1B1F"/>
<mask id="mask11_1553_25309" style="mask-type:alpha" maskUnits="userSpaceOnUse" x="366" y="257" width="16" height="16">
<rect x="366" y="257" width="16" height="16" fill="#D9D9D9"/>
</mask>
<g mask="url(#mask11_1553_25309)">
<path d="M371.867 268.6C371.767 268.485 371.715 268.352 371.711 268.2C371.707 268.048 371.759 267.918 371.867 267.811L374.689 264.989L371.856 262.155C371.756 262.055 371.707 261.924 371.711 261.761C371.715 261.598 371.767 261.467 371.867 261.367C371.981 261.252 372.113 261.196 372.261 261.2C372.409 261.204 372.537 261.259 372.644 261.367L375.878 264.6C375.937 264.659 375.979 264.72 376.003 264.783C376.027 264.846 376.039 264.915 376.039 264.989C376.039 265.063 376.027 265.131 376.003 265.194C375.979 265.257 375.937 265.318 375.878 265.378L372.656 268.6C372.548 268.707 372.419 268.759 372.267 268.755C372.115 268.752 371.981 268.7 371.867 268.6Z" fill="#1C1B1F"/>
</g>
</g>
<defs>
<filter id="filter0_dd_1553_25309" x="15" y="61" width="390" height="236" filterUnits="userSpaceOnUse" color-interpolation-filters="sRGB">
<feFlood flood-opacity="0" result="BackgroundImageFix"/>
<feColorMatrix in="SourceAlpha" type="matrix" values="0 0 0 0 0 0 0 0 0 0 0 0 0 0 0 0 0 0 127 0" result="hardAlpha"/>
<feMorphology radius="1" operator="erode" in="SourceAlpha" result="effect1_dropShadow_1553_25309"/>
<feOffset dy="4"/>
<feGaussianBlur stdDeviation="3"/>
<feColorMatrix type="matrix" values="0 0 0 0 0 0 0 0 0 0 0 0 0 0 0 0 0 0 0.1 0"/>
<feBlend mode="normal" in2="BackgroundImageFix" result="effect1_dropShadow_1553_25309"/>
<feColorMatrix in="SourceAlpha" type="matrix" values="0 0 0 0 0 0 0 0 0 0 0 0 0 0 0 0 0 0 127 0" result="hardAlpha"/>
<feMorphology radius="2" operator="erode" in="SourceAlpha" result="effect2_dropShadow_1553_25309"/>
<feOffset dy="2"/>
<feGaussianBlur stdDeviation="2"/>
<feColorMatrix type="matrix" values="0 0 0 0 0 0 0 0 0 0 0 0 0 0 0 0 0 0 0.1 0"/>
<feBlend mode="normal" in2="effect1_dropShadow_1553_25309" result="effect2_dropShadow_1553_25309"/>
<feBlend mode="normal" in="SourceGraphic" in2="effect2_dropShadow_1553_25309" result="shape"/>
</filter>
</defs>
</svg>
